M48
;Layer_Color=9474304
;FILE_FORMAT=4:4
METRIC,LZ
;TYPE=PLATED
T1F00S00C0.2000
T2F00S00C0.2032
T3F00S00C0.2540
T4F00S00C0.5080
T5F00S00C2.6000
;TYPE=NON_PLATED
T6F00S00C0.7500
T7F00S00C0.8000
T8F00S00C0.9906
T9F00S00C1.2000
T10F00S00C2.3749
%
T01
X00172493Y-00007994
X00180494
X00188493
X00196493
X00204494
X00196493Y00007997
X00188493
X00180494
X00172493
X00211248Y00022002
X00266697Y00037084
X002695Y0007325
X002745Y00131
X00149Y000405
X0014125Y00041
X00141257Y00008
X00149507
X00164494Y00007997
Y-00007994
X00156494
X00148493
X00132493
X00124494
X00116494
X00108493
X00100493
X00092493
X00084494
X00076494
X00068493
X00060493
X00052494
X00084494Y00007997
X00092493
X00100493
X00108755Y00008
X00116494Y00007997
X00124756Y00008
X00133006
X0013875Y-0000075
X000515Y0006725
X00019854Y00043082
X00009Y0017325
X00003048Y0018034
X-0001975Y001885
X-00055Y0011425
X-00055626Y00347726
X-0003525Y00348
X-0004Y0039
X-00055118Y00391668
X-0002475Y0039275
X-0004699Y00418846
T02
X00172Y0003925
X00178537Y00036214
X00181Y00046
X001925Y0004325
X00201Y0004
Y00052
X00217Y0006225
X00216662Y00074422
X00225Y00068
X0024075Y000685
X00232812Y00057312
X00223Y00046
X0022525Y0003825
X0026Y0005
Y0006
X00265Y00055
X00263763Y00066253
X0026Y000725
X00261366Y00083312
X0026925Y0008175
X0029175Y000825
X00295Y00075
X00292354Y00066548
X0029425Y00057
X0030245Y0008225
X0031325Y0008225
X003285Y0008975
X0033401Y0009525
X00333766Y00102755
X0033401Y00118856
X0032766Y00125206
X003325Y0013225
X0031775
X00312Y00139
X0029975
X00285Y00144
X00269494Y00136906
X00259Y0013825
X00264668Y00127762
X00260096Y00122174
X00261366Y00115062
X00253746Y00112268
X0024525Y0011
X00244512Y00101755
X00239776Y0009525
X00236474Y000889
X0019325Y0008475
X00192759Y00096755
X0019325Y00104
X001735Y0009275
X0017825Y0008
X00179832Y0006604
X001725Y000665
X00187198Y00067056
X0019422Y0013425
X00214884Y00137922
X0022098Y00143256
X0021528Y0016425
X00220261Y00177009
X00227261Y00175009
X002175Y001835
X0021725Y0019075
X0018646Y00196918
X00194056Y00211328
X00195628Y0021925
X0019422Y0022925
Y0023925
X0018796Y0025781
X00180848Y00258318
X00177546Y0025146
X00170916Y002545
X0020601Y00260013
X0021528Y0023425
X00224761Y00237512
X0024225Y0022325
X0025875Y0022875
X00267716Y00230124
X002645Y0022275
X00266263Y00215511
X00266763Y0020226
X0025875Y0019775
X00258826Y00167132
X00251012Y00167008
X00242012Y00166508
X0027325Y0015725
X00283464Y00168148
X00298958Y00175006
X00308864Y00169418
X00315976Y00168148
X00323596Y00167132
X0033275Y0015625
X0033325Y00184
X0032131Y0019939
X00313944Y00197104
X00308102Y00208026
X00292608Y00198882
X00294Y00231
Y00241
X00284Y00241
X00284Y00231
X00274Y00241
Y00251
X00284
X00294Y00251508
X00304Y00251
X003215Y0024825
Y0026025
X0033175Y0025375
X0033325Y002355
X0033275Y0021225
X0025775Y00252
X0024075Y002645
X00172974Y00215392
X00171958Y00208026
X0017175Y001825
X00173759Y00169258
X0019422Y0015925
X00293624Y00112014
X00291592Y0010414
X00301244Y0010922
X0030225Y000973
X0033325Y0007325
X00251714Y00010094
Y-00009906
Y-00029906
X00164846Y00040386
X0016256Y00067056
X0016025Y00075
X00149007Y00076754
X00153416Y00068326
X00144757Y00086004
X00133584Y00087106
X0012175Y000895
X001225Y00081016
X00126006Y00074254
X00126256Y00066003
X00110755Y00067503
X00095255Y00066253
X00094488Y00073914
X00087122Y00074684
X00079756Y0007493
X00072253Y00074254
X00065261Y00075675
X0005334Y00074676
X00061003Y00066503
X0003275Y00068
X00021Y00066688
X0001125Y00075004
X0000278Y0008425
X00002254Y0009356
X00003Y0010075
X00004064Y00115316
X0002225Y0011675
X00014986Y0009398
X-0002125Y0008925
X-00026001Y00101255
X-0003275Y00097
X-00053284Y0010675
X-0005311Y00124864
X-00037502Y00125506
X-00018796Y0012827
X-0002425Y0013825
X-00024618Y00148094
X-00017784Y0016425
X-00022272Y001807
X-000245Y00197
X-00034Y00204
X-00018288Y00212852
X-00022352Y00221234
X-00023Y002305
X-000155Y0025825
X-00035Y0026
X00007Y00258
X0000575Y0027275
X00023664Y00257694
X00031251Y00255763
X00035Y00245
X000145Y00243
X00008065Y00237686
X00015Y0023
X0002232Y0022425
X000245Y002065
X00017938Y00201915
X000185Y001945
X00011938Y00191262
X0001523Y0016673
X00024745Y00166755
X0000275Y00168758
X0000277Y00161476
X0000278Y0015425
X-00044354Y0015359
Y00165942
X-00045926Y00173022
X-0007575Y00171
X-0006925Y0016076
X-00075Y0013
Y00115
Y00095
X-0007Y0008075
X-0005825Y0009075
X-00044407Y00064762
X-0005275Y0005625
X-0001725Y0006875
X-000095Y00062253
X-0000254Y00054102
X-000145Y0004025
X000325Y00038
X00005Y0001
Y-0001
Y-0003
X00025
X00108505Y00043502
X0012625Y0004225
X00155194Y00092964
X00154432Y00115824
X0014605Y00119634
X00146812Y00136144
X00155448Y00137922
X0016256Y001397
X00164338Y00172466
X0016375Y001945
X0012975Y0020875
X0011625Y0019975
X001Y0017875
X00091948Y00157988
X00096594Y00150656
X0011Y0015525
X00115155Y00147833
X00123444Y00145288
X001235Y001375
X0012192Y00152654
X00143757Y00166008
X00085Y0016475
X0005075Y00142
X0005207Y0013335
X00051328Y00123746
X00065Y00115
X0006075Y00101
X00074Y001005
X0008175Y00106
X0008925Y0010425
X00072Y0020975
X0006325Y00215
X00057658Y00219964
X0006025Y0022675
X00056Y0024904
X00051Y00254816
X00061Y0025575
X00075Y00255
X0008575Y002515
X00091504Y00256513
X00100584Y0025019
X00104394Y00242824
X00116256Y00242012
X00122Y002555
X0013325
X001455Y0024225
X0015025Y0023125
X00161Y0025747
X000985Y00236
X000865Y0022475
X000415Y0021225
X00043942Y00186436
X0000278Y0021925
X-00075Y0022
Y0029
X-0004483Y00278764
X-00028114Y0028948
X-0002675Y00305875
Y00317875
X-0003Y0033
X-000055Y0033675
X00008Y0033025
X-0000475Y00311875
X-00005Y0029
X00002032Y00279654
X00016Y0027853
X0002625Y0028325
X00038862Y00291846
X0004699Y0029591
X00042752Y00302515
X00045752Y00286264
X000605Y003295
X00065Y00345
X000935Y00351
X0011525Y003535
X00118027Y00345973
X00118027Y00322277
X001415Y0032225
X0015425Y00324
X00166
X0016225Y003545
X001405Y0033775
X00138914Y00279332
X00145542Y00282702
X0015575Y0028475
X00162814Y00283972
X00160008Y00294764
X0009975Y002945
X00096005Y00277264
X00082Y00321
X0008825Y0032725
X0008636Y00379984
X00078416Y0038
X00081Y003985
X0005775Y00398
X0005725Y0038625
X000575Y00374
X00026751Y00362268
X00027501Y00350017
X00015Y0036
X0001175Y003865
X00030961Y003975
Y004055
Y00413624
Y00421626
Y00429749
Y00437751
X00019558Y00446024
X00057742Y00458258
X00059395Y00470298
X00085Y004735
X00105Y004585
X0010675Y0043325
X0007125Y004475
X001435Y0045925
X-0001Y00355
X-00075
X-00072056Y00346536
X00175517Y00347483
X00179508Y00361938
X002145Y0035875
X00226802Y00350198
X00227Y00332
X00224761Y00316515
X00233172Y0031623
X0023375Y003075
X002415Y003115
X002525Y0031175
X0025975Y003125
X00271Y00312
X002855
X0029875Y00317
X003075Y0031375
X003185
X0032725Y00316
X0033375Y003255
X00327Y00355
X003335Y003665
X003295Y00380896
X003075
X0030525Y004095
X0033075Y0040675
X0033175Y0042175
X00321Y00441
X0032125Y0045275
X0029825Y00453
X00288Y00459
X002985Y00437
X00278Y0041275
X002635Y00382
X002525Y0038225
X0023425Y0036475
X0025575Y0034625
X0025925Y003355
X0024925Y0033775
X0021075Y003405
X0020875Y00323
X0020375Y0031625
X00196526Y00308796
X0018775Y00298
X00168402Y002794
X0023225Y00295
X0028325Y0028225
X0029325Y0028325
X0030625Y002785
X0032025Y0028075
X0033125Y002785
X0032875Y002865
X0030125Y00355
X00286Y0035125
X0028625Y003645
X00218Y004035
X00208Y0041025
X00173Y00395
X0017275Y0044125
X00179508Y00458258
X00212Y00457
X0023025Y0045675
T03
X0009738Y0036927
Y0037927
Y0038927
Y0039927
Y0040927
X0010738
Y0039927
Y0038927
Y0037927
Y0036927
X0011738
X0012738
X0013738
Y0037927
Y0038927
Y0039927
Y0040927
X0012738
Y0039927
Y0038927
Y0037927
X0011738
Y0038927
Y0039927
Y0040927
T04
X00232087Y0012367
X0022343Y00152078
X00224192Y00163
X00105987Y00321589
X0003425Y0031375
X0001025Y00285
T05
X-000515Y004505
X0025825Y00436
T06
X-00073496Y0023158
X-00045996
Y00306764
X-00073496
T07
X00229494Y00000002
T08
X-0005007Y00357564
X-0002975
X-0003991Y00408364
T09
X00027494Y00000002
T10
X-0006531Y00376614
Y00408364
X-0001451
Y00376614
M30
