M48
;Layer_Color=9474304
;FILE_FORMAT=4:4
METRIC,LZ
;TYPE=PLATED
T1F00S00C0.2000
T2F00S00C0.3810
T3F00S00C0.6350
T4F00S00C1.0200
T5F00S00C3.1000
;TYPE=NON_PLATED
T6F00S00C0.8000
T7F00S00C0.9906
T8F00S00C1.2000
%
T01
X-00345Y-002575
X-00335
X-00325
Y-002475
X-00335
X-00345
Y-002375
Y-002275
Y-002175
X-00335
X-00325
Y-002275
X-00335
Y-002375
X-00315
Y-002475
Y-002575
X-00305
Y-002475
Y-002375
Y-002275
Y-002175
X-00315
Y-002275
Y-0019
X-00325
Y-0018
X-00335
Y-0019
X-00345
Y-0018
Y-0017
Y-0016
Y-0015
X-00335
X-00325
Y-0016
X-00335
Y-0017
X-00315
Y-0018
X-00305
Y-0019
X-00296Y-00184
X-00286Y-001875
X-0026175Y-001855
X-00257Y-0019175
X-00249875
X-0024275
X-0024875Y-0018475
X-002365Y-00183
X-00190246Y-0018415
X-00181356Y-0019812
X-001825Y-002175
Y-00225
Y-002325
Y-0024
X-0019
X-001975
X-002055Y-002385
X-0021625Y-0024375
X-002225Y-002475
X-00222Y-0025625
X-002225Y-0027
Y-002775
Y-00285
X-0023Y-002825
X-002375
X-00245Y-00285
Y-002775
Y-0027
Y-00255
X-002525Y-002475
X-00295148Y-00246126
X-00305Y-0017
Y-0016
Y-0015
X-00315
Y-0016
Y-001225
X-00325
Y-001125
X-00335
Y-001225
X-00345
Y-001125
Y-001025
Y-000925
Y-000825
X-00335
X-00325
Y-000925
X-00335
Y-001025
X-00315
Y-001125
X-00305
Y-001225
X-0029325Y-0012825
X-00257Y-0012875
X-00249875
X-0024275
X-0023475
X-00185235Y-00127303
X-00183Y-0011575
X-0019325Y-00109
X-00195252Y-00085096
X-0019525Y-000775
X-0020575Y-0006125
X-0021425Y-0006075
X-0022175
X-0021825Y-0006775
X-0022125Y-0003975
X-0021375
X-002225Y-0003
Y-000225
Y-00015
Y-000075
X-00215Y-000075
Y-00015
Y-000225
X-0023Y-00015
Y0
X-002225
Y000075
X-00215Y0
X-002Y0001
X-0018
X-0016
X-0014
Y-0001
X-0015475Y-0000775
X-0016Y-0002
X-0017Y-0001675
X-00178752Y-00039596
X-00156442Y-00038846
X-00141002Y-00027096
X-00145252Y-00068346
X-0016575Y-0006775
X-00176509Y-00067741
X-00169672Y-00122682
X-001425Y-00105
X-00193Y-0015125
X-00192954Y-00158549
X-0019Y-0021
Y-002175
Y-00225
Y-002325
X-00166Y-00238
X-00157936Y-00235008
X-0015375Y-002425
X-00154442Y-00251574
X-00161002Y-00245014
X-001595Y-0026575
Y-0027275
X-0015775Y-0027975
X-0021Y-0027
X-0016375Y-0021525
X-0014663Y-00220274
Y00029726
X-0023Y00015
X-0024Y00025
X-00255
X-0027
X-00286Y000275
X-002935
X-0028925Y-00024
X-0028525Y-0002975
X-0029325
X-0029275Y-00052
X-0028525
X-002625Y-00055
Y-000475
X-00255
Y-00055
X-002475
Y-000475
Y-000625
X-00255
X-002625
Y-0007
X-00255
X-002475
X-0024Y-00025
X-00255
X-0027
X-00305Y-000825
X-00315
Y-000925
X-00305
Y-001025
X-00138523Y-0011122
X-00128523
X-00118523
X-00108523
Y-0012122
Y-0013122
Y-0014122
X-00118523
Y-0013122
Y-0012122
X-00128523
X-00138523
Y-0013122
Y-0014122
Y-0015122
X-00128523
Y-0014122
Y-0013122
X-00092998Y-00134704
X-00096002Y-00150346
X-00101252Y-00155346
X-00111023Y-00156867
X-00116023Y-00173325
X-00110252Y-00198596
X-000885Y-002075
X-00089856Y-00187122
X-00078426Y-00188138
X-00078752Y-00171346
X-000735Y-0020075
X-00082254Y-00231496
X-0008925Y-002335
X-00095Y-002415
X-0011069
X-0011725Y-0024806
X-0012525Y-0024125
X-00111Y-0027
X-0011Y-0029
X-0008425Y-00292
X-00068001Y-00267501
X-00067056Y-00257302
X-00074Y-0026075
X-0007425Y-002515
X-00060001Y-00252501
X-00060503Y-00261513
X-00052001Y-00258502
Y-00267501
X-00044502Y-00261513
X-00036001Y-00258502
X-00036252Y-00267763
X-00027001Y-00261513
X-00028001Y-00252501
X-00020828Y-00257302
X-00020001Y-00267501
X-00012501Y-00261513
X-00012001Y-00252501
X-00004001Y-00258502
Y-00267501
X00005Y-00261513
X0000375Y-00252262
X00011501Y-00256763
X00015501Y-00262513
X0001Y-00268513
X00027001Y-00267513
X00035999Y-00267501
X00043999Y-00264001
X00051999
X00059999
X00067999
X00075999
X00071999Y-00269751
X00063999
X00055999
X00047999
X00043999Y-00256001
X00051999
X00059999
X00067999
X00063999Y-00250251
X00055999
X00047999
X00039999
X00029251Y-00257263
X000205Y-00252376
X00024428Y-00224334
X00036502Y-0021126
X00048502Y-0020826
X000505Y-00219
X00072003Y-00217761
X0007675Y-00206
X00073504Y-00193009
X00086002Y-00179654
X0009675Y-00179
X00101752Y-00194154
X0011275Y-0020825
X0010575Y-00223214
X0009825Y-002265
X00074254Y-00251012
X00101698Y-00272034
X0010925Y-002945
X00147574Y-00244739
X00147467Y-00237502
X00141732Y-00219202
X0013843Y-0020492
X001365Y-0019475
X0014175Y-0018875
X00145252Y-00181654
X0016575Y-0018225
X00176509Y-00182259
X0019525Y-001725
X00195252Y-00164904
X0019325Y-00141
X00183Y-0013425
X0019475Y-00125
X0019375Y-001065
X00193Y-0009875
X00192954Y-00091451
X001905Y-0008475
X0019825Y-0008525
X00204Y-0007248
X00207398Y-0006443
Y-0005743
X00199898
Y-0004993
X00192398
Y-0004243
X00199898
X00207398
Y-0004993
X00214898Y-0004243
X00222398
X0024Y-00025
X00255
X0025375Y-0005675
Y-0006425
Y-0007175
Y-0007925
X0024625
Y-0007175
Y-0006425
Y-0005675
X0023Y-00015
Y-000075
Y0
X002225
X00215
Y000075
Y00015
X002225
Y000075
X0023
Y00015
X0024Y00025
X00255
X002Y0
X0017Y00016749
X0015475Y00007749
X0014Y0001
X00124Y00016675
X001Y0002
X0009
Y0001
X0008
Y0002
X0007
X0007225Y-000035
X0009Y-0001
X0011
X0013
X0013725Y-0001825
X0014663Y-00029726
X00148752Y-00036904
X00159252Y-00041154
X0017725Y-00038
X0018425Y-00034
X0015425Y-0002475
X0015Y-0001
X00108652Y-000357
X001045Y-0004475
X00110252Y-00051404
X00088332Y-00045606
X000735Y-0004925
X00078426Y-00061862
X00089856Y-00062878
X00078752Y-00078654
X00076394Y-00111138
X00076158Y-00121279
X00092998Y-00115296
X00096002Y-00099654
X00101252Y-00094654
X00111023Y-00093133
X00108523Y-00108779
Y-00118779
Y-00128779
Y-0013878
X00118523
X00128523
Y-00128779
X00138523
Y-00138526
X0014097Y-00145288
X00138523Y-00118779
Y-00108779
Y-00098779
X00128523
Y-00108779
Y-00118779
X00118523
Y-00128779
Y-00108779
X00116023Y-00076674
X0009968Y-00132976
X00099502Y-00143154
X00086252Y-00165154
X00068502Y-00160154
X00037585Y-00180654
X0004075Y-00191
X00017418Y-00180654
X0Y-0018425
X-00020751Y-00182509
X-0002575Y-00175
X-00011751Y-00164008
X-00018502Y-00150846
X-00026001Y-00139007
X-0003825Y-0012675
X-000455Y-001275
X-00042612Y-00120066
X-00076158Y-0012872
X-00076394Y-00138862
X-00061502Y-00153096
X-00068502Y-00089846
X-0007725Y-0008475
X-000855Y-0008425
X-00091023Y-00089273
X-0008175Y-0009125
X-00086002Y-00070346
X-00076454Y-00054356
X-0008128Y-00048006
X-0008625Y-000405
X-00070929Y-00036472
X-00112Y-000405
X-00109542Y-0002375
X-0012Y-0001
X-0013Y0
X-001Y000125
X-0009375Y000185
X-0009Y0001
X-000475Y000025
X-00038908Y0000575
X-000395Y-00005
X-0004325Y-000175
X-000415Y000145
X-0003975Y0002175
X-0002Y0002
Y0003
X-0001
Y0002
X-0001525Y0000575
X-0002125Y-00005
X000305Y-0000225
X0003375Y00009
X0003925Y00015
X0004825Y-000225
X000495Y-00031
X0002Y-0003
X000185Y-000675
X0002575Y-00075
X00018502Y-00099154
X000245Y-001105
X0003825Y-001215
X0004575Y-0012175
X00042612Y-00129934
X00019252Y-0015382
X00011418Y-00161404
X-0002025Y-00198616
X-00019252Y-0009618
X-00012751Y-00088504
X-00027502Y-0008218
X-00017418Y-00069346
X-00037585
X-00036036Y-00047214
X-00027502Y-00055346
X-00101752Y-00055846
X-00111023Y-00073015
X-00126023Y-00088117
X-0013843Y-00056134
X-0013775Y-0003575
X-00099502Y-00106846
X-0009968Y-00117024
X00061502Y-00096904
X00126023Y-00161883
X00156442Y-00211154
X00178752Y-00210404
X00193802Y-00226822
X00199Y-0024325
X002025Y-002525
X0021
X002175
X00225
X002325
X0024
X002475
X002425Y-0026
X00235
X002275
X0022
X002125
X00205
X001975
X0019Y-0025875
X0018325Y-0025675
X0017625Y-0025675
X00179832Y-0025019
X00208Y-002785
X002155
X00223
X002305
X00238
X002455
Y-00286
Y-002935
X00255Y-002475
X002545Y-00192
X00235458Y-00192024
X00236728Y-00136652
X001Y0001
X0010575Y00026785
X-00008Y-002955
X00305Y-002575
X00315
X00325
Y-002475
X00335
Y-002575
X00345
Y-002475
Y-002375
Y-002275
Y-002175
X00335
X00325
Y-002275
X00335
Y-002375
X00315
Y-002275
Y-002175
X00305
Y-002275
Y-002375
Y-002475
X00315
X00305562Y-00203708
X00305Y-0019
X00315
X00325
Y-0018
X00335
Y-0019
X00345
Y-0018
Y-0017
Y-0016
Y-0015
X00335
X00325
Y-0016
X00335
Y-0017
X00315
Y-0016
Y-0015
X00305
Y-0016
Y-0017
Y-0018
X00315
X00304546Y-00136144
X00305Y-001225
X00315
X00325
Y-001125
X00335
Y-001225
X00345
Y-001125
Y-001025
Y-000925
Y-000825
X00335
X00325
Y-000925
X00335
Y-001025
X00315
Y-000925
Y-000825
X00305
Y-000925
Y-001025
Y-001125
X00315
X00287Y-00081
X0028829Y-00058166
Y-00051054
Y-00043942
Y-0003683
X00295402
Y-00043942
Y-00051054
Y-00058166
X0026125Y-0005675
Y-0006425
Y-0007175
Y-0007925
X0027Y-00025
Y00025
X00285Y0003
X002925
X0026275Y-0019175
X002615Y00047
Y000545
Y00062
Y000695
X00286004Y00072898
X0028575Y00051562
X0029337
X00305Y00082499
X00315
X00325
Y00092499
X00335
Y00082499
X00345
Y00092499
Y00102499
Y00112499
Y00122499
X00335
X00325
Y00112499
X00335
Y00102499
X00315
Y00112499
Y00122499
X00305
Y00112499
Y00102499
Y00092499
X00315
Y00149999
X00325
Y00159999
X00335
Y00149999
X00345
Y00159999
Y00169999
Y00179999
Y00189999
X00335
X00325
Y00179999
X00335
Y00169999
X00315
Y00179999
Y00189999
X00305
Y00179999
Y00169999
Y00159999
Y00149999
X00315Y00159999
X00296Y00183999
X00305Y00217499
X00315
X00325
Y00227499
X00335
Y00217499
X00345
Y00227499
Y00237499
Y00247499
Y00257499
X00335
X00325
Y00247499
X00335
Y00237499
X00315
Y00247499
Y00257499
X00305
Y00247499
Y00237499
Y00227499
X00315
X00295148Y00246125
X0029325Y00128249
X0024925Y0012825
X0024225
X0023475Y00128749
X00185235Y00127302
X00183Y00115749
X0019325Y00108999
X00195252Y00085096
X0019525Y00077499
X00208Y0007
X00209042Y00062483
X00215Y0004
X002225
X002465Y00047
X00254
Y000545
X002465
Y00062
Y000695
X00254
Y00062
X0023875Y000655
X00176509Y0006774
X0016575Y00067749
X00145252Y00068345
X00144507Y00048752
X00140007Y00041502
X00156443Y00038846
X00178752Y00039595
X00135215Y00056535
X00101753Y00055845
X0011303Y00039878
X000745Y000385
X00048724Y00044
X00027502Y00055346
X00017419Y00069345
X00037586
X00027502Y00082179
X00019252Y00096179
X00011419Y00088596
X-0001Y0009
X-00018502Y00099154
X-00025252Y00110154
X-00033722Y0012019
X-00045152Y00122314
X-00042612Y00129934
X-0002Y0014
X-0001
X-00011418Y00161404
X-00019252Y0015382
X-00027502Y0016782
X-00037585Y00180654
X-00017418
X-0003Y002
X-0004175Y002015
X-00075692Y00203708
X-0007975Y002095
X-0007525Y00221
X-0009025Y0021825
X-001035Y0023575
X-00120396Y00244856
X-001145Y0025425
X-00114Y0026475
Y00275
X-0011075Y0028675
X-001Y0029
X-0009
Y0028
X-001
Y0026
X-0008
X-00083Y002435
X-000775Y0023775
X-0006Y0026
X-0004
X-0003Y0025
X-0004Y0024
X-0003Y0027
X-0004Y0028
X-0003Y0029
X-0005
X-0006
X-0007
X-0008
Y0028
X-0007
X-0006
X-0005Y0027
X-000675Y00305
Y00315
Y00325
X-000775
Y00315
Y00305
X-000875
X-000975
X-001075
Y00315
Y00325
X-000975
Y00315
X-000875
Y00335
X-000775
X-000675
Y00345
X-000775
X-000875
X-000975
X-001075
Y00335
X-000975
X-0011175Y002075
X-0010775Y0019175
X-0009175Y001815
X-00091023Y00161477
X-000835Y00155
X-0007625Y0015775
X-00068502Y00160154
X-00080404Y00171654
X-0011125Y00164438
X-00108523Y0013878
X-00118523
X-00128523
Y0012878
X-00138523
X-00138257Y00138507
X-00138523Y0011878
Y0010878
Y0009878
X-00128523
Y0010878
X-00118523
Y0011878
X-00108523
Y0012878
X-00118523
X-00128523Y0011878
X-00108523Y0010878
X-00111023Y00093133
X-00101252Y00094654
X-00096002Y00099654
X-00092998Y00115296
X-00076394Y00111138
X-00076158Y0012128
X-00099Y0013525
X-00099502Y00143154
X-00116023Y00076674
X-00110252Y00051404
X-00108204Y0004064
X-0010287Y00035814
X-00089856Y00062878
X-00079282Y00061434
X-0007875Y0007775
X-000735Y0004925
X-0002Y0005
X-000185Y000675
X-0001Y0007
Y0006
Y0004
X-0002575Y00075
X-00061502Y00096904
X00042612Y00120065
X00045152Y00127685
X00033722Y0012981
X00025252Y00139846
X00018502Y00150845
X00019812Y0016637
X00012861Y00163321
X00006564Y00157025
X0002575Y00174999
X000185Y00182499
X000085Y001965
X0001Y0022
X0002
X0003Y0023
Y0024
Y0026
Y0028
Y0029
X0005
Y0027
Y0025
Y0023
X0007
Y0025
Y0027
X0009
Y0025
X0011
Y0027
Y0029
X0011Y00305
Y00315
Y00325
X001
Y00315
Y00305
X0009
X0008
X0007
Y00315
Y00325
X0008
Y00315
X0009
Y00335
X001
X0011
Y00345
X001
X0009
X0008
X0007
Y00335
X0008
X0007Y0029
X0009
X00100987Y00231499
X0010725Y0022536
X00110252Y00198596
X000885Y00207499
X00080254Y00208598
X0006575Y00207046
X00072136Y0020066
X00078426Y00188137
X00089856Y00187122
X0007874Y00172974
X00076394Y00138862
X00076158Y0012872
X00092998Y00134703
X00096002Y00150345
X00101252Y00155345
X00111023Y00156866
X00108523Y0014122
Y0013122
Y0012122
Y0011122
X00118523
X00128523
Y0012122
X00138523
X00138257Y00111505
X0014225Y0010475
X00138523Y0013122
Y0014122
Y0015122
X00128523
Y0014122
X00118523
Y0013122
Y0012122
X00128523Y0013122
X0009968Y00117023
X00099502Y00106846
X00091023Y00089272
X000855Y00084249
X0007725Y00084749
X0008175Y00091249
X00068502Y00089846
X000765Y000735
X00126023Y00088116
X00169672Y00122681
X00193Y00151249
X00192955Y00158548
X00190246Y00184149
X00181356Y00198119
X00184042Y00216829
X00191042
Y00223829
X00184042
Y00231329
Y00238329
X0019Y0024225
X00196292Y00237829
X00203792
X00211Y002395
X002175Y00245
X00225
X002325
X00235Y002525
X002425
X0025Y002475
X002275Y002525
X0022
Y0027
X00224196Y002788
Y002863
X0022Y002925
X00231196Y002928
X00238696
X0025Y002925
X00245196Y002858
Y002783
X001595Y00277874
X001595Y00289999
Y00265749
X00161Y0024525
X0015775Y00238999
X0015Y0023
X0014663Y00220273
X0016375Y00215249
X00159252Y00208846
X0014938Y00196038
X00116023Y00173325
X00061502Y00153096
X000508Y00153924
X00042926Y0016129
X0Y0022
X-0001
X-0013775Y0021425
X-001365Y0019475
X0012525Y00241249
X0015125Y00251999
X00191042Y00231329
X002365Y00182999
X002495Y0018725
X-00145252Y00181654
X-0016575Y0018225
X-00176509Y00182259
X-0019525Y001725
X-00195252Y00164904
X-0019325Y00141
X-00183Y0013425
X-0019475Y00125
X-0019375Y001065
X-00193Y0009875
X-00192954Y00091451
X-001905Y0008475
X-0019825Y0008525
X-00205Y000775
X-002075Y000675
Y0006
X-002
Y000525
X-001925
X-00185
X-00184Y00041
X-0017675Y00046
X-00159252Y00041154
X-00148757Y00038752
X-002Y00045
X-002075
Y000525
X-002475Y00055
X-00255
X-002625
X-0027
X-002775
X-00286Y000575
Y0005
Y000425
Y00035
X-002935
Y000425
Y0005
Y000575
X-00287Y00081
X-00305Y000825
X-00315
X-00325
Y000925
X-00335
Y000825
X-00345
Y000925
Y001025
Y001125
Y001225
X-00335
X-00325
Y001125
X-00335
Y001025
X-00315
Y000925
X-00305
Y001025
Y001125
Y001225
X-00315
Y001125
X-00304546Y00136144
X-00305Y0015
X-00315
X-00325
Y0016
X-00335
Y0015
X-00345
Y0016
Y0017
Y0018
Y0019
X-00335
X-00325
Y0018
X-00335
Y0017
X-00315
Y0016
X-00305
Y0017
Y0018
Y0019
X-00315
Y0018
X-00305562Y00203708
X-00305Y002175
X-00315
X-00325
Y002275
X-00335
Y002175
X-00345
Y002275
Y002375
Y002475
Y002575
X-00335
X-00325
Y002475
X-00335
Y002375
X-00315
Y002275
X-00305
Y002375
Y002475
Y002575
X-00315
Y002475
X-0024Y0025
X-0023
X-0022
X-0021
X-00205Y00255
X-002Y0026
X-0021
X-00215Y00255
X-0022Y0026
X-00225Y00255
X-0023Y0026
X-00235Y00255
X-0024Y0026
X-00245Y002775
X-002475Y002875
Y00295
X-00226Y0027925
X-0020625
X-00185Y0028
X-001775
Y002875
Y00295
X-00185
Y002875
X-001825Y002725
Y00265
X-00175
Y002725
X-0018525Y0025225
X-0019275Y00228
X-00178752Y00210404
X-00156442Y00211154
X-00151252Y00234404
X-0015475Y0024225
X-00165Y002325
X-00142Y0014575
X-002365Y00137
X-00235204Y00191516
X-002475Y000775
Y0007
Y000625
X-00255
X-002625
Y0007
Y000775
X-00255
Y0007
T02
X-00051252Y-00080596
X00051252Y-00169404
X00051252Y00080596
X-00051252Y00169404
T03
X-00325Y-002375
Y-0017
Y-001025
X00325
Y-0017
Y-002375
X00325Y00102499
Y00169999
Y00237499
X0009Y00325
X-000875
X-00325Y002375
Y0017
Y001025
T04
X-00124252Y-00045346
X00124252Y-00204654
X00124253Y00045346
X-00124252Y00204654
T05
X-002725Y-002725
X002725
X002725Y002725
X-002725
T06
X00100999Y-00260001
T07
X-0014601Y-002879
X-00165752Y00027011
X-00216552Y00016851
X-0013585Y-002371
X-0012569Y-002879
X0016485Y-000211
X0021565Y-0003126
X0021565Y-0001094
X0013585Y00237099
X0014601Y00287899
X0012569Y00287899
X-00216552Y00037171
T08
X-00101001Y-00260001
M30
