G04*
G04 #@! TF.GenerationSoftware,Altium Limited,Altium Designer,19.1.7 (138)*
G04*
G04 Layer_Physical_Order=3*
G04 Layer_Color=36540*
%FSLAX44Y44*%
%MOMM*%
G71*
G01*
G75*
%ADD14C,0.1778*%
%ADD15C,0.2540*%
%ADD95C,0.1143*%
%ADD101C,0.4500*%
%ADD102C,0.4572*%
%ADD104C,0.5080*%
%ADD105C,0.1146*%
G36*
X91651Y465500D02*
X91858Y464459D01*
X92447Y463577D01*
X93329Y462988D01*
X94370Y462781D01*
X211117D01*
X211292Y461003D01*
X211009Y460946D01*
X210414Y460828D01*
X209070Y459930D01*
X208172Y458586D01*
X207856Y457000D01*
X208172Y455414D01*
X209070Y454070D01*
X210414Y453172D01*
X212000Y452856D01*
X213586Y453172D01*
X214930Y454070D01*
X215828Y455414D01*
X216144Y457000D01*
X215828Y458586D01*
X214930Y459930D01*
X213586Y460828D01*
X212991Y460946D01*
X212708Y461003D01*
X212883Y462781D01*
X248284D01*
X248638Y461003D01*
X246056Y459933D01*
X242462Y457731D01*
X239257Y454994D01*
X236519Y451789D01*
X234317Y448195D01*
X232704Y444301D01*
X231720Y440202D01*
X231389Y436000D01*
X231720Y431798D01*
X232704Y427700D01*
X234317Y423806D01*
X236519Y420212D01*
X239257Y417007D01*
X242462Y414269D01*
X246056Y412067D01*
X249950Y410454D01*
X254048Y409470D01*
X258250Y409139D01*
X262452Y409470D01*
X266551Y410454D01*
X270445Y412067D01*
X274039Y414269D01*
X277244Y417007D01*
X279981Y420212D01*
X282183Y423806D01*
X283796Y427700D01*
X284780Y431798D01*
X285111Y436000D01*
X284780Y440202D01*
X283796Y444301D01*
X282183Y448195D01*
X279981Y451789D01*
X277244Y454994D01*
X274039Y457731D01*
X270445Y459933D01*
X267863Y461003D01*
X268217Y462781D01*
X330500D01*
X330569Y462794D01*
X332531Y462404D01*
X334253Y461253D01*
X335404Y459531D01*
X335794Y457569D01*
X335781Y457500D01*
Y282235D01*
X334821Y281752D01*
X334003Y281549D01*
X332836Y282328D01*
X331250Y282644D01*
X329664Y282328D01*
X328320Y281430D01*
X327422Y280086D01*
X327106Y278500D01*
X327422Y276914D01*
X328320Y275570D01*
X329664Y274672D01*
X331250Y274356D01*
X332836Y274672D01*
X334003Y275452D01*
X334821Y275248D01*
X335781Y274765D01*
X335781Y108272D01*
X334003Y106852D01*
X333766Y106899D01*
X332181Y106583D01*
X330836Y105685D01*
X329938Y104341D01*
X329623Y102755D01*
X329938Y101169D01*
X330836Y99825D01*
X332181Y98927D01*
X333766Y98611D01*
X334003Y98658D01*
X335781Y97238D01*
Y58500D01*
X335794Y58431D01*
X335404Y56469D01*
X334253Y54747D01*
X332531Y53596D01*
X330569Y53206D01*
X330500Y53219D01*
X286500D01*
Y53259D01*
X283715Y52892D01*
X281120Y51818D01*
X278892Y50108D01*
X277182Y47880D01*
X276108Y45285D01*
X275741Y42500D01*
X275781D01*
Y40500D01*
X275794Y40431D01*
X275404Y38469D01*
X274253Y36747D01*
X272531Y35596D01*
X272312Y35552D01*
X270800Y37064D01*
X270804Y37084D01*
X270491Y38656D01*
X269601Y39988D01*
X268268Y40878D01*
X266697Y41191D01*
X265125Y40878D01*
X263793Y39988D01*
X262902Y38656D01*
X262590Y37084D01*
X262657Y36744D01*
X262266Y35105D01*
X261417Y34562D01*
X259620Y33818D01*
X257392Y32108D01*
X255682Y29880D01*
X254608Y27285D01*
X254241Y24500D01*
X254281D01*
Y-750D01*
X236002D01*
X235385Y2D01*
X234936Y2256D01*
X233659Y4167D01*
X231748Y5444D01*
X229494Y5893D01*
X227239Y5444D01*
X225328Y4167D01*
X224051Y2256D01*
X223602Y2D01*
X222985Y-750D01*
X147764D01*
Y2427D01*
X149507Y3893D01*
X151079Y4206D01*
X152411Y5096D01*
X153302Y6429D01*
X153614Y8000D01*
X153302Y9572D01*
X152411Y10904D01*
X151079Y11795D01*
X149507Y12107D01*
X149483Y12102D01*
X147582Y12798D01*
X147062Y13576D01*
X147062Y13576D01*
X139302Y21336D01*
Y35482D01*
X141080Y36927D01*
X141250Y36893D01*
X142822Y37206D01*
X144154Y38096D01*
X146027Y37699D01*
X146096Y37596D01*
X147428Y36706D01*
X149000Y36393D01*
X150572Y36706D01*
X151904Y37596D01*
X152794Y38928D01*
X153107Y40500D01*
X152794Y42072D01*
X151904Y43404D01*
X150572Y44294D01*
X149000Y44607D01*
X147428Y44294D01*
X146096Y43404D01*
X144223Y43801D01*
X144154Y43904D01*
X142822Y44794D01*
X141250Y45107D01*
X141080Y45073D01*
X139302Y46518D01*
Y81954D01*
X139988Y82626D01*
X141827Y83074D01*
X143171Y82176D01*
X144757Y81861D01*
X145364Y81346D01*
X146077Y79684D01*
X145179Y78339D01*
X144864Y76754D01*
X145179Y75168D01*
X146077Y73824D01*
X147422Y72926D01*
X149007Y72610D01*
X149242Y72657D01*
X149530Y72488D01*
X150099Y70676D01*
X149588Y69912D01*
X149272Y68326D01*
X149588Y66740D01*
X150486Y65396D01*
X151830Y64498D01*
X153416Y64182D01*
X155002Y64498D01*
X156346Y65396D01*
X156799Y66074D01*
X158686Y65698D01*
X158732Y65470D01*
X159630Y64126D01*
X160974Y63228D01*
X162560Y62912D01*
X164146Y63228D01*
X165490Y64126D01*
X166388Y65470D01*
X166704Y67056D01*
X166388Y68642D01*
X165490Y69986D01*
X164146Y70884D01*
X162560Y71200D01*
X160974Y70884D01*
X159630Y69986D01*
X159177Y69308D01*
X157290Y69684D01*
X157244Y69912D01*
X156346Y71256D01*
X155812Y71613D01*
Y87997D01*
X155812Y87997D01*
X156780Y89136D01*
X158124Y90034D01*
X159022Y91378D01*
X159338Y92964D01*
X159022Y94550D01*
X158124Y95894D01*
X156780Y96792D01*
X155194Y97108D01*
X153608Y96792D01*
X152264Y95894D01*
X151926Y95389D01*
X149784Y95017D01*
X145649Y99151D01*
X146413Y100902D01*
X170210D01*
X183906Y87206D01*
X183906Y87206D01*
X184683Y86687D01*
X185600Y86504D01*
X185600Y86504D01*
X187642D01*
X189106Y84750D01*
X189422Y83164D01*
X190320Y81820D01*
X191664Y80922D01*
X193250Y80606D01*
X194836Y80922D01*
X196180Y81820D01*
X197078Y83164D01*
X197394Y84750D01*
X198857Y86504D01*
X233187D01*
X233544Y85970D01*
X234888Y85072D01*
X236474Y84756D01*
X238060Y85072D01*
X239404Y85970D01*
X240302Y87314D01*
X240618Y88900D01*
X240302Y90486D01*
X241675Y91631D01*
X242706Y92320D01*
X243604Y93664D01*
X243920Y95250D01*
X243782Y95944D01*
X244373Y97294D01*
X245102Y97729D01*
X246098Y97927D01*
X247442Y98825D01*
X248340Y100169D01*
X248656Y101755D01*
X248340Y103341D01*
X247481Y104627D01*
X247444Y104713D01*
X247626Y106700D01*
X248180Y107070D01*
X249078Y108414D01*
X249128Y108664D01*
X249945Y108990D01*
X251044Y109185D01*
X252160Y108440D01*
X253746Y108124D01*
X255332Y108440D01*
X256676Y109338D01*
X257574Y110682D01*
X259530Y111401D01*
X259780Y111234D01*
X261366Y110918D01*
X262952Y111234D01*
X264296Y112132D01*
X265194Y113476D01*
X265510Y115062D01*
X265194Y116648D01*
X264296Y117992D01*
X264205Y118053D01*
X263104Y119165D01*
X263752Y120331D01*
X263924Y120588D01*
X264240Y122174D01*
X264668Y123618D01*
X266254Y123934D01*
X267598Y124832D01*
X269861Y125018D01*
X277068Y117811D01*
Y82082D01*
X274827Y79840D01*
X273188Y80716D01*
X273394Y81750D01*
X273078Y83336D01*
X272180Y84680D01*
X270836Y85578D01*
X269250Y85894D01*
X267664Y85578D01*
X266965Y85111D01*
X265798Y84970D01*
X264761Y85547D01*
X264296Y86242D01*
X262952Y87140D01*
X261366Y87456D01*
X259780Y87140D01*
X258436Y86242D01*
X257538Y84898D01*
X257222Y83312D01*
X257538Y81726D01*
X258436Y80382D01*
X259780Y79484D01*
X261366Y79168D01*
X262952Y79484D01*
X263651Y79951D01*
X264818Y80092D01*
X265855Y79515D01*
X266320Y78820D01*
X266853Y78464D01*
X266948Y76389D01*
X266596Y76154D01*
X265706Y74822D01*
X265600Y74291D01*
X264172Y74126D01*
X263765Y74180D01*
X262930Y75430D01*
X261586Y76328D01*
X260000Y76644D01*
X258414Y76328D01*
X257070Y75430D01*
X256172Y74086D01*
X255856Y72500D01*
X256172Y70914D01*
X257070Y69570D01*
X258414Y68672D01*
X258425Y68670D01*
X259911Y67852D01*
X259716Y66738D01*
X259619Y66253D01*
X259717Y65762D01*
X259911Y64654D01*
X258426Y63830D01*
X258414Y63828D01*
X257070Y62930D01*
X256172Y61586D01*
X255856Y60000D01*
X256172Y58414D01*
X257070Y57070D01*
X258414Y56172D01*
X259087Y56038D01*
X259155Y55962D01*
X259443Y54389D01*
X259308Y54033D01*
X259244Y53993D01*
X258414Y53828D01*
X257070Y52930D01*
X256172Y51586D01*
X255856Y50000D01*
X256172Y48414D01*
X257070Y47070D01*
X258414Y46172D01*
X260000Y45856D01*
X261586Y46172D01*
X262930Y47070D01*
X263828Y48414D01*
X263993Y49244D01*
X264671Y50329D01*
X265756Y51007D01*
X266586Y51172D01*
X267930Y52070D01*
X268828Y53414D01*
X269144Y55000D01*
X268828Y56586D01*
X267930Y57930D01*
X266586Y58828D01*
X265000Y59144D01*
X264163Y59981D01*
X264161Y61771D01*
X265337Y62423D01*
X265349Y62425D01*
X266693Y63323D01*
X267591Y64668D01*
X267906Y66253D01*
X267591Y67839D01*
X268760Y69290D01*
X269500Y69143D01*
X271072Y69456D01*
X272404Y70346D01*
X273294Y71678D01*
X273312Y71765D01*
X273960Y72198D01*
X281157Y79396D01*
X281677Y80173D01*
X281859Y81089D01*
Y118804D01*
X281859Y118804D01*
X281677Y119720D01*
X281157Y120498D01*
X281157Y120498D01*
X276115Y125540D01*
X276606Y127563D01*
X277404Y128096D01*
X278294Y129428D01*
X278607Y131000D01*
X278294Y132572D01*
X277404Y133904D01*
X276072Y134794D01*
X275070Y134993D01*
X273837Y136318D01*
X273605Y136742D01*
X273638Y136906D01*
X273322Y138492D01*
X272424Y139836D01*
X271080Y140734D01*
X269494Y141050D01*
X267908Y140734D01*
X266564Y139836D01*
X265666Y138492D01*
X265350Y136906D01*
X265518Y136063D01*
X264382Y134285D01*
X226521D01*
X226521Y134285D01*
X225604Y134103D01*
X224827Y133583D01*
X219016Y127772D01*
X177876D01*
X166578Y139070D01*
X166704Y139700D01*
X166388Y141286D01*
X165490Y142630D01*
X164146Y143528D01*
X162560Y143844D01*
X160974Y143528D01*
X159630Y142630D01*
X159335Y142188D01*
X158695Y141295D01*
X157056Y141735D01*
X157034Y141750D01*
X155448Y142066D01*
X153862Y141750D01*
X152518Y140852D01*
X151620Y139508D01*
X151304Y137922D01*
X151620Y136336D01*
X152518Y134992D01*
X153862Y134094D01*
X155448Y133778D01*
X156714Y134030D01*
X168778Y121966D01*
X168042Y120188D01*
X161330D01*
X157824Y123694D01*
X157047Y124213D01*
X156130Y124396D01*
X148416D01*
X147499Y124213D01*
X146722Y123694D01*
X146722Y123694D01*
X146680Y123652D01*
X146050Y123778D01*
X144464Y123462D01*
X143673Y122934D01*
X141959Y123661D01*
X141896Y123721D01*
Y135069D01*
X141896Y135069D01*
X141713Y135986D01*
X141194Y136763D01*
X125937Y152020D01*
X126064Y152654D01*
X125991Y153020D01*
X127351Y154798D01*
X138802D01*
X139541Y154651D01*
X146959D01*
X146999Y154659D01*
X180898D01*
X181814Y154841D01*
X182591Y155361D01*
X190670Y163439D01*
X191189Y164216D01*
X191372Y165133D01*
X191371Y165133D01*
Y183445D01*
X205937Y198011D01*
X252500D01*
X254454Y196056D01*
X255231Y195537D01*
X255358Y195512D01*
X255820Y194820D01*
X257164Y193922D01*
X258750Y193606D01*
X260336Y193922D01*
X261680Y194820D01*
X262578Y196164D01*
X262894Y197750D01*
X262878Y197830D01*
X264478Y198899D01*
X265177Y198432D01*
X266763Y198116D01*
X268349Y198432D01*
X269693Y199330D01*
X271956Y199516D01*
X295088Y176384D01*
X294814Y175006D01*
X295130Y173420D01*
X296028Y172076D01*
X297372Y171178D01*
X298958Y170862D01*
X300544Y171178D01*
X301888Y172076D01*
X302786Y173420D01*
X303102Y175006D01*
X303073Y175148D01*
X304712Y176024D01*
X311958Y168778D01*
X311832Y168148D01*
X312148Y166562D01*
X313046Y165218D01*
X314390Y164320D01*
X315976Y164004D01*
X317562Y164320D01*
X318288Y164805D01*
X319010Y165167D01*
X320516Y164427D01*
X320666Y164202D01*
X322010Y163304D01*
X323596Y162988D01*
X325182Y163304D01*
X326526Y164202D01*
X327424Y165546D01*
X327740Y167132D01*
X327424Y168718D01*
X326526Y170062D01*
X325182Y170960D01*
X323596Y171276D01*
X322966Y171150D01*
X309487Y184629D01*
X308710Y185148D01*
X307793Y185331D01*
X305593D01*
X303841Y187083D01*
X303064Y187602D01*
X302147Y187785D01*
X297288D01*
X292033Y193040D01*
X292384Y194076D01*
X292809Y194778D01*
X294194Y195054D01*
X295538Y195952D01*
X296436Y197296D01*
X296752Y198882D01*
X296436Y200468D01*
X295538Y201812D01*
X294194Y202710D01*
X292608Y203026D01*
X291022Y202710D01*
X289678Y201812D01*
X288780Y200468D01*
X288504Y199083D01*
X287802Y198658D01*
X286766Y198307D01*
X272166Y212907D01*
X271388Y213426D01*
X270392Y215200D01*
X270382Y215387D01*
X270407Y215511D01*
X270091Y217096D01*
X269193Y218440D01*
X267849Y219339D01*
X266263Y219654D01*
X264677Y219339D01*
X263333Y218440D01*
X262977Y217908D01*
X244644D01*
X244231Y219686D01*
X245180Y220320D01*
X246078Y221664D01*
X246394Y223250D01*
X246078Y224836D01*
X245180Y226180D01*
X243836Y227078D01*
X242250Y227394D01*
X240664Y227078D01*
X239320Y226180D01*
X238422Y224836D01*
X238106Y223250D01*
X238422Y221664D01*
X239320Y220320D01*
X240269Y219686D01*
X239856Y217908D01*
X216732D01*
X199566Y235074D01*
X198788Y235594D01*
X197871Y235776D01*
X161629D01*
X160712Y235594D01*
X159934Y235074D01*
X152007Y227147D01*
X89786D01*
X89430Y227680D01*
X89244Y229943D01*
X99481Y240181D01*
X101354Y240059D01*
X101464Y239894D01*
X102808Y238996D01*
X104394Y238680D01*
X105980Y238996D01*
X107324Y239894D01*
X108222Y241238D01*
X108538Y242824D01*
X108222Y244410D01*
X107324Y245754D01*
X105980Y246652D01*
X105304Y248450D01*
X105309Y248463D01*
X107391Y248897D01*
X111604Y244684D01*
X112333Y243722D01*
X112187Y242390D01*
X112112Y242012D01*
X112428Y240426D01*
X113326Y239082D01*
X114670Y238184D01*
X116256Y237868D01*
X117841Y238184D01*
X119186Y239082D01*
X120084Y240426D01*
X120399Y242012D01*
X120361Y242204D01*
X121803Y243982D01*
X139888D01*
X141356Y242250D01*
X141672Y240664D01*
X142570Y239320D01*
X143914Y238422D01*
X145500Y238106D01*
X147086Y238422D01*
X148430Y239320D01*
X149328Y240664D01*
X150164Y240293D01*
X151081Y240111D01*
X151081Y240111D01*
X185319D01*
X186235Y240293D01*
X187013Y240813D01*
X203202Y257002D01*
X204424Y256185D01*
X206010Y255869D01*
X207596Y256185D01*
X208940Y257083D01*
X209838Y258427D01*
X210154Y260013D01*
X209838Y261598D01*
X208940Y262943D01*
X207596Y263841D01*
X206010Y264156D01*
X205810Y264116D01*
X204032Y265554D01*
Y296429D01*
X221246Y313643D01*
X221831Y313585D01*
X223175Y312687D01*
X224761Y312372D01*
X226347Y312687D01*
X227691Y313585D01*
X227836Y313803D01*
X229940Y313752D01*
X230242Y313300D01*
X231078Y312741D01*
X231295Y311105D01*
X231200Y310684D01*
X230820Y310430D01*
X229922Y309086D01*
X229606Y307500D01*
X229922Y305914D01*
X230820Y304570D01*
X232164Y303672D01*
X233750Y303356D01*
X235336Y303672D01*
X236680Y304570D01*
X237578Y305914D01*
X237894Y307500D01*
X237578Y309086D01*
X236680Y310430D01*
X235844Y310989D01*
X235627Y312625D01*
X235722Y313046D01*
X236102Y313300D01*
X237000Y314644D01*
X237316Y316230D01*
X237268Y316469D01*
X238687Y318247D01*
X244393D01*
X245310Y318430D01*
X246087Y318949D01*
X258620Y331482D01*
X259250Y331356D01*
X260836Y331672D01*
X262180Y332570D01*
X263078Y333914D01*
X263394Y335500D01*
X263078Y337086D01*
X262180Y338430D01*
X260836Y339328D01*
X259250Y339644D01*
X257664Y339328D01*
X256320Y338430D01*
X255422Y337086D01*
X255106Y335500D01*
X255232Y334870D01*
X243401Y323038D01*
X240249D01*
X239569Y324681D01*
X248620Y333732D01*
X249250Y333606D01*
X250836Y333922D01*
X252180Y334820D01*
X253078Y336164D01*
X253394Y337750D01*
X253078Y339336D01*
X252180Y340680D01*
X250836Y341578D01*
X249250Y341894D01*
X247664Y341578D01*
X246320Y340680D01*
X245422Y339336D01*
X245106Y337750D01*
X245232Y337120D01*
X233564Y325452D01*
X220446D01*
X220446Y325452D01*
X219530Y325269D01*
X218752Y324750D01*
X218752Y324750D01*
X213306Y319304D01*
X211925Y320437D01*
X212578Y321414D01*
X212894Y323000D01*
X212578Y324586D01*
X211680Y325930D01*
X210336Y326828D01*
X209064Y327081D01*
X196197Y339948D01*
X195189Y340621D01*
X194000Y340858D01*
X143164D01*
X142086Y341578D01*
X140500Y341894D01*
X138914Y341578D01*
X137570Y340680D01*
X136672Y339336D01*
X136356Y337750D01*
X136672Y336164D01*
X137570Y334820D01*
X138914Y333922D01*
X140500Y333606D01*
X142086Y333922D01*
X143164Y334642D01*
X192713D01*
X204669Y322686D01*
X204922Y321414D01*
X205820Y320070D01*
X207164Y319172D01*
X208750Y318856D01*
X210336Y319172D01*
X211313Y319825D01*
X212446Y318444D01*
X195117Y301114D01*
X194597Y300337D01*
X194415Y299420D01*
Y261816D01*
X193153Y260554D01*
X190890Y260740D01*
X190355Y261097D01*
Y282692D01*
X190356Y282692D01*
X190173Y283609D01*
X189654Y284386D01*
X161703Y312337D01*
X160926Y312856D01*
X160009Y313039D01*
X148262D01*
X88756Y372545D01*
Y376697D01*
X89290Y377054D01*
X90188Y378398D01*
X90504Y379984D01*
X90188Y381570D01*
X89290Y382914D01*
X87946Y383812D01*
X86360Y384128D01*
X84774Y383812D01*
X83430Y382914D01*
X81346Y382930D01*
X80002Y383828D01*
X78416Y384144D01*
X76830Y383828D01*
X75486Y382930D01*
X75423Y382836D01*
X73646Y383376D01*
Y444213D01*
X74180Y444570D01*
X75078Y445914D01*
X75394Y447500D01*
X75078Y449086D01*
X74180Y450430D01*
X72836Y451328D01*
X71250Y451644D01*
X69664Y451328D01*
X68320Y450430D01*
X67422Y449086D01*
X67106Y447500D01*
X67422Y445914D01*
X68320Y444570D01*
X68854Y444213D01*
Y358000D01*
X69037Y357083D01*
X69556Y356306D01*
X97354Y328508D01*
Y297787D01*
X96820Y297430D01*
X95922Y296086D01*
X95606Y294500D01*
X95922Y292914D01*
X96820Y291570D01*
X98164Y290672D01*
X99750Y290356D01*
X101336Y290672D01*
X102680Y291570D01*
X103578Y292914D01*
X103894Y294500D01*
X103578Y296086D01*
X102680Y297430D01*
X102146Y297787D01*
Y315549D01*
X103535Y316291D01*
X103924Y316302D01*
X105987Y315891D01*
X108167Y316325D01*
X110015Y317560D01*
X111250Y319408D01*
X111684Y321589D01*
X111250Y323769D01*
X110015Y325617D01*
X108167Y326852D01*
X105987Y327286D01*
X103924Y326876D01*
X103535Y326886D01*
X102146Y327629D01*
Y329500D01*
X101963Y330417D01*
X101444Y331194D01*
X73646Y358992D01*
Y375079D01*
X75423Y375973D01*
X76020Y375528D01*
Y373325D01*
X76203Y372408D01*
X76722Y371631D01*
X121112Y327241D01*
X119979Y325860D01*
X119612Y326105D01*
X118027Y326420D01*
X116441Y326105D01*
X115097Y325207D01*
X114198Y323862D01*
X113883Y322277D01*
X114198Y320691D01*
X115097Y319347D01*
X116441Y318448D01*
X118027Y318133D01*
X119612Y318448D01*
X120957Y319347D01*
X121855Y320691D01*
X122170Y322277D01*
X121855Y323862D01*
X121610Y324229D01*
X122991Y325362D01*
X143047Y305306D01*
X143047Y305306D01*
X143824Y304787D01*
X144741Y304604D01*
X144741Y304604D01*
X157508D01*
X161735Y300377D01*
X160859Y298739D01*
X160008Y298908D01*
X158422Y298593D01*
X157078Y297694D01*
X156180Y296350D01*
X155864Y294764D01*
X156180Y293179D01*
X157078Y291834D01*
X158422Y290936D01*
X160008Y290621D01*
X161593Y290936D01*
X162938Y291834D01*
X163836Y293179D01*
X164151Y294764D01*
X163982Y295616D01*
X165621Y296492D01*
X178452Y283660D01*
Y261605D01*
X177918Y261248D01*
X177020Y259904D01*
X176704Y258318D01*
X176766Y258010D01*
X175433Y256151D01*
X174957Y256087D01*
X174500Y256451D01*
X173846Y257430D01*
X172502Y258328D01*
X170916Y258644D01*
X169330Y258328D01*
X167986Y257430D01*
X167088Y256086D01*
X166772Y254500D01*
X167088Y252914D01*
X167986Y251570D01*
X168082Y251506D01*
X167542Y249728D01*
X154072D01*
X129356Y274444D01*
X128579Y274963D01*
X127662Y275145D01*
X20765D01*
X19814Y276924D01*
X19828Y276944D01*
X20144Y278530D01*
X19828Y280116D01*
X18930Y281460D01*
X17586Y282358D01*
X17229Y282429D01*
X15836Y284277D01*
X15825Y284383D01*
X15948Y285000D01*
X15514Y287180D01*
X14279Y289029D01*
X12430Y290264D01*
X10250Y290697D01*
X8070Y290264D01*
X6221Y289029D01*
X4986Y287180D01*
X4552Y285000D01*
X4559Y284970D01*
X4329Y284607D01*
X3018Y283601D01*
X2032Y283798D01*
X446Y283482D01*
X-898Y282584D01*
X-1796Y281240D01*
X-2112Y279654D01*
X-1796Y278068D01*
X-898Y276724D01*
X446Y275826D01*
X740Y275767D01*
X1892Y274372D01*
X1830Y273876D01*
X1606Y272750D01*
X1922Y271164D01*
X2820Y269820D01*
X4164Y268922D01*
X5750Y268606D01*
X7336Y268922D01*
X8680Y269820D01*
X9037Y270354D01*
X126670D01*
X128823Y268201D01*
X128143Y266558D01*
X-9587D01*
X-9587Y266558D01*
X-10504Y266376D01*
X-11281Y265857D01*
X-14870Y262268D01*
X-15500Y262394D01*
X-17086Y262078D01*
X-18430Y261180D01*
X-19328Y259836D01*
X-19644Y258250D01*
X-19328Y256664D01*
X-18430Y255320D01*
X-17086Y254422D01*
X-15500Y254106D01*
X-13914Y254422D01*
X-12570Y255320D01*
X-11672Y256664D01*
X-11356Y258250D01*
X-11482Y258880D01*
X-8595Y261768D01*
X82833D01*
X83514Y260125D01*
X70306Y246917D01*
X69787Y246140D01*
X69605Y245223D01*
Y241338D01*
X67826Y240601D01*
X60018Y248410D01*
X60144Y249040D01*
X59828Y250626D01*
X58930Y251970D01*
X57586Y252868D01*
X56000Y253184D01*
X55144Y254816D01*
X54828Y256402D01*
X53930Y257746D01*
X52586Y258644D01*
X51000Y258960D01*
X49414Y258644D01*
X48070Y257746D01*
X47172Y256402D01*
X46856Y254816D01*
X47172Y253230D01*
X48070Y251886D01*
X48604Y251529D01*
Y189973D01*
X47111Y189450D01*
X46827Y189396D01*
X45528Y190264D01*
X43942Y190580D01*
X42356Y190264D01*
X41012Y189366D01*
X40114Y188022D01*
X39829Y186590D01*
X39252Y186227D01*
X38114Y185791D01*
X34018Y189886D01*
Y225803D01*
X33836Y226720D01*
X33317Y227497D01*
X33317Y227497D01*
X18506Y242308D01*
X18644Y243000D01*
X18328Y244586D01*
X17430Y245930D01*
X16086Y246828D01*
X14500Y247144D01*
X12914Y246828D01*
X11570Y245930D01*
X10672Y244586D01*
X10366Y243046D01*
X10336Y242983D01*
X8806Y241682D01*
X8065Y241829D01*
X6479Y241514D01*
X5135Y240616D01*
X4236Y239271D01*
X3921Y237686D01*
X4236Y236100D01*
X5135Y234756D01*
X5415Y234568D01*
Y224353D01*
X3637Y223223D01*
X2780Y223394D01*
X1194Y223078D01*
X-150Y222180D01*
X-1048Y220836D01*
X-1364Y219250D01*
X-1048Y217664D01*
X-150Y216320D01*
X1194Y215422D01*
X2780Y215106D01*
X3637Y215277D01*
X5415Y214147D01*
Y191987D01*
X3637Y191251D01*
X-3806Y198694D01*
X-4583Y199213D01*
X-5500Y199396D01*
X-21213D01*
X-21570Y199930D01*
X-22914Y200828D01*
X-24500Y201144D01*
X-26086Y200828D01*
X-27430Y199930D01*
X-28328Y198586D01*
X-28644Y197000D01*
X-28328Y195414D01*
X-27430Y194070D01*
X-26086Y193172D01*
X-24500Y192856D01*
X-23333Y193088D01*
X-22640Y191414D01*
X-22654Y191404D01*
X-23544Y190072D01*
X-23857Y188500D01*
X-23544Y186928D01*
X-22654Y185596D01*
X-21322Y184706D01*
X-19750Y184393D01*
X-19150Y184512D01*
X-5396Y170758D01*
Y153175D01*
X-5213Y152258D01*
X-4694Y151481D01*
X37692Y109096D01*
Y71120D01*
X35914Y70581D01*
X35680Y70930D01*
X34336Y71828D01*
X32750Y72144D01*
X31164Y71828D01*
X29820Y70930D01*
X28922Y69586D01*
X28606Y68000D01*
X28922Y66414D01*
X29820Y65070D01*
X31164Y64172D01*
X32750Y63856D01*
X34336Y64172D01*
X35680Y65070D01*
X35914Y65419D01*
X37692Y64880D01*
Y40746D01*
X35914Y40206D01*
X35430Y40930D01*
X34086Y41828D01*
X32500Y42144D01*
X30914Y41828D01*
X29570Y40930D01*
X28672Y39586D01*
X28356Y38000D01*
X28672Y36414D01*
X29570Y35070D01*
X30914Y34172D01*
X32500Y33856D01*
X34086Y34172D01*
X35430Y35070D01*
X35914Y35794D01*
X37692Y35254D01*
Y-629D01*
X35914Y-654D01*
X35339Y2D01*
X35071Y2032D01*
X34288Y3924D01*
X33041Y5549D01*
X31416Y6796D01*
X29524Y7579D01*
X27494Y7847D01*
X25463Y7579D01*
X23571Y6796D01*
X21946Y5549D01*
X20700Y3924D01*
X19916Y2032D01*
X19648Y2D01*
X18989Y-750D01*
X2719D01*
Y24500D01*
X2759D01*
X2393Y27285D01*
X1318Y29880D01*
X-392Y32108D01*
X-2621Y33818D01*
X-5215Y34892D01*
X-8000Y35259D01*
Y35219D01*
X-13500D01*
X-13569Y35206D01*
X-15531Y35596D01*
X-17253Y36747D01*
X-18404Y38469D01*
X-18794Y40431D01*
X-18781Y40500D01*
Y42500D01*
X-18741D01*
X-19108Y45285D01*
X-20182Y47880D01*
X-21892Y50108D01*
X-24121Y51818D01*
X-26715Y52892D01*
X-29500Y53259D01*
Y53219D01*
X-29500Y53219D01*
X-73500D01*
X-73569Y53206D01*
X-75531Y53596D01*
X-77253Y54747D01*
X-78404Y56469D01*
X-78794Y58432D01*
X-78781Y58500D01*
Y226487D01*
X-78575Y226662D01*
X-77003Y227275D01*
X-75653Y226373D01*
X-73496Y225944D01*
X-71339Y226373D01*
X-69511Y227595D01*
X-68289Y229423D01*
X-67860Y231580D01*
X-68289Y233737D01*
X-69511Y235565D01*
X-71339Y236787D01*
X-73496Y237216D01*
X-75653Y236787D01*
X-77003Y235885D01*
X-78575Y236498D01*
X-78781Y236673D01*
Y301671D01*
X-78575Y301846D01*
X-77003Y302459D01*
X-75653Y301557D01*
X-73496Y301128D01*
X-71339Y301557D01*
X-69511Y302778D01*
X-68289Y304607D01*
X-67860Y306764D01*
X-68289Y308921D01*
X-69511Y310749D01*
X-71339Y311971D01*
X-73496Y312400D01*
X-75653Y311971D01*
X-77003Y311069D01*
X-78575Y311682D01*
X-78781Y311857D01*
Y368951D01*
X-78211Y369238D01*
X-77003Y369426D01*
X-75047Y366877D01*
X-72195Y364689D01*
X-68874Y363313D01*
X-65310Y362844D01*
X-61746Y363313D01*
X-58425Y364689D01*
X-55573Y366877D01*
X-53385Y369729D01*
X-52009Y373050D01*
X-51540Y376614D01*
X-52009Y380178D01*
X-53049Y382689D01*
X-51542Y383696D01*
X-43469Y375624D01*
Y362939D01*
X-45247Y362336D01*
X-45269Y362365D01*
X-46675Y363443D01*
X-48313Y364122D01*
X-50070Y364353D01*
X-51827Y364122D01*
X-53464Y363443D01*
X-54871Y362365D01*
X-55950Y360959D01*
X-56628Y359321D01*
X-56859Y357564D01*
X-56628Y355807D01*
X-55950Y354169D01*
X-55466Y353540D01*
X-55488Y353307D01*
X-56295Y351700D01*
X-57198Y351520D01*
X-58530Y350630D01*
X-59420Y349298D01*
X-59733Y347726D01*
X-59420Y346154D01*
X-58530Y344822D01*
X-57198Y343932D01*
X-55626Y343619D01*
X-54054Y343932D01*
X-52722Y344822D01*
X-52599Y345007D01*
X-46274D01*
X-45233Y345214D01*
X-44351Y345803D01*
X-40925Y349229D01*
X-39287Y348353D01*
X-39357Y348000D01*
X-39044Y346428D01*
X-38154Y345096D01*
X-36822Y344206D01*
X-35250Y343893D01*
X-33678Y344206D01*
X-32346Y345096D01*
X-31456Y346428D01*
X-31143Y348000D01*
X-31381Y349196D01*
X-30654Y350347D01*
X-30157Y350829D01*
X-29750Y350775D01*
X-27993Y351006D01*
X-26355Y351684D01*
X-24949Y352763D01*
X-23870Y354169D01*
X-23192Y355807D01*
X-22961Y357564D01*
X-23192Y359321D01*
X-23870Y360959D01*
X-24949Y362365D01*
X-26355Y363443D01*
X-27993Y364122D01*
X-29750Y364353D01*
X-31507Y364122D01*
X-33145Y363443D01*
X-34551Y362365D01*
X-35629Y360959D01*
X-36308Y359321D01*
X-38031Y359622D01*
Y376750D01*
X-38031Y376750D01*
X-38238Y377791D01*
X-38827Y378673D01*
X-51146Y390991D01*
X-51011Y391668D01*
X-51324Y393240D01*
X-52214Y394572D01*
X-53546Y395462D01*
X-55118Y395775D01*
X-56690Y395462D01*
X-58022Y394572D01*
X-58912Y393240D01*
X-59225Y391668D01*
X-59036Y390717D01*
X-60306Y389440D01*
X-60444Y389376D01*
X-61746Y389915D01*
X-65310Y390384D01*
X-68874Y389915D01*
X-72195Y388539D01*
X-75047Y386351D01*
X-77003Y383802D01*
X-78211Y383990D01*
X-78781Y384277D01*
Y400701D01*
X-78211Y400988D01*
X-77003Y401176D01*
X-75047Y398627D01*
X-72195Y396439D01*
X-68874Y395063D01*
X-65310Y394594D01*
X-61746Y395063D01*
X-58425Y396439D01*
X-55573Y398627D01*
X-53385Y401479D01*
X-52009Y404800D01*
X-51540Y408364D01*
X-52009Y411928D01*
X-53385Y415249D01*
X-55573Y418101D01*
X-58425Y420289D01*
X-61746Y421665D01*
X-65310Y422134D01*
X-68874Y421665D01*
X-72195Y420289D01*
X-75047Y418101D01*
X-77003Y415552D01*
X-78211Y415740D01*
X-78781Y416027D01*
Y441808D01*
X-77046Y442200D01*
X-75433Y438305D01*
X-73231Y434712D01*
X-70493Y431507D01*
X-67288Y428769D01*
X-63695Y426567D01*
X-59800Y424954D01*
X-55702Y423970D01*
X-51500Y423639D01*
X-50102Y423749D01*
X-49500Y422013D01*
X-49894Y421750D01*
X-50784Y420418D01*
X-51097Y418846D01*
X-50784Y417274D01*
X-49894Y415942D01*
X-48562Y415052D01*
X-46990Y414739D01*
X-45418Y415052D01*
X-44086Y415942D01*
X-43196Y417274D01*
X-42883Y418846D01*
X-43196Y420418D01*
X-44086Y421750D01*
X-45366Y422605D01*
X-45409Y422864D01*
X-45346Y424439D01*
X-43200Y424954D01*
X-39306Y426567D01*
X-35712Y428769D01*
X-32506Y431507D01*
X-29769Y434712D01*
X-27567Y438305D01*
X-25954Y442200D01*
X-24970Y446298D01*
X-24639Y450500D01*
X-24970Y454702D01*
X-25954Y458800D01*
X-27567Y462695D01*
X-29769Y466288D01*
X-32506Y469493D01*
X-35712Y472231D01*
X-39306Y474433D01*
X-43200Y476046D01*
X-42808Y477781D01*
X91651D01*
Y465500D01*
D02*
G37*
G36*
X14500Y238856D02*
X15069Y238969D01*
X24208Y229831D01*
X23332Y228192D01*
X22320Y228394D01*
X20734Y228078D01*
X19390Y227180D01*
X18492Y225836D01*
X18176Y224250D01*
X18492Y222664D01*
X19390Y221320D01*
X20037Y220888D01*
Y216318D01*
X20219Y215401D01*
X20739Y214624D01*
X23170Y212192D01*
X23023Y211119D01*
X22678Y210170D01*
X21570Y209430D01*
X20672Y208086D01*
X20500Y207224D01*
X19925Y206351D01*
X18660Y205915D01*
X17938Y206059D01*
X16352Y205744D01*
X15008Y204845D01*
X14110Y203501D01*
X13794Y201915D01*
X14110Y200329D01*
X15008Y198985D01*
X15570Y197430D01*
X14845Y196346D01*
X13524Y195090D01*
X11938Y195406D01*
X10206Y196874D01*
Y234229D01*
X10994Y234756D01*
X11893Y236100D01*
X12199Y237639D01*
X12229Y237703D01*
X13759Y239004D01*
X14500Y238856D01*
D02*
G37*
G36*
X190076Y229250D02*
X190392Y227664D01*
X191055Y226671D01*
X191281Y226224D01*
X191099Y224309D01*
X184577Y217787D01*
X176261D01*
X175904Y218322D01*
X174560Y219220D01*
X172974Y219536D01*
X171388Y219220D01*
X170044Y218322D01*
X169146Y216978D01*
X168830Y215392D01*
X169146Y213806D01*
X169513Y213256D01*
X170021Y212427D01*
X169063Y210979D01*
X169028Y210956D01*
X168130Y209612D01*
X167814Y208026D01*
X168130Y206440D01*
X169028Y205096D01*
X170372Y204198D01*
X171958Y203882D01*
X173544Y204198D01*
X174888Y205096D01*
X175245Y205630D01*
X183180D01*
X184005Y204806D01*
X184005Y204806D01*
X184782Y204287D01*
X185699Y204104D01*
X185699Y204104D01*
X196108D01*
X196788Y202462D01*
X192222Y197896D01*
X190293Y198481D01*
X190288Y198504D01*
X189390Y199848D01*
X188046Y200746D01*
X186460Y201062D01*
X184874Y200746D01*
X183530Y199848D01*
X183389Y199637D01*
X172208D01*
X168755Y203091D01*
X167873Y203680D01*
X166832Y203887D01*
X117668D01*
X116975Y203749D01*
X116250Y203894D01*
X114664Y203578D01*
X113320Y202680D01*
X112422Y201336D01*
X112106Y199750D01*
X112422Y198164D01*
X113320Y196820D01*
X114664Y195922D01*
X116250Y195606D01*
X117836Y195922D01*
X119180Y196820D01*
X120078Y198164D01*
X120135Y198449D01*
X165706D01*
X169159Y194995D01*
X170041Y194406D01*
X171082Y194199D01*
X183389D01*
X183530Y193988D01*
X184874Y193090D01*
X184897Y193085D01*
X185482Y191156D01*
X182456Y188130D01*
X181937Y187353D01*
X181754Y186436D01*
Y168124D01*
X178496Y164866D01*
X177778Y165001D01*
X177639Y165170D01*
X177096Y166939D01*
X177587Y167673D01*
X177902Y169258D01*
X177587Y170844D01*
X176688Y172188D01*
X175344Y173086D01*
X173759Y173402D01*
X172173Y173086D01*
X170828Y172188D01*
X170567Y171798D01*
X170296Y171469D01*
X168521Y171936D01*
X168483Y172446D01*
X168482Y172466D01*
X168459Y172580D01*
X168166Y174052D01*
X167268Y175396D01*
X165924Y176294D01*
X164338Y176610D01*
X162752Y176294D01*
X161408Y175396D01*
X160510Y174052D01*
X160194Y172466D01*
X160510Y170880D01*
X161408Y169536D01*
X162752Y168638D01*
X164338Y168322D01*
X165924Y168638D01*
X167268Y169536D01*
X167529Y169927D01*
X167801Y170255D01*
X169575Y169788D01*
X169613Y169278D01*
X169615Y169258D01*
X169638Y169144D01*
X169930Y167673D01*
X170828Y166328D01*
X171239Y166054D01*
X170699Y164276D01*
X149369D01*
X147901Y166008D01*
X147585Y167594D01*
X146687Y168938D01*
X145343Y169836D01*
X143757Y170152D01*
X142171Y169836D01*
X140827Y168938D01*
X140686Y168727D01*
X139784D01*
X139784Y168727D01*
X138743Y168520D01*
X137861Y167931D01*
X137400Y167469D01*
X88071D01*
X87930Y167680D01*
X86586Y168578D01*
X85000Y168894D01*
X83268Y170362D01*
Y205634D01*
X83349Y206041D01*
X83349Y206042D01*
Y219829D01*
X84664Y220747D01*
X85127Y220879D01*
X86500Y220606D01*
X88086Y220922D01*
X89430Y221820D01*
X89786Y222353D01*
X153000D01*
X153917Y222535D01*
X154695Y223055D01*
X162622Y230982D01*
X188608D01*
X190076Y229250D01*
D02*
G37*
G36*
X2051Y186061D02*
X1476Y184134D01*
X144Y183244D01*
X-746Y181912D01*
X-1059Y180340D01*
X-746Y178768D01*
X144Y177436D01*
X1476Y176546D01*
X3048Y176233D01*
X4158Y176454D01*
X5226Y175243D01*
X5333Y175013D01*
X5206Y174822D01*
X4893Y173250D01*
X5206Y171678D01*
X6096Y170346D01*
X6604Y170006D01*
Y165940D01*
X4827Y164990D01*
X4356Y165304D01*
X2770Y165620D01*
X1184Y165304D01*
X1173Y165297D01*
X-604Y166247D01*
Y171750D01*
X-604Y171750D01*
X-787Y172667D01*
X-1306Y173444D01*
X-1306Y173444D01*
X-15762Y187900D01*
X-15643Y188500D01*
X-15956Y190072D01*
X-16846Y191404D01*
X-18178Y192294D01*
X-19173Y192492D01*
X-19987Y193881D01*
X-20073Y194346D01*
X-19900Y194604D01*
X-6492D01*
X2051Y186061D01*
D02*
G37*
G36*
X49153Y147501D02*
X48653Y145487D01*
X47820Y144930D01*
X46922Y143586D01*
X46606Y142000D01*
X46922Y140414D01*
X47820Y139070D01*
X48968Y138303D01*
X49199Y137304D01*
X49237Y136345D01*
X49140Y136280D01*
X48242Y134936D01*
X47926Y133350D01*
X48242Y131764D01*
X49140Y130420D01*
X50469Y129532D01*
X50483Y129459D01*
X50452Y127715D01*
X49742Y127574D01*
X48398Y126676D01*
X47500Y125332D01*
X47184Y123746D01*
X47500Y122160D01*
X48398Y120816D01*
X49742Y119918D01*
X51328Y119602D01*
X52914Y119918D01*
X54258Y120816D01*
X55156Y122160D01*
X55472Y123746D01*
X55156Y125332D01*
X54258Y126676D01*
X52929Y127564D01*
X52915Y127637D01*
X52946Y129381D01*
X53656Y129522D01*
X55000Y130420D01*
X55898Y131764D01*
X56214Y133350D01*
X55898Y134936D01*
X55000Y136280D01*
X53852Y137047D01*
X53621Y138046D01*
X53583Y139005D01*
X53680Y139070D01*
X54237Y139903D01*
X56251Y140403D01*
X86057Y110598D01*
X85611Y108528D01*
X85171Y108362D01*
X85046Y108382D01*
X84680Y108930D01*
X83336Y109828D01*
X81750Y110144D01*
X80164Y109828D01*
X78820Y108930D01*
X77922Y107586D01*
X77606Y106000D01*
X77809Y104981D01*
X76341Y103824D01*
X75586Y104328D01*
X74000Y104644D01*
X72414Y104328D01*
X71070Y103430D01*
X70172Y102086D01*
X69856Y100500D01*
X70172Y98914D01*
X71070Y97570D01*
X72414Y96672D01*
X74000Y96356D01*
X75586Y96672D01*
X76930Y97570D01*
X77828Y98914D01*
X78144Y100500D01*
X77941Y101519D01*
X79409Y102676D01*
X80164Y102172D01*
X81750Y101856D01*
X83336Y102172D01*
X83663Y102391D01*
X85161Y102624D01*
X85918Y101922D01*
X86320Y101320D01*
X87664Y100422D01*
X89250Y100106D01*
X90836Y100422D01*
X92180Y101320D01*
X92436Y101704D01*
X94627Y102028D01*
X96987Y99668D01*
Y79108D01*
X95209Y77914D01*
X94488Y78058D01*
X92902Y77742D01*
X91558Y76844D01*
X90052Y77614D01*
X88708Y78512D01*
X87122Y78828D01*
X85536Y78512D01*
X84743Y77982D01*
X83117Y77886D01*
X82362Y78076D01*
X81342Y78758D01*
X79756Y79074D01*
X78170Y78758D01*
X76826Y77860D01*
X75184Y77184D01*
X73839Y78082D01*
X72253Y78397D01*
X70668Y78082D01*
X70563Y78011D01*
X69211Y77323D01*
X68284Y78465D01*
X68191Y78604D01*
X66846Y79503D01*
X65261Y79818D01*
X63675Y79503D01*
X62331Y78604D01*
X61432Y77260D01*
X61117Y75675D01*
X61432Y74089D01*
X62331Y72745D01*
X63675Y71846D01*
X65261Y71531D01*
X66846Y71846D01*
X66952Y71917D01*
X68303Y72606D01*
X69230Y71463D01*
X69324Y71324D01*
X70668Y70425D01*
X72253Y70110D01*
X73839Y70425D01*
X75184Y71324D01*
X76826Y72000D01*
X78170Y71102D01*
X79756Y70786D01*
X81342Y71102D01*
X82135Y71632D01*
X83761Y71728D01*
X84516Y71538D01*
X85536Y70856D01*
X87122Y70540D01*
X88708Y70856D01*
X90052Y71754D01*
X91639Y70930D01*
X91689Y70897D01*
X92322Y69192D01*
X92007Y68708D01*
X91426Y67839D01*
X91111Y66253D01*
X91426Y64668D01*
X92325Y63323D01*
X93669Y62425D01*
X95255Y62110D01*
X96987Y60641D01*
Y58787D01*
X76275Y38075D01*
X75756Y37298D01*
X75574Y36381D01*
Y3119D01*
X75756Y2202D01*
X76275Y1425D01*
X76807Y893D01*
X76127Y-750D01*
X47309D01*
Y112087D01*
X47126Y113004D01*
X46607Y113781D01*
X46607Y113781D01*
X21753Y138635D01*
Y161728D01*
X22276Y162174D01*
X23531Y162853D01*
X24745Y162611D01*
X26331Y162927D01*
X27675Y163825D01*
X28573Y165169D01*
X28639Y165501D01*
X30568Y166086D01*
X49153Y147501D01*
D02*
G37*
G36*
X240483Y102331D02*
X240368Y101755D01*
X240506Y101061D01*
X239915Y99711D01*
X239186Y99276D01*
X238190Y99078D01*
X236846Y98180D01*
X236489Y97646D01*
X234000D01*
X233083Y97463D01*
X232306Y96944D01*
X232306Y96944D01*
X230385Y95023D01*
X186865D01*
X177799Y104089D01*
X178479Y105732D01*
X187638D01*
X189106Y104000D01*
X189422Y102414D01*
X190320Y101070D01*
X191664Y100172D01*
X193250Y99856D01*
X194836Y100172D01*
X196180Y101070D01*
X197078Y102414D01*
X197394Y104000D01*
X198862Y105732D01*
X237082D01*
X240483Y102331D01*
D02*
G37*
G36*
X117313Y52352D02*
Y13753D01*
X116494Y12104D01*
X114922Y11791D01*
X113589Y10901D01*
X111659Y10904D01*
X110327Y11795D01*
X108755Y12107D01*
X107934Y11944D01*
X106396Y13483D01*
Y43842D01*
X112320Y49766D01*
X112573Y49935D01*
X115671Y53033D01*
X117313Y52352D01*
D02*
G37*
%LPC*%
G36*
X57742Y462402D02*
X56156Y462086D01*
X54812Y461188D01*
X53914Y459844D01*
X53598Y458258D01*
X53914Y456672D01*
X54812Y455328D01*
X56156Y454430D01*
X57742Y454114D01*
X59328Y454430D01*
X60672Y455328D01*
X61570Y456672D01*
X61886Y458258D01*
X61570Y459844D01*
X60672Y461188D01*
X59328Y462086D01*
X57742Y462402D01*
D02*
G37*
G36*
X230250Y460894D02*
X228664Y460578D01*
X227320Y459680D01*
X226422Y458336D01*
X226106Y456750D01*
X226422Y455164D01*
X227320Y453820D01*
X228664Y452922D01*
X230250Y452606D01*
X231836Y452922D01*
X233180Y453820D01*
X234078Y455164D01*
X234394Y456750D01*
X234078Y458336D01*
X233180Y459680D01*
X231836Y460578D01*
X230250Y460894D01*
D02*
G37*
G36*
X19558Y450168D02*
X17972Y449852D01*
X16628Y448954D01*
X15730Y447610D01*
X15414Y446024D01*
X15730Y444438D01*
X16628Y443094D01*
X17972Y442196D01*
X19558Y441880D01*
X21144Y442196D01*
X22488Y443094D01*
X23386Y444438D01*
X23702Y446024D01*
X23386Y447610D01*
X22488Y448954D01*
X21144Y449852D01*
X19558Y450168D01*
D02*
G37*
G36*
X127270Y454444D02*
X114730D01*
Y453000D01*
X96000D01*
Y442000D01*
X114730D01*
Y440730D01*
X127270D01*
Y442000D01*
X156000D01*
Y453000D01*
X127270D01*
Y454444D01*
D02*
G37*
G36*
X30961Y433893D02*
X29375Y433578D01*
X28031Y432679D01*
X27133Y431335D01*
X26817Y429749D01*
X26943Y429119D01*
X24056Y426232D01*
X23537Y425455D01*
X23354Y424538D01*
Y395968D01*
X19556Y392169D01*
X19037Y391392D01*
X18855Y390476D01*
Y345250D01*
X19037Y344333D01*
X19556Y343556D01*
X21377Y341735D01*
Y306936D01*
X21559Y306019D01*
X22079Y305242D01*
X34844Y292476D01*
X34718Y291846D01*
X35034Y290260D01*
X35932Y288916D01*
X37276Y288018D01*
X38862Y287702D01*
X40448Y288018D01*
X41792Y288916D01*
X42690Y290260D01*
X42968Y291657D01*
X43735Y292162D01*
X44675Y292569D01*
X45404Y292082D01*
X46990Y291766D01*
X48576Y292082D01*
X49920Y292980D01*
X50818Y294324D01*
X51134Y295910D01*
X50818Y297496D01*
X49920Y298840D01*
X48576Y299738D01*
X48000Y299853D01*
X46902Y300686D01*
X46749Y301777D01*
X46896Y302515D01*
X46580Y304100D01*
X45682Y305445D01*
X44338Y306343D01*
X42752Y306658D01*
X41166Y306343D01*
X39822Y305445D01*
X37905Y305490D01*
X36558Y306837D01*
X37026Y308884D01*
X38279Y309721D01*
X39514Y311570D01*
X39948Y313750D01*
X39514Y315930D01*
X38279Y317779D01*
X36430Y319014D01*
X34250Y319447D01*
X32772Y319153D01*
X30994Y320271D01*
Y340857D01*
X36782Y346645D01*
X36783Y346645D01*
X37302Y347422D01*
X37484Y348339D01*
X37484Y348339D01*
Y409497D01*
X37484Y409497D01*
X37302Y410414D01*
X36783Y411191D01*
X36782Y411191D01*
X34979Y412994D01*
X35105Y413624D01*
X34789Y415210D01*
X33891Y416554D01*
X32547Y417453D01*
X30961Y417768D01*
X29924Y417562D01*
X28145Y418607D01*
Y423546D01*
X30331Y425731D01*
X30961Y425606D01*
X32547Y425921D01*
X33891Y426819D01*
X34789Y428164D01*
X35105Y429749D01*
X34789Y431335D01*
X33891Y432679D01*
X32547Y433578D01*
X30961Y433893D01*
D02*
G37*
G36*
X-39910Y415153D02*
X-41667Y414922D01*
X-43305Y414244D01*
X-44711Y413165D01*
X-45789Y411759D01*
X-46468Y410121D01*
X-46699Y408364D01*
X-46468Y406607D01*
X-45789Y404969D01*
X-44711Y403563D01*
X-43305Y402485D01*
X-41667Y401806D01*
X-39910Y401575D01*
X-38153Y401806D01*
X-36515Y402485D01*
X-35109Y403563D01*
X-34030Y404969D01*
X-33352Y406607D01*
X-33121Y408364D01*
X-33352Y410121D01*
X-34030Y411759D01*
X-35109Y413165D01*
X-36515Y414244D01*
X-38153Y414922D01*
X-39910Y415153D01*
D02*
G37*
G36*
X218000Y407644D02*
X216414Y407328D01*
X215070Y406430D01*
X214172Y405086D01*
X213856Y403500D01*
X214172Y401914D01*
X215070Y400570D01*
X216414Y399672D01*
X218000Y399356D01*
X219586Y399672D01*
X220930Y400570D01*
X221828Y401914D01*
X222144Y403500D01*
X221828Y405086D01*
X220930Y406430D01*
X219586Y407328D01*
X218000Y407644D01*
D02*
G37*
G36*
X-14510Y422134D02*
X-18074Y421665D01*
X-21395Y420289D01*
X-24247Y418101D01*
X-26435Y415249D01*
X-27811Y411928D01*
X-28280Y408364D01*
X-27811Y404800D01*
X-26435Y401479D01*
X-24247Y398627D01*
X-24146Y398550D01*
X-24643Y397158D01*
X-24838Y396839D01*
X-26322Y396544D01*
X-27654Y395654D01*
X-28544Y394322D01*
X-28857Y392750D01*
X-28544Y391178D01*
X-27654Y389846D01*
X-26322Y388956D01*
X-24750Y388643D01*
X-23981Y388796D01*
X-23228Y387133D01*
X-24247Y386351D01*
X-26435Y383499D01*
X-27811Y380178D01*
X-28280Y376614D01*
X-27811Y373050D01*
X-26435Y369729D01*
X-24247Y366877D01*
X-21395Y364689D01*
X-18074Y363313D01*
X-14510Y362844D01*
X-10946Y363313D01*
X-7625Y364689D01*
X-4773Y366877D01*
X-2585Y369729D01*
X-1209Y373050D01*
X-740Y376614D01*
X-1209Y380178D01*
X-2585Y383499D01*
X-4773Y386351D01*
X-7625Y388539D01*
X-10946Y389915D01*
X-14510Y390384D01*
X-18074Y389915D01*
X-20269Y389006D01*
X-21448Y390442D01*
X-20956Y391178D01*
X-20643Y392750D01*
X-20956Y394322D01*
X-20965Y394336D01*
X-19787Y395772D01*
X-18074Y395063D01*
X-14510Y394594D01*
X-10946Y395063D01*
X-7625Y396439D01*
X-4773Y398627D01*
X-2585Y401479D01*
X-1209Y404800D01*
X-740Y408364D01*
X-1209Y411928D01*
X-2585Y415249D01*
X-4773Y418101D01*
X-7625Y420289D01*
X-10946Y421665D01*
X-14510Y422134D01*
D02*
G37*
G36*
X57750Y402144D02*
X56164Y401828D01*
X54820Y400930D01*
X53922Y399586D01*
X53606Y398000D01*
X53922Y396414D01*
X54820Y395070D01*
X56164Y394172D01*
X57750Y393856D01*
X59336Y394172D01*
X60680Y395070D01*
X61578Y396414D01*
X61894Y398000D01*
X61578Y399586D01*
X60680Y400930D01*
X59336Y401828D01*
X57750Y402144D01*
D02*
G37*
G36*
X-40000Y394107D02*
X-41572Y393794D01*
X-42904Y392904D01*
X-43794Y391572D01*
X-44107Y390000D01*
X-43794Y388428D01*
X-42904Y387096D01*
X-41572Y386206D01*
X-40000Y385893D01*
X-38428Y386206D01*
X-37096Y387096D01*
X-36206Y388428D01*
X-35893Y390000D01*
X-36206Y391572D01*
X-37096Y392904D01*
X-38428Y393794D01*
X-40000Y394107D01*
D02*
G37*
G36*
X57250Y390394D02*
X55664Y390078D01*
X54320Y389180D01*
X53422Y387836D01*
X53106Y386250D01*
X53422Y384664D01*
X54320Y383320D01*
X55664Y382422D01*
X57250Y382106D01*
X58836Y382422D01*
X60180Y383320D01*
X61078Y384664D01*
X61394Y386250D01*
X61078Y387836D01*
X60180Y389180D01*
X58836Y390078D01*
X57250Y390394D01*
D02*
G37*
G36*
X252500Y386394D02*
X250914Y386078D01*
X249570Y385180D01*
X248672Y383836D01*
X248356Y382250D01*
X248672Y380664D01*
X249570Y379320D01*
X250914Y378422D01*
X252500Y378106D01*
X254086Y378422D01*
X255430Y379320D01*
X256328Y380664D01*
X256644Y382250D01*
X256328Y383836D01*
X255430Y385180D01*
X254086Y386078D01*
X252500Y386394D01*
D02*
G37*
G36*
X263500Y386144D02*
X261914Y385828D01*
X260570Y384930D01*
X259672Y383586D01*
X259356Y382000D01*
X259672Y380414D01*
X260570Y379070D01*
X261914Y378172D01*
X263500Y377856D01*
X265086Y378172D01*
X266430Y379070D01*
X267328Y380414D01*
X267644Y382000D01*
X267328Y383586D01*
X266430Y384930D01*
X265086Y385828D01*
X263500Y386144D01*
D02*
G37*
G36*
X57500Y378144D02*
X55914Y377828D01*
X54570Y376930D01*
X53672Y375586D01*
X53356Y374000D01*
X53672Y372414D01*
X54570Y371070D01*
X55914Y370172D01*
X57500Y369856D01*
X59086Y370172D01*
X60430Y371070D01*
X61328Y372414D01*
X61644Y374000D01*
X61328Y375586D01*
X60430Y376930D01*
X59086Y377828D01*
X57500Y378144D01*
D02*
G37*
G36*
X234250Y368894D02*
X232664Y368578D01*
X231320Y367680D01*
X230422Y366336D01*
X230106Y364750D01*
X230422Y363164D01*
X231320Y361820D01*
X232664Y360922D01*
X234250Y360606D01*
X235836Y360922D01*
X237180Y361820D01*
X238078Y363164D01*
X238394Y364750D01*
X238078Y366336D01*
X237180Y367680D01*
X235836Y368578D01*
X234250Y368894D01*
D02*
G37*
G36*
X286250Y368644D02*
X284664Y368328D01*
X283320Y367430D01*
X282422Y366086D01*
X282106Y364500D01*
X282422Y362914D01*
X283320Y361570D01*
X284664Y360672D01*
X286250Y360356D01*
X287836Y360672D01*
X289180Y361570D01*
X290078Y362914D01*
X290394Y364500D01*
X290078Y366086D01*
X289180Y367430D01*
X287836Y368328D01*
X286250Y368644D01*
D02*
G37*
G36*
X327000Y359144D02*
X325414Y358829D01*
X324070Y357930D01*
X323172Y356586D01*
X322856Y355000D01*
X323172Y353415D01*
X324070Y352070D01*
X325414Y351172D01*
X327000Y350857D01*
X328586Y351172D01*
X329930Y352070D01*
X330828Y353415D01*
X331144Y355000D01*
X330828Y356586D01*
X329930Y357930D01*
X328586Y358829D01*
X327000Y359144D01*
D02*
G37*
G36*
X301250D02*
X299664Y358829D01*
X298320Y357930D01*
X297422Y356586D01*
X297106Y355000D01*
X297422Y353415D01*
X298320Y352070D01*
X299664Y351172D01*
X301250Y350857D01*
X302836Y351172D01*
X304180Y352070D01*
X305078Y353415D01*
X305394Y355000D01*
X305078Y356586D01*
X304180Y357930D01*
X302836Y358829D01*
X301250Y359144D01*
D02*
G37*
G36*
X226802Y354342D02*
X225216Y354026D01*
X223872Y353128D01*
X222974Y351784D01*
X222658Y350198D01*
X222974Y348612D01*
X223872Y347268D01*
X225216Y346370D01*
X226802Y346054D01*
X228388Y346370D01*
X229732Y347268D01*
X230630Y348612D01*
X230946Y350198D01*
X230630Y351784D01*
X229732Y353128D01*
X228388Y354026D01*
X226802Y354342D01*
D02*
G37*
G36*
X175517Y351626D02*
X173932Y351311D01*
X172587Y350413D01*
X171689Y349068D01*
X171374Y347483D01*
X171689Y345897D01*
X172587Y344553D01*
X173932Y343655D01*
X175517Y343339D01*
X177103Y343655D01*
X178447Y344553D01*
X179345Y345897D01*
X179661Y347483D01*
X179345Y349068D01*
X178447Y350413D01*
X177103Y351311D01*
X175517Y351626D01*
D02*
G37*
G36*
X-72056Y350680D02*
X-73642Y350364D01*
X-74986Y349466D01*
X-75884Y348122D01*
X-76200Y346536D01*
X-75884Y344950D01*
X-74986Y343606D01*
X-73642Y342708D01*
X-72056Y342392D01*
X-70470Y342708D01*
X-69126Y343606D01*
X-68228Y344950D01*
X-67912Y346536D01*
X-68228Y348122D01*
X-69126Y349466D01*
X-70470Y350364D01*
X-72056Y350680D01*
D02*
G37*
G36*
X-5500Y340894D02*
X-7086Y340578D01*
X-8430Y339680D01*
X-9328Y338336D01*
X-9644Y336750D01*
X-9328Y335164D01*
X-8430Y333820D01*
X-7086Y332922D01*
X-5500Y332606D01*
X-3914Y332922D01*
X-2570Y333820D01*
X-1672Y335164D01*
X-1356Y336750D01*
X-1672Y338336D01*
X-2570Y339680D01*
X-3914Y340578D01*
X-5500Y340894D01*
D02*
G37*
G36*
X227000Y336144D02*
X225414Y335828D01*
X224070Y334930D01*
X223172Y333586D01*
X222856Y332000D01*
X223172Y330414D01*
X224070Y329070D01*
X225414Y328172D01*
X227000Y327856D01*
X228586Y328172D01*
X229930Y329070D01*
X230828Y330414D01*
X231144Y332000D01*
X230828Y333586D01*
X229930Y334930D01*
X228586Y335828D01*
X227000Y336144D01*
D02*
G37*
G36*
X166000Y328144D02*
X164414Y327828D01*
X163070Y326930D01*
X162172Y325586D01*
X161856Y324000D01*
X162172Y322414D01*
X163070Y321070D01*
X164414Y320172D01*
X166000Y319856D01*
X167586Y320172D01*
X168930Y321070D01*
X169828Y322414D01*
X170144Y324000D01*
X169828Y325586D01*
X168930Y326930D01*
X167586Y327828D01*
X166000Y328144D01*
D02*
G37*
G36*
X154250D02*
X152664Y327828D01*
X151320Y326930D01*
X150422Y325586D01*
X150106Y324000D01*
X150422Y322414D01*
X151320Y321070D01*
X152664Y320172D01*
X154250Y319856D01*
X155836Y320172D01*
X157180Y321070D01*
X158078Y322414D01*
X158394Y324000D01*
X158078Y325586D01*
X157180Y326930D01*
X155836Y327828D01*
X154250Y328144D01*
D02*
G37*
G36*
X259750Y316644D02*
X258164Y316328D01*
X256991Y315544D01*
X255430Y314680D01*
X254086Y315578D01*
X252500Y315894D01*
X250914Y315578D01*
X249570Y314680D01*
X248672Y313336D01*
X248356Y311750D01*
X248672Y310164D01*
X249570Y308820D01*
X250914Y307922D01*
X252500Y307606D01*
X254086Y307922D01*
X255259Y308706D01*
X256820Y309570D01*
X258164Y308672D01*
X259750Y308356D01*
X261336Y308672D01*
X262680Y309570D01*
X263578Y310914D01*
X263894Y312500D01*
X263578Y314086D01*
X262680Y315430D01*
X261336Y316328D01*
X259750Y316644D01*
D02*
G37*
G36*
X318500Y317894D02*
X316914Y317578D01*
X315570Y316680D01*
X314672Y315336D01*
X314356Y313750D01*
X314672Y312164D01*
X315570Y310820D01*
X316914Y309922D01*
X318500Y309606D01*
X320086Y309922D01*
X321430Y310820D01*
X322328Y312164D01*
X322644Y313750D01*
X322328Y315336D01*
X321430Y316680D01*
X320086Y317578D01*
X318500Y317894D01*
D02*
G37*
G36*
X307500D02*
X305914Y317578D01*
X304570Y316680D01*
X303672Y315336D01*
X303356Y313750D01*
X303672Y312164D01*
X304570Y310820D01*
X305914Y309922D01*
X307500Y309606D01*
X309086Y309922D01*
X310430Y310820D01*
X311328Y312164D01*
X311644Y313750D01*
X311328Y315336D01*
X310430Y316680D01*
X309086Y317578D01*
X307500Y317894D01*
D02*
G37*
G36*
X285500Y316144D02*
X283914Y315828D01*
X282570Y314930D01*
X281672Y313586D01*
X281356Y312000D01*
X281672Y310414D01*
X282570Y309070D01*
X283914Y308172D01*
X285500Y307856D01*
X287086Y308172D01*
X288430Y309070D01*
X289328Y310414D01*
X289644Y312000D01*
X289328Y313586D01*
X288430Y314930D01*
X287086Y315828D01*
X285500Y316144D01*
D02*
G37*
G36*
X271000D02*
X269414Y315828D01*
X268070Y314930D01*
X267172Y313586D01*
X266856Y312000D01*
X267172Y310414D01*
X268070Y309070D01*
X269414Y308172D01*
X271000Y307856D01*
X272586Y308172D01*
X273930Y309070D01*
X274828Y310414D01*
X275144Y312000D01*
X274828Y313586D01*
X273930Y314930D01*
X272586Y315828D01*
X271000Y316144D01*
D02*
G37*
G36*
X-45996Y312400D02*
X-48153Y311971D01*
X-49981Y310749D01*
X-51203Y308921D01*
X-51632Y306764D01*
X-51203Y304607D01*
X-49981Y302778D01*
X-48153Y301557D01*
X-45996Y301128D01*
X-43839Y301557D01*
X-42010Y302778D01*
X-40789Y304607D01*
X-40360Y306764D01*
X-40789Y308921D01*
X-42010Y310749D01*
X-43839Y311971D01*
X-45996Y312400D01*
D02*
G37*
G36*
X232250Y299144D02*
X230664Y298828D01*
X229320Y297930D01*
X228422Y296586D01*
X228106Y295000D01*
X228422Y293414D01*
X229320Y292070D01*
X230664Y291172D01*
X232250Y290856D01*
X233836Y291172D01*
X235180Y292070D01*
X236078Y293414D01*
X236394Y295000D01*
X236078Y296586D01*
X235180Y297930D01*
X233836Y298828D01*
X232250Y299144D01*
D02*
G37*
G36*
X-28114Y293624D02*
X-29700Y293308D01*
X-31044Y292410D01*
X-31942Y291066D01*
X-32258Y289480D01*
X-31942Y287894D01*
X-31044Y286550D01*
X-29700Y285652D01*
X-28114Y285336D01*
X-26528Y285652D01*
X-25184Y286550D01*
X-24286Y287894D01*
X-23970Y289480D01*
X-24286Y291066D01*
X-25184Y292410D01*
X-26528Y293308D01*
X-28114Y293624D01*
D02*
G37*
G36*
X145542Y286846D02*
X143956Y286530D01*
X142612Y285632D01*
X141714Y284288D01*
X140500Y283160D01*
X139841Y283291D01*
X138914Y283476D01*
X137328Y283160D01*
X135984Y282262D01*
X135086Y280918D01*
X134770Y279332D01*
X135086Y277746D01*
X135984Y276402D01*
X137328Y275504D01*
X138914Y275188D01*
X140500Y275504D01*
X141844Y276402D01*
X142742Y277746D01*
X143956Y278874D01*
X144615Y278743D01*
X145542Y278558D01*
X147128Y278874D01*
X148472Y279772D01*
X149370Y281116D01*
X149686Y282702D01*
X149370Y284288D01*
X148472Y285632D01*
X147128Y286530D01*
X145542Y286846D01*
D02*
G37*
G36*
X155750Y288894D02*
X154164Y288578D01*
X152820Y287680D01*
X151922Y286336D01*
X151606Y284750D01*
X151922Y283164D01*
X152820Y281820D01*
X154164Y280922D01*
X155750Y280606D01*
X157336Y280922D01*
X157675Y281148D01*
X159876Y281042D01*
X160171Y280851D01*
X161228Y280144D01*
X162814Y279828D01*
X164400Y280144D01*
X165744Y281042D01*
X166642Y282386D01*
X166958Y283972D01*
X166642Y285558D01*
X165744Y286902D01*
X164400Y287800D01*
X162814Y288116D01*
X161228Y287800D01*
X160889Y287574D01*
X158688Y287680D01*
X158393Y287871D01*
X157336Y288578D01*
X155750Y288894D01*
D02*
G37*
G36*
X26250Y287394D02*
X24664Y287078D01*
X23320Y286180D01*
X22422Y284836D01*
X22106Y283250D01*
X22422Y281664D01*
X23320Y280320D01*
X24664Y279422D01*
X26250Y279106D01*
X27836Y279422D01*
X29180Y280320D01*
X30078Y281664D01*
X30394Y283250D01*
X30078Y284836D01*
X29180Y286180D01*
X27836Y287078D01*
X26250Y287394D01*
D02*
G37*
G36*
X161000Y261614D02*
X159414Y261298D01*
X158070Y260400D01*
X157172Y259056D01*
X156856Y257470D01*
X157172Y255884D01*
X158070Y254540D01*
X159414Y253642D01*
X161000Y253326D01*
X162586Y253642D01*
X163930Y254540D01*
X164828Y255884D01*
X165144Y257470D01*
X164828Y259056D01*
X163930Y260400D01*
X162586Y261298D01*
X161000Y261614D01*
D02*
G37*
G36*
X31251Y259906D02*
X29666Y259591D01*
X28321Y258692D01*
X27423Y257348D01*
X27108Y255763D01*
X27423Y254177D01*
X28321Y252833D01*
X29666Y251934D01*
X31251Y251619D01*
X32837Y251934D01*
X34181Y252833D01*
X35080Y254177D01*
X35395Y255763D01*
X35080Y257348D01*
X34181Y258692D01*
X32837Y259591D01*
X31251Y259906D01*
D02*
G37*
G36*
X257750Y256144D02*
X256164Y255828D01*
X254820Y254930D01*
X253922Y253586D01*
X253606Y252000D01*
X253922Y250414D01*
X254820Y249070D01*
X256164Y248172D01*
X257750Y247856D01*
X259336Y248172D01*
X260680Y249070D01*
X261578Y250414D01*
X261894Y252000D01*
X261578Y253586D01*
X260680Y254930D01*
X259336Y255828D01*
X257750Y256144D01*
D02*
G37*
G36*
X294000Y255652D02*
X292414Y255336D01*
X291070Y254438D01*
X290172Y253094D01*
X289856Y251508D01*
X290172Y249922D01*
X291070Y248578D01*
X292414Y247680D01*
X294000Y247364D01*
X295586Y247680D01*
X296930Y248578D01*
X297828Y249922D01*
X298144Y251508D01*
X297828Y253094D01*
X296930Y254438D01*
X295586Y255336D01*
X294000Y255652D01*
D02*
G37*
G36*
X304000Y255144D02*
X302414Y254828D01*
X301070Y253930D01*
X300172Y252586D01*
X299856Y251000D01*
X300172Y249414D01*
X301070Y248070D01*
X302414Y247172D01*
X304000Y246856D01*
X305586Y247172D01*
X306930Y248070D01*
X307828Y249414D01*
X308144Y251000D01*
X307828Y252586D01*
X306930Y253930D01*
X305586Y254828D01*
X304000Y255144D01*
D02*
G37*
G36*
X284000D02*
X282414Y254828D01*
X281070Y253930D01*
X280172Y252586D01*
X279856Y251000D01*
X280172Y249414D01*
X281070Y248070D01*
X282414Y247172D01*
X284000Y246856D01*
X285586Y247172D01*
X286930Y248070D01*
X287828Y249414D01*
X288144Y251000D01*
X287828Y252586D01*
X286930Y253930D01*
X285586Y254828D01*
X284000Y255144D01*
D02*
G37*
G36*
X274000D02*
X272414Y254828D01*
X271070Y253930D01*
X270172Y252586D01*
X269856Y251000D01*
X270172Y249414D01*
X271070Y248070D01*
X272414Y247172D01*
X274000Y246856D01*
X275586Y247172D01*
X276930Y248070D01*
X277828Y249414D01*
X278144Y251000D01*
X277828Y252586D01*
X276930Y253930D01*
X275586Y254828D01*
X274000Y255144D01*
D02*
G37*
G36*
X294000Y245144D02*
X292414Y244828D01*
X291070Y243930D01*
X290172Y242586D01*
X289856Y241000D01*
X290172Y239414D01*
X291070Y238070D01*
X292414Y237172D01*
X294000Y236856D01*
X295586Y237172D01*
X296930Y238070D01*
X297828Y239414D01*
X298144Y241000D01*
X297828Y242586D01*
X296930Y243930D01*
X295586Y244828D01*
X294000Y245144D01*
D02*
G37*
G36*
X284000Y245144D02*
X282414Y244828D01*
X281070Y243930D01*
X280172Y242586D01*
X279856Y241000D01*
X280172Y239414D01*
X281070Y238070D01*
X282414Y237172D01*
X284000Y236856D01*
X285586Y237172D01*
X286930Y238070D01*
X287828Y239414D01*
X288144Y241000D01*
X287828Y242586D01*
X286930Y243930D01*
X285586Y244828D01*
X284000Y245144D01*
D02*
G37*
G36*
X294000Y235144D02*
X292414Y234828D01*
X291070Y233930D01*
X290172Y232586D01*
X289856Y231000D01*
X290172Y229414D01*
X291070Y228070D01*
X292414Y227172D01*
X294000Y226856D01*
X295586Y227172D01*
X296930Y228070D01*
X297828Y229414D01*
X298144Y231000D01*
X297828Y232586D01*
X296930Y233930D01*
X295586Y234828D01*
X294000Y235144D01*
D02*
G37*
G36*
X284000D02*
X282414Y234828D01*
X281070Y233930D01*
X280172Y232586D01*
X279856Y231000D01*
X280172Y229414D01*
X281070Y228070D01*
X282414Y227172D01*
X284000Y226856D01*
X285586Y227172D01*
X286930Y228070D01*
X287828Y229414D01*
X288144Y231000D01*
X287828Y232586D01*
X286930Y233930D01*
X285586Y234828D01*
X284000Y235144D01*
D02*
G37*
G36*
X-45996Y237216D02*
X-48153Y236787D01*
X-49981Y235565D01*
X-51203Y233737D01*
X-51632Y231580D01*
X-51203Y229423D01*
X-49981Y227595D01*
X-48153Y226373D01*
X-45996Y225944D01*
X-43839Y226373D01*
X-42010Y227595D01*
X-40789Y229423D01*
X-40360Y231580D01*
X-40789Y233737D01*
X-42010Y235565D01*
X-43839Y236787D01*
X-45996Y237216D01*
D02*
G37*
G36*
X258750Y232894D02*
X257164Y232578D01*
X255820Y231680D01*
X254922Y230336D01*
X254606Y228750D01*
X254922Y227164D01*
X255820Y225820D01*
X257164Y224922D01*
X258750Y224606D01*
X260336Y224922D01*
X261680Y225820D01*
X262578Y227164D01*
X262894Y228750D01*
X262578Y230336D01*
X261680Y231680D01*
X260336Y232578D01*
X258750Y232894D01*
D02*
G37*
G36*
X217250Y194894D02*
X215664Y194578D01*
X214320Y193680D01*
X213422Y192336D01*
X213106Y190750D01*
X213422Y189164D01*
X214051Y188222D01*
X214570Y186430D01*
X213672Y185086D01*
X213356Y183500D01*
X213672Y181914D01*
X214570Y180570D01*
X215292Y180088D01*
X216015Y179141D01*
X216272Y177788D01*
X216117Y177009D01*
X216432Y175423D01*
X217331Y174079D01*
X218675Y173180D01*
X220261Y172865D01*
X221846Y173180D01*
X223191Y174079D01*
X224089Y175423D01*
X224404Y177009D01*
X224089Y178594D01*
X223191Y179939D01*
X222469Y180421D01*
X221746Y181368D01*
X221489Y182721D01*
X221644Y183500D01*
X221328Y185086D01*
X220699Y186028D01*
X220180Y187820D01*
X221078Y189164D01*
X221394Y190750D01*
X221078Y192336D01*
X220180Y193680D01*
X218836Y194578D01*
X217250Y194894D01*
D02*
G37*
G36*
X224192Y168697D02*
X222012Y168264D01*
X220361Y167161D01*
X219953Y167045D01*
X218210Y167180D01*
X216866Y168078D01*
X215280Y168394D01*
X213694Y168078D01*
X212350Y167180D01*
X211452Y165836D01*
X211136Y164250D01*
X211452Y162664D01*
X212350Y161320D01*
X213694Y160422D01*
X215280Y160106D01*
X216866Y160422D01*
X217156Y160616D01*
X218729Y160797D01*
X219388Y160131D01*
X220163Y158971D01*
X220360Y158840D01*
X220326Y156724D01*
X219401Y156107D01*
X218166Y154258D01*
X217733Y152078D01*
X218166Y149898D01*
X218932Y148751D01*
X218971Y148611D01*
X218672Y146767D01*
X218520Y146500D01*
X218050Y146186D01*
X217152Y144842D01*
X216836Y143256D01*
X217152Y141670D01*
X218050Y140326D01*
X219394Y139428D01*
X220980Y139112D01*
X222566Y139428D01*
X223910Y140326D01*
X224808Y141670D01*
X225124Y143256D01*
X224808Y144842D01*
X224808Y144842D01*
X225610Y146814D01*
X227459Y148049D01*
X228694Y149898D01*
X229128Y152078D01*
X228694Y154258D01*
X227459Y156107D01*
X227262Y156238D01*
X227296Y158354D01*
X228221Y158971D01*
X229456Y160820D01*
X229890Y163000D01*
X229456Y165180D01*
X228221Y167029D01*
X226372Y168264D01*
X224192Y168697D01*
D02*
G37*
G36*
X283464Y172292D02*
X281878Y171976D01*
X280534Y171078D01*
X279636Y169734D01*
X279320Y168148D01*
X279636Y166562D01*
X280534Y165218D01*
X281878Y164320D01*
X283464Y164004D01*
X285050Y164320D01*
X286394Y165218D01*
X287292Y166562D01*
X287608Y168148D01*
X287292Y169734D01*
X286394Y171078D01*
X285050Y171976D01*
X283464Y172292D01*
D02*
G37*
G36*
X-17784Y168394D02*
X-19370Y168078D01*
X-20714Y167180D01*
X-21612Y165836D01*
X-21928Y164250D01*
X-21612Y162664D01*
X-20714Y161320D01*
X-19370Y160422D01*
X-17784Y160106D01*
X-16198Y160422D01*
X-14854Y161320D01*
X-13956Y162664D01*
X-13640Y164250D01*
X-13956Y165836D01*
X-14854Y167180D01*
X-16198Y168078D01*
X-17784Y168394D01*
D02*
G37*
G36*
X-24618Y152238D02*
X-26204Y151922D01*
X-27548Y151024D01*
X-28446Y149680D01*
X-28762Y148094D01*
X-28446Y146508D01*
X-27548Y145164D01*
X-26204Y144266D01*
X-24618Y143950D01*
X-23032Y144266D01*
X-21688Y145164D01*
X-20790Y146508D01*
X-20474Y148094D01*
X-20790Y149680D01*
X-21688Y151024D01*
X-23032Y151922D01*
X-24618Y152238D01*
D02*
G37*
G36*
X194220Y138394D02*
X192634Y138078D01*
X191290Y137180D01*
X190392Y135836D01*
X190076Y134250D01*
X190392Y132664D01*
X191290Y131320D01*
X192634Y130422D01*
X194220Y130106D01*
X195806Y130422D01*
X197150Y131320D01*
X198048Y132664D01*
X198364Y134250D01*
X198048Y135836D01*
X197150Y137180D01*
X195806Y138078D01*
X194220Y138394D01*
D02*
G37*
G36*
X317750Y136394D02*
X316164Y136078D01*
X314820Y135180D01*
X313922Y133836D01*
X313606Y132250D01*
X313922Y130664D01*
X314820Y129320D01*
X316164Y128422D01*
X317750Y128106D01*
X319336Y128422D01*
X320680Y129320D01*
X321578Y130664D01*
X321894Y132250D01*
X321578Y133836D01*
X320680Y135180D01*
X319336Y136078D01*
X317750Y136394D01*
D02*
G37*
G36*
X-18796Y132414D02*
X-20382Y132098D01*
X-21726Y131200D01*
X-22624Y129856D01*
X-22940Y128270D01*
X-22624Y126684D01*
X-21726Y125340D01*
X-20382Y124442D01*
X-18796Y124126D01*
X-17210Y124442D01*
X-15866Y125340D01*
X-14968Y126684D01*
X-14652Y128270D01*
X-14968Y129856D01*
X-15866Y131200D01*
X-17210Y132098D01*
X-18796Y132414D01*
D02*
G37*
G36*
X-53110Y129008D02*
X-54696Y128692D01*
X-56040Y127794D01*
X-56938Y126450D01*
X-57254Y124864D01*
X-56938Y123278D01*
X-56040Y121934D01*
X-54696Y121036D01*
X-53110Y120721D01*
X-51524Y121036D01*
X-50180Y121934D01*
X-49282Y123278D01*
X-48966Y124864D01*
X-49282Y126450D01*
X-50180Y127794D01*
X-51524Y128692D01*
X-53110Y129008D01*
D02*
G37*
G36*
X4064Y119460D02*
X2478Y119144D01*
X1134Y118246D01*
X236Y116902D01*
X-80Y115316D01*
X236Y113730D01*
X1134Y112386D01*
X2478Y111488D01*
X4064Y111172D01*
X5650Y111488D01*
X6994Y112386D01*
X7892Y113730D01*
X8208Y115316D01*
X7892Y116902D01*
X6994Y118246D01*
X5650Y119144D01*
X4064Y119460D01*
D02*
G37*
G36*
X293624Y116158D02*
X292038Y115842D01*
X290694Y114944D01*
X289796Y113600D01*
X289480Y112014D01*
X289796Y110428D01*
X290202Y109820D01*
X290035Y108236D01*
X289631Y107718D01*
X288662Y107070D01*
X287764Y105726D01*
X287448Y104140D01*
X287764Y102554D01*
X288662Y101210D01*
X290006Y100312D01*
X291592Y99996D01*
X293178Y100312D01*
X294522Y101210D01*
X295420Y102554D01*
X295736Y104140D01*
X295420Y105726D01*
X296327Y107432D01*
X296925Y107815D01*
X297416Y107634D01*
X298314Y106290D01*
X299658Y105392D01*
X301244Y105076D01*
X302830Y105392D01*
X304174Y106290D01*
X305072Y107634D01*
X305388Y109220D01*
X305072Y110806D01*
X304174Y112150D01*
X302830Y113048D01*
X301244Y113364D01*
X299658Y113048D01*
X299408Y112881D01*
X297452Y113600D01*
X296554Y114944D01*
X295210Y115842D01*
X293624Y116158D01*
D02*
G37*
G36*
X-55000Y118357D02*
X-56572Y118044D01*
X-57904Y117154D01*
X-58794Y115822D01*
X-59107Y114250D01*
X-58794Y112678D01*
X-57904Y111346D01*
X-57332Y110964D01*
X-56623Y110150D01*
X-56868Y108702D01*
X-57112Y108336D01*
X-57428Y106750D01*
X-57112Y105164D01*
X-56214Y103820D01*
X-54870Y102922D01*
X-53284Y102606D01*
X-51698Y102922D01*
X-50354Y103820D01*
X-49456Y105164D01*
X-49140Y106750D01*
X-49456Y108336D01*
X-50354Y109680D01*
X-50962Y110086D01*
X-50998Y110126D01*
X-51475Y112058D01*
X-51433Y112338D01*
X-51206Y112678D01*
X-50893Y114250D01*
X-51206Y115822D01*
X-52096Y117154D01*
X-53428Y118044D01*
X-55000Y118357D01*
D02*
G37*
G36*
X-26001Y105399D02*
X-27587Y105083D01*
X-28931Y104185D01*
X-29829Y102841D01*
X-29964Y102165D01*
X-30891Y101132D01*
X-31876Y100970D01*
X-32750Y101144D01*
X-34336Y100828D01*
X-35680Y99930D01*
X-36578Y98586D01*
X-36894Y97000D01*
X-36578Y95414D01*
X-35680Y94070D01*
X-34336Y93172D01*
X-32750Y92856D01*
X-31164Y93172D01*
X-29820Y94070D01*
X-28922Y95414D01*
X-28787Y96090D01*
X-27860Y97123D01*
X-26875Y97285D01*
X-26001Y97111D01*
X-24416Y97427D01*
X-23071Y98325D01*
X-22173Y99669D01*
X-21858Y101255D01*
X-22173Y102841D01*
X-23071Y104185D01*
X-24416Y105083D01*
X-26001Y105399D01*
D02*
G37*
G36*
X3000Y104894D02*
X1414Y104578D01*
X70Y103680D01*
X-828Y102336D01*
X-1144Y100750D01*
X-828Y99164D01*
X70Y97820D01*
X1414Y96922D01*
X3000Y96606D01*
X4586Y96922D01*
X5930Y97820D01*
X6828Y99164D01*
X7144Y100750D01*
X6828Y102336D01*
X5930Y103680D01*
X4586Y104578D01*
X3000Y104894D01*
D02*
G37*
G36*
X-21250Y93394D02*
X-22836Y93078D01*
X-24180Y92180D01*
X-25078Y90836D01*
X-25394Y89250D01*
X-25078Y87664D01*
X-24180Y86320D01*
X-22836Y85422D01*
X-21250Y85106D01*
X-19664Y85422D01*
X-18320Y86320D01*
X-17422Y87664D01*
X-17106Y89250D01*
X-17422Y90836D01*
X-18320Y92180D01*
X-19664Y93078D01*
X-21250Y93394D01*
D02*
G37*
G36*
X2780Y88394D02*
X1194Y88078D01*
X-150Y87180D01*
X-1048Y85836D01*
X-1364Y84250D01*
X-1048Y82664D01*
X-150Y81320D01*
X1194Y80422D01*
X2780Y80106D01*
X4366Y80422D01*
X5710Y81320D01*
X6608Y82664D01*
X6924Y84250D01*
X6608Y85836D01*
X5710Y87180D01*
X4366Y88078D01*
X2780Y88394D01*
D02*
G37*
G36*
X295000Y79144D02*
X293414Y78828D01*
X292070Y77930D01*
X291172Y76586D01*
X290856Y75000D01*
X291172Y73414D01*
X292070Y72070D01*
X293414Y71172D01*
X295000Y70856D01*
X296586Y71172D01*
X297930Y72070D01*
X298828Y73414D01*
X299144Y75000D01*
X298828Y76586D01*
X297930Y77930D01*
X296586Y78828D01*
X295000Y79144D01*
D02*
G37*
G36*
X216662Y78566D02*
X215076Y78250D01*
X213732Y77352D01*
X212834Y76008D01*
X212518Y74422D01*
X212834Y72836D01*
X213732Y71492D01*
X215076Y70594D01*
X216662Y70278D01*
X218248Y70594D01*
X219592Y71492D01*
X220490Y72836D01*
X220806Y74422D01*
X220490Y76008D01*
X219592Y77352D01*
X218248Y78250D01*
X216662Y78566D01*
D02*
G37*
G36*
X-17250Y72894D02*
X-18836Y72578D01*
X-20180Y71680D01*
X-21078Y70336D01*
X-21394Y68750D01*
X-21078Y67164D01*
X-20180Y65820D01*
X-18836Y64922D01*
X-17250Y64606D01*
X-15664Y64922D01*
X-14320Y65820D01*
X-13422Y67164D01*
X-13106Y68750D01*
X-13422Y70336D01*
X-14320Y71680D01*
X-15664Y72578D01*
X-17250Y72894D01*
D02*
G37*
G36*
X187198Y71200D02*
X185612Y70884D01*
X184268Y69986D01*
X183370Y68642D01*
X183054Y67056D01*
X183370Y65470D01*
X184268Y64126D01*
X185612Y63228D01*
X187198Y62912D01*
X188784Y63228D01*
X190128Y64126D01*
X191026Y65470D01*
X191342Y67056D01*
X191026Y68642D01*
X190128Y69986D01*
X188784Y70884D01*
X187198Y71200D01*
D02*
G37*
G36*
X21000Y70832D02*
X19414Y70516D01*
X18070Y69618D01*
X17172Y68274D01*
X16856Y66688D01*
X17172Y65102D01*
X18070Y63758D01*
X19414Y62860D01*
X21000Y62544D01*
X22586Y62860D01*
X23930Y63758D01*
X24828Y65102D01*
X25144Y66688D01*
X24828Y68274D01*
X23930Y69618D01*
X22586Y70516D01*
X21000Y70832D01*
D02*
G37*
G36*
X-2540Y58246D02*
X-4126Y57930D01*
X-5470Y57032D01*
X-6368Y55688D01*
X-6684Y54102D01*
X-6368Y52516D01*
X-5470Y51172D01*
X-4126Y50274D01*
X-2540Y49958D01*
X-954Y50274D01*
X390Y51172D01*
X1288Y52516D01*
X1604Y54102D01*
X1288Y55688D01*
X390Y57032D01*
X-954Y57930D01*
X-2540Y58246D01*
D02*
G37*
G36*
X181000Y50144D02*
X179414Y49828D01*
X178070Y48930D01*
X177172Y47586D01*
X176856Y46000D01*
X177172Y44414D01*
X178070Y43070D01*
X179414Y42172D01*
X181000Y41856D01*
X182586Y42172D01*
X183930Y43070D01*
X184828Y44414D01*
X185144Y46000D01*
X184828Y47586D01*
X183930Y48930D01*
X182586Y49828D01*
X181000Y50144D01*
D02*
G37*
G36*
X19854Y47189D02*
X18282Y46876D01*
X16950Y45986D01*
X16060Y44654D01*
X15747Y43082D01*
X16060Y41510D01*
X16950Y40178D01*
X18282Y39288D01*
X19854Y38975D01*
X21426Y39288D01*
X22758Y40178D01*
X23648Y41510D01*
X23961Y43082D01*
X23648Y44654D01*
X22758Y45986D01*
X21426Y46876D01*
X19854Y47189D01*
D02*
G37*
G36*
X164846Y44530D02*
X163260Y44214D01*
X161916Y43316D01*
X161018Y41972D01*
X160702Y40386D01*
X161018Y38800D01*
X161916Y37456D01*
X163260Y36558D01*
X164846Y36242D01*
X166432Y36558D01*
X166780Y36790D01*
X167803Y37433D01*
X169058Y36337D01*
X169070Y36320D01*
X170414Y35422D01*
X172000Y35106D01*
X172770Y35259D01*
X174708Y34628D01*
X175607Y33284D01*
X176951Y32385D01*
X178537Y32070D01*
X180122Y32385D01*
X181467Y33284D01*
X182365Y34628D01*
X182680Y36214D01*
X182365Y37799D01*
X181467Y39144D01*
X180122Y40042D01*
X178537Y40357D01*
X177767Y40204D01*
X175828Y40836D01*
X174930Y42180D01*
X173586Y43078D01*
X172000Y43394D01*
X170414Y43078D01*
X170066Y42846D01*
X169043Y42203D01*
X167787Y43299D01*
X167776Y43316D01*
X166432Y44214D01*
X164846Y44530D01*
D02*
G37*
G36*
X211248Y26109D02*
X209677Y25796D01*
X208344Y24906D01*
X207454Y23573D01*
X207141Y22002D01*
X207454Y20430D01*
X208344Y19098D01*
X209677Y18207D01*
X211248Y17895D01*
X212820Y18207D01*
X214152Y19098D01*
X215043Y20430D01*
X215355Y22002D01*
X215043Y23573D01*
X214152Y24906D01*
X212820Y25796D01*
X211248Y26109D01*
D02*
G37*
G36*
X171750Y186644D02*
X170164Y186328D01*
X168820Y185430D01*
X167922Y184086D01*
X167606Y182500D01*
X167922Y180914D01*
X168820Y179570D01*
X170164Y178672D01*
X171750Y178356D01*
X173336Y178672D01*
X174680Y179570D01*
X175578Y180914D01*
X175894Y182500D01*
X175578Y184086D01*
X174680Y185430D01*
X173336Y186328D01*
X171750Y186644D01*
D02*
G37*
G36*
X60750Y105144D02*
X59164Y104828D01*
X57820Y103930D01*
X56922Y102586D01*
X56606Y101000D01*
X56922Y99414D01*
X57820Y98070D01*
X59164Y97172D01*
X60750Y96856D01*
X62336Y97172D01*
X63680Y98070D01*
X64578Y99414D01*
X64894Y101000D01*
X64578Y102586D01*
X63680Y103930D01*
X62336Y104828D01*
X60750Y105144D01*
D02*
G37*
G36*
X53340Y78820D02*
X51754Y78504D01*
X50410Y77606D01*
X49512Y76262D01*
X49196Y74676D01*
X49512Y73090D01*
X50410Y71746D01*
X51754Y70848D01*
X53340Y70532D01*
X54926Y70848D01*
X56270Y71746D01*
X57168Y73090D01*
X57484Y74676D01*
X57168Y76262D01*
X56270Y77606D01*
X54926Y78504D01*
X53340Y78820D01*
D02*
G37*
G36*
X61003Y70647D02*
X59417Y70332D01*
X58073Y69433D01*
X57175Y68089D01*
X56859Y66503D01*
X57175Y64917D01*
X58073Y63573D01*
X59417Y62675D01*
X61003Y62360D01*
X62589Y62675D01*
X63933Y63573D01*
X64831Y64917D01*
X65147Y66503D01*
X64831Y68089D01*
X63933Y69433D01*
X62589Y70332D01*
X61003Y70647D01*
D02*
G37*
%LPD*%
D14*
X171082Y196918D02*
X186460D01*
X166832Y201168D02*
X171082Y196918D01*
X117668Y201168D02*
X166832D01*
X-55118Y391118D02*
Y391668D01*
Y391118D02*
X-40750Y376750D01*
Y353250D02*
Y376750D01*
X-46274Y347726D02*
X-40750Y353250D01*
X-55626Y347726D02*
X-46274D01*
X139784Y166008D02*
X143757D01*
X138526Y164750D02*
X139784Y166008D01*
X85000Y164750D02*
X138526D01*
X116250Y199750D02*
X117668Y201168D01*
X118461Y450126D02*
X119730Y451395D01*
X122270D01*
X123539Y450126D01*
Y448856D01*
X122270Y447587D01*
X121000D01*
X122270D01*
X123539Y446317D01*
Y445048D01*
X122270Y443778D01*
X119730D01*
X118461Y445048D01*
D15*
X140500Y337750D02*
X194000D01*
X208750Y323000D01*
D95*
X148417Y76754D02*
X148885Y77221D01*
X141955Y-5052D02*
X145368Y-1639D01*
X136906Y20344D02*
X145368Y11882D01*
X134493Y14030D02*
X137118Y11405D01*
X145368Y-1639D02*
Y11882D01*
X137118Y5558D02*
Y11405D01*
X128868Y-4368D02*
Y14368D01*
Y-4368D02*
X132493Y-7994D01*
X124006Y8750D02*
Y8909D01*
Y8750D02*
X124756Y8000D01*
X128868Y14368D02*
X132080Y17580D01*
X137118Y5558D02*
X138750Y3926D01*
X108490Y8000D02*
X108755D01*
X100493Y7997D02*
Y45256D01*
X104000Y12490D02*
X108490Y8000D01*
X116494Y7997D02*
X119709Y11212D01*
X122122Y10793D02*
Y72211D01*
Y10793D02*
X124006Y8909D01*
X132080Y17580D02*
Y68474D01*
X134493Y14030D02*
Y69474D01*
X138750Y-750D02*
Y3926D01*
X130365Y70189D02*
X132080Y68474D01*
X130365Y70189D02*
Y79184D01*
X132779Y71188D02*
X134493Y69474D01*
X108493Y-7994D02*
X114750Y-14250D01*
X135750D01*
X141955Y-8045D01*
Y-5052D01*
X136906Y20344D02*
Y84591D01*
X144368Y-6051D02*
X146538Y-3882D01*
X144368Y-11882D02*
Y-6051D01*
X146538Y-3882D02*
X152382D01*
X138500Y-17750D02*
X144368Y-11882D01*
X51163Y-17750D02*
X138500D01*
X44913Y-11501D02*
X51163Y-17750D01*
X44913Y-11501D02*
Y112087D01*
X136906Y84591D02*
X137712Y85396D01*
X100493Y45256D02*
X114883Y59645D01*
X49163Y-22576D02*
X149911D01*
X164494Y-7994D01*
X139500Y-20163D02*
X147851Y-11811D01*
Y-8636D01*
X148493Y-7994D01*
X152382Y-3882D02*
X156494Y-7994D01*
X50163Y-20163D02*
X139500D01*
X40087Y-13499D02*
X49163Y-22576D01*
X42500Y-12500D02*
X50163Y-20163D01*
X40087Y-13499D02*
Y110088D01*
X42500Y-12500D02*
Y111088D01*
X119709Y11212D02*
Y71212D01*
X104000Y12490D02*
Y44834D01*
X110795Y51629D01*
X110879D01*
X117296Y58046D01*
Y70212D01*
X112465Y71631D02*
Y73785D01*
Y71631D02*
X114883Y69213D01*
X106621Y54796D02*
Y103658D01*
X104208Y55796D02*
Y102659D01*
X101795Y56795D02*
Y101659D01*
X99382Y57795D02*
Y100660D01*
X114883Y59645D02*
Y69213D01*
X77969Y36381D02*
X99382Y57795D01*
X77969Y3119D02*
Y36381D01*
Y3119D02*
X84494Y-3406D01*
Y-7994D02*
Y-3406D01*
X80382Y4118D02*
Y35382D01*
Y4118D02*
X92493Y-7994D01*
Y7997D02*
Y40669D01*
X84494Y7997D02*
Y36081D01*
X147710Y108127D02*
X238074D01*
X148709Y110541D02*
X244709D01*
X185873Y92627D02*
X231377D01*
X172789Y105710D02*
X185873Y92627D01*
X231377D02*
X234000Y95250D01*
X239776D01*
X146714Y105710D02*
X172789D01*
X185600Y88900D02*
X236474D01*
X171203Y103298D02*
X185600Y88900D01*
X145715Y103298D02*
X171203D01*
X154876Y115379D02*
X250634D01*
X160338Y117793D02*
X258439D01*
X238074Y108127D02*
X244447Y101755D01*
X137087Y118750D02*
X147710Y108127D01*
X244709Y110541D02*
X245250Y110000D01*
X139500Y119750D02*
X148709Y110541D01*
X249900Y129321D02*
X257048Y122174D01*
X227365Y129321D02*
X249900D01*
X221007Y122963D02*
X227365Y129321D01*
X256148Y197750D02*
X258750D01*
X266204Y202819D02*
X266763Y202260D01*
X204101Y206387D02*
X268473D01*
X298958Y175902D01*
X200811Y208800D02*
X269472D01*
X295296Y182976D01*
X215287Y211213D02*
X270472D01*
X296296Y185389D01*
X295296Y182976D02*
X301148D01*
X184150Y186436D02*
X204101Y206387D01*
X185699Y206500D02*
X198510D01*
X298958Y175006D02*
Y175902D01*
X253492Y200406D02*
X256148Y197750D01*
X203946Y202819D02*
X266204D01*
X198510Y206500D02*
X200811Y208800D01*
X296296Y185389D02*
X302147D01*
X203123Y223377D02*
X215287Y211213D01*
X193555Y223377D02*
X203123D01*
X204945Y200406D02*
X253492D01*
X186563Y185436D02*
X203946Y202819D01*
X188976Y184437D02*
X204945Y200406D01*
X99750Y294500D02*
Y329500D01*
X250634Y115379D02*
X253746Y112268D01*
X154432Y115824D02*
X154876Y115379D01*
X156130Y122000D02*
X160338Y117793D01*
X258439D02*
X261169Y115062D01*
X261366D01*
X244447Y101755D02*
X244512D01*
X270142Y73892D02*
X272266D01*
X269500Y73250D02*
X270142Y73892D01*
X279464Y81089D02*
Y118804D01*
X266378Y131889D02*
X279464Y118804D01*
X226521Y131889D02*
X266378D01*
X272266Y73892D02*
X279464Y81089D01*
X-5500Y197000D02*
X24745Y166755D01*
X-24500Y197000D02*
X-5500D01*
X127662Y272750D02*
X153080Y247332D01*
X5750Y272750D02*
X127662D01*
X76128Y241877D02*
X85750Y251500D01*
X76128Y208040D02*
Y241877D01*
X72000Y245223D02*
X88527Y261750D01*
X72000Y209750D02*
Y245223D01*
X88527Y261750D02*
X97925D01*
X113298Y246378D01*
X18500Y188367D02*
Y194500D01*
Y188367D02*
X104208Y102659D01*
X17938Y201915D02*
X22627Y197226D01*
Y187652D02*
Y197226D01*
Y187652D02*
X106621Y103658D01*
X24500Y206500D02*
X25041Y205959D01*
Y188651D02*
Y205959D01*
Y188651D02*
X109034Y104658D01*
X29210Y187894D02*
Y209540D01*
X31623Y188894D02*
Y225803D01*
Y188894D02*
X113860Y106657D01*
X14500Y242926D02*
X31623Y225803D01*
X29210Y187894D02*
X111447Y105657D01*
X22432Y216318D02*
X29210Y209540D01*
X22432Y216318D02*
Y224137D01*
X22320Y224250D02*
X22432Y224137D01*
X23772Y306936D02*
Y342728D01*
Y306936D02*
X38862Y291846D01*
X40685Y295910D02*
X46990D01*
X26186Y310410D02*
X40685Y295910D01*
X146967Y157055D02*
X180898D01*
X145967Y159468D02*
X179898D01*
X178899Y161881D02*
X184150Y167132D01*
X144968Y161881D02*
X178899D01*
X91948Y157988D02*
X100488D01*
X104520Y162020D01*
X139500Y119750D02*
Y135069D01*
X121920Y152649D02*
X139500Y135069D01*
X121920Y152649D02*
Y152654D01*
X123444Y144780D02*
Y145288D01*
X119373Y140709D02*
X123444Y144780D01*
X119373Y133053D02*
Y140709D01*
Y133053D02*
X146714Y105710D01*
X98737Y242824D02*
X104394D01*
X80954Y225041D02*
X98737Y242824D01*
X19358Y137642D02*
Y168707D01*
X7725Y180340D02*
X19358Y168707D01*
X3048Y180340D02*
X7725D01*
X257048Y122174D02*
X260096D01*
X220008Y125377D02*
X226521Y131889D01*
X196810Y260823D02*
Y299420D01*
X183320Y247332D02*
X196810Y260823D01*
X153080Y247332D02*
X183320D01*
X199223Y259824D02*
Y298421D01*
X184319Y244919D02*
X199223Y259824D01*
X152080Y244919D02*
X184319D01*
X201637Y258824D02*
Y297421D01*
X185319Y242507D02*
X201637Y258824D01*
X151081Y242507D02*
X185319D01*
X160009Y310643D02*
X187960Y282692D01*
Y257810D02*
Y282692D01*
X147270Y310643D02*
X160009D01*
X132837Y264163D02*
X152080Y244919D01*
X147210Y246378D02*
X151081Y242507D01*
X158500Y307000D02*
X180848Y284652D01*
Y258318D02*
Y284652D01*
X155448Y137922D02*
X156210D01*
X171168Y122963D01*
X221007D01*
X307793Y182935D02*
X323596Y167132D01*
X86360Y371553D02*
Y379984D01*
Y371553D02*
X147270Y310643D01*
X127000Y82550D02*
X130365Y79184D01*
X129413Y83549D02*
X132779Y80184D01*
Y71188D02*
Y80184D01*
X148885Y77221D02*
Y89116D01*
X172974Y215392D02*
X185570D01*
X193555Y223377D01*
X184173Y208026D02*
X185699Y206500D01*
X171958Y208026D02*
X184173D01*
X119704Y74629D02*
X122122Y72211D01*
X117291Y73630D02*
X119709Y71212D01*
X114878Y72630D02*
X117296Y70212D01*
X109034Y77216D02*
X112465Y73785D01*
X111447Y78215D02*
X114878Y74784D01*
X113860Y79215D02*
X117291Y75784D01*
Y73630D02*
Y75784D01*
X111447Y78215D02*
Y105657D01*
X114878Y72630D02*
Y74784D01*
X109034Y77216D02*
Y104658D01*
X116273Y80214D02*
Y107656D01*
Y80214D02*
X119704Y76783D01*
Y74629D02*
Y76783D01*
X137712Y85396D02*
Y96876D01*
X84494Y36081D02*
X104208Y55796D01*
X92493Y40669D02*
X106621Y54796D01*
X80382Y35382D02*
X101795Y56795D01*
X9000Y144587D02*
X42500Y111088D01*
X9000Y144587D02*
Y173250D01*
X-3000Y153175D02*
X40087Y110088D01*
X-3000Y153175D02*
Y171750D01*
X19358Y137642D02*
X44913Y112087D01*
X113860Y79215D02*
Y106657D01*
X12192Y191262D02*
X101795Y101659D01*
X14292Y185750D02*
X99382Y100660D01*
X43942Y179987D02*
X116273Y107656D01*
X11613Y185750D02*
X14292D01*
X11938Y191262D02*
X12192D01*
X127000Y82550D02*
Y100342D01*
X129413Y83549D02*
Y101762D01*
X153416Y68326D02*
Y87997D01*
X148417Y76754D02*
X149007D01*
X-19750Y188500D02*
X-3000Y171750D01*
X7811Y189552D02*
X11613Y185750D01*
X7811Y189552D02*
Y237432D01*
X43942Y179987D02*
Y186436D01*
X51000Y176342D02*
X127000Y100342D01*
X51000Y176342D02*
Y254816D01*
X146959Y157046D02*
X146967Y157055D01*
X145959Y159459D02*
X145967Y159468D01*
X144960Y161873D02*
X144968Y161881D01*
X139541Y157046D02*
X146959D01*
X139394Y157193D02*
X139541Y157046D01*
X111944Y157193D02*
X139394D01*
X140541Y159459D02*
X145959D01*
X140394Y159607D02*
X140541Y159459D01*
X105544Y159607D02*
X140394D01*
X141540Y161873D02*
X144960D01*
X141393Y162020D02*
X141540Y161873D01*
X104520Y162020D02*
X141393D01*
X110000Y155250D02*
X111944Y157193D01*
X180898Y157055D02*
X188976Y165133D01*
X96594Y150656D02*
X105544Y159607D01*
X179898Y159468D02*
X186563Y166133D01*
X184150Y167132D02*
Y186436D01*
X186563Y166133D02*
Y185436D01*
X188976Y165133D02*
Y184437D01*
X67873Y163303D02*
X129413Y101762D01*
X-9587Y264163D02*
X132837D01*
X-15500Y258250D02*
X-9587Y264163D01*
X56000Y249040D02*
X67873Y237168D01*
Y163303D02*
Y237168D01*
X76047Y158541D02*
X137712Y96876D01*
X76047Y158541D02*
Y207959D01*
X76128Y208040D01*
X78460Y159541D02*
X148885Y89116D01*
X78541Y207041D02*
Y228146D01*
X78460Y159541D02*
Y206960D01*
X78541Y207041D01*
Y228146D02*
X100584Y250190D01*
X80872Y160540D02*
X153416Y87997D01*
X80872Y160540D02*
Y205960D01*
X80954Y206041D02*
Y225041D01*
X80872Y205960D02*
X80954Y206041D01*
X115155Y133857D02*
X145715Y103298D01*
X115155Y133857D02*
Y147833D01*
X123500Y137500D02*
X137087Y123913D01*
X14500Y242926D02*
Y243000D01*
X78416Y373325D02*
Y380000D01*
X21250Y345250D02*
X23772Y342728D01*
X21250Y345250D02*
Y390476D01*
X30961Y397500D02*
X31629Y396832D01*
Y348307D02*
Y396832D01*
X26186Y342864D02*
X31629Y348307D01*
X26186Y310410D02*
Y342864D01*
X30961Y413624D02*
X35089Y409497D01*
Y348339D02*
Y409497D01*
X28598Y341849D02*
X35089Y348339D01*
X28598Y311409D02*
Y341849D01*
X21250Y390476D02*
X25750Y394976D01*
Y424538D01*
X30961Y429749D01*
X113298Y246378D02*
X147210D01*
X244393Y320643D02*
X259250Y335500D01*
X221446Y320643D02*
X244393D01*
X234556Y323056D02*
X249250Y337750D01*
X220446Y323056D02*
X234556D01*
X199223Y298421D02*
X221446Y320643D01*
X196810Y299420D02*
X220446Y323056D01*
X220731Y316515D02*
X224761D01*
X201637Y297421D02*
X220731Y316515D01*
X37493Y302515D02*
X42752D01*
X28598Y311409D02*
X37493Y302515D01*
X137087Y118750D02*
Y123913D01*
X148416Y122000D02*
X156130D01*
X146114Y119698D02*
X148416Y122000D01*
X7811Y237432D02*
X8065Y237686D01*
X176884Y125377D02*
X220008D01*
X162560Y139700D02*
X176884Y125377D01*
X78416Y373325D02*
X144741Y307000D01*
X158500D01*
X71250Y358000D02*
Y447500D01*
Y358000D02*
X99750Y329500D01*
X301148Y182976D02*
X315976Y168148D01*
X304601Y182935D02*
X307793D01*
X302147Y185389D02*
X304601Y182935D01*
D101*
X196493Y7997D02*
D03*
X188493D02*
D03*
X180494D02*
D03*
X172493D02*
D03*
X164494D02*
D03*
X124756Y8000D02*
D03*
X108755D02*
D03*
X100493Y7997D02*
D03*
X116494D02*
D03*
X138750Y-750D02*
D03*
X148493Y-7994D02*
D03*
X92493Y7997D02*
D03*
X84494D02*
D03*
X164494Y-7994D02*
D03*
X156494D02*
D03*
X132493D02*
D03*
X108493D02*
D03*
X92493D02*
D03*
X84494D02*
D03*
X269500Y73250D02*
D03*
X3048Y180340D02*
D03*
X-55118Y391668D02*
D03*
X-55626Y347726D02*
D03*
X51500Y67250D02*
D03*
X9000Y173250D02*
D03*
X-19750Y188500D02*
D03*
D102*
X192759Y96755D02*
D03*
X240750Y68500D02*
D03*
X258750Y197750D02*
D03*
X266763Y202260D02*
D03*
X266263Y215511D02*
D03*
X196526Y308796D02*
D03*
X187750Y298000D02*
D03*
X96005Y277264D02*
D03*
X99750Y294500D02*
D03*
X239776Y95250D02*
D03*
X245250Y110000D02*
D03*
X244512Y101755D02*
D03*
X23664Y257694D02*
D03*
X45752Y286264D02*
D03*
X86360Y379984D02*
D03*
X78416Y380000D02*
D03*
X299750Y139000D02*
D03*
X-24500Y197000D02*
D03*
X251012Y167008D02*
D03*
X242012Y166508D02*
D03*
X5750Y272750D02*
D03*
X85750Y251500D02*
D03*
X227261Y175009D02*
D03*
X203750Y316250D02*
D03*
X115250Y353500D02*
D03*
X18500Y194500D02*
D03*
X17938Y201915D02*
D03*
X24500Y206500D02*
D03*
X38862Y291846D02*
D03*
X46990Y295910D02*
D03*
X179832Y66040D02*
D03*
X91948Y157988D02*
D03*
X123444Y145288D02*
D03*
X121920Y152654D02*
D03*
X104394Y242824D02*
D03*
X-18288Y212852D02*
D03*
X-22352Y221234D02*
D03*
X214884Y137922D02*
D03*
X261366Y115062D02*
D03*
X260096Y122174D02*
D03*
X253746Y112268D02*
D03*
X236474Y88900D02*
D03*
X168402Y279400D02*
D03*
X187960Y257810D02*
D03*
X180848Y258318D02*
D03*
X155448Y137922D02*
D03*
X292354Y66548D02*
D03*
X327660Y125206D02*
D03*
X323596Y167132D02*
D03*
X321310Y199390D02*
D03*
X267716Y230124D02*
D03*
X7000Y258000D02*
D03*
X334010Y118856D02*
D03*
Y95250D02*
D03*
X172974Y215392D02*
D03*
X251714Y10094D02*
D03*
X5000Y10000D02*
D03*
X-14500Y40250D02*
D03*
X-9500Y62253D02*
D03*
X153416Y68326D02*
D03*
X160250Y75000D02*
D03*
X149007Y76754D02*
D03*
X2750Y168758D02*
D03*
X-22272Y180700D02*
D03*
X24745Y166755D02*
D03*
X143757Y166008D02*
D03*
X115155Y147833D02*
D03*
X123500Y137500D02*
D03*
X110000Y155250D02*
D03*
X108505Y43502D02*
D03*
X11250Y75004D02*
D03*
X172500Y66500D02*
D03*
X-37502Y125506D02*
D03*
X14500Y243000D02*
D03*
X30961Y397500D02*
D03*
X333250Y73250D02*
D03*
X194220Y239250D02*
D03*
X224761Y316515D02*
D03*
X141500Y322250D02*
D03*
X42752Y302515D02*
D03*
X224761Y237512D02*
D03*
X72000Y209750D02*
D03*
X321000Y441000D02*
D03*
X56000Y249040D02*
D03*
X61000Y255750D02*
D03*
X35000Y245000D02*
D03*
X51000Y254816D02*
D03*
X75000Y255000D02*
D03*
X100584Y250190D02*
D03*
X86500Y224750D02*
D03*
X330750Y406750D02*
D03*
X100000Y178750D02*
D03*
X194220Y159250D02*
D03*
X-34000Y204000D02*
D03*
X-52750Y56250D02*
D03*
X22250Y116750D02*
D03*
X178250Y80000D02*
D03*
X173500Y92750D02*
D03*
X146812Y136144D02*
D03*
X163750Y194500D02*
D03*
X106750Y433250D02*
D03*
X162250Y354500D02*
D03*
X173000Y395000D02*
D03*
X172750Y441250D02*
D03*
X259000Y138250D02*
D03*
X264500Y222750D02*
D03*
X273250Y157250D02*
D03*
X285000Y144000D02*
D03*
X294250Y57000D02*
D03*
X332500Y132250D02*
D03*
X332750Y156250D02*
D03*
X333250Y184000D02*
D03*
X332750Y212250D02*
D03*
X333250Y235500D02*
D03*
X331750Y253750D02*
D03*
X283250Y282250D02*
D03*
X240750Y264500D02*
D03*
X210750Y340500D02*
D03*
X208000Y410250D02*
D03*
X214500Y358750D02*
D03*
X255750Y346250D02*
D03*
X286000Y351250D02*
D03*
X333500Y366500D02*
D03*
X331750Y421750D02*
D03*
X278000Y412750D02*
D03*
X288000Y459000D02*
D03*
X143500Y459250D02*
D03*
X105000Y458500D02*
D03*
X85000Y473500D02*
D03*
X98500Y236000D02*
D03*
X150250Y231250D02*
D03*
X129750Y208750D02*
D03*
X41500Y212250D02*
D03*
X15000Y230000D02*
D03*
X-35000Y260000D02*
D03*
X-5000Y290000D02*
D03*
X65000Y345000D02*
D03*
X15000Y360000D02*
D03*
X11750Y386500D02*
D03*
X-10000Y355000D02*
D03*
X-30000Y330000D02*
D03*
X-75000Y355000D02*
D03*
Y290000D02*
D03*
Y220000D02*
D03*
Y115000D02*
D03*
Y130000D02*
D03*
Y95000D02*
D03*
X65000Y115000D02*
D03*
X-75750Y171000D02*
D03*
X-24250Y138250D02*
D03*
X-69250Y160760D02*
D03*
X-58250Y90750D02*
D03*
X-44407Y64762D02*
D03*
X-70000Y80750D02*
D03*
X217000Y62250D02*
D03*
X225250Y38250D02*
D03*
X192500Y43250D02*
D03*
X329500Y380896D02*
D03*
X307500D02*
D03*
X241500Y311500D02*
D03*
X59395Y470298D02*
D03*
X30961Y413624D02*
D03*
X71250Y447500D02*
D03*
X82000Y321000D02*
D03*
X88250Y327250D02*
D03*
X93500Y351000D02*
D03*
X208750Y323000D02*
D03*
X140500Y337750D02*
D03*
X81000Y398500D02*
D03*
X96594Y150656D02*
D03*
X116250Y199750D02*
D03*
X85000Y164750D02*
D03*
X249250Y337750D02*
D03*
X259250Y335500D02*
D03*
X-15500Y258250D02*
D03*
X-26750Y317875D02*
D03*
Y305875D02*
D03*
X-4750Y311875D02*
D03*
X60500Y329500D02*
D03*
X8000Y330250D02*
D03*
X118027Y345973D02*
D03*
X179508Y361938D02*
D03*
Y458258D02*
D03*
X8065Y237686D02*
D03*
X30961Y429749D02*
D03*
Y421626D02*
D03*
Y437751D02*
D03*
X162560Y139700D02*
D03*
X146050Y119634D02*
D03*
X154432Y115824D02*
D03*
X298958Y175006D02*
D03*
X315976Y168148D02*
D03*
X171958Y208026D02*
D03*
X14986Y93980D02*
D03*
X308102Y208026D02*
D03*
X186460Y196918D02*
D03*
X-45926Y173022D02*
D03*
X-44830Y278764D02*
D03*
X-44354Y153590D02*
D03*
Y165942D02*
D03*
X43942Y186436D02*
D03*
X22320Y224250D02*
D03*
X11938Y191262D02*
D03*
X308864Y169418D02*
D03*
X313944Y197104D02*
D03*
X258826Y167132D02*
D03*
X291750Y82500D02*
D03*
X302450Y82250D02*
D03*
X302250Y97300D02*
D03*
X313250Y82250D02*
D03*
X328500Y89750D02*
D03*
X312000Y139000D02*
D03*
X320250Y280750D02*
D03*
X293250Y283250D02*
D03*
X306250Y278500D02*
D03*
X328750Y286500D02*
D03*
X298750Y317000D02*
D03*
X333750Y325500D02*
D03*
X327250Y316000D02*
D03*
X321250Y452750D02*
D03*
X298500Y437000D02*
D03*
X298250Y453000D02*
D03*
X305250Y409500D02*
D03*
X-23000Y230500D02*
D03*
X321500Y248250D02*
D03*
Y260250D02*
D03*
X274000Y241000D02*
D03*
X225000Y68000D02*
D03*
X232812Y57312D02*
D03*
X223000Y46000D02*
D03*
X201000Y40000D02*
D03*
Y52000D02*
D03*
X215280Y234250D02*
D03*
X2254Y93560D02*
D03*
D104*
X137380Y389270D02*
D03*
Y399270D02*
D03*
Y409270D02*
D03*
Y379270D02*
D03*
Y369270D02*
D03*
X127380Y389270D02*
D03*
Y399270D02*
D03*
Y409270D02*
D03*
Y379270D02*
D03*
Y369270D02*
D03*
X97380Y389270D02*
D03*
Y399270D02*
D03*
Y409270D02*
D03*
Y379270D02*
D03*
Y369270D02*
D03*
X107380Y389270D02*
D03*
Y399270D02*
D03*
Y409270D02*
D03*
Y379270D02*
D03*
Y369270D02*
D03*
X117380D02*
D03*
Y379270D02*
D03*
Y409270D02*
D03*
Y399270D02*
D03*
Y389270D02*
D03*
D105*
X215739Y215511D02*
X266263D01*
X197871Y233379D02*
X215739Y215511D01*
X161629Y233379D02*
X197871D01*
X153000Y224750D02*
X161629Y233379D01*
X86500Y224750D02*
X153000D01*
M02*
