G04*
G04 #@! TF.GenerationSoftware,Altium Limited,Altium Designer,19.1.7 (138)*
G04*
G04 Layer_Color=128*
%FSLAX44Y44*%
%MOMM*%
G71*
G01*
G75*
%ADD16R,0.6000X0.5000*%
%ADD17R,0.9500X0.8000*%
%ADD20R,1.4000X0.9500*%
%ADD21R,0.9500X1.4000*%
%ADD22R,0.5000X0.6000*%
%ADD109R,0.5000X2.0000*%
%ADD110R,0.8000X0.9500*%
%ADD111R,0.3810X0.2000*%
G36*
X-38677Y115659D02*
X-43379D01*
Y118161D01*
X-38677D01*
Y115659D01*
D02*
G37*
G36*
X-46077D02*
X-50779D01*
Y118161D01*
X-46077D01*
Y115659D01*
D02*
G37*
G36*
X-38677Y110659D02*
X-43379D01*
Y113161D01*
X-38677D01*
Y110659D01*
D02*
G37*
G36*
X-46077D02*
X-50779D01*
Y113161D01*
X-46077D01*
Y110659D01*
D02*
G37*
G36*
X-38677Y105659D02*
X-43379D01*
Y108161D01*
X-38677D01*
Y105659D01*
D02*
G37*
G36*
X-45777D02*
X-50779D01*
Y108161D01*
X-45777D01*
Y105659D01*
D02*
G37*
D16*
X24000Y440000D02*
D03*
Y430000D02*
D03*
Y407000D02*
D03*
Y397000D02*
D03*
X38000Y423000D02*
D03*
Y413000D02*
D03*
X-64770Y356536D02*
D03*
Y346536D02*
D03*
X274860Y178228D02*
D03*
Y168228D02*
D03*
X112500Y125000D02*
D03*
Y115000D02*
D03*
X51054Y91106D02*
D03*
Y81106D02*
D03*
X253532Y87710D02*
D03*
Y97710D02*
D03*
X264672Y98886D02*
D03*
Y108886D02*
D03*
X155270Y108598D02*
D03*
Y98598D02*
D03*
X144270Y108598D02*
D03*
Y98598D02*
D03*
X61956Y91106D02*
D03*
Y81106D02*
D03*
X72858Y91106D02*
D03*
Y81106D02*
D03*
X83760Y91106D02*
D03*
Y81106D02*
D03*
X94662Y91106D02*
D03*
Y81106D02*
D03*
X274000Y224500D02*
D03*
Y214500D02*
D03*
X245750Y245000D02*
D03*
Y235000D02*
D03*
X295667Y224500D02*
D03*
Y214500D02*
D03*
X306500Y224750D02*
D03*
Y214750D02*
D03*
X257000Y235000D02*
D03*
Y245000D02*
D03*
X284833Y224500D02*
D03*
Y214500D02*
D03*
X242750Y374500D02*
D03*
Y364500D02*
D03*
X277000Y374500D02*
D03*
Y364500D02*
D03*
X319750Y345000D02*
D03*
Y355000D02*
D03*
X308250Y345000D02*
D03*
Y355000D02*
D03*
X119277Y339750D02*
D03*
Y329750D02*
D03*
X118027Y304473D02*
D03*
Y314473D02*
D03*
X154250Y341250D02*
D03*
Y331250D02*
D03*
X176750Y341250D02*
D03*
Y331250D02*
D03*
X166000Y331250D02*
D03*
Y341250D02*
D03*
X285484Y66722D02*
D03*
Y56722D02*
D03*
X274574Y66722D02*
D03*
Y56722D02*
D03*
X21000Y73500D02*
D03*
Y83500D02*
D03*
X132750Y273500D02*
D03*
Y263500D02*
D03*
X143500Y261750D02*
D03*
Y251750D02*
D03*
X154500Y252250D02*
D03*
Y242250D02*
D03*
X170750Y297000D02*
D03*
Y287000D02*
D03*
X32750Y73500D02*
D03*
Y83500D02*
D03*
X286512Y188642D02*
D03*
Y178642D02*
D03*
X270000Y318750D02*
D03*
Y328750D02*
D03*
X281000Y318750D02*
D03*
Y328750D02*
D03*
X258500Y318750D02*
D03*
Y328750D02*
D03*
X247250Y318750D02*
D03*
Y328750D02*
D03*
X254167Y374500D02*
D03*
Y364500D02*
D03*
X265583Y374500D02*
D03*
Y364500D02*
D03*
X201750Y106000D02*
D03*
Y96000D02*
D03*
X-4604Y170286D02*
D03*
Y160286D02*
D03*
X-4604Y101862D02*
D03*
Y91862D02*
D03*
X-15494Y180700D02*
D03*
Y170700D02*
D03*
X223250Y135500D02*
D03*
Y125500D02*
D03*
X95734Y262648D02*
D03*
Y272648D02*
D03*
X8866Y84086D02*
D03*
Y94086D02*
D03*
X9628Y156730D02*
D03*
Y166730D02*
D03*
X14712Y272140D02*
D03*
Y262140D02*
D03*
X160500Y263500D02*
D03*
Y273500D02*
D03*
X104000Y66000D02*
D03*
Y56000D02*
D03*
X268000Y238750D02*
D03*
Y248750D02*
D03*
D17*
X320501Y288750D02*
D03*
X320499Y303750D02*
D03*
X305751Y288750D02*
D03*
X305749Y303750D02*
D03*
D20*
X316000Y90250D02*
D03*
Y108750D02*
D03*
X104000Y351000D02*
D03*
Y332500D02*
D03*
D21*
X191250Y148500D02*
D03*
X209750D02*
D03*
X317844Y186182D02*
D03*
X299344D02*
D03*
D22*
X-24816Y156154D02*
D03*
X-14816D02*
D03*
X-35706Y170366D02*
D03*
X-25706D02*
D03*
X230500Y145750D02*
D03*
X240500D02*
D03*
X-33966Y132484D02*
D03*
X-43966D02*
D03*
X179404Y217424D02*
D03*
X189404D02*
D03*
X179404Y206526D02*
D03*
X189404D02*
D03*
X67250Y124000D02*
D03*
X57250D02*
D03*
X275384Y100116D02*
D03*
X285384D02*
D03*
X275384Y78820D02*
D03*
X285384D02*
D03*
X310562Y157964D02*
D03*
X300562D02*
D03*
X310562Y147066D02*
D03*
X300562D02*
D03*
X285384Y110764D02*
D03*
X275384D02*
D03*
X285384Y89468D02*
D03*
X275384D02*
D03*
X290750Y121500D02*
D03*
X280750D02*
D03*
X290750Y132250D02*
D03*
X280750D02*
D03*
X277250Y270000D02*
D03*
X267250D02*
D03*
X277250Y259000D02*
D03*
X267250D02*
D03*
X291750Y258500D02*
D03*
X301750D02*
D03*
X300750Y243250D02*
D03*
X310750D02*
D03*
X74000Y398250D02*
D03*
X64000D02*
D03*
X41000Y398000D02*
D03*
X51000D02*
D03*
X62790Y373980D02*
D03*
X72790D02*
D03*
X62790Y386020D02*
D03*
X72790D02*
D03*
X73000Y458250D02*
D03*
X63000D02*
D03*
X57250Y135000D02*
D03*
X67250D02*
D03*
X57250Y146000D02*
D03*
X67250D02*
D03*
X310500Y121500D02*
D03*
X300500D02*
D03*
X310500Y132250D02*
D03*
X300500D02*
D03*
X328500Y271500D02*
D03*
X318500D02*
D03*
X318500Y334250D02*
D03*
X328500D02*
D03*
X308750D02*
D03*
X298750D02*
D03*
X183284Y72830D02*
D03*
X173284D02*
D03*
X198938Y128202D02*
D03*
X208938D02*
D03*
X200750Y227750D02*
D03*
X210750D02*
D03*
X208938Y165540D02*
D03*
X198938D02*
D03*
X35000Y265000D02*
D03*
X25000D02*
D03*
X61250Y60000D02*
D03*
X51250D02*
D03*
X-1853Y211987D02*
D03*
X-11853D02*
D03*
X-34354Y159766D02*
D03*
X-44354D02*
D03*
X321500Y254250D02*
D03*
X311500D02*
D03*
X318500Y323000D02*
D03*
X328500D02*
D03*
X308750D02*
D03*
X298750D02*
D03*
X98250Y319750D02*
D03*
X88250D02*
D03*
D109*
X196493Y22002D02*
D03*
X204494D02*
D03*
X196493Y-21998D02*
D03*
X204494D02*
D03*
X180494Y22002D02*
D03*
Y-21998D02*
D03*
X156494Y22002D02*
D03*
X164494D02*
D03*
X156494Y-21998D02*
D03*
X164494D02*
D03*
X132493Y22002D02*
D03*
X140493D02*
D03*
X132493Y-21998D02*
D03*
X140493D02*
D03*
X116494Y22002D02*
D03*
X124494D02*
D03*
X116494Y-21998D02*
D03*
X124494D02*
D03*
X92493Y22002D02*
D03*
X100493D02*
D03*
X92493Y-21998D02*
D03*
X100493D02*
D03*
X76494Y22002D02*
D03*
Y-21998D02*
D03*
X52494Y22002D02*
D03*
X60493D02*
D03*
X52494Y-21998D02*
D03*
X60493D02*
D03*
X148493Y22002D02*
D03*
X172493D02*
D03*
X188493D02*
D03*
X148493Y-21998D02*
D03*
X172493D02*
D03*
X188493D02*
D03*
X68493Y22002D02*
D03*
X84494D02*
D03*
X108493D02*
D03*
X68493Y-21998D02*
D03*
X84494D02*
D03*
X108493D02*
D03*
D110*
X174000Y57499D02*
D03*
X189000Y57501D02*
D03*
X49500Y277501D02*
D03*
X34500Y277499D02*
D03*
X-5000Y79501D02*
D03*
X-20000Y79499D02*
D03*
X-16250Y228499D02*
D03*
X-1250Y228501D02*
D03*
D111*
X-41728Y106910D02*
D03*
Y111910D02*
D03*
Y116910D02*
D03*
X-47728D02*
D03*
Y111910D02*
D03*
Y106910D02*
D03*
M02*
