G04*
G04 #@! TF.GenerationSoftware,Altium Limited,Altium Designer,19.1.7 (138)*
G04*
G04 Layer_Color=8421504*
%FSLAX44Y44*%
%MOMM*%
G71*
G01*
G75*
%ADD16R,0.6000X0.5000*%
%ADD17R,0.9500X0.8000*%
%ADD18R,1.4000X2.0000*%
%ADD19R,1.5000X1.1000*%
%ADD20R,1.4000X0.9500*%
%ADD21R,0.9500X1.4000*%
%ADD22R,0.5000X0.6000*%
%ADD23R,1.0000X1.2000*%
%ADD24R,1.1000X1.7700*%
%ADD25R,0.6096X0.3810*%
%ADD26R,0.6096X0.3700*%
%ADD27R,0.3992X0.2492*%
%ADD28R,0.2492X0.3992*%
%ADD29R,0.3140X0.2890*%
%ADD30R,0.2890X0.3140*%
%ADD31C,0.4000*%
%ADD32R,1.8800X0.8130*%
%ADD33R,0.8130X1.8800*%
%ADD34R,4.4000X4.4000*%
%ADD35R,0.3000X1.3500*%
%ADD36R,1.3500X0.3000*%
%ADD37R,1.3000X1.1000*%
%ADD38R,1.8034X1.9050*%
%ADD39R,2.1082X1.6002*%
%ADD40R,1.3462X0.3500*%
%ADD41R,1.0414X2.2098*%
%ADD42R,0.9906X1.0414*%
G36*
X238000Y284500D02*
X245000D01*
Y298500D01*
X244000D01*
Y307500D01*
X239000D01*
Y298500D01*
X238000D01*
Y284500D01*
D02*
G37*
G36*
X248500D02*
X256500D01*
Y298500D01*
X255500D01*
Y307500D01*
X249500D01*
Y298500D01*
X248500D01*
Y284500D01*
D02*
G37*
G36*
X259500D02*
X267500D01*
Y298500D01*
X266500D01*
Y307500D01*
X260500D01*
Y298500D01*
X259500D01*
Y284500D01*
D02*
G37*
G36*
X270500D02*
X278500D01*
Y298500D01*
X277500D01*
Y307500D01*
X271500D01*
Y298500D01*
X270500D01*
Y284500D01*
D02*
G37*
G36*
X281500D02*
X289500D01*
Y298500D01*
X288500D01*
Y307500D01*
X282500D01*
Y298500D01*
X281500D01*
Y284500D01*
D02*
G37*
G36*
X292500D02*
X300500D01*
Y298500D01*
X299500D01*
Y307500D01*
X293500D01*
Y298500D01*
X292500D01*
Y284500D01*
D02*
G37*
G36*
X303500D02*
X311500D01*
Y298500D01*
X310500D01*
Y307500D01*
X304500D01*
Y298500D01*
X303500D01*
Y284500D01*
D02*
G37*
G36*
X326000D02*
X333000D01*
Y298500D01*
X332000D01*
Y307500D01*
X327000D01*
Y298500D01*
X326000D01*
Y284500D01*
D02*
G37*
G36*
X314500D02*
X322500D01*
Y298500D01*
X321500D01*
Y307500D01*
X315500D01*
Y298500D01*
X314500D01*
Y284500D01*
D02*
G37*
G36*
X245000Y409500D02*
X238000D01*
Y395500D01*
X239000D01*
Y386500D01*
X244000D01*
Y395500D01*
X245000D01*
Y409500D01*
D02*
G37*
G36*
X256500D02*
X248500D01*
Y395500D01*
X249500D01*
Y386500D01*
X255500D01*
Y395500D01*
X256500D01*
Y409500D01*
D02*
G37*
G36*
X267500D02*
X259500D01*
Y395500D01*
X260500D01*
Y386500D01*
X266500D01*
Y395500D01*
X267500D01*
Y409500D01*
D02*
G37*
G36*
X278500D02*
X270500D01*
Y395500D01*
X271500D01*
Y386500D01*
X277500D01*
Y395500D01*
X278500D01*
Y409500D01*
D02*
G37*
G36*
X289500D02*
X281500D01*
Y395500D01*
X282500D01*
Y386500D01*
X288500D01*
Y395500D01*
X289500D01*
Y409500D01*
D02*
G37*
G36*
X300500D02*
X292500D01*
Y395500D01*
X293500D01*
Y386500D01*
X299500D01*
Y395500D01*
X300500D01*
Y409500D01*
D02*
G37*
G36*
X311500D02*
X303500D01*
Y395500D01*
X304500D01*
Y386500D01*
X310500D01*
Y395500D01*
X311500D01*
Y409500D01*
D02*
G37*
G36*
X322500D02*
X314500D01*
Y395500D01*
X315500D01*
Y386500D01*
X321500D01*
Y395500D01*
X322500D01*
Y409500D01*
D02*
G37*
G36*
X333000D02*
X326000D01*
Y395500D01*
X327000D01*
Y386500D01*
X332000D01*
Y395500D01*
X333000D01*
Y409500D01*
D02*
G37*
D16*
X-35330Y279480D02*
D03*
Y289480D02*
D03*
X3250Y440250D02*
D03*
Y430250D02*
D03*
X-18500Y440250D02*
D03*
Y430250D02*
D03*
X-7625Y440250D02*
D03*
Y430250D02*
D03*
X-75692Y179658D02*
D03*
Y189658D02*
D03*
X-41426Y179658D02*
D03*
Y189658D02*
D03*
X-64270Y189658D02*
D03*
Y179658D02*
D03*
X-52848Y189658D02*
D03*
Y179658D02*
D03*
X288000Y424750D02*
D03*
Y414750D02*
D03*
X217000Y422500D02*
D03*
Y412500D02*
D03*
X3750Y336750D02*
D03*
Y346750D02*
D03*
X220250Y251750D02*
D03*
Y241750D02*
D03*
X224250Y216500D02*
D03*
Y206500D02*
D03*
Y186500D02*
D03*
Y196500D02*
D03*
X305750Y129000D02*
D03*
Y139000D02*
D03*
X299270Y414730D02*
D03*
Y424730D02*
D03*
X28750Y339000D02*
D03*
Y329000D02*
D03*
X-30750Y180000D02*
D03*
Y190000D02*
D03*
D17*
X16249Y330250D02*
D03*
X16251Y345250D02*
D03*
D18*
X212000Y46000D02*
D03*
X248000D02*
D03*
X-15750Y311500D02*
D03*
X20250D02*
D03*
D19*
X19750Y471000D02*
D03*
X-10250D02*
D03*
Y456000D02*
D03*
X19750D02*
D03*
D20*
X255918Y174790D02*
D03*
Y156290D02*
D03*
X237146Y174790D02*
D03*
Y156290D02*
D03*
D21*
X232750Y68000D02*
D03*
X251250D02*
D03*
D22*
X238426Y113014D02*
D03*
X228426D02*
D03*
X238252Y102366D02*
D03*
X228252D02*
D03*
X229000Y82750D02*
D03*
X219000D02*
D03*
X20250Y293750D02*
D03*
X10250D02*
D03*
X133132Y289492D02*
D03*
X143132D02*
D03*
X219860Y350198D02*
D03*
X209860D02*
D03*
X210000Y332000D02*
D03*
X220000D02*
D03*
X182318Y289750D02*
D03*
X172318D02*
D03*
X14000Y36750D02*
D03*
X24000D02*
D03*
X3500Y41500D02*
D03*
X-6500D02*
D03*
X-20488Y108524D02*
D03*
X-30488D02*
D03*
X-20488Y119524D02*
D03*
X-30488D02*
D03*
X221000Y262250D02*
D03*
X211000D02*
D03*
X310250Y416500D02*
D03*
X320250D02*
D03*
X298276Y202438D02*
D03*
X308276D02*
D03*
X328500Y96000D02*
D03*
X318500D02*
D03*
X318500Y118750D02*
D03*
X328500D02*
D03*
X318500Y108000D02*
D03*
X328500D02*
D03*
X217828Y308796D02*
D03*
X207828D02*
D03*
X221250Y228000D02*
D03*
X231250D02*
D03*
D23*
X237500Y207250D02*
D03*
Y190250D02*
D03*
X250500D02*
D03*
Y207250D02*
D03*
X-68246Y334764D02*
D03*
X-51246D02*
D03*
X-68246Y278764D02*
D03*
X-51246D02*
D03*
X-68246Y259580D02*
D03*
X-51246D02*
D03*
X-68246Y203580D02*
D03*
X-51246D02*
D03*
D24*
X246250Y137600D02*
D03*
X228550D02*
D03*
D25*
X14039Y401500D02*
D03*
Y417625D02*
D03*
Y433750D02*
D03*
D26*
X24961Y405500D02*
D03*
Y397500D02*
D03*
Y421626D02*
D03*
Y413624D02*
D03*
Y437751D02*
D03*
Y429749D02*
D03*
D27*
X308000Y118800D02*
D03*
Y114500D02*
D03*
Y110200D02*
D03*
Y105900D02*
D03*
Y101600D02*
D03*
Y97300D02*
D03*
Y93000D02*
D03*
Y88700D02*
D03*
X284000D02*
D03*
Y93000D02*
D03*
Y97300D02*
D03*
Y101600D02*
D03*
Y105900D02*
D03*
Y110200D02*
D03*
Y114500D02*
D03*
Y118800D02*
D03*
D28*
X302450Y89250D02*
D03*
X298150D02*
D03*
X293850D02*
D03*
X289550D02*
D03*
Y118250D02*
D03*
X293850D02*
D03*
X298150D02*
D03*
X302450D02*
D03*
D29*
X305816Y186142D02*
D03*
Y181142D02*
D03*
X322072D02*
D03*
Y186142D02*
D03*
D30*
X308944Y175514D02*
D03*
X313944D02*
D03*
X318944D02*
D03*
Y191770D02*
D03*
X313944D02*
D03*
X308944D02*
D03*
D31*
X309000Y266000D02*
D03*
Y256000D02*
D03*
Y246000D02*
D03*
Y236000D02*
D03*
Y226000D02*
D03*
X299000Y266000D02*
D03*
Y256000D02*
D03*
Y246000D02*
D03*
Y236000D02*
D03*
Y226000D02*
D03*
X289000Y266000D02*
D03*
Y256000D02*
D03*
Y246000D02*
D03*
Y236000D02*
D03*
Y226000D02*
D03*
X279000Y266000D02*
D03*
Y256000D02*
D03*
Y246000D02*
D03*
Y236000D02*
D03*
Y226000D02*
D03*
X269000Y266000D02*
D03*
Y256000D02*
D03*
Y246000D02*
D03*
Y236000D02*
D03*
D32*
X45792Y470298D02*
D03*
Y458258D02*
D03*
Y446218D02*
D03*
Y434178D02*
D03*
Y422138D02*
D03*
Y410098D02*
D03*
Y398058D02*
D03*
Y386018D02*
D03*
Y373978D02*
D03*
Y361938D02*
D03*
Y349898D02*
D03*
Y337858D02*
D03*
Y325818D02*
D03*
X193112D02*
D03*
Y337858D02*
D03*
Y349898D02*
D03*
Y361938D02*
D03*
Y373978D02*
D03*
Y386018D02*
D03*
Y398058D02*
D03*
Y410098D02*
D03*
Y422138D02*
D03*
Y434178D02*
D03*
Y446218D02*
D03*
Y458258D02*
D03*
D33*
X57827Y307428D02*
D03*
X69867D02*
D03*
X81907D02*
D03*
X93947D02*
D03*
X105987D02*
D03*
X118027D02*
D03*
X130067D02*
D03*
X142107D02*
D03*
X154147D02*
D03*
X166187D02*
D03*
X178227D02*
D03*
D34*
X117380Y389270D02*
D03*
D35*
X181000Y268000D02*
D03*
X186000D02*
D03*
X116000D02*
D03*
X121000D02*
D03*
X126000D02*
D03*
X176000D02*
D03*
X171000D02*
D03*
X166000D02*
D03*
X161000D02*
D03*
X156000D02*
D03*
X151000D02*
D03*
X146000D02*
D03*
X141000D02*
D03*
X136000D02*
D03*
X131000D02*
D03*
X111000D02*
D03*
X106000D02*
D03*
X101000D02*
D03*
X96000D02*
D03*
X91000D02*
D03*
X86000D02*
D03*
X81000D02*
D03*
X76000D02*
D03*
X71000D02*
D03*
X66000D02*
D03*
X61000D02*
D03*
X56000D02*
D03*
X51000D02*
D03*
X46000D02*
D03*
X41000D02*
D03*
X36000D02*
D03*
X31000D02*
D03*
X26000D02*
D03*
X21000D02*
D03*
X16000D02*
D03*
X11000D02*
D03*
X11000Y55500D02*
D03*
X16000D02*
D03*
X21000D02*
D03*
X26000D02*
D03*
X31000D02*
D03*
X36000D02*
D03*
X41000D02*
D03*
X46000D02*
D03*
X51000D02*
D03*
X56000D02*
D03*
X61000D02*
D03*
X66000D02*
D03*
X71000D02*
D03*
X76000D02*
D03*
X81000D02*
D03*
X86000D02*
D03*
X91000D02*
D03*
X96000D02*
D03*
X101000D02*
D03*
X106000D02*
D03*
X111000D02*
D03*
X116000D02*
D03*
X121000D02*
D03*
X126000D02*
D03*
X131000D02*
D03*
X136000D02*
D03*
X141000D02*
D03*
X146000D02*
D03*
X151000D02*
D03*
X156000D02*
D03*
X161000D02*
D03*
X166000D02*
D03*
X171000D02*
D03*
X176000D02*
D03*
X181000D02*
D03*
X186000D02*
D03*
D36*
X204750Y74250D02*
D03*
Y79250D02*
D03*
Y84250D02*
D03*
Y89250D02*
D03*
Y94250D02*
D03*
Y99250D02*
D03*
Y104250D02*
D03*
Y109250D02*
D03*
Y114250D02*
D03*
Y119250D02*
D03*
Y124250D02*
D03*
Y129250D02*
D03*
Y134250D02*
D03*
Y139250D02*
D03*
Y144250D02*
D03*
Y149250D02*
D03*
Y154250D02*
D03*
Y159250D02*
D03*
Y164250D02*
D03*
Y169250D02*
D03*
Y174250D02*
D03*
Y179250D02*
D03*
Y184250D02*
D03*
Y189250D02*
D03*
Y194250D02*
D03*
Y199250D02*
D03*
Y204250D02*
D03*
Y209250D02*
D03*
Y214250D02*
D03*
Y219250D02*
D03*
Y224250D02*
D03*
Y229250D02*
D03*
Y234250D02*
D03*
Y239250D02*
D03*
Y244250D02*
D03*
Y249250D02*
D03*
X-7750D02*
D03*
Y244250D02*
D03*
Y239250D02*
D03*
Y234250D02*
D03*
Y229250D02*
D03*
Y224250D02*
D03*
Y219250D02*
D03*
Y214250D02*
D03*
Y209250D02*
D03*
Y204250D02*
D03*
Y199250D02*
D03*
Y194250D02*
D03*
Y189250D02*
D03*
Y184250D02*
D03*
Y179250D02*
D03*
Y174250D02*
D03*
Y169250D02*
D03*
Y164250D02*
D03*
Y159250D02*
D03*
Y154250D02*
D03*
Y149250D02*
D03*
Y144250D02*
D03*
Y139250D02*
D03*
Y134250D02*
D03*
Y129250D02*
D03*
Y124250D02*
D03*
Y119250D02*
D03*
Y114250D02*
D03*
Y109250D02*
D03*
Y104250D02*
D03*
Y99250D02*
D03*
Y94250D02*
D03*
Y89250D02*
D03*
Y84250D02*
D03*
Y79250D02*
D03*
Y74250D02*
D03*
D37*
X220796Y294996D02*
D03*
X197796D02*
D03*
Y275996D02*
D03*
X220796D02*
D03*
D38*
X-70182Y66745D02*
D03*
Y146755D02*
D03*
D39*
X-44782Y75762D02*
D03*
Y137738D02*
D03*
D40*
X-43512Y93750D02*
D03*
Y100250D02*
D03*
Y106750D02*
D03*
Y113250D02*
D03*
Y119750D02*
D03*
D41*
X307025Y445006D02*
D03*
X329975D02*
D03*
D42*
X318500Y429756D02*
D03*
M02*
