G04*
G04 #@! TF.GenerationSoftware,Altium Limited,Altium Designer,19.1.7 (138)*
G04*
G04 Layer_Color=8388736*
%FSLAX44Y44*%
%MOMM*%
G71*
G01*
G75*
%ADD41R,1.0414X2.2098*%
%ADD43R,1.4000X0.1500*%
%ADD44R,2.0828X2.0828*%
%ADD45R,6.0000X1.1000*%
%ADD46R,0.7000X0.6000*%
%ADD47C,0.6000*%
%ADD48R,1.0500X0.9000*%
%ADD49R,1.5000X2.1000*%
%ADD50R,1.6000X1.2000*%
%ADD51R,1.5000X1.0500*%
%ADD52R,1.0500X1.5000*%
%ADD53C,1.1000*%
%ADD54R,0.6000X0.7000*%
%ADD55R,1.1000X1.3000*%
%ADD56R,1.2000X1.8700*%
%ADD57R,0.7096X0.4810*%
%ADD58R,0.7096X0.4700*%
%ADD59R,0.8000X1.9000*%
%ADD60R,0.9000X1.9000*%
%ADD61R,0.6500X0.5000*%
%ADD62R,0.5000X0.6500*%
%ADD63R,0.4750X0.4500*%
%ADD64R,0.4500X0.4750*%
%ADD65C,0.5000*%
%ADD66R,1.9800X0.9130*%
%ADD67R,0.9130X1.9800*%
%ADD68R,4.5000X4.5000*%
%ADD69R,0.3500X1.4000*%
%ADD70R,1.4000X0.3500*%
%ADD71R,1.4000X1.2000*%
%ADD72C,0.9382*%
%ADD73R,1.9034X2.0050*%
%ADD74R,2.2082X1.7002*%
%ADD75R,1.4462X0.4500*%
%ADD76R,1.0906X1.1414*%
%ADD77C,5.1000*%
%ADD78C,0.6080*%
D41*
X307025Y445006D02*
D03*
X329975D02*
D03*
D43*
X318500Y434750D02*
D03*
D44*
X313944Y183642D02*
D03*
D45*
X126000Y447500D02*
D03*
D46*
X-35330Y279480D02*
D03*
Y289480D02*
D03*
X3250Y440250D02*
D03*
Y430250D02*
D03*
X-18500Y440250D02*
D03*
Y430250D02*
D03*
X-7625Y440250D02*
D03*
Y430250D02*
D03*
X-75692Y179658D02*
D03*
Y189658D02*
D03*
X-41426Y179658D02*
D03*
Y189658D02*
D03*
X-64270Y189658D02*
D03*
Y179658D02*
D03*
X-52848Y189658D02*
D03*
Y179658D02*
D03*
X288000Y424750D02*
D03*
Y414750D02*
D03*
X217000Y422500D02*
D03*
Y412500D02*
D03*
X3750Y336750D02*
D03*
Y346750D02*
D03*
X220250Y251750D02*
D03*
Y241750D02*
D03*
X224250Y216500D02*
D03*
Y206500D02*
D03*
Y186500D02*
D03*
Y196500D02*
D03*
X305750Y129000D02*
D03*
Y139000D02*
D03*
X299270Y414730D02*
D03*
Y424730D02*
D03*
X28750Y339000D02*
D03*
Y329000D02*
D03*
X-30750Y180000D02*
D03*
Y190000D02*
D03*
D47*
X220250Y93500D02*
D03*
X231500Y252250D02*
D03*
X218488Y106326D02*
D03*
X252730Y82804D02*
D03*
X122750Y291000D02*
D03*
X86000Y290500D02*
D03*
X75250D02*
D03*
X229494Y2D02*
D03*
X27494D02*
D03*
X-73496Y306764D02*
D03*
X-45996D02*
D03*
X-73496Y231580D02*
D03*
X-45996D02*
D03*
X-39910Y408364D02*
D03*
X-29750Y357564D02*
D03*
X-50070D02*
D03*
D48*
X16249Y330250D02*
D03*
X16251Y345250D02*
D03*
D49*
X212000Y46000D02*
D03*
X248000D02*
D03*
X-15750Y311500D02*
D03*
X20250D02*
D03*
D50*
X19750Y471000D02*
D03*
X-10250D02*
D03*
Y456000D02*
D03*
X19750D02*
D03*
D51*
X255918Y174790D02*
D03*
Y156290D02*
D03*
X237146Y174790D02*
D03*
Y156290D02*
D03*
D52*
X232750Y68000D02*
D03*
X251250D02*
D03*
D53*
X212500Y457000D02*
D03*
X230250Y456750D02*
D03*
X-14510Y376614D02*
D03*
Y408364D02*
D03*
X-65310D02*
D03*
Y376614D02*
D03*
D54*
X238426Y113014D02*
D03*
X228426D02*
D03*
X238252Y102366D02*
D03*
X228252D02*
D03*
X229000Y82750D02*
D03*
X219000D02*
D03*
X20250Y293750D02*
D03*
X10250D02*
D03*
X133132Y289492D02*
D03*
X143132D02*
D03*
X219860Y350198D02*
D03*
X209860D02*
D03*
X210000Y332000D02*
D03*
X220000D02*
D03*
X182318Y289750D02*
D03*
X172318D02*
D03*
X14000Y36750D02*
D03*
X24000D02*
D03*
X3500Y41500D02*
D03*
X-6500D02*
D03*
X-20488Y108524D02*
D03*
X-30488D02*
D03*
X-20488Y119524D02*
D03*
X-30488D02*
D03*
X221000Y262250D02*
D03*
X211000D02*
D03*
X310250Y416500D02*
D03*
X320250D02*
D03*
X298276Y202438D02*
D03*
X308276D02*
D03*
X328500Y96000D02*
D03*
X318500D02*
D03*
X318500Y118750D02*
D03*
X328500D02*
D03*
X318500Y108000D02*
D03*
X328500D02*
D03*
X217828Y308796D02*
D03*
X207828D02*
D03*
X221250Y228000D02*
D03*
X231250D02*
D03*
D55*
X237500Y207250D02*
D03*
Y190250D02*
D03*
X250500D02*
D03*
Y207250D02*
D03*
X-68246Y334764D02*
D03*
X-51246D02*
D03*
X-68246Y278764D02*
D03*
X-51246D02*
D03*
X-68246Y259580D02*
D03*
X-51246D02*
D03*
X-68246Y203580D02*
D03*
X-51246D02*
D03*
D56*
X246250Y137600D02*
D03*
X228550D02*
D03*
D57*
X14039Y401500D02*
D03*
Y417625D02*
D03*
Y433750D02*
D03*
D58*
X24961Y405500D02*
D03*
Y397500D02*
D03*
Y421626D02*
D03*
Y413624D02*
D03*
Y437751D02*
D03*
Y429749D02*
D03*
D59*
X241500Y299500D02*
D03*
X329500D02*
D03*
Y394500D02*
D03*
X241500D02*
D03*
D60*
X252500Y299500D02*
D03*
X263500D02*
D03*
X274500D02*
D03*
X285500D02*
D03*
X296500D02*
D03*
X307500D02*
D03*
X318500D02*
D03*
Y394500D02*
D03*
X307500D02*
D03*
X296500D02*
D03*
X285500D02*
D03*
X274500D02*
D03*
X263500D02*
D03*
X252500D02*
D03*
D61*
X308000Y118800D02*
D03*
Y114500D02*
D03*
Y110200D02*
D03*
Y105900D02*
D03*
Y101600D02*
D03*
Y97300D02*
D03*
Y93000D02*
D03*
Y88700D02*
D03*
X284000D02*
D03*
Y93000D02*
D03*
Y97300D02*
D03*
Y101600D02*
D03*
Y105900D02*
D03*
Y110200D02*
D03*
Y114500D02*
D03*
Y118800D02*
D03*
D62*
X302450Y89250D02*
D03*
X298150D02*
D03*
X293850D02*
D03*
X289550D02*
D03*
Y118250D02*
D03*
X293850D02*
D03*
X298150D02*
D03*
X302450D02*
D03*
D63*
X305816Y186142D02*
D03*
Y181142D02*
D03*
X322072D02*
D03*
Y186142D02*
D03*
D64*
X308944Y175514D02*
D03*
X313944D02*
D03*
X318944D02*
D03*
Y191770D02*
D03*
X313944D02*
D03*
X308944D02*
D03*
D65*
X309000Y266000D02*
D03*
Y256000D02*
D03*
Y246000D02*
D03*
Y236000D02*
D03*
Y226000D02*
D03*
X299000Y266000D02*
D03*
Y256000D02*
D03*
Y246000D02*
D03*
Y236000D02*
D03*
Y226000D02*
D03*
X289000Y266000D02*
D03*
Y256000D02*
D03*
Y246000D02*
D03*
Y236000D02*
D03*
Y226000D02*
D03*
X279000Y266000D02*
D03*
Y256000D02*
D03*
Y246000D02*
D03*
Y236000D02*
D03*
Y226000D02*
D03*
X269000Y266000D02*
D03*
Y256000D02*
D03*
Y246000D02*
D03*
Y236000D02*
D03*
D66*
X45792Y470298D02*
D03*
Y458258D02*
D03*
Y446218D02*
D03*
Y434178D02*
D03*
Y422138D02*
D03*
Y410098D02*
D03*
Y398058D02*
D03*
Y386018D02*
D03*
Y373978D02*
D03*
Y361938D02*
D03*
Y349898D02*
D03*
Y337858D02*
D03*
Y325818D02*
D03*
X193112D02*
D03*
Y337858D02*
D03*
Y349898D02*
D03*
Y361938D02*
D03*
Y373978D02*
D03*
Y386018D02*
D03*
Y398058D02*
D03*
Y410098D02*
D03*
Y422138D02*
D03*
Y434178D02*
D03*
Y446218D02*
D03*
Y458258D02*
D03*
D67*
X57827Y307428D02*
D03*
X69867D02*
D03*
X81907D02*
D03*
X93947D02*
D03*
X105987D02*
D03*
X118027D02*
D03*
X130067D02*
D03*
X142107D02*
D03*
X154147D02*
D03*
X166187D02*
D03*
X178227D02*
D03*
D68*
X117380Y389270D02*
D03*
D69*
X181000Y268000D02*
D03*
X186000D02*
D03*
X116000D02*
D03*
X121000D02*
D03*
X126000D02*
D03*
X176000D02*
D03*
X171000D02*
D03*
X166000D02*
D03*
X161000D02*
D03*
X156000D02*
D03*
X151000D02*
D03*
X146000D02*
D03*
X141000D02*
D03*
X136000D02*
D03*
X131000D02*
D03*
X111000D02*
D03*
X106000D02*
D03*
X101000D02*
D03*
X96000D02*
D03*
X91000D02*
D03*
X86000D02*
D03*
X81000D02*
D03*
X76000D02*
D03*
X71000D02*
D03*
X66000D02*
D03*
X61000D02*
D03*
X56000D02*
D03*
X51000D02*
D03*
X46000D02*
D03*
X41000D02*
D03*
X36000D02*
D03*
X31000D02*
D03*
X26000D02*
D03*
X21000D02*
D03*
X16000D02*
D03*
X11000D02*
D03*
X11000Y55500D02*
D03*
X16000D02*
D03*
X21000D02*
D03*
X26000D02*
D03*
X31000D02*
D03*
X36000D02*
D03*
X41000D02*
D03*
X46000D02*
D03*
X51000D02*
D03*
X56000D02*
D03*
X61000D02*
D03*
X66000D02*
D03*
X71000D02*
D03*
X76000D02*
D03*
X81000D02*
D03*
X86000D02*
D03*
X91000D02*
D03*
X96000D02*
D03*
X101000D02*
D03*
X106000D02*
D03*
X111000D02*
D03*
X116000D02*
D03*
X121000D02*
D03*
X126000D02*
D03*
X131000D02*
D03*
X136000D02*
D03*
X141000D02*
D03*
X146000D02*
D03*
X151000D02*
D03*
X156000D02*
D03*
X161000D02*
D03*
X166000D02*
D03*
X171000D02*
D03*
X176000D02*
D03*
X181000D02*
D03*
X186000D02*
D03*
D70*
X204750Y74250D02*
D03*
Y79250D02*
D03*
Y84250D02*
D03*
Y89250D02*
D03*
Y94250D02*
D03*
Y99250D02*
D03*
Y104250D02*
D03*
Y109250D02*
D03*
Y114250D02*
D03*
Y119250D02*
D03*
Y124250D02*
D03*
Y129250D02*
D03*
Y134250D02*
D03*
Y139250D02*
D03*
Y144250D02*
D03*
Y149250D02*
D03*
Y154250D02*
D03*
Y159250D02*
D03*
Y164250D02*
D03*
Y169250D02*
D03*
Y174250D02*
D03*
Y179250D02*
D03*
Y184250D02*
D03*
Y189250D02*
D03*
Y194250D02*
D03*
Y199250D02*
D03*
Y204250D02*
D03*
Y209250D02*
D03*
Y214250D02*
D03*
Y219250D02*
D03*
Y224250D02*
D03*
Y229250D02*
D03*
Y234250D02*
D03*
Y239250D02*
D03*
Y244250D02*
D03*
Y249250D02*
D03*
X-7750D02*
D03*
Y244250D02*
D03*
Y239250D02*
D03*
Y234250D02*
D03*
Y229250D02*
D03*
Y224250D02*
D03*
Y219250D02*
D03*
Y214250D02*
D03*
Y209250D02*
D03*
Y204250D02*
D03*
Y199250D02*
D03*
Y194250D02*
D03*
Y189250D02*
D03*
Y184250D02*
D03*
Y179250D02*
D03*
Y174250D02*
D03*
Y169250D02*
D03*
Y164250D02*
D03*
Y159250D02*
D03*
Y154250D02*
D03*
Y149250D02*
D03*
Y144250D02*
D03*
Y139250D02*
D03*
Y134250D02*
D03*
Y129250D02*
D03*
Y124250D02*
D03*
Y119250D02*
D03*
Y114250D02*
D03*
Y109250D02*
D03*
Y104250D02*
D03*
Y99250D02*
D03*
Y94250D02*
D03*
Y89250D02*
D03*
Y84250D02*
D03*
Y79250D02*
D03*
Y74250D02*
D03*
D71*
X220796Y294996D02*
D03*
X197796D02*
D03*
Y275996D02*
D03*
X220796D02*
D03*
D72*
X-46260Y395664D02*
D03*
X-33560Y395864D02*
D03*
Y382964D02*
D03*
Y370264D02*
D03*
X-46260Y382964D02*
D03*
Y370264D02*
D03*
D73*
X-70182Y66745D02*
D03*
Y146755D02*
D03*
D74*
X-44782Y75762D02*
D03*
Y137738D02*
D03*
D75*
X-43512Y93750D02*
D03*
Y100250D02*
D03*
Y106750D02*
D03*
Y113250D02*
D03*
Y119750D02*
D03*
D76*
X318500Y429756D02*
D03*
D77*
X258250Y436000D02*
D03*
X-51500Y450500D02*
D03*
D78*
X137380Y389270D02*
D03*
Y399270D02*
D03*
Y409270D02*
D03*
Y379270D02*
D03*
Y369270D02*
D03*
X127380Y389270D02*
D03*
Y399270D02*
D03*
Y409270D02*
D03*
Y379270D02*
D03*
Y369270D02*
D03*
X97380Y389270D02*
D03*
Y399270D02*
D03*
Y409270D02*
D03*
Y379270D02*
D03*
Y369270D02*
D03*
X107380Y389270D02*
D03*
Y399270D02*
D03*
Y409270D02*
D03*
Y379270D02*
D03*
Y369270D02*
D03*
X117380D02*
D03*
Y379270D02*
D03*
Y409270D02*
D03*
Y399270D02*
D03*
Y389270D02*
D03*
M02*
