G04*
G04 #@! TF.GenerationSoftware,Altium Limited,Altium Designer,19.1.7 (138)*
G04*
G04 Layer_Physical_Order=4*
G04 Layer_Color=16440176*
%FSLAX44Y44*%
%MOMM*%
G71*
G01*
G75*
%ADD14C,0.1778*%
%ADD15C,0.2540*%
%ADD88C,0.5080*%
%ADD93C,0.4572*%
%ADD94C,0.7620*%
%ADD95C,0.1143*%
%ADD101C,0.4500*%
%ADD102C,0.4572*%
%ADD103C,0.7620*%
%ADD106C,0.8890*%
%ADD107C,0.6350*%
%ADD108C,0.6604*%
G36*
X91651Y465500D02*
X91858Y464459D01*
X92447Y463577D01*
X93329Y462988D01*
X94370Y462781D01*
X100997D01*
X101252Y462459D01*
X101784Y461003D01*
X101172Y460086D01*
X100856Y458500D01*
X101172Y456914D01*
X102070Y455570D01*
X102299Y453293D01*
X102091Y453000D01*
X96000D01*
Y442000D01*
X124730D01*
Y440730D01*
X137270D01*
Y442000D01*
X156000D01*
Y453000D01*
X137270D01*
Y454444D01*
X124730D01*
Y453000D01*
X107909D01*
X107701Y453293D01*
X107930Y455570D01*
X108828Y456914D01*
X109144Y458500D01*
X108828Y460086D01*
X108216Y461003D01*
X108748Y462459D01*
X109003Y462781D01*
X138833D01*
X139783Y461003D01*
X139672Y460836D01*
X139356Y459250D01*
X139672Y457664D01*
X140570Y456320D01*
X141914Y455422D01*
X143500Y455106D01*
X145086Y455422D01*
X146430Y456320D01*
X147328Y457664D01*
X147644Y459250D01*
X147328Y460836D01*
X147217Y461003D01*
X148167Y462781D01*
X175761D01*
X176242Y461844D01*
X176454Y461003D01*
X175680Y459844D01*
X175364Y458258D01*
X175680Y456672D01*
X176578Y455328D01*
X177922Y454430D01*
X179508Y454114D01*
X181094Y454430D01*
X182438Y455328D01*
X183336Y456672D01*
X183652Y458258D01*
X183336Y459844D01*
X182562Y461003D01*
X182774Y461844D01*
X183255Y462781D01*
X211117D01*
X211292Y461003D01*
X211009Y460946D01*
X210414Y460828D01*
X209070Y459930D01*
X208172Y458586D01*
X207856Y457000D01*
X208172Y455414D01*
X209070Y454070D01*
X210414Y453172D01*
X212000Y452856D01*
X213586Y453172D01*
X214930Y454070D01*
X215828Y455414D01*
X216144Y457000D01*
X215828Y458586D01*
X214930Y459930D01*
X213586Y460828D01*
X212991Y460946D01*
X212708Y461003D01*
X212883Y462781D01*
X248284D01*
X248638Y461003D01*
X246056Y459933D01*
X242462Y457731D01*
X239257Y454994D01*
X236519Y451789D01*
X234317Y448195D01*
X232704Y444301D01*
X231720Y440202D01*
X231389Y436000D01*
X231720Y431798D01*
X232704Y427700D01*
X234317Y423806D01*
X236519Y420212D01*
X239257Y417007D01*
X242462Y414269D01*
X246056Y412067D01*
X249950Y410454D01*
X254048Y409470D01*
X258250Y409139D01*
X262452Y409470D01*
X266551Y410454D01*
X270445Y412067D01*
X272114Y413090D01*
X272569Y413001D01*
X273976Y412146D01*
X274172Y411164D01*
X275070Y409820D01*
X276414Y408922D01*
X278000Y408606D01*
X279586Y408922D01*
X280930Y409820D01*
X281828Y411164D01*
X282144Y412750D01*
X281828Y414336D01*
X280930Y415680D01*
X279586Y416578D01*
X279270Y416641D01*
X278594Y418588D01*
X279981Y420212D01*
X282183Y423806D01*
X283796Y427700D01*
X284780Y431798D01*
X285111Y436000D01*
X284780Y440202D01*
X283796Y444301D01*
X282183Y448195D01*
X279981Y451789D01*
X277244Y454994D01*
X274039Y457731D01*
X270445Y459933D01*
X267863Y461003D01*
X268217Y462781D01*
X283500D01*
X284450Y461003D01*
X284172Y460586D01*
X283856Y459000D01*
X284172Y457414D01*
X285070Y456070D01*
X286414Y455172D01*
X288000Y454856D01*
X289586Y455172D01*
X290930Y456070D01*
X291828Y457414D01*
X292144Y459000D01*
X291828Y460586D01*
X291550Y461003D01*
X292500Y462781D01*
X330500D01*
X330569Y462794D01*
X332531Y462404D01*
X334253Y461253D01*
X335404Y459531D01*
X335794Y457569D01*
X335781Y457500D01*
Y425989D01*
X334003Y425133D01*
X333336Y425578D01*
X331750Y425894D01*
X330164Y425578D01*
X328820Y424680D01*
X327922Y423336D01*
X327606Y421750D01*
X327922Y420164D01*
X328820Y418820D01*
X330164Y417922D01*
X331750Y417606D01*
X333336Y417922D01*
X334003Y418368D01*
X335781Y417511D01*
Y409736D01*
X334003Y409197D01*
X333680Y409680D01*
X332336Y410578D01*
X330750Y410894D01*
X329164Y410578D01*
X327820Y409680D01*
X326922Y408336D01*
X326606Y406750D01*
X326922Y405164D01*
X327820Y403820D01*
X329164Y402922D01*
X330750Y402606D01*
X332336Y402922D01*
X333680Y403820D01*
X334003Y404303D01*
X335781Y403764D01*
Y371839D01*
X334003Y370544D01*
X333500Y370644D01*
X331914Y370328D01*
X330570Y369430D01*
X329672Y368086D01*
X329356Y366500D01*
X329672Y364914D01*
X330570Y363570D01*
X331914Y362672D01*
X333500Y362356D01*
X334003Y362456D01*
X335781Y361161D01*
Y331007D01*
X334003Y329593D01*
X333750Y329644D01*
X332164Y329328D01*
X330820Y328430D01*
X329922Y327086D01*
X329606Y325500D01*
X329922Y323914D01*
X330820Y322570D01*
X332164Y321672D01*
X333750Y321356D01*
X334003Y321407D01*
X335781Y319993D01*
Y282235D01*
X334821Y281752D01*
X334003Y281549D01*
X332836Y282328D01*
X332827Y282330D01*
X332775Y282386D01*
X332152Y284277D01*
X332578Y284914D01*
X332894Y286500D01*
X332578Y288086D01*
X331680Y289430D01*
X330336Y290328D01*
X328750Y290644D01*
X327164Y290328D01*
X325820Y289430D01*
X324922Y288086D01*
X324606Y286500D01*
X324922Y284914D01*
X325820Y283570D01*
X327164Y282672D01*
X327173Y282670D01*
X327225Y282614D01*
X327848Y280723D01*
X327422Y280086D01*
X327106Y278500D01*
X327422Y276914D01*
X328320Y275570D01*
X329664Y274672D01*
X331250Y274356D01*
X332836Y274672D01*
X334003Y275452D01*
X334821Y275248D01*
X335781Y274765D01*
X335781Y257989D01*
X334003Y257132D01*
X333336Y257578D01*
X331750Y257894D01*
X330164Y257578D01*
X328820Y256680D01*
X327922Y255336D01*
X327606Y253750D01*
X327922Y252164D01*
X328820Y250820D01*
X330164Y249922D01*
X331750Y249606D01*
X333336Y249922D01*
X334003Y250367D01*
X335781Y249511D01*
Y240672D01*
X334003Y239494D01*
X333250Y239644D01*
X331664Y239328D01*
X330320Y238430D01*
X329422Y237086D01*
X329106Y235500D01*
X329422Y233914D01*
X330320Y232570D01*
X331664Y231672D01*
X333250Y231356D01*
X334003Y231506D01*
X335781Y230328D01*
Y217251D01*
X335201Y216781D01*
X334003Y216144D01*
X332750Y216394D01*
X331164Y216078D01*
X329820Y215180D01*
X328922Y213836D01*
X328606Y212250D01*
X328922Y210664D01*
X329820Y209320D01*
X331164Y208422D01*
X332750Y208106D01*
X334003Y208356D01*
X335201Y207719D01*
X335781Y207249D01*
Y189172D01*
X334003Y187994D01*
X333250Y188144D01*
X331664Y187828D01*
X330320Y186930D01*
X329422Y185586D01*
X329106Y184000D01*
X329422Y182414D01*
X330320Y181070D01*
X331664Y180172D01*
X333250Y179856D01*
X334003Y180006D01*
X335781Y178828D01*
Y161251D01*
X335201Y160781D01*
X334003Y160145D01*
X332750Y160394D01*
X331164Y160078D01*
X329820Y159180D01*
X328922Y157836D01*
X328606Y156250D01*
X328922Y154664D01*
X329820Y153320D01*
X331164Y152422D01*
X332750Y152106D01*
X334003Y152355D01*
X335201Y151719D01*
X335781Y151249D01*
Y137084D01*
X334102Y136088D01*
X334003Y136095D01*
X332500Y136394D01*
X330914Y136078D01*
X329570Y135180D01*
X328672Y133836D01*
X328356Y132250D01*
X328610Y130974D01*
X327987Y129909D01*
X327441Y129306D01*
X326074Y129034D01*
X324730Y128136D01*
X323832Y126792D01*
X323516Y125206D01*
X323832Y123620D01*
X324730Y122276D01*
X326074Y121378D01*
X327660Y121062D01*
X328670Y121263D01*
X328927Y121124D01*
X329928Y120123D01*
X330067Y119866D01*
X329866Y118856D01*
X330182Y117270D01*
X331080Y115926D01*
X332424Y115028D01*
X334010Y114712D01*
X335781Y113252D01*
Y108272D01*
X334003Y106852D01*
X333766Y106899D01*
X332181Y106583D01*
X330836Y105685D01*
X329938Y104341D01*
X329623Y102755D01*
X329938Y101169D01*
X330684Y100054D01*
X331003Y98703D01*
X331080Y98180D01*
X330852Y97839D01*
X330182Y96836D01*
X329866Y95250D01*
X328500Y93894D01*
X326914Y93578D01*
X325570Y92680D01*
X324672Y91336D01*
X324356Y89750D01*
X324672Y88164D01*
X325570Y86820D01*
X326914Y85922D01*
X328500Y85606D01*
X330086Y85922D01*
X331430Y86820D01*
X332328Y88164D01*
X332644Y89750D01*
X334010Y91106D01*
X335781Y89646D01*
Y78422D01*
X334003Y77244D01*
X333250Y77394D01*
X331664Y77078D01*
X330320Y76180D01*
X329422Y74836D01*
X329106Y73250D01*
X329422Y71664D01*
X330320Y70320D01*
X331664Y69422D01*
X333250Y69106D01*
X334003Y69256D01*
X335781Y68078D01*
Y58500D01*
X335794Y58431D01*
X335404Y56469D01*
X334253Y54747D01*
X332531Y53596D01*
X330569Y53206D01*
X330500Y53219D01*
X298750D01*
X297800Y54997D01*
X298078Y55414D01*
X298394Y57000D01*
X298078Y58586D01*
X297180Y59930D01*
X295836Y60828D01*
X294472Y61100D01*
X294190Y61957D01*
X294125Y62843D01*
X295284Y63618D01*
X296182Y64962D01*
X296498Y66548D01*
X296182Y68134D01*
X295507Y69144D01*
X295787Y70468D01*
X296095Y71074D01*
X296586Y71172D01*
X297930Y72070D01*
X298828Y73414D01*
X299125Y74904D01*
X299447Y75387D01*
X299684Y76576D01*
Y77235D01*
X301462Y78303D01*
X302450Y78106D01*
X304036Y78422D01*
X305380Y79320D01*
X306278Y80664D01*
X306594Y82250D01*
X306278Y83836D01*
X305380Y85180D01*
X304036Y86078D01*
X302450Y86394D01*
X301462Y86197D01*
X299684Y87265D01*
Y89450D01*
X299447Y90639D01*
X298773Y91648D01*
X294700Y95721D01*
Y101286D01*
X297944D01*
X298838Y99508D01*
X298422Y98886D01*
X298106Y97300D01*
X298422Y95714D01*
X299320Y94370D01*
X300664Y93472D01*
X302250Y93156D01*
X303836Y93472D01*
X305180Y94370D01*
X306078Y95714D01*
X306394Y97300D01*
X306078Y98886D01*
X305265Y100103D01*
X305182Y100244D01*
X305439Y102195D01*
X305441Y102197D01*
X319947Y116704D01*
X320621Y117712D01*
X320858Y118901D01*
Y129586D01*
X321578Y130664D01*
X321894Y132250D01*
X321578Y133836D01*
X320680Y135180D01*
X319336Y136078D01*
X317750Y136394D01*
X317213Y136287D01*
X316717Y136691D01*
X315913Y137841D01*
X316144Y139000D01*
X315828Y140586D01*
X314930Y141930D01*
X313586Y142828D01*
X312000Y143144D01*
X310414Y142828D01*
X309070Y141930D01*
X308172Y140586D01*
X307856Y139000D01*
X308172Y137414D01*
X309070Y136070D01*
X310414Y135172D01*
X312000Y134856D01*
X312537Y134963D01*
X313033Y134559D01*
X313837Y133409D01*
X313606Y132250D01*
X313922Y130664D01*
X314642Y129586D01*
Y120188D01*
X306429Y111975D01*
X304174Y112150D01*
X302830Y113048D01*
X301244Y113364D01*
X299658Y113048D01*
X299408Y112881D01*
X297452Y113600D01*
X296554Y114944D01*
X295210Y115842D01*
X293624Y116158D01*
X292038Y115842D01*
X290694Y114944D01*
X289796Y113600D01*
X289480Y112014D01*
X289796Y110428D01*
X290202Y109820D01*
X290035Y108236D01*
X289631Y107718D01*
X288662Y107070D01*
X287764Y105726D01*
X287448Y104140D01*
X287764Y102554D01*
X288484Y101476D01*
Y94434D01*
X288721Y93245D01*
X289394Y92237D01*
X292233Y89398D01*
X292139Y86977D01*
X291750Y86644D01*
X290164Y86328D01*
X288820Y85430D01*
X287922Y84086D01*
X287606Y82500D01*
X287922Y80914D01*
X288609Y79886D01*
X288247Y78731D01*
X287821Y78108D01*
X284112D01*
X273447Y88773D01*
X272438Y89447D01*
X271249Y89684D01*
X265180D01*
X263991Y89447D01*
X262982Y88773D01*
X261615Y87406D01*
X261366Y87456D01*
X259780Y87140D01*
X258436Y86242D01*
X257538Y84898D01*
X257222Y83312D01*
X257538Y81726D01*
X258436Y80382D01*
X259780Y79484D01*
X261366Y79168D01*
X262952Y79484D01*
X263651Y79951D01*
X264818Y80092D01*
X265855Y79515D01*
X266320Y78820D01*
X266853Y78464D01*
X266948Y76389D01*
X266596Y76154D01*
X265706Y74822D01*
X265393Y73250D01*
X265706Y71678D01*
X266596Y70346D01*
X267928Y69456D01*
X269500Y69143D01*
X271072Y69456D01*
X272404Y70346D01*
X273294Y71678D01*
X273607Y73250D01*
X273294Y74822D01*
X272404Y76154D01*
X271897Y76493D01*
X271809Y78572D01*
X272180Y78820D01*
X274435Y78995D01*
X280627Y72803D01*
X281636Y72129D01*
X282825Y71892D01*
X289970D01*
X290376Y70114D01*
X289424Y69478D01*
X288526Y68134D01*
X288210Y66548D01*
X288526Y64962D01*
X289424Y63618D01*
X290768Y62720D01*
X292132Y62448D01*
X292414Y61591D01*
X292479Y60705D01*
X291320Y59930D01*
X290422Y58586D01*
X290106Y57000D01*
X290422Y55414D01*
X290700Y54997D01*
X289750Y53219D01*
X286500D01*
Y53259D01*
X283715Y52892D01*
X281120Y51818D01*
X278892Y50108D01*
X277182Y47880D01*
X276108Y45285D01*
X275741Y42500D01*
X275781D01*
Y40500D01*
X275794Y40431D01*
X275404Y38469D01*
X274253Y36747D01*
X272531Y35596D01*
X272312Y35552D01*
X270800Y37064D01*
X270804Y37084D01*
X270491Y38656D01*
X269601Y39988D01*
X268268Y40878D01*
X266697Y41191D01*
X265125Y40878D01*
X263793Y39988D01*
X263453Y39479D01*
X262409D01*
X262409Y39480D01*
X261492Y39297D01*
X260715Y38778D01*
X260715Y38778D01*
X246334Y24397D01*
X214492D01*
X214152Y24906D01*
X212820Y25796D01*
X211248Y26109D01*
X209677Y25796D01*
X208344Y24906D01*
X207454Y23573D01*
X207141Y22002D01*
X207454Y20430D01*
X208344Y19098D01*
X209677Y18207D01*
X211248Y17895D01*
X212820Y18207D01*
X214152Y19098D01*
X214492Y19606D01*
X247326D01*
X248243Y19789D01*
X249020Y20308D01*
X252503Y23790D01*
X254281Y23054D01*
Y15242D01*
X252503Y14081D01*
X251714Y14238D01*
X250128Y13922D01*
X248784Y13024D01*
X247886Y11680D01*
X247570Y10094D01*
X247886Y8508D01*
X248784Y7164D01*
X250128Y6266D01*
X251714Y5950D01*
X252503Y6107D01*
X254281Y4946D01*
Y-4758D01*
X252503Y-5919D01*
X251714Y-5762D01*
X250128Y-6078D01*
X248784Y-6976D01*
X247886Y-8320D01*
X247570Y-9906D01*
X247886Y-11492D01*
X248784Y-12836D01*
X250128Y-13734D01*
X251714Y-14050D01*
X252503Y-13893D01*
X254281Y-15054D01*
Y-24758D01*
X252503Y-25919D01*
X251714Y-25762D01*
X250128Y-26078D01*
X248784Y-26976D01*
X247886Y-28320D01*
X247570Y-29906D01*
X247689Y-30503D01*
X246437Y-32281D01*
X30339Y-32281D01*
X29044Y-30503D01*
X29144Y-30000D01*
X28828Y-28414D01*
X27930Y-27070D01*
X26586Y-26172D01*
X25000Y-25856D01*
X23414Y-26172D01*
X22070Y-27070D01*
X21172Y-28414D01*
X20856Y-30000D01*
X20956Y-30503D01*
X19661Y-32281D01*
X10339D01*
X9044Y-30503D01*
X9144Y-30000D01*
X8828Y-28414D01*
X7930Y-27070D01*
X6586Y-26172D01*
X5000Y-25856D01*
X4497Y-25956D01*
X2719Y-24661D01*
Y-15339D01*
X4497Y-14044D01*
X5000Y-14144D01*
X6586Y-13828D01*
X7930Y-12930D01*
X8828Y-11586D01*
X9144Y-10000D01*
X8828Y-8414D01*
X7930Y-7070D01*
X6586Y-6172D01*
X5000Y-5856D01*
X4497Y-5956D01*
X2719Y-4661D01*
Y4661D01*
X4497Y5956D01*
X5000Y5856D01*
X6586Y6172D01*
X7930Y7070D01*
X8828Y8414D01*
X9144Y10000D01*
X8828Y11586D01*
X7930Y12930D01*
X6586Y13828D01*
X5000Y14144D01*
X4497Y14044D01*
X2719Y15339D01*
Y24500D01*
X2759D01*
X2393Y27285D01*
X1318Y29880D01*
X-392Y32108D01*
X-2621Y33818D01*
X-5215Y34892D01*
X-8000Y35259D01*
Y35219D01*
X-11514D01*
X-12053Y36997D01*
X-11570Y37320D01*
X-10672Y38664D01*
X-10356Y40250D01*
X-10672Y41836D01*
X-11570Y43180D01*
X-12914Y44078D01*
X-14500Y44394D01*
X-16086Y44078D01*
X-17069Y43421D01*
X-18388Y43761D01*
X-18952Y44103D01*
X-19108Y45285D01*
X-20182Y47880D01*
X-21892Y50108D01*
X-24121Y51818D01*
X-26715Y52892D01*
X-29500Y53259D01*
Y53219D01*
X-29500Y53219D01*
X-47749D01*
X-48219Y53799D01*
X-48856Y54997D01*
X-48606Y56250D01*
X-48922Y57836D01*
X-49820Y59180D01*
X-51164Y60078D01*
X-52750Y60394D01*
X-54336Y60078D01*
X-55680Y59180D01*
X-56578Y57836D01*
X-56894Y56250D01*
X-56644Y54997D01*
X-57281Y53799D01*
X-57751Y53219D01*
X-73500D01*
X-73569Y53206D01*
X-75531Y53596D01*
X-77253Y54747D01*
X-78404Y56469D01*
X-78794Y58432D01*
X-78781Y58500D01*
Y90500D01*
X-77003Y91450D01*
X-76586Y91172D01*
X-75000Y90856D01*
X-73414Y91172D01*
X-72070Y92070D01*
X-71172Y93414D01*
X-70856Y95000D01*
X-71172Y96586D01*
X-72070Y97930D01*
X-73414Y98828D01*
X-75000Y99144D01*
X-76586Y98828D01*
X-77003Y98550D01*
X-78781Y99500D01*
Y110500D01*
X-77003Y111450D01*
X-76586Y111172D01*
X-75000Y110856D01*
X-73414Y111172D01*
X-72070Y112070D01*
X-71172Y113414D01*
X-70856Y115000D01*
X-71172Y116586D01*
X-72070Y117930D01*
X-73414Y118828D01*
X-75000Y119144D01*
X-76586Y118828D01*
X-77003Y118550D01*
X-78781Y119500D01*
Y125500D01*
X-77003Y126450D01*
X-76586Y126172D01*
X-75000Y125856D01*
X-73414Y126172D01*
X-72070Y127070D01*
X-71172Y128414D01*
X-70856Y130000D01*
X-71172Y131586D01*
X-72070Y132930D01*
X-73414Y133828D01*
X-75000Y134144D01*
X-76586Y133828D01*
X-77003Y133550D01*
X-78781Y134500D01*
Y165999D01*
X-78201Y166469D01*
X-77003Y167106D01*
X-75750Y166856D01*
X-74164Y167172D01*
X-72820Y168070D01*
X-71922Y169414D01*
X-71606Y171000D01*
X-71922Y172586D01*
X-72820Y173930D01*
X-74164Y174828D01*
X-75750Y175144D01*
X-77003Y174894D01*
X-78201Y175530D01*
X-78781Y176001D01*
Y215500D01*
X-77003Y216450D01*
X-76586Y216172D01*
X-75000Y215856D01*
X-73414Y216172D01*
X-72070Y217070D01*
X-71172Y218414D01*
X-70856Y220000D01*
X-71172Y221586D01*
X-72070Y222930D01*
X-73414Y223828D01*
X-75000Y224144D01*
X-76586Y223828D01*
X-77003Y223550D01*
X-78781Y224500D01*
Y226487D01*
X-78575Y226662D01*
X-77003Y227275D01*
X-75653Y226373D01*
X-73496Y225944D01*
X-71339Y226373D01*
X-69511Y227595D01*
X-68289Y229423D01*
X-67860Y231580D01*
X-68289Y233737D01*
X-69511Y235565D01*
X-71339Y236787D01*
X-73496Y237216D01*
X-75653Y236787D01*
X-77003Y235885D01*
X-78575Y236498D01*
X-78781Y236673D01*
Y285500D01*
X-77003Y286450D01*
X-76586Y286172D01*
X-75000Y285856D01*
X-73414Y286172D01*
X-72070Y287070D01*
X-71172Y288414D01*
X-70856Y290000D01*
X-71172Y291586D01*
X-72070Y292930D01*
X-73414Y293828D01*
X-75000Y294144D01*
X-76586Y293828D01*
X-77003Y293550D01*
X-78781Y294500D01*
Y301671D01*
X-78575Y301846D01*
X-77003Y302459D01*
X-75653Y301557D01*
X-73496Y301128D01*
X-71339Y301557D01*
X-69511Y302778D01*
X-68289Y304607D01*
X-67860Y306764D01*
X-68289Y308921D01*
X-69511Y310749D01*
X-71339Y311971D01*
X-73496Y312400D01*
X-75653Y311971D01*
X-77003Y311069D01*
X-78575Y311682D01*
X-78781Y311857D01*
Y350500D01*
X-77003Y351450D01*
X-76586Y351172D01*
X-75852Y351026D01*
X-75528Y350442D01*
X-75203Y349141D01*
X-75884Y348122D01*
X-76200Y346536D01*
X-75884Y344950D01*
X-74986Y343606D01*
X-73642Y342708D01*
X-72056Y342392D01*
X-70470Y342708D01*
X-69126Y343606D01*
X-68228Y344950D01*
X-67912Y346536D01*
X-68228Y348122D01*
X-69126Y349466D01*
X-70470Y350364D01*
X-71204Y350510D01*
X-71528Y351094D01*
X-71853Y352395D01*
X-71172Y353414D01*
X-70856Y355000D01*
X-71172Y356586D01*
X-72070Y357930D01*
X-73414Y358828D01*
X-75000Y359144D01*
X-76586Y358828D01*
X-77003Y358550D01*
X-78781Y359500D01*
Y368951D01*
X-78211Y369238D01*
X-77003Y369426D01*
X-75047Y366877D01*
X-72195Y364689D01*
X-68874Y363313D01*
X-65310Y362844D01*
X-61746Y363313D01*
X-58425Y364689D01*
X-55573Y366877D01*
X-53385Y369729D01*
X-52009Y373050D01*
X-51540Y376614D01*
X-52009Y380178D01*
X-53385Y383499D01*
X-55203Y385869D01*
X-55196Y386010D01*
X-54654Y387451D01*
X-54451Y387694D01*
X-53546Y387874D01*
X-52214Y388764D01*
X-51324Y390096D01*
X-51011Y391668D01*
X-51324Y393240D01*
X-52214Y394572D01*
X-53546Y395462D01*
X-55118Y395775D01*
X-56690Y395462D01*
X-58022Y394572D01*
X-58912Y393240D01*
X-59225Y391668D01*
X-59036Y390717D01*
X-60306Y389440D01*
X-60444Y389376D01*
X-61746Y389915D01*
X-65310Y390384D01*
X-68874Y389915D01*
X-72195Y388539D01*
X-75047Y386351D01*
X-77003Y383802D01*
X-78211Y383990D01*
X-78781Y384277D01*
Y400701D01*
X-78211Y400988D01*
X-77003Y401176D01*
X-75047Y398627D01*
X-72195Y396439D01*
X-68874Y395063D01*
X-65310Y394594D01*
X-61746Y395063D01*
X-58425Y396439D01*
X-55573Y398627D01*
X-53385Y401479D01*
X-52009Y404800D01*
X-51540Y408364D01*
X-52009Y411928D01*
X-53385Y415249D01*
X-55573Y418101D01*
X-58425Y420289D01*
X-61746Y421665D01*
X-65310Y422134D01*
X-68874Y421665D01*
X-72195Y420289D01*
X-75047Y418101D01*
X-77003Y415552D01*
X-78211Y415740D01*
X-78781Y416027D01*
Y441808D01*
X-77046Y442200D01*
X-75433Y438305D01*
X-73231Y434712D01*
X-70493Y431507D01*
X-67288Y428769D01*
X-63695Y426567D01*
X-59800Y424954D01*
X-55702Y423970D01*
X-51500Y423639D01*
X-50102Y423749D01*
X-49500Y422013D01*
X-49894Y421750D01*
X-50784Y420418D01*
X-51097Y418846D01*
X-50784Y417274D01*
X-49894Y415942D01*
X-48562Y415052D01*
X-46990Y414739D01*
X-45418Y415052D01*
X-44086Y415942D01*
X-43196Y417274D01*
X-42883Y418846D01*
X-43196Y420418D01*
X-44086Y421750D01*
X-45366Y422605D01*
X-45409Y422864D01*
X-45346Y424439D01*
X-43200Y424954D01*
X-39306Y426567D01*
X-35712Y428769D01*
X-32506Y431507D01*
X-29769Y434712D01*
X-27567Y438305D01*
X-25954Y442200D01*
X-24970Y446298D01*
X-24639Y450500D01*
X-24970Y454702D01*
X-25954Y458800D01*
X-27567Y462695D01*
X-29769Y466288D01*
X-32506Y469493D01*
X-35712Y472231D01*
X-39306Y474433D01*
X-43200Y476046D01*
X-42808Y477781D01*
X80997D01*
X81252Y477459D01*
X81784Y476003D01*
X81172Y475086D01*
X80856Y473500D01*
X81172Y471914D01*
X82070Y470570D01*
X83414Y469672D01*
X85000Y469356D01*
X86586Y469672D01*
X87930Y470570D01*
X88828Y471914D01*
X89144Y473500D01*
X88828Y475086D01*
X88216Y476003D01*
X88748Y477459D01*
X89003Y477781D01*
X91651D01*
Y465500D01*
D02*
G37*
%LPC*%
G36*
X59395Y474442D02*
X57810Y474126D01*
X56465Y473228D01*
X55567Y471884D01*
X55252Y470298D01*
X55567Y468712D01*
X56465Y467368D01*
X57810Y466470D01*
X59395Y466154D01*
X60981Y466470D01*
X62325Y467368D01*
X63224Y468712D01*
X63539Y470298D01*
X63224Y471884D01*
X62325Y473228D01*
X60981Y474126D01*
X59395Y474442D01*
D02*
G37*
G36*
X57742Y462402D02*
X56156Y462086D01*
X54812Y461188D01*
X53914Y459844D01*
X53598Y458258D01*
X53914Y456672D01*
X54812Y455328D01*
X56156Y454430D01*
X57742Y454114D01*
X59328Y454430D01*
X60672Y455328D01*
X61570Y456672D01*
X61886Y458258D01*
X61570Y459844D01*
X60672Y461188D01*
X59328Y462086D01*
X57742Y462402D01*
D02*
G37*
G36*
X230250Y460894D02*
X228664Y460578D01*
X227320Y459680D01*
X226422Y458336D01*
X226106Y456750D01*
X226422Y455164D01*
X227320Y453820D01*
X228664Y452922D01*
X230250Y452606D01*
X231836Y452922D01*
X233180Y453820D01*
X234078Y455164D01*
X234394Y456750D01*
X234078Y458336D01*
X233180Y459680D01*
X231836Y460578D01*
X230250Y460894D01*
D02*
G37*
G36*
X298250Y457144D02*
X296664Y456828D01*
X295320Y455930D01*
X294422Y454586D01*
X294106Y453000D01*
X294422Y451414D01*
X295320Y450070D01*
X296664Y449172D01*
X298250Y448856D01*
X299836Y449172D01*
X301180Y450070D01*
X302078Y451414D01*
X302394Y453000D01*
X302078Y454586D01*
X301180Y455930D01*
X299836Y456828D01*
X298250Y457144D01*
D02*
G37*
G36*
X321250Y456894D02*
X319664Y456578D01*
X318320Y455680D01*
X317422Y454336D01*
X317106Y452750D01*
X317422Y451164D01*
X318320Y449820D01*
X319664Y448922D01*
X321250Y448606D01*
X322836Y448922D01*
X324180Y449820D01*
X325078Y451164D01*
X325394Y452750D01*
X325078Y454336D01*
X324180Y455680D01*
X322836Y456578D01*
X321250Y456894D01*
D02*
G37*
G36*
X71250Y451644D02*
X69664Y451328D01*
X68320Y450430D01*
X67422Y449086D01*
X67106Y447500D01*
X67422Y445914D01*
X68320Y444570D01*
X69664Y443672D01*
X71250Y443356D01*
X72836Y443672D01*
X74180Y444570D01*
X75078Y445914D01*
X75394Y447500D01*
X75078Y449086D01*
X74180Y450430D01*
X72836Y451328D01*
X71250Y451644D01*
D02*
G37*
G36*
X172750Y445394D02*
X171164Y445078D01*
X169820Y444180D01*
X168922Y442836D01*
X168606Y441250D01*
X168922Y439664D01*
X169820Y438320D01*
X171164Y437422D01*
X172750Y437106D01*
X174336Y437422D01*
X175680Y438320D01*
X176578Y439664D01*
X176894Y441250D01*
X176578Y442836D01*
X175680Y444180D01*
X174336Y445078D01*
X172750Y445394D01*
D02*
G37*
G36*
X321000Y445144D02*
X319414Y444828D01*
X318070Y443930D01*
X317172Y442586D01*
X316856Y441000D01*
X317172Y439414D01*
X318070Y438070D01*
X319414Y437172D01*
X321000Y436856D01*
X322586Y437172D01*
X323930Y438070D01*
X324828Y439414D01*
X325144Y441000D01*
X324828Y442586D01*
X323930Y443930D01*
X322586Y444828D01*
X321000Y445144D01*
D02*
G37*
G36*
X298500Y441144D02*
X296914Y440828D01*
X295570Y439930D01*
X294672Y438586D01*
X294356Y437000D01*
X294672Y435414D01*
X295570Y434070D01*
X296914Y433172D01*
X298500Y432856D01*
X300086Y433172D01*
X301430Y434070D01*
X302328Y435414D01*
X302644Y437000D01*
X302328Y438586D01*
X301430Y439930D01*
X300086Y440828D01*
X298500Y441144D01*
D02*
G37*
G36*
X106750Y437394D02*
X105164Y437078D01*
X103820Y436180D01*
X102922Y434836D01*
X102606Y433250D01*
X102922Y431664D01*
X103820Y430320D01*
X105164Y429422D01*
X106750Y429106D01*
X108336Y429422D01*
X109680Y430320D01*
X110578Y431664D01*
X110894Y433250D01*
X110578Y434836D01*
X109680Y436180D01*
X108336Y437078D01*
X106750Y437394D01*
D02*
G37*
G36*
X137380Y413673D02*
X135695Y413338D01*
X134267Y412383D01*
X133313Y410955D01*
X133287Y410823D01*
X131474D01*
X131448Y410955D01*
X130493Y412383D01*
X129065Y413338D01*
X127380Y413673D01*
X125695Y413338D01*
X124267Y412383D01*
X123313Y410955D01*
X123287Y410823D01*
X121474D01*
X121448Y410955D01*
X120493Y412383D01*
X119065Y413338D01*
X117380Y413673D01*
X115695Y413338D01*
X114267Y412383D01*
X113313Y410955D01*
X113287Y410823D01*
X111474D01*
X111448Y410955D01*
X110493Y412383D01*
X109065Y413338D01*
X107380Y413673D01*
X105695Y413338D01*
X104267Y412383D01*
X103313Y410955D01*
X103287Y410823D01*
X101474D01*
X101448Y410955D01*
X100493Y412383D01*
X99065Y413338D01*
X97380Y413673D01*
X95695Y413338D01*
X94267Y412383D01*
X93313Y410955D01*
X92978Y409270D01*
X93313Y407585D01*
X94267Y406157D01*
X95695Y405202D01*
X95827Y405176D01*
Y403364D01*
X95695Y403337D01*
X94267Y402383D01*
X93313Y400955D01*
X92978Y399270D01*
X93313Y397585D01*
X94267Y396157D01*
X95695Y395202D01*
X95827Y395176D01*
Y393364D01*
X95695Y393337D01*
X94267Y392383D01*
X93313Y390955D01*
X92978Y389270D01*
X93313Y387585D01*
X94267Y386157D01*
X95695Y385202D01*
X95827Y385176D01*
Y383364D01*
X95695Y383337D01*
X94267Y382383D01*
X93313Y380955D01*
X92978Y379270D01*
X93313Y377585D01*
X94267Y376157D01*
X95695Y375202D01*
X95827Y375176D01*
Y373364D01*
X95695Y373337D01*
X94267Y372383D01*
X93313Y370955D01*
X92978Y369270D01*
X93313Y367585D01*
X94267Y366157D01*
X95695Y365202D01*
X97380Y364867D01*
X99065Y365202D01*
X100493Y366157D01*
X101448Y367585D01*
X101474Y367716D01*
X103287D01*
X103313Y367585D01*
X104267Y366157D01*
X105695Y365202D01*
X107380Y364867D01*
X109065Y365202D01*
X110493Y366157D01*
X111448Y367585D01*
X111474Y367716D01*
X113287D01*
X113313Y367585D01*
X114267Y366157D01*
X115695Y365202D01*
X117380Y364867D01*
X119065Y365202D01*
X120493Y366157D01*
X121448Y367585D01*
X121474Y367716D01*
X123287D01*
X123313Y367585D01*
X124267Y366157D01*
X125695Y365202D01*
X127380Y364867D01*
X129065Y365202D01*
X130493Y366157D01*
X131448Y367585D01*
X131474Y367716D01*
X133287D01*
X133313Y367585D01*
X134267Y366157D01*
X135695Y365202D01*
X137380Y364867D01*
X139065Y365202D01*
X140493Y366157D01*
X141448Y367585D01*
X141783Y369270D01*
X141448Y370955D01*
X140493Y372383D01*
X139065Y373337D01*
X138934Y373364D01*
Y375176D01*
X139065Y375202D01*
X140493Y376157D01*
X141448Y377585D01*
X141783Y379270D01*
X141448Y380955D01*
X140493Y382383D01*
X139065Y383337D01*
X138934Y383364D01*
Y385176D01*
X139065Y385202D01*
X140493Y386157D01*
X141448Y387585D01*
X141783Y389270D01*
X141448Y390955D01*
X140493Y392383D01*
X139065Y393337D01*
X138934Y393364D01*
Y395176D01*
X139065Y395202D01*
X140493Y396157D01*
X141448Y397585D01*
X141783Y399270D01*
X141448Y400955D01*
X140493Y402383D01*
X139065Y403337D01*
X138934Y403364D01*
Y405176D01*
X139065Y405202D01*
X140493Y406157D01*
X141448Y407585D01*
X141783Y409270D01*
X141448Y410955D01*
X140493Y412383D01*
X139065Y413338D01*
X137380Y413673D01*
D02*
G37*
G36*
X208000Y414394D02*
X206414Y414078D01*
X205070Y413180D01*
X204172Y411836D01*
X203856Y410250D01*
X204172Y408664D01*
X205070Y407320D01*
X206414Y406422D01*
X208000Y406106D01*
X209586Y406422D01*
X210930Y407320D01*
X211828Y408664D01*
X212144Y410250D01*
X211828Y411836D01*
X210930Y413180D01*
X209586Y414078D01*
X208000Y414394D01*
D02*
G37*
G36*
X305250Y413644D02*
X303664Y413328D01*
X302320Y412430D01*
X301422Y411086D01*
X301106Y409500D01*
X301422Y407914D01*
X302320Y406570D01*
X303664Y405672D01*
X305250Y405356D01*
X306836Y405672D01*
X308180Y406570D01*
X309078Y407914D01*
X309394Y409500D01*
X309078Y411086D01*
X308180Y412430D01*
X306836Y413328D01*
X305250Y413644D01*
D02*
G37*
G36*
X-39910Y415153D02*
X-41667Y414922D01*
X-43305Y414244D01*
X-44711Y413165D01*
X-45789Y411759D01*
X-46468Y410121D01*
X-46699Y408364D01*
X-46468Y406607D01*
X-45789Y404969D01*
X-44711Y403563D01*
X-43305Y402485D01*
X-41667Y401806D01*
X-39910Y401575D01*
X-38153Y401806D01*
X-36515Y402485D01*
X-35109Y403563D01*
X-34030Y404969D01*
X-33352Y406607D01*
X-33121Y408364D01*
X-33352Y410121D01*
X-34030Y411759D01*
X-35109Y413165D01*
X-36515Y414244D01*
X-38153Y414922D01*
X-39910Y415153D01*
D02*
G37*
G36*
X218000Y407644D02*
X216414Y407328D01*
X215070Y406430D01*
X214172Y405086D01*
X213856Y403500D01*
X214172Y401914D01*
X215070Y400570D01*
X216414Y399672D01*
X218000Y399356D01*
X219586Y399672D01*
X220930Y400570D01*
X221828Y401914D01*
X222144Y403500D01*
X221828Y405086D01*
X220930Y406430D01*
X219586Y407328D01*
X218000Y407644D01*
D02*
G37*
G36*
X-14510Y422134D02*
X-18074Y421665D01*
X-21395Y420289D01*
X-24247Y418101D01*
X-26435Y415249D01*
X-27811Y411928D01*
X-28280Y408364D01*
X-27811Y404800D01*
X-26435Y401479D01*
X-24247Y398627D01*
X-24146Y398550D01*
X-24643Y397158D01*
X-24838Y396839D01*
X-26322Y396544D01*
X-27654Y395654D01*
X-28544Y394322D01*
X-28857Y392750D01*
X-28814Y392532D01*
X-41173Y380173D01*
X-41762Y379291D01*
X-41969Y378250D01*
Y360242D01*
X-43747Y359889D01*
X-44191Y360959D01*
X-45269Y362365D01*
X-46675Y363443D01*
X-48313Y364122D01*
X-50070Y364353D01*
X-51827Y364122D01*
X-53464Y363443D01*
X-54871Y362365D01*
X-55950Y360959D01*
X-56628Y359321D01*
X-56859Y357564D01*
X-56628Y355807D01*
X-55950Y354169D01*
X-55466Y353540D01*
X-55488Y353307D01*
X-56295Y351700D01*
X-57198Y351520D01*
X-58530Y350630D01*
X-59420Y349298D01*
X-59733Y347726D01*
X-59420Y346154D01*
X-58530Y344822D01*
X-57198Y343932D01*
X-55626Y343619D01*
X-54054Y343932D01*
X-52722Y344822D01*
X-51832Y346154D01*
X-51519Y347726D01*
X-51832Y349298D01*
X-50739Y350863D01*
X-50070Y350775D01*
X-48313Y351006D01*
X-46675Y351684D01*
X-45269Y352763D01*
X-44191Y354169D01*
X-43747Y355239D01*
X-41969Y354886D01*
Y352000D01*
X-41762Y350959D01*
X-41173Y350077D01*
X-39313Y348218D01*
X-39357Y348000D01*
X-39044Y346428D01*
X-38154Y345096D01*
X-36822Y344206D01*
X-35250Y343893D01*
X-33678Y344206D01*
X-32346Y345096D01*
X-31456Y346428D01*
X-31143Y348000D01*
X-31381Y349196D01*
X-30654Y350347D01*
X-30157Y350829D01*
X-29750Y350775D01*
X-27993Y351006D01*
X-26355Y351684D01*
X-24949Y352763D01*
X-23870Y354169D01*
X-23192Y355807D01*
X-22961Y357564D01*
X-23192Y359321D01*
X-23870Y360959D01*
X-24949Y362365D01*
X-26355Y363443D01*
X-27993Y364122D01*
X-29750Y364353D01*
X-31507Y364122D01*
X-33145Y363443D01*
X-34551Y362365D01*
X-34753Y362101D01*
X-36531Y362705D01*
Y377124D01*
X-25598Y388056D01*
X-25027Y387994D01*
X-24575Y387041D01*
X-24411Y386137D01*
X-26435Y383499D01*
X-27811Y380178D01*
X-28280Y376614D01*
X-27811Y373050D01*
X-26435Y369729D01*
X-24247Y366877D01*
X-21395Y364689D01*
X-18074Y363313D01*
X-14510Y362844D01*
X-10946Y363313D01*
X-7625Y364689D01*
X-4773Y366877D01*
X-2585Y369729D01*
X-1209Y373050D01*
X-740Y376614D01*
X-1209Y380178D01*
X-2585Y383499D01*
X-4773Y386351D01*
X-7625Y388539D01*
X-10946Y389915D01*
X-14510Y390384D01*
X-18074Y389915D01*
X-20269Y389006D01*
X-21448Y390442D01*
X-20956Y391178D01*
X-20643Y392750D01*
X-20956Y394322D01*
X-20965Y394336D01*
X-19787Y395772D01*
X-18074Y395063D01*
X-14510Y394594D01*
X-10946Y395063D01*
X-7625Y396439D01*
X-4773Y398627D01*
X-2585Y401479D01*
X-1209Y404800D01*
X-740Y408364D01*
X-1209Y411928D01*
X-2585Y415249D01*
X-4773Y418101D01*
X-7625Y420289D01*
X-10946Y421665D01*
X-14510Y422134D01*
D02*
G37*
G36*
X81000Y402644D02*
X79414Y402328D01*
X78070Y401430D01*
X77172Y400086D01*
X76856Y398500D01*
X77172Y396914D01*
X78070Y395570D01*
X79414Y394672D01*
X81000Y394356D01*
X82586Y394672D01*
X83930Y395570D01*
X84828Y396914D01*
X85144Y398500D01*
X84828Y400086D01*
X83930Y401430D01*
X82586Y402328D01*
X81000Y402644D01*
D02*
G37*
G36*
X57750Y402144D02*
X56164Y401828D01*
X54820Y400930D01*
X53922Y399586D01*
X53606Y398000D01*
X53922Y396414D01*
X54820Y395070D01*
X56164Y394172D01*
X57750Y393856D01*
X59336Y394172D01*
X60680Y395070D01*
X61578Y396414D01*
X61894Y398000D01*
X61578Y399586D01*
X60680Y400930D01*
X59336Y401828D01*
X57750Y402144D01*
D02*
G37*
G36*
X30961Y441894D02*
X29375Y441579D01*
X28031Y440681D01*
X27133Y439336D01*
X26817Y437751D01*
X27133Y436165D01*
X28031Y434821D01*
X28033Y434819D01*
Y432681D01*
X28031Y432679D01*
X27133Y431335D01*
X26817Y429749D01*
X27133Y428164D01*
X28031Y426819D01*
X28125Y426757D01*
Y424618D01*
X28031Y424556D01*
X27133Y423211D01*
X26817Y421626D01*
X27133Y420040D01*
X28031Y418695D01*
X28033Y418694D01*
Y416556D01*
X28031Y416554D01*
X27133Y415210D01*
X26817Y413624D01*
X27133Y412039D01*
X28031Y410695D01*
X28125Y410632D01*
Y408493D01*
X28031Y408430D01*
X27133Y407086D01*
X26817Y405500D01*
X27133Y403915D01*
X28031Y402570D01*
X28033Y402569D01*
Y400431D01*
X28031Y400429D01*
X27133Y399085D01*
X26817Y397500D01*
X27133Y395914D01*
X28031Y394570D01*
X29375Y393671D01*
X30961Y393356D01*
X32547Y393671D01*
X33891Y394570D01*
X34789Y395914D01*
X35105Y397500D01*
X34789Y399085D01*
X33891Y400429D01*
X33889Y400431D01*
Y402569D01*
X33891Y402570D01*
X34789Y403915D01*
X35105Y405500D01*
X34789Y407086D01*
X33891Y408430D01*
X33797Y408493D01*
Y410632D01*
X33891Y410695D01*
X34789Y412039D01*
X35105Y413624D01*
X34789Y415210D01*
X33891Y416554D01*
X33889Y416556D01*
Y418694D01*
X33891Y418695D01*
X34789Y420040D01*
X35105Y421626D01*
X34789Y423211D01*
X33891Y424556D01*
X33797Y424618D01*
Y426757D01*
X33891Y426819D01*
X34789Y428164D01*
X35105Y429749D01*
X34789Y431335D01*
X33891Y432679D01*
X33889Y432681D01*
Y434819D01*
X33891Y434821D01*
X34789Y436165D01*
X35105Y437751D01*
X34789Y439336D01*
X33891Y440681D01*
X32547Y441579D01*
X30961Y441894D01*
D02*
G37*
G36*
X173000Y399144D02*
X171414Y398828D01*
X170070Y397930D01*
X169172Y396586D01*
X168856Y395000D01*
X169172Y393414D01*
X170070Y392070D01*
X171414Y391172D01*
X173000Y390856D01*
X174586Y391172D01*
X175930Y392070D01*
X176828Y393414D01*
X177144Y395000D01*
X176828Y396586D01*
X175930Y397930D01*
X174586Y398828D01*
X173000Y399144D01*
D02*
G37*
G36*
X-40000Y394107D02*
X-41572Y393794D01*
X-42904Y392904D01*
X-43794Y391572D01*
X-44107Y390000D01*
X-43794Y388428D01*
X-42904Y387096D01*
X-41572Y386206D01*
X-40000Y385893D01*
X-38428Y386206D01*
X-37096Y387096D01*
X-36206Y388428D01*
X-35893Y390000D01*
X-36206Y391572D01*
X-37096Y392904D01*
X-38428Y393794D01*
X-40000Y394107D01*
D02*
G37*
G36*
X11750Y390644D02*
X10164Y390328D01*
X8820Y389430D01*
X7922Y388086D01*
X7606Y386500D01*
X7922Y384914D01*
X8820Y383570D01*
X10164Y382672D01*
X11750Y382356D01*
X13336Y382672D01*
X14680Y383570D01*
X15578Y384914D01*
X15894Y386500D01*
X15578Y388086D01*
X14680Y389430D01*
X13336Y390328D01*
X11750Y390644D01*
D02*
G37*
G36*
X57250Y390394D02*
X55664Y390078D01*
X54320Y389180D01*
X53422Y387836D01*
X53106Y386250D01*
X53422Y384664D01*
X54320Y383320D01*
X55664Y382422D01*
X57250Y382106D01*
X58836Y382422D01*
X60180Y383320D01*
X61078Y384664D01*
X61394Y386250D01*
X61078Y387836D01*
X60180Y389180D01*
X58836Y390078D01*
X57250Y390394D01*
D02*
G37*
G36*
X252500Y386394D02*
X250914Y386078D01*
X249570Y385180D01*
X248672Y383836D01*
X248356Y382250D01*
X248672Y380664D01*
X249570Y379320D01*
X250914Y378422D01*
X252500Y378106D01*
X254086Y378422D01*
X255430Y379320D01*
X256328Y380664D01*
X256644Y382250D01*
X256328Y383836D01*
X255430Y385180D01*
X254086Y386078D01*
X252500Y386394D01*
D02*
G37*
G36*
X263500Y386144D02*
X261914Y385828D01*
X260570Y384930D01*
X259672Y383586D01*
X259356Y382000D01*
X259672Y380414D01*
X260570Y379070D01*
X261914Y378172D01*
X263500Y377856D01*
X265086Y378172D01*
X266430Y379070D01*
X267328Y380414D01*
X267644Y382000D01*
X267328Y383586D01*
X266430Y384930D01*
X265086Y385828D01*
X263500Y386144D01*
D02*
G37*
G36*
X329500Y385040D02*
X327914Y384725D01*
X326570Y383826D01*
X325672Y382482D01*
X325356Y380896D01*
X325672Y379311D01*
X326570Y377966D01*
X327914Y377068D01*
X329500Y376753D01*
X331086Y377068D01*
X332430Y377966D01*
X333328Y379311D01*
X333644Y380896D01*
X333328Y382482D01*
X332430Y383826D01*
X331086Y384725D01*
X329500Y385040D01*
D02*
G37*
G36*
X307500D02*
X305914Y384725D01*
X304570Y383826D01*
X303672Y382482D01*
X303356Y380896D01*
X303672Y379311D01*
X304570Y377966D01*
X305914Y377068D01*
X307500Y376753D01*
X309086Y377068D01*
X310430Y377966D01*
X311328Y379311D01*
X311644Y380896D01*
X311328Y382482D01*
X310430Y383826D01*
X309086Y384725D01*
X307500Y385040D01*
D02*
G37*
G36*
X78416Y384144D02*
X76830Y383828D01*
X75486Y382930D01*
X74588Y381586D01*
X74272Y380000D01*
X74588Y378414D01*
X75486Y377070D01*
X76830Y376172D01*
X78416Y375856D01*
X80002Y376172D01*
X81346Y377070D01*
X83430Y377054D01*
X84774Y376156D01*
X86360Y375840D01*
X87946Y376156D01*
X89290Y377054D01*
X90188Y378398D01*
X90504Y379984D01*
X90188Y381570D01*
X89290Y382914D01*
X87946Y383812D01*
X86360Y384128D01*
X84774Y383812D01*
X83430Y382914D01*
X81346Y382930D01*
X80002Y383828D01*
X78416Y384144D01*
D02*
G37*
G36*
X57500Y378144D02*
X55914Y377828D01*
X54570Y376930D01*
X53672Y375586D01*
X53356Y374000D01*
X53672Y372414D01*
X54570Y371070D01*
X55914Y370172D01*
X57500Y369856D01*
X59086Y370172D01*
X60430Y371070D01*
X61328Y372414D01*
X61644Y374000D01*
X61328Y375586D01*
X60430Y376930D01*
X59086Y377828D01*
X57500Y378144D01*
D02*
G37*
G36*
X26751Y366411D02*
X25166Y366096D01*
X23821Y365198D01*
X22923Y363853D01*
X22608Y362268D01*
X22923Y360682D01*
X23821Y359338D01*
X25166Y358439D01*
X26751Y358124D01*
X28337Y358439D01*
X29681Y359338D01*
X30580Y360682D01*
X30895Y362268D01*
X30580Y363853D01*
X29681Y365198D01*
X28337Y366096D01*
X26751Y366411D01*
D02*
G37*
G36*
X179508Y366082D02*
X177922Y365766D01*
X176578Y364868D01*
X175680Y363524D01*
X175364Y361938D01*
X175680Y360352D01*
X176578Y359008D01*
X177922Y358110D01*
X179508Y357794D01*
X181094Y358110D01*
X182438Y359008D01*
X183336Y360352D01*
X183652Y361938D01*
X183336Y363524D01*
X182438Y364868D01*
X181094Y365766D01*
X179508Y366082D01*
D02*
G37*
G36*
X15000Y364144D02*
X13414Y363828D01*
X12070Y362930D01*
X11172Y361586D01*
X10856Y360000D01*
X11172Y358414D01*
X12070Y357070D01*
X13414Y356172D01*
X15000Y355856D01*
X16586Y356172D01*
X17930Y357070D01*
X18828Y358414D01*
X19144Y360000D01*
X18828Y361586D01*
X17930Y362930D01*
X16586Y363828D01*
X15000Y364144D01*
D02*
G37*
G36*
X214500Y362894D02*
X212914Y362578D01*
X211570Y361680D01*
X210672Y360336D01*
X210356Y358750D01*
X210672Y357164D01*
X211570Y355820D01*
X212914Y354922D01*
X214500Y354606D01*
X216086Y354922D01*
X217430Y355820D01*
X218328Y357164D01*
X218644Y358750D01*
X218328Y360336D01*
X217430Y361680D01*
X216086Y362578D01*
X214500Y362894D01*
D02*
G37*
G36*
X-10000Y359144D02*
X-11586Y358828D01*
X-12930Y357930D01*
X-13828Y356586D01*
X-14144Y355000D01*
X-13828Y353414D01*
X-12930Y352070D01*
X-11586Y351172D01*
X-10000Y350856D01*
X-8414Y351172D01*
X-7070Y352070D01*
X-6172Y353414D01*
X-5856Y355000D01*
X-6172Y356586D01*
X-7070Y357930D01*
X-8414Y358828D01*
X-10000Y359144D01*
D02*
G37*
G36*
X162250Y358644D02*
X160664Y358328D01*
X159320Y357430D01*
X158422Y356086D01*
X158106Y354500D01*
X158422Y352914D01*
X159320Y351570D01*
X160664Y350672D01*
X162250Y350356D01*
X163836Y350672D01*
X165180Y351570D01*
X166078Y352914D01*
X166394Y354500D01*
X166078Y356086D01*
X165180Y357430D01*
X163836Y358328D01*
X162250Y358644D01*
D02*
G37*
G36*
X286000Y355394D02*
X284414Y355078D01*
X283070Y354180D01*
X282172Y352836D01*
X281856Y351250D01*
X282172Y349664D01*
X283070Y348320D01*
X284414Y347422D01*
X286000Y347106D01*
X287586Y347422D01*
X288930Y348320D01*
X289828Y349664D01*
X290144Y351250D01*
X289828Y352836D01*
X288930Y354180D01*
X287586Y355078D01*
X286000Y355394D01*
D02*
G37*
G36*
X93500Y355144D02*
X91914Y354828D01*
X90570Y353930D01*
X89672Y352586D01*
X89356Y351000D01*
X89672Y349414D01*
X90570Y348070D01*
X91914Y347172D01*
X93500Y346856D01*
X95086Y347172D01*
X96430Y348070D01*
X97328Y349414D01*
X97644Y351000D01*
X97328Y352586D01*
X96430Y353930D01*
X95086Y354828D01*
X93500Y355144D01*
D02*
G37*
G36*
X226802Y354342D02*
X225216Y354026D01*
X223872Y353128D01*
X222974Y351784D01*
X222658Y350198D01*
X222974Y348612D01*
X223872Y347268D01*
X225216Y346370D01*
X226802Y346054D01*
X228388Y346370D01*
X229732Y347268D01*
X230630Y348612D01*
X230946Y350198D01*
X230630Y351784D01*
X229732Y353128D01*
X228388Y354026D01*
X226802Y354342D01*
D02*
G37*
G36*
X27501Y354161D02*
X25916Y353845D01*
X24571Y352947D01*
X23673Y351603D01*
X23358Y350017D01*
X23673Y348431D01*
X24571Y347087D01*
X25916Y346189D01*
X27501Y345873D01*
X29087Y346189D01*
X30431Y347087D01*
X31330Y348431D01*
X31645Y350017D01*
X31330Y351603D01*
X30431Y352947D01*
X29087Y353845D01*
X27501Y354161D01*
D02*
G37*
G36*
X175517Y351626D02*
X173932Y351311D01*
X172587Y350413D01*
X171689Y349068D01*
X171374Y347483D01*
X171689Y345897D01*
X172587Y344553D01*
X173932Y343655D01*
X175517Y343339D01*
X177103Y343655D01*
X178447Y344553D01*
X179345Y345897D01*
X179661Y347483D01*
X179345Y349068D01*
X178447Y350413D01*
X177103Y351311D01*
X175517Y351626D01*
D02*
G37*
G36*
X255750Y350394D02*
X254164Y350078D01*
X252820Y349180D01*
X251922Y347836D01*
X251606Y346250D01*
X251922Y344664D01*
X252820Y343320D01*
X254164Y342422D01*
X255750Y342106D01*
X257336Y342422D01*
X258680Y343320D01*
X259578Y344664D01*
X259894Y346250D01*
X259578Y347836D01*
X258680Y349180D01*
X257336Y350078D01*
X255750Y350394D01*
D02*
G37*
G36*
X115250Y357644D02*
X113664Y357328D01*
X112320Y356430D01*
X111422Y355086D01*
X111106Y353500D01*
X111422Y351914D01*
X112320Y350570D01*
X113664Y349672D01*
X114313Y347730D01*
X114199Y347559D01*
X113883Y345973D01*
X114199Y344388D01*
X115097Y343043D01*
X116441Y342145D01*
X118027Y341830D01*
X119612Y342145D01*
X120957Y343043D01*
X121855Y344388D01*
X122170Y345973D01*
X121855Y347559D01*
X120957Y348903D01*
X119612Y349801D01*
X118964Y351743D01*
X119078Y351914D01*
X119394Y353500D01*
X119078Y355086D01*
X118180Y356430D01*
X116836Y357328D01*
X115250Y357644D01*
D02*
G37*
G36*
X65000Y349144D02*
X63414Y348828D01*
X62070Y347930D01*
X61172Y346586D01*
X60856Y345000D01*
X61172Y343414D01*
X62070Y342070D01*
X63414Y341172D01*
X65000Y340856D01*
X66586Y341172D01*
X67930Y342070D01*
X68828Y343414D01*
X69144Y345000D01*
X68828Y346586D01*
X67930Y347930D01*
X66586Y348828D01*
X65000Y349144D01*
D02*
G37*
G36*
X210750Y344644D02*
X209164Y344328D01*
X207820Y343430D01*
X206922Y342086D01*
X206606Y340500D01*
X206922Y338914D01*
X207820Y337570D01*
X209164Y336672D01*
X210750Y336356D01*
X212336Y336672D01*
X213680Y337570D01*
X214578Y338914D01*
X214894Y340500D01*
X214578Y342086D01*
X213680Y343430D01*
X212336Y344328D01*
X210750Y344644D01*
D02*
G37*
G36*
X249250Y341894D02*
X247664Y341578D01*
X246320Y340680D01*
X245422Y339336D01*
X245106Y337750D01*
X245422Y336164D01*
X246320Y334820D01*
X247664Y333922D01*
X249250Y333606D01*
X250836Y333922D01*
X252180Y334820D01*
X253078Y336164D01*
X253394Y337750D01*
X253078Y339336D01*
X252180Y340680D01*
X250836Y341578D01*
X249250Y341894D01*
D02*
G37*
G36*
X140500D02*
X138914Y341578D01*
X137570Y340680D01*
X136672Y339336D01*
X136356Y337750D01*
X136672Y336164D01*
X137570Y334820D01*
X138914Y333922D01*
X140500Y333606D01*
X142086Y333922D01*
X143430Y334820D01*
X144328Y336164D01*
X144644Y337750D01*
X144328Y339336D01*
X143430Y340680D01*
X142086Y341578D01*
X140500Y341894D01*
D02*
G37*
G36*
X259250Y339644D02*
X257664Y339328D01*
X256320Y338430D01*
X255422Y337086D01*
X255106Y335500D01*
X255422Y333914D01*
X256320Y332570D01*
X257664Y331672D01*
X259250Y331356D01*
X260836Y331672D01*
X262180Y332570D01*
X263078Y333914D01*
X263394Y335500D01*
X263078Y337086D01*
X262180Y338430D01*
X260836Y339328D01*
X259250Y339644D01*
D02*
G37*
G36*
X227000Y336144D02*
X225414Y335828D01*
X224070Y334930D01*
X223172Y333586D01*
X222856Y332000D01*
X223172Y330414D01*
X224070Y329070D01*
X225414Y328172D01*
X227000Y327856D01*
X228586Y328172D01*
X229930Y329070D01*
X230828Y330414D01*
X231144Y332000D01*
X230828Y333586D01*
X229930Y334930D01*
X228586Y335828D01*
X227000Y336144D01*
D02*
G37*
G36*
X8000Y334394D02*
X6414Y334078D01*
X5070Y333180D01*
X4172Y331836D01*
X3856Y330250D01*
X4172Y328664D01*
X5070Y327320D01*
X6414Y326422D01*
X8000Y326106D01*
X9586Y326422D01*
X10930Y327320D01*
X11828Y328664D01*
X12144Y330250D01*
X11828Y331836D01*
X10930Y333180D01*
X9586Y334078D01*
X8000Y334394D01*
D02*
G37*
G36*
X-30000Y334144D02*
X-31586Y333828D01*
X-32930Y332930D01*
X-33828Y331586D01*
X-34144Y330000D01*
X-33828Y328414D01*
X-32930Y327070D01*
X-31586Y326172D01*
X-30000Y325856D01*
X-28414Y326172D01*
X-27070Y327070D01*
X-26172Y328414D01*
X-25856Y330000D01*
X-26172Y331586D01*
X-27070Y332930D01*
X-28414Y333828D01*
X-30000Y334144D01*
D02*
G37*
G36*
X60500Y333644D02*
X58914Y333328D01*
X57570Y332430D01*
X56672Y331086D01*
X56356Y329500D01*
X56672Y327914D01*
X57570Y326570D01*
X58914Y325672D01*
X60500Y325356D01*
X62086Y325672D01*
X63430Y326570D01*
X64328Y327914D01*
X64644Y329500D01*
X64328Y331086D01*
X63430Y332430D01*
X62086Y333328D01*
X60500Y333644D01*
D02*
G37*
G36*
X88250Y331394D02*
X86664Y331078D01*
X85320Y330180D01*
X84422Y328836D01*
X84106Y327250D01*
X84283Y326364D01*
X84252Y326298D01*
X82952Y324998D01*
X82886Y324967D01*
X82000Y325144D01*
X80414Y324828D01*
X79070Y323930D01*
X78172Y322586D01*
X77856Y321000D01*
X78060Y319975D01*
X77009Y318197D01*
X37652D01*
X36430Y319014D01*
X34250Y319447D01*
X32070Y319014D01*
X30221Y317779D01*
X28986Y315930D01*
X28552Y313750D01*
X28986Y311570D01*
X30221Y309721D01*
X31471Y308471D01*
X33320Y307236D01*
X35500Y306803D01*
X38754D01*
X39020Y306464D01*
X39541Y305025D01*
X38924Y304100D01*
X38609Y302515D01*
X38924Y300929D01*
X39822Y299585D01*
X41166Y298687D01*
X41743Y298572D01*
X42816Y297758D01*
X42809Y296049D01*
X42117Y295594D01*
X41177Y295187D01*
X40448Y295674D01*
X38862Y295990D01*
X37276Y295674D01*
X35932Y294776D01*
X35034Y293432D01*
X34718Y291846D01*
X34813Y291373D01*
X33503Y289595D01*
X26250D01*
X23822Y289112D01*
X21764Y287736D01*
X20388Y285678D01*
X19967Y283563D01*
X14799D01*
X14624Y283528D01*
X14446D01*
X14281Y283460D01*
X14105Y283425D01*
X13957Y283326D01*
X13792Y283257D01*
X13666Y283131D01*
X13517Y283032D01*
X13418Y282883D01*
X13292Y282757D01*
X12972Y282278D01*
X11723Y281444D01*
X10250Y281151D01*
X8777Y281444D01*
X7528Y282278D01*
X7208Y282757D01*
X7082Y282883D01*
X6983Y283032D01*
X6834Y283131D01*
X6708Y283257D01*
X6543Y283326D01*
X6395Y283425D01*
X6220Y283460D01*
X6055Y283528D01*
X5876D01*
X5701Y283563D01*
X3212D01*
X2032Y283798D01*
X852Y283563D01*
X0D01*
X-694Y283425D01*
X-1282Y283032D01*
X-1675Y282444D01*
X-1813Y281750D01*
Y281156D01*
X-2112Y279654D01*
X-1813Y278152D01*
Y274390D01*
X-1757Y274111D01*
X-1724Y273828D01*
X-1689Y273766D01*
X-1675Y273696D01*
X-1517Y273460D01*
X-1377Y273211D01*
Y272791D01*
X-1675Y271804D01*
X-1689Y271734D01*
X-1724Y271672D01*
X-1757Y271389D01*
X-1813Y271110D01*
Y251715D01*
X-1675Y251021D01*
X-1282Y250433D01*
X-971Y248420D01*
X-8175Y241217D01*
X-9270Y239578D01*
X-9654Y237646D01*
Y99656D01*
Y85500D01*
X-11297Y84820D01*
X-14905Y88428D01*
Y89250D01*
X-15388Y91678D01*
X-16763Y93736D01*
X-18822Y95112D01*
X-21250Y95595D01*
X-23678Y95112D01*
X-25736Y93736D01*
X-27112Y91678D01*
X-27595Y89250D01*
Y85800D01*
X-27112Y83372D01*
X-25736Y81313D01*
X-18703Y74279D01*
X-19243Y72306D01*
X-20180Y71680D01*
X-21078Y70336D01*
X-21394Y68750D01*
X-21078Y67164D01*
X-20180Y65820D01*
X-18836Y64922D01*
X-17250Y64606D01*
X-15664Y64922D01*
X-14419Y65754D01*
X-13823Y65605D01*
X-13261Y63940D01*
X-13329Y63839D01*
X-13644Y62253D01*
X-13329Y60667D01*
X-12430Y59323D01*
X-11086Y58425D01*
X-9500Y58109D01*
X-7915Y58425D01*
X-6571Y59323D01*
X-5859Y59380D01*
X-5531Y59008D01*
X-5470Y57032D01*
X-6368Y55688D01*
X-6684Y54102D01*
X-6368Y52516D01*
X-5470Y51172D01*
X-4126Y50274D01*
X-2540Y49958D01*
X-954Y50274D01*
X390Y51172D01*
X836Y51839D01*
X2915Y52275D01*
X8609Y46581D01*
X10668Y45205D01*
X13096Y44722D01*
X14260D01*
X15747Y43082D01*
X16060Y41510D01*
X16950Y40178D01*
X18282Y39288D01*
X19854Y38975D01*
X21426Y39288D01*
X22758Y40178D01*
X23648Y41510D01*
X23961Y43082D01*
X25447Y44722D01*
X52245D01*
X54276Y44318D01*
X88629D01*
X88784Y44287D01*
X101725D01*
X102745Y44490D01*
X103356Y44117D01*
X104458Y43018D01*
X104677Y41916D01*
X105575Y40572D01*
X106920Y39674D01*
X108505Y39358D01*
X110091Y39674D01*
X111435Y40572D01*
X112333Y41916D01*
X112430Y42404D01*
X113119Y43649D01*
X114355Y44037D01*
X120649D01*
X122108Y42259D01*
X122106Y42250D01*
X122422Y40664D01*
X123320Y39320D01*
X124664Y38422D01*
X126250Y38106D01*
X127836Y38422D01*
X129180Y39320D01*
X130078Y40664D01*
X130394Y42250D01*
X130392Y42259D01*
X131851Y44037D01*
X132727D01*
X134003Y44291D01*
X136466D01*
X137453Y42577D01*
X137444Y42513D01*
X137143Y41000D01*
X137456Y39428D01*
X138346Y38096D01*
X137959Y36260D01*
X124761Y23061D01*
X124241Y22284D01*
X124059Y21367D01*
Y18697D01*
X118911Y13549D01*
X118392Y12772D01*
X116494Y12104D01*
X114922Y11791D01*
X113589Y10901D01*
X111659Y10904D01*
X110327Y11795D01*
X108755Y12107D01*
X107184Y11795D01*
X105851Y10904D01*
X105692Y10667D01*
X103554D01*
X103398Y10901D01*
X102065Y11791D01*
X100493Y12104D01*
X98922Y11791D01*
X97590Y10901D01*
X97563Y10861D01*
X95424D01*
X95398Y10901D01*
X94065Y11791D01*
X92493Y12104D01*
X90922Y11791D01*
X89590Y10901D01*
X89563Y10861D01*
X87424D01*
X87397Y10901D01*
X86065Y11791D01*
X84494Y12104D01*
X82922Y11791D01*
X81589Y10901D01*
X80699Y9568D01*
X80387Y7997D01*
X80699Y6425D01*
X81589Y5093D01*
X82922Y4202D01*
X84494Y3890D01*
X86065Y4202D01*
X87397Y5093D01*
X87424Y5133D01*
X89563D01*
X89590Y5093D01*
X90922Y4202D01*
X92493Y3890D01*
X94065Y4202D01*
X95398Y5093D01*
X95424Y5133D01*
X97563D01*
X97590Y5093D01*
X98922Y4202D01*
X100493Y3890D01*
X102065Y4202D01*
X103398Y5093D01*
X103556Y5331D01*
X105695D01*
X105851Y5096D01*
X107184Y4206D01*
X108755Y3893D01*
X110327Y4206D01*
X111659Y5096D01*
X113587Y5093D01*
X114664Y3759D01*
X114280Y3099D01*
X114098Y2182D01*
Y-4750D01*
X113589Y-5089D01*
X113563Y-5130D01*
X111424D01*
X111397Y-5089D01*
X110065Y-4199D01*
X108493Y-3887D01*
X106922Y-4199D01*
X105590Y-5089D01*
X105563Y-5130D01*
X103424D01*
X103398Y-5089D01*
X102065Y-4199D01*
X100493Y-3887D01*
X98922Y-4199D01*
X97590Y-5089D01*
X97563Y-5130D01*
X95424D01*
X95398Y-5089D01*
X94065Y-4199D01*
X92493Y-3887D01*
X90922Y-4199D01*
X89590Y-5089D01*
X89563Y-5130D01*
X87424D01*
X87397Y-5089D01*
X86065Y-4199D01*
X84494Y-3887D01*
X82922Y-4199D01*
X81589Y-5089D01*
X81563Y-5130D01*
X79424D01*
X79398Y-5089D01*
X78065Y-4199D01*
X76494Y-3887D01*
X74922Y-4199D01*
X73590Y-5089D01*
X73563Y-5130D01*
X71424D01*
X71398Y-5089D01*
X70065Y-4199D01*
X68493Y-3887D01*
X66922Y-4199D01*
X65589Y-5089D01*
X65563Y-5130D01*
X63424D01*
X63397Y-5089D01*
X62065Y-4199D01*
X60493Y-3887D01*
X58922Y-4199D01*
X57590Y-5089D01*
X57563Y-5130D01*
X55424D01*
X55398Y-5089D01*
X54065Y-4199D01*
X52494Y-3887D01*
X50922Y-4199D01*
X49590Y-5089D01*
X48699Y-6422D01*
X48387Y-7994D01*
X48699Y-9565D01*
X49590Y-10898D01*
X50922Y-11788D01*
X52494Y-12100D01*
X54065Y-11788D01*
X55398Y-10898D01*
X55424Y-10857D01*
X57563D01*
X57590Y-10898D01*
X58922Y-11788D01*
X60493Y-12100D01*
X62065Y-11788D01*
X63397Y-10898D01*
X63424Y-10857D01*
X65563D01*
X65589Y-10898D01*
X66922Y-11788D01*
X68493Y-12100D01*
X70065Y-11788D01*
X71398Y-10898D01*
X71424Y-10857D01*
X73563D01*
X73590Y-10898D01*
X74922Y-11788D01*
X76494Y-12100D01*
X78065Y-11788D01*
X79398Y-10898D01*
X79424Y-10857D01*
X81563D01*
X81589Y-10898D01*
X82922Y-11788D01*
X84494Y-12100D01*
X86065Y-11788D01*
X87397Y-10898D01*
X87424Y-10857D01*
X89563D01*
X89590Y-10898D01*
X90922Y-11788D01*
X92493Y-12100D01*
X94065Y-11788D01*
X95398Y-10898D01*
X95424Y-10857D01*
X97563D01*
X97590Y-10898D01*
X98922Y-11788D01*
X100493Y-12100D01*
X102065Y-11788D01*
X103398Y-10898D01*
X103424Y-10857D01*
X105563D01*
X105590Y-10898D01*
X106922Y-11788D01*
X108493Y-12100D01*
X110065Y-11788D01*
X111397Y-10898D01*
X111424Y-10857D01*
X113563D01*
X113589Y-10898D01*
X114922Y-11788D01*
X116494Y-12100D01*
X118065Y-11788D01*
X119397Y-10898D01*
X119424Y-10857D01*
X121563D01*
X121589Y-10898D01*
X122922Y-11788D01*
X124494Y-12100D01*
X126065Y-11788D01*
X127397Y-10898D01*
X127424Y-10857D01*
X129563D01*
X129590Y-10898D01*
X130922Y-11788D01*
X132493Y-12100D01*
X134065Y-11788D01*
X135398Y-10898D01*
X136288Y-9565D01*
X136600Y-7994D01*
X136288Y-6422D01*
X135884Y-5818D01*
X137166Y-4536D01*
X137178Y-4544D01*
X138750Y-4857D01*
X140322Y-4544D01*
X141654Y-3654D01*
X142544Y-2322D01*
X142857Y-750D01*
X142544Y822D01*
X141654Y2154D01*
X141648Y2158D01*
X142023Y4046D01*
X142829Y4206D01*
X144161Y5096D01*
X144313Y5324D01*
X146451D01*
X146603Y5096D01*
X147936Y4206D01*
X149507Y3893D01*
X151079Y4206D01*
X152411Y5096D01*
X153302Y6429D01*
X153614Y8000D01*
X153302Y9572D01*
X152411Y10904D01*
X152586Y12783D01*
X170177Y30373D01*
X171674D01*
X172591Y30556D01*
X173368Y31075D01*
X175528Y33235D01*
X175679D01*
X176951Y32385D01*
X178537Y32070D01*
X180122Y32385D01*
X181467Y33284D01*
X182365Y34628D01*
X182680Y36214D01*
X182365Y37799D01*
X182179Y38077D01*
X182998Y40052D01*
X183428Y40138D01*
X185487Y41514D01*
X185487Y41514D01*
X186656Y42683D01*
X188585Y42098D01*
X188672Y41664D01*
X189570Y40320D01*
X190914Y39422D01*
X192500Y39106D01*
X194086Y39422D01*
X195154Y40136D01*
X195404Y40116D01*
X196274Y39830D01*
X196971Y39425D01*
X197172Y38414D01*
X198070Y37070D01*
X199414Y36172D01*
X201000Y35856D01*
X202586Y36172D01*
X203930Y37070D01*
X204828Y38414D01*
X205144Y40000D01*
X204828Y41586D01*
X203930Y42930D01*
X202586Y43828D01*
X201000Y44144D01*
X199414Y43828D01*
X198346Y43114D01*
X198096Y43134D01*
X197226Y43420D01*
X196529Y43825D01*
X196328Y44836D01*
X195430Y46180D01*
X194086Y47078D01*
X193652Y47165D01*
X193067Y49094D01*
X195198Y51225D01*
X197127Y50640D01*
X197172Y50414D01*
X198070Y49070D01*
X199414Y48172D01*
X201000Y47856D01*
X202586Y48172D01*
X203930Y49070D01*
X204828Y50414D01*
X205144Y52000D01*
X204828Y53586D01*
X203930Y54930D01*
X202586Y55828D01*
X202361Y55873D01*
X201775Y57802D01*
X211766Y67793D01*
X213141Y69851D01*
X215076Y70594D01*
X216662Y70278D01*
X218248Y70594D01*
X219592Y71492D01*
X220490Y72836D01*
X220806Y74422D01*
X220490Y76008D01*
X219592Y77352D01*
X218248Y78250D01*
X216662Y78566D01*
X215402Y78315D01*
X214215Y78943D01*
X213624Y79418D01*
Y109654D01*
X213990Y111494D01*
Y123576D01*
X218198D01*
X220626Y124059D01*
X222685Y125435D01*
X225735Y128484D01*
X225833Y128504D01*
X227892Y129880D01*
X237486Y139474D01*
X238862Y141533D01*
X239345Y143961D01*
Y161264D01*
X239648Y161661D01*
X240856Y162594D01*
X242012Y162365D01*
X243598Y162680D01*
X244942Y163578D01*
X245662Y164656D01*
X246873Y164832D01*
X247622Y164767D01*
X248082Y164078D01*
X249427Y163180D01*
X251012Y162864D01*
X252598Y163180D01*
X253942Y164078D01*
X255896Y164202D01*
X257240Y163304D01*
X258826Y162988D01*
X260412Y163304D01*
X261756Y164202D01*
X262654Y165546D01*
X262970Y167132D01*
X262654Y168718D01*
X261756Y170062D01*
X260412Y170960D01*
X258826Y171276D01*
X257240Y170960D01*
X255896Y170062D01*
X253942Y169938D01*
X252598Y170836D01*
X251012Y171152D01*
X249427Y170836D01*
X248082Y169938D01*
X247362Y168861D01*
X246151Y168684D01*
X245402Y168749D01*
X244942Y169438D01*
X243598Y170336D01*
X243286Y170398D01*
X241945Y170938D01*
X241607Y172384D01*
Y178323D01*
X241124Y180751D01*
X239749Y182809D01*
X239345Y183213D01*
Y218328D01*
X241123Y219331D01*
X242250Y219106D01*
X243836Y219422D01*
X245180Y220320D01*
X246078Y221664D01*
X246394Y223250D01*
X246078Y224836D01*
X245180Y226180D01*
X243836Y227078D01*
X242250Y227394D01*
X241123Y227169D01*
X239345Y228172D01*
Y248250D01*
X238862Y250678D01*
X237486Y252737D01*
X216474Y273749D01*
X214416Y275124D01*
X211987Y275607D01*
X172894D01*
X171944Y277385D01*
X172230Y277814D01*
X172546Y279400D01*
X172230Y280986D01*
X171332Y282330D01*
X169988Y283228D01*
X168402Y283544D01*
X166958Y283972D01*
X166642Y285558D01*
X165744Y286902D01*
X164400Y287800D01*
X162814Y288116D01*
X161228Y287800D01*
X160758Y287486D01*
X158680Y287680D01*
X157336Y288578D01*
X155750Y288894D01*
X154164Y288578D01*
X152820Y287680D01*
X151922Y286336D01*
X151606Y284750D01*
X151922Y283164D01*
X152820Y281820D01*
X154164Y280922D01*
X155750Y280606D01*
X157336Y280922D01*
X157675Y281148D01*
X159876Y281042D01*
X160171Y280851D01*
X161228Y280144D01*
X162814Y279828D01*
X164258Y279400D01*
X164574Y277814D01*
X164860Y277385D01*
X163910Y275607D01*
X143451D01*
X142501Y277385D01*
X142742Y277746D01*
X143956Y278874D01*
X144615Y278743D01*
X145542Y278558D01*
X147128Y278874D01*
X148472Y279772D01*
X149370Y281116D01*
X149686Y282702D01*
X149370Y284288D01*
X148472Y285632D01*
X147128Y286530D01*
X145542Y286846D01*
X143956Y286530D01*
X142612Y285632D01*
X141714Y284288D01*
X140500Y283160D01*
X139841Y283291D01*
X138914Y283476D01*
X137328Y283160D01*
X135984Y282262D01*
X135086Y280918D01*
X134770Y279332D01*
X135086Y277746D01*
X135327Y277385D01*
X134376Y275607D01*
X101632D01*
X100148Y277264D01*
X99833Y278849D01*
X98935Y280194D01*
X97590Y281092D01*
X96005Y281407D01*
X94419Y281092D01*
X93075Y280194D01*
X92177Y278849D01*
X91861Y277264D01*
X90378Y275607D01*
X53116D01*
X47859Y280865D01*
X48215Y283022D01*
X48682Y283334D01*
X49580Y284678D01*
X49896Y286264D01*
X49580Y287850D01*
X48682Y289194D01*
X47418Y290039D01*
X47367Y290392D01*
X47512Y291870D01*
X48576Y292082D01*
X49920Y292980D01*
X50818Y294324D01*
X51134Y295910D01*
X50818Y297496D01*
X49920Y298840D01*
X48576Y299738D01*
X48000Y299853D01*
X46902Y300686D01*
X46749Y301777D01*
X46896Y302515D01*
X46580Y304100D01*
X45963Y305025D01*
X46484Y306464D01*
X46750Y306803D01*
X92398D01*
X94578Y307236D01*
X96427Y308471D01*
X103847Y315891D01*
X105987D01*
X108167Y316325D01*
X110015Y317560D01*
X111250Y319408D01*
X111684Y321589D01*
X111250Y323769D01*
X110015Y325617D01*
X108167Y326852D01*
X105987Y327286D01*
X101487D01*
X99306Y326852D01*
X97458Y325617D01*
X90038Y318197D01*
X86991D01*
X85940Y319975D01*
X86144Y321000D01*
X85968Y321885D01*
X85998Y321952D01*
X87298Y323252D01*
X87365Y323283D01*
X88250Y323106D01*
X89836Y323422D01*
X91180Y324320D01*
X92078Y325664D01*
X92394Y327250D01*
X92078Y328836D01*
X91180Y330180D01*
X89836Y331078D01*
X88250Y331394D01*
D02*
G37*
G36*
X166000Y328144D02*
X164414Y327828D01*
X163070Y326930D01*
X162172Y325586D01*
X161856Y324000D01*
X162172Y322414D01*
X163070Y321070D01*
X164414Y320172D01*
X166000Y319856D01*
X167586Y320172D01*
X168930Y321070D01*
X169828Y322414D01*
X170144Y324000D01*
X169828Y325586D01*
X168930Y326930D01*
X167586Y327828D01*
X166000Y328144D01*
D02*
G37*
G36*
X154250D02*
X152664Y327828D01*
X151320Y326930D01*
X150422Y325586D01*
X150106Y324000D01*
X150422Y322414D01*
X151320Y321070D01*
X152664Y320172D01*
X154250Y319856D01*
X155836Y320172D01*
X157180Y321070D01*
X158078Y322414D01*
X158394Y324000D01*
X158078Y325586D01*
X157180Y326930D01*
X155836Y327828D01*
X154250Y328144D01*
D02*
G37*
G36*
X141500Y326394D02*
X139914Y326078D01*
X138570Y325180D01*
X137672Y323836D01*
X137356Y322250D01*
X137672Y320664D01*
X138570Y319320D01*
X139914Y318422D01*
X141500Y318106D01*
X143086Y318422D01*
X144430Y319320D01*
X145328Y320664D01*
X145644Y322250D01*
X145328Y323836D01*
X144430Y325180D01*
X143086Y326078D01*
X141500Y326394D01*
D02*
G37*
G36*
X234250Y368894D02*
X232664Y368578D01*
X231320Y367680D01*
X230422Y366336D01*
X230106Y364750D01*
X230422Y363164D01*
X231320Y361820D01*
X232664Y360922D01*
X234250Y360606D01*
X235836Y360922D01*
X237180Y361820D01*
X237237Y361906D01*
X283096D01*
X283320Y361570D01*
X284664Y360672D01*
X286250Y360356D01*
X287836Y360672D01*
X289180Y361570D01*
X289321Y361781D01*
X298624D01*
X304781Y355624D01*
Y318493D01*
X304513Y318050D01*
X304499Y318042D01*
X302578Y318586D01*
X301680Y319930D01*
X300336Y320828D01*
X298750Y321144D01*
X297164Y320828D01*
X295820Y319930D01*
X294922Y318586D01*
X294606Y317000D01*
X294922Y315414D01*
X295820Y314070D01*
X297164Y313172D01*
X298750Y312856D01*
X300336Y313172D01*
X301625Y314033D01*
X302460Y313897D01*
X303413Y313464D01*
X303672Y312164D01*
X304570Y310820D01*
X305914Y309922D01*
X307500Y309606D01*
X309086Y309922D01*
X310430Y310820D01*
X311328Y312164D01*
X311644Y313750D01*
X311328Y315336D01*
X310430Y316680D01*
X310219Y316821D01*
Y356750D01*
X310012Y357791D01*
X309423Y358673D01*
X301673Y366423D01*
X300791Y367012D01*
X299750Y367219D01*
X289321D01*
X289180Y367430D01*
X287836Y368328D01*
X286250Y368644D01*
X284664Y368328D01*
X283320Y367430D01*
X283263Y367344D01*
X237404D01*
X237180Y367680D01*
X235836Y368578D01*
X234250Y368894D01*
D02*
G37*
G36*
X327250Y320144D02*
X325664Y319828D01*
X324320Y318930D01*
X323422Y317586D01*
X323317Y317057D01*
X321430Y316680D01*
X320086Y317578D01*
X318500Y317894D01*
X316914Y317578D01*
X315570Y316680D01*
X314672Y315336D01*
X314356Y313750D01*
X314672Y312164D01*
X315570Y310820D01*
X316914Y309922D01*
X318500Y309606D01*
X320086Y309922D01*
X321430Y310820D01*
X322328Y312164D01*
X322433Y312693D01*
X324320Y313070D01*
X325664Y312172D01*
X327250Y311856D01*
X328836Y312172D01*
X330180Y313070D01*
X331078Y314414D01*
X331394Y316000D01*
X331078Y317586D01*
X330180Y318930D01*
X328836Y319828D01*
X327250Y320144D01*
D02*
G37*
G36*
X259750Y316644D02*
X258164Y316328D01*
X256991Y315544D01*
X255430Y314680D01*
X254086Y315578D01*
X252500Y315894D01*
X250914Y315578D01*
X249570Y314680D01*
X248672Y313336D01*
X248356Y311750D01*
X248672Y310164D01*
X249570Y308820D01*
X250914Y307922D01*
X252500Y307606D01*
X254086Y307922D01*
X255259Y308706D01*
X256820Y309570D01*
X258164Y308672D01*
X259750Y308356D01*
X261336Y308672D01*
X262680Y309570D01*
X263578Y310914D01*
X263894Y312500D01*
X263578Y314086D01*
X262680Y315430D01*
X261336Y316328D01*
X259750Y316644D01*
D02*
G37*
G36*
X-26750Y322019D02*
X-28336Y321703D01*
X-29680Y320805D01*
X-30578Y319461D01*
X-30894Y317875D01*
X-30578Y316289D01*
X-29680Y314945D01*
X-28336Y314047D01*
X-26750Y313731D01*
X-25164Y314047D01*
X-23820Y314945D01*
X-22922Y316289D01*
X-22606Y317875D01*
X-22922Y319461D01*
X-23820Y320805D01*
X-25164Y321703D01*
X-26750Y322019D01*
D02*
G37*
G36*
X208750Y327144D02*
X207164Y326828D01*
X205820Y325930D01*
X204922Y324586D01*
X204606Y323000D01*
X204806Y321996D01*
X203932Y320669D01*
X203499Y320344D01*
X202164Y320078D01*
X200820Y319180D01*
X199922Y317836D01*
X199606Y316250D01*
X199922Y314664D01*
X200820Y313320D01*
X202164Y312422D01*
X203750Y312106D01*
X205336Y312422D01*
X206680Y313320D01*
X207578Y314664D01*
X207894Y316250D01*
X207694Y317254D01*
X208568Y318581D01*
X209001Y318906D01*
X210336Y319172D01*
X211680Y320070D01*
X212578Y321414D01*
X212894Y323000D01*
X212578Y324586D01*
X211680Y325930D01*
X210336Y326828D01*
X208750Y327144D01*
D02*
G37*
G36*
X285500Y316144D02*
X283914Y315828D01*
X282570Y314930D01*
X281672Y313586D01*
X281356Y312000D01*
X281672Y310414D01*
X282570Y309070D01*
X283914Y308172D01*
X285500Y307856D01*
X287086Y308172D01*
X288430Y309070D01*
X289328Y310414D01*
X289644Y312000D01*
X289328Y313586D01*
X288430Y314930D01*
X287086Y315828D01*
X285500Y316144D01*
D02*
G37*
G36*
X271000D02*
X269414Y315828D01*
X268070Y314930D01*
X267172Y313586D01*
X266856Y312000D01*
X267172Y310414D01*
X268070Y309070D01*
X269414Y308172D01*
X271000Y307856D01*
X272586Y308172D01*
X273930Y309070D01*
X274828Y310414D01*
X275144Y312000D01*
X274828Y313586D01*
X273930Y314930D01*
X272586Y315828D01*
X271000Y316144D01*
D02*
G37*
G36*
X-4750Y316019D02*
X-6336Y315703D01*
X-7680Y314805D01*
X-8578Y313461D01*
X-8894Y311875D01*
X-8578Y310289D01*
X-7680Y308945D01*
X-6336Y308047D01*
X-4750Y307731D01*
X-3164Y308047D01*
X-1820Y308945D01*
X-922Y310289D01*
X-606Y311875D01*
X-922Y313461D01*
X-1820Y314805D01*
X-3164Y315703D01*
X-4750Y316019D01*
D02*
G37*
G36*
X224761Y320659D02*
X223175Y320344D01*
X221831Y319445D01*
X220933Y318101D01*
X220617Y316515D01*
X220933Y314930D01*
X221831Y313585D01*
X223175Y312687D01*
X224761Y312372D01*
X226347Y312687D01*
X227691Y313585D01*
X227836Y313803D01*
X229940Y313752D01*
X230242Y313300D01*
X231078Y312741D01*
X231295Y311105D01*
X231200Y310684D01*
X230820Y310430D01*
X229922Y309086D01*
X229606Y307500D01*
X229922Y305914D01*
X230820Y304570D01*
X232164Y303672D01*
X233750Y303356D01*
X235336Y303672D01*
X236680Y304570D01*
X237578Y305914D01*
X237785Y306956D01*
X239120Y307752D01*
X239635Y307858D01*
X239914Y307672D01*
X241500Y307356D01*
X243086Y307672D01*
X244430Y308570D01*
X245328Y309914D01*
X245644Y311500D01*
X245328Y313086D01*
X244430Y314430D01*
X243086Y315328D01*
X241500Y315644D01*
X239914Y315328D01*
X238801Y314584D01*
X237924Y314906D01*
X237164Y315466D01*
X237316Y316230D01*
X237000Y317816D01*
X236102Y319160D01*
X234758Y320058D01*
X233172Y320374D01*
X231586Y320058D01*
X230242Y319160D01*
X230097Y318943D01*
X227993Y318994D01*
X227691Y319445D01*
X226347Y320344D01*
X224761Y320659D01*
D02*
G37*
G36*
X-26750Y310019D02*
X-28336Y309703D01*
X-29680Y308805D01*
X-30578Y307461D01*
X-30894Y305875D01*
X-30578Y304289D01*
X-29680Y302945D01*
X-28336Y302047D01*
X-26750Y301731D01*
X-25164Y302047D01*
X-23820Y302945D01*
X-22922Y304289D01*
X-22606Y305875D01*
X-22922Y307461D01*
X-23820Y308805D01*
X-25164Y309703D01*
X-26750Y310019D01*
D02*
G37*
G36*
X-45996Y312400D02*
X-48153Y311971D01*
X-49981Y310749D01*
X-51203Y308921D01*
X-51632Y306764D01*
X-51203Y304607D01*
X-49981Y302778D01*
X-48153Y301557D01*
X-45996Y301128D01*
X-43839Y301557D01*
X-42010Y302778D01*
X-40789Y304607D01*
X-40360Y306764D01*
X-40789Y308921D01*
X-42010Y310749D01*
X-43839Y311971D01*
X-45996Y312400D01*
D02*
G37*
G36*
X118027Y326420D02*
X116441Y326105D01*
X115097Y325207D01*
X114198Y323862D01*
X113883Y322277D01*
X114198Y320691D01*
X115097Y319347D01*
X116441Y318448D01*
X118027Y318133D01*
X118657Y318258D01*
X136109Y300806D01*
X136887Y300287D01*
X137803Y300105D01*
X157603D01*
X158024Y298326D01*
X157078Y297694D01*
X156180Y296350D01*
X155864Y294764D01*
X156180Y293179D01*
X157078Y291834D01*
X158422Y290936D01*
X160008Y290621D01*
X161593Y290936D01*
X162938Y291834D01*
X163836Y293179D01*
X164151Y294764D01*
X163836Y296350D01*
X162938Y297694D01*
X161992Y298326D01*
X162413Y300105D01*
X182293D01*
X183671Y298326D01*
X183606Y298000D01*
X183922Y296414D01*
X184820Y295070D01*
X186164Y294172D01*
X187750Y293856D01*
X189336Y294172D01*
X190680Y295070D01*
X191578Y296414D01*
X191894Y298000D01*
X191829Y298326D01*
X193207Y300105D01*
X223758D01*
X228232Y295630D01*
X228106Y295000D01*
X228422Y293414D01*
X229320Y292070D01*
X230664Y291172D01*
X232250Y290856D01*
X233836Y291172D01*
X235180Y292070D01*
X236078Y293414D01*
X236394Y295000D01*
X236078Y296586D01*
X235180Y297930D01*
X233836Y298828D01*
X232250Y299144D01*
X231620Y299018D01*
X226444Y304194D01*
X225667Y304713D01*
X224750Y304895D01*
X200946D01*
X199995Y306674D01*
X200354Y307210D01*
X200670Y308796D01*
X200354Y310382D01*
X199456Y311726D01*
X198112Y312624D01*
X196526Y312940D01*
X194940Y312624D01*
X193596Y311726D01*
X192698Y310382D01*
X192382Y308796D01*
X192698Y307210D01*
X193056Y306674D01*
X192106Y304895D01*
X138796D01*
X122045Y321646D01*
X122170Y322277D01*
X121855Y323862D01*
X120957Y325207D01*
X119612Y326105D01*
X118027Y326420D01*
D02*
G37*
G36*
X99750Y298644D02*
X98164Y298328D01*
X96820Y297430D01*
X95922Y296086D01*
X95606Y294500D01*
X95922Y292914D01*
X96820Y291570D01*
X98164Y290672D01*
X99750Y290356D01*
X101336Y290672D01*
X102680Y291570D01*
X103578Y292914D01*
X103894Y294500D01*
X103578Y296086D01*
X102680Y297430D01*
X101336Y298328D01*
X99750Y298644D01*
D02*
G37*
G36*
X-5000Y294144D02*
X-6586Y293828D01*
X-7930Y292930D01*
X-8828Y291586D01*
X-9144Y290000D01*
X-8828Y288414D01*
X-7930Y287070D01*
X-6586Y286172D01*
X-5000Y285856D01*
X-3414Y286172D01*
X-2070Y287070D01*
X-1172Y288414D01*
X-856Y290000D01*
X-1172Y291586D01*
X-2070Y292930D01*
X-3414Y293828D01*
X-5000Y294144D01*
D02*
G37*
G36*
X-28114Y293624D02*
X-29700Y293308D01*
X-31044Y292410D01*
X-31942Y291066D01*
X-32258Y289480D01*
X-31942Y287894D01*
X-31044Y286550D01*
X-29700Y285652D01*
X-28114Y285336D01*
X-26528Y285652D01*
X-25184Y286550D01*
X-24286Y287894D01*
X-23970Y289480D01*
X-24286Y291066D01*
X-25184Y292410D01*
X-26528Y293308D01*
X-28114Y293624D01*
D02*
G37*
G36*
X293250Y287394D02*
X291664Y287078D01*
X290320Y286180D01*
X289422Y284836D01*
X289106Y283250D01*
X289422Y281664D01*
X290320Y280320D01*
X291664Y279422D01*
X293250Y279106D01*
X294836Y279422D01*
X296180Y280320D01*
X297078Y281664D01*
X297394Y283250D01*
X297078Y284836D01*
X296180Y286180D01*
X294836Y287078D01*
X293250Y287394D01*
D02*
G37*
G36*
X283250Y286394D02*
X281664Y286078D01*
X280320Y285180D01*
X279422Y283836D01*
X279106Y282250D01*
X279422Y280664D01*
X280320Y279320D01*
X281664Y278422D01*
X283250Y278106D01*
X284836Y278422D01*
X286180Y279320D01*
X287078Y280664D01*
X287394Y282250D01*
X287078Y283836D01*
X286180Y285180D01*
X284836Y286078D01*
X283250Y286394D01*
D02*
G37*
G36*
X320250Y284894D02*
X318664Y284578D01*
X317320Y283680D01*
X316422Y282336D01*
X316106Y280750D01*
X316422Y279164D01*
X317320Y277820D01*
X318664Y276922D01*
X320250Y276606D01*
X321836Y276922D01*
X323180Y277820D01*
X324078Y279164D01*
X324394Y280750D01*
X324078Y282336D01*
X323180Y283680D01*
X321836Y284578D01*
X320250Y284894D01*
D02*
G37*
G36*
X-44830Y282908D02*
X-46416Y282592D01*
X-47760Y281694D01*
X-48658Y280350D01*
X-48974Y278764D01*
X-48658Y277178D01*
X-47760Y275834D01*
X-46416Y274936D01*
X-44830Y274620D01*
X-43244Y274936D01*
X-41900Y275834D01*
X-41002Y277178D01*
X-40686Y278764D01*
X-41002Y280350D01*
X-41900Y281694D01*
X-43244Y282592D01*
X-44830Y282908D01*
D02*
G37*
G36*
X306250Y282644D02*
X304664Y282328D01*
X303320Y281430D01*
X302422Y280086D01*
X302106Y278500D01*
X302422Y276914D01*
X303320Y275570D01*
X304664Y274672D01*
X306250Y274356D01*
X307836Y274672D01*
X309180Y275570D01*
X310078Y276914D01*
X310394Y278500D01*
X310078Y280086D01*
X309180Y281430D01*
X307836Y282328D01*
X306250Y282644D01*
D02*
G37*
G36*
X240750Y268644D02*
X239164Y268328D01*
X237820Y267430D01*
X236922Y266086D01*
X236606Y264500D01*
X236922Y262914D01*
X237820Y261570D01*
X239164Y260672D01*
X240750Y260356D01*
X242336Y260672D01*
X243680Y261570D01*
X244578Y262914D01*
X244894Y264500D01*
X244578Y266086D01*
X243680Y267430D01*
X242336Y268328D01*
X240750Y268644D01*
D02*
G37*
G36*
X321500Y264394D02*
X319914Y264078D01*
X318570Y263180D01*
X317672Y261836D01*
X317356Y260250D01*
X317672Y258664D01*
X318570Y257320D01*
X319914Y256422D01*
X321500Y256106D01*
X323086Y256422D01*
X324430Y257320D01*
X325328Y258664D01*
X325644Y260250D01*
X325328Y261836D01*
X324430Y263180D01*
X323086Y264078D01*
X321500Y264394D01*
D02*
G37*
G36*
X-35000Y264144D02*
X-36586Y263828D01*
X-37930Y262930D01*
X-38828Y261586D01*
X-39144Y260000D01*
X-38828Y258414D01*
X-37930Y257070D01*
X-36586Y256172D01*
X-35000Y255856D01*
X-33414Y256172D01*
X-32070Y257070D01*
X-31172Y258414D01*
X-30856Y260000D01*
X-31172Y261586D01*
X-32070Y262930D01*
X-33414Y263828D01*
X-35000Y264144D01*
D02*
G37*
G36*
X-15500Y262394D02*
X-17086Y262078D01*
X-18430Y261180D01*
X-19328Y259836D01*
X-19644Y258250D01*
X-19328Y256664D01*
X-18430Y255320D01*
X-17086Y254422D01*
X-15500Y254106D01*
X-13914Y254422D01*
X-12570Y255320D01*
X-11672Y256664D01*
X-11356Y258250D01*
X-11672Y259836D01*
X-12570Y261180D01*
X-13914Y262078D01*
X-15500Y262394D01*
D02*
G37*
G36*
X257750Y256144D02*
X256164Y255828D01*
X254820Y254930D01*
X253922Y253586D01*
X253606Y252000D01*
X253922Y250414D01*
X254820Y249070D01*
X256164Y248172D01*
X257750Y247856D01*
X259336Y248172D01*
X260680Y249070D01*
X261578Y250414D01*
X261894Y252000D01*
X261578Y253586D01*
X260680Y254930D01*
X259336Y255828D01*
X257750Y256144D01*
D02*
G37*
G36*
X296428Y262975D02*
X281572D01*
X279887Y262640D01*
X278459Y261685D01*
X270887Y254113D01*
X269933Y252685D01*
X269597Y251000D01*
X269933Y249315D01*
X270887Y247887D01*
X272315Y246933D01*
X273097Y246777D01*
Y244964D01*
X272414Y244828D01*
X271070Y243930D01*
X270172Y242586D01*
X269856Y241000D01*
X270172Y239414D01*
X271070Y238070D01*
X272414Y237172D01*
X274000Y236856D01*
X275586Y237172D01*
X276930Y238070D01*
X277828Y239414D01*
X278144Y241000D01*
X277828Y242586D01*
X276930Y243930D01*
X275586Y244828D01*
X274902Y244964D01*
Y246777D01*
X275685Y246933D01*
X277113Y247887D01*
X278521Y249295D01*
X280566Y248825D01*
X281070Y248070D01*
X282414Y247172D01*
X284000Y246856D01*
X285586Y247172D01*
X286930Y248070D01*
X287828Y249414D01*
X288144Y251000D01*
X288139Y251021D01*
X289186Y252098D01*
X289856Y251508D01*
X290172Y249922D01*
X291070Y248578D01*
X292414Y247680D01*
X294000Y247364D01*
X295586Y247680D01*
X296930Y248578D01*
X297231Y249028D01*
X299395Y249379D01*
X300887Y247887D01*
X302315Y246933D01*
X304000Y246597D01*
X305685Y246933D01*
X307113Y247887D01*
X308067Y249315D01*
X308403Y251000D01*
X308067Y252685D01*
X307113Y254113D01*
X299541Y261685D01*
X298113Y262640D01*
X296428Y262975D01*
D02*
G37*
G36*
X321500Y252394D02*
X319914Y252078D01*
X318570Y251180D01*
X317672Y249836D01*
X317356Y248250D01*
X317672Y246664D01*
X318570Y245320D01*
X319914Y244422D01*
X321500Y244106D01*
X323086Y244422D01*
X324430Y245320D01*
X325328Y246664D01*
X325644Y248250D01*
X325328Y249836D01*
X324430Y251180D01*
X323086Y252078D01*
X321500Y252394D01*
D02*
G37*
G36*
X294000Y245144D02*
X292414Y244828D01*
X291070Y243930D01*
X290172Y242586D01*
X289856Y241000D01*
X290172Y239414D01*
X291070Y238070D01*
X292414Y237172D01*
X294000Y236856D01*
X295586Y237172D01*
X296930Y238070D01*
X297828Y239414D01*
X298144Y241000D01*
X297828Y242586D01*
X296930Y243930D01*
X295586Y244828D01*
X294000Y245144D01*
D02*
G37*
G36*
X284000Y245144D02*
X282414Y244828D01*
X281070Y243930D01*
X280172Y242586D01*
X279856Y241000D01*
X280172Y239414D01*
X281070Y238070D01*
X282414Y237172D01*
X284000Y236856D01*
X285586Y237172D01*
X286930Y238070D01*
X287828Y239414D01*
X288144Y241000D01*
X287828Y242586D01*
X286930Y243930D01*
X285586Y244828D01*
X284000Y245144D01*
D02*
G37*
G36*
X294000Y235144D02*
X292414Y234828D01*
X291070Y233930D01*
X290172Y232586D01*
X289856Y231000D01*
X290172Y229414D01*
X291070Y228070D01*
X292414Y227172D01*
X294000Y226856D01*
X295586Y227172D01*
X296930Y228070D01*
X297828Y229414D01*
X298144Y231000D01*
X297828Y232586D01*
X296930Y233930D01*
X295586Y234828D01*
X294000Y235144D01*
D02*
G37*
G36*
X284000D02*
X282414Y234828D01*
X281070Y233930D01*
X280172Y232586D01*
X279856Y231000D01*
X280172Y229414D01*
X281070Y228070D01*
X282414Y227172D01*
X284000Y226856D01*
X285586Y227172D01*
X286930Y228070D01*
X287828Y229414D01*
X288144Y231000D01*
X287828Y232586D01*
X286930Y233930D01*
X285586Y234828D01*
X284000Y235144D01*
D02*
G37*
G36*
X-45996Y237216D02*
X-48153Y236787D01*
X-49981Y235565D01*
X-51203Y233737D01*
X-51632Y231580D01*
X-51203Y229423D01*
X-49981Y227595D01*
X-48153Y226373D01*
X-45996Y225944D01*
X-43839Y226373D01*
X-42010Y227595D01*
X-40789Y229423D01*
X-40360Y231580D01*
X-40789Y233737D01*
X-42010Y235565D01*
X-43839Y236787D01*
X-45996Y237216D01*
D02*
G37*
G36*
X267716Y234268D02*
X266130Y233952D01*
X264786Y233054D01*
X263888Y231710D01*
X263572Y230124D01*
X263888Y228538D01*
X263042Y226604D01*
X262914Y226578D01*
X261570Y225680D01*
X260672Y224336D01*
X260356Y222750D01*
X260672Y221164D01*
X261570Y219820D01*
X262060Y219492D01*
X262888Y218808D01*
X262514Y217214D01*
X262435Y217096D01*
X262119Y215511D01*
X262435Y213925D01*
X263333Y212581D01*
X264677Y211682D01*
X266263Y211367D01*
X267849Y211682D01*
X269193Y212581D01*
X270091Y213925D01*
X270407Y215511D01*
X270091Y217096D01*
X269193Y218440D01*
X268703Y218768D01*
X267875Y219452D01*
X268249Y221047D01*
X268328Y221164D01*
X268644Y222750D01*
X268328Y224336D01*
X269174Y226270D01*
X269302Y226296D01*
X270646Y227194D01*
X271544Y228538D01*
X271860Y230124D01*
X271544Y231710D01*
X270646Y233054D01*
X269302Y233952D01*
X267716Y234268D01*
D02*
G37*
G36*
X-23000Y234644D02*
X-24586Y234328D01*
X-25930Y233430D01*
X-26828Y232086D01*
X-27144Y230500D01*
X-26828Y228914D01*
X-25930Y227570D01*
X-24586Y226672D01*
X-24509Y226656D01*
X-24411Y226385D01*
X-24321Y224806D01*
X-25282Y224164D01*
X-26180Y222820D01*
X-26496Y221234D01*
X-26180Y219648D01*
X-25282Y218304D01*
X-23938Y217406D01*
X-22352Y217090D01*
X-22314Y217098D01*
X-21961Y216674D01*
X-21433Y215460D01*
X-22116Y214438D01*
X-22432Y212852D01*
X-22116Y211266D01*
X-21218Y209922D01*
X-19874Y209024D01*
X-18288Y208708D01*
X-16702Y209024D01*
X-15358Y209922D01*
X-14460Y211266D01*
X-14144Y212852D01*
X-14460Y214438D01*
X-15358Y215782D01*
X-16702Y216680D01*
X-18288Y216996D01*
X-18326Y216988D01*
X-18679Y217412D01*
X-19207Y218626D01*
X-18524Y219648D01*
X-18208Y221234D01*
X-18524Y222820D01*
X-19422Y224164D01*
X-20766Y225062D01*
X-20844Y225078D01*
X-20941Y225350D01*
X-21031Y226928D01*
X-20070Y227570D01*
X-19172Y228914D01*
X-18856Y230500D01*
X-19172Y232086D01*
X-20070Y233430D01*
X-21414Y234328D01*
X-23000Y234644D01*
D02*
G37*
G36*
X308102Y212170D02*
X306516Y211854D01*
X305172Y210956D01*
X304274Y209612D01*
X303958Y208026D01*
X304274Y206440D01*
X305172Y205096D01*
X306516Y204198D01*
X308102Y203882D01*
X309688Y204198D01*
X311032Y205096D01*
X311930Y206440D01*
X312246Y208026D01*
X311930Y209612D01*
X311032Y210956D01*
X309688Y211854D01*
X308102Y212170D01*
D02*
G37*
G36*
X266763Y206404D02*
X265177Y206088D01*
X263833Y205190D01*
X262935Y203846D01*
X262619Y202260D01*
X262635Y202180D01*
X261035Y201111D01*
X260336Y201578D01*
X258750Y201894D01*
X257164Y201578D01*
X255820Y200680D01*
X254922Y199336D01*
X254606Y197750D01*
X254922Y196164D01*
X255820Y194820D01*
X257164Y193922D01*
X258750Y193606D01*
X260336Y193922D01*
X261680Y194820D01*
X262578Y196164D01*
X262894Y197750D01*
X262878Y197830D01*
X264478Y198899D01*
X265177Y198432D01*
X266763Y198116D01*
X268349Y198432D01*
X269693Y199330D01*
X270591Y200674D01*
X270907Y202260D01*
X270591Y203846D01*
X269693Y205190D01*
X268349Y206088D01*
X266763Y206404D01*
D02*
G37*
G36*
X321310Y203534D02*
X319724Y203218D01*
X318380Y202320D01*
X317482Y200976D01*
X315645Y200855D01*
X315530Y200932D01*
X313944Y201248D01*
X312358Y200932D01*
X311014Y200034D01*
X310116Y198690D01*
X309800Y197104D01*
X310116Y195518D01*
X311014Y194174D01*
X312358Y193276D01*
X313944Y192960D01*
X315530Y193276D01*
X316874Y194174D01*
X317772Y195518D01*
X319609Y195639D01*
X319724Y195562D01*
X321310Y195246D01*
X322896Y195562D01*
X324240Y196460D01*
X325138Y197804D01*
X325454Y199390D01*
X325138Y200976D01*
X324240Y202320D01*
X322896Y203218D01*
X321310Y203534D01*
D02*
G37*
G36*
X-34000Y208144D02*
X-35586Y207828D01*
X-36930Y206930D01*
X-37828Y205586D01*
X-38144Y204000D01*
X-37828Y202414D01*
X-36930Y201070D01*
X-35586Y200172D01*
X-34000Y199856D01*
X-32414Y200172D01*
X-31070Y201070D01*
X-30172Y202414D01*
X-29856Y204000D01*
X-30172Y205586D01*
X-31070Y206930D01*
X-32414Y207828D01*
X-34000Y208144D01*
D02*
G37*
G36*
X292608Y203026D02*
X291022Y202710D01*
X289678Y201812D01*
X288780Y200468D01*
X288464Y198882D01*
X288780Y197296D01*
X289678Y195952D01*
X291022Y195054D01*
X292608Y194738D01*
X294194Y195054D01*
X295538Y195952D01*
X296436Y197296D01*
X296752Y198882D01*
X296436Y200468D01*
X295538Y201812D01*
X294194Y202710D01*
X292608Y203026D01*
D02*
G37*
G36*
X-24500Y201144D02*
X-26086Y200828D01*
X-27430Y199930D01*
X-28328Y198586D01*
X-28644Y197000D01*
X-28328Y195414D01*
X-27430Y194070D01*
X-26086Y193172D01*
X-24500Y192856D01*
X-23333Y193088D01*
X-22640Y191414D01*
X-22654Y191404D01*
X-23544Y190072D01*
X-23857Y188500D01*
X-23544Y186928D01*
X-23235Y186465D01*
X-23840Y184584D01*
X-23935Y184477D01*
X-25202Y183630D01*
X-26100Y182286D01*
X-26416Y180700D01*
X-26100Y179114D01*
X-25202Y177770D01*
X-23858Y176872D01*
X-22272Y176556D01*
X-20686Y176872D01*
X-19342Y177770D01*
X-18444Y179114D01*
X-18128Y180700D01*
X-18444Y182286D01*
X-18771Y182775D01*
X-18188Y184676D01*
X-18087Y184767D01*
X-16846Y185596D01*
X-15956Y186928D01*
X-15643Y188500D01*
X-15956Y190072D01*
X-16846Y191404D01*
X-18178Y192294D01*
X-19750Y192607D01*
X-20903Y192378D01*
X-21596Y194053D01*
X-21570Y194070D01*
X-20672Y195414D01*
X-20356Y197000D01*
X-20672Y198586D01*
X-21570Y199930D01*
X-22914Y200828D01*
X-24500Y201144D01*
D02*
G37*
G36*
X298958Y179150D02*
X297372Y178834D01*
X296028Y177936D01*
X295130Y176592D01*
X294814Y175006D01*
X295130Y173420D01*
X296028Y172076D01*
X297372Y171178D01*
X298958Y170862D01*
X300544Y171178D01*
X301888Y172076D01*
X302786Y173420D01*
X303102Y175006D01*
X302786Y176592D01*
X301888Y177936D01*
X300544Y178834D01*
X298958Y179150D01*
D02*
G37*
G36*
X308864Y173562D02*
X307278Y173246D01*
X305934Y172348D01*
X305036Y171004D01*
X304720Y169418D01*
X305036Y167832D01*
X305934Y166488D01*
X307278Y165590D01*
X308864Y165274D01*
X310450Y165590D01*
X310707Y165762D01*
X311873Y166410D01*
X312985Y165308D01*
X313046Y165218D01*
X314390Y164320D01*
X315976Y164004D01*
X317562Y164320D01*
X318288Y164805D01*
X319010Y165167D01*
X320516Y164427D01*
X320666Y164202D01*
X322010Y163304D01*
X323596Y162988D01*
X325182Y163304D01*
X326526Y164202D01*
X327424Y165546D01*
X327740Y167132D01*
X327424Y168718D01*
X326526Y170062D01*
X325182Y170960D01*
X323596Y171276D01*
X322010Y170960D01*
X321284Y170475D01*
X320562Y170113D01*
X319056Y170853D01*
X318906Y171078D01*
X317562Y171976D01*
X315976Y172292D01*
X314390Y171976D01*
X314133Y171804D01*
X312967Y171156D01*
X311854Y172257D01*
X311794Y172348D01*
X310450Y173246D01*
X308864Y173562D01*
D02*
G37*
G36*
X-45926Y177166D02*
X-47512Y176850D01*
X-48856Y175952D01*
X-49754Y174608D01*
X-50070Y173022D01*
X-49754Y171436D01*
X-48856Y170092D01*
X-48572Y169902D01*
X-47553Y169087D01*
X-48118Y167624D01*
X-48182Y167528D01*
X-48498Y165942D01*
X-48182Y164356D01*
X-47284Y163012D01*
X-45940Y162114D01*
X-44354Y161798D01*
X-42768Y162114D01*
X-41424Y163012D01*
X-40526Y164356D01*
X-40210Y165942D01*
X-40526Y167528D01*
X-41424Y168872D01*
X-41709Y169062D01*
X-42727Y169877D01*
X-42162Y171341D01*
X-42098Y171436D01*
X-41782Y173022D01*
X-42098Y174608D01*
X-42996Y175952D01*
X-44340Y176850D01*
X-45926Y177166D01*
D02*
G37*
G36*
X-17784Y168394D02*
X-19370Y168078D01*
X-20714Y167180D01*
X-21612Y165836D01*
X-21928Y164250D01*
X-21612Y162664D01*
X-20714Y161320D01*
X-19370Y160422D01*
X-17784Y160106D01*
X-16198Y160422D01*
X-14854Y161320D01*
X-13956Y162664D01*
X-13640Y164250D01*
X-13956Y165836D01*
X-14854Y167180D01*
X-16198Y168078D01*
X-17784Y168394D01*
D02*
G37*
G36*
X-69250Y164904D02*
X-70836Y164588D01*
X-72180Y163690D01*
X-73078Y162346D01*
X-73394Y160760D01*
X-73078Y159174D01*
X-72180Y157830D01*
X-70836Y156932D01*
X-69250Y156616D01*
X-67664Y156932D01*
X-66320Y157830D01*
X-65422Y159174D01*
X-65106Y160760D01*
X-65422Y162346D01*
X-66320Y163690D01*
X-67664Y164588D01*
X-69250Y164904D01*
D02*
G37*
G36*
X273250Y161394D02*
X271664Y161078D01*
X270320Y160180D01*
X269422Y158836D01*
X269106Y157250D01*
X269422Y155664D01*
X270320Y154320D01*
X271664Y153422D01*
X273250Y153106D01*
X274836Y153422D01*
X276180Y154320D01*
X277078Y155664D01*
X277394Y157250D01*
X277078Y158836D01*
X276180Y160180D01*
X274836Y161078D01*
X273250Y161394D01*
D02*
G37*
G36*
X-44354Y157734D02*
X-45940Y157418D01*
X-47284Y156520D01*
X-48182Y155176D01*
X-48498Y153590D01*
X-48182Y152004D01*
X-47284Y150660D01*
X-45940Y149762D01*
X-44354Y149446D01*
X-42768Y149762D01*
X-41424Y150660D01*
X-40526Y152004D01*
X-40210Y153590D01*
X-40526Y155176D01*
X-41424Y156520D01*
X-42768Y157418D01*
X-44354Y157734D01*
D02*
G37*
G36*
X285000Y148144D02*
X283414Y147828D01*
X282070Y146930D01*
X281172Y145586D01*
X280856Y144000D01*
X281172Y142414D01*
X282070Y141070D01*
X283414Y140172D01*
X285000Y139856D01*
X286586Y140172D01*
X287930Y141070D01*
X288828Y142414D01*
X289144Y144000D01*
X288828Y145586D01*
X287930Y146930D01*
X286586Y147828D01*
X285000Y148144D01*
D02*
G37*
G36*
X299750Y143144D02*
X298164Y142828D01*
X296820Y141930D01*
X295922Y140586D01*
X295606Y139000D01*
X295922Y137414D01*
X296820Y136070D01*
X298164Y135172D01*
X299750Y134856D01*
X301336Y135172D01*
X302680Y136070D01*
X303578Y137414D01*
X303894Y139000D01*
X303578Y140586D01*
X302680Y141930D01*
X301336Y142828D01*
X299750Y143144D01*
D02*
G37*
G36*
X259000Y142394D02*
X257414Y142078D01*
X256070Y141180D01*
X255172Y139836D01*
X254856Y138250D01*
X255172Y136664D01*
X256070Y135320D01*
X257414Y134422D01*
X259000Y134106D01*
X260586Y134422D01*
X261930Y135320D01*
X262828Y136664D01*
X263144Y138250D01*
X262828Y139836D01*
X261930Y141180D01*
X260586Y142078D01*
X259000Y142394D01*
D02*
G37*
G36*
X-24250D02*
X-25836Y142078D01*
X-27180Y141180D01*
X-28078Y139836D01*
X-28394Y138250D01*
X-28078Y136664D01*
X-27180Y135320D01*
X-25836Y134422D01*
X-24250Y134106D01*
X-22664Y134422D01*
X-21320Y135320D01*
X-20422Y136664D01*
X-20106Y138250D01*
X-20422Y139836D01*
X-21320Y141180D01*
X-22664Y142078D01*
X-24250Y142394D01*
D02*
G37*
G36*
X269494Y141050D02*
X267908Y140734D01*
X266564Y139836D01*
X265666Y138492D01*
X265350Y136906D01*
X265666Y135320D01*
X266564Y133976D01*
X267908Y133078D01*
X269494Y132762D01*
X271080Y133078D01*
X272424Y133976D01*
X273322Y135320D01*
X273638Y136906D01*
X273322Y138492D01*
X272424Y139836D01*
X271080Y140734D01*
X269494Y141050D01*
D02*
G37*
G36*
X-18796Y132414D02*
X-20382Y132098D01*
X-21726Y131200D01*
X-22624Y129856D01*
X-22940Y128270D01*
X-22624Y126684D01*
X-21726Y125340D01*
X-20382Y124442D01*
X-18796Y124126D01*
X-17210Y124442D01*
X-15866Y125340D01*
X-14968Y126684D01*
X-14652Y128270D01*
X-14968Y129856D01*
X-15866Y131200D01*
X-17210Y132098D01*
X-18796Y132414D01*
D02*
G37*
G36*
X-37502Y129650D02*
X-39088Y129334D01*
X-40432Y128436D01*
X-41330Y127092D01*
X-41645Y125506D01*
X-41330Y123920D01*
X-40432Y122576D01*
X-39088Y121678D01*
X-37502Y121362D01*
X-35916Y121678D01*
X-34572Y122576D01*
X-33674Y123920D01*
X-33358Y125506D01*
X-33674Y127092D01*
X-34572Y128436D01*
X-35916Y129334D01*
X-37502Y129650D01*
D02*
G37*
G36*
X-53110Y129008D02*
X-54696Y128692D01*
X-56040Y127794D01*
X-56938Y126450D01*
X-57254Y124864D01*
X-56938Y123278D01*
X-56040Y121934D01*
X-54696Y121036D01*
X-53110Y120721D01*
X-51524Y121036D01*
X-50180Y121934D01*
X-49282Y123278D01*
X-48966Y124864D01*
X-49282Y126450D01*
X-50180Y127794D01*
X-51524Y128692D01*
X-53110Y129008D01*
D02*
G37*
G36*
X264668Y131906D02*
X263082Y131590D01*
X261738Y130692D01*
X260840Y129348D01*
X260524Y127762D01*
X260096Y126318D01*
X258510Y126002D01*
X257166Y125104D01*
X256268Y123760D01*
X255952Y122174D01*
X256268Y120588D01*
X257166Y119244D01*
X257257Y119184D01*
X258164Y118266D01*
X257520Y116641D01*
X255582Y115929D01*
X255332Y116096D01*
X253746Y116412D01*
X252160Y116096D01*
X250816Y115198D01*
X249918Y113854D01*
X249868Y113604D01*
X249051Y113278D01*
X247952Y113083D01*
X246836Y113828D01*
X245250Y114144D01*
X243664Y113828D01*
X242320Y112930D01*
X241422Y111586D01*
X241106Y110000D01*
X241422Y108414D01*
X242280Y107129D01*
X242317Y107041D01*
X242136Y105055D01*
X241582Y104685D01*
X240684Y103341D01*
X240368Y101755D01*
X240506Y101061D01*
X239915Y99711D01*
X239186Y99276D01*
X238190Y99078D01*
X236846Y98180D01*
X235948Y96836D01*
X235632Y95250D01*
X235740Y94710D01*
X234888Y92728D01*
X233544Y91830D01*
X232646Y90486D01*
X232330Y88900D01*
X232646Y87314D01*
X233544Y85970D01*
X234888Y85072D01*
X236474Y84756D01*
X238060Y85072D01*
X239404Y85970D01*
X240302Y87314D01*
X240618Y88900D01*
X240510Y89440D01*
X241362Y91422D01*
X242706Y92320D01*
X243604Y93664D01*
X243920Y95250D01*
X243782Y95944D01*
X244373Y97294D01*
X245102Y97729D01*
X246098Y97927D01*
X247442Y98825D01*
X248340Y100169D01*
X248656Y101755D01*
X248340Y103341D01*
X247482Y104626D01*
X247445Y104714D01*
X247626Y106700D01*
X248180Y107070D01*
X249078Y108414D01*
X249128Y108664D01*
X249945Y108990D01*
X251044Y109185D01*
X252160Y108440D01*
X253746Y108124D01*
X255332Y108440D01*
X256676Y109338D01*
X257574Y110682D01*
X259530Y111401D01*
X259780Y111234D01*
X261366Y110918D01*
X262952Y111234D01*
X264296Y112132D01*
X265194Y113476D01*
X265510Y115062D01*
X265194Y116648D01*
X264296Y117992D01*
X264205Y118053D01*
X263104Y119165D01*
X263752Y120331D01*
X263924Y120588D01*
X264240Y122174D01*
X264668Y123618D01*
X266254Y123934D01*
X267598Y124832D01*
X268496Y126176D01*
X268812Y127762D01*
X268496Y129348D01*
X267598Y130692D01*
X266254Y131590D01*
X264668Y131906D01*
D02*
G37*
G36*
X-55000Y118357D02*
X-56572Y118044D01*
X-57904Y117154D01*
X-58794Y115822D01*
X-59107Y114250D01*
X-58794Y112678D01*
X-57904Y111346D01*
X-57332Y110964D01*
X-56623Y110150D01*
X-56868Y108702D01*
X-57112Y108336D01*
X-57428Y106750D01*
X-57112Y105164D01*
X-56214Y103820D01*
X-54870Y102922D01*
X-53284Y102606D01*
X-51698Y102922D01*
X-50354Y103820D01*
X-49456Y105164D01*
X-49140Y106750D01*
X-49456Y108336D01*
X-50354Y109680D01*
X-50962Y110086D01*
X-50998Y110126D01*
X-51475Y112058D01*
X-51433Y112338D01*
X-51206Y112678D01*
X-50893Y114250D01*
X-51206Y115822D01*
X-52096Y117154D01*
X-53428Y118044D01*
X-55000Y118357D01*
D02*
G37*
G36*
X-26001Y105399D02*
X-27587Y105083D01*
X-28931Y104185D01*
X-29829Y102841D01*
X-29964Y102165D01*
X-30891Y101132D01*
X-31876Y100970D01*
X-32750Y101144D01*
X-34336Y100828D01*
X-35680Y99930D01*
X-36578Y98586D01*
X-36894Y97000D01*
X-36578Y95414D01*
X-35680Y94070D01*
X-34336Y93172D01*
X-32750Y92856D01*
X-31164Y93172D01*
X-29820Y94070D01*
X-28922Y95414D01*
X-28787Y96090D01*
X-27860Y97123D01*
X-26875Y97285D01*
X-26001Y97111D01*
X-24416Y97427D01*
X-23071Y98325D01*
X-22173Y99669D01*
X-21858Y101255D01*
X-22173Y102841D01*
X-23071Y104185D01*
X-24416Y105083D01*
X-26001Y105399D01*
D02*
G37*
G36*
X-58250Y94894D02*
X-59836Y94578D01*
X-61180Y93680D01*
X-62078Y92336D01*
X-62394Y90750D01*
X-62078Y89164D01*
X-61180Y87820D01*
X-59836Y86922D01*
X-58250Y86606D01*
X-56664Y86922D01*
X-55320Y87820D01*
X-54422Y89164D01*
X-54106Y90750D01*
X-54422Y92336D01*
X-55320Y93680D01*
X-56664Y94578D01*
X-58250Y94894D01*
D02*
G37*
G36*
X313250Y86394D02*
X311664Y86078D01*
X310320Y85180D01*
X309422Y83836D01*
X309106Y82250D01*
X309422Y80664D01*
X310320Y79320D01*
X311664Y78422D01*
X313250Y78106D01*
X314836Y78422D01*
X316180Y79320D01*
X317078Y80664D01*
X317394Y82250D01*
X317078Y83836D01*
X316180Y85180D01*
X314836Y86078D01*
X313250Y86394D01*
D02*
G37*
G36*
X-70000Y84894D02*
X-71586Y84578D01*
X-72930Y83680D01*
X-73828Y82336D01*
X-74144Y80750D01*
X-73828Y79164D01*
X-72930Y77820D01*
X-71586Y76922D01*
X-70000Y76606D01*
X-68414Y76922D01*
X-67070Y77820D01*
X-66172Y79164D01*
X-65856Y80750D01*
X-66172Y82336D01*
X-67070Y83680D01*
X-68414Y84578D01*
X-70000Y84894D01*
D02*
G37*
G36*
X225000Y72144D02*
X223414Y71828D01*
X222070Y70930D01*
X221172Y69586D01*
X220856Y68000D01*
X221152Y66515D01*
X221172Y66414D01*
X221184Y66386D01*
X221250Y66232D01*
X219930Y65180D01*
X219627Y65382D01*
X218586Y66078D01*
X217000Y66394D01*
X215414Y66078D01*
X214070Y65180D01*
X213172Y63836D01*
X212856Y62250D01*
X213172Y60664D01*
X214070Y59320D01*
X215414Y58422D01*
X217000Y58106D01*
X218586Y58422D01*
X219930Y59320D01*
X220828Y60664D01*
X221144Y62250D01*
X220848Y63735D01*
X220828Y63836D01*
X220816Y63864D01*
X220750Y64018D01*
X222070Y65070D01*
X222373Y64868D01*
X223414Y64172D01*
X225000Y63856D01*
X226586Y64172D01*
X227930Y65070D01*
X228828Y66414D01*
X229144Y68000D01*
X228828Y69586D01*
X227930Y70930D01*
X226586Y71828D01*
X225000Y72144D01*
D02*
G37*
G36*
X240750Y72644D02*
X239164Y72328D01*
X237820Y71430D01*
X236922Y70086D01*
X236606Y68500D01*
X236922Y66914D01*
X237820Y65570D01*
X239164Y64672D01*
X240750Y64356D01*
X242336Y64672D01*
X243680Y65570D01*
X244578Y66914D01*
X244894Y68500D01*
X244578Y70086D01*
X243680Y71430D01*
X242336Y72328D01*
X240750Y72644D01*
D02*
G37*
G36*
X-44407Y68906D02*
X-45993Y68590D01*
X-47337Y67692D01*
X-48235Y66348D01*
X-48551Y64762D01*
X-48235Y63176D01*
X-47337Y61832D01*
X-45993Y60934D01*
X-44407Y60618D01*
X-42821Y60934D01*
X-41477Y61832D01*
X-40579Y63176D01*
X-40263Y64762D01*
X-40579Y66348D01*
X-41477Y67692D01*
X-42821Y68590D01*
X-44407Y68906D01*
D02*
G37*
G36*
X232812Y61456D02*
X231227Y61141D01*
X229883Y60243D01*
X228984Y58898D01*
X228669Y57312D01*
X228984Y55727D01*
X229883Y54383D01*
X231227Y53484D01*
X232812Y53169D01*
X234398Y53484D01*
X235742Y54383D01*
X236641Y55727D01*
X236956Y57312D01*
X236641Y58898D01*
X235742Y60243D01*
X234398Y61141D01*
X232812Y61456D01*
D02*
G37*
G36*
X223000Y50144D02*
X221414Y49828D01*
X220070Y48930D01*
X219172Y47586D01*
X218856Y46000D01*
X219172Y44414D01*
X220070Y43070D01*
X221133Y42360D01*
X221433Y42062D01*
X221730Y40296D01*
X221422Y39836D01*
X221106Y38250D01*
X221422Y36664D01*
X222320Y35320D01*
X223664Y34422D01*
X225250Y34106D01*
X226836Y34422D01*
X228180Y35320D01*
X229078Y36664D01*
X229394Y38250D01*
X229078Y39836D01*
X228180Y41180D01*
X227117Y41890D01*
X226817Y42188D01*
X226521Y43954D01*
X226828Y44414D01*
X227144Y46000D01*
X226828Y47586D01*
X225930Y48930D01*
X224586Y49828D01*
X223000Y50144D01*
D02*
G37*
G36*
X32500Y42144D02*
X30914Y41828D01*
X29570Y40930D01*
X28672Y39586D01*
X28356Y38000D01*
X28672Y36414D01*
X29570Y35070D01*
X30914Y34172D01*
X32500Y33856D01*
X34086Y34172D01*
X35430Y35070D01*
X36328Y36414D01*
X36644Y38000D01*
X36328Y39586D01*
X35430Y40930D01*
X34086Y41828D01*
X32500Y42144D01*
D02*
G37*
G36*
X196493Y12104D02*
X194922Y11791D01*
X193589Y10901D01*
X193563Y10861D01*
X191424D01*
X191397Y10901D01*
X190065Y11791D01*
X188493Y12104D01*
X186922Y11791D01*
X185590Y10901D01*
X185563Y10861D01*
X183424D01*
X183398Y10901D01*
X182065Y11791D01*
X180494Y12104D01*
X178922Y11791D01*
X177589Y10901D01*
X177563Y10861D01*
X175424D01*
X175397Y10901D01*
X174065Y11791D01*
X172493Y12104D01*
X170922Y11791D01*
X169590Y10901D01*
X169563Y10861D01*
X167424D01*
X167397Y10901D01*
X166065Y11791D01*
X164494Y12104D01*
X162922Y11791D01*
X161590Y10901D01*
X160699Y9568D01*
X160387Y7997D01*
X160699Y6425D01*
X161590Y5093D01*
X162922Y4202D01*
X164494Y3890D01*
X166065Y4202D01*
X167397Y5093D01*
X167424Y5133D01*
X169563D01*
X169590Y5093D01*
X170922Y4202D01*
X172493Y3890D01*
X174065Y4202D01*
X175397Y5093D01*
X175424Y5133D01*
X177563D01*
X177589Y5093D01*
X178922Y4202D01*
X180494Y3890D01*
X182065Y4202D01*
X183398Y5093D01*
X183424Y5133D01*
X185563D01*
X185590Y5093D01*
X186922Y4202D01*
X188493Y3890D01*
X190065Y4202D01*
X191397Y5093D01*
X191424Y5133D01*
X193563D01*
X193589Y5093D01*
X194922Y4202D01*
X196493Y3890D01*
X198065Y4202D01*
X199398Y5093D01*
X200288Y6425D01*
X200600Y7997D01*
X200288Y9568D01*
X199398Y10901D01*
X198065Y11791D01*
X196493Y12104D01*
D02*
G37*
G36*
X164494Y-3887D02*
X162922Y-4199D01*
X161590Y-5089D01*
X161563Y-5130D01*
X159424D01*
X159397Y-5089D01*
X158065Y-4199D01*
X156494Y-3887D01*
X154922Y-4199D01*
X153589Y-5089D01*
X153563Y-5130D01*
X151424D01*
X151397Y-5089D01*
X150065Y-4199D01*
X148493Y-3887D01*
X146922Y-4199D01*
X145590Y-5089D01*
X144699Y-6422D01*
X144387Y-7994D01*
X144699Y-9565D01*
X145590Y-10898D01*
X146922Y-11788D01*
X148493Y-12100D01*
X150065Y-11788D01*
X151397Y-10898D01*
X151424Y-10857D01*
X153563D01*
X153589Y-10898D01*
X154922Y-11788D01*
X156494Y-12100D01*
X158065Y-11788D01*
X159397Y-10898D01*
X159424Y-10857D01*
X161563D01*
X161590Y-10898D01*
X162922Y-11788D01*
X164494Y-12100D01*
X166065Y-11788D01*
X167397Y-10898D01*
X168288Y-9565D01*
X168600Y-7994D01*
X168288Y-6422D01*
X167397Y-5089D01*
X166065Y-4199D01*
X164494Y-3887D01*
D02*
G37*
G36*
X229494Y5893D02*
X227239Y5444D01*
X225328Y4167D01*
X224051Y2256D01*
X223602Y2D01*
X224051Y-2253D01*
X225328Y-4164D01*
X227239Y-5441D01*
X229494Y-5890D01*
X231748Y-5441D01*
X233659Y-4164D01*
X234936Y-2253D01*
X235385Y2D01*
X234936Y2256D01*
X233659Y4167D01*
X231748Y5444D01*
X229494Y5893D01*
D02*
G37*
G36*
X27494Y7847D02*
X25463Y7579D01*
X23571Y6796D01*
X21946Y5549D01*
X20700Y3924D01*
X19916Y2032D01*
X19648Y2D01*
X19916Y-2029D01*
X20700Y-3921D01*
X21946Y-5546D01*
X23571Y-6792D01*
X25463Y-7576D01*
X27494Y-7843D01*
X29524Y-7576D01*
X31416Y-6792D01*
X33041Y-5546D01*
X34288Y-3921D01*
X35071Y-2029D01*
X35339Y2D01*
X35071Y2032D01*
X34288Y3924D01*
X33041Y5549D01*
X31416Y6796D01*
X29524Y7579D01*
X27494Y7847D01*
D02*
G37*
%LPD*%
G36*
X20388Y280822D02*
X21764Y278764D01*
X23822Y277388D01*
X26250Y276905D01*
X33872D01*
X46001Y264776D01*
X48059Y263401D01*
X50487Y262918D01*
X177216D01*
X177720Y261720D01*
X177846Y261140D01*
X177020Y259904D01*
X176704Y258318D01*
X176894Y257366D01*
X176024Y256443D01*
X174393Y256611D01*
X173846Y257430D01*
X172502Y258328D01*
X170916Y258644D01*
X169330Y258328D01*
X167986Y257430D01*
X167088Y256086D01*
X166772Y254500D01*
X167088Y252914D01*
X167986Y251570D01*
X169330Y250672D01*
X170916Y250356D01*
X171775Y250527D01*
X173718Y249874D01*
X174616Y248530D01*
X175960Y247632D01*
X177546Y247316D01*
X179132Y247632D01*
X180476Y248530D01*
X181374Y249874D01*
X181690Y251460D01*
X181374Y253046D01*
X182434Y254490D01*
X182931Y254822D01*
X185030Y254880D01*
X186374Y253982D01*
X187960Y253666D01*
X189546Y253982D01*
X190890Y254880D01*
X191788Y256224D01*
X192104Y257810D01*
X191788Y259396D01*
X190890Y260740D01*
X190292Y261140D01*
X190831Y262918D01*
X209359D01*
X226655Y245622D01*
Y243091D01*
X224877Y241632D01*
X224761Y241655D01*
X223175Y241340D01*
X221831Y240442D01*
X220933Y239097D01*
X220617Y237512D01*
X220933Y235926D01*
X221831Y234582D01*
X223175Y233683D01*
X224761Y233368D01*
X224877Y233391D01*
X226655Y231932D01*
Y180585D01*
X226701Y180355D01*
X225637Y179229D01*
X223637Y179271D01*
X223191Y179939D01*
X222469Y180421D01*
X221746Y181368D01*
X221489Y182721D01*
X221644Y183500D01*
X221328Y185086D01*
X220699Y186028D01*
X220180Y187820D01*
X221078Y189164D01*
X221394Y190750D01*
X221078Y192336D01*
X220180Y193680D01*
X218836Y194578D01*
X217250Y194894D01*
X215664Y194578D01*
X214320Y193680D01*
X213422Y192336D01*
X213106Y190750D01*
X213422Y189164D01*
X214051Y188222D01*
X214570Y186430D01*
X213672Y185086D01*
X213356Y183500D01*
X213672Y181914D01*
X214570Y180570D01*
X215292Y180088D01*
X216015Y179141D01*
X216272Y177788D01*
X216117Y177009D01*
X216432Y175423D01*
X217331Y174079D01*
X218675Y173180D01*
X220261Y172865D01*
X221846Y173180D01*
X223433Y173423D01*
X224331Y172078D01*
X225675Y171180D01*
X226499Y169625D01*
X225125Y168596D01*
X224877Y168561D01*
X224192Y168697D01*
X222012Y168264D01*
X220163Y167029D01*
X218928Y165180D01*
X218494Y163000D01*
X218928Y160820D01*
X220163Y158971D01*
X222012Y157736D01*
X224192Y157303D01*
X224877Y157439D01*
X226655Y155980D01*
Y147634D01*
X225070Y146122D01*
X223910Y146186D01*
X222566Y147084D01*
X220980Y147400D01*
X219394Y147084D01*
X218050Y146186D01*
X217152Y144842D01*
X216855Y143349D01*
X216831Y143252D01*
X215276Y141988D01*
X214884Y142066D01*
X213298Y141750D01*
X211954Y140852D01*
X211056Y139508D01*
X210740Y137922D01*
X209257Y136266D01*
X207645D01*
X205217Y135783D01*
X203158Y134408D01*
X201783Y132349D01*
X201300Y129921D01*
Y112968D01*
X200934Y111128D01*
Y74907D01*
X189527Y63500D01*
X184998D01*
X183824Y65278D01*
X183976Y66040D01*
X183660Y67626D01*
X182762Y68970D01*
X181418Y69868D01*
X179832Y70184D01*
X178246Y69868D01*
X177575Y69420D01*
X175430Y69430D01*
X174086Y70328D01*
X172500Y70644D01*
X170914Y70328D01*
X169570Y69430D01*
X169093Y68716D01*
X167226Y68989D01*
X166131Y70627D01*
X164790Y71523D01*
X164493Y71722D01*
X164150Y73122D01*
X164117Y73609D01*
X164394Y75000D01*
X164078Y76586D01*
X163180Y77930D01*
X161836Y78828D01*
X160250Y79144D01*
X158664Y78828D01*
X157320Y77930D01*
X156422Y76586D01*
X156106Y75000D01*
X156422Y73414D01*
X156507Y73287D01*
X155225Y72005D01*
X155002Y72154D01*
X153416Y72470D01*
X152946Y72376D01*
X152305Y73295D01*
X152064Y74014D01*
X152836Y75168D01*
X153151Y76754D01*
X152836Y78339D01*
X151937Y79684D01*
X150593Y80582D01*
X149007Y80897D01*
X147422Y80582D01*
X146077Y79684D01*
X145179Y78339D01*
X144864Y76754D01*
X145179Y75168D01*
X146077Y73824D01*
X147422Y72926D01*
X149007Y72610D01*
X149478Y72704D01*
X150118Y71784D01*
X150359Y71066D01*
X149588Y69912D01*
X149272Y68326D01*
X149588Y66740D01*
X149846Y66354D01*
X148895Y64576D01*
X131517D01*
X130389Y65951D01*
X130400Y66003D01*
X130084Y67589D01*
X129186Y68933D01*
X128873Y69143D01*
Y71281D01*
X128936Y71324D01*
X129834Y72668D01*
X130150Y74254D01*
X129834Y75839D01*
X128936Y77184D01*
X127592Y78082D01*
X127569Y78086D01*
X126328Y79430D01*
X126644Y81016D01*
X126328Y82602D01*
X125430Y83946D01*
X124692Y84439D01*
X124503Y86267D01*
X124570Y86496D01*
X124680Y86570D01*
X125578Y87914D01*
X125894Y89500D01*
X125578Y91086D01*
X124680Y92430D01*
X123336Y93328D01*
X121750Y93644D01*
X120164Y93328D01*
X118820Y92430D01*
X117922Y91086D01*
X117606Y89500D01*
X117922Y87914D01*
X118820Y86570D01*
X119558Y86077D01*
X119747Y84249D01*
X119680Y84020D01*
X119570Y83946D01*
X118672Y82602D01*
X118356Y81016D01*
X118672Y79430D01*
X119570Y78086D01*
X120914Y77188D01*
X120938Y77183D01*
X122178Y75839D01*
X121862Y74254D01*
X122178Y72668D01*
X123076Y71324D01*
X123390Y71114D01*
Y68976D01*
X123326Y68933D01*
X122428Y67589D01*
X122113Y66003D01*
X120374Y65629D01*
X99911D01*
X99398Y66253D01*
X99083Y67839D01*
X98185Y69183D01*
X98054Y69271D01*
X97421Y70975D01*
X97735Y71459D01*
X98316Y72328D01*
X98632Y73914D01*
X98316Y75500D01*
X97418Y76844D01*
X96074Y77742D01*
X94488Y78058D01*
X92902Y77742D01*
X91558Y76844D01*
X89971Y77668D01*
X88708Y78512D01*
X87122Y78828D01*
X85536Y78512D01*
X84743Y77982D01*
X83117Y77886D01*
X82362Y78076D01*
X81342Y78758D01*
X79756Y79074D01*
X78170Y78758D01*
X76826Y77860D01*
X75184Y77184D01*
X73839Y78082D01*
X72253Y78397D01*
X70668Y78082D01*
X70563Y78011D01*
X69211Y77323D01*
X68284Y78465D01*
X68191Y78604D01*
X66846Y79503D01*
X65261Y79818D01*
X63675Y79503D01*
X62331Y78604D01*
X61432Y77260D01*
X61117Y75675D01*
X61432Y74089D01*
X62331Y72745D01*
X63675Y71846D01*
X65261Y71531D01*
X66846Y71846D01*
X66952Y71917D01*
X68303Y72606D01*
X69230Y71463D01*
X69324Y71324D01*
X70668Y70425D01*
X72253Y70110D01*
X73839Y70425D01*
X75184Y71324D01*
X76826Y72000D01*
X78170Y71102D01*
X79756Y70786D01*
X81342Y71102D01*
X82135Y71632D01*
X83761Y71728D01*
X84516Y71538D01*
X85536Y70856D01*
X87122Y70540D01*
X88708Y70856D01*
X90052Y71754D01*
X91558Y70984D01*
X91689Y70897D01*
X92322Y69192D01*
X92007Y68708D01*
X91426Y67839D01*
X91111Y66253D01*
X89626Y64603D01*
X59516D01*
X59487Y64623D01*
X57554Y65007D01*
X56821D01*
X55514Y66785D01*
X55607Y67250D01*
X55294Y68822D01*
X55125Y69075D01*
X55092Y69372D01*
X55624Y71314D01*
X56270Y71746D01*
X57168Y73090D01*
X57484Y74676D01*
X57168Y76262D01*
X56270Y77606D01*
X54926Y78504D01*
X53340Y78820D01*
X51754Y78504D01*
X50410Y77606D01*
X49512Y76262D01*
X49196Y74676D01*
X49512Y73090D01*
X49698Y72811D01*
X49902Y71245D01*
X49220Y70571D01*
X48596Y70154D01*
X47706Y68822D01*
X47393Y67250D01*
X47486Y66785D01*
X46179Y65007D01*
X37776D01*
X37330Y65531D01*
X36652Y66785D01*
X36894Y68000D01*
X36578Y69586D01*
X35680Y70930D01*
X34336Y71828D01*
X32750Y72144D01*
X31164Y71828D01*
X29820Y70930D01*
X28922Y69586D01*
X28606Y68000D01*
X28799Y67032D01*
X27711Y65530D01*
X26165Y65526D01*
X25144Y66688D01*
X24828Y68274D01*
X23930Y69618D01*
X22586Y70516D01*
X21000Y70832D01*
X19414Y70516D01*
X18070Y69618D01*
X17551Y68841D01*
X15515Y68362D01*
X14037Y69840D01*
X14181Y72074D01*
X15079Y73418D01*
X15394Y75004D01*
X15079Y76589D01*
X14181Y77934D01*
X12836Y78832D01*
X11250Y79147D01*
X9665Y78832D01*
X8321Y77934D01*
X6522Y77900D01*
X6241Y78022D01*
X446Y83818D01*
Y87963D01*
X2224Y89422D01*
X2254Y89416D01*
X3840Y89732D01*
X5184Y90630D01*
X6082Y91974D01*
X6398Y93560D01*
X6082Y95146D01*
X5184Y96490D01*
X5930Y97820D01*
X6828Y99164D01*
X7144Y100750D01*
X6828Y102336D01*
X5930Y103680D01*
X4586Y104578D01*
X3000Y104894D01*
X446D01*
Y110707D01*
X2224Y111658D01*
X2478Y111488D01*
X4064Y111172D01*
X5650Y111488D01*
X6994Y112386D01*
X7892Y113730D01*
X8208Y115316D01*
X7892Y116902D01*
X6994Y118246D01*
X5650Y119144D01*
X4064Y119460D01*
X2478Y119144D01*
X2224Y118974D01*
X446Y119925D01*
Y156166D01*
X2224Y157441D01*
X2770Y157332D01*
X4356Y157648D01*
X5700Y158546D01*
X6598Y159890D01*
X6914Y161476D01*
X6598Y163062D01*
X6025Y163920D01*
X5680Y165828D01*
X6578Y167173D01*
X6727Y167920D01*
X7140Y168824D01*
X8615Y169220D01*
X9000Y169143D01*
X9941Y169330D01*
X10507Y168937D01*
X11241Y168102D01*
X11325Y167931D01*
X11086Y166730D01*
X11402Y165144D01*
X12300Y163800D01*
X13644Y162902D01*
X15230Y162586D01*
X16816Y162902D01*
X18160Y163800D01*
X19058Y165144D01*
X19084Y165272D01*
X20896D01*
X20917Y165169D01*
X21815Y163825D01*
X23159Y162927D01*
X24745Y162611D01*
X26331Y162927D01*
X27675Y163825D01*
X28032Y164359D01*
X80934D01*
X81172Y163164D01*
X82070Y161820D01*
X83414Y160922D01*
X85000Y160606D01*
X86586Y160922D01*
X87121Y161280D01*
X88403Y159998D01*
X88120Y159574D01*
X87804Y157988D01*
X88120Y156402D01*
X89018Y155058D01*
X90362Y154160D01*
X91727Y153888D01*
X92412Y152935D01*
X92766Y152242D01*
X92450Y150656D01*
X92766Y149071D01*
X93664Y147726D01*
X95008Y146828D01*
X96594Y146513D01*
X98180Y146828D01*
X99524Y147726D01*
X100422Y149071D01*
X100737Y150656D01*
X100422Y152242D01*
X99524Y153586D01*
X98180Y154485D01*
X96815Y154756D01*
X96130Y155709D01*
X95776Y156402D01*
X96092Y157988D01*
X95776Y159574D01*
X94878Y160918D01*
X93534Y161816D01*
X91948Y162132D01*
X90362Y161816D01*
X89827Y161458D01*
X88545Y162740D01*
X88828Y163164D01*
X89144Y164750D01*
X88828Y166336D01*
X87930Y167680D01*
X86586Y168578D01*
X85000Y168894D01*
X84247Y168744D01*
X83912Y168968D01*
X82995Y169151D01*
X28032D01*
X27675Y169685D01*
X26331Y170583D01*
X24745Y170899D01*
X23159Y170583D01*
X21815Y169685D01*
X20917Y168341D01*
X20891Y168213D01*
X19079D01*
X19058Y168316D01*
X18160Y169660D01*
X16816Y170558D01*
X15230Y170874D01*
X14267Y170682D01*
X13709Y171060D01*
X12974Y171882D01*
X12874Y172080D01*
X13107Y173250D01*
X12794Y174822D01*
X11904Y176154D01*
X10572Y177044D01*
X9000Y177357D01*
X7890Y177136D01*
X6822Y178347D01*
X6715Y178577D01*
X6842Y178768D01*
X7155Y180340D01*
X6842Y181912D01*
X5952Y183244D01*
X4620Y184134D01*
X3048Y184447D01*
X2224Y184283D01*
X446Y185421D01*
Y235554D01*
X2186Y237294D01*
X4115Y236709D01*
X4236Y236100D01*
X5135Y234756D01*
X6479Y233857D01*
X8065Y233542D01*
X9650Y233857D01*
X10994Y234756D01*
X11893Y236100D01*
X12199Y237639D01*
X12229Y237703D01*
X13759Y239004D01*
X14500Y238856D01*
X16086Y239172D01*
X17430Y240070D01*
X18328Y241414D01*
X18644Y243000D01*
X18465Y243899D01*
X19575Y245677D01*
X26216D01*
X28149Y246061D01*
X29424Y246914D01*
X30544Y246391D01*
X31034Y245895D01*
X30856Y245000D01*
X31172Y243414D01*
X32070Y242070D01*
X33414Y241172D01*
X35000Y240856D01*
X36586Y241172D01*
X37930Y242070D01*
X38828Y243414D01*
X39144Y245000D01*
X38828Y246586D01*
X37930Y247930D01*
X36586Y248828D01*
X35000Y249144D01*
X34112Y248967D01*
X33237Y250606D01*
X34822Y252192D01*
X35917Y253830D01*
X36302Y255763D01*
X35917Y257695D01*
X34822Y259333D01*
X33184Y260428D01*
X31251Y260812D01*
X29319Y260428D01*
X28983Y260204D01*
X26594Y260624D01*
X25250Y261522D01*
X23664Y261838D01*
X22078Y261522D01*
X20734Y260624D01*
X19836Y259280D01*
X19520Y257694D01*
X19548Y257555D01*
X18089Y255777D01*
X12378D01*
X11055Y257555D01*
X11144Y258000D01*
X10828Y259586D01*
X9930Y260930D01*
X8586Y261828D01*
X7000Y262144D01*
X5414Y261828D01*
X4070Y260930D01*
X3172Y259586D01*
X2856Y258000D01*
X3172Y256414D01*
X4070Y255070D01*
X3752Y253144D01*
X1643Y251035D01*
X0Y251715D01*
Y271110D01*
X1469Y271857D01*
X1734Y271883D01*
X1922Y271164D01*
X2820Y269820D01*
X4164Y268922D01*
X5750Y268606D01*
X7336Y268922D01*
X8680Y269820D01*
X9578Y271164D01*
X9894Y272750D01*
X9578Y274336D01*
X8680Y275680D01*
X7336Y276578D01*
X5750Y276894D01*
X4164Y276578D01*
X2820Y275680D01*
X1922Y274336D01*
X1734Y273617D01*
X1469Y273643D01*
X0Y274390D01*
Y281750D01*
X5701D01*
X6221Y280971D01*
X8070Y279736D01*
X10250Y279302D01*
X12430Y279736D01*
X14279Y280971D01*
X14799Y281750D01*
X20203D01*
X20388Y280822D01*
D02*
G37*
%LPC*%
G36*
X133250Y259644D02*
X131664Y259328D01*
X130320Y258430D01*
X129963Y257896D01*
X125287D01*
X124930Y258430D01*
X123586Y259328D01*
X122000Y259644D01*
X120414Y259328D01*
X119070Y258430D01*
X118172Y257086D01*
X117856Y255500D01*
X118172Y253914D01*
X119070Y252570D01*
X120414Y251672D01*
X122000Y251356D01*
X123586Y251672D01*
X124930Y252570D01*
X125287Y253104D01*
X129963D01*
X130320Y252570D01*
X131664Y251672D01*
X133250Y251356D01*
X134836Y251672D01*
X136180Y252570D01*
X137078Y253914D01*
X137394Y255500D01*
X137078Y257086D01*
X136180Y258430D01*
X134836Y259328D01*
X133250Y259644D01*
D02*
G37*
G36*
X61000Y259894D02*
X59414Y259578D01*
X58070Y258680D01*
X57172Y257336D01*
X56875Y255846D01*
X56294Y255499D01*
X56114Y255418D01*
X54901Y256033D01*
X54828Y256402D01*
X53930Y257746D01*
X52586Y258644D01*
X51000Y258960D01*
X49414Y258644D01*
X48070Y257746D01*
X47172Y256402D01*
X46856Y254816D01*
X47172Y253230D01*
X48070Y251886D01*
X49414Y250988D01*
X51000Y250672D01*
X51856Y249040D01*
X52172Y247454D01*
X53070Y246110D01*
X54414Y245212D01*
X56000Y244896D01*
X57586Y245212D01*
X58930Y246110D01*
X59828Y247454D01*
X60144Y249040D01*
X59952Y250002D01*
X60826Y251340D01*
X61275Y251661D01*
X62586Y251922D01*
X63930Y252820D01*
X64828Y254164D01*
X65144Y255750D01*
X64828Y257336D01*
X63930Y258680D01*
X62586Y259578D01*
X61000Y259894D01*
D02*
G37*
G36*
X75000Y259144D02*
X73414Y258828D01*
X72070Y257930D01*
X71172Y256586D01*
X70856Y255000D01*
X71172Y253414D01*
X72070Y252070D01*
X73414Y251172D01*
X75000Y250856D01*
X76586Y251172D01*
X77930Y252070D01*
X78828Y253414D01*
X79144Y255000D01*
X78828Y256586D01*
X77930Y257930D01*
X76586Y258828D01*
X75000Y259144D01*
D02*
G37*
G36*
X85750Y255644D02*
X84164Y255328D01*
X82820Y254430D01*
X81922Y253086D01*
X81606Y251500D01*
X81922Y249914D01*
X82820Y248570D01*
X84164Y247672D01*
X85750Y247356D01*
X87336Y247672D01*
X88680Y248570D01*
X89578Y249914D01*
X89894Y251500D01*
X89578Y253086D01*
X88680Y254430D01*
X87336Y255328D01*
X85750Y255644D01*
D02*
G37*
G36*
X145500Y246394D02*
X143914Y246078D01*
X142570Y245180D01*
X142054Y244407D01*
X119543D01*
X119186Y244942D01*
X117841Y245840D01*
X116256Y246155D01*
X114670Y245840D01*
X113326Y244942D01*
X112428Y243598D01*
X112112Y242012D01*
X112428Y240426D01*
X113326Y239082D01*
X114670Y238184D01*
X116256Y237868D01*
X117841Y238184D01*
X119186Y239082D01*
X119543Y239616D01*
X142372D01*
X142570Y239320D01*
X143914Y238422D01*
X145500Y238106D01*
X147086Y238422D01*
X148430Y239320D01*
X149328Y240664D01*
X149644Y242250D01*
X149328Y243836D01*
X148430Y245180D01*
X147086Y246078D01*
X145500Y246394D01*
D02*
G37*
G36*
X100584Y254334D02*
X98998Y254018D01*
X97654Y253120D01*
X96756Y251776D01*
X96440Y250190D01*
X96756Y248604D01*
X97654Y247260D01*
X98998Y246362D01*
X99646Y246233D01*
X100558Y244425D01*
X100557Y244366D01*
X100250Y242824D01*
X100510Y241521D01*
X99864Y240569D01*
X99260Y239993D01*
X98500Y240144D01*
X96914Y239828D01*
X95570Y238930D01*
X94672Y237586D01*
X94356Y236000D01*
X94672Y234414D01*
X95570Y233070D01*
X96914Y232172D01*
X98500Y231856D01*
X100086Y232172D01*
X101430Y233070D01*
X102328Y234414D01*
X102644Y236000D01*
X102384Y237303D01*
X103030Y238255D01*
X103634Y238832D01*
X104394Y238680D01*
X105980Y238996D01*
X107324Y239894D01*
X108222Y241238D01*
X108538Y242824D01*
X108222Y244410D01*
X107324Y245754D01*
X105980Y246652D01*
X105332Y246781D01*
X104420Y248589D01*
X104421Y248648D01*
X104728Y250190D01*
X104412Y251776D01*
X103514Y253120D01*
X102170Y254018D01*
X100584Y254334D01*
D02*
G37*
G36*
X194220Y243394D02*
X192634Y243078D01*
X191290Y242180D01*
X190392Y240836D01*
X190076Y239250D01*
X190392Y237664D01*
X191290Y236320D01*
X192634Y235422D01*
X194220Y235106D01*
X195806Y235422D01*
X197150Y236320D01*
X198048Y237664D01*
X198364Y239250D01*
X198048Y240836D01*
X197150Y242180D01*
X195806Y243078D01*
X194220Y243394D01*
D02*
G37*
G36*
X215280Y238394D02*
X213694Y238078D01*
X212350Y237180D01*
X211452Y235836D01*
X211136Y234250D01*
X211452Y232664D01*
X212350Y231320D01*
X213694Y230422D01*
X215280Y230106D01*
X216866Y230422D01*
X218210Y231320D01*
X219108Y232664D01*
X219424Y234250D01*
X219108Y235836D01*
X218210Y237180D01*
X216866Y238078D01*
X215280Y238394D01*
D02*
G37*
G36*
X150250Y235394D02*
X148664Y235078D01*
X147320Y234180D01*
X146422Y232836D01*
X146106Y231250D01*
X146422Y229664D01*
X147320Y228320D01*
X148664Y227422D01*
X150250Y227106D01*
X151836Y227422D01*
X153180Y228320D01*
X154078Y229664D01*
X154394Y231250D01*
X154078Y232836D01*
X153180Y234180D01*
X151836Y235078D01*
X150250Y235394D01*
D02*
G37*
G36*
X86500Y228894D02*
X84914Y228578D01*
X83570Y227680D01*
X82672Y226336D01*
X82356Y224750D01*
X82672Y223164D01*
X83570Y221820D01*
X84914Y220922D01*
X86500Y220606D01*
X88086Y220922D01*
X89430Y221820D01*
X90328Y223164D01*
X90644Y224750D01*
X90328Y226336D01*
X89430Y227680D01*
X88086Y228578D01*
X86500Y228894D01*
D02*
G37*
G36*
X15000Y234144D02*
X13414Y233828D01*
X12070Y232930D01*
X11172Y231586D01*
X10856Y230000D01*
X11172Y228414D01*
X12070Y227070D01*
X13414Y226172D01*
X15000Y225856D01*
X16586Y226172D01*
X16866Y226359D01*
X18370Y225226D01*
X18176Y224250D01*
X18492Y222664D01*
X19390Y221320D01*
X20734Y220422D01*
X22320Y220106D01*
X23906Y220422D01*
X25250Y221320D01*
X26148Y222664D01*
X26464Y224250D01*
X26148Y225836D01*
X25250Y227180D01*
X23906Y228078D01*
X22320Y228394D01*
X20734Y228078D01*
X20454Y227891D01*
X18950Y229024D01*
X19144Y230000D01*
X18828Y231586D01*
X17930Y232930D01*
X16586Y233828D01*
X15000Y234144D01*
D02*
G37*
G36*
X41500Y216394D02*
X39914Y216078D01*
X38570Y215180D01*
X37672Y213836D01*
X37356Y212250D01*
X37672Y210664D01*
X38570Y209320D01*
X39914Y208422D01*
X41500Y208106D01*
X43086Y208422D01*
X44430Y209320D01*
X45328Y210664D01*
X45644Y212250D01*
X45328Y213836D01*
X44430Y215180D01*
X43086Y216078D01*
X41500Y216394D01*
D02*
G37*
G36*
X195628Y223394D02*
X194042Y223078D01*
X192698Y222180D01*
X191800Y220836D01*
X191484Y219250D01*
X191800Y217664D01*
X192288Y216933D01*
X192407Y215776D01*
X191855Y214745D01*
X191126Y214258D01*
X190228Y212914D01*
X189912Y211328D01*
X190228Y209742D01*
X191126Y208398D01*
X192470Y207500D01*
X194056Y207184D01*
X195642Y207500D01*
X196986Y208398D01*
X197884Y209742D01*
X198200Y211328D01*
X197884Y212914D01*
X197395Y213645D01*
X197277Y214802D01*
X197829Y215833D01*
X198558Y216320D01*
X199456Y217664D01*
X199772Y219250D01*
X199456Y220836D01*
X198558Y222180D01*
X197214Y223078D01*
X195628Y223394D01*
D02*
G37*
G36*
X24500Y210644D02*
X22914Y210328D01*
X21570Y209430D01*
X20672Y208086D01*
X20500Y207224D01*
X19925Y206351D01*
X18660Y205915D01*
X17938Y206059D01*
X16352Y205744D01*
X15008Y204845D01*
X14110Y203501D01*
X13794Y201915D01*
X14110Y200329D01*
X15008Y198985D01*
X15570Y197430D01*
X14845Y196346D01*
X13524Y195090D01*
X11938Y195406D01*
X10352Y195090D01*
X9008Y194192D01*
X8110Y192848D01*
X7794Y191262D01*
X8110Y189676D01*
X9008Y188332D01*
X10352Y187434D01*
X11938Y187118D01*
X13524Y187434D01*
X14868Y188332D01*
X15593Y189417D01*
X16914Y190672D01*
X18500Y190356D01*
X20086Y190672D01*
X21430Y191570D01*
X22328Y192914D01*
X22644Y194500D01*
X22328Y196086D01*
X21430Y197430D01*
X20868Y198985D01*
X21236Y199535D01*
X21766Y200329D01*
X21938Y201191D01*
X22513Y202064D01*
X23778Y202500D01*
X24500Y202356D01*
X26086Y202672D01*
X27430Y203570D01*
X28328Y204914D01*
X28644Y206500D01*
X28328Y208086D01*
X27430Y209430D01*
X26086Y210328D01*
X24500Y210644D01*
D02*
G37*
G36*
X129750Y212894D02*
X128164Y212578D01*
X126820Y211680D01*
X125922Y210336D01*
X125606Y208750D01*
X125922Y207164D01*
X126820Y205820D01*
X128164Y204922D01*
X129750Y204606D01*
X131336Y204922D01*
X132680Y205820D01*
X133578Y207164D01*
X133894Y208750D01*
X133578Y210336D01*
X132680Y211680D01*
X131336Y212578D01*
X129750Y212894D01*
D02*
G37*
G36*
X172974Y219536D02*
X171388Y219220D01*
X170044Y218322D01*
X169146Y216978D01*
X168830Y215392D01*
X169146Y213806D01*
X169513Y213256D01*
X170021Y212427D01*
X169063Y210979D01*
X169028Y210956D01*
X168130Y209612D01*
X167814Y208026D01*
X168130Y206440D01*
X169028Y205096D01*
X170372Y204198D01*
X171958Y203882D01*
X173544Y204198D01*
X174888Y205096D01*
X175786Y206440D01*
X176102Y208026D01*
X175786Y209612D01*
X175418Y210162D01*
X174911Y210991D01*
X175869Y212439D01*
X175904Y212462D01*
X176802Y213806D01*
X177118Y215392D01*
X176802Y216978D01*
X175904Y218322D01*
X174560Y219220D01*
X172974Y219536D01*
D02*
G37*
G36*
X60250Y230894D02*
X58664Y230578D01*
X57320Y229680D01*
X56422Y228336D01*
X56106Y226750D01*
X56324Y225655D01*
X56203Y224756D01*
X55469Y223389D01*
X54728Y222894D01*
X53830Y221550D01*
X53514Y219964D01*
X53830Y218378D01*
X54728Y217034D01*
X56072Y216136D01*
X57464Y215859D01*
X58437Y215379D01*
X59106Y215000D01*
X59215Y214455D01*
X59422Y213414D01*
X60320Y212070D01*
X61664Y211172D01*
X63250Y210856D01*
X64836Y211172D01*
X66180Y212070D01*
X67078Y213414D01*
X67394Y215000D01*
X67236Y215790D01*
X68317Y217445D01*
X70065Y217548D01*
X72036Y215576D01*
X72035Y215509D01*
X71336Y213762D01*
X70414Y213578D01*
X69070Y212680D01*
X68172Y211336D01*
X67856Y209750D01*
X68172Y208164D01*
X69070Y206820D01*
X70414Y205922D01*
X72000Y205606D01*
X73586Y205922D01*
X74930Y206820D01*
X75828Y208164D01*
X76012Y209086D01*
X77759Y209785D01*
X77826Y209786D01*
X89556Y198056D01*
X89556Y198056D01*
X90333Y197537D01*
X91250Y197355D01*
X112963D01*
X113320Y196820D01*
X114664Y195922D01*
X116250Y195606D01*
X117836Y195922D01*
X119180Y196820D01*
X120078Y198164D01*
X120394Y199750D01*
X120078Y201336D01*
X119180Y202680D01*
X117836Y203578D01*
X116250Y203894D01*
X114664Y203578D01*
X113320Y202680D01*
X112963Y202146D01*
X92242D01*
X72730Y221658D01*
X71953Y222177D01*
X71036Y222360D01*
X64180D01*
X63757Y222978D01*
X63392Y224137D01*
X64078Y225164D01*
X64394Y226750D01*
X64078Y228336D01*
X63180Y229680D01*
X61836Y230578D01*
X60250Y230894D01*
D02*
G37*
G36*
X186460Y201062D02*
X184874Y200746D01*
X183530Y199848D01*
X182632Y198504D01*
X182316Y196918D01*
X182632Y195332D01*
X183530Y193988D01*
X184874Y193090D01*
X186460Y192774D01*
X188046Y193090D01*
X189390Y193988D01*
X190288Y195332D01*
X190604Y196918D01*
X190288Y198504D01*
X189390Y199848D01*
X188046Y200746D01*
X186460Y201062D01*
D02*
G37*
G36*
X163750Y198644D02*
X162164Y198328D01*
X160820Y197430D01*
X159922Y196086D01*
X159606Y194500D01*
X159922Y192914D01*
X160820Y191570D01*
X162164Y190672D01*
X163750Y190356D01*
X165336Y190672D01*
X166680Y191570D01*
X167578Y192914D01*
X167894Y194500D01*
X167578Y196086D01*
X166680Y197430D01*
X165336Y198328D01*
X163750Y198644D01*
D02*
G37*
G36*
X43942Y190580D02*
X42356Y190264D01*
X41012Y189366D01*
X40114Y188022D01*
X39798Y186436D01*
X40114Y184850D01*
X41012Y183506D01*
X42356Y182608D01*
X43942Y182292D01*
X45528Y182608D01*
X46872Y183506D01*
X47770Y184850D01*
X48086Y186436D01*
X47770Y188022D01*
X46872Y189366D01*
X45528Y190264D01*
X43942Y190580D01*
D02*
G37*
G36*
X171750Y186644D02*
X170164Y186328D01*
X168820Y185430D01*
X167922Y184086D01*
X167606Y182500D01*
X167922Y180914D01*
X168820Y179570D01*
X170164Y178672D01*
X171750Y178356D01*
X173336Y178672D01*
X174680Y179570D01*
X175578Y180914D01*
X175894Y182500D01*
X175578Y184086D01*
X174680Y185430D01*
X173336Y186328D01*
X171750Y186644D01*
D02*
G37*
G36*
X100000Y182894D02*
X98414Y182578D01*
X97070Y181680D01*
X96172Y180336D01*
X95856Y178750D01*
X96172Y177164D01*
X97070Y175820D01*
X98414Y174922D01*
X100000Y174606D01*
X101586Y174922D01*
X102930Y175820D01*
X103828Y177164D01*
X104144Y178750D01*
X103828Y180336D01*
X102930Y181680D01*
X101586Y182578D01*
X100000Y182894D01*
D02*
G37*
G36*
X164338Y176610D02*
X162752Y176294D01*
X161408Y175396D01*
X160510Y174052D01*
X160194Y172466D01*
X160510Y170880D01*
X161408Y169536D01*
X162752Y168638D01*
X164338Y168322D01*
X165924Y168638D01*
X167268Y169536D01*
X167529Y169927D01*
X167801Y170255D01*
X169575Y169788D01*
X169613Y169278D01*
X169615Y169258D01*
X169638Y169144D01*
X169930Y167673D01*
X170828Y166328D01*
X172173Y165430D01*
X173759Y165115D01*
X175344Y165430D01*
X176688Y166328D01*
X177587Y167673D01*
X177902Y169258D01*
X177587Y170844D01*
X176688Y172188D01*
X175344Y173086D01*
X173759Y173402D01*
X172173Y173086D01*
X170828Y172188D01*
X170567Y171798D01*
X170296Y171469D01*
X168521Y171936D01*
X168483Y172446D01*
X168482Y172466D01*
X168459Y172580D01*
X168166Y174052D01*
X167268Y175396D01*
X165924Y176294D01*
X164338Y176610D01*
D02*
G37*
G36*
X143757Y170152D02*
X142171Y169836D01*
X140827Y168938D01*
X139929Y167594D01*
X139613Y166008D01*
X139929Y164422D01*
X140827Y163078D01*
X142171Y162180D01*
X143757Y161864D01*
X145343Y162180D01*
X146687Y163078D01*
X147585Y164422D01*
X147901Y166008D01*
X147585Y167594D01*
X146687Y168938D01*
X145343Y169836D01*
X143757Y170152D01*
D02*
G37*
G36*
X194220Y163394D02*
X192634Y163078D01*
X191290Y162180D01*
X190392Y160836D01*
X190076Y159250D01*
X190392Y157664D01*
X191290Y156320D01*
X192634Y155422D01*
X194220Y155106D01*
X195806Y155422D01*
X197150Y156320D01*
X198048Y157664D01*
X198364Y159250D01*
X198048Y160836D01*
X197150Y162180D01*
X195806Y163078D01*
X194220Y163394D01*
D02*
G37*
G36*
X162560Y143844D02*
X160974Y143528D01*
X159630Y142630D01*
X159335Y142188D01*
X158695Y141295D01*
X157056Y141735D01*
X157034Y141750D01*
X155448Y142066D01*
X153862Y141750D01*
X152518Y140852D01*
X151620Y139508D01*
X151613Y139474D01*
X149742Y139074D01*
X148398Y139972D01*
X146812Y140288D01*
X145226Y139972D01*
X143882Y139074D01*
X142984Y137730D01*
X142668Y136144D01*
X142984Y134558D01*
X143882Y133214D01*
X145226Y132316D01*
X146812Y132000D01*
X148398Y132316D01*
X149742Y133214D01*
X150640Y134558D01*
X150647Y134592D01*
X152518Y134992D01*
X153862Y134094D01*
X155448Y133778D01*
X157034Y134094D01*
X158378Y134992D01*
X158673Y135434D01*
X159312Y136327D01*
X160952Y135887D01*
X160974Y135872D01*
X162560Y135556D01*
X164146Y135872D01*
X165490Y136770D01*
X166388Y138114D01*
X166704Y139700D01*
X166388Y141286D01*
X165490Y142630D01*
X164146Y143528D01*
X162560Y143844D01*
D02*
G37*
G36*
X110000Y159394D02*
X108414Y159078D01*
X107070Y158180D01*
X106172Y156836D01*
X105856Y155250D01*
X106172Y153664D01*
X107070Y152320D01*
X108414Y151422D01*
X110000Y151106D01*
X110365Y151179D01*
X111434Y149579D01*
X111327Y149419D01*
X111012Y147833D01*
X111327Y146247D01*
X112225Y144903D01*
X113569Y144005D01*
X115155Y143689D01*
X116741Y144005D01*
X117625Y144596D01*
X119131Y144216D01*
X119571Y143926D01*
X119616Y143702D01*
X120514Y142358D01*
X120570Y140430D01*
X119672Y139086D01*
X119356Y137500D01*
X119672Y135914D01*
X120570Y134570D01*
X121914Y133672D01*
X123500Y133356D01*
X125086Y133672D01*
X126430Y134570D01*
X127328Y135914D01*
X127644Y137500D01*
X127328Y139086D01*
X126430Y140430D01*
X126374Y142358D01*
X127272Y143702D01*
X127588Y145288D01*
X127272Y146874D01*
X126374Y148218D01*
X125990Y148474D01*
X125125Y149423D01*
X125537Y150753D01*
X125748Y151068D01*
X126064Y152654D01*
X125748Y154240D01*
X124850Y155584D01*
X123506Y156482D01*
X121920Y156798D01*
X120334Y156482D01*
X118990Y155584D01*
X118092Y154240D01*
X117856Y153055D01*
X117357Y152431D01*
X116137Y151781D01*
X115155Y151977D01*
X114790Y151904D01*
X113721Y153504D01*
X113828Y153664D01*
X114144Y155250D01*
X113828Y156836D01*
X112930Y158180D01*
X111586Y159078D01*
X110000Y159394D01*
D02*
G37*
G36*
X50750Y146144D02*
X49164Y145828D01*
X47820Y144930D01*
X46922Y143586D01*
X46606Y142000D01*
X46922Y140414D01*
X47820Y139070D01*
X48968Y138303D01*
X49199Y137304D01*
X49237Y136345D01*
X49140Y136280D01*
X48242Y134936D01*
X47926Y133350D01*
X48242Y131764D01*
X49140Y130420D01*
X50469Y129532D01*
X50483Y129459D01*
X50452Y127715D01*
X49742Y127574D01*
X48398Y126676D01*
X47500Y125332D01*
X47184Y123746D01*
X47500Y122160D01*
X48398Y120816D01*
X49742Y119918D01*
X51328Y119602D01*
X52914Y119918D01*
X54258Y120816D01*
X55156Y122160D01*
X55472Y123746D01*
X55156Y125332D01*
X54258Y126676D01*
X52929Y127564D01*
X52915Y127637D01*
X52946Y129381D01*
X53656Y129522D01*
X55000Y130420D01*
X55898Y131764D01*
X56214Y133350D01*
X55898Y134936D01*
X55000Y136280D01*
X53852Y137047D01*
X53621Y138046D01*
X53583Y139005D01*
X53680Y139070D01*
X54578Y140414D01*
X54894Y142000D01*
X54578Y143586D01*
X53680Y144930D01*
X52336Y145828D01*
X50750Y146144D01*
D02*
G37*
G36*
X22250Y120894D02*
X20664Y120578D01*
X19320Y119680D01*
X18422Y118336D01*
X18106Y116750D01*
X18422Y115164D01*
X19320Y113820D01*
X20664Y112922D01*
X22250Y112606D01*
X23836Y112922D01*
X25180Y113820D01*
X26078Y115164D01*
X26394Y116750D01*
X26078Y118336D01*
X25180Y119680D01*
X23836Y120578D01*
X22250Y120894D01*
D02*
G37*
G36*
X146050Y123778D02*
X144464Y123462D01*
X143120Y122564D01*
X142222Y121220D01*
X141906Y119634D01*
X142222Y118048D01*
X143120Y116704D01*
X144464Y115806D01*
X146050Y115490D01*
X147636Y115806D01*
X148600Y116450D01*
X149783Y116011D01*
X149977Y115908D01*
X150327Y115629D01*
X150604Y114238D01*
X151502Y112894D01*
X152846Y111996D01*
X154432Y111680D01*
X156018Y111996D01*
X157362Y112894D01*
X158260Y114238D01*
X158576Y115824D01*
X158260Y117410D01*
X157362Y118754D01*
X156018Y119652D01*
X154432Y119968D01*
X152846Y119652D01*
X151882Y119008D01*
X150699Y119446D01*
X150505Y119550D01*
X150155Y119829D01*
X149878Y121220D01*
X148980Y122564D01*
X147636Y123462D01*
X146050Y123778D01*
D02*
G37*
G36*
X65000Y119144D02*
X63414Y118828D01*
X62070Y117930D01*
X61172Y116586D01*
X60856Y115000D01*
X61172Y113414D01*
X62070Y112070D01*
X63414Y111172D01*
X65000Y110856D01*
X66586Y111172D01*
X67930Y112070D01*
X68828Y113414D01*
X69144Y115000D01*
X68828Y116586D01*
X67930Y117930D01*
X66586Y118828D01*
X65000Y119144D01*
D02*
G37*
G36*
X81750Y110144D02*
X80164Y109828D01*
X78820Y108930D01*
X77922Y107586D01*
X77606Y106000D01*
X77809Y104981D01*
X76341Y103824D01*
X75586Y104328D01*
X74000Y104644D01*
X72414Y104328D01*
X71070Y103430D01*
X70172Y102086D01*
X69856Y100500D01*
X70172Y98914D01*
X71070Y97570D01*
X72414Y96672D01*
X74000Y96356D01*
X75586Y96672D01*
X76930Y97570D01*
X77828Y98914D01*
X78144Y100500D01*
X77941Y101519D01*
X79409Y102676D01*
X80164Y102172D01*
X81750Y101856D01*
X83336Y102172D01*
X83663Y102391D01*
X85161Y102624D01*
X85918Y101922D01*
X86320Y101320D01*
X87664Y100422D01*
X89250Y100106D01*
X90836Y100422D01*
X92180Y101320D01*
X93078Y102664D01*
X93394Y104250D01*
X93078Y105836D01*
X92180Y107180D01*
X90836Y108078D01*
X89250Y108394D01*
X87664Y108078D01*
X87337Y107859D01*
X85839Y107626D01*
X85082Y108328D01*
X84680Y108930D01*
X83336Y109828D01*
X81750Y110144D01*
D02*
G37*
G36*
X60750Y105144D02*
X59164Y104828D01*
X57820Y103930D01*
X56922Y102586D01*
X56606Y101000D01*
X56922Y99414D01*
X57820Y98070D01*
X59164Y97172D01*
X60750Y96856D01*
X62336Y97172D01*
X63680Y98070D01*
X64578Y99414D01*
X64894Y101000D01*
X64578Y102586D01*
X63680Y103930D01*
X62336Y104828D01*
X60750Y105144D01*
D02*
G37*
G36*
X192759Y100898D02*
X191174Y100583D01*
X189829Y99685D01*
X188931Y98340D01*
X188616Y96755D01*
X188931Y95169D01*
X189829Y93825D01*
X191174Y92927D01*
X192759Y92611D01*
X194345Y92927D01*
X195689Y93825D01*
X196588Y95169D01*
X196903Y96755D01*
X196588Y98340D01*
X195689Y99685D01*
X194345Y100583D01*
X192759Y100898D01*
D02*
G37*
G36*
X14986Y98124D02*
X13400Y97808D01*
X12056Y96910D01*
X11158Y95566D01*
X10842Y93980D01*
X11158Y92394D01*
X12056Y91050D01*
X13400Y90152D01*
X14986Y89836D01*
X16572Y90152D01*
X17916Y91050D01*
X18814Y92394D01*
X19130Y93980D01*
X18814Y95566D01*
X17916Y96910D01*
X16572Y97808D01*
X14986Y98124D01*
D02*
G37*
G36*
X155194Y97108D02*
X153608Y96792D01*
X152264Y95894D01*
X151366Y94550D01*
X151050Y92964D01*
X151366Y91378D01*
X152264Y90034D01*
X153608Y89136D01*
X155194Y88820D01*
X156780Y89136D01*
X158124Y90034D01*
X159022Y91378D01*
X159338Y92964D01*
X159022Y94550D01*
X158124Y95894D01*
X156780Y96792D01*
X155194Y97108D01*
D02*
G37*
G36*
X173500Y96894D02*
X171914Y96578D01*
X170570Y95680D01*
X169672Y94336D01*
X169356Y92750D01*
X169672Y91164D01*
X170570Y89820D01*
X171914Y88922D01*
X173500Y88606D01*
X175086Y88922D01*
X176430Y89820D01*
X177328Y91164D01*
X177644Y92750D01*
X177328Y94336D01*
X176430Y95680D01*
X175086Y96578D01*
X173500Y96894D01*
D02*
G37*
G36*
X133584Y91250D02*
X131998Y90934D01*
X130654Y90036D01*
X129756Y88692D01*
X129440Y87106D01*
X129756Y85520D01*
X130654Y84176D01*
X131998Y83278D01*
X133584Y82962D01*
X135170Y83278D01*
X136514Y84176D01*
X137412Y85520D01*
X137728Y87106D01*
X137412Y88692D01*
X136514Y90036D01*
X135170Y90934D01*
X133584Y91250D01*
D02*
G37*
G36*
X144757Y90148D02*
X143171Y89832D01*
X141827Y88934D01*
X140929Y87590D01*
X140613Y86004D01*
X140929Y84418D01*
X141827Y83074D01*
X143171Y82176D01*
X144757Y81861D01*
X146343Y82176D01*
X147687Y83074D01*
X148585Y84418D01*
X148901Y86004D01*
X148585Y87590D01*
X147687Y88934D01*
X146343Y89832D01*
X144757Y90148D01*
D02*
G37*
G36*
X193250Y88894D02*
X191664Y88578D01*
X190320Y87680D01*
X189422Y86336D01*
X189106Y84750D01*
X189422Y83164D01*
X190320Y81820D01*
X191664Y80922D01*
X193250Y80606D01*
X194836Y80922D01*
X196180Y81820D01*
X197078Y83164D01*
X197394Y84750D01*
X197078Y86336D01*
X196180Y87680D01*
X194836Y88578D01*
X193250Y88894D01*
D02*
G37*
G36*
X178250Y84144D02*
X176664Y83828D01*
X175320Y82930D01*
X174422Y81586D01*
X174106Y80000D01*
X174422Y78414D01*
X175320Y77070D01*
X176664Y76172D01*
X178250Y75856D01*
X179836Y76172D01*
X181180Y77070D01*
X182078Y78414D01*
X182394Y80000D01*
X182078Y81586D01*
X181180Y82930D01*
X179836Y83828D01*
X178250Y84144D01*
D02*
G37*
%LPD*%
D14*
X307500Y313750D02*
Y356750D01*
X299750Y364500D02*
X307500Y356750D01*
X286250Y364500D02*
X299750D01*
X286125Y364625D02*
X286250Y364500D01*
X234375Y364625D02*
X286125D01*
X234250Y364750D02*
X234375Y364625D01*
X-39250Y352000D02*
Y378250D01*
Y352000D02*
X-35250Y348000D01*
X-39250Y378250D02*
X-24750Y392750D01*
X132270Y443778D02*
Y451395D01*
X128461Y447587D01*
X133539D01*
D15*
X296576Y76576D02*
Y89450D01*
X295000Y75000D02*
X296576Y76576D01*
X271249Y86576D02*
X282825Y75000D01*
X295000D01*
X291592Y94434D02*
X296576Y89450D01*
X291592Y94434D02*
Y104140D01*
X265180Y86576D02*
X271249D01*
X261916Y83312D02*
X265180Y86576D01*
X261366Y83312D02*
X261916D01*
X317750Y118901D02*
Y132250D01*
X303243Y104394D02*
X317750Y118901D01*
X291592Y104140D02*
X291846Y104394D01*
X303243D01*
D88*
X296428Y258572D02*
X304000Y251000D01*
X281572Y258572D02*
X296428D01*
X274000Y251000D02*
X281572Y258572D01*
D93*
X-3510Y100750D02*
X3000D01*
X-4604Y99656D02*
X-3510Y100750D01*
D94*
X92398Y312500D02*
X101487Y321589D01*
X35500Y312500D02*
X92398D01*
X34250Y313750D02*
X35500Y312500D01*
X101487Y321589D02*
X105987D01*
D95*
X262409Y37084D02*
X266697D01*
X247326Y22002D02*
X262409Y37084D01*
X211248Y22002D02*
X247326D01*
X126455Y17705D02*
Y21367D01*
X120605Y11855D02*
X126455Y17705D01*
X120605Y6294D02*
Y11855D01*
X141768Y12177D02*
X164846Y35255D01*
X137183Y12177D02*
X141768D01*
X133006Y8000D02*
X137183Y12177D01*
X164846Y35255D02*
Y40386D01*
X149507Y8000D02*
Y13092D01*
X169184Y32769D01*
X171674D01*
X174536Y35631D01*
X177954D01*
X178537Y36214D01*
X141257Y8000D02*
Y8254D01*
X172000Y38997D01*
Y39250D01*
X141250Y36163D02*
Y41000D01*
X126455Y21367D02*
X141250Y36163D01*
X116494Y2182D02*
X120605Y6294D01*
X116494Y-7994D02*
Y2182D01*
X128868Y-3619D02*
Y20368D01*
X124494Y-7994D02*
X128868Y-3619D01*
Y20368D02*
X149000Y40500D01*
X224750Y302500D02*
X232250Y295000D01*
X137803Y302500D02*
X224750D01*
X118027Y322277D02*
X137803Y302500D01*
X57658Y219964D02*
X71036D01*
X91250Y199750D01*
X24745Y166755D02*
X82995D01*
X85000Y164750D01*
X116256Y242012D02*
X145262D01*
X145500Y242250D01*
X91250Y199750D02*
X116250D01*
X122000Y255500D02*
X133250D01*
D101*
X211248Y22002D02*
D03*
X266697Y37084D02*
D03*
X204494Y-7994D02*
D03*
X196493D02*
D03*
X188493D02*
D03*
X180494D02*
D03*
X172493D02*
D03*
X141250Y41000D02*
D03*
X149507Y8000D02*
D03*
X141257D02*
D03*
X133006D02*
D03*
X149000Y40500D02*
D03*
X124494Y-7994D02*
D03*
X116494D02*
D03*
X274500Y131000D02*
D03*
X-35250Y348000D02*
D03*
X-24750Y392750D02*
D03*
D102*
X172000Y39250D02*
D03*
X178537Y36214D02*
D03*
X3000Y100750D02*
D03*
X193250Y104000D02*
D03*
X295000Y75000D02*
D03*
X61003Y66503D02*
D03*
X263763Y66253D02*
D03*
X31251Y255763D02*
D03*
X26250Y283250D02*
D03*
X317750Y132250D02*
D03*
X234250Y364750D02*
D03*
X286250Y364500D02*
D03*
X2032Y279654D02*
D03*
X187198Y67056D02*
D03*
X291592Y104140D02*
D03*
X57658Y219964D02*
D03*
X261366Y83312D02*
D03*
X260000Y72500D02*
D03*
X265000Y55000D02*
D03*
X110755Y67503D02*
D03*
X24745Y166755D02*
D03*
X91504Y256513D02*
D03*
X206010Y260013D02*
D03*
X116256Y242012D02*
D03*
X194220Y229250D02*
D03*
X161000Y257470D02*
D03*
X16000Y278530D02*
D03*
X145500Y242250D02*
D03*
X232250Y295000D02*
D03*
X116250Y199750D02*
D03*
X85000Y164750D02*
D03*
X-5500Y336750D02*
D03*
X118027Y322277D02*
D03*
X19558Y446024D02*
D03*
X-24618Y148094D02*
D03*
X164846Y40386D02*
D03*
X162560Y67056D02*
D03*
X283464Y168148D02*
D03*
X260000Y50000D02*
D03*
Y60000D02*
D03*
X327000Y355000D02*
D03*
X301250D02*
D03*
X307500Y313750D02*
D03*
X215280Y164250D02*
D03*
X258750Y228750D02*
D03*
X304000Y251000D02*
D03*
X274000D02*
D03*
X181000Y46000D02*
D03*
X-21250Y89250D02*
D03*
X122000Y255500D02*
D03*
X133250D02*
D03*
X2780Y154250D02*
D03*
Y219250D02*
D03*
X194220Y134250D02*
D03*
X2780Y84250D02*
D03*
D103*
X232087Y123670D02*
D03*
X224192Y163000D02*
D03*
X10250Y285000D02*
D03*
X34250Y313750D02*
D03*
X223430Y152078D02*
D03*
X105987Y321589D02*
D03*
D106*
X132981Y50636D02*
X176364D01*
X132727Y50382D02*
X132981Y50636D01*
X176364D02*
X181000Y46000D01*
X113333Y50382D02*
X132727D01*
X53872Y51067D02*
X54276Y50663D01*
X101725Y50632D02*
X102782Y51689D01*
X112026D02*
X113333Y50382D01*
X88753Y50663D02*
X88784Y50632D01*
X54276Y50663D02*
X88753D01*
X-9271Y73434D02*
X13096Y51067D01*
X102782Y51689D02*
X112026D01*
X13096Y51067D02*
X53872D01*
X88784Y50632D02*
X101725D01*
X207279Y72279D02*
Y111128D01*
X181000Y46000D02*
X207279Y72279D01*
Y111128D02*
X207645Y111494D01*
Y129921D01*
X233000Y143961D02*
Y163000D01*
X223405Y134366D02*
X233000Y143961D01*
X222885Y134886D02*
X223405Y134366D01*
X207645Y129921D02*
X218198D01*
X222885Y134608D02*
Y134886D01*
X218198Y129921D02*
X222885Y134608D01*
X233000Y180585D02*
Y248250D01*
X211987Y269263D02*
X233000Y248250D01*
Y180585D02*
X235262Y178323D01*
X50487Y269263D02*
X211987D01*
X36500Y283250D02*
X50487Y269263D01*
X235262Y171073D02*
Y178323D01*
X233000Y168811D02*
X235262Y171073D01*
X233000Y163000D02*
Y168811D01*
Y163000D02*
X233261Y163261D01*
X26250Y283250D02*
X36500D01*
X-9271Y73434D02*
Y73821D01*
X-21250Y85800D02*
X-9271Y73821D01*
X-21250Y85800D02*
Y89250D01*
D107*
X129298Y59526D02*
X155030D01*
X129044Y59272D02*
X129298Y59526D01*
X155030D02*
X162560Y67056D01*
X123468Y59272D02*
X129044D01*
X121661Y60579D02*
X122714Y59526D01*
X123214D02*
X123468Y59272D01*
X122714Y59526D02*
X123214D01*
X57554Y59957D02*
X57958Y59553D01*
X98043Y59522D02*
X99100Y60579D01*
X57958Y59553D02*
X92436D01*
X92467Y59522D01*
X2796Y73939D02*
X16778Y59957D01*
X92467Y59522D02*
X98043D01*
X99100Y60579D02*
X121661D01*
X16778Y59957D02*
X57554D01*
X26216Y250727D02*
X31251Y255763D01*
X8477Y250727D02*
X26216D01*
X-4604Y237646D02*
X8477Y250727D01*
X-4604Y99656D02*
Y237646D01*
X2796Y73939D02*
Y74327D01*
X-4604Y81726D02*
Y99656D01*
Y81726D02*
X2796Y74327D01*
D108*
X224192Y163000D02*
X233000D01*
M02*
