*
%LPD*%
%LNSTEVAL-ESC002V1-PMT*%
%FSLAX25Y25*%
%MOIN*%
%AD*%
%ADD10C,0.015*%
%ADD20R,0.17X0.08*%
%ADD45R,0.1063X0.03937*%
%ADD46O,0.012X0.036*%
%ADD47R,0.05X0.04*%
%ADD48O,0.036X0.012*%
%ADD49R,0.035X0.03*%
%ADD50R,0.03X0.035*%
%ADD51R,0.11X0.11*%
%ADD52R,0.036X0.048*%
%ADD53R,0.02362X0.06102*%
%ADD54R,0.05906X0.04331*%
%ADD55R,0.02717X0.03937*%
%ADD56R,0.04724X0.07087*%
G54D20*
%SRX1Y1I0.0J0.0*%
G1X9500Y29000D3*
G1X9500Y69500D3*
G54D54*
G1X108594Y79547D3*
G1X108594Y85453D3*
G1X120406Y79547D3*
G1X120406Y85453D3*
G54D49*
G1X32750Y8500D3*
G1X38250Y8500D3*
G1X43750Y41500D3*
G1X43750Y51500D3*
G1X39250Y41500D3*
G1X33750Y41500D3*
G1X39250Y55000D3*
G1X33750Y55000D3*
G1X39250Y48500D3*
G1X33750Y48500D3*
G1X43750Y61500D3*
G1X43750Y73500D3*
G1X43750Y67500D3*
G1X39250Y61500D3*
G1X33750Y61500D3*
G1X42750Y80500D3*
G1X37250Y80500D3*
G1X49250Y41500D3*
G1X49250Y51500D3*
G1X49250Y61500D3*
G1X49250Y73500D3*
G1X49250Y67500D3*
G1X67250Y75000D3*
G1X61750Y75000D3*
G1X55250Y80500D3*
G1X49750Y80500D3*
G1X84250Y29000D3*
G1X71250Y30000D3*
G1X76750Y30000D3*
G1X89750Y29000D3*
G1X99250Y44500D3*
G1X104750Y44500D3*
G1X99250Y50500D3*
G1X104750Y50500D3*
G1X99750Y89500D3*
G1X94250Y89500D3*
G1X128250Y14500D3*
G1X122750Y14500D3*
G1X117250Y36500D3*
G1X122750Y36500D3*
G54D56*
G1X46945Y4006D3*
G1X65055Y4006D3*
G54D55*
G1X118760Y30600D3*
G1X126240Y30600D3*
G1X118760Y20400D3*
G1X126240Y20400D3*
G1X122500Y20400D3*
G54D52*
G1X122950Y49000D3*
G1X110050Y49000D3*
G54D50*
G1X43000Y91750D3*
G1X43000Y86250D3*
G1X37000Y86250D3*
G1X37000Y91750D3*
G1X49000Y35750D3*
G1X49000Y30250D3*
G1X55500Y91750D3*
G1X55500Y86250D3*
G1X67500Y86250D3*
G1X67500Y80750D3*
G1X61500Y80750D3*
G1X61500Y86250D3*
G1X49500Y86250D3*
G1X49500Y91750D3*
G1X87500Y74750D3*
G1X87500Y80250D3*
G1X87500Y86750D3*
G1X87500Y92250D3*
G1X81500Y86750D3*
G1X81500Y92250D3*
G1X98000Y37250D3*
G1X98000Y31750D3*
G1X94000Y74750D3*
G1X100000Y74750D3*
G1X94000Y80250D3*
G1X100000Y80250D3*
G1X117500Y9750D3*
G1X117500Y15250D3*
G1X128000Y38750D3*
G1X112000Y34750D3*
G1X111000Y25750D3*
G1X111000Y20250D3*
G1X115500Y58250D3*
G1X128000Y44250D3*
G1X112000Y40250D3*
G1X115500Y63750D3*
G1X134000Y38750D3*
G1X134000Y33250D3*
G1X134000Y25750D3*
G1X134000Y20250D3*
G1X0Y15000D2*
G54D10*
G1X0Y0D1*
G1X15000Y0D1*
G1X15000Y98500D2*
G1X0Y98500D1*
G1X0Y83500D1*
G1X144500Y0D2*
G1X159500Y0D1*
G1X159500Y15000D1*
G1X159500Y83500D2*
G1X159500Y98500D1*
G1X144500Y98500D1*
G54D53*
G1X52063Y19262D3*
G1X56000Y19262D3*
G1X59937Y19262D3*
G54D48*
G1X59311Y57421D3*
G1X59311Y55453D3*
G1X59311Y53484D3*
G1X59311Y51516D3*
G1X59311Y49547D3*
G1X59311Y47579D3*
G1X59311Y45610D3*
G1X59311Y43642D3*
G1X59311Y41673D3*
G1X59311Y63327D3*
G1X59311Y61358D3*
G1X59311Y59390D3*
G1X86689Y41673D3*
G1X86689Y43642D3*
G1X86689Y45610D3*
G1X86689Y47579D3*
G1X86689Y49547D3*
G1X86689Y51516D3*
G1X86689Y53484D3*
G1X86689Y55453D3*
G1X86689Y57421D3*
G1X86689Y59390D3*
G1X86689Y61358D3*
G1X86689Y63327D3*
G54D46*
G1X62173Y38811D3*
G1X64142Y38811D3*
G1X66110Y38811D3*
G1X66110Y66189D3*
G1X64142Y66189D3*
G1X62173Y66189D3*
G1X68079Y38811D3*
G1X70047Y38811D3*
G1X72016Y38811D3*
G1X73984Y38811D3*
G1X75953Y38811D3*
G1X77921Y38811D3*
G1X79890Y38811D3*
G1X81858Y38811D3*
G1X83827Y38811D3*
G1X83827Y66189D3*
G1X81858Y66189D3*
G1X79890Y66189D3*
G1X77921Y66189D3*
G1X75953Y66189D3*
G1X73984Y66189D3*
G1X72016Y66189D3*
G1X70047Y66189D3*
G1X68079Y66189D3*
G54D51*
G1X73000Y52500D3*
G54D47*
G1X105000Y38000D3*
G1X105000Y31000D3*
G1X122500Y57500D3*
G1X122500Y64500D3*
G54D45*
G1X105500Y56669D3*
G1X105500Y65331D3*
M2*
