*
%LPD*%
%LNSTEVAL-ESC002V1-ASSEMBLY*%
%FSLAX25Y25*%
%MOIN*%
%AD*%
%ADD11C,0.002*%
%ADD12C,0.004*%
%ADD13C,0.012*%
%ADD14C,0.016*%
%ADD15C,0.018*%
%ADD16C,0.045*%
%ADD17C,0.001*%
%ADD18C,0.006*%
%ADD19C,0.008*%
G54D13*
%SRX1Y1I0.0J0.0*%
G1X-304919Y-23639D2*
G1X-304361Y-24140D1*
G1X-303800Y-24389D1*
G1X-303239Y-24389D1*
G1X-302681Y-24140D1*
G1X-302201Y-23765D1*
G1X-301799Y-23264D1*
G1X-302039Y-17513D2*
G1X-302519Y-17138D1*
G1X-303080Y-16889D1*
G1X-303719Y-16889D1*
G1X-304439Y-17264D1*
G1X-305000Y-17888D1*
G1X-305399Y-18638D1*
G1X-305720Y-19889D1*
G1X-305801Y-21014D1*
G1X-305639Y-22139D1*
G1X-305399Y-22889D1*
G1X-304919Y-23639D1*
G1X-305801Y98986D2*
G1X-305639Y97861D1*
G1X-305399Y97111D1*
G1X-304919Y96361D1*
G1X-304361Y95860D1*
G1X-303800Y95611D1*
G1X-303239Y95611D1*
G1X-302681Y95860D1*
G1X-302201Y96235D1*
G1X-301799Y96736D1*
G1X-302039Y102487D2*
G1X-302519Y102862D1*
G1X-303080Y103111D1*
G1X-303719Y103111D1*
G1X-304439Y102736D1*
G1X-305000Y102112D1*
G1X-305399Y101362D1*
G1X-305720Y100111D1*
G1X-305801Y98986D1*
G1X-298721Y-23264D2*
G1X-298880Y-24389D1*
G1X-295520Y-24389D1*
G1X-290600Y-24389D2*
G1X-290600Y-16889D1*
G1X-291560Y-24389D2*
G1X-289640Y-24389D1*
G1X-298721Y-18140D2*
G1X-298241Y-17390D1*
G1X-297680Y-17015D1*
G1X-297041Y-16889D1*
G1X-296240Y-17138D1*
G1X-295679Y-17765D1*
G1X-295520Y-18515D1*
G1X-295601Y-19265D1*
G1X-295919Y-19889D1*
G1X-297521Y-21140D1*
G1X-298241Y-22013D1*
G1X-298721Y-23264D1*
G1X-290600Y-16889D2*
G1X-291560Y-18389D1*
G1X-295919Y100111D2*
G1X-297521Y98860D1*
G1X-298241Y97987D1*
G1X-298721Y96736D1*
G1X-298880Y95611D1*
G1X-295520Y95611D1*
G1X-289319Y100111D2*
G1X-290921Y98860D1*
G1X-291641Y97987D1*
G1X-292121Y96736D1*
G1X-292280Y95611D1*
G1X-288920Y95611D1*
G1X-298721Y101860D2*
G1X-298241Y102610D1*
G1X-297680Y102985D1*
G1X-297041Y103111D1*
G1X-296240Y102862D1*
G1X-295679Y102235D1*
G1X-295520Y101485D1*
G1X-295601Y100735D1*
G1X-295919Y100111D1*
G1X-292121Y101860D2*
G1X-291641Y102610D1*
G1X-291080Y102985D1*
G1X-290441Y103111D1*
G1X-289640Y102862D1*
G1X-289079Y102235D1*
G1X-288920Y101485D1*
G1X-289001Y100735D1*
G1X-289319Y100111D1*
G1X-244589Y-70013D2*
G1X-245069Y-69638D1*
G1X-245630Y-69389D1*
G1X-246269Y-69389D1*
G1X-246989Y-69764D1*
G1X-247550Y-70388D1*
G1X-247949Y-71138D1*
G1X-248270Y-72389D1*
G1X-248351Y-73514D1*
G1X-248189Y-74639D1*
G1X-247949Y-75389D1*
G1X-247469Y-76139D1*
G1X-246911Y-76640D1*
G1X-246350Y-76889D1*
G1X-245789Y-76889D1*
G1X-245231Y-76640D1*
G1X-244751Y-76265D1*
G1X-244349Y-75764D1*
G1X-239750Y-76889D2*
G1X-240389Y-76763D1*
G1X-240950Y-76265D1*
G1X-241430Y-75515D1*
G1X-241751Y-74639D1*
G1X-241910Y-73640D1*
G1X-241910Y-72638D1*
G1X-241751Y-71639D1*
G1X-241430Y-70763D1*
G1X-240950Y-70013D1*
G1X-240389Y-69515D1*
G1X-239750Y-69389D1*
G1X-239111Y-69515D1*
G1X-239111Y-76763D2*
G1X-239750Y-76889D1*
G1X-245339Y153487D2*
G1X-245819Y153862D1*
G1X-246380Y154111D1*
G1X-247019Y154111D1*
G1X-247739Y153736D1*
G1X-248300Y153112D1*
G1X-248699Y152362D1*
G1X-249020Y151111D1*
G1X-249101Y149986D1*
G1X-248939Y148861D1*
G1X-248699Y148111D1*
G1X-248219Y147361D1*
G1X-247661Y146860D1*
G1X-247100Y146611D1*
G1X-246539Y146611D1*
G1X-245981Y146860D1*
G1X-245501Y147235D1*
G1X-245099Y147736D1*
G1X-240500Y146611D2*
G1X-241139Y146737D1*
G1X-241700Y147235D1*
G1X-242180Y147985D1*
G1X-242501Y148861D1*
G1X-242660Y149860D1*
G1X-242660Y150862D1*
G1X-242501Y151861D1*
G1X-242180Y152737D1*
G1X-241700Y153487D1*
G1X-241139Y153985D1*
G1X-240500Y154111D1*
G1X-239861Y153985D1*
G1X-239300Y153487D1*
G1X-238820Y152737D1*
G1X-238820Y147985D2*
G1X-239300Y147235D1*
G1X-239861Y146737D1*
G1X-240500Y146611D1*
G1X-239111Y-69515D2*
G1X-238550Y-70013D1*
G1X-238070Y-70763D1*
G1X-237749Y-71639D1*
G1X-237590Y-72638D1*
G1X-237590Y-73640D1*
G1X-237749Y-74639D1*
G1X-238070Y-75515D1*
G1X-238550Y-76265D1*
G1X-239111Y-76763D1*
G1X-234989Y-76889D2*
G1X-234989Y-69389D1*
G1X-231311Y-76889D1*
G1X-231311Y-69389D1*
G1X-228311Y-75764D2*
G1X-227831Y-76388D1*
G1X-227270Y-76763D1*
G1X-226550Y-76889D1*
G1X-225830Y-76640D1*
G1X-225269Y-76139D1*
G1X-224870Y-75263D1*
G1X-224789Y-74264D1*
G1X-224951Y-73265D1*
G1X-225350Y-72638D1*
G1X-225911Y-72140D1*
G1X-226469Y-72014D1*
G1X-227030Y-72140D1*
G1X-227750Y-72638D1*
G1X-227510Y-69389D1*
G1X-225350Y-69389D1*
G1X-238820Y152737D2*
G1X-238499Y151861D1*
G1X-238340Y150862D1*
G1X-238340Y149860D1*
G1X-238499Y148861D1*
G1X-238820Y147985D1*
G1X-235739Y146611D2*
G1X-235739Y154111D1*
G1X-232061Y146611D1*
G1X-232061Y154111D1*
G1X-226340Y146611D2*
G1X-226340Y154111D1*
G1X-229301Y148735D1*
G1X-225299Y148735D1*
G1X-185849Y11611D2*
G1X-185849Y19111D1*
G1X-182651Y17236D2*
G1X-182810Y16237D1*
G1X-183290Y15610D1*
G1X-183851Y15235D1*
G1X-185849Y15235D1*
G1X-183851Y15235D2*
G1X-182651Y11611D1*
G1X-176369Y16111D2*
G1X-177971Y14860D1*
G1X-178691Y13987D1*
G1X-179171Y12736D1*
G1X-179330Y11611D1*
G1X-175970Y11611D1*
G1X-185849Y19111D2*
G1X-183851Y19111D1*
G1X-183209Y18736D1*
G1X-182810Y18235D1*
G1X-182651Y17236D1*
G1X-179171Y17860D2*
G1X-178691Y18610D1*
G1X-178130Y18985D1*
G1X-177491Y19111D1*
G1X-185849Y32611D2*
G1X-185849Y40111D1*
G1X-182651Y38236D2*
G1X-182810Y37237D1*
G1X-183290Y36610D1*
G1X-183851Y36235D1*
G1X-185849Y36235D1*
G1X-183851Y36235D2*
G1X-182651Y32611D1*
G1X-179171Y35737D2*
G1X-178610Y36610D1*
G1X-178130Y37111D1*
G1X-177569Y32611D2*
G1X-178211Y32860D1*
G1X-178769Y33610D1*
G1X-179090Y34735D1*
G1X-179171Y35986D1*
G1X-179009Y37612D1*
G1X-185849Y52111D2*
G1X-185849Y59611D1*
G1X-182810Y58735D2*
G1X-182651Y57736D1*
G1X-182810Y56737D1*
G1X-183290Y56110D1*
G1X-183851Y55735D1*
G1X-185849Y55735D1*
G1X-183851Y55735D2*
G1X-182651Y52111D1*
G1X-179411Y53611D2*
G1X-178931Y52735D1*
G1X-178289Y52237D1*
G1X-177569Y52111D1*
G1X-185849Y40111D2*
G1X-183851Y40111D1*
G1X-183209Y39736D1*
G1X-182810Y39235D1*
G1X-182651Y38236D1*
G1X-178130Y37111D2*
G1X-177491Y37360D1*
G1X-179009Y37612D2*
G1X-178769Y38485D1*
G1X-178370Y39361D1*
G1X-177809Y39985D1*
G1X-185849Y59611D2*
G1X-183851Y59611D1*
G1X-183209Y59236D1*
G1X-182810Y58735D1*
G1X-178049Y59485D2*
G1X-178769Y58987D1*
G1X-185849Y71611D2*
G1X-185849Y79111D1*
G1X-183209Y78736D2*
G1X-182810Y78235D1*
G1X-182651Y77236D1*
G1X-182810Y76237D1*
G1X-183290Y75610D1*
G1X-183851Y75235D1*
G1X-185849Y75235D1*
G1X-183851Y75235D2*
G1X-182651Y71611D1*
G1X-185849Y79111D2*
G1X-183851Y79111D1*
G1X-183209Y78736D1*
G1X-176051Y79111D2*
G1X-179249Y79111D1*
G1X-181649Y128611D2*
G1X-181649Y136111D1*
G1X-179651Y136111D1*
G1X-179009Y135736D1*
G1X-178610Y135235D1*
G1X-178451Y134236D1*
G1X-178610Y133237D1*
G1X-179090Y132610D1*
G1X-179651Y132235D1*
G1X-181649Y132235D1*
G1X-179651Y132235D2*
G1X-178451Y128611D1*
G1X-174899Y-75389D2*
G1X-174899Y-67889D1*
G1X-172901Y-67889D1*
G1X-172259Y-68264D1*
G1X-171860Y-68765D1*
G1X-171701Y-69764D1*
G1X-171860Y-70763D1*
G1X-172340Y-71390D1*
G1X-172901Y-71765D1*
G1X-174899Y-71765D1*
G1X-172901Y-71765D2*
G1X-171701Y-75389D1*
G1X-166700Y-75389D2*
G1X-166700Y-67889D1*
G1X-167660Y-69389D1*
G1X-167660Y-75389D2*
G1X-165740Y-75389D1*
G1X-160100Y-75389D2*
G1X-160100Y-67889D1*
G1X-161060Y-69389D1*
G1X-161060Y-75389D2*
G1X-159140Y-75389D1*
G1X-175970Y17485D2*
G1X-176051Y16735D1*
G1X-176369Y16111D1*
G1X-177491Y19111D2*
G1X-176690Y18862D1*
G1X-176129Y18235D1*
G1X-175970Y17485D1*
G1X-177491Y37360D2*
G1X-176930Y37111D1*
G1X-176531Y36610D1*
G1X-176210Y35860D1*
G1X-176129Y34987D1*
G1X-176210Y34237D1*
G1X-176531Y33487D1*
G1X-177011Y32860D1*
G1X-177569Y32611D1*
G1X-177569Y52111D2*
G1X-176930Y52237D1*
G1X-176291Y52861D1*
G1X-175889Y53611D1*
G1X-175811Y54361D1*
G1X-175970Y55237D1*
G1X-176531Y55861D1*
G1X-177089Y56110D1*
G1X-177809Y56110D1*
G1X-177089Y56110D2*
G1X-176609Y56485D1*
G1X-176210Y57112D1*
G1X-176051Y57862D1*
G1X-176210Y58612D1*
G1X-177809Y39985D2*
G1X-177251Y40111D1*
G1X-176690Y39862D1*
G1X-176291Y39235D1*
G1X-176210Y58612D2*
G1X-176609Y59236D1*
G1X-177329Y59611D1*
G1X-178049Y59485D1*
G1X-177809Y71611D2*
G1X-177650Y73237D1*
G1X-177410Y74611D1*
G1X-177089Y75862D1*
G1X-176690Y77236D1*
G1X-176051Y79111D1*
G1X-173450Y128611D2*
G1X-173450Y136111D1*
G1X-174410Y134611D1*
G1X-174410Y128611D2*
G1X-172490Y128611D1*
G1X-168371Y134860D2*
G1X-167891Y135610D1*
G1X-167330Y135985D1*
G1X-166691Y136111D1*
G1X-165890Y135862D1*
G1X-165329Y135235D1*
G1X-165170Y134485D1*
G1X-165251Y133735D1*
G1X-165569Y133111D1*
G1X-167171Y131860D1*
G1X-167891Y130987D1*
G1X-168371Y129736D1*
G1X-168530Y128611D1*
G1X-165170Y128611D1*
G1X-170399Y169861D2*
G1X-170399Y177361D1*
G1X-168401Y177361D1*
G1X-167759Y176986D1*
G1X-167360Y176485D1*
G1X-167201Y175486D1*
G1X-167360Y174487D1*
G1X-167840Y173860D1*
G1X-168401Y173485D1*
G1X-170399Y173485D1*
G1X-168401Y173485D2*
G1X-167201Y169861D1*
G1X-163721Y176110D2*
G1X-163241Y176860D1*
G1X-162680Y177235D1*
G1X-162041Y177361D1*
G1X-161240Y177112D1*
G1X-160679Y176485D1*
G1X-160520Y175735D1*
G1X-160601Y174985D1*
G1X-160919Y174361D1*
G1X-162521Y173110D1*
G1X-163241Y172237D1*
G1X-163721Y170986D1*
G1X-163880Y169861D1*
G1X-160520Y169861D1*
G1X-133700Y-15788D2*
G1X-141200Y-15788D1*
G1X-141200Y-13790D1*
G1X-140825Y-13148D1*
G1X-140324Y-12749D1*
G1X-139325Y-12590D1*
G1X-138326Y-12749D1*
G1X-137699Y-13229D1*
G1X-137324Y-13790D1*
G1X-137324Y-15788D1*
G1X-137324Y-13790D2*
G1X-133700Y-12590D1*
G1X-136325Y-5828D2*
G1X-137324Y-5990D1*
G1X-137951Y-6389D1*
G1X-138449Y-6950D1*
G1X-138575Y-7508D1*
G1X-138449Y-8069D1*
G1X-137951Y-8789D1*
G1X-141200Y-8549D1*
G1X-141200Y-6389D1*
G1X-155600Y177361D2*
G1X-156239Y177112D1*
G1X-156719Y176485D1*
G1X-157040Y175735D1*
G1X-157280Y174736D1*
G1X-157361Y173611D1*
G1X-157280Y172486D1*
G1X-157040Y171487D1*
G1X-156719Y170737D1*
G1X-156239Y170110D1*
G1X-155600Y169861D1*
G1X-154961Y170110D1*
G1X-154481Y170737D1*
G1X-154160Y171487D1*
G1X-153920Y172486D1*
G1X-153839Y173611D1*
G1X-153920Y174736D1*
G1X-154160Y175735D1*
G1X-154481Y176485D1*
G1X-154961Y177112D1*
G1X-155600Y177361D1*
G1X-140450Y169462D2*
G1X-147950Y169462D1*
G1X-147950Y171460D1*
G1X-147575Y172102D1*
G1X-147074Y172501D1*
G1X-146075Y172660D1*
G1X-145076Y172501D1*
G1X-144449Y172021D1*
G1X-144074Y171460D1*
G1X-144074Y169462D1*
G1X-144074Y171460D2*
G1X-140450Y172660D1*
G1X-140450Y177661D2*
G1X-140576Y178222D1*
G1X-140951Y178861D1*
G1X-141575Y179260D1*
G1X-142451Y179422D1*
G1X-143324Y179260D1*
G1X-144074Y178780D1*
G1X-144449Y178060D1*
G1X-144449Y177262D1*
G1X-144701Y176782D1*
G1X-145325Y176380D1*
G1X-146201Y176221D1*
G1X-147074Y176461D1*
G1X-147701Y177022D1*
G1X-147950Y177661D1*
G1X-147701Y178300D1*
G1X-147074Y178861D1*
G1X-146201Y179101D1*
G1X-145325Y178942D1*
G1X-144701Y178540D1*
G1X-144449Y178060D1*
G1X-144449Y177262D1*
G1X-144074Y176542D1*
G1X-143324Y176062D1*
G1X-142451Y175900D1*
G1X-141575Y176062D1*
G1X-140951Y176461D1*
G1X-140576Y177100D1*
G1X-140450Y177661D1*
G1X-123200Y-52889D2*
G1X-123200Y-45389D1*
G1X-124160Y-46889D1*
G1X-124160Y-52889D2*
G1X-122240Y-52889D1*
G1X-134825Y-9350D2*
G1X-134201Y-8870D1*
G1X-133826Y-8309D1*
G1X-133700Y-7589D1*
G1X-133949Y-6869D1*
G1X-134450Y-6308D1*
G1X-135326Y-5909D1*
G1X-136325Y-5828D1*
G1X-122099Y17362D2*
G1X-122420Y16111D1*
G1X-122501Y14986D1*
G1X-122339Y13861D1*
G1X-122099Y13111D1*
G1X-121619Y12361D1*
G1X-121061Y11860D1*
G1X-120500Y11611D1*
G1X-119939Y11611D1*
G1X-119381Y11860D1*
G1X-118901Y12235D1*
G1X-118499Y12736D1*
G1X-118739Y18487D2*
G1X-119219Y18862D1*
G1X-119780Y19111D1*
G1X-120419Y19111D1*
G1X-121139Y18736D1*
G1X-121700Y18112D1*
G1X-122099Y17362D1*
G1X-118739Y48487D2*
G1X-119219Y48862D1*
G1X-119780Y49111D1*
G1X-120419Y49111D1*
G1X-121139Y48736D1*
G1X-121700Y48112D1*
G1X-122099Y47362D1*
G1X-122420Y46111D1*
G1X-122501Y44986D1*
G1X-122339Y43861D1*
G1X-122099Y43111D1*
G1X-121619Y42361D1*
G1X-121061Y41860D1*
G1X-120500Y41611D1*
G1X-119939Y41611D1*
G1X-119381Y41860D1*
G1X-118901Y42235D1*
G1X-118499Y42736D1*
G1X-121139Y78736D2*
G1X-121700Y78112D1*
G1X-122099Y77362D1*
G1X-122420Y76111D1*
G1X-122501Y74986D1*
G1X-122339Y73861D1*
G1X-122099Y73111D1*
G1X-121619Y72361D1*
G1X-121061Y71860D1*
G1X-120500Y71611D1*
G1X-119939Y71611D1*
G1X-119381Y71860D1*
G1X-118901Y72235D1*
G1X-118499Y72736D1*
G1X-118739Y78487D2*
G1X-119219Y78862D1*
G1X-119780Y79111D1*
G1X-120419Y79111D1*
G1X-121139Y78736D1*
G1X-122099Y89611D2*
G1X-122099Y97111D1*
G1X-120101Y97111D1*
G1X-119459Y96736D1*
G1X-119060Y96235D1*
G1X-118901Y95236D1*
G1X-119060Y94237D1*
G1X-119540Y93610D1*
G1X-120101Y93235D1*
G1X-122099Y93235D1*
G1X-120101Y93235D2*
G1X-118901Y89611D1*
G1X-119039Y114487D2*
G1X-119519Y114862D1*
G1X-120080Y115111D1*
G1X-120719Y115111D1*
G1X-121439Y114736D1*
G1X-122000Y114112D1*
G1X-122399Y113362D1*
G1X-122720Y112111D1*
G1X-122801Y110986D1*
G1X-122639Y109861D1*
G1X-122399Y109111D1*
G1X-121919Y108361D1*
G1X-121361Y107860D1*
G1X-120800Y107611D1*
G1X-120239Y107611D1*
G1X-119681Y107860D1*
G1X-119201Y108235D1*
G1X-118799Y108736D1*
G1X-123899Y138361D2*
G1X-123899Y145861D1*
G1X-121901Y141985D2*
G1X-120701Y138361D1*
G1X-123899Y145861D2*
G1X-121901Y145861D1*
G1X-121259Y145486D1*
G1X-120860Y144985D1*
G1X-120701Y143986D1*
G1X-120860Y142987D1*
G1X-121340Y142360D1*
G1X-121901Y141985D1*
G1X-123899Y141985D1*
G1X-115700Y145861D2*
G1X-116660Y144361D1*
G1X-132899Y169861D2*
G1X-132899Y177361D1*
G1X-130901Y177361D1*
G1X-130259Y176986D1*
G1X-129860Y176485D1*
G1X-129701Y175486D1*
G1X-129860Y174487D1*
G1X-130340Y173860D1*
G1X-130901Y173485D1*
G1X-132899Y173485D1*
G1X-130901Y173485D2*
G1X-129701Y169861D1*
G1X-126221Y176110D2*
G1X-125741Y176860D1*
G1X-125180Y177235D1*
G1X-124541Y177361D1*
G1X-123740Y177112D1*
G1X-123179Y176485D1*
G1X-123020Y175735D1*
G1X-123101Y174985D1*
G1X-123419Y174361D1*
G1X-125021Y173110D1*
G1X-125741Y172237D1*
G1X-126221Y170986D1*
G1X-126380Y169861D1*
G1X-123020Y169861D1*
G1X-118100Y169861D2*
G1X-118100Y177361D1*
G1X-119060Y175861D1*
G1X-119060Y169861D2*
G1X-117140Y169861D1*
G1X-110099Y-82139D2*
G1X-109700Y-82889D1*
G1X-109220Y-83390D1*
G1X-108659Y-83639D1*
G1X-108020Y-83390D1*
G1X-107540Y-82889D1*
G1X-107060Y-82139D1*
G1X-106901Y-81140D1*
G1X-106901Y-76139D1*
G1X-101900Y-83639D2*
G1X-101900Y-76139D1*
G1X-102860Y-77639D1*
G1X-102860Y-83639D2*
G1X-100940Y-83639D1*
G1X-112940Y11611D2*
G1X-112940Y19111D1*
G1X-115901Y13735D1*
G1X-111899Y13735D1*
G1X-115421Y44737D2*
G1X-114860Y45610D1*
G1X-114380Y46111D1*
G1X-113741Y46360D1*
G1X-113180Y46111D1*
G1X-112781Y45610D1*
G1X-112460Y44860D1*
G1X-112379Y43987D1*
G1X-112460Y43237D1*
G1X-112781Y42487D1*
G1X-113261Y41860D1*
G1X-113819Y41611D1*
G1X-114461Y41860D1*
G1X-115019Y42610D1*
G1X-115340Y43735D1*
G1X-115421Y44986D1*
G1X-115259Y46612D1*
G1X-115019Y47485D1*
G1X-114620Y48361D1*
G1X-114059Y48985D1*
G1X-113501Y49111D1*
G1X-112940Y48862D1*
G1X-112541Y48235D1*
G1X-114059Y71611D2*
G1X-113900Y73237D1*
G1X-113660Y74611D1*
G1X-113339Y75862D1*
G1X-112940Y77236D1*
G1X-112301Y79111D1*
G1X-115499Y79111D1*
G1X-112940Y89611D2*
G1X-112940Y97111D1*
G1X-115901Y91735D1*
G1X-111899Y91735D1*
G1X-114200Y107611D2*
G1X-114200Y115111D1*
G1X-115160Y113611D1*
G1X-115160Y107611D2*
G1X-113240Y107611D1*
G1X-107600Y107611D2*
G1X-107600Y115111D1*
G1X-108560Y113611D1*
G1X-108560Y107611D2*
G1X-106640Y107611D1*
G1X-115700Y138361D2*
G1X-115700Y145861D1*
G1X-116660Y138361D2*
G1X-114740Y138361D1*
G1X-108140Y138361D2*
G1X-108140Y145861D1*
G1X-111101Y140485D1*
G1X-107099Y140485D1*
G1X-102950Y169462D2*
G1X-110450Y169462D1*
G1X-110450Y171460D1*
G1X-110075Y172102D1*
G1X-109574Y172501D1*
G1X-108575Y172660D1*
G1X-107576Y172501D1*
G1X-106949Y172021D1*
G1X-106574Y171460D1*
G1X-106574Y169462D1*
G1X-106574Y171460D2*
G1X-102950Y172660D1*
G1X-103826Y176302D2*
G1X-103199Y176860D1*
G1X-102950Y177502D1*
G1X-103199Y178141D1*
G1X-103949Y178702D1*
G1X-105074Y179101D1*
G1X-106199Y179260D1*
G1X-107576Y179260D1*
G1X-108701Y179101D1*
G1X-109700Y178702D1*
G1X-110201Y178222D1*
G1X-110450Y177661D1*
G1X-110201Y177022D1*
G1X-109700Y176542D1*
G1X-108950Y176221D1*
G1X-107951Y176062D1*
G1X-107075Y176221D1*
G1X-106199Y176620D1*
G1X-105701Y177100D1*
G1X-105575Y177661D1*
G1X-105824Y178300D1*
G1X-106451Y178780D1*
G1X-107576Y179260D1*
G1X-87800Y103861D2*
G1X-87800Y96361D1*
G1X-82799Y96361D2*
G1X-82799Y103861D1*
G1X-76361Y97861D2*
G1X-75881Y96985D1*
G1X-75239Y96487D1*
G1X-89639Y103861D2*
G1X-85961Y103861D1*
G1X-82799Y103861D2*
G1X-80879Y103861D1*
G1X-80240Y103486D1*
G1X-79760Y102610D1*
G1X-79601Y101611D1*
G1X-79760Y100612D1*
G1X-80159Y99862D1*
G1X-80879Y99487D1*
G1X-82799Y99487D1*
G1X-87899Y122611D2*
G1X-87899Y130111D1*
G1X-85901Y130111D1*
G1X-85259Y129736D1*
G1X-84860Y129235D1*
G1X-84701Y128236D1*
G1X-84860Y127237D1*
G1X-85340Y126610D1*
G1X-85901Y126235D1*
G1X-87899Y126235D1*
G1X-85901Y126235D2*
G1X-84701Y122611D1*
G1X-79700Y122611D2*
G1X-79700Y130111D1*
G1X-80660Y128611D1*
G1X-80660Y122611D2*
G1X-78740Y122611D1*
G1X-84950Y153412D2*
G1X-92450Y153412D1*
G1X-92450Y155410D1*
G1X-92075Y156052D1*
G1X-91574Y156451D1*
G1X-90575Y156610D1*
G1X-89576Y156451D1*
G1X-88949Y155971D1*
G1X-88574Y155410D1*
G1X-88574Y153412D1*
G1X-88574Y155410D2*
G1X-84950Y156610D1*
G1X-91199Y160090D2*
G1X-91949Y160570D1*
G1X-87326Y160570D2*
G1X-86075Y160090D1*
G1X-84950Y159931D1*
G1X-91949Y160570D2*
G1X-92324Y161131D1*
G1X-92450Y161770D1*
G1X-92201Y162571D1*
G1X-91574Y163132D1*
G1X-90824Y163291D1*
G1X-90074Y163210D1*
G1X-89450Y162892D1*
G1X-88199Y161290D1*
G1X-87326Y160570D1*
G1X-84950Y159931D2*
G1X-84950Y163291D1*
G1X-91199Y166690D2*
G1X-91949Y167170D1*
G1X-92324Y167731D1*
G1X-92450Y168370D1*
G1X-92201Y169171D1*
G1X-91574Y169732D1*
G1X-90824Y169891D1*
G1X-90074Y169810D1*
G1X-89450Y169492D1*
G1X-88199Y167890D1*
G1X-87326Y167170D1*
G1X-86075Y166690D1*
G1X-84950Y166531D1*
G1X-84950Y169891D1*
G1X-59399Y-34139D2*
G1X-59399Y-26639D1*
G1X-57401Y-26639D1*
G1X-56759Y-27014D1*
G1X-56360Y-27515D1*
G1X-56201Y-28514D1*
G1X-56360Y-29513D1*
G1X-56840Y-30140D1*
G1X-57401Y-30515D1*
G1X-59399Y-30515D1*
G1X-57401Y-30515D2*
G1X-56201Y-34139D1*
G1X-59261Y52111D2*
G1X-59261Y46735D1*
G1X-58940Y45610D1*
G1X-58301Y44860D1*
G1X-57500Y44611D1*
G1X-56699Y44860D1*
G1X-56060Y45610D1*
G1X-55739Y46735D1*
G1X-55739Y52111D1*
G1X-75239Y96487D2*
G1X-74519Y96361D1*
G1X-73880Y96487D1*
G1X-73241Y97111D1*
G1X-72839Y97861D1*
G1X-72761Y98611D1*
G1X-72920Y99487D1*
G1X-73481Y100111D1*
G1X-74039Y100360D1*
G1X-74759Y100360D1*
G1X-74039Y100360D2*
G1X-73559Y100735D1*
G1X-73160Y101362D1*
G1X-73001Y102112D1*
G1X-73160Y102862D1*
G1X-73559Y103486D1*
G1X-74279Y103861D1*
G1X-74999Y103735D1*
G1X-75719Y103237D1*
G1X-56639Y101611D2*
G1X-52961Y101611D1*
G1X-74621Y125737D2*
G1X-74060Y126610D1*
G1X-73580Y127111D1*
G1X-72941Y127360D1*
G1X-72380Y127111D1*
G1X-71981Y126610D1*
G1X-71660Y125860D1*
G1X-71579Y124987D1*
G1X-71660Y124237D1*
G1X-71981Y123487D1*
G1X-72461Y122860D1*
G1X-73019Y122611D1*
G1X-73661Y122860D1*
G1X-74219Y123610D1*
G1X-74540Y124735D1*
G1X-74621Y125986D1*
G1X-74459Y127612D1*
G1X-74219Y128485D1*
G1X-73820Y129361D1*
G1X-73259Y129985D1*
G1X-72701Y130111D1*
G1X-72140Y129862D1*
G1X-71741Y129235D1*
G1X-66950Y153412D2*
G1X-74450Y153412D1*
G1X-74450Y155410D1*
G1X-74075Y156052D1*
G1X-73574Y156451D1*
G1X-72575Y156610D1*
G1X-71576Y156451D1*
G1X-70949Y155971D1*
G1X-70574Y155410D1*
G1X-70574Y153412D1*
G1X-70574Y155410D2*
G1X-66950Y156610D1*
G1X-57389Y153361D2*
G1X-53711Y153361D1*
G1X-66950Y161611D2*
G1X-74450Y161611D1*
G1X-72950Y160651D1*
G1X-66950Y160651D2*
G1X-66950Y162571D1*
G1X-74450Y168211D2*
G1X-74201Y167572D1*
G1X-73574Y167092D1*
G1X-72824Y166771D1*
G1X-71825Y166531D1*
G1X-70700Y166450D1*
G1X-69575Y166531D1*
G1X-68576Y166771D1*
G1X-67826Y167092D1*
G1X-67199Y167572D1*
G1X-66950Y168211D1*
G1X-67199Y168850D1*
G1X-67826Y169330D1*
G1X-68576Y169651D1*
G1X-69575Y169891D1*
G1X-70700Y169972D1*
G1X-71825Y169891D1*
G1X-72824Y169651D1*
G1X-73574Y169330D1*
G1X-74201Y168850D1*
G1X-74450Y168211D1*
G1X-52721Y-27890D2*
G1X-52241Y-27140D1*
G1X-51680Y-26765D1*
G1X-51041Y-26639D1*
G1X-50240Y-26888D1*
G1X-49679Y-27515D1*
G1X-49520Y-28265D1*
G1X-49601Y-29015D1*
G1X-49919Y-29639D1*
G1X-51521Y-30890D1*
G1X-52241Y-31763D1*
G1X-52721Y-33014D1*
G1X-52880Y-34139D1*
G1X-49520Y-34139D1*
G1X-46121Y-31013D2*
G1X-45560Y-30140D1*
G1X-45080Y-29639D1*
G1X-44441Y-29390D1*
G1X-43880Y-29639D1*
G1X-43481Y-30140D1*
G1X-43160Y-30890D1*
G1X-43079Y-31763D1*
G1X-43160Y-32513D1*
G1X-43481Y-33263D1*
G1X-43961Y-33890D1*
G1X-44519Y-34139D1*
G1X-45161Y-33890D1*
G1X-45719Y-33140D1*
G1X-46040Y-32015D1*
G1X-46121Y-30764D1*
G1X-45959Y-29138D1*
G1X-45719Y-28265D1*
G1X-45320Y-27389D1*
G1X-44759Y-26765D1*
G1X-44201Y-26639D1*
G1X-43640Y-26888D1*
G1X-43241Y-27515D1*
G1X-42050Y-1139D2*
G1X-42050Y-8639D1*
G1X-37049Y-8639D2*
G1X-37049Y-1139D1*
G1X-34409Y-5138D2*
G1X-35129Y-5513D1*
G1X-37049Y-5513D1*
G1X-43889Y-1139D2*
G1X-40211Y-1139D1*
G1X-37049Y-1139D2*
G1X-35129Y-1139D1*
G1X-34490Y-1514D1*
G1X-50900Y44611D2*
G1X-50900Y52111D1*
G1X-51860Y50611D1*
G1X-51860Y44611D2*
G1X-49940Y44611D1*
G1X-54800Y101611D2*
G1X-54800Y94111D1*
G1X-49799Y94111D2*
G1X-49799Y101611D1*
G1X-46601Y99361D2*
G1X-46760Y98362D1*
G1X-47159Y97612D1*
G1X-47879Y97237D1*
G1X-49799Y97237D1*
G1X-41759Y94111D2*
G1X-41600Y95737D1*
G1X-41360Y97111D1*
G1X-41039Y98362D1*
G1X-40640Y99736D1*
G1X-49799Y101611D2*
G1X-47879Y101611D1*
G1X-47240Y101236D1*
G1X-46760Y100360D1*
G1X-46601Y99361D1*
G1X-40640Y99736D2*
G1X-40001Y101611D1*
G1X-43199Y101611D1*
G1X-36389Y111361D2*
G1X-32711Y111361D1*
G1X-37550Y135361D2*
G1X-37550Y127861D1*
G1X-39389Y135361D2*
G1X-35711Y135361D1*
G1X-55550Y153361D2*
G1X-55550Y145861D1*
G1X-50549Y145861D2*
G1X-50549Y153361D1*
G1X-48629Y153361D1*
G1X-47990Y152986D1*
G1X-47510Y152110D1*
G1X-47351Y151111D1*
G1X-47510Y150112D1*
G1X-47909Y149362D1*
G1X-48629Y148987D1*
G1X-50549Y148987D1*
G1X-44111Y146986D2*
G1X-43631Y146362D1*
G1X-43070Y145987D1*
G1X-42350Y145861D1*
G1X-41630Y146110D1*
G1X-41069Y146611D1*
G1X-40670Y147487D1*
G1X-40589Y148486D1*
G1X-40751Y149485D1*
G1X-41150Y150112D1*
G1X-41711Y150610D1*
G1X-42269Y150736D1*
G1X-42830Y150610D1*
G1X-43550Y150112D1*
G1X-43310Y153361D1*
G1X-41150Y153361D1*
G1X-36899Y171361D2*
G1X-36899Y178861D1*
G1X-34901Y178861D1*
G1X-34901Y174985D2*
G1X-36899Y174985D1*
G1X-32450Y-91139D2*
G1X-32450Y-83639D1*
G1X-33410Y-85139D1*
G1X-33410Y-91139D2*
G1X-31490Y-91139D1*
G1X-22349Y-71639D2*
G1X-21950Y-72389D1*
G1X-21470Y-72890D1*
G1X-20909Y-73139D1*
G1X-20270Y-72890D1*
G1X-19790Y-72389D1*
G1X-19310Y-71639D1*
G1X-19151Y-70640D1*
G1X-19151Y-65639D1*
G1X-15911Y-71639D2*
G1X-15431Y-72515D1*
G1X-14789Y-73013D1*
G1X-14069Y-73139D1*
G1X-14549Y-65765D2*
G1X-15269Y-66263D1*
G1X-14669Y-28889D2*
G1X-15389Y-29264D1*
G1X-15950Y-29888D1*
G1X-16349Y-30638D1*
G1X-16670Y-31889D1*
G1X-16751Y-33014D1*
G1X-16589Y-34139D1*
G1X-16349Y-34889D1*
G1X-15869Y-35639D1*
G1X-15311Y-36140D1*
G1X-14750Y-36389D1*
G1X-33851Y-3389D2*
G1X-34010Y-4388D1*
G1X-34409Y-5138D1*
G1X-28850Y-8639D2*
G1X-28850Y-1139D1*
G1X-29810Y-8639D2*
G1X-27890Y-8639D1*
G1X-34490Y-1514D2*
G1X-34010Y-2390D1*
G1X-33851Y-3389D1*
G1X-28850Y-1139D2*
G1X-29810Y-2639D1*
G1X-34550Y111361D2*
G1X-34550Y103861D1*
G1X-29549Y103861D2*
G1X-29549Y111361D1*
G1X-27629Y111361D1*
G1X-26990Y110986D1*
G1X-26510Y110110D1*
G1X-26351Y109111D1*
G1X-26510Y108112D1*
G1X-26909Y107362D1*
G1X-27629Y106987D1*
G1X-29549Y106987D1*
G1X-22871Y106987D2*
G1X-22310Y107860D1*
G1X-21830Y108361D1*
G1X-21191Y108610D1*
G1X-20630Y108361D1*
G1X-20231Y107860D1*
G1X-19910Y107110D1*
G1X-19829Y106237D1*
G1X-19910Y105487D1*
G1X-20231Y104737D1*
G1X-20711Y104110D1*
G1X-21269Y103861D1*
G1X-21911Y104110D1*
G1X-22469Y104860D1*
G1X-22790Y105985D1*
G1X-22871Y107236D1*
G1X-22709Y108862D1*
G1X-22469Y109735D1*
G1X-22070Y110611D1*
G1X-21509Y111235D1*
G1X-20951Y111361D1*
G1X-20390Y111112D1*
G1X-19991Y110485D1*
G1X-32549Y127861D2*
G1X-32549Y135361D1*
G1X-30629Y135361D1*
G1X-29990Y134986D1*
G1X-29510Y134110D1*
G1X-29351Y133111D1*
G1X-29510Y132112D1*
G1X-29909Y131362D1*
G1X-30629Y130987D1*
G1X-32549Y130987D1*
G1X-23390Y127861D2*
G1X-23390Y135361D1*
G1X-26351Y129985D1*
G1X-22349Y129985D1*
G1X-34901Y178861D2*
G1X-34259Y178486D1*
G1X-33860Y177985D1*
G1X-33701Y176986D1*
G1X-33860Y175987D1*
G1X-34340Y175360D1*
G1X-34901Y174985D1*
G1X-33701Y171361D1*
G1X-30221Y177610D2*
G1X-29741Y178360D1*
G1X-29180Y178735D1*
G1X-28541Y178861D1*
G1X-27740Y178612D1*
G1X-27179Y177985D1*
G1X-27020Y177235D1*
G1X-27101Y176485D1*
G1X-27419Y175861D1*
G1X-29021Y174610D1*
G1X-29741Y173737D1*
G1X-30221Y172486D1*
G1X-30380Y171361D1*
G1X-27020Y171361D1*
G1X-23861Y172486D2*
G1X-23381Y171862D1*
G1X-22820Y171487D1*
G1X-22100Y171361D1*
G1X-21380Y171610D1*
G1X-20819Y172111D1*
G1X-20420Y172987D1*
G1X-20339Y173986D1*
G1X-20501Y174985D1*
G1X-20900Y175612D1*
G1X-21461Y176110D1*
G1X-22019Y176236D1*
G1X-22580Y176110D1*
G1X-23300Y175612D1*
G1X-23060Y178861D1*
G1X-20900Y178861D1*
G1X-14069Y-73139D2*
G1X-13430Y-73013D1*
G1X-12791Y-72389D1*
G1X-12389Y-71639D1*
G1X-12311Y-70889D1*
G1X-12470Y-70013D1*
G1X-13031Y-69389D1*
G1X-13589Y-69140D1*
G1X-14309Y-69140D1*
G1X-13589Y-69140D2*
G1X-13109Y-68765D1*
G1X-12710Y-68138D1*
G1X-12551Y-67388D1*
G1X-12710Y-66638D1*
G1X-13109Y-66014D1*
G1X-13829Y-65639D1*
G1X-14549Y-65765D1*
G1X-12989Y-29513D2*
G1X-13469Y-29138D1*
G1X-14030Y-28889D1*
G1X-14669Y-28889D1*
G1X-14750Y-36389D2*
G1X-14189Y-36389D1*
G1X-13631Y-36140D1*
G1X-13151Y-35765D1*
G1X-12749Y-35264D1*
G1X-8150Y-36389D2*
G1X-8150Y-28889D1*
G1X-9110Y-30389D1*
G1X-9110Y-36389D2*
G1X-7190Y-36389D1*
G1X-5300Y-1889D2*
G1X-5300Y-9389D1*
G1X-299Y-9389D2*
G1X-299Y-1889D1*
G1X2740Y-3140D2*
G1X2899Y-4139D1*
G1X2740Y-5138D1*
G1X2341Y-5888D1*
G1X1621Y-6263D1*
G1X-299Y-6263D1*
G1X-7139Y-1889D2*
G1X-3461Y-1889D1*
G1X-299Y-1889D2*
G1X1621Y-1889D1*
G1X2260Y-2264D1*
G1X2740Y-3140D1*
G1X-13826Y97522D2*
G1X-14201Y97042D1*
G1X-14450Y96481D1*
G1X-14450Y95842D1*
G1X-14075Y95122D1*
G1X-13451Y94561D1*
G1X-12701Y94162D1*
G1X-11450Y93841D1*
G1X-10325Y93760D1*
G1X-9200Y93922D1*
G1X-8450Y94162D1*
G1X-7700Y94642D1*
G1X-7199Y95200D1*
G1X-6950Y95761D1*
G1X-6950Y96322D1*
G1X-7199Y96880D1*
G1X-7574Y97360D1*
G1X-8075Y97762D1*
G1X12550Y94912D2*
G1X5050Y94912D1*
G1X5050Y96910D1*
G1X5425Y97552D1*
G1X5926Y97951D1*
G1X-13199Y100840D2*
G1X-13949Y101320D1*
G1X-14324Y101881D1*
G1X-14450Y102520D1*
G1X-14201Y103321D1*
G1X-13574Y103882D1*
G1X-12824Y104041D1*
G1X-12074Y103960D1*
G1X-11450Y103642D1*
G1X-10199Y102040D1*
G1X-9326Y101320D1*
G1X-8075Y100840D1*
G1X-6950Y100681D1*
G1X-6950Y104041D1*
G1X-14450Y108961D2*
G1X-14201Y108322D1*
G1X-13574Y107842D1*
G1X-12824Y107521D1*
G1X-11825Y107281D1*
G1X-10700Y107200D1*
G1X-9575Y107281D1*
G1X-8576Y107521D1*
G1X-7826Y107842D1*
G1X-7199Y108322D1*
G1X-6950Y108961D1*
G1X-7199Y109600D1*
G1X-7826Y110080D1*
G1X-8576Y110401D1*
G1X-9575Y110641D1*
G1X-10700Y110722D1*
G1X-11825Y110641D1*
G1X-12824Y110401D1*
G1X-13574Y110080D1*
G1X-14201Y109600D1*
G1X-14450Y108961D1*
G1X6301Y101590D2*
G1X5551Y102070D1*
G1X5176Y102631D1*
G1X5050Y103270D1*
G1X5299Y104071D1*
G1X5926Y104632D1*
G1X6925Y110671D2*
G1X5050Y111310D1*
G1X5050Y108112D1*
G1X4300Y150412D2*
G1X-3200Y150412D1*
G1X-3200Y152410D1*
G1X-2825Y153052D1*
G1X-2324Y153451D1*
G1X-1325Y153610D1*
G1X-326Y153451D1*
G1X301Y152971D1*
G1X676Y152410D1*
G1X676Y150412D1*
G1X676Y152410D2*
G1X4300Y153610D1*
G1X-1949Y157090D2*
G1X-2699Y157570D1*
G1X-3074Y158131D1*
G1X-3200Y158770D1*
G1X-2951Y159571D1*
G1X-2324Y160132D1*
G1X-824Y160210D2*
G1X-200Y159892D1*
G1X1051Y158290D1*
G1X1924Y157570D1*
G1X3175Y157090D1*
G1X4300Y156931D1*
G1X4300Y160291D1*
G1X-2324Y160132D2*
G1X-1574Y160291D1*
G1X-824Y160210D1*
G1X4300Y166171D2*
G1X-3200Y166171D1*
G1X2176Y163210D1*
G1X2176Y167212D1*
G1X23800Y-91139D2*
G1X23800Y-83639D1*
G1X22840Y-85139D1*
G1X22840Y-91139D2*
G1X24760Y-91139D1*
G1X17674Y-24428D2*
G1X17299Y-24908D1*
G1X17050Y-25469D1*
G1X17050Y-26108D1*
G1X17425Y-26828D1*
G1X18049Y-27389D1*
G1X18799Y-27788D1*
G1X20050Y-28109D1*
G1X21175Y-28190D1*
G1X22300Y-28028D1*
G1X23050Y-27788D1*
G1X23800Y-27308D1*
G1X24301Y-26750D1*
G1X24550Y-26189D1*
G1X24550Y-25628D1*
G1X24301Y-25070D1*
G1X23926Y-24590D1*
G1X23425Y-24188D1*
G1X9421Y-2765D2*
G1X9580Y-3515D1*
G1X9499Y-4265D1*
G1X9181Y-4889D1*
G1X7579Y-6140D1*
G1X6859Y-7013D1*
G1X6379Y-8264D1*
G1X6220Y-9389D1*
G1X9580Y-9389D1*
G1X23050Y-21350D2*
G1X23926Y-20870D1*
G1X24424Y-20228D1*
G1X24550Y-19508D1*
G1X24424Y-18869D1*
G1X23800Y-18230D1*
G1X23050Y-17828D1*
G1X22300Y-17750D1*
G1X21424Y-17909D1*
G1X20800Y-18470D1*
G1X20551Y-19028D1*
G1X20551Y-19748D1*
G1X20551Y-19028D2*
G1X20176Y-18548D1*
G1X19549Y-18149D1*
G1X18799Y-17990D1*
G1X18049Y-18149D1*
G1X17425Y-18548D1*
G1X17050Y-19268D1*
G1X17176Y-19988D1*
G1X17674Y-20708D1*
G1X6379Y-3140D2*
G1X6859Y-2390D1*
G1X7420Y-2015D1*
G1X8059Y-1889D1*
G1X8860Y-2138D1*
G1X9421Y-2765D1*
G1X14761Y27487D2*
G1X14281Y27862D1*
G1X13720Y28111D1*
G1X13081Y28111D1*
G1X12361Y27736D1*
G1X11800Y27112D1*
G1X11401Y26362D1*
G1X11080Y25111D1*
G1X10999Y23986D1*
G1X11161Y22861D1*
G1X11401Y22111D1*
G1X11881Y21361D1*
G1X12439Y20860D1*
G1X13000Y20611D1*
G1X13561Y20611D1*
G1X14119Y20860D1*
G1X14599Y21235D1*
G1X15001Y21736D1*
G1X17839Y21736D2*
G1X18319Y21112D1*
G1X18880Y20737D1*
G1X19600Y20611D1*
G1X20320Y20860D1*
G1X20881Y21361D1*
G1X21280Y22237D1*
G1X21361Y23236D1*
G1X21199Y24235D1*
G1X20800Y24862D1*
G1X20239Y25360D1*
G1X19681Y25486D1*
G1X19120Y25360D1*
G1X18400Y24862D1*
G1X18640Y28111D1*
G1X20800Y28111D1*
G1X14761Y45487D2*
G1X14281Y45862D1*
G1X13720Y46111D1*
G1X13081Y46111D1*
G1X12361Y45736D1*
G1X11800Y45112D1*
G1X11401Y44362D1*
G1X11080Y43111D1*
G1X10999Y41986D1*
G1X11161Y40861D1*
G1X11401Y40111D1*
G1X11881Y39361D1*
G1X12439Y38860D1*
G1X13000Y38611D1*
G1X13561Y38611D1*
G1X14119Y38860D1*
G1X14599Y39235D1*
G1X15001Y39736D1*
G1X19600Y38611D2*
G1X20161Y38737D1*
G1X20800Y39112D1*
G1X21199Y39736D1*
G1X21361Y40612D1*
G1X21199Y41485D1*
G1X20719Y42235D1*
G1X19999Y42610D1*
G1X19201Y42610D1*
G1X18721Y42862D1*
G1X18319Y43486D1*
G1X18160Y44362D1*
G1X18400Y45235D1*
G1X18961Y45862D1*
G1X19600Y46111D1*
G1X20239Y45862D1*
G1X20800Y45235D1*
G1X21040Y44362D1*
G1X20881Y43486D1*
G1X20479Y42862D1*
G1X19999Y42610D1*
G1X19201Y42610D1*
G1X18481Y42235D1*
G1X18001Y41485D1*
G1X17839Y40612D1*
G1X18001Y39736D1*
G1X18400Y39112D1*
G1X19039Y38737D1*
G1X19600Y38611D1*
G1X5926Y97951D2*
G1X6925Y98110D1*
G1X7924Y97951D1*
G1X8551Y97471D1*
G1X8926Y96910D1*
G1X8926Y94912D1*
G1X8926Y96910D2*
G1X12550Y98110D1*
G1X30550Y94912D2*
G1X23050Y94912D1*
G1X23050Y96910D1*
G1X23425Y97552D1*
G1X23926Y97951D1*
G1X24925Y98110D1*
G1X25924Y97951D1*
G1X26551Y97471D1*
G1X5926Y104632D2*
G1X6676Y104791D1*
G1X7426Y104710D1*
G1X8050Y104392D1*
G1X9301Y102790D1*
G1X10174Y102070D1*
G1X11425Y101590D1*
G1X12550Y101431D1*
G1X12550Y104791D1*
G1X12550Y109552D2*
G1X10924Y109711D1*
G1X9550Y109951D1*
G1X8299Y110272D1*
G1X6925Y110671D1*
G1X24301Y101590D2*
G1X23551Y102070D1*
G1X23176Y102631D1*
G1X23050Y103270D1*
G1X23299Y104071D1*
G1X23926Y104632D1*
G1X24676Y104791D1*
G1X25426Y104710D1*
G1X26050Y104392D1*
G1X27301Y102790D1*
G1X26551Y109312D2*
G1X26299Y108832D1*
G1X25675Y108430D1*
G1X24799Y108271D1*
G1X23926Y108511D1*
G1X23299Y109072D1*
G1X23050Y109711D1*
G1X23299Y110350D1*
G1X23926Y110911D1*
G1X24799Y111151D1*
G1X25675Y110992D1*
G1X26299Y110590D1*
G1X26551Y110110D1*
G1X9601Y166861D2*
G1X9601Y174361D1*
G1X11599Y174361D1*
G1X12241Y173986D1*
G1X12640Y173485D1*
G1X12799Y172486D1*
G1X12640Y171487D1*
G1X12160Y170860D1*
G1X11599Y170485D1*
G1X9601Y170485D1*
G1X11599Y170485D2*
G1X12799Y166861D1*
G1X16279Y173110D2*
G1X16759Y173860D1*
G1X17320Y174235D1*
G1X17959Y174361D1*
G1X18760Y174112D1*
G1X19321Y173485D1*
G1X19480Y172735D1*
G1X19399Y171985D1*
G1X19081Y171361D1*
G1X17479Y170110D1*
G1X16759Y169237D1*
G1X16279Y167986D1*
G1X16120Y166861D1*
G1X19480Y166861D1*
G1X23041Y167737D2*
G1X23599Y167110D1*
G1X24241Y166861D1*
G1X24880Y167110D1*
G1X25441Y167860D1*
G1X25840Y168985D1*
G1X25999Y170110D1*
G1X25999Y171487D1*
G1X25840Y172612D1*
G1X25441Y173611D1*
G1X24961Y174112D1*
G1X24400Y174361D1*
G1X23761Y174112D1*
G1X23281Y173611D1*
G1X22960Y172861D1*
G1X22801Y171862D1*
G1X22960Y170986D1*
G1X23359Y170110D1*
G1X23839Y169612D1*
G1X24400Y169486D1*
G1X25039Y169735D1*
G1X25519Y170362D1*
G1X25999Y171487D1*
G1X26401Y-71639D2*
G1X26800Y-72389D1*
G1X27280Y-72890D1*
G1X27841Y-73139D1*
G1X28480Y-72890D1*
G1X28960Y-72389D1*
G1X29440Y-71639D1*
G1X29599Y-70640D1*
G1X29599Y-65639D1*
G1X33079Y-66890D2*
G1X33559Y-66140D1*
G1X34120Y-65765D1*
G1X34759Y-65639D1*
G1X35560Y-65888D1*
G1X36121Y-66515D1*
G1X36280Y-67265D1*
G1X36199Y-68015D1*
G1X35881Y-68639D1*
G1X34279Y-69890D1*
G1X33559Y-70763D1*
G1X33079Y-72014D1*
G1X32920Y-73139D1*
G1X36280Y-73139D1*
G1X52300Y-48338D2*
G1X44800Y-48338D1*
G1X44800Y-46340D1*
G1X45175Y-45698D1*
G1X45676Y-45299D1*
G1X46675Y-45140D1*
G1X52300Y-40139D2*
G1X44800Y-40139D1*
G1X46300Y-41099D1*
G1X48049Y-34739D2*
G1X44800Y-34499D1*
G1X44800Y-32339D1*
G1X38674Y-7178D2*
G1X38299Y-7658D1*
G1X38050Y-8219D1*
G1X38050Y-8858D1*
G1X38425Y-9578D1*
G1X39049Y-10139D1*
G1X39799Y-10538D1*
G1X41050Y-10859D1*
G1X42175Y-10940D1*
G1X43300Y-10778D1*
G1X44050Y-10538D1*
G1X44800Y-10058D1*
G1X45301Y-9500D1*
G1X45550Y-8939D1*
G1X45550Y-8378D1*
G1X45301Y-7820D1*
G1X44926Y-7340D1*
G1X44425Y-6938D1*
G1X39301Y-3860D2*
G1X38551Y-3380D1*
G1X38176Y-2819D1*
G1X42301Y-2660D2*
G1X43174Y-3380D1*
G1X44425Y-3860D1*
G1X45550Y-4019D1*
G1X45550Y-659D1*
G1X38176Y-2819D2*
G1X38050Y-2180D1*
G1X38299Y-1379D1*
G1X38926Y-818D1*
G1X39676Y-659D1*
G1X40426Y-740D1*
G1X41050Y-1058D1*
G1X42301Y-2660D1*
G1X38401Y78361D2*
G1X38401Y70861D1*
G1X41599Y70861D1*
G1X46600Y78361D2*
G1X45640Y76861D1*
G1X45640Y70861D2*
G1X47560Y70861D1*
G1X26551Y97471D2*
G1X26926Y96910D1*
G1X26926Y94912D1*
G1X26926Y96910D2*
G1X30550Y98110D1*
G1X27301Y102790D2*
G1X28174Y102070D1*
G1X29425Y101590D1*
G1X30550Y101431D1*
G1X30550Y104791D1*
G1X30550Y109711D2*
G1X30424Y110272D1*
G1X30049Y110911D1*
G1X29425Y111310D1*
G1X28549Y111472D1*
G1X27676Y111310D1*
G1X26926Y110830D1*
G1X26551Y110110D1*
G1X26551Y109312D1*
G1X26551Y110110D2*
G1X26551Y109312D1*
G1X26926Y108592D1*
G1X27676Y108112D1*
G1X28549Y107950D1*
G1X29425Y108112D1*
G1X30049Y108511D1*
G1X30424Y109150D1*
G1X30550Y109711D1*
G1X72550Y-79838D2*
G1X65050Y-79838D1*
G1X65050Y-77840D1*
G1X65425Y-77198D1*
G1X65926Y-76799D1*
G1X66925Y-76640D1*
G1X67924Y-76799D1*
G1X72550Y-71639D2*
G1X65050Y-71639D1*
G1X66550Y-72599D1*
G1X65050Y-63440D2*
G1X65050Y-66638D1*
G1X46675Y-45140D2*
G1X47674Y-45299D1*
G1X48301Y-45779D1*
G1X48676Y-46340D1*
G1X48676Y-48338D1*
G1X48676Y-46340D2*
G1X52300Y-45140D1*
G1X68299Y-64478D2*
G1X66925Y-64079D1*
G1X65050Y-63440D1*
G1X52300Y-41099D2*
G1X52300Y-39179D1*
G1X51175Y-35300D2*
G1X51799Y-34820D1*
G1X52174Y-34259D1*
G1X52300Y-33539D1*
G1X52051Y-32819D1*
G1X51550Y-32258D1*
G1X50674Y-31859D1*
G1X49675Y-31778D1*
G1X48676Y-31940D1*
G1X48049Y-32339D1*
G1X47551Y-32900D1*
G1X47425Y-33458D1*
G1X47551Y-34019D1*
G1X48049Y-34739D1*
G1X66550Y-18038D2*
G1X59050Y-18038D1*
G1X59050Y-16040D1*
G1X59425Y-15398D1*
G1X59926Y-14999D1*
G1X60925Y-14840D1*
G1X61924Y-14999D1*
G1X62551Y-15479D1*
G1X62926Y-16040D1*
G1X62926Y-18038D1*
G1X62926Y-16040D2*
G1X66550Y-14840D1*
G1X66550Y-9839D2*
G1X59050Y-9839D1*
G1X60550Y-10799D1*
G1X66550Y-10799D2*
G1X66550Y-8879D1*
G1X46600Y70861D2*
G1X46600Y78361D1*
G1X62101Y166861D2*
G1X62101Y159361D1*
G1X65299Y159361D1*
G1X67924Y-76799D2*
G1X68551Y-77279D1*
G1X68926Y-77840D1*
G1X68926Y-79838D1*
G1X68926Y-77840D2*
G1X72550Y-76640D1*
G1X72550Y-72599D2*
G1X72550Y-70679D1*
G1X72550Y-65198D2*
G1X70924Y-65039D1*
G1X69550Y-64799D1*
G1X68299Y-64478D1*
G1X81961Y14737D2*
G1X81481Y15112D1*
G1X80920Y15361D1*
G1X80281Y15361D1*
G1X79561Y14986D1*
G1X79000Y14362D1*
G1X78601Y13612D1*
G1X78280Y12361D1*
G1X78199Y11236D1*
G1X78361Y10111D1*
G1X78601Y9361D1*
G1X79081Y8611D1*
G1X79639Y8110D1*
G1X80200Y7861D1*
G1X80761Y7861D1*
G1X81319Y8110D1*
G1X81799Y8485D1*
G1X82201Y8986D1*
G1X86800Y7861D2*
G1X86800Y15361D1*
G1X85840Y13861D1*
G1X85840Y7861D2*
G1X87760Y7861D1*
G1X71989Y34111D2*
G1X71989Y41611D1*
G1X75511Y37861D2*
G1X75430Y36610D1*
G1X75109Y35737D1*
G1X74710Y34987D1*
G1X74230Y34486D1*
G1X73591Y34111D1*
G1X71989Y34111D1*
G1X80350Y34111D2*
G1X80350Y41611D1*
G1X79390Y34111D2*
G1X81310Y34111D1*
G1X71989Y41611D2*
G1X73591Y41611D1*
G1X74230Y41236D1*
G1X74710Y40735D1*
G1X75109Y39985D1*
G1X75430Y39112D1*
G1X75511Y37861D1*
G1X80350Y41611D2*
G1X79390Y40111D1*
G1X70174Y89272D2*
G1X69799Y88792D1*
G1X69550Y88231D1*
G1X69550Y87592D1*
G1X69925Y86872D1*
G1X70549Y86311D1*
G1X71299Y85912D1*
G1X72550Y85591D1*
G1X73675Y85510D1*
G1X74800Y85672D1*
G1X75550Y85912D1*
G1X76300Y86392D1*
G1X76801Y86950D1*
G1X77050Y87511D1*
G1X77050Y88072D1*
G1X76801Y88630D1*
G1X76426Y89110D1*
G1X75925Y89512D1*
G1X77050Y94111D2*
G1X69550Y94111D1*
G1X71050Y93151D1*
G1X77050Y93151D2*
G1X77050Y95071D1*
G1X69550Y100711D2*
G1X69799Y100072D1*
G1X70426Y99592D1*
G1X71176Y99271D1*
G1X72175Y99031D1*
G1X73300Y98950D1*
G1X74425Y99031D1*
G1X75424Y99271D1*
G1X76174Y99592D1*
G1X76801Y100072D1*
G1X77050Y100711D1*
G1X76801Y101350D1*
G1X76174Y101830D1*
G1X75424Y102151D1*
G1X74425Y102391D1*
G1X73300Y102472D1*
G1X72175Y102391D1*
G1X71176Y102151D1*
G1X70426Y101830D1*
G1X69799Y101350D1*
G1X69550Y100711D1*
G1X68539Y159361D2*
G1X68539Y166861D1*
G1X71260Y160237D2*
G1X70780Y159736D1*
G1X70141Y159361D1*
G1X68539Y159361D1*
G1X76900Y159361D2*
G1X76900Y166861D1*
G1X75940Y159361D2*
G1X77860Y159361D1*
G1X68539Y166861D2*
G1X70141Y166861D1*
G1X70780Y166486D1*
G1X71260Y165985D1*
G1X71659Y165235D1*
G1X71980Y164362D1*
G1X72061Y163111D1*
G1X71980Y161860D1*
G1X71659Y160987D1*
G1X71260Y160237D1*
G1X76900Y166861D2*
G1X75940Y165361D1*
G1X95101Y-80639D2*
G1X95101Y-73139D1*
G1X97099Y-73139D1*
G1X97741Y-73514D1*
G1X98140Y-74015D1*
G1X98299Y-75014D1*
G1X98140Y-76013D1*
G1X97660Y-76640D1*
G1X97099Y-77015D1*
G1X95101Y-77015D1*
G1X97099Y-77015D2*
G1X98299Y-80639D1*
G1X103300Y-80639D2*
G1X103300Y-73139D1*
G1X102340Y-74639D1*
G1X102340Y-80639D2*
G1X104260Y-80639D1*
G1X89989Y-28889D2*
G1X89989Y-34265D1*
G1X90310Y-35390D1*
G1X90949Y-36140D1*
G1X91750Y-36389D1*
G1X92551Y-36140D1*
G1X93190Y-35390D1*
G1X93511Y-34265D1*
G1X93511Y-28889D1*
G1X96829Y-30140D2*
G1X97309Y-29390D1*
G1X97870Y-29015D1*
G1X98509Y-28889D1*
G1X99310Y-29138D1*
G1X99871Y-29765D1*
G1X100030Y-30515D1*
G1X99949Y-31265D1*
G1X99631Y-31889D1*
G1X98029Y-33140D1*
G1X97309Y-34013D1*
G1X96829Y-35264D1*
G1X96670Y-36389D1*
G1X100030Y-36389D1*
G1X91879Y14110D2*
G1X92359Y14860D1*
G1X92920Y15235D1*
G1X93559Y15361D1*
G1X94360Y15112D1*
G1X94921Y14485D1*
G1X95080Y13735D1*
G1X94999Y12985D1*
G1X94681Y12361D1*
G1X93079Y11110D1*
G1X92359Y10237D1*
G1X91879Y8986D1*
G1X91720Y7861D1*
G1X95080Y7861D1*
G1X107674Y30772D2*
G1X107299Y30292D1*
G1X107050Y29731D1*
G1X107050Y29092D1*
G1X107425Y28372D1*
G1X108049Y27811D1*
G1X114550Y35611D2*
G1X107050Y35611D1*
G1X108550Y34651D1*
G1X108049Y43651D2*
G1X107425Y43252D1*
G1X107050Y42532D1*
G1X107176Y41812D1*
G1X107674Y41092D1*
G1X91174Y72322D2*
G1X90799Y71842D1*
G1X90550Y71281D1*
G1X90550Y70642D1*
G1X90925Y69922D1*
G1X91549Y69361D1*
G1X92299Y68962D1*
G1X93550Y68641D1*
G1X94675Y68560D1*
G1X95800Y68722D1*
G1X96550Y68962D1*
G1X97300Y69442D1*
G1X97801Y70000D1*
G1X98050Y70561D1*
G1X98050Y71122D1*
G1X97801Y71680D1*
G1X97426Y72160D1*
G1X96925Y72562D1*
G1X97174Y75802D2*
G1X97801Y76360D1*
G1X98050Y77002D1*
G1X97801Y77641D1*
G1X97051Y78202D1*
G1X95926Y78601D1*
G1X92299Y78601D2*
G1X91300Y78202D1*
G1X90799Y77722D1*
G1X90550Y77161D1*
G1X90799Y76522D1*
G1X91300Y76042D1*
G1X92050Y75721D1*
G1X93049Y75562D1*
G1X93925Y75721D1*
G1X94801Y76120D1*
G1X95299Y76600D1*
G1X95425Y77161D1*
G1X95176Y77800D1*
G1X94549Y78280D1*
G1X93424Y78760D1*
G1X95926Y78601D2*
G1X94801Y78760D1*
G1X93424Y78760D1*
G1X92299Y78601D1*
G1X109900Y-80639D2*
G1X110461Y-80513D1*
G1X111100Y-80138D1*
G1X111499Y-79514D1*
G1X111661Y-78638D1*
G1X111499Y-77765D1*
G1X111019Y-77015D1*
G1X110299Y-76640D1*
G1X109501Y-76640D1*
G1X109021Y-76388D1*
G1X108619Y-75764D1*
G1X108460Y-74888D1*
G1X108700Y-74015D1*
G1X109261Y-73388D1*
G1X109900Y-73139D1*
G1X110539Y-73388D1*
G1X111100Y-74015D1*
G1X111340Y-74888D1*
G1X111181Y-75764D1*
G1X110779Y-76388D1*
G1X110299Y-76640D1*
G1X109501Y-76640D1*
G1X108781Y-77015D1*
G1X108301Y-77765D1*
G1X108139Y-78638D1*
G1X108301Y-79514D1*
G1X108700Y-80138D1*
G1X109339Y-80513D1*
G1X109900Y-80639D1*
G1X132550Y-68588D2*
G1X125050Y-68588D1*
G1X125050Y-66590D1*
G1X125425Y-65948D1*
G1X125926Y-65549D1*
G1X126925Y-65390D1*
G1X127924Y-65549D1*
G1X128551Y-66029D1*
G1X126301Y-61910D2*
G1X125551Y-61430D1*
G1X125176Y-60869D1*
G1X125050Y-60230D1*
G1X125299Y-59429D1*
G1X125926Y-58868D1*
G1X126676Y-58709D1*
G1X127426Y-58790D1*
G1X128050Y-59108D1*
G1X129301Y-60710D1*
G1X128551Y-53228D2*
G1X128176Y-52748D1*
G1X127549Y-52349D1*
G1X126799Y-52190D1*
G1X126049Y-52349D1*
G1X125425Y-52748D1*
G1X125050Y-53468D1*
G1X125176Y-54188D1*
G1X125674Y-54908D1*
G1X132550Y10912D2*
G1X125050Y10912D1*
G1X125050Y12910D1*
G1X125425Y13552D1*
G1X125926Y13951D1*
G1X126925Y14110D1*
G1X127924Y13951D1*
G1X128551Y13471D1*
G1X108049Y27811D2*
G1X108799Y27412D1*
G1X110050Y27091D1*
G1X111175Y27010D1*
G1X112300Y27172D1*
G1X113050Y27412D1*
G1X113800Y27892D1*
G1X114301Y28450D1*
G1X114550Y29011D1*
G1X114550Y29572D1*
G1X114301Y30130D1*
G1X113926Y30610D1*
G1X113425Y31012D1*
G1X114550Y34651D2*
G1X114550Y36571D1*
G1X132550Y19111D2*
G1X125050Y19111D1*
G1X126550Y18151D1*
G1X129301Y27310D2*
G1X127924Y27310D1*
G1X126799Y27151D1*
G1X125800Y26752D1*
G1X125299Y26272D1*
G1X125050Y25711D1*
G1X125299Y25072D1*
G1X125800Y24592D1*
G1X126550Y24271D1*
G1X127549Y24112D1*
G1X128425Y24271D1*
G1X129049Y26830D2*
G1X127924Y27310D1*
G1X113050Y40450D2*
G1X113926Y40930D1*
G1X114424Y41572D1*
G1X114550Y42292D1*
G1X114424Y42931D1*
G1X113800Y43570D1*
G1X113050Y43972D1*
G1X112300Y44050D1*
G1X111424Y43891D1*
G1X110800Y43330D1*
G1X110551Y42772D1*
G1X110551Y42052D1*
G1X110551Y42772D2*
G1X110176Y43252D1*
G1X109549Y43651D1*
G1X108799Y43810D1*
G1X108049Y43651D1*
G1X128551Y-66029D2*
G1X128926Y-66590D1*
G1X128926Y-68588D1*
G1X128926Y-66590D2*
G1X132550Y-65390D1*
G1X129301Y-60710D2*
G1X130174Y-61430D1*
G1X131425Y-61910D1*
G1X132550Y-62069D1*
G1X132550Y-58709D1*
G1X131050Y-55550D2*
G1X131926Y-55070D1*
G1X132424Y-54428D1*
G1X132550Y-53708D1*
G1X132424Y-53069D1*
G1X131800Y-52430D1*
G1X131050Y-52028D1*
G1X130300Y-51950D1*
G1X129424Y-52109D1*
G1X128800Y-52670D1*
G1X128551Y-53228D1*
G1X128551Y-53948D1*
G1X128551Y13471D2*
G1X128926Y12910D1*
G1X128926Y10912D1*
G1X128926Y12910D2*
G1X132550Y14110D1*
G1X132550Y18151D2*
G1X132550Y20071D1*
G1X131674Y24352D2*
G1X132301Y24910D1*
G1X132550Y25552D1*
G1X132301Y26191D1*
G1X131551Y26752D1*
G1X130426Y27151D1*
G1X129301Y27310D1*
G1X128425Y24271D2*
G1X129301Y24670D1*
G1X129799Y25150D1*
G1X129925Y25711D1*
G1X129676Y26350D1*
G1X129049Y26830D1*
G1X159649Y-64514D2*
G1X159811Y-65639D1*
G1X160051Y-66389D1*
G1X160531Y-67139D1*
G1X161089Y-67640D1*
G1X161650Y-67889D1*
G1X162211Y-67889D1*
G1X162769Y-67640D1*
G1X163249Y-67265D1*
G1X163651Y-66764D1*
G1X168250Y-67889D2*
G1X167611Y-67763D1*
G1X167050Y-67265D1*
G1X166570Y-66515D1*
G1X166249Y-65639D1*
G1X166090Y-64640D1*
G1X169450Y-67265D2*
G1X168889Y-67763D1*
G1X168250Y-67889D1*
G1X163411Y-61013D2*
G1X162931Y-60638D1*
G1X162370Y-60389D1*
G1X161731Y-60389D1*
G1X161011Y-60764D1*
G1X160450Y-61388D1*
G1X160051Y-62138D1*
G1X159730Y-63389D1*
G1X159649Y-64514D1*
G1X166090Y-64640D2*
G1X166090Y-63638D1*
G1X166249Y-62639D1*
G1X166570Y-61763D1*
G1X167050Y-61013D1*
G1X167611Y-60515D1*
G1X168250Y-60389D1*
G1X168889Y-60515D1*
G1X169450Y-61013D1*
G1X160399Y38236D2*
G1X160561Y37111D1*
G1X160801Y36361D1*
G1X161281Y35611D1*
G1X161839Y35110D1*
G1X162400Y34861D1*
G1X162961Y34861D1*
G1X163519Y35110D1*
G1X163999Y35485D1*
G1X164401Y35986D1*
G1X169000Y34861D2*
G1X168361Y34987D1*
G1X167800Y35485D1*
G1X167320Y36235D1*
G1X166999Y37111D1*
G1X166840Y38110D1*
G1X169639Y34987D2*
G1X169000Y34861D1*
G1X164161Y41737D2*
G1X163681Y42112D1*
G1X163120Y42361D1*
G1X162481Y42361D1*
G1X161761Y41986D1*
G1X161200Y41362D1*
G1X160801Y40612D1*
G1X160480Y39361D1*
G1X160399Y38236D1*
G1X166840Y38110D2*
G1X166840Y39112D1*
G1X166999Y40111D1*
G1X167320Y40987D1*
G1X167800Y41737D1*
G1X168361Y42235D1*
G1X169000Y42361D1*
G1X169639Y42235D1*
G1X160561Y139861D2*
G1X160801Y139111D1*
G1X161281Y138361D1*
G1X161839Y137860D1*
G1X162400Y137611D1*
G1X162961Y137611D1*
G1X163519Y137860D1*
G1X163999Y138235D1*
G1X164401Y138736D1*
G1X169000Y137611D2*
G1X168361Y137737D1*
G1X167800Y138235D1*
G1X167320Y138985D1*
G1X166999Y139861D1*
G1X169639Y137737D2*
G1X169000Y137611D1*
G1X164161Y144487D2*
G1X163681Y144862D1*
G1X163120Y145111D1*
G1X162481Y145111D1*
G1X161761Y144736D1*
G1X161200Y144112D1*
G1X160801Y143362D1*
G1X160480Y142111D1*
G1X160399Y140986D1*
G1X160561Y139861D1*
G1X166999Y139861D2*
G1X166840Y140860D1*
G1X166840Y141862D1*
G1X166999Y142861D1*
G1X167320Y143737D1*
G1X167800Y144487D1*
G1X168361Y144985D1*
G1X169000Y145111D1*
G1X169639Y144985D1*
G1X170410Y-64640D2*
G1X170251Y-65639D1*
G1X169930Y-66515D1*
G1X169450Y-67265D1*
G1X173011Y-67889D2*
G1X173011Y-60389D1*
G1X176689Y-67889D1*
G1X176689Y-60389D1*
G1X181450Y-67889D2*
G1X181450Y-60389D1*
G1X180490Y-67889D2*
G1X182410Y-67889D1*
G1X169450Y-61013D2*
G1X169930Y-61763D1*
G1X170251Y-62639D1*
G1X170410Y-63638D1*
G1X170410Y-64640D1*
G1X181450Y-60389D2*
G1X180490Y-61889D1*
G1X171160Y38110D2*
G1X171001Y37111D1*
G1X170680Y36235D1*
G1X170200Y35485D1*
G1X169639Y34987D1*
G1X173761Y34861D2*
G1X173761Y42361D1*
G1X177439Y34861D1*
G1X177439Y42361D1*
G1X181879Y38110D2*
G1X181159Y37237D1*
G1X180679Y35986D1*
G1X180520Y34861D1*
G1X183880Y34861D1*
G1X169639Y42235D2*
G1X170200Y41737D1*
G1X170680Y40987D1*
G1X171001Y40111D1*
G1X171160Y39112D1*
G1X171160Y38110D1*
G1X180679Y41110D2*
G1X181159Y41860D1*
G1X181720Y42235D1*
G1X182359Y42361D1*
G1X183160Y42112D1*
G1X183721Y41485D1*
G1X183880Y40735D1*
G1X183799Y39985D1*
G1X183481Y39361D1*
G1X181879Y38110D1*
G1X171001Y139861D2*
G1X170680Y138985D1*
G1X170200Y138235D1*
G1X169639Y137737D1*
G1X173761Y137611D2*
G1X173761Y145111D1*
G1X177439Y137611D1*
G1X177439Y145111D1*
G1X180439Y139111D2*
G1X180919Y138235D1*
G1X181561Y137737D1*
G1X182281Y137611D1*
G1X182920Y137737D1*
G1X183559Y138361D1*
G1X183961Y139111D1*
G1X184039Y139861D1*
G1X169639Y144985D2*
G1X170200Y144487D1*
G1X170680Y143737D1*
G1X171001Y142861D1*
G1X171160Y141862D1*
G1X171160Y140860D1*
G1X171001Y139861D1*
G1X184039Y139861D2*
G1X183880Y140737D1*
G1X183319Y141361D1*
G1X182761Y141610D1*
G1X182041Y141610D1*
G1X182761Y141610D2*
G1X183241Y141985D1*
G1X183640Y142612D1*
G1X183799Y143362D1*
G1X183640Y144112D1*
G1X183241Y144736D1*
G1X182521Y145111D1*
G1X181801Y144985D1*
G1X181081Y144487D1*
G1X382475Y-15642D2*
G1X381836Y-15516D1*
G1X381275Y-15018D1*
G1X380795Y-14268D1*
G1X380474Y-13392D1*
G1X380315Y-12393D1*
G1X380315Y-11391D1*
G1X380474Y-10392D1*
G1X380795Y-9516D1*
G1X381275Y-8766D1*
G1X381836Y-8268D1*
G1X382475Y-8142D1*
G1X383114Y-8268D1*
G1X383675Y-8766D1*
G1X384155Y-9516D1*
G1X384476Y-10392D1*
G1X384635Y-11391D1*
G1X384635Y-12393D1*
G1X384476Y-13392D1*
G1X384155Y-14268D1*
G1X383675Y-15018D1*
G1X383114Y-15516D1*
G1X382475Y-15642D1*
G1X383114Y-13641D2*
G1X384074Y-15642D1*
G1X387314Y-14517D2*
G1X387794Y-15141D1*
G1X388355Y-15516D1*
G1X389075Y-15642D1*
G1X389795Y-15393D1*
G1X390356Y-14892D1*
G1X390755Y-14016D1*
G1X390836Y-13017D1*
G1X390674Y-12018D1*
G1X390275Y-11391D1*
G1X389714Y-10893D1*
G1X389156Y-10767D1*
G1X388595Y-10893D1*
G1X387875Y-11391D1*
G1X388115Y-8142D1*
G1X390275Y-8142D1*
G1X382475Y102858D2*
G1X381836Y102984D1*
G1X381275Y103482D1*
G1X380795Y104232D1*
G1X380474Y105108D1*
G1X380315Y106107D1*
G1X380315Y107109D1*
G1X380474Y108108D1*
G1X380795Y108984D1*
G1X381275Y109734D1*
G1X381836Y110232D1*
G1X382475Y110358D1*
G1X383114Y110232D1*
G1X383675Y109734D1*
G1X384155Y108984D1*
G1X384476Y108108D1*
G1X384635Y107109D1*
G1X384635Y106107D1*
G1X384476Y105108D1*
G1X384155Y104232D1*
G1X383675Y103482D1*
G1X383114Y102984D1*
G1X382475Y102858D1*
G1X383114Y104859D2*
G1X384074Y102858D1*
G1X387554Y109107D2*
G1X388034Y109857D1*
G1X388595Y110232D1*
G1X389234Y110358D1*
G1X390035Y110109D1*
G1X390596Y109482D1*
G1X390755Y108732D1*
G1X390674Y107982D1*
G1X390356Y107358D1*
G1X388754Y106107D1*
G1X388034Y105234D1*
G1X387554Y103983D1*
G1X387395Y102858D1*
G1X390755Y102858D1*
G1X490475Y-15642D2*
G1X489836Y-15516D1*
G1X489275Y-15018D1*
G1X488795Y-14268D1*
G1X488474Y-13392D1*
G1X488315Y-12393D1*
G1X488315Y-11391D1*
G1X488474Y-10392D1*
G1X488795Y-9516D1*
G1X489275Y-8766D1*
G1X489836Y-8268D1*
G1X490475Y-8142D1*
G1X491114Y-8268D1*
G1X491675Y-8766D1*
G1X492155Y-9516D1*
G1X492476Y-10392D1*
G1X492635Y-11391D1*
G1X492635Y-12393D1*
G1X492476Y-13392D1*
G1X492155Y-14268D1*
G1X491675Y-15018D1*
G1X491114Y-15516D1*
G1X490475Y-15642D1*
G1X491114Y-13641D2*
G1X492074Y-15642D1*
G1X495554Y-12516D2*
G1X496115Y-11643D1*
G1X496595Y-11142D1*
G1X496514Y-15393D2*
G1X495956Y-14643D1*
G1X495635Y-13518D1*
G1X495554Y-12267D1*
G1X495716Y-10641D1*
G1X495956Y-9768D1*
G1X496355Y-8892D1*
G1X491975Y102858D2*
G1X491336Y102984D1*
G1X490775Y103482D1*
G1X490295Y104232D1*
G1X489974Y105108D1*
G1X489815Y106107D1*
G1X489815Y107109D1*
G1X489974Y108108D1*
G1X490295Y108984D1*
G1X490775Y109734D1*
G1X491336Y110232D1*
G1X491975Y110358D1*
G1X492614Y110232D1*
G1X493175Y109734D1*
G1X493655Y108984D1*
G1X493976Y108108D1*
G1X494135Y107109D1*
G1X494135Y106107D1*
G1X493976Y105108D1*
G1X493655Y104232D1*
G1X493175Y103482D1*
G1X492614Y102984D1*
G1X491975Y102858D1*
G1X492614Y104859D2*
G1X493574Y102858D1*
G1X496595Y-11142D2*
G1X497234Y-10893D1*
G1X497795Y-11142D1*
G1X498194Y-11643D1*
G1X498515Y-12393D1*
G1X498596Y-13266D1*
G1X498515Y-14016D1*
G1X498194Y-14766D1*
G1X497714Y-15393D1*
G1X497156Y-15642D1*
G1X496514Y-15393D1*
G1X496355Y-8892D2*
G1X496916Y-8268D1*
G1X497474Y-8142D1*
G1X498035Y-8391D1*
G1X498434Y-9018D1*
G1X496814Y104358D2*
G1X497294Y103482D1*
G1X497936Y102984D1*
G1X498656Y102858D1*
G1X499295Y102984D1*
G1X499934Y103608D1*
G1X500336Y104358D1*
G1X500414Y105108D1*
G1X500255Y105984D1*
G1X499694Y106608D1*
G1X499136Y106857D1*
G1X498416Y106857D1*
G1X499136Y106857D2*
G1X499616Y107232D1*
G1X500015Y107859D1*
G1X500174Y108609D1*
G1X500015Y109359D1*
G1X499616Y109983D1*
G1X498896Y110358D1*
G1X498176Y110232D1*
G1X497456Y109734D1*
G1X598475Y-15642D2*
G1X597836Y-15516D1*
G1X597275Y-15018D1*
G1X596795Y-14268D1*
G1X596474Y-13392D1*
G1X596315Y-12393D1*
G1X596315Y-11391D1*
G1X596474Y-10392D1*
G1X596795Y-9516D1*
G1X597275Y-8766D1*
G1X597836Y-8268D1*
G1X598475Y-8142D1*
G1X598295Y104232D2*
G1X597974Y105108D1*
G1X597815Y106107D1*
G1X597815Y107109D1*
G1X597974Y108108D1*
G1X598295Y108984D1*
G1X598475Y-8142D2*
G1X599114Y-8268D1*
G1X599675Y-8766D1*
G1X600155Y-9516D1*
G1X600476Y-10392D1*
G1X600635Y-11391D1*
G1X600635Y-12393D1*
G1X600476Y-13392D1*
G1X600155Y-14268D1*
G1X599675Y-15018D1*
G1X599114Y-15516D1*
G1X598475Y-15642D1*
G1X599114Y-13641D2*
G1X600074Y-15642D1*
G1X606035Y-15642D2*
G1X606035Y-8142D1*
G1X603074Y-13518D1*
G1X607076Y-13518D1*
G1X599975Y102858D2*
G1X599336Y102984D1*
G1X598775Y103482D1*
G1X598295Y104232D1*
G1X598295Y108984D2*
G1X598775Y109734D1*
G1X599336Y110232D1*
G1X599975Y110358D1*
G1X600614Y110232D1*
G1X601175Y109734D1*
G1X601655Y108984D1*
G1X601976Y108108D1*
G1X602135Y107109D1*
G1X602135Y106107D1*
G1X601976Y105108D1*
G1X601655Y104232D1*
G1X601175Y103482D1*
G1X600614Y102984D1*
G1X599975Y102858D1*
G1X600614Y104859D2*
G1X601574Y102858D1*
G1X606575Y102858D2*
G1X606575Y110358D1*
G1X605615Y108858D1*
G1X605615Y102858D2*
G1X607535Y102858D1*
G1X628076Y-87642D2*
G1X628076Y-80142D1*
G1X630074Y-84018D2*
G1X631274Y-87642D1*
G1X636275Y-87642D2*
G1X636275Y-80142D1*
G1X635315Y-87642D2*
G1X637235Y-87642D1*
G1X628076Y-80142D2*
G1X630074Y-80142D1*
G1X630716Y-80517D1*
G1X631115Y-81018D1*
G1X631274Y-82017D1*
G1X631115Y-83016D1*
G1X630635Y-83643D1*
G1X630074Y-84018D1*
G1X628076Y-84018D1*
G1X636275Y-80142D2*
G1X635315Y-81642D1*
G1X641114Y-86142D2*
G1X641594Y-87018D1*
G1X642236Y-87516D1*
G1X642956Y-87642D1*
G1X643595Y-87516D1*
G1X644234Y-86892D1*
G1X644636Y-86142D1*
G1X644714Y-85392D1*
G1X644555Y-84516D1*
G1X643994Y-83892D1*
G1X643436Y-83643D1*
G1X642716Y-83643D1*
G1X643436Y-83643D2*
G1X643916Y-83268D1*
G1X644315Y-82641D1*
G1X644474Y-81891D1*
G1X644315Y-81141D1*
G1X643916Y-80517D1*
G1X643196Y-80142D1*
G1X642476Y-80268D1*
G1X641756Y-80766D1*
G1X674936Y-14766D2*
G1X674456Y-14391D1*
G1X673895Y-14142D1*
G1X673256Y-14142D1*
G1X672536Y-14517D1*
G1X671975Y-15141D1*
G1X671576Y-15891D1*
G1X671255Y-17142D1*
G1X671174Y-18267D1*
G1X671336Y-19392D1*
G1X671576Y-20142D1*
G1X672056Y-20892D1*
G1X672614Y-21393D1*
G1X673175Y-21642D1*
G1X673736Y-21642D1*
G1X674294Y-21393D1*
G1X674774Y-21018D1*
G1X675176Y-20517D1*
G1X679775Y-14142D2*
G1X678815Y-15642D1*
G1X678815Y-21642D2*
G1X680735Y-21642D1*
G1X674936Y6234D2*
G1X674456Y6609D1*
G1X673895Y6858D1*
G1X673256Y6858D1*
G1X672536Y6483D1*
G1X671975Y5859D1*
G1X671576Y5109D1*
G1X671255Y3858D1*
G1X671174Y2733D1*
G1X671336Y1608D1*
G1X671576Y858D1*
G1X672056Y108D1*
G1X672614Y-393D1*
G1X673175Y-642D1*
G1X673736Y-642D1*
G1X674294Y-393D1*
G1X674774Y-18D1*
G1X675176Y483D1*
G1X679775Y6858D2*
G1X678815Y5358D1*
G1X678815Y-642D2*
G1X680735Y-642D1*
G1X674936Y27234D2*
G1X674456Y27609D1*
G1X673895Y27858D1*
G1X673256Y27858D1*
G1X672536Y27483D1*
G1X671975Y26859D1*
G1X671576Y26109D1*
G1X671255Y24858D1*
G1X671174Y23733D1*
G1X671336Y22608D1*
G1X671576Y21858D1*
G1X672056Y21108D1*
G1X672614Y20607D1*
G1X673175Y20358D1*
G1X673736Y20358D1*
G1X674294Y20607D1*
G1X674774Y20982D1*
G1X675176Y21483D1*
G1X679775Y27858D2*
G1X678815Y26358D1*
G1X678815Y20358D2*
G1X680735Y20358D1*
G1X674936Y48234D2*
G1X674456Y48609D1*
G1X673895Y48858D1*
G1X673256Y48858D1*
G1X672536Y48483D1*
G1X671975Y47859D1*
G1X671576Y47109D1*
G1X671255Y45858D1*
G1X671174Y44733D1*
G1X671336Y43608D1*
G1X671576Y42858D1*
G1X672056Y42108D1*
G1X672614Y41607D1*
G1X673175Y41358D1*
G1X673736Y41358D1*
G1X674294Y41607D1*
G1X674774Y41982D1*
G1X675176Y42483D1*
G1X679775Y48858D2*
G1X678815Y47358D1*
G1X678815Y41358D2*
G1X680735Y41358D1*
G1X674936Y69234D2*
G1X674456Y69609D1*
G1X673895Y69858D1*
G1X673256Y69858D1*
G1X672536Y69483D1*
G1X671975Y68859D1*
G1X671576Y68109D1*
G1X671255Y66858D1*
G1X671174Y65733D1*
G1X671336Y64608D1*
G1X671576Y63858D1*
G1X672056Y63108D1*
G1X672614Y62607D1*
G1X673175Y62358D1*
G1X673736Y62358D1*
G1X674294Y62607D1*
G1X674774Y62982D1*
G1X675176Y63483D1*
G1X679775Y69858D2*
G1X678815Y68358D1*
G1X678815Y62358D2*
G1X680735Y62358D1*
G1X674936Y90234D2*
G1X674456Y90609D1*
G1X673895Y90858D1*
G1X673256Y90858D1*
G1X672536Y90483D1*
G1X671975Y89859D1*
G1X671576Y89109D1*
G1X671255Y87858D1*
G1X671174Y86733D1*
G1X671336Y85608D1*
G1X671576Y84858D1*
G1X672056Y84108D1*
G1X672614Y83607D1*
G1X673175Y83358D1*
G1X673736Y83358D1*
G1X674294Y83607D1*
G1X674774Y83982D1*
G1X675176Y84483D1*
G1X679775Y90858D2*
G1X678815Y89358D1*
G1X678815Y83358D2*
G1X680735Y83358D1*
G1X679775Y-21642D2*
G1X679775Y-14142D1*
G1X685016Y-20766D2*
G1X685574Y-21393D1*
G1X686216Y-21642D1*
G1X686855Y-21393D1*
G1X687416Y-20643D1*
G1X687815Y-19518D1*
G1X687974Y-18393D1*
G1X687974Y-17016D1*
G1X687815Y-15891D1*
G1X687416Y-14892D1*
G1X686936Y-14391D1*
G1X686375Y-14142D1*
G1X685736Y-14391D1*
G1X685256Y-14892D1*
G1X684935Y-15642D1*
G1X684776Y-16641D1*
G1X684935Y-17517D1*
G1X685334Y-18393D1*
G1X685814Y-18891D1*
G1X686375Y-19017D1*
G1X687014Y-18768D1*
G1X687494Y-18141D1*
G1X687974Y-17016D1*
G1X679775Y-642D2*
G1X679775Y6858D1*
G1X686375Y-642D2*
G1X686936Y-516D1*
G1X687575Y-141D1*
G1X687974Y483D1*
G1X688136Y1359D1*
G1X687974Y2232D1*
G1X687494Y2982D1*
G1X686774Y3357D1*
G1X685976Y3357D1*
G1X685496Y3609D1*
G1X685094Y4233D1*
G1X684935Y5109D1*
G1X685175Y5982D1*
G1X685736Y6609D1*
G1X686375Y6858D1*
G1X687014Y6609D1*
G1X687575Y5982D1*
G1X687815Y5109D1*
G1X687656Y4233D1*
G1X687254Y3609D1*
G1X686774Y3357D1*
G1X685976Y3357D1*
G1X685256Y2982D1*
G1X684776Y2232D1*
G1X684614Y1359D1*
G1X684776Y483D1*
G1X685175Y-141D1*
G1X685814Y-516D1*
G1X686375Y-642D1*
G1X679775Y20358D2*
G1X679775Y27858D1*
G1X686216Y20358D2*
G1X686375Y21984D1*
G1X686615Y23358D1*
G1X686936Y24609D1*
G1X687335Y25983D1*
G1X687974Y27858D1*
G1X684776Y27858D1*
G1X679775Y41358D2*
G1X679775Y48858D1*
G1X684854Y44484D2*
G1X685415Y45357D1*
G1X685895Y45858D1*
G1X686534Y46107D1*
G1X687095Y45858D1*
G1X687494Y45357D1*
G1X687815Y44607D1*
G1X687896Y43734D1*
G1X687815Y42984D1*
G1X687494Y42234D1*
G1X687014Y41607D1*
G1X686456Y41358D1*
G1X685814Y41607D1*
G1X685256Y42357D1*
G1X684935Y43482D1*
G1X684854Y44733D1*
G1X685016Y46359D1*
G1X685256Y47232D1*
G1X685655Y48108D1*
G1X686216Y48732D1*
G1X686774Y48858D1*
G1X687335Y48609D1*
G1X687734Y47982D1*
G1X679775Y62358D2*
G1X679775Y69858D1*
G1X684614Y63483D2*
G1X685094Y62859D1*
G1X685655Y62484D1*
G1X686375Y62358D1*
G1X687095Y62607D1*
G1X687656Y63108D1*
G1X688055Y63984D1*
G1X688136Y64983D1*
G1X687974Y65982D1*
G1X687575Y66609D1*
G1X687014Y67107D1*
G1X686456Y67233D1*
G1X685895Y67107D1*
G1X685175Y66609D1*
G1X685415Y69858D1*
G1X687575Y69858D1*
G1X679775Y83358D2*
G1X679775Y90858D1*
G1X687335Y83358D2*
G1X687335Y90858D1*
G1X684374Y85482D1*
G1X688376Y85482D1*
G1X-573500Y-656000D2*
G54D14*
G1X-573500Y474000D1*
G1X959000Y474000D1*
G1X959000Y-656000D1*
G1X-573500Y-656000D1*
G1X959000Y-656000D2*
G1X250300Y-656000D1*
G1X250300Y-459200D1*
G1X959000Y-459200D1*
G1X959000Y-656000D1*
G1X734500Y-624500D2*
G1X250300Y-624500D1*
G1X250300Y-593000D2*
G1X734500Y-593000D1*
G1X959000Y-530000D2*
G1X250300Y-530000D1*
G1X250300Y-514300D2*
G1X490500Y-514300D1*
G1X388100Y-593000D2*
G1X388100Y-656000D1*
G1X490500Y-459200D2*
G1X490500Y-656000D1*
G1X959000Y-561500D2*
G1X490500Y-561500D1*
G1X561300Y-656000D2*
G1X561300Y-561500D1*
G1X734500Y-530000D2*
G1X734500Y-656000D1*
G1X734500Y-608800D2*
G1X959000Y-608800D1*
G1X789700Y-530000D2*
G1X789700Y-459200D1*
G1X789700Y-494600D2*
G1X959000Y-494600D1*
G1X821200Y-561500D2*
G1X821200Y-530000D1*
G1X899900Y-561500D2*
G1X899900Y-530000D1*
G1X-247700Y-7139D2*
G54D15*
G1X-262700Y-7139D1*
G1X-247700Y84361D2*
G1X-262700Y84361D1*
G1X-255200Y-14639D2*
G1X-255200Y361D1*
G1X-255200Y76861D2*
G1X-255200Y91861D1*
G1X-273200Y-109139D2*
G54D16*
G1X-228200Y-109139D1*
G1X-273200Y-64139D2*
G1X-273200Y-109139D1*
G1X205300Y-109139D2*
G1X-273200Y-109139D1*
G1X-273200Y186136D1*
G1X-273200Y186361D2*
G1X-273200Y141361D1*
G1X-228200Y186361D2*
G1X-273200Y186361D1*
G1X-273200Y186136D2*
G1X205300Y186361D1*
G1X160300Y-109139D2*
G1X205300Y-109139D1*
G1X205300Y186361D2*
G1X160300Y186361D1*
G1X205300Y-109139D2*
G1X205300Y-64139D1*
G1X205300Y186361D2*
G1X205300Y-109139D1*
G1X205300Y141361D2*
G1X205300Y186361D1*
G1X277775Y-109392D2*
G1X756275Y-109392D1*
G1X322775Y-109392D2*
G1X277775Y-109392D1*
G1X277775Y-64392D1*
G1X277775Y186108D2*
G1X277775Y-109392D1*
G1X277775Y141108D2*
G1X277775Y186108D1*
G1X756275Y185883D2*
G1X277775Y186108D1*
G1X322775Y186108D1*
G1X756275Y-109392D2*
G1X711275Y-109392D1*
G1X711275Y186108D2*
G1X756275Y186108D1*
G1X756275Y-64392D2*
G1X756275Y-109392D1*
G1X756275Y185883D1*
G1X756275Y186108D2*
G1X756275Y141108D1*
G1X730300Y-635700D2*
G75*
G54D11*
G3X730300Y-635700I-1000J0D1*
G1X727400Y-606700D2*
G3X727400Y-606700I-1000J0D1*
G74*
G1X742400Y-549700D2*
G1X789700Y-549700D1*
G1X750300Y-545800D2*
G1X750300Y-553700D1*
G1X781800Y-557600D1*
G1X781800Y-541800D1*
G1X750300Y-545800D1*
G1X813300Y-549700D2*
G1X813200Y-548300D1*
G1X812800Y-547000D1*
G1X812200Y-545700D1*
G1X811500Y-544600D1*
G1X810500Y-543600D1*
G1X809400Y-542900D1*
G1X808100Y-542300D1*
G1X806800Y-541900D1*
G1X805400Y-541800D1*
G1X804000Y-541900D1*
G1X802700Y-542300D1*
G1X801500Y-542900D1*
G1X800300Y-543600D1*
G1X799300Y-544600D1*
G1X798600Y-545700D1*
G1X798000Y-547000D1*
G1X797600Y-548300D1*
G1X797500Y-549700D1*
G1X797600Y-551100D1*
G1X798000Y-552400D1*
G1X798600Y-553600D1*
G1X799300Y-554800D1*
G1X800300Y-555800D1*
G1X801400Y-556500D1*
G1X802700Y-557100D1*
G1X804000Y-557500D1*
G1X805400Y-557600D1*
G1X806800Y-557500D1*
G1X808100Y-557100D1*
G1X809300Y-556500D1*
G1X810500Y-555800D1*
G1X811500Y-554800D1*
G1X812200Y-553700D1*
G1X812800Y-552400D1*
G1X813200Y-551100D1*
G1X813300Y-549700D1*
G1X793600Y-549700D2*
G1X817200Y-549700D1*
G1X809400Y-549700D2*
G1X809200Y-548300D1*
G1X808900Y-547700D1*
G1X808500Y-547100D1*
G1X808000Y-546600D1*
G1X807400Y-546200D1*
G1X806800Y-545900D1*
G1X805400Y-545700D1*
G1X804000Y-545900D1*
G1X803400Y-546200D1*
G1X802800Y-546600D1*
G1X802300Y-547100D1*
G1X801900Y-547700D1*
G1X801600Y-548300D1*
G1X801400Y-549700D1*
G1X801600Y-551100D1*
G1X801900Y-551700D1*
G1X802300Y-552300D1*
G1X802800Y-552800D1*
G1X803400Y-553200D1*
G1X804000Y-553500D1*
G1X805400Y-553700D1*
G1X806800Y-553500D1*
G1X807400Y-553200D1*
G1X808000Y-552800D1*
G1X808500Y-552300D1*
G1X808900Y-551700D1*
G1X809200Y-551100D1*
G1X809400Y-549700D1*
G1X805400Y-537900D2*
G1X805400Y-561500D1*
G1X258767Y-635500D2*
G54D12*
G1X261100Y-628000D1*
G1X263433Y-635500D1*
G1X262593Y-632875D2*
G1X259607Y-632875D1*
G1X266920Y-638000D2*
G1X266920Y-630500D1*
G1X266920Y-631625D2*
G1X267387Y-631000D1*
G1X267853Y-630625D1*
G1X268600Y-630500D1*
G1X269253Y-630625D1*
G1X269907Y-631250D1*
G1X270187Y-632125D1*
G1X270280Y-633000D1*
G1X270187Y-633875D1*
G1X269907Y-634750D1*
G1X269347Y-635250D1*
G1X268600Y-635500D1*
G1X267947Y-635375D1*
G1X267293Y-635000D1*
G1X266920Y-634500D1*
G1X274420Y-638000D2*
G1X274420Y-630500D1*
G1X274420Y-631625D2*
G1X274887Y-631000D1*
G1X275353Y-630625D1*
G1X276100Y-630500D1*
G1X276753Y-630625D1*
G1X277407Y-631250D1*
G1X277687Y-632125D1*
G1X277780Y-633000D1*
G1X277687Y-633875D1*
G1X277407Y-634750D1*
G1X276847Y-635250D1*
G1X276100Y-635500D1*
G1X275447Y-635375D1*
G1X274793Y-635000D1*
G1X274420Y-634500D1*
G1X282293Y-635500D2*
G1X282293Y-630500D1*
G1X282293Y-631500D2*
G1X282760Y-631000D1*
G1X283227Y-630625D1*
G1X283880Y-630500D1*
G1X284347Y-630625D1*
G1X284907Y-631000D1*
G1X291100Y-635500D2*
G1X290540Y-635375D1*
G1X289980Y-634875D1*
G1X289607Y-634000D1*
G1X289420Y-633000D1*
G1X289607Y-632000D1*
G1X289980Y-631125D1*
G1X290540Y-630625D1*
G1X291100Y-630500D1*
G1X291660Y-630625D1*
G1X292220Y-631125D1*
G1X292593Y-632000D1*
G1X292687Y-633000D1*
G1X292593Y-634000D1*
G1X292220Y-634875D1*
G1X291660Y-635375D1*
G1X291100Y-635500D1*
G1X296920Y-630500D2*
G1X298600Y-635500D1*
G1X300280Y-630500D1*
G1X304700Y-632125D2*
G1X307687Y-632125D1*
G1X307407Y-631250D1*
G1X306940Y-630750D1*
G1X306287Y-630500D1*
G1X305633Y-630625D1*
G1X305073Y-631000D1*
G1X304700Y-631875D1*
G1X304513Y-632625D1*
G1X304513Y-633375D1*
G1X304700Y-634125D1*
G1X305167Y-634875D1*
G1X305727Y-635375D1*
G1X306380Y-635500D1*
G1X307033Y-635250D1*
G1X307687Y-634500D1*
G1X315280Y-628000D2*
G1X315280Y-635500D1*
G1X315280Y-634375D2*
G1X314907Y-635000D1*
G1X314347Y-635375D1*
G1X313693Y-635500D1*
G1X312947Y-635250D1*
G1X312387Y-634625D1*
G1X312013Y-633875D1*
G1X311920Y-633000D1*
G1X312013Y-632125D1*
G1X312387Y-631375D1*
G1X312947Y-630750D1*
G1X313693Y-630500D1*
G1X314347Y-630625D1*
G1X314813Y-630875D1*
G1X315280Y-631375D1*
G1X259047Y-604000D2*
G1X259047Y-596500D1*
G1X260913Y-596500D1*
G1X261660Y-596875D1*
G1X262220Y-597375D1*
G1X262687Y-598125D1*
G1X263060Y-599000D1*
G1X263153Y-600250D1*
G1X263060Y-601500D1*
G1X262687Y-602375D1*
G1X262220Y-603125D1*
G1X261660Y-603625D1*
G1X260913Y-604000D1*
G1X259047Y-604000D1*
G1X267293Y-604000D2*
G1X267293Y-599000D1*
G1X267293Y-600000D2*
G1X267760Y-599500D1*
G1X268227Y-599125D1*
G1X268880Y-599000D1*
G1X269347Y-599125D1*
G1X269907Y-599500D1*
G1X277780Y-604000D2*
G1X277780Y-599000D1*
G1X277780Y-599875D2*
G1X277407Y-599375D1*
G1X276847Y-599125D1*
G1X276193Y-599000D1*
G1X275540Y-599250D1*
G1X274980Y-599750D1*
G1X274607Y-600500D1*
G1X274420Y-601500D1*
G1X274607Y-602500D1*
G1X274980Y-603250D1*
G1X275540Y-603750D1*
G1X276193Y-604000D1*
G1X276847Y-603875D1*
G1X277407Y-603500D1*
G1X277780Y-603000D1*
G1X281267Y-599000D2*
G1X282387Y-604000D1*
G1X283600Y-599000D1*
G1X284813Y-604000D1*
G1X285933Y-599000D1*
G1X289513Y-604000D2*
G1X289513Y-599000D1*
G1X289513Y-600250D2*
G1X289887Y-599625D1*
G1X290447Y-599125D1*
G1X291193Y-599000D1*
G1X291847Y-599125D1*
G1X292407Y-599625D1*
G1X292687Y-600500D1*
G1X292687Y-604000D1*
G1X264700Y-570100D2*
G1X265797Y-576400D1*
G1X267050Y-570100D1*
G1X268303Y-576400D1*
G1X269400Y-570100D1*
G1X272410Y-570100D2*
G1X274290Y-570100D1*
G1X273350Y-570100D2*
G1X273350Y-576400D1*
G1X272410Y-576400D2*
G1X274290Y-576400D1*
G1X279650Y-570100D2*
G1X279650Y-576400D1*
G1X277848Y-570100D2*
G1X281452Y-570100D1*
G1X284305Y-576400D2*
G1X284305Y-570100D1*
G1X287595Y-570100D2*
G1X287595Y-576400D1*
G1X287595Y-573250D2*
G1X284305Y-573250D1*
G1X292250Y-576400D2*
G1X291623Y-576295D1*
G1X291075Y-575875D1*
G1X290605Y-575245D1*
G1X290292Y-574510D1*
G1X290135Y-573670D1*
G1X290135Y-572830D1*
G1X290292Y-571990D1*
G1X290605Y-571255D1*
G1X291075Y-570625D1*
G1X291623Y-570205D1*
G1X292250Y-570100D1*
G1X292877Y-570205D1*
G1X293425Y-570625D1*
G1X293895Y-571255D1*
G1X294208Y-571990D1*
G1X294365Y-572830D1*
G1X294365Y-573670D1*
G1X294208Y-574510D1*
G1X293895Y-575245D1*
G1X293425Y-575875D1*
G1X292877Y-576295D1*
G1X292250Y-576400D1*
G1X296827Y-570100D2*
G1X296827Y-574615D1*
G1X297140Y-575560D1*
G1X297767Y-576190D1*
G1X298550Y-576400D1*
G1X299333Y-576190D1*
G1X299960Y-575560D1*
G1X300273Y-574615D1*
G1X300273Y-570100D1*
G1X304850Y-570100D2*
G1X304850Y-576400D1*
G1X303048Y-570100D2*
G1X306652Y-570100D1*
G1X315100Y-570100D2*
G1X316197Y-576400D1*
G1X317450Y-570100D1*
G1X318703Y-576400D1*
G1X319800Y-570100D1*
G1X322183Y-576400D2*
G1X322183Y-570100D1*
G1X324142Y-570100D1*
G1X324768Y-570415D1*
G1X325160Y-570835D1*
G1X325317Y-571675D1*
G1X325160Y-572515D1*
G1X324690Y-573040D1*
G1X324142Y-573355D1*
G1X322183Y-573355D1*
G1X324142Y-573355D2*
G1X325317Y-576400D1*
G1X329110Y-570100D2*
G1X330990Y-570100D1*
G1X330050Y-570100D2*
G1X330050Y-576400D1*
G1X329110Y-576400D2*
G1X330990Y-576400D1*
G1X336350Y-570100D2*
G1X336350Y-576400D1*
G1X334548Y-570100D2*
G1X338152Y-570100D1*
G1X342650Y-570100D2*
G1X342650Y-576400D1*
G1X340848Y-570100D2*
G1X344452Y-570100D1*
G1X350517Y-576400D2*
G1X347383Y-576400D1*
G1X347383Y-570100D1*
G1X350517Y-570100D1*
G1X349263Y-573145D2*
G1X347383Y-573145D1*
G1X353448Y-576400D2*
G1X353448Y-570100D1*
G1X357052Y-576400D1*
G1X357052Y-570100D1*
G1X365892Y-576400D2*
G1X367850Y-570100D1*
G1X369808Y-576400D1*
G1X369103Y-574195D2*
G1X366597Y-574195D1*
G1X372427Y-570100D2*
G1X372427Y-574615D1*
G1X372740Y-575560D1*
G1X373367Y-576190D1*
G1X374150Y-576400D1*
G1X374933Y-576190D1*
G1X375560Y-575560D1*
G1X375873Y-574615D1*
G1X375873Y-570100D1*
G1X380450Y-570100D2*
G1X380450Y-576400D1*
G1X378648Y-570100D2*
G1X382252Y-570100D1*
G1X385105Y-576400D2*
G1X385105Y-570100D1*
G1X388395Y-570100D2*
G1X388395Y-576400D1*
G1X388395Y-573250D2*
G1X385105Y-573250D1*
G1X393050Y-576400D2*
G1X392423Y-576295D1*
G1X391875Y-575875D1*
G1X391405Y-575245D1*
G1X391092Y-574510D1*
G1X390935Y-573670D1*
G1X390935Y-572830D1*
G1X391092Y-571990D1*
G1X391405Y-571255D1*
G1X391875Y-570625D1*
G1X392423Y-570205D1*
G1X393050Y-570100D1*
G1X393677Y-570205D1*
G1X394225Y-570625D1*
G1X394695Y-571255D1*
G1X395008Y-571990D1*
G1X395165Y-572830D1*
G1X395165Y-573670D1*
G1X395008Y-574510D1*
G1X394695Y-575245D1*
G1X394225Y-575875D1*
G1X393677Y-576295D1*
G1X393050Y-576400D1*
G1X397783Y-576400D2*
G1X397783Y-570100D1*
G1X399742Y-570100D1*
G1X400368Y-570415D1*
G1X400760Y-570835D1*
G1X400917Y-571675D1*
G1X400760Y-572515D1*
G1X400290Y-573040D1*
G1X399742Y-573355D1*
G1X397783Y-573355D1*
G1X399742Y-573355D2*
G1X400917Y-576400D1*
G1X404710Y-570100D2*
G1X406590Y-570100D1*
G1X405650Y-570100D2*
G1X405650Y-576400D1*
G1X404710Y-576400D2*
G1X406590Y-576400D1*
G1X410462Y-570100D2*
G1X413438Y-570100D1*
G1X410462Y-576400D1*
G1X413438Y-576400D1*
G1X416292Y-576400D2*
G1X418250Y-570100D1*
G1X420208Y-576400D1*
G1X419503Y-574195D2*
G1X416997Y-574195D1*
G1X424550Y-570100D2*
G1X424550Y-576400D1*
G1X422748Y-570100D2*
G1X426352Y-570100D1*
G1X429910Y-570100D2*
G1X431790Y-570100D1*
G1X430850Y-570100D2*
G1X430850Y-576400D1*
G1X429910Y-576400D2*
G1X431790Y-576400D1*
G1X437150Y-576400D2*
G1X436523Y-576295D1*
G1X435975Y-575875D1*
G1X435505Y-575245D1*
G1X435192Y-574510D1*
G1X435035Y-573670D1*
G1X435035Y-572830D1*
G1X435192Y-571990D1*
G1X435505Y-571255D1*
G1X435975Y-570625D1*
G1X436523Y-570205D1*
G1X437150Y-570100D1*
G1X437777Y-570205D1*
G1X438325Y-570625D1*
G1X438795Y-571255D1*
G1X439108Y-571990D1*
G1X439265Y-572830D1*
G1X439265Y-573670D1*
G1X439108Y-574510D1*
G1X438795Y-575245D1*
G1X438325Y-575875D1*
G1X437777Y-576295D1*
G1X437150Y-576400D1*
G1X441648Y-576400D2*
G1X441648Y-570100D1*
G1X445252Y-576400D1*
G1X445252Y-570100D1*
G1X454562Y-576400D2*
G1X454562Y-570100D1*
G1X457538Y-570100D1*
G1X456442Y-573145D2*
G1X454562Y-573145D1*
G1X460783Y-576400D2*
G1X460783Y-570100D1*
G1X462742Y-570100D1*
G1X463368Y-570415D1*
G1X463760Y-570835D1*
G1X463917Y-571675D1*
G1X463760Y-572515D1*
G1X463290Y-573040D1*
G1X462742Y-573355D1*
G1X460783Y-573355D1*
G1X462742Y-573355D2*
G1X463917Y-576400D1*
G1X468650Y-576400D2*
G1X468023Y-576295D1*
G1X467475Y-575875D1*
G1X467005Y-575245D1*
G1X466692Y-574510D1*
G1X466535Y-573670D1*
G1X466535Y-572830D1*
G1X466692Y-571990D1*
G1X467005Y-571255D1*
G1X467475Y-570625D1*
G1X468023Y-570205D1*
G1X468650Y-570100D1*
G1X469277Y-570205D1*
G1X469825Y-570625D1*
G1X470295Y-571255D1*
G1X470608Y-571990D1*
G1X470765Y-572830D1*
G1X470765Y-573670D1*
G1X470608Y-574510D1*
G1X470295Y-575245D1*
G1X469825Y-575875D1*
G1X469277Y-576295D1*
G1X468650Y-576400D1*
G1X472913Y-576400D2*
G1X472913Y-570100D1*
G1X474950Y-575350D1*
G1X476987Y-570100D1*
G1X476987Y-576400D1*
G1X265092Y-564600D2*
G1X267050Y-558300D1*
G1X269008Y-564600D1*
G1X268303Y-562395D2*
G1X265797Y-562395D1*
G1X271548Y-564600D2*
G1X271548Y-558300D1*
G1X275152Y-564600D1*
G1X275152Y-558300D1*
G1X279650Y-564600D2*
G1X279650Y-561765D1*
G1X278083Y-558300D1*
G1X281217Y-558300D2*
G1X279650Y-561765D1*
G1X290762Y-564600D2*
G1X290762Y-558300D1*
G1X293738Y-558300D1*
G1X292642Y-561345D2*
G1X290762Y-561345D1*
G1X298550Y-564600D2*
G1X297923Y-564495D1*
G1X297375Y-564075D1*
G1X296905Y-563445D1*
G1X296592Y-562710D1*
G1X296435Y-561870D1*
G1X296435Y-561030D1*
G1X296592Y-560190D1*
G1X296905Y-559455D1*
G1X297375Y-558825D1*
G1X297923Y-558405D1*
G1X298550Y-558300D1*
G1X299177Y-558405D1*
G1X299725Y-558825D1*
G1X300195Y-559455D1*
G1X300508Y-560190D1*
G1X300665Y-561030D1*
G1X300665Y-561870D1*
G1X300508Y-562710D1*
G1X300195Y-563445D1*
G1X299725Y-564075D1*
G1X299177Y-564495D1*
G1X298550Y-564600D1*
G1X303283Y-564600D2*
G1X303283Y-558300D1*
G1X305242Y-558300D1*
G1X305868Y-558615D1*
G1X306260Y-559035D1*
G1X306417Y-559875D1*
G1X306260Y-560715D1*
G1X305790Y-561240D1*
G1X305242Y-561555D1*
G1X303283Y-561555D1*
G1X305242Y-561555D2*
G1X306417Y-564600D1*
G1X309113Y-564600D2*
G1X309113Y-558300D1*
G1X311150Y-563550D1*
G1X313187Y-558300D1*
G1X313187Y-564600D1*
G1X321400Y-558300D2*
G1X322497Y-564600D1*
G1X323750Y-558300D1*
G1X325003Y-564600D1*
G1X326100Y-558300D1*
G1X328405Y-564600D2*
G1X328405Y-558300D1*
G1X331695Y-558300D2*
G1X331695Y-564600D1*
G1X331695Y-561450D2*
G1X328405Y-561450D1*
G1X334392Y-564600D2*
G1X336350Y-558300D1*
G1X338308Y-564600D1*
G1X337603Y-562395D2*
G1X335097Y-562395D1*
G1X342650Y-558300D2*
G1X342650Y-564600D1*
G1X340848Y-558300D2*
G1X344452Y-558300D1*
G1X350517Y-564600D2*
G1X347383Y-564600D1*
G1X347383Y-558300D1*
G1X350517Y-558300D1*
G1X349263Y-561345D2*
G1X347383Y-561345D1*
G1X353292Y-558300D2*
G1X355250Y-564600D1*
G1X357208Y-558300D1*
G1X363117Y-564600D2*
G1X359983Y-564600D1*
G1X359983Y-558300D1*
G1X363117Y-558300D1*
G1X361863Y-561345D2*
G1X359983Y-561345D1*
G1X366283Y-564600D2*
G1X366283Y-558300D1*
G1X368242Y-558300D1*
G1X368868Y-558615D1*
G1X369260Y-559035D1*
G1X369417Y-559875D1*
G1X369260Y-560715D1*
G1X368790Y-561240D1*
G1X368242Y-561555D1*
G1X366283Y-561555D1*
G1X368242Y-561555D2*
G1X369417Y-564600D1*
G1X379510Y-558300D2*
G1X381390Y-558300D1*
G1X380450Y-558300D2*
G1X380450Y-564600D1*
G1X379510Y-564600D2*
G1X381390Y-564600D1*
G1X385105Y-563760D2*
G1X385732Y-564285D1*
G1X386437Y-564600D1*
G1X387063Y-564600D1*
G1X387690Y-564285D1*
G1X388160Y-563760D1*
G1X388395Y-563025D1*
G1X388238Y-562290D1*
G1X387847Y-561660D1*
G1X387142Y-561240D1*
G1X386202Y-561030D1*
G1X385653Y-560610D1*
G1X385418Y-559875D1*
G1X385575Y-559140D1*
G1X385967Y-558615D1*
G1X386515Y-558300D1*
G1X387063Y-558300D1*
G1X387612Y-558510D1*
G1X388082Y-559035D1*
G1X397548Y-564600D2*
G1X397548Y-558300D1*
G1X401152Y-564600D1*
G1X401152Y-558300D1*
G1X405650Y-564600D2*
G1X405023Y-564495D1*
G1X404475Y-564075D1*
G1X404005Y-563445D1*
G1X403692Y-562710D1*
G1X403535Y-561870D1*
G1X403535Y-561030D1*
G1X403692Y-560190D1*
G1X404005Y-559455D1*
G1X404475Y-558825D1*
G1X405023Y-558405D1*
G1X405650Y-558300D1*
G1X406277Y-558405D1*
G1X406825Y-558825D1*
G1X407295Y-559455D1*
G1X407608Y-560190D1*
G1X407765Y-561030D1*
G1X407765Y-561870D1*
G1X407608Y-562710D1*
G1X407295Y-563445D1*
G1X406825Y-564075D1*
G1X406277Y-564495D1*
G1X405650Y-564600D1*
G1X411950Y-558300D2*
G1X411950Y-564600D1*
G1X410148Y-558300D2*
G1X413752Y-558300D1*
G1X422983Y-564600D2*
G1X422983Y-558300D1*
G1X424863Y-558300D1*
G1X425490Y-558615D1*
G1X425960Y-559350D1*
G1X426117Y-560190D1*
G1X425960Y-561030D1*
G1X425568Y-561660D1*
G1X424863Y-561975D1*
G1X422983Y-561975D1*
G1X432417Y-564600D2*
G1X429283Y-564600D1*
G1X429283Y-558300D1*
G1X432417Y-558300D1*
G1X431163Y-561345D2*
G1X429283Y-561345D1*
G1X435583Y-564600D2*
G1X435583Y-558300D1*
G1X437542Y-558300D1*
G1X438168Y-558615D1*
G1X438560Y-559035D1*
G1X438717Y-559875D1*
G1X438560Y-560715D1*
G1X438090Y-561240D1*
G1X437542Y-561555D1*
G1X435583Y-561555D1*
G1X437542Y-561555D2*
G1X438717Y-564600D1*
G1X441413Y-564600D2*
G1X441413Y-558300D1*
G1X443450Y-563550D1*
G1X445487Y-558300D1*
G1X445487Y-564600D1*
G1X448810Y-558300D2*
G1X450690Y-558300D1*
G1X449750Y-558300D2*
G1X449750Y-564600D1*
G1X448810Y-564600D2*
G1X450690Y-564600D1*
G1X456050Y-558300D2*
G1X456050Y-564600D1*
G1X454248Y-558300D2*
G1X457852Y-558300D1*
G1X462350Y-558300D2*
G1X462350Y-564600D1*
G1X460548Y-558300D2*
G1X464152Y-558300D1*
G1X470217Y-564600D2*
G1X467083Y-564600D1*
G1X467083Y-558300D1*
G1X470217Y-558300D1*
G1X468963Y-561345D2*
G1X467083Y-561345D1*
G1X473227Y-564600D2*
G1X473227Y-558300D1*
G1X474793Y-558300D1*
G1X475420Y-558615D1*
G1X475890Y-559035D1*
G1X476282Y-559665D1*
G1X476595Y-560400D1*
G1X476673Y-561450D1*
G1X476595Y-562500D1*
G1X476282Y-563235D1*
G1X475890Y-563865D1*
G1X475420Y-564285D1*
G1X474793Y-564600D1*
G1X473227Y-564600D1*
G1X258792Y-541000D2*
G1X260750Y-534700D1*
G1X262708Y-541000D1*
G1X262003Y-538795D2*
G1X259497Y-538795D1*
G1X265483Y-534700D2*
G1X265483Y-541000D1*
G1X268617Y-541000D1*
G1X271783Y-534700D2*
G1X271783Y-541000D1*
G1X274917Y-541000D1*
G1X284383Y-541000D2*
G1X284383Y-534700D1*
G1X286342Y-534700D1*
G1X286968Y-535015D1*
G1X287360Y-535435D1*
G1X287517Y-536275D1*
G1X287360Y-537115D1*
G1X286890Y-537640D1*
G1X286342Y-537955D1*
G1X284383Y-537955D1*
G1X286342Y-537955D2*
G1X287517Y-541000D1*
G1X291310Y-534700D2*
G1X293190Y-534700D1*
G1X292250Y-534700D2*
G1X292250Y-541000D1*
G1X291310Y-541000D2*
G1X293190Y-541000D1*
G1X299020Y-537850D2*
G1X300587Y-537850D1*
G1X300587Y-539740D1*
G1X300117Y-540370D1*
G1X299568Y-540790D1*
G1X298785Y-541000D1*
G1X298002Y-540790D1*
G1X297453Y-540370D1*
G1X296983Y-539740D1*
G1X296670Y-539005D1*
G1X296513Y-538165D1*
G1X296513Y-537430D1*
G1X296670Y-536800D1*
G1X296983Y-536065D1*
G1X297453Y-535435D1*
G1X297923Y-535015D1*
G1X298550Y-534700D1*
G1X299098Y-534700D1*
G1X299725Y-534910D1*
G1X300195Y-535330D1*
G1X303205Y-541000D2*
G1X303205Y-534700D1*
G1X306495Y-534700D2*
G1X306495Y-541000D1*
G1X306495Y-537850D2*
G1X303205Y-537850D1*
G1X311150Y-534700D2*
G1X311150Y-541000D1*
G1X309348Y-534700D2*
G1X312952Y-534700D1*
G1X315805Y-540160D2*
G1X316432Y-540685D1*
G1X317137Y-541000D1*
G1X317763Y-541000D1*
G1X318390Y-540685D1*
G1X318860Y-540160D1*
G1X319095Y-539425D1*
G1X318938Y-538690D1*
G1X318547Y-538060D1*
G1X317842Y-537640D1*
G1X316902Y-537430D1*
G1X316353Y-537010D1*
G1X316118Y-536275D1*
G1X316275Y-535540D1*
G1X316667Y-535015D1*
G1X317215Y-534700D1*
G1X317763Y-534700D1*
G1X318312Y-534910D1*
G1X318782Y-535435D1*
G1X328405Y-540160D2*
G1X329032Y-540685D1*
G1X329737Y-541000D1*
G1X330363Y-541000D1*
G1X330990Y-540685D1*
G1X331460Y-540160D1*
G1X331695Y-539425D1*
G1X331538Y-538690D1*
G1X331147Y-538060D1*
G1X330442Y-537640D1*
G1X329502Y-537430D1*
G1X328953Y-537010D1*
G1X328718Y-536275D1*
G1X328875Y-535540D1*
G1X329267Y-535015D1*
G1X329815Y-534700D1*
G1X330363Y-534700D1*
G1X330912Y-534910D1*
G1X331382Y-535435D1*
G1X336350Y-534700D2*
G1X336350Y-541000D1*
G1X334548Y-534700D2*
G1X338152Y-534700D1*
G1X341083Y-541000D2*
G1X341083Y-534700D1*
G1X343042Y-534700D1*
G1X343668Y-535015D1*
G1X344060Y-535435D1*
G1X344217Y-536275D1*
G1X344060Y-537115D1*
G1X343590Y-537640D1*
G1X343042Y-537955D1*
G1X341083Y-537955D1*
G1X343042Y-537955D2*
G1X344217Y-541000D1*
G1X348010Y-534700D2*
G1X349890Y-534700D1*
G1X348950Y-534700D2*
G1X348950Y-541000D1*
G1X348010Y-541000D2*
G1X349890Y-541000D1*
G1X356973Y-535225D2*
G1X356503Y-534910D1*
G1X355955Y-534700D1*
G1X355328Y-534700D1*
G1X354623Y-535015D1*
G1X354075Y-535540D1*
G1X353683Y-536170D1*
G1X353370Y-537220D1*
G1X353292Y-538165D1*
G1X353448Y-539110D1*
G1X353683Y-539740D1*
G1X354153Y-540370D1*
G1X354702Y-540790D1*
G1X355250Y-541000D1*
G1X355798Y-541000D1*
G1X356347Y-540790D1*
G1X356817Y-540475D1*
G1X357208Y-540055D1*
G1X361550Y-534700D2*
G1X361550Y-541000D1*
G1X359748Y-534700D2*
G1X363352Y-534700D1*
G1X366283Y-534700D2*
G1X366283Y-541000D1*
G1X369417Y-541000D1*
G1X374150Y-541000D2*
G1X374150Y-538165D1*
G1X372583Y-534700D1*
G1X375717Y-534700D2*
G1X374150Y-538165D1*
G1X385183Y-541000D2*
G1X385183Y-534700D1*
G1X387142Y-534700D1*
G1X387768Y-535015D1*
G1X388160Y-535435D1*
G1X388317Y-536275D1*
G1X388160Y-537115D1*
G1X387690Y-537640D1*
G1X387142Y-537955D1*
G1X385183Y-537955D1*
G1X387142Y-537955D2*
G1X388317Y-541000D1*
G1X394617Y-541000D2*
G1X391483Y-541000D1*
G1X391483Y-534700D1*
G1X394617Y-534700D1*
G1X393363Y-537745D2*
G1X391483Y-537745D1*
G1X397705Y-540160D2*
G1X398332Y-540685D1*
G1X399037Y-541000D1*
G1X399663Y-541000D1*
G1X400290Y-540685D1*
G1X400760Y-540160D1*
G1X400995Y-539425D1*
G1X400838Y-538690D1*
G1X400447Y-538060D1*
G1X399742Y-537640D1*
G1X398802Y-537430D1*
G1X398253Y-537010D1*
G1X398018Y-536275D1*
G1X398175Y-535540D1*
G1X398567Y-535015D1*
G1X399115Y-534700D1*
G1X399663Y-534700D1*
G1X400212Y-534910D1*
G1X400682Y-535435D1*
G1X407217Y-541000D2*
G1X404083Y-541000D1*
G1X404083Y-534700D1*
G1X407217Y-534700D1*
G1X405963Y-537745D2*
G1X404083Y-537745D1*
G1X410383Y-541000D2*
G1X410383Y-534700D1*
G1X412342Y-534700D1*
G1X412968Y-535015D1*
G1X413360Y-535435D1*
G1X413517Y-536275D1*
G1X413360Y-537115D1*
G1X412890Y-537640D1*
G1X412342Y-537955D1*
G1X410383Y-537955D1*
G1X412342Y-537955D2*
G1X413517Y-541000D1*
G1X416292Y-534700D2*
G1X418250Y-541000D1*
G1X420208Y-534700D1*
G1X426117Y-541000D2*
G1X422983Y-541000D1*
G1X422983Y-534700D1*
G1X426117Y-534700D1*
G1X424863Y-537745D2*
G1X422983Y-537745D1*
G1X429127Y-541000D2*
G1X429127Y-534700D1*
G1X430693Y-534700D1*
G1X431320Y-535015D1*
G1X431790Y-535435D1*
G1X432182Y-536065D1*
G1X432495Y-536800D1*
G1X432573Y-537850D1*
G1X432495Y-538900D1*
G1X432182Y-539635D1*
G1X431790Y-540265D1*
G1X431320Y-540685D1*
G1X430693Y-541000D1*
G1X429127Y-541000D1*
G1X437150Y-541210D2*
G1X436993Y-541105D1*
G1X436993Y-540895D1*
G1X437150Y-540790D1*
G1X437307Y-540895D1*
G1X437307Y-541105D1*
G1X437150Y-541210D1*
G1X448183Y-541000D2*
G1X448183Y-534700D1*
G1X450142Y-534700D1*
G1X450768Y-535015D1*
G1X451160Y-535435D1*
G1X451317Y-536275D1*
G1X451160Y-537115D1*
G1X450690Y-537640D1*
G1X450142Y-537955D1*
G1X448183Y-537955D1*
G1X450142Y-537955D2*
G1X451317Y-541000D1*
G1X457617Y-541000D2*
G1X454483Y-541000D1*
G1X454483Y-534700D1*
G1X457617Y-534700D1*
G1X456363Y-537745D2*
G1X454483Y-537745D1*
G1X460783Y-541000D2*
G1X460783Y-534700D1*
G1X462663Y-534700D1*
G1X463290Y-535015D1*
G1X463760Y-535750D1*
G1X463917Y-536590D1*
G1X463760Y-537430D1*
G1X463368Y-538060D1*
G1X462663Y-538375D1*
G1X460783Y-538375D1*
G1X467083Y-541000D2*
G1X467083Y-534700D1*
G1X469042Y-534700D1*
G1X469668Y-535015D1*
G1X470060Y-535435D1*
G1X470217Y-536275D1*
G1X470060Y-537115D1*
G1X469590Y-537640D1*
G1X469042Y-537955D1*
G1X467083Y-537955D1*
G1X469042Y-537955D2*
G1X470217Y-541000D1*
G1X474950Y-541000D2*
G1X474323Y-540895D1*
G1X473775Y-540475D1*
G1X473305Y-539845D1*
G1X472992Y-539110D1*
G1X472835Y-538270D1*
G1X472835Y-537430D1*
G1X472992Y-536590D1*
G1X473305Y-535855D1*
G1X473775Y-535225D1*
G1X474323Y-534805D1*
G1X474950Y-534700D1*
G1X475577Y-534805D1*
G1X476125Y-535225D1*
G1X476595Y-535855D1*
G1X476908Y-536590D1*
G1X477065Y-537430D1*
G1X477065Y-538270D1*
G1X476908Y-539110D1*
G1X476595Y-539845D1*
G1X476125Y-540475D1*
G1X475577Y-540895D1*
G1X474950Y-541000D1*
G1X480232Y-538900D2*
G1X482268Y-538900D1*
G1X259027Y-552800D2*
G1X259027Y-546500D1*
G1X260593Y-546500D1*
G1X261220Y-546815D1*
G1X261690Y-547235D1*
G1X262082Y-547865D1*
G1X262395Y-548600D1*
G1X262473Y-549650D1*
G1X262395Y-550700D1*
G1X262082Y-551435D1*
G1X261690Y-552065D1*
G1X261220Y-552485D1*
G1X260593Y-552800D1*
G1X259027Y-552800D1*
G1X265327Y-546500D2*
G1X265327Y-551015D1*
G1X265640Y-551960D1*
G1X266267Y-552590D1*
G1X267050Y-552800D1*
G1X267833Y-552590D1*
G1X268460Y-551960D1*
G1X268773Y-551015D1*
G1X268773Y-546500D1*
G1X275073Y-547025D2*
G1X274603Y-546710D1*
G1X274055Y-546500D1*
G1X273428Y-546500D1*
G1X272723Y-546815D1*
G1X272175Y-547340D1*
G1X271783Y-547970D1*
G1X271470Y-549020D1*
G1X271392Y-549965D1*
G1X271548Y-550910D1*
G1X271783Y-551540D1*
G1X272253Y-552170D1*
G1X272802Y-552590D1*
G1X273350Y-552800D1*
G1X273898Y-552800D1*
G1X274447Y-552590D1*
G1X274917Y-552275D1*
G1X275308Y-551855D1*
G1X279650Y-546500D2*
G1X279650Y-552800D1*
G1X277848Y-546500D2*
G1X281452Y-546500D1*
G1X285010Y-546500D2*
G1X286890Y-546500D1*
G1X285950Y-546500D2*
G1X285950Y-552800D1*
G1X285010Y-552800D2*
G1X286890Y-552800D1*
G1X292250Y-552800D2*
G1X291623Y-552695D1*
G1X291075Y-552275D1*
G1X290605Y-551645D1*
G1X290292Y-550910D1*
G1X290135Y-550070D1*
G1X290135Y-549230D1*
G1X290292Y-548390D1*
G1X290605Y-547655D1*
G1X291075Y-547025D1*
G1X291623Y-546605D1*
G1X292250Y-546500D1*
G1X292877Y-546605D1*
G1X293425Y-547025D1*
G1X293895Y-547655D1*
G1X294208Y-548390D1*
G1X294365Y-549230D1*
G1X294365Y-550070D1*
G1X294208Y-550910D1*
G1X293895Y-551645D1*
G1X293425Y-552275D1*
G1X292877Y-552695D1*
G1X292250Y-552800D1*
G1X296748Y-552800D2*
G1X296748Y-546500D1*
G1X300352Y-552800D1*
G1X300352Y-546500D1*
G1X311150Y-552800D2*
G1X310523Y-552695D1*
G1X309975Y-552275D1*
G1X309505Y-551645D1*
G1X309192Y-550910D1*
G1X309035Y-550070D1*
G1X309035Y-549230D1*
G1X309192Y-548390D1*
G1X309505Y-547655D1*
G1X309975Y-547025D1*
G1X310523Y-546605D1*
G1X311150Y-546500D1*
G1X311777Y-546605D1*
G1X312325Y-547025D1*
G1X312795Y-547655D1*
G1X313108Y-548390D1*
G1X313265Y-549230D1*
G1X313265Y-550070D1*
G1X313108Y-550910D1*
G1X312795Y-551645D1*
G1X312325Y-552275D1*
G1X311777Y-552695D1*
G1X311150Y-552800D1*
G1X315883Y-552800D2*
G1X315883Y-546500D1*
G1X317842Y-546500D1*
G1X318468Y-546815D1*
G1X318860Y-547235D1*
G1X319017Y-548075D1*
G1X318860Y-548915D1*
G1X318390Y-549440D1*
G1X317842Y-549755D1*
G1X315883Y-549755D1*
G1X317842Y-549755D2*
G1X319017Y-552800D1*
G1X329110Y-546500D2*
G1X330990Y-546500D1*
G1X330050Y-546500D2*
G1X330050Y-552800D1*
G1X329110Y-552800D2*
G1X330990Y-552800D1*
G1X334705Y-551960D2*
G1X335332Y-552485D1*
G1X336037Y-552800D1*
G1X336663Y-552800D1*
G1X337290Y-552485D1*
G1X337760Y-551960D1*
G1X337995Y-551225D1*
G1X337838Y-550490D1*
G1X337447Y-549860D1*
G1X336742Y-549440D1*
G1X335802Y-549230D1*
G1X335253Y-548810D1*
G1X335018Y-548075D1*
G1X335175Y-547340D1*
G1X335567Y-546815D1*
G1X336115Y-546500D1*
G1X336663Y-546500D1*
G1X337212Y-546710D1*
G1X337682Y-547235D1*
G1X341005Y-551960D2*
G1X341632Y-552485D1*
G1X342337Y-552800D1*
G1X342963Y-552800D1*
G1X343590Y-552485D1*
G1X344060Y-551960D1*
G1X344295Y-551225D1*
G1X344138Y-550490D1*
G1X343747Y-549860D1*
G1X343042Y-549440D1*
G1X342102Y-549230D1*
G1X341553Y-548810D1*
G1X341318Y-548075D1*
G1X341475Y-547340D1*
G1X341867Y-546815D1*
G1X342415Y-546500D1*
G1X342963Y-546500D1*
G1X343512Y-546710D1*
G1X343982Y-547235D1*
G1X347227Y-546500D2*
G1X347227Y-551015D1*
G1X347540Y-551960D1*
G1X348167Y-552590D1*
G1X348950Y-552800D1*
G1X349733Y-552590D1*
G1X350360Y-551960D1*
G1X350673Y-551015D1*
G1X350673Y-546500D1*
G1X356817Y-552800D2*
G1X353683Y-552800D1*
G1X353683Y-546500D1*
G1X356817Y-546500D1*
G1X355563Y-549545D2*
G1X353683Y-549545D1*
G1X367850Y-546500D2*
G1X367850Y-552800D1*
G1X366048Y-546500D2*
G1X369652Y-546500D1*
G1X374150Y-552800D2*
G1X373523Y-552695D1*
G1X372975Y-552275D1*
G1X372505Y-551645D1*
G1X372192Y-550910D1*
G1X372035Y-550070D1*
G1X372035Y-549230D1*
G1X372192Y-548390D1*
G1X372505Y-547655D1*
G1X372975Y-547025D1*
G1X373523Y-546605D1*
G1X374150Y-546500D1*
G1X374777Y-546605D1*
G1X375325Y-547025D1*
G1X375795Y-547655D1*
G1X376108Y-548390D1*
G1X376265Y-549230D1*
G1X376265Y-550070D1*
G1X376108Y-550910D1*
G1X375795Y-551645D1*
G1X375325Y-552275D1*
G1X374777Y-552695D1*
G1X374150Y-552800D1*
G1X386750Y-546500D2*
G1X386750Y-552800D1*
G1X384948Y-546500D2*
G1X388552Y-546500D1*
G1X391405Y-552800D2*
G1X391405Y-546500D1*
G1X394695Y-546500D2*
G1X394695Y-552800D1*
G1X394695Y-549650D2*
G1X391405Y-549650D1*
G1X398410Y-546500D2*
G1X400290Y-546500D1*
G1X399350Y-546500D2*
G1X399350Y-552800D1*
G1X398410Y-552800D2*
G1X400290Y-552800D1*
G1X404083Y-552800D2*
G1X404083Y-546500D1*
G1X406042Y-546500D1*
G1X406668Y-546815D1*
G1X407060Y-547235D1*
G1X407217Y-548075D1*
G1X407060Y-548915D1*
G1X406590Y-549440D1*
G1X406042Y-549755D1*
G1X404083Y-549755D1*
G1X406042Y-549755D2*
G1X407217Y-552800D1*
G1X410227Y-552800D2*
G1X410227Y-546500D1*
G1X411793Y-546500D1*
G1X412420Y-546815D1*
G1X412890Y-547235D1*
G1X413282Y-547865D1*
G1X413595Y-548600D1*
G1X413673Y-549650D1*
G1X413595Y-550700D1*
G1X413282Y-551435D1*
G1X412890Y-552065D1*
G1X412420Y-552485D1*
G1X411793Y-552800D1*
G1X410227Y-552800D1*
G1X422983Y-552800D2*
G1X422983Y-546500D1*
G1X424863Y-546500D1*
G1X425490Y-546815D1*
G1X425960Y-547550D1*
G1X426117Y-548390D1*
G1X425960Y-549230D1*
G1X425568Y-549860D1*
G1X424863Y-550175D1*
G1X422983Y-550175D1*
G1X428892Y-552800D2*
G1X430850Y-546500D1*
G1X432808Y-552800D1*
G1X432103Y-550595D2*
G1X429597Y-550595D1*
G1X435583Y-552800D2*
G1X435583Y-546500D1*
G1X437542Y-546500D1*
G1X438168Y-546815D1*
G1X438560Y-547235D1*
G1X438717Y-548075D1*
G1X438560Y-548915D1*
G1X438090Y-549440D1*
G1X437542Y-549755D1*
G1X435583Y-549755D1*
G1X437542Y-549755D2*
G1X438717Y-552800D1*
G1X443450Y-546500D2*
G1X443450Y-552800D1*
G1X441648Y-546500D2*
G1X445252Y-546500D1*
G1X448810Y-546500D2*
G1X450690Y-546500D1*
G1X449750Y-546500D2*
G1X449750Y-552800D1*
G1X448810Y-552800D2*
G1X450690Y-552800D1*
G1X457617Y-552800D2*
G1X454483Y-552800D1*
G1X454483Y-546500D1*
G1X457617Y-546500D1*
G1X456363Y-549545D2*
G1X454483Y-549545D1*
G1X460705Y-551960D2*
G1X461332Y-552485D1*
G1X462037Y-552800D1*
G1X462663Y-552800D1*
G1X463290Y-552485D1*
G1X463760Y-551960D1*
G1X463995Y-551225D1*
G1X463838Y-550490D1*
G1X463447Y-549860D1*
G1X462742Y-549440D1*
G1X461802Y-549230D1*
G1X461253Y-548810D1*
G1X461018Y-548075D1*
G1X461175Y-547340D1*
G1X461567Y-546815D1*
G1X462115Y-546500D1*
G1X462663Y-546500D1*
G1X463212Y-546710D1*
G1X463682Y-547235D1*
G1X474010Y-546500D2*
G1X475890Y-546500D1*
G1X474950Y-546500D2*
G1X474950Y-552800D1*
G1X474010Y-552800D2*
G1X475890Y-552800D1*
G1X479448Y-552800D2*
G1X479448Y-546500D1*
G1X483052Y-552800D1*
G1X483052Y-546500D1*
G1X257267Y-525200D2*
G1X259600Y-517700D1*
G1X261933Y-525200D1*
G1X261093Y-522575D2*
G1X258107Y-522575D1*
G1X264673Y-525200D2*
G1X264673Y-517700D1*
G1X267100Y-523950D1*
G1X269527Y-517700D1*
G1X269527Y-525200D1*
G1X275160Y-521450D2*
G1X277027Y-521450D1*
G1X277027Y-523700D1*
G1X276467Y-524450D1*
G1X275813Y-524950D1*
G1X274880Y-525200D1*
G1X273947Y-524950D1*
G1X273293Y-524450D1*
G1X272733Y-523700D1*
G1X272360Y-522825D1*
G1X272173Y-521825D1*
G1X272173Y-520950D1*
G1X272360Y-520200D1*
G1X272733Y-519325D1*
G1X273293Y-518575D1*
G1X273853Y-518075D1*
G1X274600Y-517700D1*
G1X275253Y-517700D1*
G1X276000Y-517950D1*
G1X276560Y-518450D1*
G1X287267Y-525200D2*
G1X289600Y-517700D1*
G1X291933Y-525200D1*
G1X291093Y-522575D2*
G1X288107Y-522575D1*
G1X295513Y-525200D2*
G1X295513Y-520200D1*
G1X295513Y-521450D2*
G1X295887Y-520825D1*
G1X296447Y-520325D1*
G1X297193Y-520200D1*
G1X297847Y-520325D1*
G1X298407Y-520825D1*
G1X298687Y-521700D1*
G1X298687Y-525200D1*
G1X306280Y-525200D2*
G1X306280Y-520200D1*
G1X306280Y-521075D2*
G1X305907Y-520575D1*
G1X305347Y-520325D1*
G1X304693Y-520200D1*
G1X304040Y-520450D1*
G1X303480Y-520950D1*
G1X303107Y-521700D1*
G1X302920Y-522700D1*
G1X303107Y-523700D1*
G1X303480Y-524450D1*
G1X304040Y-524950D1*
G1X304693Y-525200D1*
G1X305347Y-525075D1*
G1X305907Y-524700D1*
G1X306280Y-524200D1*
G1X312100Y-525200D2*
G1X312100Y-517700D1*
G1X319600Y-525200D2*
G1X319040Y-525075D1*
G1X318480Y-524575D1*
G1X318107Y-523700D1*
G1X317920Y-522700D1*
G1X318107Y-521700D1*
G1X318480Y-520825D1*
G1X319040Y-520325D1*
G1X319600Y-520200D1*
G1X320160Y-520325D1*
G1X320720Y-520825D1*
G1X321093Y-521700D1*
G1X321187Y-522700D1*
G1X321093Y-523700D1*
G1X320720Y-524575D1*
G1X320160Y-525075D1*
G1X319600Y-525200D1*
G1X325793Y-527075D2*
G1X326447Y-527575D1*
G1X327193Y-527700D1*
G1X327847Y-527575D1*
G1X328407Y-526950D1*
G1X328780Y-526075D1*
G1X328780Y-520200D1*
G1X328780Y-521200D2*
G1X328407Y-520700D1*
G1X327847Y-520325D1*
G1X327193Y-520200D1*
G1X326447Y-520450D1*
G1X325980Y-520950D1*
G1X325607Y-521825D1*
G1X325420Y-522700D1*
G1X325513Y-523450D1*
G1X325887Y-524325D1*
G1X326447Y-524950D1*
G1X327193Y-525200D1*
G1X327753Y-525075D1*
G1X328407Y-524575D1*
G1X328780Y-524075D1*
G1X340140Y-524200D2*
G1X340887Y-524825D1*
G1X341727Y-525200D1*
G1X342473Y-525200D1*
G1X343220Y-524825D1*
G1X343780Y-524200D1*
G1X344060Y-523325D1*
G1X343873Y-522450D1*
G1X343407Y-521700D1*
G1X342567Y-521200D1*
G1X341447Y-520950D1*
G1X340793Y-520450D1*
G1X340513Y-519575D1*
G1X340700Y-518700D1*
G1X341167Y-518075D1*
G1X341820Y-517700D1*
G1X342473Y-517700D1*
G1X343127Y-517950D1*
G1X343687Y-518575D1*
G1X348013Y-520200D2*
G1X348013Y-523700D1*
G1X348387Y-524575D1*
G1X348947Y-525075D1*
G1X349600Y-525200D1*
G1X350253Y-525075D1*
G1X350813Y-524575D1*
G1X351187Y-523700D1*
G1X351187Y-525200D2*
G1X351187Y-520200D1*
G1X355420Y-525200D2*
G1X355420Y-517700D1*
G1X355420Y-521450D2*
G1X355887Y-520700D1*
G1X356447Y-520325D1*
G1X357007Y-520200D1*
G1X357847Y-520450D1*
G1X358407Y-520950D1*
G1X358780Y-521825D1*
G1X358780Y-522825D1*
G1X358593Y-523825D1*
G1X358220Y-524575D1*
G1X357567Y-525075D1*
G1X357007Y-525200D1*
G1X356447Y-525075D1*
G1X355887Y-524700D1*
G1X355420Y-524075D1*
G1X370793Y-527075D2*
G1X371447Y-527575D1*
G1X372193Y-527700D1*
G1X372847Y-527575D1*
G1X373407Y-526950D1*
G1X373780Y-526075D1*
G1X373780Y-520200D1*
G1X373780Y-521200D2*
G1X373407Y-520700D1*
G1X372847Y-520325D1*
G1X372193Y-520200D1*
G1X371447Y-520450D1*
G1X370980Y-520950D1*
G1X370607Y-521825D1*
G1X370420Y-522700D1*
G1X370513Y-523450D1*
G1X370887Y-524325D1*
G1X371447Y-524950D1*
G1X372193Y-525200D1*
G1X372753Y-525075D1*
G1X373407Y-524575D1*
G1X373780Y-524075D1*
G1X379600Y-525450D2*
G1X379413Y-525325D1*
G1X379413Y-525075D1*
G1X379600Y-524950D1*
G1X379787Y-525075D1*
G1X379787Y-525325D1*
G1X379600Y-525450D1*
G1X260633Y-455400D2*
G1X260633Y-447900D1*
G1X262967Y-447900D1*
G1X263713Y-448275D1*
G1X264180Y-448775D1*
G1X264367Y-449775D1*
G1X264180Y-450775D1*
G1X263620Y-451400D1*
G1X262967Y-451775D1*
G1X260633Y-451775D1*
G1X262967Y-451775D2*
G1X264367Y-455400D1*
G1X271867Y-455400D2*
G1X268133Y-455400D1*
G1X268133Y-447900D1*
G1X271867Y-447900D1*
G1X270373Y-451525D2*
G1X268133Y-451525D1*
G1X275167Y-447900D2*
G1X277500Y-455400D1*
G1X279833Y-447900D1*
G1X283880Y-447900D2*
G1X286120Y-447900D1*
G1X285000Y-447900D2*
G1X285000Y-455400D1*
G1X283880Y-455400D2*
G1X286120Y-455400D1*
G1X290540Y-454400D2*
G1X291287Y-455025D1*
G1X292127Y-455400D1*
G1X292873Y-455400D1*
G1X293620Y-455025D1*
G1X294180Y-454400D1*
G1X294460Y-453525D1*
G1X294273Y-452650D1*
G1X293807Y-451900D1*
G1X292967Y-451400D1*
G1X291847Y-451150D1*
G1X291193Y-450650D1*
G1X290913Y-449775D1*
G1X291100Y-448900D1*
G1X291567Y-448275D1*
G1X292220Y-447900D1*
G1X292873Y-447900D1*
G1X293527Y-448150D1*
G1X294087Y-448775D1*
G1X298880Y-447900D2*
G1X301120Y-447900D1*
G1X300000Y-447900D2*
G1X300000Y-455400D1*
G1X298880Y-455400D2*
G1X301120Y-455400D1*
G1X307500Y-455400D2*
G1X306753Y-455275D1*
G1X306100Y-454775D1*
G1X305540Y-454025D1*
G1X305167Y-453150D1*
G1X304980Y-452150D1*
G1X304980Y-451150D1*
G1X305167Y-450150D1*
G1X305540Y-449275D1*
G1X306100Y-448525D1*
G1X306753Y-448025D1*
G1X307500Y-447900D1*
G1X308247Y-448025D1*
G1X308900Y-448525D1*
G1X309460Y-449275D1*
G1X309833Y-450150D1*
G1X310020Y-451150D1*
G1X310020Y-452150D1*
G1X309833Y-453150D1*
G1X309460Y-454025D1*
G1X308900Y-454775D1*
G1X308247Y-455275D1*
G1X307500Y-455400D1*
G1X312853Y-455400D2*
G1X312853Y-447900D1*
G1X317147Y-455400D1*
G1X317147Y-447900D1*
G1X327947Y-455400D2*
G1X327947Y-447900D1*
G1X329813Y-447900D1*
G1X330560Y-448275D1*
G1X331120Y-448775D1*
G1X331587Y-449525D1*
G1X331960Y-450400D1*
G1X332053Y-451650D1*
G1X331960Y-452900D1*
G1X331587Y-453775D1*
G1X331120Y-454525D1*
G1X330560Y-455025D1*
G1X329813Y-455400D1*
G1X327947Y-455400D1*
G1X335167Y-455400D2*
G1X337500Y-447900D1*
G1X339833Y-455400D1*
G1X338993Y-452775D2*
G1X336007Y-452775D1*
G1X345000Y-447900D2*
G1X345000Y-455400D1*
G1X342853Y-447900D2*
G1X347147Y-447900D1*
G1X354367Y-455400D2*
G1X350633Y-455400D1*
G1X350633Y-447900D1*
G1X354367Y-447900D1*
G1X352873Y-451525D2*
G1X350633Y-451525D1*
G1X301540Y-587200D2*
G1X302287Y-587825D1*
G1X303127Y-588200D1*
G1X303873Y-588200D1*
G1X304620Y-587825D1*
G1X305180Y-587200D1*
G1X305460Y-586325D1*
G1X305273Y-585450D1*
G1X304807Y-584700D1*
G1X303967Y-584200D1*
G1X302847Y-583950D1*
G1X302193Y-583450D1*
G1X301913Y-582575D1*
G1X302100Y-581700D1*
G1X302567Y-581075D1*
G1X303220Y-580700D1*
G1X303873Y-580700D1*
G1X304527Y-580950D1*
G1X305087Y-581575D1*
G1X311000Y-580700D2*
G1X311000Y-588200D1*
G1X308853Y-580700D2*
G1X313147Y-580700D1*
G1X316073Y-588200D2*
G1X316073Y-580700D1*
G1X318500Y-586950D1*
G1X320927Y-580700D1*
G1X320927Y-588200D1*
G1X326000Y-583200D2*
G1X326000Y-588200D1*
G1X326000Y-581200D2*
G1X325813Y-581075D1*
G1X325813Y-580825D1*
G1X326000Y-580700D1*
G1X326187Y-580825D1*
G1X326187Y-581075D1*
G1X326000Y-581200D1*
G1X334993Y-583825D2*
G1X334340Y-583325D1*
G1X333780Y-583200D1*
G1X333033Y-583450D1*
G1X332473Y-583950D1*
G1X332100Y-584825D1*
G1X332007Y-585700D1*
G1X332100Y-586575D1*
G1X332473Y-587325D1*
G1X333033Y-587950D1*
G1X333780Y-588200D1*
G1X334433Y-587950D1*
G1X334993Y-587450D1*
G1X339693Y-588200D2*
G1X339693Y-583200D1*
G1X339693Y-584200D2*
G1X340160Y-583700D1*
G1X340627Y-583325D1*
G1X341280Y-583200D1*
G1X341747Y-583325D1*
G1X342307Y-583700D1*
G1X348500Y-588200D2*
G1X347940Y-588075D1*
G1X347380Y-587575D1*
G1X347007Y-586700D1*
G1X346820Y-585700D1*
G1X347007Y-584700D1*
G1X347380Y-583825D1*
G1X347940Y-583325D1*
G1X348500Y-583200D1*
G1X349060Y-583325D1*
G1X349620Y-583825D1*
G1X349993Y-584700D1*
G1X350087Y-585700D1*
G1X349993Y-586700D1*
G1X349620Y-587575D1*
G1X349060Y-588075D1*
G1X348500Y-588200D1*
G1X354600Y-584825D2*
G1X357587Y-584825D1*
G1X357307Y-583950D1*
G1X356840Y-583450D1*
G1X356187Y-583200D1*
G1X355533Y-583325D1*
G1X354973Y-583700D1*
G1X354600Y-584575D1*
G1X354413Y-585325D1*
G1X354413Y-586075D1*
G1X354600Y-586825D1*
G1X355067Y-587575D1*
G1X355627Y-588075D1*
G1X356280Y-588200D1*
G1X356933Y-587950D1*
G1X357587Y-587200D1*
G1X363500Y-588200D2*
G1X363500Y-580700D1*
G1X369600Y-584825D2*
G1X372587Y-584825D1*
G1X372307Y-583950D1*
G1X371840Y-583450D1*
G1X371187Y-583200D1*
G1X370533Y-583325D1*
G1X369973Y-583700D1*
G1X369600Y-584575D1*
G1X369413Y-585325D1*
G1X369413Y-586075D1*
G1X369600Y-586825D1*
G1X370067Y-587575D1*
G1X370627Y-588075D1*
G1X371280Y-588200D1*
G1X371933Y-587950D1*
G1X372587Y-587200D1*
G1X379993Y-583825D2*
G1X379340Y-583325D1*
G1X378780Y-583200D1*
G1X378033Y-583450D1*
G1X377473Y-583950D1*
G1X377100Y-584825D1*
G1X377007Y-585700D1*
G1X377100Y-586575D1*
G1X377473Y-587325D1*
G1X378033Y-587950D1*
G1X378780Y-588200D1*
G1X379433Y-587950D1*
G1X379993Y-587450D1*
G1X386000Y-580700D2*
G1X386000Y-588200D1*
G1X384693Y-583200D2*
G1X387307Y-583200D1*
G1X392193Y-588200D2*
G1X392193Y-583200D1*
G1X392193Y-584200D2*
G1X392660Y-583700D1*
G1X393127Y-583325D1*
G1X393780Y-583200D1*
G1X394247Y-583325D1*
G1X394807Y-583700D1*
G1X401000Y-588200D2*
G1X400440Y-588075D1*
G1X399880Y-587575D1*
G1X399507Y-586700D1*
G1X399320Y-585700D1*
G1X399507Y-584700D1*
G1X399880Y-583825D1*
G1X400440Y-583325D1*
G1X401000Y-583200D1*
G1X401560Y-583325D1*
G1X402120Y-583825D1*
G1X402493Y-584700D1*
G1X402587Y-585700D1*
G1X402493Y-586700D1*
G1X402120Y-587575D1*
G1X401560Y-588075D1*
G1X401000Y-588200D1*
G1X406913Y-588200D2*
G1X406913Y-583200D1*
G1X406913Y-584450D2*
G1X407287Y-583825D1*
G1X407847Y-583325D1*
G1X408593Y-583200D1*
G1X409247Y-583325D1*
G1X409807Y-583825D1*
G1X410087Y-584700D1*
G1X410087Y-588200D1*
G1X416000Y-583200D2*
G1X416000Y-588200D1*
G1X416000Y-581200D2*
G1X415813Y-581075D1*
G1X415813Y-580825D1*
G1X416000Y-580700D1*
G1X416187Y-580825D1*
G1X416187Y-581075D1*
G1X416000Y-581200D1*
G1X424993Y-583825D2*
G1X424340Y-583325D1*
G1X423780Y-583200D1*
G1X423033Y-583450D1*
G1X422473Y-583950D1*
G1X422100Y-584825D1*
G1X422007Y-585700D1*
G1X422100Y-586575D1*
G1X422473Y-587325D1*
G1X423033Y-587950D1*
G1X423780Y-588200D1*
G1X424433Y-587950D1*
G1X424993Y-587450D1*
G1X429600Y-587325D2*
G1X430067Y-587825D1*
G1X430720Y-588200D1*
G1X431280Y-588200D1*
G1X431840Y-587950D1*
G1X432213Y-587575D1*
G1X432400Y-587075D1*
G1X432307Y-586325D1*
G1X431933Y-585950D1*
G1X430253Y-585200D1*
G1X429880Y-584325D1*
G1X430067Y-583700D1*
G1X430440Y-583325D1*
G1X431000Y-583200D1*
G1X431560Y-583325D1*
G1X432120Y-583700D1*
G1X438500Y-588450D2*
G1X438313Y-588325D1*
G1X438313Y-588075D1*
G1X438500Y-587950D1*
G1X438687Y-588075D1*
G1X438687Y-588325D1*
G1X438500Y-588450D1*
G1X391092Y-525200D2*
G1X393050Y-518900D1*
G1X395008Y-525200D1*
G1X394303Y-522995D2*
G1X391797Y-522995D1*
G1X399820Y-522050D2*
G1X401387Y-522050D1*
G1X401387Y-523940D1*
G1X400917Y-524570D1*
G1X400368Y-524990D1*
G1X399585Y-525200D1*
G1X398802Y-524990D1*
G1X398253Y-524570D1*
G1X397783Y-523940D1*
G1X397470Y-523205D1*
G1X397313Y-522365D1*
G1X397313Y-521630D1*
G1X397470Y-521000D1*
G1X397783Y-520265D1*
G1X398253Y-519635D1*
G1X398723Y-519215D1*
G1X399350Y-518900D1*
G1X399898Y-518900D1*
G1X400525Y-519110D1*
G1X400995Y-519530D1*
G1X404083Y-525200D2*
G1X404083Y-518900D1*
G1X406042Y-518900D1*
G1X406668Y-519215D1*
G1X407060Y-519635D1*
G1X407217Y-520475D1*
G1X407060Y-521315D1*
G1X406590Y-521840D1*
G1X406042Y-522155D1*
G1X404083Y-522155D1*
G1X406042Y-522155D2*
G1X407217Y-525200D1*
G1X409992Y-525200D2*
G1X411950Y-518900D1*
G1X413908Y-525200D1*
G1X413203Y-522995D2*
G1X410697Y-522995D1*
G1X418250Y-518900D2*
G1X418250Y-525200D1*
G1X416448Y-518900D2*
G1X420052Y-518900D1*
G1X426117Y-525200D2*
G1X422983Y-525200D1*
G1X422983Y-518900D1*
G1X426117Y-518900D1*
G1X424863Y-521945D2*
G1X422983Y-521945D1*
G1X437777Y-521840D2*
G1X438090Y-521525D1*
G1X438325Y-521000D1*
G1X438482Y-520265D1*
G1X438325Y-519635D1*
G1X438012Y-519215D1*
G1X437463Y-518900D1*
G1X435348Y-518900D1*
G1X435348Y-525200D1*
G1X437933Y-525200D1*
G1X438482Y-524780D1*
G1X438795Y-524150D1*
G1X438952Y-523415D1*
G1X438795Y-522680D1*
G1X438325Y-522050D1*
G1X437777Y-521840D1*
G1X435348Y-521840D1*
G1X443450Y-525410D2*
G1X443293Y-525305D1*
G1X443293Y-525095D1*
G1X443450Y-524990D1*
G1X443607Y-525095D1*
G1X443607Y-525305D1*
G1X443450Y-525410D1*
G1X455110Y-518900D2*
G1X456990Y-518900D1*
G1X456050Y-518900D2*
G1X456050Y-525200D1*
G1X455110Y-525200D2*
G1X456990Y-525200D1*
G1X462350Y-518900D2*
G1X462350Y-525200D1*
G1X460548Y-518900D2*
G1X464152Y-518900D1*
G1X466692Y-525200D2*
G1X468650Y-518900D1*
G1X470608Y-525200D1*
G1X469903Y-522995D2*
G1X467397Y-522995D1*
G1X473383Y-518900D2*
G1X473383Y-525200D1*
G1X476517Y-525200D1*
G1X481250Y-525200D2*
G1X481250Y-522365D1*
G1X479683Y-518900D1*
G1X482817Y-518900D2*
G1X481250Y-522365D1*
G1X398080Y-628000D2*
G1X398080Y-635500D1*
G1X398080Y-634375D2*
G1X397707Y-635000D1*
G1X397147Y-635375D1*
G1X396493Y-635500D1*
G1X395747Y-635250D1*
G1X395187Y-634625D1*
G1X394813Y-633875D1*
G1X394720Y-633000D1*
G1X394813Y-632125D1*
G1X395187Y-631375D1*
G1X395747Y-630750D1*
G1X396493Y-630500D1*
G1X397147Y-630625D1*
G1X397613Y-630875D1*
G1X398080Y-631375D1*
G1X405580Y-635500D2*
G1X405580Y-630500D1*
G1X405580Y-631375D2*
G1X405207Y-630875D1*
G1X404647Y-630625D1*
G1X403993Y-630500D1*
G1X403340Y-630750D1*
G1X402780Y-631250D1*
G1X402407Y-632000D1*
G1X402220Y-633000D1*
G1X402407Y-634000D1*
G1X402780Y-634750D1*
G1X403340Y-635250D1*
G1X403993Y-635500D1*
G1X404647Y-635375D1*
G1X405207Y-635000D1*
G1X405580Y-634500D1*
G1X411400Y-628000D2*
G1X411400Y-635500D1*
G1X410093Y-630500D2*
G1X412707Y-630500D1*
G1X417500Y-632125D2*
G1X420487Y-632125D1*
G1X420207Y-631250D1*
G1X419740Y-630750D1*
G1X419087Y-630500D1*
G1X418433Y-630625D1*
G1X417873Y-631000D1*
G1X417500Y-631875D1*
G1X417313Y-632625D1*
G1X417313Y-633375D1*
G1X417500Y-634125D1*
G1X417967Y-634875D1*
G1X418527Y-635375D1*
G1X419180Y-635500D1*
G1X419833Y-635250D1*
G1X420487Y-634500D1*
G1X398080Y-596500D2*
G1X398080Y-604000D1*
G1X398080Y-602875D2*
G1X397707Y-603500D1*
G1X397147Y-603875D1*
G1X396493Y-604000D1*
G1X395747Y-603750D1*
G1X395187Y-603125D1*
G1X394813Y-602375D1*
G1X394720Y-601500D1*
G1X394813Y-600625D1*
G1X395187Y-599875D1*
G1X395747Y-599250D1*
G1X396493Y-599000D1*
G1X397147Y-599125D1*
G1X397613Y-599375D1*
G1X398080Y-599875D1*
G1X405580Y-604000D2*
G1X405580Y-599000D1*
G1X405580Y-599875D2*
G1X405207Y-599375D1*
G1X404647Y-599125D1*
G1X403993Y-599000D1*
G1X403340Y-599250D1*
G1X402780Y-599750D1*
G1X402407Y-600500D1*
G1X402220Y-601500D1*
G1X402407Y-602500D1*
G1X402780Y-603250D1*
G1X403340Y-603750D1*
G1X403993Y-604000D1*
G1X404647Y-603875D1*
G1X405207Y-603500D1*
G1X405580Y-603000D1*
G1X411400Y-596500D2*
G1X411400Y-604000D1*
G1X410093Y-599000D2*
G1X412707Y-599000D1*
G1X417500Y-600625D2*
G1X420487Y-600625D1*
G1X420207Y-599750D1*
G1X419740Y-599250D1*
G1X419087Y-599000D1*
G1X418433Y-599125D1*
G1X417873Y-599500D1*
G1X417500Y-600375D1*
G1X417313Y-601125D1*
G1X417313Y-601875D1*
G1X417500Y-602625D1*
G1X417967Y-603375D1*
G1X418527Y-603875D1*
G1X419180Y-604000D1*
G1X419833Y-603750D1*
G1X420487Y-603000D1*
G1X505380Y-645800D2*
G1X505380Y-640800D1*
G1X505380Y-641675D2*
G1X505007Y-641175D1*
G1X504447Y-640925D1*
G1X503793Y-640800D1*
G1X503140Y-641050D1*
G1X502580Y-641550D1*
G1X502207Y-642300D1*
G1X502020Y-643300D1*
G1X502207Y-644300D1*
G1X502580Y-645050D1*
G1X503140Y-645550D1*
G1X503793Y-645800D1*
G1X504447Y-645675D1*
G1X505007Y-645300D1*
G1X505380Y-644800D1*
G1X512693Y-641425D2*
G1X512040Y-640925D1*
G1X511480Y-640800D1*
G1X510733Y-641050D1*
G1X510173Y-641550D1*
G1X509800Y-642425D1*
G1X509707Y-643300D1*
G1X509800Y-644175D1*
G1X510173Y-644925D1*
G1X510733Y-645550D1*
G1X511480Y-645800D1*
G1X512133Y-645550D1*
G1X512693Y-645050D1*
G1X520193Y-641425D2*
G1X519540Y-640925D1*
G1X518980Y-640800D1*
G1X518233Y-641050D1*
G1X517673Y-641550D1*
G1X517300Y-642425D1*
G1X517207Y-643300D1*
G1X517300Y-644175D1*
G1X517673Y-644925D1*
G1X518233Y-645550D1*
G1X518980Y-645800D1*
G1X519633Y-645550D1*
G1X520193Y-645050D1*
G1X524613Y-640800D2*
G1X524613Y-644300D1*
G1X524987Y-645175D1*
G1X525547Y-645675D1*
G1X526200Y-645800D1*
G1X526853Y-645675D1*
G1X527413Y-645175D1*
G1X527787Y-644300D1*
G1X527787Y-645800D2*
G1X527787Y-640800D1*
G1X532393Y-645800D2*
G1X532393Y-640800D1*
G1X532393Y-641800D2*
G1X532860Y-641300D1*
G1X533327Y-640925D1*
G1X533980Y-640800D1*
G1X534447Y-640925D1*
G1X535007Y-641300D1*
G1X542880Y-645800D2*
G1X542880Y-640800D1*
G1X542880Y-641675D2*
G1X542507Y-641175D1*
G1X541947Y-640925D1*
G1X541293Y-640800D1*
G1X540640Y-641050D1*
G1X540080Y-641550D1*
G1X539707Y-642300D1*
G1X539520Y-643300D1*
G1X539707Y-644300D1*
G1X540080Y-645050D1*
G1X540640Y-645550D1*
G1X541293Y-645800D1*
G1X541947Y-645675D1*
G1X542507Y-645300D1*
G1X542880Y-644800D1*
G1X548700Y-638300D2*
G1X548700Y-645800D1*
G1X547393Y-640800D2*
G1X550007Y-640800D1*
G1X554800Y-642425D2*
G1X557787Y-642425D1*
G1X557507Y-641550D1*
G1X557040Y-641050D1*
G1X556387Y-640800D1*
G1X555733Y-640925D1*
G1X555173Y-641300D1*
G1X554800Y-642175D1*
G1X554613Y-642925D1*
G1X554613Y-643675D1*
G1X554800Y-644425D1*
G1X555267Y-645175D1*
G1X555827Y-645675D1*
G1X556480Y-645800D1*
G1X557133Y-645550D1*
G1X557787Y-644800D1*
G1X504900Y-614300D2*
G1X504900Y-609300D1*
G1X504900Y-610675D2*
G1X505180Y-610050D1*
G1X505647Y-609550D1*
G1X506300Y-609300D1*
G1X506953Y-609550D1*
G1X507420Y-610050D1*
G1X507700Y-610675D1*
G1X507700Y-614300D1*
G1X507700Y-610675D2*
G1X507980Y-610050D1*
G1X508447Y-609550D1*
G1X509100Y-609300D1*
G1X509753Y-609550D1*
G1X510220Y-610050D1*
G1X510500Y-610800D1*
G1X510500Y-614300D1*
G1X515200Y-609300D2*
G1X515200Y-614300D1*
G1X515200Y-607300D2*
G1X515013Y-607175D1*
G1X515013Y-606925D1*
G1X515200Y-606800D1*
G1X515387Y-606925D1*
G1X515387Y-607175D1*
G1X515200Y-607300D1*
G1X524380Y-606800D2*
G1X524380Y-614300D1*
G1X524380Y-613175D2*
G1X524007Y-613800D1*
G1X523447Y-614175D1*
G1X522793Y-614300D1*
G1X522047Y-614050D1*
G1X521487Y-613425D1*
G1X521113Y-612675D1*
G1X521020Y-611800D1*
G1X521113Y-610925D1*
G1X521487Y-610175D1*
G1X522047Y-609550D1*
G1X522793Y-609300D1*
G1X523447Y-609425D1*
G1X523913Y-609675D1*
G1X524380Y-610175D1*
G1X530200Y-614300D2*
G1X530200Y-606800D1*
G1X536300Y-610925D2*
G1X539287Y-610925D1*
G1X539007Y-610050D1*
G1X538540Y-609550D1*
G1X537887Y-609300D1*
G1X537233Y-609425D1*
G1X536673Y-609800D1*
G1X536300Y-610675D1*
G1X536113Y-611425D1*
G1X536113Y-612175D1*
G1X536300Y-612925D1*
G1X536767Y-613675D1*
G1X537327Y-614175D1*
G1X537980Y-614300D1*
G1X538633Y-614050D1*
G1X539287Y-613300D1*
G1X503700Y-582800D2*
G1X503700Y-575300D1*
G1X511200Y-577800D2*
G1X511200Y-582800D1*
G1X511200Y-575800D2*
G1X511013Y-575675D1*
G1X511013Y-575425D1*
G1X511200Y-575300D1*
G1X511387Y-575425D1*
G1X511387Y-575675D1*
G1X511200Y-575800D1*
G1X517113Y-582800D2*
G1X517113Y-577800D1*
G1X517113Y-579050D2*
G1X517487Y-578425D1*
G1X518047Y-577925D1*
G1X518793Y-577800D1*
G1X519447Y-577925D1*
G1X520007Y-578425D1*
G1X520287Y-579300D1*
G1X520287Y-582800D1*
G1X524800Y-579425D2*
G1X527787Y-579425D1*
G1X527507Y-578550D1*
G1X527040Y-578050D1*
G1X526387Y-577800D1*
G1X525733Y-577925D1*
G1X525173Y-578300D1*
G1X524800Y-579175D1*
G1X524613Y-579925D1*
G1X524613Y-580675D1*
G1X524800Y-581425D1*
G1X525267Y-582175D1*
G1X525827Y-582675D1*
G1X526480Y-582800D1*
G1X527133Y-582550D1*
G1X527787Y-581800D1*
G1X535380Y-582800D2*
G1X535380Y-577800D1*
G1X535380Y-578675D2*
G1X535007Y-578175D1*
G1X534447Y-577925D1*
G1X533793Y-577800D1*
G1X533140Y-578050D1*
G1X532580Y-578550D1*
G1X532207Y-579300D1*
G1X532020Y-580300D1*
G1X532207Y-581300D1*
G1X532580Y-582050D1*
G1X533140Y-582550D1*
G1X533793Y-582800D1*
G1X534447Y-582675D1*
G1X535007Y-582300D1*
G1X535380Y-581800D1*
G1X539893Y-582800D2*
G1X539893Y-577800D1*
G1X539893Y-578800D2*
G1X540360Y-578300D1*
G1X540827Y-577925D1*
G1X541480Y-577800D1*
G1X541947Y-577925D1*
G1X542507Y-578300D1*
G1X496647Y-475100D2*
G1X496647Y-467600D1*
G1X498513Y-467600D1*
G1X499260Y-467975D1*
G1X499820Y-468475D1*
G1X500287Y-469225D1*
G1X500660Y-470100D1*
G1X500753Y-471350D1*
G1X500660Y-472600D1*
G1X500287Y-473475D1*
G1X499820Y-474225D1*
G1X499260Y-474725D1*
G1X498513Y-475100D1*
G1X496647Y-475100D1*
G1X504800Y-471725D2*
G1X507787Y-471725D1*
G1X507507Y-470850D1*
G1X507040Y-470350D1*
G1X506387Y-470100D1*
G1X505733Y-470225D1*
G1X505173Y-470600D1*
G1X504800Y-471475D1*
G1X504613Y-472225D1*
G1X504613Y-472975D1*
G1X504800Y-473725D1*
G1X505267Y-474475D1*
G1X505827Y-474975D1*
G1X506480Y-475100D1*
G1X507133Y-474850D1*
G1X507787Y-474100D1*
G1X512300Y-474225D2*
G1X512767Y-474725D1*
G1X513420Y-475100D1*
G1X513980Y-475100D1*
G1X514540Y-474850D1*
G1X514913Y-474475D1*
G1X515100Y-473975D1*
G1X515007Y-473225D1*
G1X514633Y-472850D1*
G1X512953Y-472100D1*
G1X512580Y-471225D1*
G1X512767Y-470600D1*
G1X513140Y-470225D1*
G1X513700Y-470100D1*
G1X514260Y-470225D1*
G1X514820Y-470600D1*
G1X522693Y-470725D2*
G1X522040Y-470225D1*
G1X521480Y-470100D1*
G1X520733Y-470350D1*
G1X520173Y-470850D1*
G1X519800Y-471725D1*
G1X519707Y-472600D1*
G1X519800Y-473475D1*
G1X520173Y-474225D1*
G1X520733Y-474850D1*
G1X521480Y-475100D1*
G1X522133Y-474850D1*
G1X522693Y-474350D1*
G1X527393Y-475100D2*
G1X527393Y-470100D1*
G1X527393Y-471100D2*
G1X527860Y-470600D1*
G1X528327Y-470225D1*
G1X528980Y-470100D1*
G1X529447Y-470225D1*
G1X530007Y-470600D1*
G1X536200Y-470100D2*
G1X536200Y-475100D1*
G1X536200Y-468100D2*
G1X536013Y-467975D1*
G1X536013Y-467725D1*
G1X536200Y-467600D1*
G1X536387Y-467725D1*
G1X536387Y-467975D1*
G1X536200Y-468100D1*
G1X542020Y-477600D2*
G1X542020Y-470100D1*
G1X542020Y-471225D2*
G1X542487Y-470600D1*
G1X542953Y-470225D1*
G1X543700Y-470100D1*
G1X544353Y-470225D1*
G1X545007Y-470850D1*
G1X545287Y-471725D1*
G1X545380Y-472600D1*
G1X545287Y-473475D1*
G1X545007Y-474350D1*
G1X544447Y-474850D1*
G1X543700Y-475100D1*
G1X543047Y-474975D1*
G1X542393Y-474600D1*
G1X542020Y-474100D1*
G1X551200Y-467600D2*
G1X551200Y-475100D1*
G1X549893Y-470100D2*
G1X552507Y-470100D1*
G1X558700Y-470100D2*
G1X558700Y-475100D1*
G1X558700Y-468100D2*
G1X558513Y-467975D1*
G1X558513Y-467725D1*
G1X558700Y-467600D1*
G1X558887Y-467725D1*
G1X558887Y-467975D1*
G1X558700Y-468100D1*
G1X566200Y-475100D2*
G1X565640Y-474975D1*
G1X565080Y-474475D1*
G1X564707Y-473600D1*
G1X564520Y-472600D1*
G1X564707Y-471600D1*
G1X565080Y-470725D1*
G1X565640Y-470225D1*
G1X566200Y-470100D1*
G1X566760Y-470225D1*
G1X567320Y-470725D1*
G1X567693Y-471600D1*
G1X567787Y-472600D1*
G1X567693Y-473600D1*
G1X567320Y-474475D1*
G1X566760Y-474975D1*
G1X566200Y-475100D1*
G1X572113Y-475100D2*
G1X572113Y-470100D1*
G1X572113Y-471350D2*
G1X572487Y-470725D1*
G1X573047Y-470225D1*
G1X573793Y-470100D1*
G1X574447Y-470225D1*
G1X575007Y-470725D1*
G1X575287Y-471600D1*
G1X575287Y-475100D1*
G1X530200Y-533500D2*
G1X530200Y-541000D1*
G1X528053Y-533500D2*
G1X532347Y-533500D1*
G1X537700Y-541000D2*
G1X536953Y-540875D1*
G1X536300Y-540375D1*
G1X535740Y-539625D1*
G1X535367Y-538750D1*
G1X535180Y-537750D1*
G1X535180Y-536750D1*
G1X535367Y-535750D1*
G1X535740Y-534875D1*
G1X536300Y-534125D1*
G1X536953Y-533625D1*
G1X537700Y-533500D1*
G1X538447Y-533625D1*
G1X539100Y-534125D1*
G1X539660Y-534875D1*
G1X540033Y-535750D1*
G1X540220Y-536750D1*
G1X540220Y-537750D1*
G1X540033Y-538750D1*
G1X539660Y-539625D1*
G1X539100Y-540375D1*
G1X538447Y-540875D1*
G1X537700Y-541000D1*
G1X543333Y-533500D2*
G1X543333Y-541000D1*
G1X547067Y-541000D1*
G1X554567Y-541000D2*
G1X550833Y-541000D1*
G1X550833Y-533500D1*
G1X554567Y-533500D1*
G1X553073Y-537125D2*
G1X550833Y-537125D1*
G1X558333Y-541000D2*
G1X558333Y-533500D1*
G1X560667Y-533500D1*
G1X561413Y-533875D1*
G1X561880Y-534375D1*
G1X562067Y-535375D1*
G1X561880Y-536375D1*
G1X561320Y-537000D1*
G1X560667Y-537375D1*
G1X558333Y-537375D1*
G1X560667Y-537375D2*
G1X562067Y-541000D1*
G1X565367Y-541000D2*
G1X567700Y-533500D1*
G1X570033Y-541000D1*
G1X569193Y-538375D2*
G1X566207Y-538375D1*
G1X573053Y-541000D2*
G1X573053Y-533500D1*
G1X577347Y-541000D1*
G1X577347Y-533500D1*
G1X584753Y-534125D2*
G1X584193Y-533750D1*
G1X583540Y-533500D1*
G1X582793Y-533500D1*
G1X581953Y-533875D1*
G1X581300Y-534500D1*
G1X580833Y-535250D1*
G1X580460Y-536500D1*
G1X580367Y-537625D1*
G1X580553Y-538750D1*
G1X580833Y-539500D1*
G1X581393Y-540250D1*
G1X582047Y-540750D1*
G1X582700Y-541000D1*
G1X583353Y-541000D1*
G1X584007Y-540750D1*
G1X584567Y-540375D1*
G1X585033Y-539875D1*
G1X592067Y-541000D2*
G1X588333Y-541000D1*
G1X588333Y-533500D1*
G1X592067Y-533500D1*
G1X590573Y-537125D2*
G1X588333Y-537125D1*
G1X603147Y-533500D2*
G1X603147Y-538875D1*
G1X603520Y-540000D1*
G1X604267Y-540750D1*
G1X605200Y-541000D1*
G1X606133Y-540750D1*
G1X606880Y-540000D1*
G1X607253Y-538875D1*
G1X607253Y-533500D1*
G1X610553Y-541000D2*
G1X610553Y-533500D1*
G1X614847Y-541000D1*
G1X614847Y-533500D1*
G1X618333Y-533500D2*
G1X618333Y-541000D1*
G1X622067Y-541000D1*
G1X629567Y-541000D2*
G1X625833Y-541000D1*
G1X625833Y-533500D1*
G1X629567Y-533500D1*
G1X628073Y-537125D2*
G1X625833Y-537125D1*
G1X633240Y-540000D2*
G1X633987Y-540625D1*
G1X634827Y-541000D1*
G1X635573Y-541000D1*
G1X636320Y-540625D1*
G1X636880Y-540000D1*
G1X637160Y-539125D1*
G1X636973Y-538250D1*
G1X636507Y-537500D1*
G1X635667Y-537000D1*
G1X634547Y-536750D1*
G1X633893Y-536250D1*
G1X633613Y-535375D1*
G1X633800Y-534500D1*
G1X634267Y-533875D1*
G1X634920Y-533500D1*
G1X635573Y-533500D1*
G1X636227Y-533750D1*
G1X636787Y-534375D1*
G1X640740Y-540000D2*
G1X641487Y-540625D1*
G1X642327Y-541000D1*
G1X643073Y-541000D1*
G1X643820Y-540625D1*
G1X644380Y-540000D1*
G1X644660Y-539125D1*
G1X644473Y-538250D1*
G1X644007Y-537500D1*
G1X643167Y-537000D1*
G1X642047Y-536750D1*
G1X641393Y-536250D1*
G1X641113Y-535375D1*
G1X641300Y-534500D1*
G1X641767Y-533875D1*
G1X642420Y-533500D1*
G1X643073Y-533500D1*
G1X643727Y-533750D1*
G1X644287Y-534375D1*
G1X655553Y-541000D2*
G1X655553Y-533500D1*
G1X659847Y-541000D1*
G1X659847Y-533500D1*
G1X665200Y-541000D2*
G1X664453Y-540875D1*
G1X663800Y-540375D1*
G1X663240Y-539625D1*
G1X662867Y-538750D1*
G1X662680Y-537750D1*
G1X662680Y-536750D1*
G1X662867Y-535750D1*
G1X663240Y-534875D1*
G1X663800Y-534125D1*
G1X664453Y-533625D1*
G1X665200Y-533500D1*
G1X665947Y-533625D1*
G1X666600Y-534125D1*
G1X667160Y-534875D1*
G1X667533Y-535750D1*
G1X667720Y-536750D1*
G1X667720Y-537750D1*
G1X667533Y-538750D1*
G1X667160Y-539625D1*
G1X666600Y-540375D1*
G1X665947Y-540875D1*
G1X665200Y-541000D1*
G1X672700Y-533500D2*
G1X672700Y-541000D1*
G1X670553Y-533500D2*
G1X674847Y-533500D1*
G1X682067Y-541000D2*
G1X678333Y-541000D1*
G1X678333Y-533500D1*
G1X682067Y-533500D1*
G1X680573Y-537125D2*
G1X678333Y-537125D1*
G1X685647Y-541000D2*
G1X685647Y-533500D1*
G1X687513Y-533500D1*
G1X688260Y-533875D1*
G1X688820Y-534375D1*
G1X689287Y-535125D1*
G1X689660Y-536000D1*
G1X689753Y-537250D1*
G1X689660Y-538500D1*
G1X689287Y-539375D1*
G1X688820Y-540125D1*
G1X688260Y-540625D1*
G1X687513Y-541000D1*
G1X685647Y-541000D1*
G1X566088Y-643700D2*
G1X567968Y-643700D1*
G1X566950Y-642335D2*
G1X566950Y-645065D1*
G1X573250Y-639500D2*
G1X572623Y-639710D1*
G1X572153Y-640235D1*
G1X571840Y-640865D1*
G1X571605Y-641705D1*
G1X571527Y-642650D1*
G1X571605Y-643595D1*
G1X571840Y-644435D1*
G1X572153Y-645065D1*
G1X572623Y-645590D1*
G1X573250Y-645800D1*
G1X573877Y-645590D1*
G1X574347Y-645065D1*
G1X574660Y-644435D1*
G1X574895Y-643595D1*
G1X574973Y-642650D1*
G1X574895Y-641705D1*
G1X574660Y-640865D1*
G1X574347Y-640235D1*
G1X573877Y-639710D1*
G1X573250Y-639500D1*
G1X579550Y-646010D2*
G1X579393Y-645905D1*
G1X579393Y-645695D1*
G1X579550Y-645590D1*
G1X579707Y-645695D1*
G1X579707Y-645905D1*
G1X579550Y-646010D1*
G1X585850Y-639500D2*
G1X585223Y-639710D1*
G1X584753Y-640235D1*
G1X584440Y-640865D1*
G1X584205Y-641705D1*
G1X584127Y-642650D1*
G1X584205Y-643595D1*
G1X584440Y-644435D1*
G1X584753Y-645065D1*
G1X585223Y-645590D1*
G1X585850Y-645800D1*
G1X586477Y-645590D1*
G1X586947Y-645065D1*
G1X587260Y-644435D1*
G1X587495Y-643595D1*
G1X587573Y-642650D1*
G1X587495Y-641705D1*
G1X587260Y-640865D1*
G1X586947Y-640235D1*
G1X586477Y-639710D1*
G1X585850Y-639500D1*
G1X590427Y-644855D2*
G1X590897Y-645380D1*
G1X591445Y-645695D1*
G1X592150Y-645800D1*
G1X592855Y-645590D1*
G1X593403Y-645170D1*
G1X593795Y-644435D1*
G1X593873Y-643595D1*
G1X593717Y-642755D1*
G1X593325Y-642230D1*
G1X592777Y-641810D1*
G1X592228Y-641705D1*
G1X591680Y-641810D1*
G1X590975Y-642230D1*
G1X591210Y-639500D1*
G1X593325Y-639500D1*
G1X565932Y-647700D2*
G1X567968Y-647700D1*
G1X569232Y-616200D2*
G1X571268Y-616200D1*
G1X569388Y-612200D2*
G1X571268Y-612200D1*
G1X570250Y-610835D2*
G1X570250Y-613565D1*
G1X576550Y-608000D2*
G1X575923Y-608210D1*
G1X575453Y-608735D1*
G1X575140Y-609365D1*
G1X574905Y-610205D1*
G1X574827Y-611150D1*
G1X574905Y-612095D1*
G1X575140Y-612935D1*
G1X575453Y-613565D1*
G1X575923Y-614090D1*
G1X576550Y-614300D1*
G1X577177Y-614090D1*
G1X577647Y-613565D1*
G1X577960Y-612935D1*
G1X578195Y-612095D1*
G1X578273Y-611150D1*
G1X578195Y-610205D1*
G1X577960Y-609365D1*
G1X577647Y-608735D1*
G1X577177Y-608210D1*
G1X576550Y-608000D1*
G1X582850Y-614510D2*
G1X582693Y-614405D1*
G1X582693Y-614195D1*
G1X582850Y-614090D1*
G1X583007Y-614195D1*
G1X583007Y-614405D1*
G1X582850Y-614510D1*
G1X589150Y-614300D2*
G1X589150Y-608000D1*
G1X588210Y-609260D1*
G1X588210Y-614300D2*
G1X590090Y-614300D1*
G1X575717Y-586800D2*
G1X572583Y-584700D1*
G1X575717Y-582600D1*
G1X580450Y-586800D2*
G1X580450Y-580500D1*
G1X579510Y-581760D1*
G1X579510Y-586800D2*
G1X581390Y-586800D1*
G1X586750Y-580500D2*
G1X586123Y-580710D1*
G1X585653Y-581235D1*
G1X585340Y-581865D1*
G1X585105Y-582705D1*
G1X585027Y-583650D1*
G1X585105Y-584595D1*
G1X585340Y-585435D1*
G1X585653Y-586065D1*
G1X586123Y-586590D1*
G1X586750Y-586800D1*
G1X587377Y-586590D1*
G1X587847Y-586065D1*
G1X588160Y-585435D1*
G1X588395Y-584595D1*
G1X588473Y-583650D1*
G1X588395Y-582705D1*
G1X588160Y-581865D1*
G1X587847Y-581235D1*
G1X587377Y-580710D1*
G1X586750Y-580500D1*
G1X582050Y-568700D2*
G1X581423Y-568910D1*
G1X580953Y-569435D1*
G1X580640Y-570065D1*
G1X580405Y-570905D1*
G1X580327Y-571850D1*
G1X580405Y-572795D1*
G1X580640Y-573635D1*
G1X580953Y-574265D1*
G1X581423Y-574790D1*
G1X582050Y-575000D1*
G1X582677Y-574790D1*
G1X583147Y-574265D1*
G1X583460Y-573635D1*
G1X583695Y-572795D1*
G1X583773Y-571850D1*
G1X583695Y-570905D1*
G1X583460Y-570065D1*
G1X583147Y-569435D1*
G1X582677Y-568910D1*
G1X582050Y-568700D1*
G1X583247Y-549200D2*
G1X583247Y-554575D1*
G1X583620Y-555700D1*
G1X584367Y-556450D1*
G1X585300Y-556700D1*
G1X586233Y-556450D1*
G1X586980Y-555700D1*
G1X587353Y-554575D1*
G1X587353Y-549200D1*
G1X590653Y-556700D2*
G1X590653Y-549200D1*
G1X594947Y-556700D1*
G1X594947Y-549200D1*
G1X599180Y-549200D2*
G1X601420Y-549200D1*
G1X600300Y-549200D2*
G1X600300Y-556700D1*
G1X599180Y-556700D2*
G1X601420Y-556700D1*
G1X607800Y-549200D2*
G1X607800Y-556700D1*
G1X605653Y-549200D2*
G1X609947Y-549200D1*
G1X614087Y-555325D2*
G1X616513Y-555325D1*
G1X616513Y-553075D2*
G1X614087Y-553075D1*
G1X620373Y-556700D2*
G1X620373Y-549200D1*
G1X622800Y-555450D1*
G1X625227Y-549200D1*
G1X625227Y-556700D1*
G1X627873Y-556700D2*
G1X627873Y-549200D1*
G1X630300Y-555450D1*
G1X632727Y-549200D1*
G1X632727Y-556700D1*
G1X604788Y-643700D2*
G1X606668Y-643700D1*
G1X605650Y-642335D2*
G1X605650Y-645065D1*
G1X611950Y-639500D2*
G1X611323Y-639710D1*
G1X610853Y-640235D1*
G1X610540Y-640865D1*
G1X610305Y-641705D1*
G1X610227Y-642650D1*
G1X610305Y-643595D1*
G1X610540Y-644435D1*
G1X610853Y-645065D1*
G1X611323Y-645590D1*
G1X611950Y-645800D1*
G1X612577Y-645590D1*
G1X613047Y-645065D1*
G1X613360Y-644435D1*
G1X613595Y-643595D1*
G1X613673Y-642650D1*
G1X613595Y-641705D1*
G1X613360Y-640865D1*
G1X613047Y-640235D1*
G1X612577Y-639710D1*
G1X611950Y-639500D1*
G1X618250Y-646010D2*
G1X618093Y-645905D1*
G1X618093Y-645695D1*
G1X618250Y-645590D1*
G1X618407Y-645695D1*
G1X618407Y-645905D1*
G1X618250Y-646010D1*
G1X624550Y-645800D2*
G1X624550Y-639500D1*
G1X623610Y-640760D1*
G1X623610Y-645800D2*
G1X625490Y-645800D1*
G1X604632Y-647700D2*
G1X606668Y-647700D1*
G1X604632Y-616200D2*
G1X606668Y-616200D1*
G1X604788Y-612200D2*
G1X606668Y-612200D1*
G1X605650Y-610835D2*
G1X605650Y-613565D1*
G1X611950Y-608000D2*
G1X611323Y-608210D1*
G1X610853Y-608735D1*
G1X610540Y-609365D1*
G1X610305Y-610205D1*
G1X610227Y-611150D1*
G1X610305Y-612095D1*
G1X610540Y-612935D1*
G1X610853Y-613565D1*
G1X611323Y-614090D1*
G1X611950Y-614300D1*
G1X612577Y-614090D1*
G1X613047Y-613565D1*
G1X613360Y-612935D1*
G1X613595Y-612095D1*
G1X613673Y-611150D1*
G1X613595Y-610205D1*
G1X613360Y-609365D1*
G1X613047Y-608735D1*
G1X612577Y-608210D1*
G1X611950Y-608000D1*
G1X618250Y-614510D2*
G1X618093Y-614405D1*
G1X618093Y-614195D1*
G1X618250Y-614090D1*
G1X618407Y-614195D1*
G1X618407Y-614405D1*
G1X618250Y-614510D1*
G1X623062Y-609050D2*
G1X623532Y-608420D1*
G1X624080Y-608105D1*
G1X624707Y-608000D1*
G1X625490Y-608210D1*
G1X626038Y-608735D1*
G1X626195Y-609365D1*
G1X626117Y-609995D1*
G1X625803Y-610520D1*
G1X624237Y-611570D1*
G1X623532Y-612305D1*
G1X623062Y-613355D1*
G1X622905Y-614300D1*
G1X626195Y-614300D1*
G1X607983Y-575000D2*
G1X611117Y-572900D1*
G1X607983Y-570800D1*
G1X615850Y-575000D2*
G1X615850Y-568700D1*
G1X614910Y-569960D1*
G1X614910Y-575000D2*
G1X616790Y-575000D1*
G1X622150Y-568700D2*
G1X621523Y-568910D1*
G1X621053Y-569435D1*
G1X620740Y-570065D1*
G1X620505Y-570905D1*
G1X620427Y-571850D1*
G1X620505Y-572795D1*
G1X620740Y-573635D1*
G1X621053Y-574265D1*
G1X621523Y-574790D1*
G1X622150Y-575000D1*
G1X622777Y-574790D1*
G1X623247Y-574265D1*
G1X623560Y-573635D1*
G1X623795Y-572795D1*
G1X623873Y-571850D1*
G1X623795Y-570905D1*
G1X623560Y-570065D1*
G1X623247Y-569435D1*
G1X622777Y-568910D1*
G1X622150Y-568700D1*
G1X611117Y-586800D2*
G1X607983Y-584700D1*
G1X611117Y-582600D1*
G1X614127Y-585855D2*
G1X614597Y-586380D1*
G1X615145Y-586695D1*
G1X615850Y-586800D1*
G1X616555Y-586590D1*
G1X617103Y-586170D1*
G1X617495Y-585435D1*
G1X617573Y-584595D1*
G1X617417Y-583755D1*
G1X617025Y-583230D1*
G1X616477Y-582810D1*
G1X615928Y-582705D1*
G1X615380Y-582810D1*
G1X614675Y-583230D1*
G1X614910Y-580500D1*
G1X617025Y-580500D1*
G1X622150Y-580500D2*
G1X621523Y-580710D1*
G1X621053Y-581235D1*
G1X620740Y-581865D1*
G1X620505Y-582705D1*
G1X620427Y-583650D1*
G1X620505Y-584595D1*
G1X620740Y-585435D1*
G1X621053Y-586065D1*
G1X621523Y-586590D1*
G1X622150Y-586800D1*
G1X622777Y-586590D1*
G1X623247Y-586065D1*
G1X623560Y-585435D1*
G1X623795Y-584595D1*
G1X623873Y-583650D1*
G1X623795Y-582705D1*
G1X623560Y-581865D1*
G1X623247Y-581235D1*
G1X622777Y-580710D1*
G1X622150Y-580500D1*
G1X637688Y-643700D2*
G1X639568Y-643700D1*
G1X638550Y-642335D2*
G1X638550Y-645065D1*
G1X644850Y-639500D2*
G1X644223Y-639710D1*
G1X643753Y-640235D1*
G1X643440Y-640865D1*
G1X643205Y-641705D1*
G1X643127Y-642650D1*
G1X643205Y-643595D1*
G1X643440Y-644435D1*
G1X643753Y-645065D1*
G1X644223Y-645590D1*
G1X644850Y-645800D1*
G1X645477Y-645590D1*
G1X645947Y-645065D1*
G1X646260Y-644435D1*
G1X646495Y-643595D1*
G1X646573Y-642650D1*
G1X646495Y-641705D1*
G1X646260Y-640865D1*
G1X645947Y-640235D1*
G1X645477Y-639710D1*
G1X644850Y-639500D1*
G1X651150Y-646010D2*
G1X650993Y-645905D1*
G1X650993Y-645695D1*
G1X651150Y-645590D1*
G1X651307Y-645695D1*
G1X651307Y-645905D1*
G1X651150Y-646010D1*
G1X657450Y-645800D2*
G1X657450Y-639500D1*
G1X656510Y-640760D1*
G1X656510Y-645800D2*
G1X658390Y-645800D1*
G1X662027Y-644855D2*
G1X662497Y-645380D1*
G1X663045Y-645695D1*
G1X663750Y-645800D1*
G1X664455Y-645590D1*
G1X665003Y-645170D1*
G1X665395Y-644435D1*
G1X665473Y-643595D1*
G1X665317Y-642755D1*
G1X664925Y-642230D1*
G1X664377Y-641810D1*
G1X663828Y-641705D1*
G1X663280Y-641810D1*
G1X662575Y-642230D1*
G1X662810Y-639500D1*
G1X664925Y-639500D1*
G1X637532Y-647700D2*
G1X639568Y-647700D1*
G1X640032Y-616200D2*
G1X642068Y-616200D1*
G1X640188Y-612200D2*
G1X642068Y-612200D1*
G1X641050Y-610835D2*
G1X641050Y-613565D1*
G1X647350Y-608000D2*
G1X646723Y-608210D1*
G1X646253Y-608735D1*
G1X645940Y-609365D1*
G1X645705Y-610205D1*
G1X645627Y-611150D1*
G1X645705Y-612095D1*
G1X645940Y-612935D1*
G1X646253Y-613565D1*
G1X646723Y-614090D1*
G1X647350Y-614300D1*
G1X647977Y-614090D1*
G1X648447Y-613565D1*
G1X648760Y-612935D1*
G1X648995Y-612095D1*
G1X649073Y-611150D1*
G1X648995Y-610205D1*
G1X648760Y-609365D1*
G1X648447Y-608735D1*
G1X647977Y-608210D1*
G1X647350Y-608000D1*
G1X653650Y-614510D2*
G1X653493Y-614405D1*
G1X653493Y-614195D1*
G1X653650Y-614090D1*
G1X653807Y-614195D1*
G1X653807Y-614405D1*
G1X653650Y-614510D1*
G1X658227Y-613040D2*
G1X658697Y-613775D1*
G1X659323Y-614195D1*
G1X660028Y-614300D1*
G1X660655Y-614195D1*
G1X661282Y-613670D1*
G1X661673Y-613040D1*
G1X661752Y-612410D1*
G1X661595Y-611675D1*
G1X661047Y-611150D1*
G1X660498Y-610940D1*
G1X659793Y-610940D1*
G1X660498Y-610940D2*
G1X660968Y-610625D1*
G1X661360Y-610100D1*
G1X661517Y-609470D1*
G1X661360Y-608840D1*
G1X660968Y-608315D1*
G1X660263Y-608000D1*
G1X659558Y-608105D1*
G1X658853Y-608525D1*
G1X643483Y-575000D2*
G1X646617Y-572900D1*
G1X643483Y-570800D1*
G1X649627Y-574055D2*
G1X650097Y-574580D1*
G1X650645Y-574895D1*
G1X651350Y-575000D1*
G1X652055Y-574790D1*
G1X652603Y-574370D1*
G1X652995Y-573635D1*
G1X653073Y-572795D1*
G1X652917Y-571955D1*
G1X652525Y-571430D1*
G1X651977Y-571010D1*
G1X651428Y-570905D1*
G1X650880Y-571010D1*
G1X650175Y-571430D1*
G1X650410Y-568700D1*
G1X652525Y-568700D1*
G1X657650Y-568700D2*
G1X657023Y-568910D1*
G1X656553Y-569435D1*
G1X656240Y-570065D1*
G1X656005Y-570905D1*
G1X655927Y-571850D1*
G1X656005Y-572795D1*
G1X656240Y-573635D1*
G1X656553Y-574265D1*
G1X657023Y-574790D1*
G1X657650Y-575000D1*
G1X658277Y-574790D1*
G1X658747Y-574265D1*
G1X659060Y-573635D1*
G1X659295Y-572795D1*
G1X659373Y-571850D1*
G1X659295Y-570905D1*
G1X659060Y-570065D1*
G1X658747Y-569435D1*
G1X658277Y-568910D1*
G1X657650Y-568700D1*
G1X642617Y-586800D2*
G1X639483Y-584700D1*
G1X642617Y-582600D1*
G1X645862Y-581550D2*
G1X646332Y-580920D1*
G1X646880Y-580605D1*
G1X647507Y-580500D1*
G1X648290Y-580710D1*
G1X648838Y-581235D1*
G1X648995Y-581865D1*
G1X648917Y-582495D1*
G1X648603Y-583020D1*
G1X647037Y-584070D1*
G1X646332Y-584805D1*
G1X645862Y-585855D1*
G1X645705Y-586800D1*
G1X648995Y-586800D1*
G1X653650Y-580500D2*
G1X653023Y-580710D1*
G1X652553Y-581235D1*
G1X652240Y-581865D1*
G1X652005Y-582705D1*
G1X651927Y-583650D1*
G1X652005Y-584595D1*
G1X652240Y-585435D1*
G1X652553Y-586065D1*
G1X653023Y-586590D1*
G1X653650Y-586800D1*
G1X654277Y-586590D1*
G1X654747Y-586065D1*
G1X655060Y-585435D1*
G1X655295Y-584595D1*
G1X655373Y-583650D1*
G1X655295Y-582705D1*
G1X655060Y-581865D1*
G1X654747Y-581235D1*
G1X654277Y-580710D1*
G1X653650Y-580500D1*
G1X659950Y-580500D2*
G1X659323Y-580710D1*
G1X658853Y-581235D1*
G1X658540Y-581865D1*
G1X658305Y-582705D1*
G1X658227Y-583650D1*
G1X658305Y-584595D1*
G1X658540Y-585435D1*
G1X658853Y-586065D1*
G1X659323Y-586590D1*
G1X659950Y-586800D1*
G1X660577Y-586590D1*
G1X661047Y-586065D1*
G1X661360Y-585435D1*
G1X661595Y-584595D1*
G1X661673Y-583650D1*
G1X661595Y-582705D1*
G1X661360Y-581865D1*
G1X661047Y-581235D1*
G1X660577Y-580710D1*
G1X659950Y-580500D1*
G1X671888Y-643700D2*
G1X673768Y-643700D1*
G1X672750Y-642335D2*
G1X672750Y-645065D1*
G1X679050Y-639500D2*
G1X678423Y-639710D1*
G1X677953Y-640235D1*
G1X677640Y-640865D1*
G1X677405Y-641705D1*
G1X677327Y-642650D1*
G1X677405Y-643595D1*
G1X677640Y-644435D1*
G1X677953Y-645065D1*
G1X678423Y-645590D1*
G1X679050Y-645800D1*
G1X679677Y-645590D1*
G1X680147Y-645065D1*
G1X680460Y-644435D1*
G1X680695Y-643595D1*
G1X680773Y-642650D1*
G1X680695Y-641705D1*
G1X680460Y-640865D1*
G1X680147Y-640235D1*
G1X679677Y-639710D1*
G1X679050Y-639500D1*
G1X685350Y-646010D2*
G1X685193Y-645905D1*
G1X685193Y-645695D1*
G1X685350Y-645590D1*
G1X685507Y-645695D1*
G1X685507Y-645905D1*
G1X685350Y-646010D1*
G1X690162Y-640550D2*
G1X690632Y-639920D1*
G1X691180Y-639605D1*
G1X691807Y-639500D1*
G1X692590Y-639710D1*
G1X693138Y-640235D1*
G1X693295Y-640865D1*
G1X693217Y-641495D1*
G1X692903Y-642020D1*
G1X691337Y-643070D1*
G1X690632Y-643805D1*
G1X690162Y-644855D1*
G1X690005Y-645800D1*
G1X693295Y-645800D1*
G1X696227Y-644855D2*
G1X696697Y-645380D1*
G1X697245Y-645695D1*
G1X697950Y-645800D1*
G1X698655Y-645590D1*
G1X699203Y-645170D1*
G1X699595Y-644435D1*
G1X699673Y-643595D1*
G1X699517Y-642755D1*
G1X699125Y-642230D1*
G1X698577Y-641810D1*
G1X698028Y-641705D1*
G1X697480Y-641810D1*
G1X696775Y-642230D1*
G1X697010Y-639500D1*
G1X699125Y-639500D1*
G1X671732Y-647700D2*
G1X673768Y-647700D1*
G1X675532Y-616200D2*
G1X677568Y-616200D1*
G1X675688Y-612200D2*
G1X677568Y-612200D1*
G1X676550Y-610835D2*
G1X676550Y-613565D1*
G1X682850Y-608000D2*
G1X682223Y-608210D1*
G1X681753Y-608735D1*
G1X681440Y-609365D1*
G1X681205Y-610205D1*
G1X681127Y-611150D1*
G1X681205Y-612095D1*
G1X681440Y-612935D1*
G1X681753Y-613565D1*
G1X682223Y-614090D1*
G1X682850Y-614300D1*
G1X683477Y-614090D1*
G1X683947Y-613565D1*
G1X684260Y-612935D1*
G1X684495Y-612095D1*
G1X684573Y-611150D1*
G1X684495Y-610205D1*
G1X684260Y-609365D1*
G1X683947Y-608735D1*
G1X683477Y-608210D1*
G1X682850Y-608000D1*
G1X689150Y-614510D2*
G1X688993Y-614405D1*
G1X688993Y-614195D1*
G1X689150Y-614090D1*
G1X689307Y-614195D1*
G1X689307Y-614405D1*
G1X689150Y-614510D1*
G1X693727Y-613355D2*
G1X694197Y-613880D1*
G1X694745Y-614195D1*
G1X695450Y-614300D1*
G1X696155Y-614090D1*
G1X696703Y-613670D1*
G1X697095Y-612935D1*
G1X697173Y-612095D1*
G1X697017Y-611255D1*
G1X696625Y-610730D1*
G1X696077Y-610310D1*
G1X695528Y-610205D1*
G1X694980Y-610310D1*
G1X694275Y-610730D1*
G1X694510Y-608000D1*
G1X696625Y-608000D1*
G1X674983Y-586800D2*
G1X678117Y-584700D1*
G1X674983Y-582600D1*
G1X681362Y-581550D2*
G1X681832Y-580920D1*
G1X682380Y-580605D1*
G1X683007Y-580500D1*
G1X683790Y-580710D1*
G1X684338Y-581235D1*
G1X684495Y-581865D1*
G1X684417Y-582495D1*
G1X684103Y-583020D1*
G1X682537Y-584070D1*
G1X681832Y-584805D1*
G1X681362Y-585855D1*
G1X681205Y-586800D1*
G1X684495Y-586800D1*
G1X689150Y-580500D2*
G1X688523Y-580710D1*
G1X688053Y-581235D1*
G1X687740Y-581865D1*
G1X687505Y-582705D1*
G1X687427Y-583650D1*
G1X687505Y-584595D1*
G1X687740Y-585435D1*
G1X688053Y-586065D1*
G1X688523Y-586590D1*
G1X689150Y-586800D1*
G1X689777Y-586590D1*
G1X690247Y-586065D1*
G1X690560Y-585435D1*
G1X690795Y-584595D1*
G1X690873Y-583650D1*
G1X690795Y-582705D1*
G1X690560Y-581865D1*
G1X690247Y-581235D1*
G1X689777Y-580710D1*
G1X689150Y-580500D1*
G1X695450Y-580500D2*
G1X694823Y-580710D1*
G1X694353Y-581235D1*
G1X694040Y-581865D1*
G1X693805Y-582705D1*
G1X693727Y-583650D1*
G1X693805Y-584595D1*
G1X694040Y-585435D1*
G1X694353Y-586065D1*
G1X694823Y-586590D1*
G1X695450Y-586800D1*
G1X696077Y-586590D1*
G1X696547Y-586065D1*
G1X696860Y-585435D1*
G1X697095Y-584595D1*
G1X697173Y-583650D1*
G1X697095Y-582705D1*
G1X696860Y-581865D1*
G1X696547Y-581235D1*
G1X696077Y-580710D1*
G1X695450Y-580500D1*
G1X709988Y-643700D2*
G1X711868Y-643700D1*
G1X710850Y-642335D2*
G1X710850Y-645065D1*
G1X715427Y-644540D2*
G1X715897Y-645275D1*
G1X716523Y-645695D1*
G1X717228Y-645800D1*
G1X717855Y-645695D1*
G1X718482Y-645170D1*
G1X718873Y-644540D1*
G1X718952Y-643910D1*
G1X718795Y-643175D1*
G1X718247Y-642650D1*
G1X717698Y-642440D1*
G1X716993Y-642440D1*
G1X717698Y-642440D2*
G1X718168Y-642125D1*
G1X718560Y-641600D1*
G1X718717Y-640970D1*
G1X718560Y-640340D1*
G1X718168Y-639815D1*
G1X717463Y-639500D1*
G1X716758Y-639605D1*
G1X716053Y-640025D1*
G1X723450Y-639500D2*
G1X722823Y-639710D1*
G1X722353Y-640235D1*
G1X722040Y-640865D1*
G1X721805Y-641705D1*
G1X721727Y-642650D1*
G1X721805Y-643595D1*
G1X722040Y-644435D1*
G1X722353Y-645065D1*
G1X722823Y-645590D1*
G1X723450Y-645800D1*
G1X724077Y-645590D1*
G1X724547Y-645065D1*
G1X724860Y-644435D1*
G1X725095Y-643595D1*
G1X725173Y-642650D1*
G1X725095Y-641705D1*
G1X724860Y-640865D1*
G1X724547Y-640235D1*
G1X724077Y-639710D1*
G1X723450Y-639500D1*
G1X709832Y-647700D2*
G1X711868Y-647700D1*
G1X714832Y-616200D2*
G1X716868Y-616200D1*
G1X714988Y-612200D2*
G1X716868Y-612200D1*
G1X715850Y-610835D2*
G1X715850Y-613565D1*
G1X722150Y-614300D2*
G1X722150Y-608000D1*
G1X721210Y-609260D1*
G1X721210Y-614300D2*
G1X723090Y-614300D1*
G1X709992Y-575000D2*
G1X711950Y-568700D1*
G1X713908Y-575000D1*
G1X713203Y-572795D2*
G1X710697Y-572795D1*
G1X716448Y-575000D2*
G1X716448Y-568700D1*
G1X720052Y-575000D1*
G1X720052Y-568700D1*
G1X725020Y-571850D2*
G1X726587Y-571850D1*
G1X726587Y-573740D1*
G1X726117Y-574370D1*
G1X725568Y-574790D1*
G1X724785Y-575000D1*
G1X724002Y-574790D1*
G1X723453Y-574370D1*
G1X722983Y-573740D1*
G1X722670Y-573005D1*
G1X722513Y-572165D1*
G1X722513Y-571430D1*
G1X722670Y-570800D1*
G1X722983Y-570065D1*
G1X723453Y-569435D1*
G1X723923Y-569015D1*
G1X724550Y-568700D1*
G1X725098Y-568700D1*
G1X725725Y-568910D1*
G1X726195Y-569330D1*
G1X730850Y-575210D2*
G1X730693Y-575105D1*
G1X730693Y-574895D1*
G1X730850Y-574790D1*
G1X731007Y-574895D1*
G1X731007Y-575105D1*
G1X730850Y-575210D1*
G1X710383Y-580500D2*
G1X710383Y-586800D1*
G1X713517Y-586800D1*
G1X719817Y-586800D2*
G1X716683Y-586800D1*
G1X716683Y-580500D1*
G1X719817Y-580500D1*
G1X718563Y-583545D2*
G1X716683Y-583545D1*
G1X722905Y-585960D2*
G1X723532Y-586485D1*
G1X724237Y-586800D1*
G1X724863Y-586800D1*
G1X725490Y-586485D1*
G1X725960Y-585960D1*
G1X726195Y-585225D1*
G1X726038Y-584490D1*
G1X725647Y-583860D1*
G1X724942Y-583440D1*
G1X724002Y-583230D1*
G1X723453Y-582810D1*
G1X723218Y-582075D1*
G1X723375Y-581340D1*
G1X723767Y-580815D1*
G1X724315Y-580500D1*
G1X724863Y-580500D1*
G1X725412Y-580710D1*
G1X725882Y-581235D1*
G1X730850Y-587010D2*
G1X730693Y-586905D1*
G1X730693Y-586695D1*
G1X730850Y-586590D1*
G1X731007Y-586695D1*
G1X731007Y-586905D1*
G1X730850Y-587010D1*
G1X740500Y-613800D2*
G1X740500Y-620100D1*
G1X738698Y-613800D2*
G1X742302Y-613800D1*
G1X745703Y-620100D2*
G1X745703Y-615900D1*
G1X745703Y-616740D2*
G1X746095Y-616320D1*
G1X746487Y-616005D1*
G1X747035Y-615900D1*
G1X747427Y-616005D1*
G1X747897Y-616320D1*
G1X751925Y-617265D2*
G1X754432Y-617265D1*
G1X754197Y-616530D1*
G1X753805Y-616110D1*
G1X753257Y-615900D1*
G1X752708Y-616005D1*
G1X752238Y-616320D1*
G1X751925Y-617055D1*
G1X751768Y-617685D1*
G1X751768Y-618315D1*
G1X751925Y-618945D1*
G1X752317Y-619575D1*
G1X752787Y-619995D1*
G1X753335Y-620100D1*
G1X753883Y-619890D1*
G1X754432Y-619260D1*
G1X760810Y-620100D2*
G1X760810Y-615900D1*
G1X760810Y-616635D2*
G1X760497Y-616215D1*
G1X760027Y-616005D1*
G1X759478Y-615900D1*
G1X758930Y-616110D1*
G1X758460Y-616530D1*
G1X758147Y-617160D1*
G1X757990Y-618000D1*
G1X758147Y-618840D1*
G1X758460Y-619470D1*
G1X758930Y-619890D1*
G1X759478Y-620100D1*
G1X760027Y-619995D1*
G1X760497Y-619680D1*
G1X760810Y-619260D1*
G1X765700Y-613800D2*
G1X765700Y-620100D1*
G1X764603Y-615900D2*
G1X766797Y-615900D1*
G1X769650Y-620100D2*
G1X769650Y-615900D1*
G1X769650Y-617055D2*
G1X769885Y-616530D1*
G1X770277Y-616110D1*
G1X770825Y-615900D1*
G1X771373Y-616110D1*
G1X771765Y-616530D1*
G1X772000Y-617055D1*
G1X772000Y-620100D1*
G1X772000Y-617055D2*
G1X772235Y-616530D1*
G1X772627Y-616110D1*
G1X773175Y-615900D1*
G1X773723Y-616110D1*
G1X774115Y-616530D1*
G1X774350Y-617160D1*
G1X774350Y-620100D1*
G1X777125Y-617265D2*
G1X779632Y-617265D1*
G1X779397Y-616530D1*
G1X779005Y-616110D1*
G1X778457Y-615900D1*
G1X777908Y-616005D1*
G1X777438Y-616320D1*
G1X777125Y-617055D1*
G1X776968Y-617685D1*
G1X776968Y-618315D1*
G1X777125Y-618945D1*
G1X777517Y-619575D1*
G1X777987Y-619995D1*
G1X778535Y-620100D1*
G1X779083Y-619890D1*
G1X779632Y-619260D1*
G1X783268Y-620100D2*
G1X783268Y-615900D1*
G1X783268Y-616950D2*
G1X783582Y-616425D1*
G1X784052Y-616005D1*
G1X784678Y-615900D1*
G1X785227Y-616005D1*
G1X785697Y-616425D1*
G1X785932Y-617160D1*
G1X785932Y-620100D1*
G1X790900Y-613800D2*
G1X790900Y-620100D1*
G1X789803Y-615900D2*
G1X791997Y-615900D1*
G1X804910Y-620100D2*
G1X804910Y-615900D1*
G1X804910Y-616635D2*
G1X804597Y-616215D1*
G1X804127Y-616005D1*
G1X803578Y-615900D1*
G1X803030Y-616110D1*
G1X802560Y-616530D1*
G1X802247Y-617160D1*
G1X802090Y-618000D1*
G1X802247Y-618840D1*
G1X802560Y-619470D1*
G1X803030Y-619890D1*
G1X803578Y-620100D1*
G1X804127Y-619995D1*
G1X804597Y-619680D1*
G1X804910Y-619260D1*
G1X808468Y-620100D2*
G1X808468Y-615900D1*
G1X808468Y-616950D2*
G1X808782Y-616425D1*
G1X809252Y-616005D1*
G1X809878Y-615900D1*
G1X810427Y-616005D1*
G1X810897Y-616425D1*
G1X811132Y-617160D1*
G1X811132Y-620100D1*
G1X817510Y-613800D2*
G1X817510Y-620100D1*
G1X817510Y-619155D2*
G1X817197Y-619680D1*
G1X816727Y-619995D1*
G1X816178Y-620100D1*
G1X815552Y-619890D1*
G1X815082Y-619365D1*
G1X814768Y-618735D1*
G1X814690Y-618000D1*
G1X814768Y-617265D1*
G1X815082Y-616635D1*
G1X815552Y-616110D1*
G1X816178Y-615900D1*
G1X816727Y-616005D1*
G1X817118Y-616215D1*
G1X817510Y-616635D1*
G1X827525Y-619365D2*
G1X827917Y-619785D1*
G1X828465Y-620100D1*
G1X828935Y-620100D1*
G1X829405Y-619890D1*
G1X829718Y-619575D1*
G1X829875Y-619155D1*
G1X829797Y-618525D1*
G1X829483Y-618210D1*
G1X828073Y-617580D1*
G1X827760Y-616845D1*
G1X827917Y-616320D1*
G1X828230Y-616005D1*
G1X828700Y-615900D1*
G1X829170Y-616005D1*
G1X829640Y-616320D1*
G1X833668Y-615900D2*
G1X833668Y-618840D1*
G1X833982Y-619575D1*
G1X834452Y-619995D1*
G1X835000Y-620100D1*
G1X835548Y-619995D1*
G1X836018Y-619575D1*
G1X836332Y-618840D1*
G1X836332Y-620100D2*
G1X836332Y-615900D1*
G1X840203Y-620100D2*
G1X840203Y-615900D1*
G1X840203Y-616740D2*
G1X840595Y-616320D1*
G1X840987Y-616005D1*
G1X841535Y-615900D1*
G1X841927Y-616005D1*
G1X842397Y-616320D1*
G1X847130Y-620100D2*
G1X847130Y-614745D1*
G1X847287Y-614220D1*
G1X847600Y-613905D1*
G1X848070Y-613800D1*
G1X848540Y-614010D1*
G1X848775Y-614535D1*
G1X847835Y-616320D2*
G1X846268Y-616320D1*
G1X855310Y-620100D2*
G1X855310Y-615900D1*
G1X855310Y-616635D2*
G1X854997Y-616215D1*
G1X854527Y-616005D1*
G1X853978Y-615900D1*
G1X853430Y-616110D1*
G1X852960Y-616530D1*
G1X852647Y-617160D1*
G1X852490Y-618000D1*
G1X852647Y-618840D1*
G1X852960Y-619470D1*
G1X853430Y-619890D1*
G1X853978Y-620100D1*
G1X854527Y-619995D1*
G1X854997Y-619680D1*
G1X855310Y-619260D1*
G1X861453Y-616425D2*
G1X860905Y-616005D1*
G1X860435Y-615900D1*
G1X859808Y-616110D1*
G1X859338Y-616530D1*
G1X859025Y-617265D1*
G1X858947Y-618000D1*
G1X859025Y-618735D1*
G1X859338Y-619365D1*
G1X859808Y-619890D1*
G1X860435Y-620100D1*
G1X860983Y-619890D1*
G1X861453Y-619470D1*
G1X865325Y-617265D2*
G1X867832Y-617265D1*
G1X867597Y-616530D1*
G1X867205Y-616110D1*
G1X866657Y-615900D1*
G1X866108Y-616005D1*
G1X865638Y-616320D1*
G1X865325Y-617055D1*
G1X865168Y-617685D1*
G1X865168Y-618315D1*
G1X865325Y-618945D1*
G1X865717Y-619575D1*
G1X866187Y-619995D1*
G1X866735Y-620100D1*
G1X867283Y-619890D1*
G1X867832Y-619260D1*
G1X878630Y-620100D2*
G1X878630Y-614745D1*
G1X878787Y-614220D1*
G1X879100Y-613905D1*
G1X879570Y-613800D1*
G1X880040Y-614010D1*
G1X880275Y-614535D1*
G1X879335Y-616320D2*
G1X877768Y-616320D1*
G1X885400Y-615900D2*
G1X885400Y-620100D1*
G1X885400Y-614220D2*
G1X885243Y-614115D1*
G1X885243Y-613905D1*
G1X885400Y-613800D1*
G1X885557Y-613905D1*
G1X885557Y-614115D1*
G1X885400Y-614220D1*
G1X890368Y-620100D2*
G1X890368Y-615900D1*
G1X890368Y-616950D2*
G1X890682Y-616425D1*
G1X891152Y-616005D1*
G1X891778Y-615900D1*
G1X892327Y-616005D1*
G1X892797Y-616425D1*
G1X893032Y-617160D1*
G1X893032Y-620100D1*
G1X898000Y-615900D2*
G1X898000Y-620100D1*
G1X898000Y-614220D2*
G1X897843Y-614115D1*
G1X897843Y-613905D1*
G1X898000Y-613800D1*
G1X898157Y-613905D1*
G1X898157Y-614115D1*
G1X898000Y-614220D1*
G1X903125Y-619365D2*
G1X903517Y-619785D1*
G1X904065Y-620100D1*
G1X904535Y-620100D1*
G1X905005Y-619890D1*
G1X905318Y-619575D1*
G1X905475Y-619155D1*
G1X905397Y-618525D1*
G1X905083Y-618210D1*
G1X903673Y-617580D1*
G1X903360Y-616845D1*
G1X903517Y-616320D1*
G1X903830Y-616005D1*
G1X904300Y-615900D1*
G1X904770Y-616005D1*
G1X905240Y-616320D1*
G1X909268Y-620100D2*
G1X909268Y-613800D1*
G1X909268Y-616845D2*
G1X909660Y-616320D1*
G1X910052Y-616005D1*
G1X910678Y-615900D1*
G1X911148Y-616005D1*
G1X911697Y-616425D1*
G1X911932Y-617055D1*
G1X911932Y-620100D1*
G1X916900Y-615900D2*
G1X916900Y-620100D1*
G1X916900Y-614220D2*
G1X916743Y-614115D1*
G1X916743Y-613905D1*
G1X916900Y-613800D1*
G1X917057Y-613905D1*
G1X917057Y-614115D1*
G1X916900Y-614220D1*
G1X921868Y-620100D2*
G1X921868Y-615900D1*
G1X921868Y-616950D2*
G1X922182Y-616425D1*
G1X922652Y-616005D1*
G1X923278Y-615900D1*
G1X923827Y-616005D1*
G1X924297Y-616425D1*
G1X924532Y-617160D1*
G1X924532Y-620100D1*
G1X928403Y-621675D2*
G1X928952Y-622095D1*
G1X929578Y-622200D1*
G1X930127Y-622095D1*
G1X930597Y-621570D1*
G1X930910Y-620835D1*
G1X930910Y-615900D1*
G1X930910Y-616740D2*
G1X930597Y-616320D1*
G1X930127Y-616005D1*
G1X929578Y-615900D1*
G1X928952Y-616110D1*
G1X928560Y-616530D1*
G1X928247Y-617265D1*
G1X928090Y-618000D1*
G1X928168Y-618630D1*
G1X928482Y-619365D1*
G1X928952Y-619890D1*
G1X929578Y-620100D1*
G1X930048Y-619995D1*
G1X930597Y-619575D1*
G1X930910Y-619155D1*
G1X739823Y-573750D2*
G1X739823Y-566250D1*
G1X742250Y-572500D1*
G1X744677Y-566250D1*
G1X744677Y-573750D1*
G1X751430Y-573750D2*
G1X751430Y-568750D1*
G1X751430Y-569625D2*
G1X751057Y-569125D1*
G1X750497Y-568875D1*
G1X749843Y-568750D1*
G1X749190Y-569000D1*
G1X748630Y-569500D1*
G1X748257Y-570250D1*
G1X748070Y-571250D1*
G1X748257Y-572250D1*
G1X748630Y-573000D1*
G1X749190Y-573500D1*
G1X749843Y-573750D1*
G1X750497Y-573625D1*
G1X751057Y-573250D1*
G1X751430Y-572750D1*
G1X757250Y-566250D2*
G1X757250Y-573750D1*
G1X755943Y-568750D2*
G1X758557Y-568750D1*
G1X763350Y-570375D2*
G1X766337Y-570375D1*
G1X766057Y-569500D1*
G1X765590Y-569000D1*
G1X764937Y-568750D1*
G1X764283Y-568875D1*
G1X763723Y-569250D1*
G1X763350Y-570125D1*
G1X763163Y-570875D1*
G1X763163Y-571625D1*
G1X763350Y-572375D1*
G1X763817Y-573125D1*
G1X764377Y-573625D1*
G1X765030Y-573750D1*
G1X765683Y-573500D1*
G1X766337Y-572750D1*
G1X770943Y-573750D2*
G1X770943Y-568750D1*
G1X770943Y-569750D2*
G1X771410Y-569250D1*
G1X771877Y-568875D1*
G1X772530Y-568750D1*
G1X772997Y-568875D1*
G1X773557Y-569250D1*
G1X779750Y-568750D2*
G1X779750Y-573750D1*
G1X779750Y-566750D2*
G1X779563Y-566625D1*
G1X779563Y-566375D1*
G1X779750Y-566250D1*
G1X779937Y-566375D1*
G1X779937Y-566625D1*
G1X779750Y-566750D1*
G1X788930Y-573750D2*
G1X788930Y-568750D1*
G1X788930Y-569625D2*
G1X788557Y-569125D1*
G1X787997Y-568875D1*
G1X787343Y-568750D1*
G1X786690Y-569000D1*
G1X786130Y-569500D1*
G1X785757Y-570250D1*
G1X785570Y-571250D1*
G1X785757Y-572250D1*
G1X786130Y-573000D1*
G1X786690Y-573500D1*
G1X787343Y-573750D1*
G1X787997Y-573625D1*
G1X788557Y-573250D1*
G1X788930Y-572750D1*
G1X794750Y-573750D2*
G1X794750Y-566250D1*
G1X739380Y-533500D2*
G1X741620Y-533500D1*
G1X740500Y-533500D2*
G1X740500Y-541000D1*
G1X739380Y-541000D2*
G1X741620Y-541000D1*
G1X746040Y-540000D2*
G1X746787Y-540625D1*
G1X747627Y-541000D1*
G1X748373Y-541000D1*
G1X749120Y-540625D1*
G1X749680Y-540000D1*
G1X749960Y-539125D1*
G1X749773Y-538250D1*
G1X749307Y-537500D1*
G1X748467Y-537000D1*
G1X747347Y-536750D1*
G1X746693Y-536250D1*
G1X746413Y-535375D1*
G1X746600Y-534500D1*
G1X747067Y-533875D1*
G1X747720Y-533500D1*
G1X748373Y-533500D1*
G1X749027Y-533750D1*
G1X749587Y-534375D1*
G1X755500Y-541000D2*
G1X754753Y-540875D1*
G1X754100Y-540375D1*
G1X753540Y-539625D1*
G1X753167Y-538750D1*
G1X752980Y-537750D1*
G1X752980Y-536750D1*
G1X753167Y-535750D1*
G1X753540Y-534875D1*
G1X754100Y-534125D1*
G1X754753Y-533625D1*
G1X755500Y-533500D1*
G1X756247Y-533625D1*
G1X756900Y-534125D1*
G1X757460Y-534875D1*
G1X757833Y-535750D1*
G1X758020Y-536750D1*
G1X758020Y-537750D1*
G1X757833Y-538750D1*
G1X757460Y-539625D1*
G1X756900Y-540375D1*
G1X756247Y-540875D1*
G1X755500Y-541000D1*
G1X797060Y-501750D2*
G1X798927Y-501750D1*
G1X798927Y-504000D1*
G1X798367Y-504750D1*
G1X797713Y-505250D1*
G1X796780Y-505500D1*
G1X795847Y-505250D1*
G1X795193Y-504750D1*
G1X794633Y-504000D1*
G1X794260Y-503125D1*
G1X794073Y-502125D1*
G1X794073Y-501250D1*
G1X794260Y-500500D1*
G1X794633Y-499625D1*
G1X795193Y-498875D1*
G1X795753Y-498375D1*
G1X796500Y-498000D1*
G1X797153Y-498000D1*
G1X797900Y-498250D1*
G1X798460Y-498750D1*
G1X802693Y-505500D2*
G1X802693Y-500500D1*
G1X802693Y-501500D2*
G1X803160Y-501000D1*
G1X803627Y-500625D1*
G1X804280Y-500500D1*
G1X804747Y-500625D1*
G1X805307Y-501000D1*
G1X811500Y-505500D2*
G1X810940Y-505375D1*
G1X810380Y-504875D1*
G1X810007Y-504000D1*
G1X809820Y-503000D1*
G1X810007Y-502000D1*
G1X810380Y-501125D1*
G1X810940Y-500625D1*
G1X811500Y-500500D1*
G1X812060Y-500625D1*
G1X812620Y-501125D1*
G1X812993Y-502000D1*
G1X813087Y-503000D1*
G1X812993Y-504000D1*
G1X812620Y-504875D1*
G1X812060Y-505375D1*
G1X811500Y-505500D1*
G1X817413Y-500500D2*
G1X817413Y-504000D1*
G1X817787Y-504875D1*
G1X818347Y-505375D1*
G1X819000Y-505500D1*
G1X819653Y-505375D1*
G1X820213Y-504875D1*
G1X820587Y-504000D1*
G1X820587Y-505500D2*
G1X820587Y-500500D1*
G1X824820Y-508000D2*
G1X824820Y-500500D1*
G1X824820Y-501625D2*
G1X825287Y-501000D1*
G1X825753Y-500625D1*
G1X826500Y-500500D1*
G1X827153Y-500625D1*
G1X827807Y-501250D1*
G1X828087Y-502125D1*
G1X828180Y-503000D1*
G1X828087Y-503875D1*
G1X827807Y-504750D1*
G1X827247Y-505250D1*
G1X826500Y-505500D1*
G1X825847Y-505375D1*
G1X825193Y-505000D1*
G1X824820Y-504500D1*
G1X794290Y-469100D2*
G1X795037Y-469725D1*
G1X795877Y-470100D1*
G1X796623Y-470100D1*
G1X797370Y-469725D1*
G1X797930Y-469100D1*
G1X798210Y-468225D1*
G1X798023Y-467350D1*
G1X797557Y-466600D1*
G1X796717Y-466100D1*
G1X795597Y-465850D1*
G1X794943Y-465350D1*
G1X794663Y-464475D1*
G1X794850Y-463600D1*
G1X795317Y-462975D1*
G1X795970Y-462600D1*
G1X796623Y-462600D1*
G1X797277Y-462850D1*
G1X797837Y-463475D1*
G1X801790Y-472350D2*
G1X802350Y-472600D1*
G1X803097Y-472350D1*
G1X803563Y-471850D1*
G1X803937Y-471225D1*
G1X804497Y-469225D1*
G1X805710Y-465100D1*
G1X802723Y-465100D2*
G1X804497Y-469225D1*
G1X808450Y-470100D2*
G1X808450Y-465100D1*
G1X808450Y-466475D2*
G1X808730Y-465850D1*
G1X809197Y-465350D1*
G1X809850Y-465100D1*
G1X810503Y-465350D1*
G1X810970Y-465850D1*
G1X811250Y-466475D1*
G1X811250Y-470100D1*
G1X811250Y-466475D2*
G1X811530Y-465850D1*
G1X811997Y-465350D1*
G1X812650Y-465100D1*
G1X813303Y-465350D1*
G1X813770Y-465850D1*
G1X814050Y-466600D1*
G1X814050Y-470100D1*
G1X817070Y-470100D2*
G1X817070Y-462600D1*
G1X817070Y-466350D2*
G1X817537Y-465600D1*
G1X818097Y-465225D1*
G1X818657Y-465100D1*
G1X819497Y-465350D1*
G1X820057Y-465850D1*
G1X820430Y-466725D1*
G1X820430Y-467725D1*
G1X820243Y-468725D1*
G1X819870Y-469475D1*
G1X819217Y-469975D1*
G1X818657Y-470100D1*
G1X818097Y-469975D1*
G1X817537Y-469600D1*
G1X817070Y-468975D1*
G1X826250Y-470100D2*
G1X825690Y-469975D1*
G1X825130Y-469475D1*
G1X824757Y-468600D1*
G1X824570Y-467600D1*
G1X824757Y-466600D1*
G1X825130Y-465725D1*
G1X825690Y-465225D1*
G1X826250Y-465100D1*
G1X826810Y-465225D1*
G1X827370Y-465725D1*
G1X827743Y-466600D1*
G1X827837Y-467600D1*
G1X827743Y-468600D1*
G1X827370Y-469475D1*
G1X826810Y-469975D1*
G1X826250Y-470100D1*
G1X833750Y-470100D2*
G1X833750Y-462600D1*
G1X824790Y-539500D2*
G1X825537Y-540125D1*
G1X826377Y-540500D1*
G1X827123Y-540500D1*
G1X827870Y-540125D1*
G1X828430Y-539500D1*
G1X828710Y-538625D1*
G1X828523Y-537750D1*
G1X828057Y-537000D1*
G1X827217Y-536500D1*
G1X826097Y-536250D1*
G1X825443Y-535750D1*
G1X825163Y-534875D1*
G1X825350Y-534000D1*
G1X825817Y-533375D1*
G1X826470Y-533000D1*
G1X827123Y-533000D1*
G1X827777Y-533250D1*
G1X828337Y-533875D1*
G1X836303Y-533625D2*
G1X835743Y-533250D1*
G1X835090Y-533000D1*
G1X834343Y-533000D1*
G1X833503Y-533375D1*
G1X832850Y-534000D1*
G1X832383Y-534750D1*
G1X832010Y-536000D1*
G1X831917Y-537125D1*
G1X832103Y-538250D1*
G1X832383Y-539000D1*
G1X832943Y-539750D1*
G1X833597Y-540250D1*
G1X834250Y-540500D1*
G1X834903Y-540500D1*
G1X835557Y-540250D1*
G1X836117Y-539875D1*
G1X836583Y-539375D1*
G1X839417Y-540500D2*
G1X841750Y-533000D1*
G1X844083Y-540500D1*
G1X843243Y-537875D2*
G1X840257Y-537875D1*
G1X847383Y-533000D2*
G1X847383Y-540500D1*
G1X851117Y-540500D1*
G1X858617Y-540500D2*
G1X854883Y-540500D1*
G1X854883Y-533000D1*
G1X858617Y-533000D1*
G1X857123Y-536625D2*
G1X854883Y-536625D1*
G1X864250Y-540750D2*
G1X864063Y-540625D1*
G1X864063Y-540375D1*
G1X864250Y-540250D1*
G1X864437Y-540375D1*
G1X864437Y-540625D1*
G1X864250Y-540750D1*
G1X864250Y-537375D2*
G1X864063Y-537250D1*
G1X864063Y-537000D1*
G1X864250Y-536875D1*
G1X864437Y-537000D1*
G1X864437Y-537250D1*
G1X864250Y-537375D1*
G1X903383Y-540500D2*
G1X903383Y-533000D1*
G1X905717Y-533000D1*
G1X906463Y-533375D1*
G1X906930Y-533875D1*
G1X907117Y-534875D1*
G1X906930Y-535875D1*
G1X906370Y-536500D1*
G1X905717Y-536875D1*
G1X903383Y-536875D1*
G1X905717Y-536875D2*
G1X907117Y-540500D1*
G1X914617Y-540500D2*
G1X910883Y-540500D1*
G1X910883Y-533000D1*
G1X914617Y-533000D1*
G1X913123Y-536625D2*
G1X910883Y-536625D1*
G1X917917Y-533000D2*
G1X920250Y-540500D1*
G1X922583Y-533000D1*
G1X927750Y-540750D2*
G1X927563Y-540625D1*
G1X927563Y-540375D1*
G1X927750Y-540250D1*
G1X927937Y-540375D1*
G1X927937Y-540625D1*
G1X927750Y-540750D1*
G1X-675200Y-645600D2*
G54D17*
G1X-675200Y-675600D1*
G1X-645200Y-675600D1*
G1X-675200Y463600D2*
G1X-675200Y493600D1*
G1X-645200Y493600D1*
G1X360500Y-439500D2*
G1X360500Y-459200D1*
G1X435300Y-459200D2*
G1X435300Y-439500D1*
G1X510100Y-459200D2*
G1X510100Y-439500D1*
G1X596800Y-561500D2*
G1X596800Y-656000D1*
G1X584900Y-439500D2*
G1X584900Y-459200D1*
G1X632200Y-656000D2*
G1X632200Y-561500D1*
G1X667600Y-561500D2*
G1X667600Y-656000D1*
G1X659700Y-459200D2*
G1X659700Y-439500D1*
G1X703100Y-656000D2*
G1X703100Y-561500D1*
G1X734500Y-439500D2*
G1X734500Y-459200D1*
G1X809400Y-459200D2*
G1X809400Y-439500D1*
G1X884200Y-459200D2*
G1X884200Y-439500D1*
G1X948200Y-675600D2*
G1X978200Y-675600D1*
G1X978200Y-645600D1*
G1X948200Y493600D2*
G1X978200Y493600D1*
G1X978200Y463600D1*
G1X-462200Y-82139D2*
G54D18*
G1X-462200Y37861D1*
G1X-273200Y-82139D2*
G1X-462200Y-82139D1*
G1X-462200Y39361D2*
G1X-462200Y159361D1*
G1X-273200Y39361D2*
G1X-462200Y39361D1*
G1X-462200Y37861D2*
G1X-273200Y37861D1*
G1X-462200Y159361D2*
G1X-273200Y159361D1*
G1X-210200Y-73139D2*
G75*
G3X-210200Y-73139I-27000J0D1*
G74*
G1X-273200Y37861D2*
G1X-273200Y-82139D1*
G1X-273200Y-25139D2*
G1X-238700Y-25139D1*
G1X-238700Y-19139D2*
G1X-273200Y-19139D1*
G1X-273200Y159361D2*
G1X-273200Y39361D1*
G1X-273200Y96361D2*
G1X-238700Y96361D1*
G1X-238700Y102361D2*
G1X-273200Y102361D1*
G1X-210200Y150361D2*
G75*
G3X-210200Y150361I-27000J0D1*
G74*
G1X-238700Y-25139D2*
G1X-238700Y-19139D1*
G1X-238700Y96361D2*
G1X-238700Y102361D1*
G1X-157700Y-88139D2*
G1X-175700Y-88139D1*
G1X-175700Y-79139D1*
G1X-157700Y-79139D1*
G1X-172700Y10861D2*
G1X-172700Y19861D1*
G1X-154700Y10861D2*
G1X-172700Y10861D1*
G1X-172700Y19861D2*
G1X-154700Y19861D1*
G1X-172700Y31861D2*
G1X-172700Y40861D1*
G1X-154700Y31861D2*
G1X-172700Y31861D1*
G1X-172700Y51361D2*
G1X-172700Y60361D1*
G1X-154700Y51361D2*
G1X-172700Y51361D1*
G1X-172700Y40861D2*
G1X-154700Y40861D1*
G1X-172700Y60361D2*
G1X-154700Y60361D1*
G1X-172700Y70861D2*
G1X-172700Y79861D1*
G1X-154700Y70861D2*
G1X-172700Y70861D1*
G1X-172700Y79861D2*
G1X-154700Y79861D1*
G1X-162200Y127861D2*
G1X-162200Y136861D1*
G1X-144200Y127861D2*
G1X-162200Y127861D1*
G1X-162200Y136861D2*
G1X-144200Y136861D1*
G1X-166700Y148861D2*
G1X-166700Y166861D1*
G1X-157700Y148861D2*
G1X-166700Y148861D1*
G1X-166700Y166861D2*
G1X-157700Y166861D1*
G1X-157700Y-79139D2*
G1X-157700Y-88139D1*
G1X-142700Y10861D2*
G1X-142700Y19861D1*
G1X-124700Y10861D2*
G1X-142700Y10861D1*
G1X-154700Y19861D2*
G1X-154700Y10861D1*
G1X-142700Y19861D2*
G1X-124700Y19861D1*
G1X-154700Y40861D2*
G1X-154700Y31861D1*
G1X-142700Y49861D2*
G1X-124700Y49861D1*
G1X-142700Y40861D2*
G1X-142700Y49861D1*
G1X-124700Y40861D2*
G1X-142700Y40861D1*
G1X-154700Y60361D2*
G1X-154700Y51361D1*
G1X-142700Y70861D2*
G1X-142700Y79861D1*
G1X-124700Y70861D2*
G1X-142700Y70861D1*
G1X-154700Y79861D2*
G1X-154700Y70861D1*
G1X-142700Y79861D2*
G1X-124700Y79861D1*
G1X-142700Y97861D2*
G1X-124700Y97861D1*
G1X-142700Y88861D2*
G1X-142700Y97861D1*
G1X-124700Y88861D2*
G1X-142700Y88861D1*
G1X-142700Y115861D2*
G1X-124700Y115861D1*
G1X-142700Y106861D2*
G1X-142700Y115861D1*
G1X-124700Y106861D2*
G1X-142700Y106861D1*
G1X-144200Y136861D2*
G1X-144200Y127861D1*
G1X-148700Y148861D2*
G1X-148700Y166861D1*
G1X-139700Y148861D2*
G1X-148700Y148861D1*
G1X-139700Y166861D2*
G1X-139700Y148861D1*
G1X-157700Y166861D2*
G1X-157700Y148861D1*
G1X-148700Y166861D2*
G1X-139700Y166861D1*
G1X-134726Y-105389D2*
G1X-75674Y-105389D1*
G1X-134726Y-55190D2*
G1X-134726Y-105389D1*
G1X-75674Y-55190D2*
G1X-134726Y-55190D1*
G1X-119411Y-45203D2*
G1X-119411Y-55103D1*
G1X-114611Y-45203D2*
G1X-119411Y-45203D1*
G1X-130700Y-19139D2*
G1X-130700Y-1139D1*
G1X-121700Y-19139D2*
G1X-130700Y-19139D1*
G1X-121700Y-1139D2*
G1X-121700Y-19139D1*
G1X-130700Y-1139D2*
G1X-121700Y-1139D1*
G1X-124700Y19861D2*
G1X-124700Y10861D1*
G1X-124700Y49861D2*
G1X-124700Y40861D1*
G1X-124700Y79861D2*
G1X-124700Y70861D1*
G1X-124700Y97861D2*
G1X-124700Y88861D1*
G1X-124700Y115861D2*
G1X-124700Y106861D1*
G1X-124700Y127861D2*
G1X-124700Y136861D1*
G1X-106700Y127861D2*
G1X-124700Y127861D1*
G1X-124700Y136861D2*
G1X-106700Y136861D1*
G1X-129200Y148861D2*
G1X-129200Y166861D1*
G1X-120200Y148861D2*
G1X-129200Y148861D1*
G1X-120200Y166861D2*
G1X-120200Y148861D1*
G1X-129200Y166861D2*
G1X-120200Y166861D1*
G1X-114611Y-55103D2*
G1X-114611Y-45203D1*
G1X-107600Y-45203D2*
G1X-107600Y-55103D1*
G1X-102800Y-55103D2*
G1X-102800Y-45203D1*
G1X-107600Y-45203D1*
G1X-106700Y136861D2*
G1X-106700Y127861D1*
G1X-111200Y148861D2*
G1X-111200Y166861D1*
G1X-102200Y148861D2*
G1X-111200Y148861D1*
G1X-102200Y166861D2*
G1X-102200Y148861D1*
G1X-111200Y166861D2*
G1X-102200Y166861D1*
G1X-95789Y-45203D2*
G1X-95789Y-55103D1*
G1X-90989Y-55103D2*
G1X-90989Y-45203D1*
G1X-95789Y-45203D1*
G1X-96128Y6433D2*
G1X-12272Y6433D1*
G1X-96128Y90289D2*
G1X-96128Y6433D1*
G1X-12272Y90289D2*
G1X-96128Y90289D1*
G1X-88700Y111361D2*
G1X-88700Y120361D1*
G1X-70700Y111361D2*
G1X-88700Y111361D1*
G1X-84200Y150361D2*
G1X-84200Y132361D1*
G1X-93200Y132361D2*
G1X-93200Y150361D1*
G1X-84200Y132361D2*
G1X-93200Y132361D1*
G1X-88700Y120361D2*
G1X-70700Y120361D1*
G1X-93200Y150361D2*
G1X-84200Y150361D1*
G1X-75674Y-105389D2*
G1X-75674Y-55190D1*
G1X-42200Y-23639D2*
G1X-60200Y-23639D1*
G1X-60200Y-14639D2*
G1X-42200Y-14639D1*
G1X-60200Y-23639D2*
G1X-60200Y-14639D1*
G1X-60341Y102361D2*
G75*
G3X-60341Y102361I-5109J0D1*
G74*
G1X-70700Y120361D2*
G1X-70700Y111361D1*
G1X-46091Y109111D2*
G75*
G3X-46091Y109111I-5109J0D1*
G74*
G1X-75200Y132361D2*
G1X-75200Y150361D1*
G1X-66200Y132361D2*
G1X-75200Y132361D1*
G1X-66200Y150361D2*
G1X-66200Y132361D1*
G1X-40229Y127861D2*
G75*
G3X-40229Y127861I-8721J0D1*
G74*
G1X-75200Y150361D2*
G1X-66200Y150361D1*
G1X-59450Y160861D2*
G1X-59450Y139861D1*
G1X-38450Y139861D1*
G1X-38450Y160861D2*
G1X-59450Y160861D1*
G1X-38426Y-99839D2*
G1X-38426Y-76439D1*
G1X3550Y-99839D2*
G1X-38426Y-99839D1*
G1X-38426Y-76439D2*
G1X3550Y-76439D1*
G1X-42200Y-14639D2*
G1X-42200Y-23639D1*
G1X-38450Y139861D2*
G1X-38450Y160861D1*
G1X-23426Y-99839D2*
G1X-23426Y-76439D1*
G1X-26426Y-76439D2*
G1X-26426Y-99839D1*
G1X-21200Y-26639D2*
G1X-21200Y-17639D1*
G1X-3200Y-26639D2*
G1X-21200Y-26639D1*
G1X-21200Y-17639D2*
G1X-3200Y-17639D1*
G1X-14591Y-6389D2*
G75*
G3X-14591Y-6389I-5109J0D1*
G74*
G1X-12272Y9976D2*
G1X-15815Y6433D1*
G1X-12272Y11155D2*
G1X-16994Y6433D1*
G1X-12272Y12337D2*
G1X-18176Y6433D1*
G1X-12272Y13519D2*
G1X-19358Y6433D1*
G1X-15200Y114361D2*
G1X-15200Y132361D1*
G1X-6200Y114361D2*
G1X-15200Y114361D1*
G1X-23591Y118861D2*
G75*
G3X-23591Y118861I-5109J0D1*
G74*
G1X-15200Y132361D2*
G1X-6200Y132361D1*
G1X-15200Y150361D2*
G1X-15200Y168361D1*
G1X-6200Y150361D2*
G1X-15200Y150361D1*
G1X-24200Y168361D2*
G1X-24200Y150361D1*
G1X-33200Y150361D2*
G1X-33200Y168361D1*
G1X-24200Y150361D2*
G1X-33200Y150361D1*
G1X-15200Y168361D2*
G1X-6200Y168361D1*
G1X-33200Y168361D2*
G1X-24200Y168361D1*
G1X-11426Y-99839D2*
G1X-11426Y-76439D1*
G1X-8426Y-99839D2*
G1X-8426Y-76439D1*
G1X3550Y-76439D2*
G1X3550Y-99839D1*
G1X-3200Y-17639D2*
G1X-3200Y-26639D1*
G1X-12272Y6433D2*
G1X-12272Y90289D1*
G1X-12272Y7612D2*
G1X-13451Y6433D1*
G1X-12272Y8794D2*
G1X-14633Y6433D1*
G1X10159Y5611D2*
G75*
G3X10159Y5611I-5109J0D1*
G74*
G1X-6200Y132361D2*
G1X-6200Y114361D1*
G1X4300Y114361D2*
G1X4300Y132361D1*
G1X13300Y114361D2*
G1X4300Y114361D1*
G1X4300Y132361D2*
G1X13300Y132361D1*
G1X-6200Y168361D2*
G1X-6200Y150361D1*
G1X17800Y-99839D2*
G1X17800Y-76439D1*
G1X44800Y-99839D2*
G1X17800Y-99839D1*
G1X17800Y-76439D2*
G1X44800Y-76439D1*
G1X16300Y-14639D2*
G1X16300Y3361D1*
G1X25300Y-14639D2*
G1X16300Y-14639D1*
G1X25300Y3361D2*
G1X25300Y-14639D1*
G1X16300Y3361D2*
G1X25300Y3361D1*
G1X41800Y19861D2*
G1X23800Y19861D1*
G1X23800Y28861D2*
G1X41800Y28861D1*
G1X23800Y19861D2*
G1X23800Y28861D1*
G1X41800Y37861D2*
G1X23800Y37861D1*
G1X23800Y46861D2*
G1X41800Y46861D1*
G1X23800Y37861D2*
G1X23800Y46861D1*
G1X61606Y55555D2*
G1X24994Y55555D1*
G1X24994Y92167D1*
G1X61606Y92167D1*
G1X13300Y132361D2*
G1X13300Y114361D1*
G1X22300Y114361D2*
G1X22300Y132361D1*
G1X31300Y114361D2*
G1X22300Y114361D1*
G1X22300Y132361D2*
G1X31300Y132361D1*
G1X8800Y154861D2*
G1X8800Y163861D1*
G1X26800Y154861D2*
G1X8800Y154861D1*
G1X8800Y163861D2*
G1X26800Y163861D1*
G1X32800Y-99839D2*
G1X32800Y-76439D1*
G1X29800Y-76439D2*
G1X29800Y-99839D1*
G1X44800Y-76439D2*
G1X44800Y-99839D1*
G1X34300Y-18839D2*
G1X49300Y-18839D1*
G1X34300Y7561D2*
G1X34300Y-18839D1*
G1X49300Y7561D2*
G1X34300Y7561D1*
G1X41800Y28861D2*
G1X41800Y19861D1*
G1X41800Y46861D2*
G1X41800Y37861D1*
G1X31300Y132361D2*
G1X31300Y114361D1*
G1X26800Y163861D2*
G1X26800Y154861D1*
G1X55300Y-49139D2*
G1X55300Y-31139D1*
G1X64300Y-49139D2*
G1X55300Y-49139D1*
G1X64300Y-31139D2*
G1X64300Y-49139D1*
G1X55300Y-31139D2*
G1X64300Y-31139D1*
G1X49300Y-18839D2*
G1X49300Y7561D1*
G1X58300Y-5639D2*
G1X58300Y12361D1*
G1X67300Y-5639D2*
G1X58300Y-5639D1*
G1X58300Y12361D2*
G1X67300Y12361D1*
G1X55300Y31861D2*
G1X55300Y43861D1*
G1X59050Y31861D2*
G1X55300Y31861D1*
G1X59200Y27061D2*
G1X59200Y48661D1*
G1X93400Y27061D2*
G1X59200Y27061D1*
G1X55300Y43861D2*
G1X59050Y43861D1*
G1X61606Y92167D2*
G1X61606Y55555D1*
G1X59200Y48661D2*
G1X93400Y48661D1*
G1X83800Y121861D2*
G1X51400Y121861D1*
G1X51400Y154861D1*
G1X64000Y125056D2*
G1X64000Y134656D1*
G1X79900Y125056D2*
G1X60700Y125056D1*
G1X60700Y134656D1*
G1X79900Y134656D1*
G1X51400Y154861D2*
G1X89200Y154861D1*
G1X60580Y142420D2*
G1X64327Y142420D1*
G1X64327Y151945D1*
G1X60427Y142420D2*
G1X60427Y152020D1*
G1X79627Y152020D1*
G1X79627Y142420D2*
G1X60427Y142420D1*
G1X83800Y-62639D2*
G1X83800Y-80639D1*
G1X74800Y-80639D2*
G1X74800Y-62639D1*
G1X83800Y-80639D2*
G1X74800Y-80639D1*
G1X74800Y-62639D2*
G1X83800Y-62639D1*
G1X71800Y-43139D2*
G1X71800Y-22139D1*
G1X116740Y-43139D2*
G1X71800Y-43139D1*
G1X95800Y-4139D2*
G1X77800Y-4139D1*
G1X77800Y4861D1*
G1X67300Y12361D2*
G1X67300Y-5639D1*
G1X71800Y-22139D2*
G1X116740Y-22139D1*
G1X77800Y4861D2*
G1X95800Y4861D1*
G1X67600Y48661D2*
G1X67600Y27061D1*
G1X68800Y64861D2*
G1X68800Y82861D1*
G1X77800Y64861D2*
G1X68800Y64861D1*
G1X77800Y82861D2*
G1X77800Y64861D1*
G1X86800Y60661D2*
G1X101800Y60661D1*
G1X86800Y87061D2*
G1X86800Y60661D1*
G1X68800Y82861D2*
G1X77800Y82861D1*
G1X101800Y87061D2*
G1X86800Y87061D1*
G1X89200Y127261D2*
G1X83800Y121861D1*
G1X76000Y134656D2*
G1X76000Y125134D1*
G1X71200Y126856D2*
G1X71200Y132856D1*
G1X67600Y126856D2*
G1X67600Y132856D1*
G1X70600Y129856D1*
G1X67600Y126856D1*
G1X79900Y134656D2*
G1X79900Y125056D1*
G1X69127Y150220D2*
G1X69127Y144220D1*
G1X72727Y150220D2*
G1X72727Y144220D1*
G1X69727Y147220D1*
G1X72727Y150220D1*
G1X76327Y152020D2*
G1X76327Y142420D1*
G1X79627Y152020D2*
G1X79627Y142420D1*
G1X94300Y-70139D2*
G1X94300Y-61139D1*
G1X112300Y-70139D2*
G1X94300Y-70139D1*
G1X94300Y-61139D2*
G1X112300Y-61139D1*
G1X95800Y4861D2*
G1X95800Y-4139D1*
G1X106300Y6361D2*
G1X106300Y24361D1*
G1X115300Y6361D2*
G1X106300Y6361D1*
G1X106300Y24361D2*
G1X115300Y24361D1*
G1X97300Y31861D2*
G1X93550Y31861D1*
G1X97300Y43861D2*
G1X97300Y31861D1*
G1X93400Y48661D2*
G1X93400Y27061D1*
G1X93550Y43861D2*
G1X97300Y43861D1*
G1X101800Y60661D2*
G1X101800Y87061D1*
G1X89200Y154861D2*
G1X89200Y127261D1*
G1X112300Y-61139D2*
G1X112300Y-70139D1*
G1X124300Y-49139D2*
G1X124300Y-31139D1*
G1X133300Y-49139D2*
G1X124300Y-49139D1*
G1X116800Y-22139D2*
G1X116800Y-43139D1*
G1X124300Y-31139D2*
G1X133300Y-31139D1*
G1X124300Y-10139D2*
G1X124300Y7861D1*
G1X133300Y-10139D2*
G1X124300Y-10139D1*
G1X115300Y24361D2*
G1X115300Y6361D1*
G1X124300Y7861D2*
G1X133300Y7861D1*
G1X204550Y-104639D2*
G1X140050Y-104639D1*
G1X140050Y-23639D1*
G1X133300Y-31139D2*
G1X133300Y-49139D1*
G1X133300Y7861D2*
G1X133300Y-10139D1*
G1X140050Y-23639D2*
G1X204550Y-23639D1*
G1X204550Y-1889D2*
G1X140050Y-1889D1*
G1X140050Y79111D1*
G1X204550Y79111D1*
G1X204550Y100861D2*
G1X140050Y100861D1*
G1X140050Y181861D1*
G1X204550Y181861D1*
G1X204550Y-23639D2*
G1X204550Y-104639D1*
G1X204550Y79111D2*
G1X204550Y-1889D1*
G1X204550Y181861D2*
G1X204550Y100861D1*
G1X287500Y-618000D2*
G1X287500Y-610000D1*
G1X290000Y-610000D1*
G1X290800Y-610400D1*
G1X291300Y-610933D1*
G1X291500Y-612000D1*
G1X291300Y-613067D1*
G1X290700Y-613733D1*
G1X290000Y-614133D1*
G1X287500Y-614133D1*
G1X290000Y-614133D2*
G1X291500Y-618000D1*
G1X296300Y-610000D2*
G1X298700Y-610000D1*
G1X297500Y-610000D2*
G1X297500Y-618000D1*
G1X296300Y-618000D2*
G1X298700Y-618000D1*
G1X306100Y-614000D2*
G1X308100Y-614000D1*
G1X308100Y-616400D1*
G1X307500Y-617200D1*
G1X306800Y-617733D1*
G1X305800Y-618000D1*
G1X304800Y-617733D1*
G1X304100Y-617200D1*
G1X303500Y-616400D1*
G1X303100Y-615467D1*
G1X302900Y-614400D1*
G1X302900Y-613467D1*
G1X303100Y-612667D1*
G1X303500Y-611733D1*
G1X304100Y-610933D1*
G1X304700Y-610400D1*
G1X305500Y-610000D1*
G1X306200Y-610000D1*
G1X307000Y-610267D1*
G1X307600Y-610800D1*
G1X313500Y-618000D2*
G1X312700Y-617867D1*
G1X312000Y-617333D1*
G1X311400Y-616533D1*
G1X311000Y-615600D1*
G1X310800Y-614533D1*
G1X310800Y-613467D1*
G1X311000Y-612400D1*
G1X311400Y-611467D1*
G1X312000Y-610667D1*
G1X312700Y-610133D1*
G1X313500Y-610000D1*
G1X314300Y-610133D1*
G1X315000Y-610667D1*
G1X315600Y-611467D1*
G1X316000Y-612400D1*
G1X316200Y-613467D1*
G1X316200Y-614533D1*
G1X316000Y-615600D1*
G1X315600Y-616533D1*
G1X315000Y-617333D1*
G1X314300Y-617867D1*
G1X313500Y-618000D1*
G1X326900Y-618000D2*
G1X326900Y-610000D1*
G1X329500Y-616667D1*
G1X332100Y-610000D1*
G1X332100Y-618000D1*
G1X337500Y-618267D2*
G1X337300Y-618133D1*
G1X337300Y-617867D1*
G1X337500Y-617733D1*
G1X337700Y-617867D1*
G1X337700Y-618133D1*
G1X337500Y-618267D1*
G1X343500Y-618000D2*
G1X343500Y-610000D1*
G1X346000Y-610000D1*
G1X346800Y-610400D1*
G1X347300Y-610933D1*
G1X347500Y-612000D1*
G1X347300Y-613067D1*
G1X346700Y-613733D1*
G1X346000Y-614133D1*
G1X343500Y-614133D1*
G1X346000Y-614133D2*
G1X347500Y-618000D1*
G1X353500Y-618267D2*
G1X353300Y-618133D1*
G1X353300Y-617867D1*
G1X353500Y-617733D1*
G1X353700Y-617867D1*
G1X353700Y-618133D1*
G1X353500Y-618267D1*
G1X417983Y-48210D2*
G1X356567Y-48210D1*
G1X359015Y-42192D2*
G75*
G3X359015Y-42192I3060J0D1*
G74*
G1X356567Y-48210D2*
G1X356567Y24426D1*
G1X417983Y24426D1*
G1X417983Y70290D2*
G1X356567Y70290D1*
G1X359015Y76308D2*
G75*
G3X359015Y76308I3060J0D1*
G74*
G1X356567Y70290D2*
G1X356567Y142926D1*
G1X417983Y142926D1*
G1X394300Y-618167D2*
G1X394300Y-610167D1*
G1X393100Y-611767D1*
G1X393100Y-618167D2*
G1X395500Y-618167D1*
G1X402100Y-618167D2*
G1X402300Y-616434D1*
G1X402600Y-614967D1*
G1X403000Y-613634D1*
G1X403500Y-612167D1*
G1X404300Y-610167D1*
G1X400300Y-610167D1*
G1X409000Y-615500D2*
G1X411600Y-615500D1*
G1X416300Y-616567D2*
G1X416800Y-617367D1*
G1X417400Y-617900D1*
G1X418100Y-618167D1*
G1X418900Y-617900D1*
G1X419500Y-617367D1*
G1X420100Y-616567D1*
G1X420300Y-615500D1*
G1X420300Y-610167D1*
G1X424600Y-612834D2*
G1X424600Y-616567D1*
G1X425000Y-617500D1*
G1X425600Y-618034D1*
G1X426300Y-618167D1*
G1X427000Y-618034D1*
G1X427600Y-617500D1*
G1X428000Y-616567D1*
G1X428000Y-618167D2*
G1X428000Y-612834D1*
G1X434300Y-618167D2*
G1X434300Y-610167D1*
G1X440200Y-620567D2*
G1X440800Y-620834D1*
G1X441600Y-620567D1*
G1X442100Y-620034D1*
G1X442500Y-619367D1*
G1X443100Y-617234D1*
G1X444400Y-612834D1*
G1X441200Y-612834D2*
G1X443100Y-617234D1*
G1X449000Y-615500D2*
G1X451600Y-615500D1*
G1X456400Y-611500D2*
G1X457000Y-610700D1*
G1X457700Y-610300D1*
G1X458500Y-610167D1*
G1X459500Y-610434D1*
G1X460200Y-611100D1*
G1X460400Y-611900D1*
G1X460300Y-612701D1*
G1X459900Y-613367D1*
G1X457900Y-614700D1*
G1X457000Y-615634D1*
G1X456400Y-616967D1*
G1X456200Y-618167D1*
G1X460400Y-618167D1*
G1X466300Y-610167D2*
G1X465500Y-610434D1*
G1X464900Y-611100D1*
G1X464500Y-611900D1*
G1X464200Y-612967D1*
G1X464100Y-614167D1*
G1X464200Y-615367D1*
G1X464500Y-616434D1*
G1X464900Y-617234D1*
G1X465500Y-617900D1*
G1X466300Y-618167D1*
G1X467100Y-617900D1*
G1X467700Y-617234D1*
G1X468100Y-616434D1*
G1X468400Y-615367D1*
G1X468500Y-614167D1*
G1X468400Y-612967D1*
G1X468100Y-611900D1*
G1X467700Y-611100D1*
G1X467100Y-610434D1*
G1X466300Y-610167D1*
G1X474300Y-618167D2*
G1X474300Y-610167D1*
G1X473100Y-611767D1*
G1X473100Y-618167D2*
G1X475500Y-618167D1*
G1X482300Y-618167D2*
G1X483000Y-618034D1*
G1X483800Y-617634D1*
G1X484300Y-616967D1*
G1X484500Y-616034D1*
G1X484300Y-615101D1*
G1X483700Y-614300D1*
G1X482800Y-613900D1*
G1X481800Y-613900D1*
G1X481200Y-613634D1*
G1X480700Y-612967D1*
G1X480500Y-612034D1*
G1X480800Y-611100D1*
G1X481500Y-610434D1*
G1X482300Y-610167D1*
G1X483100Y-610434D1*
G1X483800Y-611100D1*
G1X484100Y-612034D1*
G1X483900Y-612967D1*
G1X483400Y-613634D1*
G1X482800Y-613900D1*
G1X481800Y-613900D1*
G1X480900Y-614300D1*
G1X480300Y-615101D1*
G1X480100Y-616034D1*
G1X480300Y-616967D1*
G1X480800Y-617634D1*
G1X481600Y-618034D1*
G1X482300Y-618167D1*
G1X417983Y24426D2*
G1X417983Y-48210D1*
G1X417983Y142926D2*
G1X417983Y70290D1*
G1X525983Y-48210D2*
G1X464567Y-48210D1*
G1X467015Y-42192D2*
G75*
G3X467015Y-42192I3060J0D1*
G74*
G1X464567Y-48210D2*
G1X464567Y24426D1*
G1X525983Y24426D1*
G1X525983Y70290D2*
G1X464567Y70290D1*
G1X467015Y76308D2*
G75*
G3X467015Y76308I3060J0D1*
G74*
G1X464567Y70290D2*
G1X464567Y142926D1*
G1X525983Y142926D1*
G1X525983Y24426D2*
G1X525983Y-48210D1*
G1X525983Y142926D2*
G1X525983Y70290D1*
G1X633983Y-48210D2*
G1X572567Y-48210D1*
G1X575015Y-42192D2*
G75*
G3X575015Y-42192I3060J0D1*
G74*
G1X572567Y-48210D2*
G1X572567Y24426D1*
G1X633983Y24426D1*
G1X633983Y70290D2*
G1X572567Y70290D1*
G1X575015Y76308D2*
G75*
G3X575015Y76308I3060J0D1*
G74*
G1X572567Y70290D2*
G1X572567Y142926D1*
G1X633983Y142926D1*
G1X666275Y-98892D2*
G1X606275Y-98892D1*
G1X606275Y-68892D1*
G1X666275Y-68892D1*
G1X633983Y24426D2*
G1X633983Y-48210D1*
G1X633983Y142926D2*
G1X633983Y70290D1*
G1X666275Y-68892D2*
G1X666275Y-98892D1*
G1X666575Y-25392D2*
G1X692975Y-25392D1*
G1X666575Y-10392D2*
G1X666575Y-25392D1*
G1X666575Y-4392D2*
G1X692975Y-4392D1*
G1X692975Y-10392D2*
G1X666575Y-10392D1*
G1X666575Y10608D2*
G1X666575Y-4392D1*
G1X692975Y10608D2*
G1X666575Y10608D1*
G1X666575Y16608D2*
G1X692975Y16608D1*
G1X666575Y31608D2*
G1X666575Y16608D1*
G1X692975Y31608D2*
G1X666575Y31608D1*
G1X692975Y52608D2*
G1X666575Y52608D1*
G1X666575Y37608D2*
G1X692975Y37608D1*
G1X666575Y52608D2*
G1X666575Y37608D1*
G1X692975Y73608D2*
G1X666575Y73608D1*
G1X666575Y58608D2*
G1X692975Y58608D1*
G1X666575Y73608D2*
G1X666575Y58608D1*
G1X692975Y94608D2*
G1X666575Y94608D1*
G1X666575Y79608D2*
G1X692975Y79608D1*
G1X666575Y94608D2*
G1X666575Y79608D1*
G1X692975Y-25392D2*
G1X692975Y-10392D1*
G1X692975Y-4392D2*
G1X692975Y10608D1*
G1X692975Y16608D2*
G1X692975Y31608D1*
G1X692975Y37608D2*
G1X692975Y52608D1*
G1X692975Y58608D2*
G1X692975Y73608D1*
G1X692975Y79608D2*
G1X692975Y94608D1*
G1X845050Y-554567D2*
G1X845650Y-555500D1*
G1X846450Y-556034D1*
G1X847350Y-556167D1*
G1X848150Y-556034D1*
G1X848950Y-555367D1*
G1X849450Y-554567D1*
G1X849550Y-553767D1*
G1X849350Y-552834D1*
G1X848650Y-552167D1*
G1X847950Y-551900D1*
G1X847050Y-551900D1*
G1X847950Y-551900D2*
G1X848550Y-551500D1*
G1X849050Y-550834D1*
G1X849250Y-550034D1*
G1X849050Y-549234D1*
G1X848550Y-548567D1*
G1X847650Y-548167D1*
G1X846750Y-548300D1*
G1X845850Y-548834D1*
G1X863250Y-556434D2*
G1X863050Y-556300D1*
G1X863050Y-556034D1*
G1X863250Y-555900D1*
G1X863450Y-556034D1*
G1X863450Y-556300D1*
G1X863250Y-556434D1*
G1X863250Y-552834D2*
G1X863050Y-552700D1*
G1X863050Y-552434D1*
G1X863250Y-552300D1*
G1X863450Y-552434D1*
G1X863450Y-552700D1*
G1X863250Y-552834D1*
G1X879250Y-556167D2*
G1X879250Y-548167D1*
G1X878050Y-549767D1*
G1X878050Y-556167D2*
G1X880450Y-556167D1*
G1X912500Y-556167D2*
G1X912500Y-548167D1*
G1X915000Y-548167D1*
G1X915800Y-548567D1*
G1X916300Y-549100D1*
G1X916500Y-550167D1*
G1X916300Y-551234D1*
G1X915700Y-551900D1*
G1X915000Y-552300D1*
G1X912500Y-552300D1*
G1X915000Y-552300D2*
G1X916500Y-556167D1*
G1X930500Y-556167D2*
G1X930500Y-548167D1*
G1X929300Y-549767D1*
G1X929300Y-556167D2*
G1X931700Y-556167D1*
G1X938500Y-556434D2*
G1X938300Y-556300D1*
G1X938300Y-556034D1*
G1X938500Y-555900D1*
G1X938700Y-556034D1*
G1X938700Y-556300D1*
G1X938500Y-556434D1*
G1X946500Y-548167D2*
G1X945700Y-548434D1*
G1X945100Y-549100D1*
G1X944700Y-549900D1*
G1X944400Y-550967D1*
G1X944300Y-552167D1*
G1X944400Y-553367D1*
G1X944700Y-554434D1*
G1X945100Y-555234D1*
G1X945700Y-555900D1*
G1X946500Y-556167D1*
G1X947300Y-555900D1*
G1X947900Y-555234D1*
G1X948300Y-554434D1*
G1X948600Y-553367D1*
G1X948700Y-552167D1*
G1X948600Y-550967D1*
G1X948300Y-549900D1*
G1X947900Y-549100D1*
G1X947300Y-548434D1*
G1X946500Y-548167D1*
G1X260005Y-497001D2*
G54D19*
G1X262232Y-498875D1*
G1X264737Y-500000D1*
G1X266963Y-500000D1*
G1X269190Y-498875D1*
G1X270860Y-497001D1*
G1X271695Y-494375D1*
G1X271138Y-491750D1*
G1X269747Y-489500D1*
G1X267242Y-488000D1*
G1X263902Y-487250D1*
G1X261953Y-485750D1*
G1X261118Y-483125D1*
G1X261675Y-480500D1*
G1X263066Y-478625D1*
G1X265015Y-477500D1*
G1X266963Y-477500D1*
G1X268912Y-478250D1*
G1X270582Y-480125D1*
G1X288150Y-477500D2*
G1X288150Y-500000D1*
G1X281748Y-477500D2*
G1X294552Y-477500D1*
G1X303213Y-500000D2*
G1X303213Y-477500D1*
G1X310450Y-496250D1*
G1X317687Y-477500D1*
G1X317687Y-500000D1*
G1X324750Y-490000D2*
G1X327750Y-490000D1*
G1X326250Y-490000D2*
G1X326250Y-500000D1*
G1X324750Y-500000D2*
G1X327750Y-500000D1*
G1X339000Y-490833D2*
G1X338250Y-490333D1*
G1X337375Y-490000D1*
G1X336375Y-490000D1*
G1X335250Y-490500D1*
G1X334375Y-491333D1*
G1X333750Y-492333D1*
G1X333250Y-494000D1*
G1X333125Y-495500D1*
G1X333375Y-497000D1*
G1X333750Y-498000D1*
G1X334500Y-499000D1*
G1X335375Y-499667D1*
G1X336250Y-500000D1*
G1X337125Y-500000D1*
G1X338000Y-499667D1*
G1X338750Y-499167D1*
G1X339375Y-498500D1*
G1X343750Y-500000D2*
G1X343750Y-490000D1*
G1X346875Y-490000D1*
G1X347875Y-490500D1*
G1X348500Y-491167D1*
G1X348750Y-492500D1*
G1X348500Y-493833D1*
G1X347750Y-494667D1*
G1X346875Y-495167D1*
G1X343750Y-495167D1*
G1X346875Y-495167D2*
G1X348750Y-500000D1*
G1X356250Y-500000D2*
G1X355250Y-499833D1*
G1X354375Y-499167D1*
G1X353625Y-498167D1*
G1X353125Y-497000D1*
G1X352875Y-495667D1*
G1X352875Y-494333D1*
G1X353125Y-493000D1*
G1X353625Y-491833D1*
G1X354375Y-490833D1*
G1X355250Y-490167D1*
G1X356250Y-490000D1*
G1X357250Y-490167D1*
G1X358125Y-490833D1*
G1X358875Y-491833D1*
G1X359375Y-493000D1*
G1X359625Y-494333D1*
G1X359625Y-495667D1*
G1X359375Y-497000D1*
G1X358875Y-498167D1*
G1X358125Y-499167D1*
G1X357250Y-499833D1*
G1X356250Y-500000D1*
G1X368750Y-500000D2*
G1X363750Y-500000D1*
G1X363750Y-490000D1*
G1X368750Y-490000D1*
G1X366750Y-494833D2*
G1X363750Y-494833D1*
G1X373750Y-490000D2*
G1X373750Y-500000D1*
G1X378750Y-500000D1*
G1X388750Y-500000D2*
G1X383750Y-500000D1*
G1X383750Y-490000D1*
G1X388750Y-490000D1*
G1X386750Y-494833D2*
G1X383750Y-494833D1*
G1X399000Y-490833D2*
G1X398250Y-490333D1*
G1X397375Y-490000D1*
G1X396375Y-490000D1*
G1X395250Y-490500D1*
G1X394375Y-491333D1*
G1X393750Y-492333D1*
G1X393250Y-494000D1*
G1X393125Y-495500D1*
G1X393375Y-497000D1*
G1X393750Y-498000D1*
G1X394500Y-499000D1*
G1X395375Y-499667D1*
G1X396250Y-500000D1*
G1X397125Y-500000D1*
G1X398000Y-499667D1*
G1X398750Y-499167D1*
G1X399375Y-498500D1*
G1X406250Y-490000D2*
G1X406250Y-500000D1*
G1X403375Y-490000D2*
G1X409125Y-490000D1*
G1X413750Y-500000D2*
G1X413750Y-490000D1*
G1X416875Y-490000D1*
G1X417875Y-490500D1*
G1X418500Y-491167D1*
G1X418750Y-492500D1*
G1X418500Y-493833D1*
G1X417750Y-494667D1*
G1X416875Y-495167D1*
G1X413750Y-495167D1*
G1X416875Y-495167D2*
G1X418750Y-500000D1*
G1X426250Y-500000D2*
G1X425250Y-499833D1*
G1X424375Y-499167D1*
G1X423625Y-498167D1*
G1X423125Y-497000D1*
G1X422875Y-495667D1*
G1X422875Y-494333D1*
G1X423125Y-493000D1*
G1X423625Y-491833D1*
G1X424375Y-490833D1*
G1X425250Y-490167D1*
G1X426250Y-490000D1*
G1X427250Y-490167D1*
G1X428125Y-490833D1*
G1X428875Y-491833D1*
G1X429375Y-493000D1*
G1X429625Y-494333D1*
G1X429625Y-495667D1*
G1X429375Y-497000D1*
G1X428875Y-498167D1*
G1X428125Y-499167D1*
G1X427250Y-499833D1*
G1X426250Y-500000D1*
G1X433375Y-500000D2*
G1X433375Y-490000D1*
G1X439125Y-500000D1*
G1X439125Y-490000D1*
G1X444750Y-490000D2*
G1X447750Y-490000D1*
G1X446250Y-490000D2*
G1X446250Y-500000D1*
G1X444750Y-500000D2*
G1X447750Y-500000D1*
G1X459000Y-490833D2*
G1X458250Y-490333D1*
G1X457375Y-490000D1*
G1X456375Y-490000D1*
G1X455250Y-490500D1*
G1X454375Y-491333D1*
G1X453750Y-492333D1*
G1X453250Y-494000D1*
G1X453125Y-495500D1*
G1X453375Y-497000D1*
G1X453750Y-498000D1*
G1X454500Y-499000D1*
G1X455375Y-499667D1*
G1X456250Y-500000D1*
G1X457125Y-500000D1*
G1X458000Y-499667D1*
G1X458750Y-499167D1*
G1X459375Y-498500D1*
G1X463625Y-498667D2*
G1X464625Y-499500D1*
G1X465750Y-500000D1*
G1X466750Y-500000D1*
G1X467750Y-499500D1*
G1X468500Y-498667D1*
G1X468875Y-497500D1*
G1X468625Y-496334D1*
G1X468000Y-495333D1*
G1X466875Y-494667D1*
G1X465375Y-494333D1*
G1X464500Y-493667D1*
G1X464125Y-492500D1*
G1X464375Y-491333D1*
G1X465000Y-490500D1*
G1X465875Y-490000D1*
G1X466750Y-490000D1*
G1X467625Y-490333D1*
G1X468375Y-491167D1*
G1X569375Y-504500D2*
G1X572500Y-494500D1*
G1X575625Y-504500D1*
G1X574500Y-501000D2*
G1X570500Y-501000D1*
G1X579875Y-503167D2*
G1X580875Y-504000D1*
G1X582000Y-504500D1*
G1X583000Y-504500D1*
G1X584000Y-504000D1*
G1X584750Y-503167D1*
G1X585125Y-502000D1*
G1X584875Y-500834D1*
G1X584250Y-499833D1*
G1X583125Y-499167D1*
G1X581625Y-498833D1*
G1X580750Y-498167D1*
G1X580375Y-497000D1*
G1X580625Y-495833D1*
G1X581250Y-495000D1*
G1X582125Y-494500D1*
G1X583000Y-494500D1*
G1X583875Y-494833D1*
G1X584625Y-495667D1*
G1X589875Y-503167D2*
G1X590875Y-504000D1*
G1X592000Y-504500D1*
G1X593000Y-504500D1*
G1X594000Y-504000D1*
G1X594750Y-503167D1*
G1X595125Y-502000D1*
G1X594875Y-500834D1*
G1X594250Y-499833D1*
G1X593125Y-499167D1*
G1X591625Y-498833D1*
G1X590750Y-498167D1*
G1X590375Y-497000D1*
G1X590625Y-495833D1*
G1X591250Y-495000D1*
G1X592125Y-494500D1*
G1X593000Y-494500D1*
G1X593875Y-494833D1*
G1X594625Y-495667D1*
G1X605000Y-504500D2*
G1X600000Y-504500D1*
G1X600000Y-494500D1*
G1X605000Y-494500D1*
G1X603000Y-499333D2*
G1X600000Y-499333D1*
G1X609250Y-504500D2*
G1X609250Y-494500D1*
G1X612500Y-502833D1*
G1X615750Y-494500D1*
G1X615750Y-504500D1*
G1X623500Y-499167D2*
G1X624000Y-498667D1*
G1X624375Y-497834D1*
G1X624625Y-496667D1*
G1X624375Y-495667D1*
G1X623875Y-495000D1*
G1X623000Y-494500D1*
G1X619625Y-494500D1*
G1X619625Y-504500D1*
G1X623750Y-504500D1*
G1X624625Y-503833D1*
G1X625125Y-502833D1*
G1X625375Y-501667D1*
G1X625125Y-500500D1*
G1X624375Y-499500D1*
G1X623500Y-499167D1*
G1X619625Y-499167D1*
G1X630000Y-494500D2*
G1X630000Y-504500D1*
G1X635000Y-504500D1*
G1X642500Y-504500D2*
G1X642500Y-500000D1*
G1X640000Y-494500D1*
G1X645000Y-494500D2*
G1X642500Y-500000D1*
G1X659750Y-504500D2*
G1X659750Y-494500D1*
G1X662250Y-494500D1*
G1X663250Y-495000D1*
G1X664000Y-495667D1*
G1X664625Y-496667D1*
G1X665125Y-497834D1*
G1X665250Y-499500D1*
G1X665125Y-501167D1*
G1X664625Y-502333D1*
G1X664000Y-503334D1*
G1X663250Y-504000D1*
G1X662250Y-504500D1*
G1X659750Y-504500D1*
G1X670000Y-504500D2*
G1X670000Y-494500D1*
G1X673125Y-494500D1*
G1X674125Y-495000D1*
G1X674750Y-495667D1*
G1X675000Y-497000D1*
G1X674750Y-498333D1*
G1X674000Y-499167D1*
G1X673125Y-499667D1*
G1X670000Y-499667D1*
G1X673125Y-499667D2*
G1X675000Y-504500D1*
G1X679375Y-504500D2*
G1X682500Y-494500D1*
G1X685625Y-504500D1*
G1X684500Y-501000D2*
G1X680500Y-501000D1*
G1X688750Y-494500D2*
G1X690500Y-504500D1*
G1X692500Y-494500D1*
G1X694500Y-504500D1*
G1X696250Y-494500D1*
G1X701000Y-494500D2*
G1X704000Y-494500D1*
G1X702500Y-494500D2*
G1X702500Y-504500D1*
G1X701000Y-504500D2*
G1X704000Y-504500D1*
G1X709625Y-504500D2*
G1X709625Y-494500D1*
G1X715375Y-504500D1*
G1X715375Y-494500D1*
G1X723250Y-499500D2*
G1X725750Y-499500D1*
G1X725750Y-502500D1*
G1X725000Y-503500D1*
G1X724125Y-504167D1*
G1X722875Y-504500D1*
G1X721625Y-504167D1*
G1X720750Y-503500D1*
G1X720000Y-502500D1*
G1X719500Y-501333D1*
G1X719250Y-500000D1*
G1X719250Y-498833D1*
G1X719500Y-497834D1*
G1X720000Y-496667D1*
G1X720750Y-495667D1*
G1X721500Y-495000D1*
G1X722500Y-494500D1*
G1X723375Y-494500D1*
G1X724375Y-494833D1*
G1X725125Y-495500D1*
G1X798625Y-521667D2*
G1X799625Y-522500D1*
G1X800750Y-523000D1*
G1X801750Y-523000D1*
G1X802750Y-522500D1*
G1X803500Y-521667D1*
G1X803875Y-520500D1*
G1X803625Y-519334D1*
G1X803000Y-518333D1*
G1X801875Y-517667D1*
G1X800375Y-517333D1*
G1X799500Y-516667D1*
G1X799125Y-515500D1*
G1X799375Y-514333D1*
G1X800000Y-513500D1*
G1X800875Y-513000D1*
G1X801750Y-513000D1*
G1X802625Y-513333D1*
G1X803375Y-514167D1*
G1X811250Y-513000D2*
G1X811250Y-523000D1*
G1X808375Y-513000D2*
G1X814125Y-513000D1*
G1X823750Y-523000D2*
G1X818750Y-523000D1*
G1X818750Y-513000D1*
G1X823750Y-513000D1*
G1X821750Y-517833D2*
G1X818750Y-517833D1*
G1X828125Y-513000D2*
G1X831250Y-523000D1*
G1X834375Y-513000D1*
G1X838125Y-523000D2*
G1X841250Y-513000D1*
G1X844375Y-523000D1*
G1X843250Y-519500D2*
G1X839250Y-519500D1*
G1X848750Y-513000D2*
G1X848750Y-523000D1*
G1X853750Y-523000D1*
G1X859625Y-519667D2*
G1X862875Y-519667D1*
G1X873750Y-523000D2*
G1X868750Y-523000D1*
G1X868750Y-513000D1*
G1X873750Y-513000D1*
G1X871750Y-517833D2*
G1X868750Y-517833D1*
G1X878625Y-521667D2*
G1X879625Y-522500D1*
G1X880750Y-523000D1*
G1X881750Y-523000D1*
G1X882750Y-522500D1*
G1X883500Y-521667D1*
G1X883875Y-520500D1*
G1X883625Y-519334D1*
G1X883000Y-518333D1*
G1X881875Y-517667D1*
G1X880375Y-517333D1*
G1X879500Y-516667D1*
G1X879125Y-515500D1*
G1X879375Y-514333D1*
G1X880000Y-513500D1*
G1X880875Y-513000D1*
G1X881750Y-513000D1*
G1X882625Y-513333D1*
G1X883375Y-514167D1*
G1X894000Y-513833D2*
G1X893250Y-513333D1*
G1X892375Y-513000D1*
G1X891375Y-513000D1*
G1X890250Y-513500D1*
G1X889375Y-514333D1*
G1X888750Y-515333D1*
G1X888250Y-517000D1*
G1X888125Y-518500D1*
G1X888375Y-520000D1*
G1X888750Y-521000D1*
G1X889500Y-522000D1*
G1X890375Y-522667D1*
G1X891250Y-523000D1*
G1X892125Y-523000D1*
G1X893000Y-522667D1*
G1X893750Y-522167D1*
G1X894375Y-521500D1*
G1X901250Y-513000D2*
G1X900250Y-513333D1*
G1X899500Y-514167D1*
G1X899000Y-515167D1*
G1X898625Y-516500D1*
G1X898500Y-518000D1*
G1X898625Y-519500D1*
G1X899000Y-520833D1*
G1X899500Y-521834D1*
G1X900250Y-522667D1*
G1X901250Y-523000D1*
G1X902250Y-522667D1*
G1X903000Y-521834D1*
G1X903500Y-520833D1*
G1X903875Y-519500D1*
G1X904000Y-518000D1*
G1X903875Y-516500D1*
G1X903500Y-515167D1*
G1X903000Y-514167D1*
G1X902250Y-513333D1*
G1X901250Y-513000D1*
G1X911250Y-513000D2*
G1X910250Y-513333D1*
G1X909500Y-514167D1*
G1X909000Y-515167D1*
G1X908625Y-516500D1*
G1X908500Y-518000D1*
G1X908625Y-519500D1*
G1X909000Y-520833D1*
G1X909500Y-521834D1*
G1X910250Y-522667D1*
G1X911250Y-523000D1*
G1X912250Y-522667D1*
G1X913000Y-521834D1*
G1X913500Y-520833D1*
G1X913875Y-519500D1*
G1X914000Y-518000D1*
G1X913875Y-516500D1*
G1X913500Y-515167D1*
G1X913000Y-514167D1*
G1X912250Y-513333D1*
G1X911250Y-513000D1*
G1X918875Y-514667D2*
G1X919625Y-513667D1*
G1X920500Y-513167D1*
G1X921500Y-513000D1*
G1X922750Y-513333D1*
G1X923625Y-514167D1*
G1X923875Y-515167D1*
G1X923750Y-516167D1*
G1X923250Y-517000D1*
G1X920750Y-518667D1*
G1X919625Y-519833D1*
G1X918875Y-521500D1*
G1X918625Y-523000D1*
G1X923875Y-523000D1*
G1X928125Y-513000D2*
G1X931250Y-523000D1*
G1X934375Y-513000D1*
G1X941250Y-523000D2*
G1X941250Y-513000D1*
G1X939750Y-515000D1*
G1X939750Y-523000D2*
G1X942750Y-523000D1*
G1X849375Y-485167D2*
G1X850375Y-486000D1*
G1X851500Y-486500D1*
G1X852500Y-486500D1*
G1X853500Y-486000D1*
G1X854250Y-485167D1*
G1X854625Y-484000D1*
G1X854375Y-482834D1*
G1X853750Y-481833D1*
G1X852625Y-481167D1*
G1X851125Y-480833D1*
G1X850250Y-480167D1*
G1X849875Y-479000D1*
G1X850125Y-477833D1*
G1X850750Y-477000D1*
G1X851625Y-476500D1*
G1X852500Y-476500D1*
G1X853375Y-476833D1*
G1X854125Y-477667D1*
G1X862000Y-476500D2*
G1X862000Y-486500D1*
G1X859125Y-476500D2*
G1X864875Y-476500D1*
G1X869375Y-485167D2*
G1X870375Y-486000D1*
G1X871500Y-486500D1*
G1X872500Y-486500D1*
G1X873500Y-486000D1*
G1X874250Y-485167D1*
G1X874625Y-484000D1*
G1X874375Y-482834D1*
G1X873750Y-481833D1*
G1X872625Y-481167D1*
G1X871125Y-480833D1*
G1X870250Y-480167D1*
G1X869875Y-479000D1*
G1X870125Y-477833D1*
G1X870750Y-477000D1*
G1X871625Y-476500D1*
G1X872500Y-476500D1*
G1X873375Y-476833D1*
G1X874125Y-477667D1*
G1X879500Y-486500D2*
G1X879500Y-476500D1*
G1X882500Y-476500D1*
G1X883500Y-477000D1*
G1X884250Y-478167D1*
G1X884500Y-479500D1*
G1X884250Y-480833D1*
G1X883625Y-481833D1*
G1X882500Y-482334D1*
G1X879500Y-482334D1*
G1X890500Y-476500D2*
G1X893500Y-476500D1*
G1X892000Y-476500D2*
G1X892000Y-486500D1*
G1X890500Y-486500D2*
G1X893500Y-486500D1*
G1X899125Y-486500D2*
G1X899125Y-476500D1*
G1X904875Y-486500D1*
G1X904875Y-476500D1*
M2*
