*
%LPD*%
%LNSTEVAL-ESC002V1-SSB*%
%FSLAX25Y25*%
%MOIN*%
%AD*%
%ADD10C,0.015*%
%ADD18C,0.006*%
%ADD80C,0.0065*%
%ADD595C,0.007874*%
%ADD601C,0.005906*%
G54D10*
%SRX1Y1I0.0J0.0*%
G1X0Y15000D2*
G1X0Y0D1*
G1X15000Y0D1*
G1X15000Y98500D2*
G1X0Y98500D1*
G1X0Y83500D1*
G1X144500Y0D2*
G1X159500Y0D1*
G1X159500Y15000D1*
G1X159500Y83500D2*
G1X159500Y98500D1*
G1X144500Y98500D1*
G1X15000Y38943D2*
G54D18*
G1X15300Y39143D1*
G1X15650Y39276D1*
G1X16050Y39276D1*
G1X16500Y39076D1*
G1X16850Y38743D1*
G1X17100Y38343D1*
G1X17300Y37676D1*
G1X17350Y37076D1*
G1X17250Y36476D1*
G1X17100Y36076D1*
G1X16800Y35676D1*
G1X16450Y35409D1*
G1X16100Y35276D1*
G1X15750Y35276D1*
G1X15400Y35409D1*
G1X15100Y35609D1*
G1X14850Y35876D1*
G1X12300Y35276D2*
G1X12300Y39276D1*
G1X12900Y38476D1*
G1X12900Y35276D2*
G1X11700Y35276D1*
G1X8500Y35276D2*
G1X8150Y35343D1*
G1X7750Y35543D1*
G1X7500Y35876D1*
G1X7400Y36343D1*
G1X7500Y36809D1*
G1X7800Y37209D1*
G1X8250Y37409D1*
G1X8750Y37409D1*
G1X9050Y37543D1*
G1X9300Y37876D1*
G1X9400Y38343D1*
G1X9250Y38809D1*
G1X8900Y39143D1*
G1X8500Y39276D1*
G1X8100Y39143D1*
G1X7750Y38809D1*
G1X7600Y38343D1*
G1X7700Y37876D1*
G1X7950Y37543D1*
G1X8250Y37409D1*
G1X8750Y37409D1*
G1X9200Y37209D1*
G1X9500Y36809D1*
G1X9600Y36343D1*
G1X9500Y35876D1*
G1X9250Y35543D1*
G1X8850Y35343D1*
G1X8500Y35276D1*
G1X28200Y25167D2*
G1X28500Y25367D1*
G1X28850Y25500D1*
G1X29250Y25500D1*
G1X29700Y25300D1*
G1X30050Y24967D1*
G1X30300Y24567D1*
G1X30500Y23900D1*
G1X30550Y23300D1*
G1X30450Y22700D1*
G1X30300Y22300D1*
G1X30000Y21900D1*
G1X29650Y21633D1*
G1X29300Y21500D1*
G1X28950Y21500D1*
G1X28600Y21633D1*
G1X28300Y21833D1*
G1X28050Y22100D1*
G1X25500Y21500D2*
G1X25500Y25500D1*
G1X26100Y24700D1*
G1X26100Y21500D2*
G1X24900Y21500D1*
G1X22550Y21967D2*
G1X22200Y21633D1*
G1X21800Y21500D1*
G1X21400Y21633D1*
G1X21050Y22033D1*
G1X20800Y22633D1*
G1X20700Y23233D1*
G1X20700Y23967D1*
G1X20800Y24567D1*
G1X21050Y25100D1*
G1X21350Y25367D1*
G1X21700Y25500D1*
G1X22100Y25367D1*
G1X22400Y25100D1*
G1X22600Y24700D1*
G1X22700Y24167D1*
G1X22600Y23700D1*
G1X22350Y23233D1*
G1X22050Y22967D1*
G1X21700Y22900D1*
G1X21300Y23033D1*
G1X21000Y23367D1*
G1X20700Y23967D1*
G1X15200Y45343D2*
G1X15500Y45543D1*
G1X15850Y45676D1*
G1X16250Y45676D1*
G1X16700Y45476D1*
G1X17050Y45143D1*
G1X17300Y44743D1*
G1X17500Y44076D1*
G1X17550Y43476D1*
G1X17450Y42876D1*
G1X17300Y42476D1*
G1X17000Y42076D1*
G1X16650Y41809D1*
G1X16300Y41676D1*
G1X15950Y41676D1*
G1X15600Y41809D1*
G1X15300Y42009D1*
G1X15050Y42276D1*
G1X12500Y41676D2*
G1X12500Y45676D1*
G1X13100Y44876D1*
G1X13100Y41676D2*
G1X11900Y41676D1*
G1X8800Y41676D2*
G1X8700Y42543D1*
G1X8550Y43276D1*
G1X8350Y43943D1*
G1X8100Y44676D1*
G1X7700Y45676D1*
G1X9700Y45676D1*
G1X15200Y58343D2*
G1X15500Y58543D1*
G1X15850Y58676D1*
G1X16250Y58676D1*
G1X16700Y58476D1*
G1X17050Y58143D1*
G1X17300Y57743D1*
G1X17500Y57076D1*
G1X17550Y56476D1*
G1X17450Y55876D1*
G1X17300Y55476D1*
G1X17000Y55076D1*
G1X16650Y54809D1*
G1X16300Y54676D1*
G1X15950Y54676D1*
G1X15600Y54809D1*
G1X15300Y55009D1*
G1X15050Y55276D1*
G1X12500Y54676D2*
G1X12500Y58676D1*
G1X13100Y57876D1*
G1X13100Y54676D2*
G1X11900Y54676D1*
G1X9800Y55276D2*
G1X9500Y54943D1*
G1X9150Y54743D1*
G1X8700Y54676D1*
G1X8250Y54809D1*
G1X7900Y55076D1*
G1X7650Y55543D1*
G1X7600Y56076D1*
G1X7700Y56609D1*
G1X7950Y56943D1*
G1X8300Y57209D1*
G1X8650Y57276D1*
G1X9000Y57209D1*
G1X9450Y56943D1*
G1X9300Y58676D1*
G1X7950Y58676D1*
G1X15000Y52943D2*
G1X15300Y53143D1*
G1X15650Y53276D1*
G1X16050Y53276D1*
G1X16500Y53076D1*
G1X16850Y52743D1*
G1X17100Y52343D1*
G1X17300Y51676D1*
G1X17350Y51076D1*
G1X17250Y50476D1*
G1X17100Y50076D1*
G1X16800Y49676D1*
G1X16450Y49409D1*
G1X16100Y49276D1*
G1X15750Y49276D1*
G1X15400Y49409D1*
G1X15100Y49609D1*
G1X14850Y49876D1*
G1X12300Y49276D2*
G1X12300Y53276D1*
G1X12900Y52476D1*
G1X12900Y49276D2*
G1X11700Y49276D1*
G1X9450Y50943D2*
G1X9100Y51409D1*
G1X8800Y51676D1*
G1X8400Y51809D1*
G1X8050Y51676D1*
G1X7800Y51409D1*
G1X7600Y51009D1*
G1X7550Y50543D1*
G1X7600Y50143D1*
G1X7800Y49743D1*
G1X8100Y49409D1*
G1X8450Y49276D1*
G1X8850Y49409D1*
G1X9200Y49809D1*
G1X9400Y50409D1*
G1X9450Y51076D1*
G1X9350Y51943D1*
G1X9200Y52409D1*
G1X8950Y52876D1*
G1X8600Y53209D1*
G1X8250Y53276D1*
G1X7900Y53143D1*
G1X7650Y52809D1*
G1X15200Y63593D2*
G1X15500Y63793D1*
G1X15850Y63926D1*
G1X16250Y63926D1*
G1X16700Y63726D1*
G1X17050Y63393D1*
G1X17300Y62993D1*
G1X17500Y62326D1*
G1X17550Y61726D1*
G1X17450Y61126D1*
G1X17300Y60726D1*
G1X17000Y60326D1*
G1X16650Y60059D1*
G1X16300Y59926D1*
G1X15950Y59926D1*
G1X15600Y60059D1*
G1X15300Y60259D1*
G1X15050Y60526D1*
G1X12500Y59926D2*
G1X12500Y63926D1*
G1X13100Y63126D1*
G1X13100Y59926D2*
G1X11900Y59926D1*
G1X8100Y59926D2*
G1X8100Y63926D1*
G1X9950Y61059D1*
G1X7450Y61059D1*
G1X37300Y16000D2*
G1X37300Y20000D1*
G1X36050Y20000D1*
G1X35650Y19800D1*
G1X35400Y19533D1*
G1X35300Y19000D1*
G1X35400Y18467D1*
G1X35700Y18133D1*
G1X36050Y17933D1*
G1X37300Y17933D1*
G1X36050Y17933D2*
G1X35300Y16000D1*
G1X32500Y16000D2*
G1X32500Y20000D1*
G1X33100Y19200D1*
G1X33100Y16000D2*
G1X31900Y16000D1*
G1X29800Y16800D2*
G1X29500Y16333D1*
G1X29100Y16067D1*
G1X28650Y16000D1*
G1X28250Y16067D1*
G1X27850Y16400D1*
G1X27600Y16800D1*
G1X27550Y17200D1*
G1X27650Y17667D1*
G1X28000Y18000D1*
G1X28350Y18133D1*
G1X28800Y18133D1*
G1X28350Y18133D2*
G1X28050Y18333D1*
G1X27800Y18667D1*
G1X27700Y19067D1*
G1X27800Y19467D1*
G1X28050Y19800D1*
G1X28500Y20000D1*
G1X28950Y19933D1*
G1X29400Y19667D1*
G1X43000Y13500D2*
G1X37000Y13500D1*
G1X43000Y3500D2*
G1X37000Y3500D1*
G1X45300Y20400D2*
G1X46700Y20400D1*
G1X40800Y28200D2*
G1X40800Y20400D1*
G1X41700Y20400D1*
G1X40800Y37800D2*
G1X40800Y32400D1*
G1X41700Y44600D2*
G1X40800Y44600D1*
G1X40800Y42100D1*
G1X46700Y44600D2*
G1X45300Y44600D1*
G1X45300Y59900D2*
G1X46700Y59900D1*
G1X40800Y67700D2*
G1X40800Y59900D1*
G1X41700Y59900D1*
G1X40800Y77300D2*
G1X40800Y71900D1*
G1X41700Y84100D2*
G1X40800Y84100D1*
G1X40800Y81600D1*
G1X46700Y84100D2*
G1X45300Y84100D1*
G1X67900Y20500D2*
G1X68300Y20567D1*
G1X68650Y20833D1*
G1X68950Y21233D1*
G1X69150Y21700D1*
G1X69250Y22233D1*
G1X69250Y22767D1*
G1X69150Y23300D1*
G1X68950Y23767D1*
G1X68650Y24167D1*
G1X68300Y24433D1*
G1X67900Y24500D1*
G1X67500Y24433D1*
G1X67150Y24167D1*
G1X66850Y23767D1*
G1X66650Y23300D1*
G1X66550Y22767D1*
G1X66550Y22233D1*
G1X66650Y21700D1*
G1X66850Y21233D1*
G1X67150Y20833D1*
G1X67500Y20567D1*
G1X67900Y20500D1*
G1X67500Y21567D2*
G1X66900Y20500D1*
G1X63500Y20500D2*
G1X63500Y24500D1*
G1X65350Y21633D1*
G1X62850Y21633D1*
G1X60300Y23500D2*
G1X60600Y23500D1*
G1X60800Y23300D1*
G1X60800Y20900D1*
G1X60300Y20400D1*
G1X55300Y20400D2*
G1X56700Y20400D1*
G1X50300Y20400D2*
G1X51700Y20400D1*
G1X61200Y32400D2*
G1X61200Y37800D1*
G1X61200Y28200D2*
G1X61200Y20400D1*
G1X60300Y20400D1*
G1X60300Y23500D1*
G1X61200Y24400D1*
G1X51300Y44600D2*
G1X50700Y44600D1*
G1X56700Y44600D2*
G1X55300Y44600D1*
G1X61200Y42100D2*
G1X61200Y44600D1*
G1X60300Y44600D1*
G1X66900Y64000D2*
G1X67300Y64067D1*
G1X67650Y64333D1*
G1X67950Y64733D1*
G1X68150Y65200D1*
G1X68250Y65733D1*
G1X68250Y66267D1*
G1X68150Y66800D1*
G1X67950Y67267D1*
G1X67650Y67667D1*
G1X67300Y67933D1*
G1X66900Y68000D1*
G1X66500Y67933D1*
G1X66150Y67667D1*
G1X65850Y67267D1*
G1X65650Y66800D1*
G1X65550Y66267D1*
G1X65550Y65733D1*
G1X65650Y65200D1*
G1X65850Y64733D1*
G1X66150Y64333D1*
G1X66500Y64067D1*
G1X66900Y64000D1*
G1X66500Y65067D2*
G1X65900Y64000D1*
G1X63100Y64000D2*
G1X63100Y68000D1*
G1X63700Y67200D1*
G1X63700Y64000D2*
G1X62500Y64000D1*
G1X60300Y63000D2*
G1X60600Y63000D1*
G1X60800Y62800D1*
G1X60800Y60400D1*
G1X60300Y59900D1*
G1X55300Y59900D2*
G1X56700Y59900D1*
G1X50300Y59900D2*
G1X51700Y59900D1*
G1X61200Y71900D2*
G1X61200Y77300D1*
G1X61200Y67700D2*
G1X61200Y59900D1*
G1X60300Y59900D1*
G1X60300Y63000D1*
G1X61200Y63900D1*
G1X51300Y84100D2*
G1X50700Y84100D1*
G1X56700Y84100D2*
G1X55300Y84100D1*
G1X61200Y81600D2*
G1X61200Y84100D1*
G1X60300Y84100D1*
G1X86300Y20400D2*
G1X87700Y20400D1*
G1X81300Y20400D2*
G1X82700Y20400D1*
G1X76800Y28200D2*
G1X76800Y20400D1*
G1X77700Y20400D1*
G1X76800Y37800D2*
G1X76800Y32400D1*
G1X77700Y44600D2*
G1X76800Y44600D1*
G1X76800Y42100D1*
G1X82700Y44600D2*
G1X81300Y44600D1*
G1X87300Y44600D2*
G1X86700Y44600D1*
G1X86300Y59900D2*
G1X87700Y59900D1*
G1X81300Y59900D2*
G1X82700Y59900D1*
G1X76800Y67700D2*
G1X76800Y59900D1*
G1X77700Y59900D1*
G1X76800Y77300D2*
G1X76800Y71900D1*
G1X72900Y80000D2*
G1X73300Y80067D1*
G1X73650Y80333D1*
G1X73950Y80733D1*
G1X74150Y81200D1*
G1X74250Y81733D1*
G1X74250Y82267D1*
G1X74150Y82800D1*
G1X73950Y83267D1*
G1X73650Y83667D1*
G1X73300Y83933D1*
G1X72900Y84000D1*
G1X72500Y83933D1*
G1X72150Y83667D1*
G1X71850Y83267D1*
G1X71650Y82800D1*
G1X71550Y82267D1*
G1X71550Y81733D1*
G1X71650Y81200D1*
G1X71850Y80733D1*
G1X72150Y80333D1*
G1X72500Y80067D1*
G1X72900Y80000D1*
G1X72500Y81067D2*
G1X71900Y80000D1*
G1X70200Y80800D2*
G1X69900Y80333D1*
G1X69500Y80067D1*
G1X69050Y80000D1*
G1X68650Y80067D1*
G1X68250Y80400D1*
G1X68000Y80800D1*
G1X67950Y81200D1*
G1X68050Y81667D1*
G1X68400Y82000D1*
G1X68750Y82133D1*
G1X69200Y82133D1*
G1X68750Y82133D2*
G1X68450Y82333D1*
G1X68200Y82667D1*
G1X68100Y83067D1*
G1X68200Y83467D1*
G1X68450Y83800D1*
G1X68900Y84000D1*
G1X69350Y83933D1*
G1X69800Y83667D1*
G1X77700Y84100D2*
G1X76800Y84100D1*
G1X76800Y81600D1*
G1X82700Y84100D2*
G1X81300Y84100D1*
G1X87300Y84100D2*
G1X86700Y84100D1*
G1X106500Y20600D2*
G1X106567Y20200D1*
G1X106833Y19850D1*
G1X107233Y19550D1*
G1X107700Y19350D1*
G1X108233Y19250D1*
G1X108767Y19250D1*
G1X109300Y19350D1*
G1X109767Y19550D1*
G1X110167Y19850D1*
G1X110433Y20200D1*
G1X110500Y20600D1*
G1X110433Y21000D1*
G1X110167Y21350D1*
G1X109767Y21650D1*
G1X109300Y21850D1*
G1X108767Y21950D1*
G1X108233Y21950D1*
G1X107700Y21850D1*
G1X107233Y21650D1*
G1X106833Y21350D1*
G1X106567Y21000D1*
G1X106500Y20600D1*
G1X107567Y21000D2*
G1X106500Y21600D1*
G1X107100Y23300D2*
G1X106767Y23600D1*
G1X106567Y23950D1*
G1X106500Y24400D1*
G1X106633Y24850D1*
G1X106900Y25200D1*
G1X107367Y25450D1*
G1X107900Y25500D1*
G1X108433Y25400D1*
G1X108767Y25150D1*
G1X109033Y24800D1*
G1X109100Y24450D1*
G1X109033Y24100D1*
G1X108767Y23650D1*
G1X110500Y23800D1*
G1X110500Y25150D1*
G1X99000Y20600D2*
G1X99067Y20200D1*
G1X99333Y19850D1*
G1X99733Y19550D1*
G1X100200Y19350D1*
G1X100733Y19250D1*
G1X101267Y19250D1*
G1X101800Y19350D1*
G1X102267Y19550D1*
G1X102667Y19850D1*
G1X102933Y20200D1*
G1X103000Y20600D1*
G1X102933Y21000D1*
G1X102667Y21350D1*
G1X102267Y21650D1*
G1X101800Y21850D1*
G1X101267Y21950D1*
G1X100733Y21950D1*
G1X100200Y21850D1*
G1X99733Y21650D1*
G1X99333Y21350D1*
G1X99067Y21000D1*
G1X99000Y20600D1*
G1X100067Y21000D2*
G1X99000Y21600D1*
G1X100667Y23450D2*
G1X101133Y23800D1*
G1X101400Y24100D1*
G1X101533Y24500D1*
G1X101400Y24850D1*
G1X101133Y25100D1*
G1X100733Y25300D1*
G1X100267Y25350D1*
G1X99867Y25300D1*
G1X99467Y25100D1*
G1X99133Y24800D1*
G1X99000Y24450D1*
G1X99133Y24050D1*
G1X99533Y23700D1*
G1X100133Y23500D1*
G1X100800Y23450D1*
G1X101667Y23550D1*
G1X102133Y23700D1*
G1X102600Y23950D1*
G1X102933Y24300D1*
G1X103000Y24650D1*
G1X102867Y25000D1*
G1X102533Y25250D1*
G1X96300Y23500D2*
G1X96600Y23500D1*
G1X96800Y23300D1*
G1X96800Y20900D1*
G1X96300Y20400D1*
G1X91300Y20400D2*
G1X92700Y20400D1*
G1X97200Y32400D2*
G1X97200Y37800D1*
G1X97200Y28200D2*
G1X97200Y20400D1*
G1X96300Y20400D1*
G1X96300Y23500D1*
G1X97200Y24400D1*
G1X92700Y44600D2*
G1X91300Y44600D1*
G1X97200Y42100D2*
G1X97200Y44600D1*
G1X96300Y44600D1*
G1X96300Y63000D2*
G1X96600Y63000D1*
G1X96800Y62800D1*
G1X96800Y60400D1*
G1X96300Y59900D1*
G1X91300Y59900D2*
G1X92700Y59900D1*
G1X97200Y71900D2*
G1X97200Y77300D1*
G1X97200Y67700D2*
G1X97200Y59900D1*
G1X96300Y59900D1*
G1X96300Y63000D1*
G1X97200Y63900D1*
G1X108900Y80000D2*
G1X109300Y80067D1*
G1X109650Y80333D1*
G1X109950Y80733D1*
G1X110150Y81200D1*
G1X110250Y81733D1*
G1X110250Y82267D1*
G1X110150Y82800D1*
G1X109950Y83267D1*
G1X109650Y83667D1*
G1X109300Y83933D1*
G1X108900Y84000D1*
G1X108500Y83933D1*
G1X108150Y83667D1*
G1X107850Y83267D1*
G1X107650Y82800D1*
G1X107550Y82267D1*
G1X107550Y81733D1*
G1X107650Y81200D1*
G1X107850Y80733D1*
G1X108150Y80333D1*
G1X108500Y80067D1*
G1X108900Y80000D1*
G1X108500Y81067D2*
G1X107900Y80000D1*
G1X106050Y83333D2*
G1X105750Y83733D1*
G1X105400Y83933D1*
G1X105000Y84000D1*
G1X104500Y83867D1*
G1X104150Y83533D1*
G1X104050Y83133D1*
G1X104100Y82733D1*
G1X104300Y82400D1*
G1X105300Y81733D1*
G1X105750Y81267D1*
G1X106050Y80600D1*
G1X106150Y80000D1*
G1X104050Y80000D1*
G1X92700Y84100D2*
G1X91300Y84100D1*
G1X97200Y81600D2*
G1X97200Y84100D1*
G1X96300Y84100D1*
G1X127300Y20400D2*
G1X128700Y20400D1*
G1X122300Y20400D2*
G1X123700Y20400D1*
G1X117300Y20400D2*
G1X118700Y20400D1*
G1X112800Y28200D2*
G1X112800Y20400D1*
G1X113700Y20400D1*
G1X112800Y37800D2*
G1X112800Y32400D1*
G1X113700Y44600D2*
G1X112800Y44600D1*
G1X112800Y42100D1*
G1X118700Y44600D2*
G1X117300Y44600D1*
G1X123300Y44600D2*
G1X122700Y44600D1*
G1X128700Y44600D2*
G1X127300Y44600D1*
G1X127300Y59900D2*
G1X128700Y59900D1*
G1X122300Y59900D2*
G1X123700Y59900D1*
G1X117300Y59900D2*
G1X118700Y59900D1*
G1X112800Y67700D2*
G1X112800Y59900D1*
G1X113700Y59900D1*
G1X112800Y77300D2*
G1X112800Y71900D1*
G1X113700Y84100D2*
G1X112800Y84100D1*
G1X112800Y81600D1*
G1X118700Y84100D2*
G1X117300Y84100D1*
G1X123300Y84100D2*
G1X122700Y84100D1*
G1X128700Y84100D2*
G1X127300Y84100D1*
G1X132300Y23500D2*
G1X132600Y23500D1*
G1X132800Y23300D1*
G1X132800Y20900D1*
G1X132300Y20400D1*
G1X133200Y32400D2*
G1X133200Y37800D1*
G1X133200Y28200D2*
G1X133200Y20400D1*
G1X132300Y20400D1*
G1X132300Y23500D1*
G1X133200Y24400D1*
G1X133200Y42100D2*
G1X133200Y44600D1*
G1X132300Y44600D1*
G1X132300Y63000D2*
G1X132600Y63000D1*
G1X132800Y62800D1*
G1X132800Y60400D1*
G1X132300Y59900D1*
G1X133200Y71900D2*
G1X133200Y77300D1*
G1X133200Y67700D2*
G1X133200Y59900D1*
G1X132300Y59900D1*
G1X132300Y63000D1*
G1X133200Y63900D1*
G1X133200Y81600D2*
G1X133200Y84100D1*
G1X132300Y84100D1*
G1X19000Y34000D2*
G54D80*
G1X32000Y34000D1*
G1X32000Y41000D1*
G1X19000Y41000D1*
G1X19000Y34000D1*
G1X19000Y27000D2*
G1X32000Y27000D1*
G1X32000Y34000D1*
G1X19000Y34000D1*
G1X19000Y27000D1*
G1X19000Y41000D2*
G1X32000Y41000D1*
G1X32000Y48000D1*
G1X19000Y48000D1*
G1X19000Y41000D1*
G1X19000Y55000D2*
G1X32000Y55000D1*
G1X32000Y62000D1*
G1X19000Y62000D1*
G1X19000Y55000D1*
G1X19000Y48000D2*
G1X32000Y48000D1*
G1X32000Y55000D1*
G1X19000Y55000D1*
G1X19000Y48000D1*
G1X19000Y62000D2*
G1X32000Y62000D1*
G1X32000Y69000D1*
G1X19000Y69000D1*
G1X19000Y62000D1*
G54D595*
G36*
G1X30142Y93248D2*
G1X39415Y77178D1*
G75*
G2X38750Y75981I-634J-432D1*
G1X20139Y75962D1*
G2X19460Y77140I23J798D1*
G1X28747Y93248D1*
G2X30142Y93248I697J-428D1*
G37*
%LPC*%
G36*
G1X38123Y77127D2*
G1X29444Y92160D1*
G1X20766Y77108D1*
G1X38123Y77127D1*
G37*
%LPD*%
G36*
G1X31959Y86183D2*
G1X31979Y86144D1*
G1X32011Y86080D1*
G1X32043Y86010D1*
G1X32075Y85946D1*
G1X32107Y85876D1*
G1X32139Y85799D1*
G1X32171Y85716D1*
G1X32203Y85632D1*
G1X32235Y85549D1*
G1X32267Y85453D1*
G1X32299Y85364D1*
G1X32324Y85268D1*
G1X32350Y85165D1*
G1X32375Y85063D1*
G1X32395Y84960D1*
G1X32407Y84852D1*
G1X32420Y84743D1*
G1X32427Y84634D1*
G1X32427Y84519D1*
G1X32420Y84410D1*
G1X32414Y84295D1*
G1X32395Y84173D1*
G1X32375Y84058D1*
G1X32343Y83943D1*
G1X32305Y83821D1*
G1X32267Y83700D1*
G1X32222Y83584D1*
G1X32177Y83463D1*
G1X32126Y83341D1*
G1X32068Y83220D1*
G1X32011Y83098D1*
G1X31953Y82976D1*
G1X31895Y82861D1*
G1X31838Y82740D1*
G1X31787Y82618D1*
G1X31729Y82503D1*
G1X31671Y82381D1*
G1X31620Y82266D1*
G1X31569Y82151D1*
G1X31524Y82036D1*
G1X31479Y81920D1*
G1X31441Y81812D1*
G1X31409Y81696D1*
G1X31383Y81588D1*
G1X31358Y81485D1*
G1X31345Y81383D1*
G1X31339Y81280D1*
G1X31332Y81178D1*
G1X31339Y81082D1*
G1X31345Y80986D1*
G1X31358Y80896D1*
G1X31371Y80807D1*
G1X31390Y80717D1*
G1X31415Y80634D1*
G1X31441Y80551D1*
G1X31467Y80474D1*
G1X31499Y80397D1*
G1X31524Y80320D1*
G1X31563Y80244D1*
G1X31588Y80180D1*
G1X31620Y80116D1*
G1X31652Y80058D1*
G1X31684Y79994D1*
G1X31716Y79943D1*
G1X31742Y79885D1*
G1X31774Y79840D1*
G1X31799Y79796D1*
G1X31825Y79751D1*
G1X31844Y79712D1*
G1X31300Y79418D1*
G1X31262Y79495D1*
G1X31217Y79578D1*
G1X31179Y79661D1*
G1X31134Y79744D1*
G1X31095Y79828D1*
G1X31057Y79911D1*
G1X31019Y79994D1*
G1X30980Y80084D1*
G1X30948Y80173D1*
G1X30916Y80263D1*
G1X30884Y80352D1*
G1X30852Y80448D1*
G1X30827Y80538D1*
G1X30801Y80634D1*
G1X30782Y80736D1*
G1X30763Y80832D1*
G1X30750Y80935D1*
G1X30737Y81031D1*
G1X30731Y81133D1*
G1X30724Y81236D1*
G1X30724Y81338D1*
G1X30731Y81440D1*
G1X30737Y81543D1*
G1X30756Y81639D1*
G1X30769Y81741D1*
G1X30795Y81844D1*
G1X30820Y81940D1*
G1X30852Y82042D1*
G1X30884Y82138D1*
G1X30923Y82240D1*
G1X30961Y82336D1*
G1X31006Y82432D1*
G1X31051Y82528D1*
G1X31095Y82618D1*
G1X31140Y82714D1*
G1X31191Y82804D1*
G1X31236Y82893D1*
G1X31287Y82989D1*
G1X31339Y83079D1*
G1X31383Y83168D1*
G1X31435Y83258D1*
G1X31479Y83341D1*
G1X31524Y83431D1*
G1X31569Y83520D1*
G1X31607Y83616D1*
G1X31646Y83706D1*
G1X31678Y83796D1*
G1X31710Y83892D1*
G1X31735Y83981D1*
G1X31761Y84077D1*
G1X31774Y84173D1*
G1X31793Y84269D1*
G1X31799Y84365D1*
G1X31806Y84461D1*
G1X31812Y84557D1*
G1X31812Y84653D1*
G1X31806Y84749D1*
G1X31793Y84845D1*
G1X31780Y84935D1*
G1X31761Y85024D1*
G1X31735Y85114D1*
G1X31710Y85204D1*
G1X31684Y85293D1*
G1X31652Y85383D1*
G1X31614Y85466D1*
G1X31575Y85556D1*
G1X31537Y85645D1*
G1X31492Y85728D1*
G1X31454Y85818D1*
G1X31409Y85908D1*
G1X31364Y85997D1*
G1X31895Y86298D1*
G1X31921Y86253D1*
G1X31959Y86183D1*
G37*
G36*
G1X29828Y86202D2*
G1X29854Y86144D1*
G1X29886Y86080D1*
G1X29924Y86010D1*
G1X29950Y85946D1*
G1X29982Y85876D1*
G1X30014Y85799D1*
G1X30046Y85716D1*
G1X30078Y85632D1*
G1X30110Y85549D1*
G1X30142Y85453D1*
G1X30174Y85364D1*
G1X30199Y85268D1*
G1X30225Y85165D1*
G1X30251Y85063D1*
G1X30270Y84960D1*
G1X30283Y84852D1*
G1X30295Y84743D1*
G1X30302Y84634D1*
G1X30302Y84519D1*
G1X30302Y84410D1*
G1X30289Y84295D1*
G1X30270Y84173D1*
G1X30251Y84058D1*
G1X30219Y83943D1*
G1X30187Y83821D1*
G1X30142Y83700D1*
G1X30097Y83584D1*
G1X30052Y83463D1*
G1X30001Y83341D1*
G1X29943Y83220D1*
G1X29892Y83098D1*
G1X29835Y82976D1*
G1X29777Y82861D1*
G1X29719Y82740D1*
G1X29662Y82618D1*
G1X29604Y82503D1*
G1X29547Y82381D1*
G1X29495Y82266D1*
G1X29451Y82151D1*
G1X29399Y82036D1*
G1X29361Y81920D1*
G1X29323Y81812D1*
G1X29284Y81696D1*
G1X29259Y81588D1*
G1X29239Y81485D1*
G1X29220Y81383D1*
G1X29214Y81280D1*
G1X29214Y81178D1*
G1X29214Y81082D1*
G1X29220Y80986D1*
G1X29233Y80896D1*
G1X29252Y80807D1*
G1X29271Y80717D1*
G1X29291Y80634D1*
G1X29316Y80551D1*
G1X29342Y80474D1*
G1X29374Y80397D1*
G1X29406Y80320D1*
G1X29438Y80244D1*
G1X29463Y80180D1*
G1X29495Y80116D1*
G1X29527Y80058D1*
G1X29559Y79994D1*
G1X29591Y79943D1*
G1X29617Y79885D1*
G1X29649Y79840D1*
G1X29675Y79796D1*
G1X29700Y79751D1*
G1X29719Y79712D1*
G1X29175Y79418D1*
G1X29137Y79495D1*
G1X29092Y79578D1*
G1X29054Y79661D1*
G1X29015Y79744D1*
G1X28971Y79828D1*
G1X28932Y79911D1*
G1X28894Y79994D1*
G1X28862Y80084D1*
G1X28823Y80173D1*
G1X28791Y80263D1*
G1X28759Y80352D1*
G1X28727Y80448D1*
G1X28702Y80538D1*
G1X28676Y80634D1*
G1X28657Y80736D1*
G1X28638Y80832D1*
G1X28625Y80935D1*
G1X28612Y81031D1*
G1X28606Y81133D1*
G1X28599Y81236D1*
G1X28599Y81338D1*
G1X28606Y81440D1*
G1X28619Y81543D1*
G1X28631Y81639D1*
G1X28651Y81741D1*
G1X28670Y81844D1*
G1X28695Y81940D1*
G1X28727Y82042D1*
G1X28759Y82138D1*
G1X28798Y82240D1*
G1X28836Y82336D1*
G1X28881Y82432D1*
G1X28926Y82528D1*
G1X28971Y82618D1*
G1X29015Y82714D1*
G1X29067Y82804D1*
G1X29118Y82893D1*
G1X29163Y82989D1*
G1X29214Y83079D1*
G1X29265Y83168D1*
G1X29310Y83258D1*
G1X29355Y83341D1*
G1X29399Y83431D1*
G1X29444Y83520D1*
G1X29483Y83616D1*
G1X29521Y83706D1*
G1X29553Y83796D1*
G1X29585Y83892D1*
G1X29611Y83981D1*
G1X29636Y84077D1*
G1X29655Y84173D1*
G1X29668Y84269D1*
G1X29681Y84365D1*
G1X29687Y84461D1*
G1X29687Y84557D1*
G1X29687Y84653D1*
G1X29681Y84749D1*
G1X29668Y84845D1*
G1X29655Y84935D1*
G1X29636Y85024D1*
G1X29617Y85114D1*
G1X29591Y85204D1*
G1X29559Y85293D1*
G1X29527Y85383D1*
G1X29489Y85466D1*
G1X29451Y85556D1*
G1X29412Y85645D1*
G1X29374Y85728D1*
G1X29329Y85818D1*
G1X29284Y85908D1*
G1X29239Y85997D1*
G1X29777Y86298D1*
G1X29796Y86253D1*
G1X29828Y86202D1*
G37*
G36*
G1X27716Y86253D2*
G1X27742Y86202D1*
G1X27774Y86144D1*
G1X27799Y86080D1*
G1X27831Y86016D1*
G1X27863Y85946D1*
G1X27895Y85876D1*
G1X27934Y85799D1*
G1X27966Y85716D1*
G1X27998Y85632D1*
G1X28030Y85543D1*
G1X28062Y85453D1*
G1X28087Y85364D1*
G1X28119Y85261D1*
G1X28145Y85165D1*
G1X28164Y85063D1*
G1X28183Y84960D1*
G1X28203Y84852D1*
G1X28215Y84743D1*
G1X28222Y84634D1*
G1X28222Y84519D1*
G1X28215Y84404D1*
G1X28209Y84288D1*
G1X28190Y84173D1*
G1X28164Y84058D1*
G1X28139Y83936D1*
G1X28100Y83821D1*
G1X28062Y83700D1*
G1X28017Y83584D1*
G1X27966Y83463D1*
G1X27915Y83341D1*
G1X27863Y83220D1*
G1X27806Y83098D1*
G1X27748Y82976D1*
G1X27691Y82855D1*
G1X27633Y82740D1*
G1X27575Y82618D1*
G1X27524Y82496D1*
G1X27467Y82381D1*
G1X27415Y82266D1*
G1X27364Y82151D1*
G1X27319Y82036D1*
G1X27275Y81920D1*
G1X27236Y81805D1*
G1X27204Y81696D1*
G1X27179Y81588D1*
G1X27153Y81485D1*
G1X27140Y81376D1*
G1X27127Y81280D1*
G1X27127Y81178D1*
G1X27127Y81082D1*
G1X27140Y80986D1*
G1X27153Y80896D1*
G1X27166Y80807D1*
G1X27185Y80717D1*
G1X27211Y80634D1*
G1X27236Y80551D1*
G1X27262Y80474D1*
G1X27287Y80397D1*
G1X27319Y80320D1*
G1X27358Y80237D1*
G1X27383Y80180D1*
G1X27415Y80116D1*
G1X27447Y80052D1*
G1X27473Y79994D1*
G1X27505Y79936D1*
G1X27537Y79885D1*
G1X27563Y79840D1*
G1X27588Y79796D1*
G1X27614Y79751D1*
G1X27639Y79712D1*
G1X27095Y79418D1*
G1X27051Y79495D1*
G1X27012Y79578D1*
G1X26967Y79661D1*
G1X26929Y79744D1*
G1X26891Y79828D1*
G1X26852Y79911D1*
G1X26814Y79994D1*
G1X26775Y80084D1*
G1X26743Y80173D1*
G1X26705Y80263D1*
G1X26673Y80352D1*
G1X26647Y80442D1*
G1X26622Y80538D1*
G1X26596Y80634D1*
G1X26577Y80736D1*
G1X26558Y80832D1*
G1X26545Y80928D1*
G1X26532Y81031D1*
G1X26526Y81133D1*
G1X26519Y81236D1*
G1X26519Y81338D1*
G1X26526Y81440D1*
G1X26532Y81536D1*
G1X26545Y81639D1*
G1X26564Y81741D1*
G1X26590Y81844D1*
G1X26615Y81940D1*
G1X26647Y82042D1*
G1X26679Y82138D1*
G1X26718Y82234D1*
G1X26756Y82336D1*
G1X26801Y82432D1*
G1X26839Y82522D1*
G1X26891Y82618D1*
G1X26935Y82714D1*
G1X26987Y82804D1*
G1X27031Y82893D1*
G1X27083Y82983D1*
G1X27134Y83072D1*
G1X27179Y83162D1*
G1X27230Y83252D1*
G1X27275Y83341D1*
G1X27319Y83431D1*
G1X27358Y83520D1*
G1X27403Y83610D1*
G1X27441Y83706D1*
G1X27473Y83796D1*
G1X27505Y83892D1*
G1X27531Y83981D1*
G1X27550Y84077D1*
G1X27569Y84173D1*
G1X27582Y84269D1*
G1X27595Y84365D1*
G1X27601Y84461D1*
G1X27607Y84557D1*
G1X27601Y84653D1*
G1X27595Y84749D1*
G1X27588Y84839D1*
G1X27575Y84935D1*
G1X27556Y85024D1*
G1X27531Y85114D1*
G1X27505Y85204D1*
G1X27473Y85293D1*
G1X27441Y85383D1*
G1X27409Y85466D1*
G1X27371Y85556D1*
G1X27332Y85639D1*
G1X27287Y85728D1*
G1X27243Y85818D1*
G1X27198Y85901D1*
G1X27153Y85991D1*
G1X27691Y86298D1*
G1X27716Y86253D1*
G37*
G36*
G1X25252Y78068D2*
G1X25252Y78861D1*
G1X33687Y78861D1*
G1X33687Y78074D1*
G1X25252Y78068D1*
G37*
G74*
G1X36996Y71117D2*
G54D601*
G1X36235Y74516D1*
G1X37751Y73383D2*
G1X36996Y71117D1*
G1X38507Y71117D2*
G1X37751Y73383D1*
G1X39262Y74516D2*
G1X38507Y71117D1*
G1X21495Y71872D2*
G75*
G2X20740Y71117I-755J0D1*
G74*
G1X19607Y71117D2*
G1X20740Y71117D1*
G1X19607Y73005D2*
G1X19607Y71117D1*
G1X22628Y71117D2*
G1X22628Y74516D1*
G1X24523Y74516D2*
G1X22628Y71117D1*
G1X24523Y71117D2*
G1X24523Y74516D1*
G1X25655Y71117D2*
G1X25655Y74516D1*
G1X26788Y71117D2*
G1X26788Y74516D1*
G1X28676Y74516D2*
G1X26788Y71117D1*
G1X28676Y71117D2*
G1X28676Y74516D1*
G1X29809Y71117D2*
G1X30577Y72647D1*
G1X31703Y71117D2*
G1X31703Y74516D1*
G1X33969Y74516D2*
G1X32836Y71117D1*
G1X35102Y71117D2*
G1X33969Y74516D1*
G1X20740Y74516D2*
G1X19607Y74516D1*
G1X20740Y74516D2*
G75*
G2X21495Y73760I0J-755D1*
G74*
G1X21495Y71872D2*
G1X21495Y73760D1*
G1X20177Y73005D2*
G1X19607Y73005D1*
G1X30756Y72628D2*
G1X31703Y72628D1*
G1X30756Y72628D2*
G75*
G2X30756Y74516I0J944D1*
G74*
G1X31703Y74516D2*
G1X30756Y74516D1*
G1X34788Y72064D2*
G1X33150Y72064D1*
G1X2997Y63993D2*
G54D18*
G1X2997Y59497D1*
G1X3072Y38514D2*
G1X3072Y34768D1*
G54D595*
G36*
G1X105940Y70217D2*
G1X115213Y54146D1*
G75*
G2X114548Y52949I-634J-432D1*
G1X95936Y52930D1*
G2X95258Y54108I24J797D1*
G1X104544Y70217D1*
G2X105940Y70217I698J-431D1*
G37*
%LPC*%
G36*
G1X113920Y54095D2*
G1X105242Y69129D1*
G1X96564Y54076D1*
G1X113920Y54095D1*
G37*
%LPD*%
G36*
G1X107757Y63151D2*
G1X107776Y63113D1*
G1X107808Y63049D1*
G1X107840Y62978D1*
G1X107872Y62914D1*
G1X107904Y62844D1*
G1X107936Y62767D1*
G1X107968Y62684D1*
G1X108000Y62601D1*
G1X108032Y62517D1*
G1X108064Y62421D1*
G1X108096Y62332D1*
G1X108122Y62236D1*
G1X108148Y62133D1*
G1X108173Y62031D1*
G1X108192Y61929D1*
G1X108205Y61820D1*
G1X108218Y61711D1*
G1X108224Y61602D1*
G1X108224Y61487D1*
G1X108218Y61378D1*
G1X108212Y61263D1*
G1X108192Y61141D1*
G1X108173Y61026D1*
G1X108141Y60911D1*
G1X108103Y60789D1*
G1X108064Y60668D1*
G1X108020Y60553D1*
G1X107975Y60431D1*
G1X107924Y60309D1*
G1X107866Y60188D1*
G1X107808Y60066D1*
G1X107751Y59945D1*
G1X107693Y59829D1*
G1X107636Y59708D1*
G1X107584Y59586D1*
G1X107527Y59471D1*
G1X107469Y59349D1*
G1X107418Y59234D1*
G1X107367Y59119D1*
G1X107322Y59004D1*
G1X107277Y58889D1*
G1X107239Y58780D1*
G1X107207Y58665D1*
G1X107181Y58556D1*
G1X107156Y58453D1*
G1X107143Y58351D1*
G1X107136Y58249D1*
G1X107130Y58146D1*
G1X107136Y58050D1*
G1X107143Y57954D1*
G1X107156Y57865D1*
G1X107168Y57775D1*
G1X107188Y57685D1*
G1X107213Y57602D1*
G1X107239Y57519D1*
G1X107264Y57442D1*
G1X107296Y57365D1*
G1X107322Y57289D1*
G1X107360Y57212D1*
G1X107386Y57148D1*
G1X107418Y57084D1*
G1X107450Y57026D1*
G1X107482Y56962D1*
G1X107514Y56911D1*
G1X107540Y56853D1*
G1X107572Y56809D1*
G1X107597Y56764D1*
G1X107623Y56719D1*
G1X107642Y56681D1*
G1X107098Y56386D1*
G1X107060Y56463D1*
G1X107015Y56546D1*
G1X106976Y56629D1*
G1X106932Y56713D1*
G1X106893Y56796D1*
G1X106855Y56879D1*
G1X106816Y56962D1*
G1X106778Y57052D1*
G1X106746Y57141D1*
G1X106714Y57231D1*
G1X106682Y57321D1*
G1X106650Y57417D1*
G1X106624Y57506D1*
G1X106599Y57602D1*
G1X106580Y57705D1*
G1X106560Y57801D1*
G1X106548Y57903D1*
G1X106535Y57999D1*
G1X106528Y58101D1*
G1X106522Y58204D1*
G1X106522Y58306D1*
G1X106528Y58409D1*
G1X106535Y58511D1*
G1X106554Y58607D1*
G1X106567Y58709D1*
G1X106592Y58812D1*
G1X106618Y58908D1*
G1X106650Y59010D1*
G1X106682Y59106D1*
G1X106720Y59209D1*
G1X106759Y59305D1*
G1X106804Y59401D1*
G1X106848Y59497D1*
G1X106893Y59586D1*
G1X106938Y59682D1*
G1X106989Y59772D1*
G1X107034Y59861D1*
G1X107085Y59957D1*
G1X107136Y60047D1*
G1X107181Y60137D1*
G1X107232Y60226D1*
G1X107277Y60309D1*
G1X107322Y60399D1*
G1X107367Y60489D1*
G1X107405Y60585D1*
G1X107444Y60674D1*
G1X107476Y60764D1*
G1X107508Y60860D1*
G1X107533Y60949D1*
G1X107559Y61045D1*
G1X107572Y61141D1*
G1X107591Y61237D1*
G1X107597Y61333D1*
G1X107604Y61429D1*
G1X107610Y61525D1*
G1X107610Y61621D1*
G1X107604Y61717D1*
G1X107591Y61813D1*
G1X107578Y61903D1*
G1X107559Y61993D1*
G1X107533Y62082D1*
G1X107508Y62172D1*
G1X107482Y62261D1*
G1X107450Y62351D1*
G1X107412Y62434D1*
G1X107373Y62524D1*
G1X107335Y62613D1*
G1X107290Y62697D1*
G1X107252Y62786D1*
G1X107207Y62876D1*
G1X107162Y62965D1*
G1X107693Y63266D1*
G1X107719Y63221D1*
G1X107757Y63151D1*
G37*
G36*
G1X105626Y63170D2*
G1X105652Y63113D1*
G1X105684Y63049D1*
G1X105722Y62978D1*
G1X105748Y62914D1*
G1X105780Y62844D1*
G1X105812Y62767D1*
G1X105844Y62684D1*
G1X105876Y62601D1*
G1X105908Y62517D1*
G1X105940Y62421D1*
G1X105972Y62332D1*
G1X105997Y62236D1*
G1X106023Y62133D1*
G1X106048Y62031D1*
G1X106068Y61929D1*
G1X106080Y61820D1*
G1X106093Y61711D1*
G1X106100Y61602D1*
G1X106100Y61487D1*
G1X106100Y61378D1*
G1X106087Y61263D1*
G1X106068Y61141D1*
G1X106048Y61026D1*
G1X106016Y60911D1*
G1X105984Y60789D1*
G1X105940Y60668D1*
G1X105895Y60553D1*
G1X105850Y60431D1*
G1X105799Y60309D1*
G1X105741Y60188D1*
G1X105690Y60066D1*
G1X105632Y59945D1*
G1X105575Y59829D1*
G1X105517Y59708D1*
G1X105460Y59586D1*
G1X105402Y59471D1*
G1X105344Y59349D1*
G1X105293Y59234D1*
G1X105248Y59119D1*
G1X105197Y59004D1*
G1X105159Y58889D1*
G1X105120Y58780D1*
G1X105082Y58665D1*
G1X105056Y58556D1*
G1X105037Y58453D1*
G1X105018Y58351D1*
G1X105012Y58249D1*
G1X105012Y58146D1*
G1X105012Y58050D1*
G1X105018Y57954D1*
G1X105031Y57865D1*
G1X105050Y57775D1*
G1X105069Y57685D1*
G1X105088Y57602D1*
G1X105114Y57519D1*
G1X105140Y57442D1*
G1X105172Y57365D1*
G1X105204Y57289D1*
G1X105236Y57212D1*
G1X105261Y57148D1*
G1X105293Y57084D1*
G1X105325Y57026D1*
G1X105357Y56962D1*
G1X105389Y56911D1*
G1X105415Y56853D1*
G1X105447Y56809D1*
G1X105472Y56764D1*
G1X105498Y56719D1*
G1X105517Y56681D1*
G1X104973Y56386D1*
G1X104935Y56463D1*
G1X104890Y56546D1*
G1X104852Y56629D1*
G1X104813Y56713D1*
G1X104768Y56796D1*
G1X104730Y56879D1*
G1X104692Y56962D1*
G1X104660Y57052D1*
G1X104621Y57141D1*
G1X104589Y57231D1*
G1X104557Y57321D1*
G1X104525Y57417D1*
G1X104500Y57506D1*
G1X104474Y57602D1*
G1X104455Y57705D1*
G1X104436Y57801D1*
G1X104423Y57903D1*
G1X104410Y57999D1*
G1X104404Y58101D1*
G1X104397Y58204D1*
G1X104397Y58306D1*
G1X104404Y58409D1*
G1X104416Y58511D1*
G1X104429Y58607D1*
G1X104448Y58709D1*
G1X104468Y58812D1*
G1X104493Y58908D1*
G1X104525Y59010D1*
G1X104557Y59106D1*
G1X104596Y59209D1*
G1X104634Y59305D1*
G1X104679Y59401D1*
G1X104724Y59497D1*
G1X104768Y59586D1*
G1X104813Y59682D1*
G1X104864Y59772D1*
G1X104916Y59861D1*
G1X104960Y59957D1*
G1X105012Y60047D1*
G1X105063Y60137D1*
G1X105108Y60226D1*
G1X105152Y60309D1*
G1X105197Y60399D1*
G1X105242Y60489D1*
G1X105280Y60585D1*
G1X105319Y60674D1*
G1X105351Y60764D1*
G1X105383Y60860D1*
G1X105408Y60949D1*
G1X105434Y61045D1*
G1X105453Y61141D1*
G1X105466Y61237D1*
G1X105479Y61333D1*
G1X105485Y61429D1*
G1X105485Y61525D1*
G1X105485Y61621D1*
G1X105479Y61717D1*
G1X105466Y61813D1*
G1X105453Y61903D1*
G1X105434Y61993D1*
G1X105415Y62082D1*
G1X105389Y62172D1*
G1X105357Y62261D1*
G1X105325Y62351D1*
G1X105287Y62434D1*
G1X105248Y62524D1*
G1X105210Y62613D1*
G1X105172Y62697D1*
G1X105127Y62786D1*
G1X105082Y62876D1*
G1X105037Y62965D1*
G1X105575Y63266D1*
G1X105594Y63221D1*
G1X105626Y63170D1*
G37*
G36*
G1X103514Y63221D2*
G1X103540Y63170D1*
G1X103572Y63113D1*
G1X103597Y63049D1*
G1X103629Y62985D1*
G1X103661Y62914D1*
G1X103693Y62844D1*
G1X103732Y62767D1*
G1X103764Y62684D1*
G1X103796Y62601D1*
G1X103828Y62511D1*
G1X103860Y62421D1*
G1X103885Y62332D1*
G1X103917Y62229D1*
G1X103943Y62133D1*
G1X103962Y62031D1*
G1X103981Y61929D1*
G1X104000Y61820D1*
G1X104013Y61711D1*
G1X104020Y61602D1*
G1X104020Y61487D1*
G1X104013Y61372D1*
G1X104007Y61257D1*
G1X103988Y61141D1*
G1X103962Y61026D1*
G1X103936Y60905D1*
G1X103898Y60789D1*
G1X103860Y60668D1*
G1X103815Y60553D1*
G1X103764Y60431D1*
G1X103712Y60309D1*
G1X103661Y60188D1*
G1X103604Y60066D1*
G1X103546Y59945D1*
G1X103488Y59823D1*
G1X103431Y59708D1*
G1X103373Y59586D1*
G1X103322Y59465D1*
G1X103264Y59349D1*
G1X103213Y59234D1*
G1X103162Y59119D1*
G1X103117Y59004D1*
G1X103072Y58889D1*
G1X103034Y58773D1*
G1X103002Y58665D1*
G1X102976Y58556D1*
G1X102951Y58453D1*
G1X102938Y58345D1*
G1X102925Y58249D1*
G1X102925Y58146D1*
G1X102925Y58050D1*
G1X102938Y57954D1*
G1X102951Y57865D1*
G1X102964Y57775D1*
G1X102983Y57685D1*
G1X103008Y57602D1*
G1X103034Y57519D1*
G1X103060Y57442D1*
G1X103085Y57365D1*
G1X103117Y57289D1*
G1X103156Y57205D1*
G1X103181Y57148D1*
G1X103213Y57084D1*
G1X103245Y57020D1*
G1X103271Y56962D1*
G1X103303Y56905D1*
G1X103335Y56853D1*
G1X103360Y56809D1*
G1X103386Y56764D1*
G1X103412Y56719D1*
G1X103437Y56681D1*
G1X102893Y56386D1*
G1X102848Y56463D1*
G1X102810Y56546D1*
G1X102765Y56629D1*
G1X102727Y56713D1*
G1X102688Y56796D1*
G1X102650Y56879D1*
G1X102612Y56962D1*
G1X102573Y57052D1*
G1X102541Y57141D1*
G1X102503Y57231D1*
G1X102471Y57321D1*
G1X102445Y57410D1*
G1X102420Y57506D1*
G1X102394Y57602D1*
G1X102375Y57705D1*
G1X102356Y57801D1*
G1X102343Y57897D1*
G1X102330Y57999D1*
G1X102324Y58101D1*
G1X102317Y58204D1*
G1X102317Y58306D1*
G1X102324Y58409D1*
G1X102330Y58505D1*
G1X102343Y58607D1*
G1X102362Y58709D1*
G1X102388Y58812D1*
G1X102413Y58908D1*
G1X102445Y59010D1*
G1X102477Y59106D1*
G1X102516Y59202D1*
G1X102554Y59305D1*
G1X102599Y59401D1*
G1X102637Y59490D1*
G1X102688Y59586D1*
G1X102733Y59682D1*
G1X102784Y59772D1*
G1X102829Y59861D1*
G1X102880Y59951D1*
G1X102932Y60041D1*
G1X102976Y60130D1*
G1X103028Y60220D1*
G1X103072Y60309D1*
G1X103117Y60399D1*
G1X103156Y60489D1*
G1X103200Y60578D1*
G1X103239Y60674D1*
G1X103271Y60764D1*
G1X103303Y60860D1*
G1X103328Y60949D1*
G1X103348Y61045D1*
G1X103367Y61141D1*
G1X103380Y61237D1*
G1X103392Y61333D1*
G1X103399Y61429D1*
G1X103405Y61525D1*
G1X103399Y61621D1*
G1X103392Y61717D1*
G1X103386Y61807D1*
G1X103373Y61903D1*
G1X103354Y61993D1*
G1X103328Y62082D1*
G1X103303Y62172D1*
G1X103271Y62261D1*
G1X103239Y62351D1*
G1X103207Y62434D1*
G1X103168Y62524D1*
G1X103130Y62607D1*
G1X103085Y62697D1*
G1X103040Y62786D1*
G1X102996Y62869D1*
G1X102951Y62959D1*
G1X103488Y63266D1*
G1X103514Y63221D1*
G37*
G36*
G1X101050Y55036D2*
G1X101050Y55829D1*
G1X109485Y55829D1*
G1X109485Y55042D1*
G1X101050Y55036D1*
G37*
G74*
G1X112794Y48085D2*
G54D601*
G1X112032Y51484D1*
G1X113549Y50351D2*
G1X112794Y48085D1*
G1X114304Y48085D2*
G1X113549Y50351D1*
G1X115060Y51484D2*
G1X114304Y48085D1*
G1X97293Y48841D2*
G75*
G2X96538Y48085I-755J0D1*
G74*
G1X95405Y48085D2*
G1X96538Y48085D1*
G1X95405Y49973D2*
G1X95405Y48085D1*
G1X98426Y48085D2*
G1X98426Y51484D1*
G1X100320Y51484D2*
G1X98426Y48085D1*
G1X100320Y48085D2*
G1X100320Y51484D1*
G1X101453Y48085D2*
G1X101453Y51484D1*
G1X102586Y48085D2*
G1X102586Y51484D1*
G1X104474Y51484D2*
G1X102586Y48085D1*
G1X104474Y48085D2*
G1X104474Y51484D1*
G1X105607Y48085D2*
G1X106375Y49615D1*
G1X107501Y48085D2*
G1X107501Y51484D1*
G1X109767Y51484D2*
G1X108634Y48085D1*
G1X110900Y48085D2*
G1X109767Y51484D1*
G1X96538Y51484D2*
G1X95405Y51484D1*
G1X96538Y51484D2*
G75*
G2X97293Y50729I0J-755D1*
G74*
G1X97293Y48841D2*
G1X97293Y50729D1*
G1X95975Y49973D2*
G1X95405Y49973D1*
G1X106554Y49596D2*
G1X107501Y49596D1*
G1X106554Y49596D2*
G75*
G2X106554Y51484I0J944D1*
G74*
G1X107501Y51484D2*
G1X106554Y51484D1*
G1X110586Y49033D2*
G1X108948Y49033D1*
M2*
