M48
INCH,TZ
T01C.0118
T02C.013
T03C.03543
;LEADER: 12 
;HEADER: 
;CODE  : ASCII 
;FILE  : STEVAL-ESC002V1-4-6.drl for board C:/cadence/INDUSTRIAL/STEVAL-ESC002V1 - Poli/Allegro/#Taaaaae09528.tmp ... layers LYR4 and BOTTOM
;T01 Holesize 1. = 11.800000 Tolerance = +2.000000/-2.000000 PLATED MILS Quantity = 58
%
G90
T01
X43500Y29500
R02X7500
X63500
X71500
X67500Y35000
X58500Y39500
Y34500
X51000Y39500
Y34500
X43500Y39500
Y34500
X39500Y48000
X43500Y47000
R03X5000
X63500Y40500
X67500Y46000
X71500Y40500
Y51500
X67500Y57000
X63500Y51500
X61500Y59000
X58500Y57000
X56000Y56000
X53500Y57000
X51000Y56000
X48500Y57000
X61500Y62000
X71500
X112500Y64000
X123000Y62000
X80000Y85000
X70000
X40000
X30000
Y95000
X35000Y90000
X40000Y95000
X45000Y90000
X50000Y95000
X55000Y90000
X60000Y95000
X65000Y90000
X70000Y95000
X75000Y90000
X80000Y95000
X85000Y90000
X90000Y95000
X95000Y90000
X105000
X110000Y95000
X115000Y90000
X120000Y95000
X125000Y90000
X130000Y95000
X135000Y90000
M30
