*
%LPD*%
%LNSTEVAL-ESC002V1-AST*%
%FSLAX25Y25*%
%MOIN*%
%AD*%
%ADD10C,0.015*%
%ADD11C,0.002*%
%ADD12C,0.004*%
%ADD18C,0.006*%
G54D10*
%SRX1Y1I0.0J0.0*%
G1X0Y15000D2*
G1X0Y0D1*
G1X15000Y0D1*
G1X15000Y98500D2*
G1X0Y98500D1*
G1X0Y83500D1*
G1X144500Y0D2*
G1X159500Y0D1*
G1X159500Y15000D1*
G1X159500Y83500D2*
G1X159500Y98500D1*
G1X144500Y98500D1*
G1X0Y9000D2*
G54D11*
G1X-63000Y9000D1*
G1X-63000Y49000D1*
G1X0Y49000D1*
G1X0Y9000D1*
G1X0Y49500D2*
G1X-63000Y49500D1*
G1X-63000Y89500D1*
G1X0Y89500D1*
G1X0Y49500D1*
G1X21000Y12000D2*
G75*
G3X21000Y12000I-9000J0D1*
G74*
G1X0Y28000D2*
G1X11500Y28000D1*
G1X11500Y30000D1*
G1X0Y30000D1*
G1X0Y68500D2*
G1X11500Y68500D1*
G1X11500Y70500D1*
G1X0Y70500D1*
G1X21000Y86500D2*
G75*
G3X21000Y86500I-9000J0D1*
G74*
G1X32500Y7000D2*
G1X32500Y10000D1*
G1X38500Y10000D1*
G1X38500Y7000D1*
G1X32500Y7000D1*
G1X49500Y43000D2*
G1X49500Y40000D1*
G1X43500Y40000D1*
G1X43500Y43000D1*
G1X49500Y43000D1*
G1X49500Y53000D2*
G1X49500Y50000D1*
G1X43500Y50000D1*
G1X43500Y53000D1*
G1X49500Y53000D1*
G1X39500Y43000D2*
G1X39500Y40000D1*
G1X33500Y40000D1*
G1X33500Y43000D1*
G1X39500Y43000D1*
G1X39500Y56500D2*
G1X39500Y53500D1*
G1X33500Y53500D1*
G1X33500Y56500D1*
G1X39500Y56500D1*
G1X39500Y50000D2*
G1X39500Y47000D1*
G1X33500Y47000D1*
G1X33500Y50000D1*
G1X39500Y50000D1*
G1X49500Y63000D2*
G1X49500Y60000D1*
G1X43500Y60000D1*
G1X43500Y63000D1*
G1X49500Y63000D1*
G1X49500Y75000D2*
G1X49500Y72000D1*
G1X43500Y72000D1*
G1X43500Y75000D1*
G1X49500Y75000D1*
G1X49500Y69000D2*
G1X49500Y66000D1*
G1X43500Y66000D1*
G1X43500Y69000D1*
G1X49500Y69000D1*
G1X39500Y63000D2*
G1X39500Y60000D1*
G1X33500Y60000D1*
G1X33500Y63000D1*
G1X39500Y63000D1*
G1X41500Y92000D2*
G1X44500Y92000D1*
G1X44500Y86000D1*
G1X41500Y86000D1*
G1X41500Y92000D1*
G1X38500Y86000D2*
G1X35500Y86000D1*
G1X35500Y92000D1*
G1X38500Y92000D1*
G1X38500Y86000D1*
G1X43000Y82000D2*
G1X43000Y79000D1*
G1X37000Y79000D1*
G1X37000Y82000D1*
G1X43000Y82000D1*
G1X65842Y1250D2*
G1X65842Y17983D1*
G1X46158Y17983D1*
G1X46158Y1250D1*
G1X65842Y1250D1*
G1X47500Y36000D2*
G1X50500Y36000D1*
G1X50500Y30000D1*
G1X47500Y30000D1*
G1X47500Y36000D1*
G1X52863Y18012D2*
G1X52863Y21312D1*
G1X51263Y21312D1*
G1X51263Y18012D1*
G1X56800Y18012D2*
G1X56800Y21312D1*
G1X55200Y21312D1*
G1X55200Y18012D1*
G1X60737Y18012D2*
G1X60737Y21312D1*
G1X59137Y21312D1*
G1X59137Y18012D1*
G1X86976Y66476D2*
G1X59024Y66476D1*
G1X59024Y38524D1*
G1X86976Y38524D1*
G1X86976Y66476D1*
G1X67500Y76500D2*
G1X67500Y73500D1*
G1X61500Y73500D1*
G1X61500Y76500D1*
G1X67500Y76500D1*
G1X54000Y92000D2*
G1X57000Y92000D1*
G1X57000Y86000D1*
G1X54000Y86000D1*
G1X54000Y92000D1*
G1X66000Y86500D2*
G1X69000Y86500D1*
G1X69000Y80500D1*
G1X66000Y80500D1*
G1X66000Y86500D1*
G1X63000Y80500D2*
G1X60000Y80500D1*
G1X60000Y86500D1*
G1X63000Y86500D1*
G1X63000Y80500D1*
G1X51000Y86000D2*
G1X48000Y86000D1*
G1X48000Y92000D1*
G1X51000Y92000D1*
G1X51000Y86000D1*
G1X55500Y82000D2*
G1X55500Y79000D1*
G1X49500Y79000D1*
G1X49500Y82000D1*
G1X55500Y82000D1*
G1X83258Y3100D2*
G1X83258Y10900D1*
G1X82258Y10900D2*
G1X82258Y3100D1*
G1X78258Y10900D2*
G1X92250Y10900D1*
G1X92250Y3100D1*
G1X78258Y3100D1*
G1X78258Y10900D1*
G1X90000Y30500D2*
G1X90000Y27500D1*
G1X84000Y27500D1*
G1X84000Y30500D1*
G1X90000Y30500D1*
G1X71000Y28500D2*
G1X71000Y31500D1*
G1X77000Y31500D1*
G1X77000Y28500D1*
G1X71000Y28500D1*
G1X86203Y34250D2*
G75*
G3X86203Y34250I-1703J0D1*
G74*
G1X86976Y38917D2*
G1X86583Y38524D1*
G1X86976Y39311D2*
G1X86189Y38524D1*
G1X86976Y39705D2*
G1X85795Y38524D1*
G1X86976Y40098D2*
G1X85402Y38524D1*
G1X86976Y40492D2*
G1X85008Y38524D1*
G1X86976Y40886D2*
G1X84614Y38524D1*
G1X89000Y74500D2*
G1X86000Y74500D1*
G1X86000Y80500D1*
G1X89000Y80500D1*
G1X89000Y74500D1*
G1X70953Y70500D2*
G75*
G3X70953Y70500I-1703J0D1*
G1X83203Y76000D2*
G3X83203Y76000I-1703J0D1*
G1X75703Y72750D2*
G3X75703Y72750I-1703J0D1*
G1X77657Y79000D2*
G3X77657Y79000I-2907J0D1*
G74*
G1X89000Y86500D2*
G1X86000Y86500D1*
G1X86000Y92500D1*
G1X89000Y92500D1*
G1X89000Y86500D1*
G1X83000Y86500D2*
G1X80000Y86500D1*
G1X80000Y92500D1*
G1X83000Y92500D1*
G1X83000Y86500D1*
G1X78250Y83000D2*
G1X78250Y90000D1*
G1X71250Y90000D1*
G1X71250Y83000D1*
G1X78250Y83000D1*
G1X87258Y3100D2*
G1X87258Y10900D1*
G1X88258Y3100D2*
G1X88258Y10900D1*
G1X102000Y3100D2*
G1X102000Y10900D1*
G1X101000Y10900D2*
G1X101000Y3100D1*
G1X97000Y10900D2*
G1X106000Y10900D1*
G1X106000Y3100D1*
G1X97000Y3100D1*
G1X97000Y10900D1*
G1X96500Y37500D2*
G1X99500Y37500D1*
G1X99500Y31500D1*
G1X96500Y31500D1*
G1X96500Y37500D1*
G1X102500Y38900D2*
G1X102500Y30100D1*
G1X107500Y30100D1*
G1X107500Y38900D1*
G1X102500Y38900D1*
G1X94453Y38250D2*
G75*
G3X94453Y38250I-1703J0D1*
G74*
G1X99000Y43000D2*
G1X99000Y46000D1*
G1X105000Y46000D1*
G1X105000Y43000D1*
G1X99000Y43000D1*
G1X99000Y49000D2*
G1X99000Y52000D1*
G1X105000Y52000D1*
G1X105000Y49000D1*
G1X99000Y49000D1*
G1X99398Y54898D2*
G1X99398Y67102D1*
G1X111602Y67102D1*
G1X111602Y54898D1*
G1X99398Y54898D1*
G1X92500Y80500D2*
G1X95500Y80500D1*
G1X95500Y74500D1*
G1X92500Y74500D1*
G1X92500Y80500D1*
G1X101500Y74500D2*
G1X98500Y74500D1*
G1X98500Y80500D1*
G1X101500Y80500D1*
G1X101500Y74500D1*
G1X100000Y91000D2*
G1X100000Y88000D1*
G1X94000Y88000D1*
G1X94000Y91000D1*
G1X100000Y91000D1*
G1X119000Y9500D2*
G1X116000Y9500D1*
G1X116000Y15500D1*
G1X119000Y15500D1*
G1X119000Y9500D1*
G1X128500Y16000D2*
G1X128500Y13000D1*
G1X122500Y13000D1*
G1X122500Y16000D1*
G1X128500Y16000D1*
G1X117000Y35000D2*
G1X117000Y38000D1*
G1X123000Y38000D1*
G1X123000Y35000D1*
G1X117000Y35000D1*
G1X113500Y34500D2*
G1X110500Y34500D1*
G1X110500Y40500D1*
G1X113500Y40500D1*
G1X113500Y34500D1*
G1X109500Y26000D2*
G1X112500Y26000D1*
G1X112500Y20000D1*
G1X109500Y20000D1*
G1X109500Y26000D1*
G1X115000Y22000D2*
G1X115000Y29000D1*
G1X129980Y22000D2*
G1X115000Y22000D1*
G1X115000Y29000D2*
G1X129980Y29000D1*
G1X129500Y38500D2*
G1X126500Y38500D1*
G1X126500Y44500D1*
G1X129500Y44500D1*
G1X129500Y38500D1*
G1X125000Y56600D2*
G1X125000Y65400D1*
G1X120000Y65400D1*
G1X120000Y56600D1*
G1X125000Y56600D1*
G1X110750Y47000D2*
G1X109500Y47000D1*
G1X109500Y51000D1*
G1X110750Y51000D1*
G1X122250Y51000D2*
G1X123500Y51000D1*
G1X123500Y47000D1*
G1X122250Y47000D1*
G1X113600Y52600D2*
G1X113600Y45400D1*
G1X110800Y52600D2*
G1X122200Y52600D1*
G1X122200Y45400D1*
G1X110800Y45400D1*
G1X110800Y52600D1*
G1X114000Y64000D2*
G1X117000Y64000D1*
G1X117000Y58000D1*
G1X114000Y58000D1*
G1X114000Y64000D1*
G1X108200Y77000D2*
G1X108200Y88000D1*
G1X120800Y88000D1*
G1X120800Y78800D1*
G1X119000Y77000D1*
G1X108200Y77000D1*
G1X116400Y81265D2*
G1X116400Y78091D1*
G1X114800Y78665D2*
G1X114800Y80665D1*
G1X113600Y78665D2*
G1X113600Y80665D1*
G1X114600Y79665D1*
G1X113600Y78665D1*
G1X112400Y78065D2*
G1X112400Y81265D1*
G1X117700Y81265D2*
G1X117700Y78065D1*
G1X111300Y78065D1*
G1X111300Y81265D1*
G1X117700Y81265D1*
G1X111260Y83853D2*
G1X112509Y83853D1*
G1X112509Y87028D1*
G1X114109Y86453D2*
G1X114109Y84453D1*
G1X115309Y86453D2*
G1X115309Y84453D1*
G1X114309Y85453D1*
G1X115309Y86453D1*
G1X116509Y87053D2*
G1X116509Y83853D1*
G1X111209Y83853D2*
G1X111209Y87053D1*
G1X117609Y87053D1*
G1X117609Y83853D1*
G1X111209Y83853D1*
G1X137750Y1500D2*
G1X137750Y28500D1*
G1X159250Y28500D1*
G1X159250Y1500D1*
G1X137750Y1500D1*
G1X132500Y39000D2*
G1X135500Y39000D1*
G1X135500Y33000D1*
G1X132500Y33000D1*
G1X132500Y39000D1*
G1X132500Y26000D2*
G1X135500Y26000D1*
G1X135500Y20000D1*
G1X132500Y20000D1*
G1X132500Y26000D1*
G1X130000Y29000D2*
G1X130000Y22000D1*
G1X137750Y35750D2*
G1X137750Y62750D1*
G1X159250Y62750D1*
G1X159250Y35750D1*
G1X137750Y35750D1*
G1X137750Y70000D2*
G1X137750Y97000D1*
G1X159250Y97000D1*
G1X159250Y70000D1*
G1X137750Y70000D1*
G1X-9613Y30542D2*
G54D12*
G1X-9773Y30667D1*
G1X-9960Y30750D1*
G1X-10173Y30750D1*
G1X-10413Y30625D1*
G1X-10600Y30417D1*
G1X-10733Y30167D1*
G1X-10840Y29750D1*
G1X-10867Y29375D1*
G1X-10813Y29000D1*
G1X-10733Y28750D1*
G1X-10573Y28500D1*
G1X-10387Y28333D1*
G1X-10200Y28250D1*
G1X-10013Y28250D1*
G1X-9827Y28333D1*
G1X-9667Y28458D1*
G1X-9533Y28625D1*
G1X-8507Y30333D2*
G1X-8347Y30583D1*
G1X-8160Y30708D1*
G1X-7947Y30750D1*
G1X-7680Y30667D1*
G1X-7493Y30458D1*
G1X-7440Y30208D1*
G1X-7467Y29958D1*
G1X-7573Y29750D1*
G1X-8107Y29333D1*
G1X-8347Y29042D1*
G1X-8507Y28625D1*
G1X-8560Y28250D1*
G1X-7440Y28250D1*
G1X-5800Y28250D2*
G1X-5800Y30750D1*
G1X-6120Y30250D1*
G1X-6120Y28250D2*
G1X-5480Y28250D1*
G1X-9613Y70542D2*
G1X-9773Y70667D1*
G1X-9960Y70750D1*
G1X-10173Y70750D1*
G1X-10413Y70625D1*
G1X-10600Y70417D1*
G1X-10733Y70167D1*
G1X-10840Y69750D1*
G1X-10867Y69375D1*
G1X-10813Y69000D1*
G1X-10733Y68750D1*
G1X-10573Y68500D1*
G1X-10387Y68333D1*
G1X-10200Y68250D1*
G1X-10013Y68250D1*
G1X-9827Y68333D1*
G1X-9667Y68458D1*
G1X-9533Y68625D1*
G1X-8507Y70333D2*
G1X-8347Y70583D1*
G1X-8160Y70708D1*
G1X-7947Y70750D1*
G1X-7680Y70667D1*
G1X-7493Y70458D1*
G1X-7440Y70208D1*
G1X-7467Y69958D1*
G1X-7573Y69750D1*
G1X-8107Y69333D1*
G1X-8347Y69042D1*
G1X-8507Y68625D1*
G1X-8560Y68250D1*
G1X-7440Y68250D1*
G1X-6307Y70333D2*
G1X-6147Y70583D1*
G1X-5960Y70708D1*
G1X-5747Y70750D1*
G1X-5480Y70667D1*
G1X-5293Y70458D1*
G1X-5240Y70208D1*
G1X-5267Y69958D1*
G1X-5373Y69750D1*
G1X-5907Y69333D1*
G1X-6147Y69042D1*
G1X-6307Y68625D1*
G1X-6360Y68250D1*
G1X-5240Y68250D1*
G1X9537Y13042D2*
G1X9377Y13167D1*
G1X9190Y13250D1*
G1X8977Y13250D1*
G1X8737Y13125D1*
G1X8550Y12917D1*
G1X8417Y12667D1*
G1X8310Y12250D1*
G1X8283Y11875D1*
G1X8337Y11500D1*
G1X8417Y11250D1*
G1X8577Y11000D1*
G1X8763Y10833D1*
G1X8950Y10750D1*
G1X9137Y10750D1*
G1X9323Y10833D1*
G1X9483Y10958D1*
G1X9617Y11125D1*
G1X11150Y10750D2*
G1X10937Y10792D1*
G1X10750Y10958D1*
G1X10590Y11208D1*
G1X10483Y11500D1*
G1X10430Y11833D1*
G1X10430Y12167D1*
G1X10483Y12500D1*
G1X10590Y12792D1*
G1X10750Y13042D1*
G1X10937Y13208D1*
G1X11150Y13250D1*
G1X11363Y13208D1*
G1X11550Y13042D1*
G1X11710Y12792D1*
G1X11817Y12500D1*
G1X11870Y12167D1*
G1X11870Y11833D1*
G1X11817Y11500D1*
G1X11710Y11208D1*
G1X11550Y10958D1*
G1X11363Y10792D1*
G1X11150Y10750D1*
G1X12737Y10750D2*
G1X12737Y13250D1*
G1X13963Y10750D1*
G1X13963Y13250D1*
G1X14963Y11125D2*
G1X15123Y10917D1*
G1X15310Y10792D1*
G1X15550Y10750D1*
G1X15790Y10833D1*
G1X15977Y11000D1*
G1X16110Y11292D1*
G1X16137Y11625D1*
G1X16083Y11958D1*
G1X15950Y12167D1*
G1X15763Y12333D1*
G1X15577Y12375D1*
G1X15390Y12333D1*
G1X15150Y12167D1*
G1X15230Y13250D1*
G1X15950Y13250D1*
G1X9287Y87542D2*
G1X9127Y87667D1*
G1X8940Y87750D1*
G1X8727Y87750D1*
G1X8487Y87625D1*
G1X8300Y87417D1*
G1X8167Y87167D1*
G1X8060Y86750D1*
G1X8033Y86375D1*
G1X8087Y86000D1*
G1X8167Y85750D1*
G1X8327Y85500D1*
G1X8513Y85333D1*
G1X8700Y85250D1*
G1X8887Y85250D1*
G1X9073Y85333D1*
G1X9233Y85458D1*
G1X9367Y85625D1*
G1X10900Y85250D2*
G1X10687Y85292D1*
G1X10500Y85458D1*
G1X10340Y85708D1*
G1X10233Y86000D1*
G1X10180Y86333D1*
G1X10180Y86667D1*
G1X10233Y87000D1*
G1X10340Y87292D1*
G1X10500Y87542D1*
G1X10687Y87708D1*
G1X10900Y87750D1*
G1X11113Y87708D1*
G1X11300Y87542D1*
G1X11460Y87292D1*
G1X11567Y87000D1*
G1X11620Y86667D1*
G1X11620Y86333D1*
G1X11567Y86000D1*
G1X11460Y85708D1*
G1X11300Y85458D1*
G1X11113Y85292D1*
G1X10900Y85250D1*
G1X12487Y85250D2*
G1X12487Y87750D1*
G1X13713Y85250D1*
G1X13713Y87750D1*
G1X15620Y85250D2*
G1X15620Y87750D1*
G1X14633Y85958D1*
G1X15967Y85958D1*
G1X32767Y11250D2*
G1X32767Y13750D1*
G1X33433Y13750D1*
G1X33647Y13625D1*
G1X33780Y13458D1*
G1X33833Y13125D1*
G1X33780Y12792D1*
G1X33620Y12583D1*
G1X33433Y12458D1*
G1X32767Y12458D1*
G1X33433Y12458D2*
G1X33833Y11250D1*
G1X35500Y11250D2*
G1X35500Y13750D1*
G1X35180Y13250D1*
G1X35180Y11250D2*
G1X35820Y11250D1*
G1X37700Y11250D2*
G1X37700Y13750D1*
G1X37380Y13250D1*
G1X37380Y11250D2*
G1X38020Y11250D1*
G1X46500Y31117D2*
G1X44000Y31117D1*
G1X44000Y31783D1*
G1X44125Y31997D1*
G1X44292Y32130D1*
G1X44625Y32183D1*
G1X44958Y32130D1*
G1X45167Y31970D1*
G1X45292Y31783D1*
G1X45292Y31117D1*
G1X45292Y31783D2*
G1X46500Y32183D1*
G1X46125Y33263D2*
G1X46333Y33423D1*
G1X46458Y33610D1*
G1X46500Y33850D1*
G1X46417Y34090D1*
G1X46250Y34277D1*
G1X45958Y34410D1*
G1X45625Y34437D1*
G1X45292Y34383D1*
G1X45083Y34250D1*
G1X44917Y34063D1*
G1X44875Y33877D1*
G1X44917Y33690D1*
G1X45083Y33450D1*
G1X44000Y33530D1*
G1X44000Y34250D1*
G1X29117Y40250D2*
G1X29117Y42750D1*
G1X29783Y42750D1*
G1X29997Y42625D1*
G1X30130Y42458D1*
G1X30183Y42125D1*
G1X30130Y41792D1*
G1X29970Y41583D1*
G1X29783Y41458D1*
G1X29117Y41458D1*
G1X29783Y41458D2*
G1X30183Y40250D1*
G1X31343Y42333D2*
G1X31503Y42583D1*
G1X31690Y42708D1*
G1X31903Y42750D1*
G1X32170Y42667D1*
G1X32357Y42458D1*
G1X32410Y42208D1*
G1X32383Y41958D1*
G1X32277Y41750D1*
G1X31743Y41333D1*
G1X31503Y41042D1*
G1X31343Y40625D1*
G1X31290Y40250D1*
G1X32410Y40250D1*
G1X29117Y53750D2*
G1X29117Y56250D1*
G1X29783Y56250D1*
G1X29997Y56125D1*
G1X30130Y55958D1*
G1X30183Y55625D1*
G1X30130Y55292D1*
G1X29970Y55083D1*
G1X29783Y54958D1*
G1X29117Y54958D1*
G1X29783Y54958D2*
G1X30183Y53750D1*
G1X31263Y54250D2*
G1X31423Y53958D1*
G1X31637Y53792D1*
G1X31877Y53750D1*
G1X32090Y53792D1*
G1X32303Y54000D1*
G1X32437Y54250D1*
G1X32463Y54500D1*
G1X32410Y54792D1*
G1X32223Y55000D1*
G1X32037Y55083D1*
G1X31797Y55083D1*
G1X32037Y55083D2*
G1X32197Y55208D1*
G1X32330Y55417D1*
G1X32383Y55667D1*
G1X32330Y55917D1*
G1X32197Y56125D1*
G1X31957Y56250D1*
G1X31717Y56208D1*
G1X31477Y56042D1*
G1X29117Y47250D2*
G1X29117Y49750D1*
G1X29783Y49750D1*
G1X29997Y49625D1*
G1X30130Y49458D1*
G1X30183Y49125D1*
G1X30130Y48792D1*
G1X29970Y48583D1*
G1X29783Y48458D1*
G1X29117Y48458D1*
G1X29783Y48458D2*
G1X30183Y47250D1*
G1X31343Y48292D2*
G1X31530Y48583D1*
G1X31690Y48750D1*
G1X31903Y48833D1*
G1X32090Y48750D1*
G1X32223Y48583D1*
G1X32330Y48333D1*
G1X32357Y48042D1*
G1X32330Y47792D1*
G1X32223Y47542D1*
G1X32063Y47333D1*
G1X31877Y47250D1*
G1X31663Y47333D1*
G1X31477Y47583D1*
G1X31370Y47958D1*
G1X31343Y48375D1*
G1X31397Y48917D1*
G1X31477Y49208D1*
G1X31610Y49500D1*
G1X31797Y49708D1*
G1X31983Y49750D1*
G1X32170Y49667D1*
G1X32303Y49458D1*
G1X29117Y60250D2*
G1X29117Y62750D1*
G1X29783Y62750D1*
G1X29997Y62625D1*
G1X30130Y62458D1*
G1X30183Y62125D1*
G1X30130Y61792D1*
G1X29970Y61583D1*
G1X29783Y61458D1*
G1X29117Y61458D1*
G1X29783Y61458D2*
G1X30183Y60250D1*
G1X31797Y60250D2*
G1X31850Y60792D1*
G1X31930Y61250D1*
G1X32037Y61667D1*
G1X32170Y62125D1*
G1X32383Y62750D1*
G1X31317Y62750D1*
G1X44250Y92867D2*
G1X41750Y92867D1*
G1X41750Y93533D1*
G1X41875Y93747D1*
G1X42042Y93880D1*
G1X42375Y93933D1*
G1X42708Y93880D1*
G1X42917Y93720D1*
G1X43042Y93533D1*
G1X43042Y92867D1*
G1X43042Y93533D2*
G1X44250Y93933D1*
G1X44250Y95600D2*
G1X44208Y95787D1*
G1X44083Y96000D1*
G1X43875Y96133D1*
G1X43583Y96187D1*
G1X43292Y96133D1*
G1X43042Y95973D1*
G1X42917Y95733D1*
G1X42917Y95467D1*
G1X42833Y95307D1*
G1X42625Y95173D1*
G1X42333Y95120D1*
G1X42042Y95200D1*
G1X41833Y95387D1*
G1X41750Y95600D1*
G1X41833Y95813D1*
G1X42042Y96000D1*
G1X42333Y96080D1*
G1X42625Y96027D1*
G1X42833Y95893D1*
G1X42917Y95733D1*
G1X42917Y95467D1*
G1X43042Y95227D1*
G1X43292Y95067D1*
G1X43583Y95013D1*
G1X43875Y95067D1*
G1X44083Y95200D1*
G1X44208Y95413D1*
G1X44250Y95600D1*
G1X34267Y93000D2*
G1X34267Y95500D1*
G1X34933Y95500D1*
G1X35147Y95375D1*
G1X35280Y95208D1*
G1X35333Y94875D1*
G1X35280Y94542D1*
G1X35120Y94333D1*
G1X34933Y94208D1*
G1X34267Y94208D1*
G1X34933Y94208D2*
G1X35333Y93000D1*
G1X36493Y95083D2*
G1X36653Y95333D1*
G1X36840Y95458D1*
G1X37053Y95500D1*
G1X37320Y95417D1*
G1X37507Y95208D1*
G1X37560Y94958D1*
G1X37533Y94708D1*
G1X37427Y94500D1*
G1X36893Y94083D1*
G1X36653Y93792D1*
G1X36493Y93375D1*
G1X36440Y93000D1*
G1X37560Y93000D1*
G1X39200Y95500D2*
G1X38987Y95417D1*
G1X38827Y95208D1*
G1X38720Y94958D1*
G1X38640Y94625D1*
G1X38613Y94250D1*
G1X38640Y93875D1*
G1X38720Y93542D1*
G1X38827Y93292D1*
G1X38987Y93083D1*
G1X39200Y93000D1*
G1X39413Y93083D1*
G1X39573Y93292D1*
G1X39680Y93542D1*
G1X39760Y93875D1*
G1X39787Y94250D1*
G1X39760Y94625D1*
G1X39680Y94958D1*
G1X39573Y95208D1*
G1X39413Y95417D1*
G1X39200Y95500D1*
G1X30517Y79250D2*
G1X30517Y81750D1*
G1X31183Y81750D1*
G1X31397Y81625D1*
G1X31530Y81458D1*
G1X31583Y81125D1*
G1X31530Y80792D1*
G1X31370Y80583D1*
G1X31183Y80458D1*
G1X30517Y80458D1*
G1X31183Y80458D2*
G1X31583Y79250D1*
G1X33250Y79250D2*
G1X33250Y81750D1*
G1X32930Y81250D1*
G1X32930Y79250D2*
G1X33570Y79250D1*
G1X34943Y81333D2*
G1X35103Y81583D1*
G1X35290Y81708D1*
G1X35503Y81750D1*
G1X35770Y81667D1*
G1X35957Y81458D1*
G1X36010Y81208D1*
G1X35983Y80958D1*
G1X35877Y80750D1*
G1X35343Y80333D1*
G1X35103Y80042D1*
G1X34943Y79625D1*
G1X34890Y79250D1*
G1X36010Y79250D1*
G1X54367Y9000D2*
G1X54500Y8750D1*
G1X54660Y8583D1*
G1X54847Y8500D1*
G1X55060Y8583D1*
G1X55220Y8750D1*
G1X55380Y9000D1*
G1X55433Y9333D1*
G1X55433Y11000D1*
G1X57100Y8500D2*
G1X57100Y11000D1*
G1X56780Y10500D1*
G1X56780Y8500D2*
G1X57420Y8500D1*
G1X50000Y18750D2*
G1X50000Y21250D1*
G1X49680Y20750D1*
G1X49680Y18750D2*
G1X50320Y18750D1*
G1X51487Y42542D2*
G1X51327Y42667D1*
G1X51140Y42750D1*
G1X50927Y42750D1*
G1X50687Y42625D1*
G1X50500Y42417D1*
G1X50367Y42167D1*
G1X50260Y41750D1*
G1X50233Y41375D1*
G1X50287Y41000D1*
G1X50367Y40750D1*
G1X50527Y40500D1*
G1X50713Y40333D1*
G1X50900Y40250D1*
G1X51087Y40250D1*
G1X51273Y40333D1*
G1X51433Y40458D1*
G1X51567Y40625D1*
G1X53420Y40250D2*
G1X53420Y42750D1*
G1X52433Y40958D1*
G1X53767Y40958D1*
G1X51487Y52542D2*
G1X51327Y52667D1*
G1X51140Y52750D1*
G1X50927Y52750D1*
G1X50687Y52625D1*
G1X50500Y52417D1*
G1X50367Y52167D1*
G1X50260Y51750D1*
G1X50233Y51375D1*
G1X50287Y51000D1*
G1X50367Y50750D1*
G1X50527Y50500D1*
G1X50713Y50333D1*
G1X50900Y50250D1*
G1X51087Y50250D1*
G1X51273Y50333D1*
G1X51433Y50458D1*
G1X51567Y50625D1*
G1X52593Y51292D2*
G1X52780Y51583D1*
G1X52940Y51750D1*
G1X53153Y51833D1*
G1X53340Y51750D1*
G1X53473Y51583D1*
G1X53580Y51333D1*
G1X53607Y51042D1*
G1X53580Y50792D1*
G1X53473Y50542D1*
G1X53313Y50333D1*
G1X53127Y50250D1*
G1X52913Y50333D1*
G1X52727Y50583D1*
G1X52620Y50958D1*
G1X52593Y51375D1*
G1X52647Y51917D1*
G1X52727Y52208D1*
G1X52860Y52500D1*
G1X53047Y52708D1*
G1X53233Y52750D1*
G1X53420Y52667D1*
G1X53553Y52458D1*
G1X51487Y62542D2*
G1X51327Y62667D1*
G1X51140Y62750D1*
G1X50927Y62750D1*
G1X50687Y62625D1*
G1X50500Y62417D1*
G1X50367Y62167D1*
G1X50260Y61750D1*
G1X50233Y61375D1*
G1X50287Y61000D1*
G1X50367Y60750D1*
G1X50527Y60500D1*
G1X50713Y60333D1*
G1X50900Y60250D1*
G1X51087Y60250D1*
G1X51273Y60333D1*
G1X51433Y60458D1*
G1X51567Y60625D1*
G1X53047Y60250D2*
G1X53100Y60792D1*
G1X53180Y61250D1*
G1X53287Y61667D1*
G1X53420Y62125D1*
G1X53633Y62750D1*
G1X52567Y62750D1*
G1X51387Y74542D2*
G1X51227Y74667D1*
G1X51040Y74750D1*
G1X50827Y74750D1*
G1X50587Y74625D1*
G1X50400Y74417D1*
G1X50267Y74167D1*
G1X50160Y73750D1*
G1X50133Y73375D1*
G1X50187Y73000D1*
G1X50267Y72750D1*
G1X50427Y72500D1*
G1X50613Y72333D1*
G1X50800Y72250D1*
G1X50987Y72250D1*
G1X51173Y72333D1*
G1X51333Y72458D1*
G1X51467Y72625D1*
G1X53000Y72250D2*
G1X53000Y74750D1*
G1X52680Y74250D1*
G1X52680Y72250D2*
G1X53320Y72250D1*
G1X55200Y72250D2*
G1X55200Y74750D1*
G1X54880Y74250D1*
G1X54880Y72250D2*
G1X55520Y72250D1*
G1X50367Y66250D2*
G1X50367Y68750D1*
G1X51033Y68750D1*
G1X51247Y68625D1*
G1X51380Y68458D1*
G1X51433Y68125D1*
G1X51380Y67792D1*
G1X51220Y67583D1*
G1X51033Y67458D1*
G1X50367Y67458D1*
G1X51033Y67458D2*
G1X51433Y66250D1*
G1X53420Y66250D2*
G1X53420Y68750D1*
G1X52433Y66958D1*
G1X53767Y66958D1*
G1X61767Y77250D2*
G1X61767Y79750D1*
G1X62433Y79750D1*
G1X62647Y79625D1*
G1X62780Y79458D1*
G1X62833Y79125D1*
G1X62780Y78792D1*
G1X62620Y78583D1*
G1X62433Y78458D1*
G1X61767Y78458D1*
G1X62433Y78458D2*
G1X62833Y77250D1*
G1X64500Y77250D2*
G1X64500Y79750D1*
G1X64180Y79250D1*
G1X64180Y77250D2*
G1X64820Y77250D1*
G1X66193Y78292D2*
G1X66380Y78583D1*
G1X66540Y78750D1*
G1X66753Y78833D1*
G1X66940Y78750D1*
G1X67073Y78583D1*
G1X67180Y78333D1*
G1X67207Y78042D1*
G1X67180Y77792D1*
G1X67073Y77542D1*
G1X66913Y77333D1*
G1X66727Y77250D1*
G1X66513Y77333D1*
G1X66327Y77583D1*
G1X66220Y77958D1*
G1X66193Y78375D1*
G1X66247Y78917D1*
G1X66327Y79208D1*
G1X66460Y79500D1*
G1X66647Y79708D1*
G1X66833Y79750D1*
G1X67020Y79667D1*
G1X67153Y79458D1*
G1X61800Y71000D2*
G1X61800Y68500D1*
G1X61187Y71000D2*
G1X62413Y71000D1*
G1X63467Y68500D2*
G1X63467Y71000D1*
G1X64107Y71000D1*
G1X64320Y70875D1*
G1X64480Y70583D1*
G1X64533Y70250D1*
G1X64480Y69917D1*
G1X64347Y69667D1*
G1X64107Y69542D1*
G1X63467Y69542D1*
G1X65613Y69000D2*
G1X65773Y68708D1*
G1X65987Y68542D1*
G1X66227Y68500D1*
G1X66440Y68542D1*
G1X66653Y68750D1*
G1X66787Y69000D1*
G1X66813Y69250D1*
G1X66760Y69542D1*
G1X66573Y69750D1*
G1X66387Y69833D1*
G1X66147Y69833D1*
G1X66387Y69833D2*
G1X66547Y69958D1*
G1X66680Y70167D1*
G1X66733Y70417D1*
G1X66680Y70667D1*
G1X66547Y70875D1*
G1X66307Y71000D1*
G1X66067Y70958D1*
G1X65827Y70792D1*
G1X56750Y92867D2*
G1X54250Y92867D1*
G1X54250Y93533D1*
G1X54375Y93747D1*
G1X54542Y93880D1*
G1X54875Y93933D1*
G1X55208Y93880D1*
G1X55417Y93720D1*
G1X55542Y93533D1*
G1X55542Y92867D1*
G1X55542Y93533D2*
G1X56750Y93933D1*
G1X56458Y95147D2*
G1X56667Y95333D1*
G1X56750Y95547D1*
G1X56667Y95760D1*
G1X56417Y95947D1*
G1X56042Y96080D1*
G1X55667Y96133D1*
G1X55208Y96133D1*
G1X54833Y96080D1*
G1X54500Y95947D1*
G1X54333Y95787D1*
G1X54250Y95600D1*
G1X54333Y95387D1*
G1X54500Y95227D1*
G1X54750Y95120D1*
G1X55083Y95067D1*
G1X55375Y95120D1*
G1X55667Y95253D1*
G1X55833Y95413D1*
G1X55875Y95600D1*
G1X55792Y95813D1*
G1X55583Y95973D1*
G1X55208Y96133D1*
G1X68750Y87517D2*
G1X66250Y87517D1*
G1X66250Y88183D1*
G1X66375Y88397D1*
G1X66542Y88530D1*
G1X66875Y88583D1*
G1X67208Y88530D1*
G1X67417Y88370D1*
G1X67542Y88183D1*
G1X67542Y87517D1*
G1X67542Y88183D2*
G1X68750Y88583D1*
G1X68750Y90250D2*
G1X66250Y90250D1*
G1X66750Y89930D1*
G1X68750Y89930D2*
G1X68750Y90570D1*
G1X66250Y92450D2*
G1X66333Y92237D1*
G1X66542Y92077D1*
G1X66792Y91970D1*
G1X67125Y91890D1*
G1X67500Y91863D1*
G1X67875Y91890D1*
G1X68208Y91970D1*
G1X68458Y92077D1*
G1X68667Y92237D1*
G1X68750Y92450D1*
G1X68667Y92663D1*
G1X68458Y92823D1*
G1X68208Y92930D1*
G1X67875Y93010D1*
G1X67500Y93037D1*
G1X67125Y93010D1*
G1X66792Y92930D1*
G1X66542Y92823D1*
G1X66333Y92663D1*
G1X66250Y92450D1*
G1X62750Y87517D2*
G1X60250Y87517D1*
G1X60250Y88183D1*
G1X60375Y88397D1*
G1X60542Y88530D1*
G1X60875Y88583D1*
G1X61208Y88530D1*
G1X61417Y88370D1*
G1X61542Y88183D1*
G1X61542Y87517D1*
G1X61542Y88183D2*
G1X62750Y88583D1*
G1X60667Y89743D2*
G1X60417Y89903D1*
G1X60292Y90090D1*
G1X60250Y90303D1*
G1X60333Y90570D1*
G1X60542Y90757D1*
G1X60792Y90810D1*
G1X61042Y90783D1*
G1X61250Y90677D1*
G1X61667Y90143D1*
G1X61958Y89903D1*
G1X62375Y89743D1*
G1X62750Y89690D1*
G1X62750Y90810D1*
G1X60667Y91943D2*
G1X60417Y92103D1*
G1X60292Y92290D1*
G1X60250Y92503D1*
G1X60333Y92770D1*
G1X60542Y92957D1*
G1X60792Y93010D1*
G1X61042Y92983D1*
G1X61250Y92877D1*
G1X61667Y92343D1*
G1X61958Y92103D1*
G1X62375Y91943D1*
G1X62750Y91890D1*
G1X62750Y93010D1*
G1X46767Y93000D2*
G1X46767Y95500D1*
G1X47433Y95500D1*
G1X47647Y95375D1*
G1X47780Y95208D1*
G1X47833Y94875D1*
G1X47780Y94542D1*
G1X47620Y94333D1*
G1X47433Y94208D1*
G1X46767Y94208D1*
G1X47433Y94208D2*
G1X47833Y93000D1*
G1X48993Y95083D2*
G1X49153Y95333D1*
G1X49340Y95458D1*
G1X49553Y95500D1*
G1X49820Y95417D1*
G1X50007Y95208D1*
G1X50060Y94958D1*
G1X50033Y94708D1*
G1X49927Y94500D1*
G1X49393Y94083D1*
G1X49153Y93792D1*
G1X48993Y93375D1*
G1X48940Y93000D1*
G1X50060Y93000D1*
G1X51700Y93000D2*
G1X51700Y95500D1*
G1X51380Y95000D1*
G1X51380Y93000D2*
G1X52020Y93000D1*
G1X49767Y82500D2*
G1X49767Y85000D1*
G1X50433Y85000D1*
G1X50647Y84875D1*
G1X50780Y84708D1*
G1X50833Y84375D1*
G1X50780Y84042D1*
G1X50620Y83833D1*
G1X50433Y83708D1*
G1X49767Y83708D1*
G1X50433Y83708D2*
G1X50833Y82500D1*
G1X52500Y82500D2*
G1X52500Y85000D1*
G1X52180Y84500D1*
G1X52180Y82500D2*
G1X52820Y82500D1*
G1X55020Y82500D2*
G1X55020Y85000D1*
G1X54033Y83208D1*
G1X55367Y83208D1*
G1X80250Y6000D2*
G1X80250Y8500D1*
G1X79930Y8000D1*
G1X79930Y6000D2*
G1X80570Y6000D1*
G1X83617Y12500D2*
G1X83750Y12250D1*
G1X83910Y12083D1*
G1X84097Y12000D1*
G1X84310Y12083D1*
G1X84470Y12250D1*
G1X84630Y12500D1*
G1X84683Y12833D1*
G1X84683Y14500D1*
G1X85763Y12500D2*
G1X85923Y12208D1*
G1X86137Y12042D1*
G1X86377Y12000D1*
G1X86590Y12042D1*
G1X86803Y12250D1*
G1X86937Y12500D1*
G1X86963Y12750D1*
G1X86910Y13042D1*
G1X86723Y13250D1*
G1X86537Y13333D1*
G1X86297Y13333D1*
G1X86537Y13333D2*
G1X86697Y13458D1*
G1X86830Y13667D1*
G1X86883Y13917D1*
G1X86830Y14167D1*
G1X86697Y14375D1*
G1X86457Y14500D1*
G1X86217Y14458D1*
G1X85977Y14292D1*
G1X86737Y26542D2*
G1X86577Y26667D1*
G1X86390Y26750D1*
G1X86177Y26750D1*
G1X85937Y26625D1*
G1X85750Y26417D1*
G1X85617Y26167D1*
G1X85510Y25750D1*
G1X85483Y25375D1*
G1X85537Y25000D1*
G1X85617Y24750D1*
G1X85777Y24500D1*
G1X85963Y24333D1*
G1X86150Y24250D1*
G1X86337Y24250D1*
G1X86523Y24333D1*
G1X86683Y24458D1*
G1X86817Y24625D1*
G1X88350Y24250D2*
G1X88350Y26750D1*
G1X88030Y26250D1*
G1X88030Y24250D2*
G1X88670Y24250D1*
G1X71267Y25000D2*
G1X71267Y27500D1*
G1X71933Y27500D1*
G1X72147Y27375D1*
G1X72280Y27208D1*
G1X72333Y26875D1*
G1X72280Y26542D1*
G1X72120Y26333D1*
G1X71933Y26208D1*
G1X71267Y26208D1*
G1X71933Y26208D2*
G1X72333Y25000D1*
G1X73493Y27083D2*
G1X73653Y27333D1*
G1X73840Y27458D1*
G1X74053Y27500D1*
G1X74320Y27417D1*
G1X74507Y27208D1*
G1X74560Y26958D1*
G1X74533Y26708D1*
G1X74427Y26500D1*
G1X73893Y26083D1*
G1X73653Y25792D1*
G1X73493Y25375D1*
G1X73440Y25000D1*
G1X74560Y25000D1*
G1X75693Y26042D2*
G1X75880Y26333D1*
G1X76040Y26500D1*
G1X76253Y26583D1*
G1X76440Y26500D1*
G1X76573Y26333D1*
G1X76680Y26083D1*
G1X76707Y25792D1*
G1X76680Y25542D1*
G1X76573Y25292D1*
G1X76413Y25083D1*
G1X76227Y25000D1*
G1X76013Y25083D1*
G1X75827Y25333D1*
G1X75720Y25708D1*
G1X75693Y26125D1*
G1X75747Y26667D1*
G1X75827Y26958D1*
G1X75960Y27250D1*
G1X76147Y27458D1*
G1X76333Y27500D1*
G1X76520Y27417D1*
G1X76653Y27208D1*
G1X77050Y36000D2*
G1X77050Y33500D1*
G1X76437Y36000D2*
G1X77663Y36000D1*
G1X78717Y33500D2*
G1X78717Y36000D1*
G1X79357Y36000D1*
G1X79570Y35875D1*
G1X79730Y35583D1*
G1X79783Y35250D1*
G1X79730Y34917D1*
G1X79597Y34667D1*
G1X79357Y34542D1*
G1X78717Y34542D1*
G1X81450Y33500D2*
G1X81450Y36000D1*
G1X81130Y35500D1*
G1X81130Y33500D2*
G1X81770Y33500D1*
G1X71313Y53750D2*
G1X71313Y51958D1*
G1X71420Y51583D1*
G1X71633Y51333D1*
G1X71900Y51250D1*
G1X72167Y51333D1*
G1X72380Y51583D1*
G1X72487Y51958D1*
G1X72487Y53750D1*
G1X74100Y51250D2*
G1X74100Y53750D1*
G1X73780Y53250D1*
G1X73780Y51250D2*
G1X74420Y51250D1*
G1X86458Y68887D2*
G1X86333Y68727D1*
G1X86250Y68540D1*
G1X86250Y68327D1*
G1X86375Y68087D1*
G1X86583Y67900D1*
G1X86833Y67767D1*
G1X87250Y67660D1*
G1X87625Y67633D1*
G1X88000Y67687D1*
G1X88250Y67767D1*
G1X88500Y67927D1*
G1X88667Y68113D1*
G1X88750Y68300D1*
G1X88750Y68487D1*
G1X88667Y68673D1*
G1X88542Y68833D1*
G1X88375Y68967D1*
G1X86667Y69993D2*
G1X86417Y70153D1*
G1X86292Y70340D1*
G1X86250Y70553D1*
G1X86333Y70820D1*
G1X86542Y71007D1*
G1X86792Y71060D1*
G1X87042Y71033D1*
G1X87250Y70927D1*
G1X87667Y70393D1*
G1X87958Y70153D1*
G1X88375Y69993D1*
G1X88750Y69940D1*
G1X88750Y71060D1*
G1X86250Y72700D2*
G1X86333Y72487D1*
G1X86542Y72327D1*
G1X86792Y72220D1*
G1X87125Y72140D1*
G1X87500Y72113D1*
G1X87875Y72140D1*
G1X88208Y72220D1*
G1X88458Y72327D1*
G1X88667Y72487D1*
G1X88750Y72700D1*
G1X88667Y72913D1*
G1X88458Y73073D1*
G1X88208Y73180D1*
G1X87875Y73260D1*
G1X87500Y73287D1*
G1X87125Y73260D1*
G1X86792Y73180D1*
G1X86542Y73073D1*
G1X86333Y72913D1*
G1X86250Y72700D1*
G1X79550Y73500D2*
G1X79550Y71000D1*
G1X78937Y73500D2*
G1X80163Y73500D1*
G1X81217Y71000D2*
G1X81217Y73500D1*
G1X81857Y73500D1*
G1X82070Y73375D1*
G1X82230Y73083D1*
G1X82283Y72750D1*
G1X82230Y72417D1*
G1X82097Y72167D1*
G1X81857Y72042D1*
G1X81217Y72042D1*
G1X83443Y72042D2*
G1X83630Y72333D1*
G1X83790Y72500D1*
G1X84003Y72583D1*
G1X84190Y72500D1*
G1X84323Y72333D1*
G1X84430Y72083D1*
G1X84457Y71792D1*
G1X84430Y71542D1*
G1X84323Y71292D1*
G1X84163Y71083D1*
G1X83977Y71000D1*
G1X83763Y71083D1*
G1X83577Y71333D1*
G1X83470Y71708D1*
G1X83443Y72125D1*
G1X83497Y72667D1*
G1X83577Y72958D1*
G1X83710Y73250D1*
G1X83897Y73458D1*
G1X84083Y73500D1*
G1X84270Y73417D1*
G1X84403Y73208D1*
G1X72800Y70250D2*
G1X72800Y67750D1*
G1X72187Y70250D2*
G1X73413Y70250D1*
G1X74467Y67750D2*
G1X74467Y70250D1*
G1X75107Y70250D1*
G1X75320Y70125D1*
G1X75480Y69833D1*
G1X75533Y69500D1*
G1X75480Y69167D1*
G1X75347Y68917D1*
G1X75107Y68792D1*
G1X74467Y68792D1*
G1X77147Y67750D2*
G1X77200Y68292D1*
G1X77280Y68750D1*
G1X77387Y69167D1*
G1X77520Y69625D1*
G1X77733Y70250D1*
G1X76667Y70250D1*
G1X78767Y93500D2*
G1X78767Y96000D1*
G1X79433Y96000D1*
G1X79647Y95875D1*
G1X79780Y95708D1*
G1X79833Y95375D1*
G1X79780Y95042D1*
G1X79620Y94833D1*
G1X79433Y94708D1*
G1X78767Y94708D1*
G1X79433Y94708D2*
G1X79833Y93500D1*
G1X80993Y95583D2*
G1X81153Y95833D1*
G1X81340Y95958D1*
G1X81553Y96000D1*
G1X81820Y95917D1*
G1X82007Y95708D1*
G1X82060Y95458D1*
G1X82033Y95208D1*
G1X81927Y95000D1*
G1X81393Y94583D1*
G1X81153Y94292D1*
G1X80993Y93875D1*
G1X80940Y93500D1*
G1X82060Y93500D1*
G1X83113Y93875D2*
G1X83273Y93667D1*
G1X83460Y93542D1*
G1X83700Y93500D1*
G1X83940Y93583D1*
G1X84127Y93750D1*
G1X84260Y94042D1*
G1X84287Y94375D1*
G1X84233Y94708D1*
G1X84100Y94917D1*
G1X83913Y95083D1*
G1X83727Y95125D1*
G1X83540Y95083D1*
G1X83300Y94917D1*
G1X83380Y96000D1*
G1X84100Y96000D1*
G1X72550Y87500D2*
G1X72550Y85000D1*
G1X71937Y87500D2*
G1X73163Y87500D1*
G1X74217Y85000D2*
G1X74217Y87500D1*
G1X74857Y87500D1*
G1X75070Y87375D1*
G1X75230Y87083D1*
G1X75283Y86750D1*
G1X75230Y86417D1*
G1X75097Y86167D1*
G1X74857Y86042D1*
G1X74217Y86042D1*
G1X76363Y85375D2*
G1X76523Y85167D1*
G1X76710Y85042D1*
G1X76950Y85000D1*
G1X77190Y85083D1*
G1X77377Y85250D1*
G1X77510Y85542D1*
G1X77537Y85875D1*
G1X77483Y86208D1*
G1X77350Y86417D1*
G1X77163Y86583D1*
G1X76977Y86625D1*
G1X76790Y86583D1*
G1X76550Y86417D1*
G1X76630Y87500D1*
G1X77350Y87500D1*
G1X78550Y81500D2*
G1X78550Y79000D1*
G1X77937Y81500D2*
G1X79163Y81500D1*
G1X80217Y79000D2*
G1X80217Y81500D1*
G1X80857Y81500D1*
G1X81070Y81375D1*
G1X81230Y81083D1*
G1X81283Y80750D1*
G1X81230Y80417D1*
G1X81097Y80167D1*
G1X80857Y80042D1*
G1X80217Y80042D1*
G1X83270Y79000D2*
G1X83270Y81500D1*
G1X82283Y79708D1*
G1X83617Y79708D1*
G1X99000Y6000D2*
G1X99000Y8500D1*
G1X98680Y8000D1*
G1X98680Y6000D2*
G1X99320Y6000D1*
G1X99867Y12500D2*
G1X100000Y12250D1*
G1X100160Y12083D1*
G1X100347Y12000D1*
G1X100560Y12083D1*
G1X100720Y12250D1*
G1X100880Y12500D1*
G1X100933Y12833D1*
G1X100933Y14500D1*
G1X102093Y14083D2*
G1X102253Y14333D1*
G1X102440Y14458D1*
G1X102653Y14500D1*
G1X102920Y14417D1*
G1X103107Y14208D1*
G1X103160Y13958D1*
G1X103133Y13708D1*
G1X103027Y13500D1*
G1X102493Y13083D1*
G1X102253Y12792D1*
G1X102093Y12375D1*
G1X102040Y12000D1*
G1X103160Y12000D1*
G1X96958Y28237D2*
G1X96833Y28077D1*
G1X96750Y27890D1*
G1X96750Y27677D1*
G1X96875Y27437D1*
G1X97083Y27250D1*
G1X97333Y27117D1*
G1X97750Y27010D1*
G1X98125Y26983D1*
G1X98500Y27037D1*
G1X98750Y27117D1*
G1X99000Y27277D1*
G1X99167Y27463D1*
G1X99250Y27650D1*
G1X99250Y27837D1*
G1X99167Y28023D1*
G1X99042Y28183D1*
G1X98875Y28317D1*
G1X98750Y29263D2*
G1X99042Y29423D1*
G1X99208Y29637D1*
G1X99250Y29877D1*
G1X99208Y30090D1*
G1X99000Y30303D1*
G1X98750Y30437D1*
G1X98500Y30463D1*
G1X98208Y30410D1*
G1X98000Y30223D1*
G1X97917Y30037D1*
G1X97917Y29797D1*
G1X97917Y30037D2*
G1X97792Y30197D1*
G1X97583Y30330D1*
G1X97333Y30383D1*
G1X97083Y30330D1*
G1X96875Y30197D1*
G1X96750Y29957D1*
G1X96792Y29717D1*
G1X96958Y29477D1*
G1X103958Y33987D2*
G1X103833Y33827D1*
G1X103750Y33640D1*
G1X103750Y33427D1*
G1X103875Y33187D1*
G1X104083Y33000D1*
G1X104333Y32867D1*
G1X104750Y32760D1*
G1X105125Y32733D1*
G1X105500Y32787D1*
G1X105750Y32867D1*
G1X106000Y33027D1*
G1X106167Y33213D1*
G1X106250Y33400D1*
G1X106250Y33587D1*
G1X106167Y33773D1*
G1X106042Y33933D1*
G1X105875Y34067D1*
G1X104167Y35093D2*
G1X103917Y35253D1*
G1X103792Y35440D1*
G1X103750Y35653D1*
G1X103833Y35920D1*
G1X104042Y36107D1*
G1X104292Y36160D1*
G1X104542Y36133D1*
G1X104750Y36027D1*
G1X105167Y35493D1*
G1X105458Y35253D1*
G1X105875Y35093D1*
G1X106250Y35040D1*
G1X106250Y36160D1*
G1X108500Y20267D2*
G1X106000Y20267D1*
G1X106000Y20933D1*
G1X106125Y21147D1*
G1X106292Y21280D1*
G1X106625Y21333D1*
G1X106958Y21280D1*
G1X107167Y21120D1*
G1X107292Y20933D1*
G1X107292Y20267D1*
G1X107292Y20933D2*
G1X108500Y21333D1*
G1X108500Y23000D2*
G1X106000Y23000D1*
G1X106500Y22680D1*
G1X108500Y22680D2*
G1X108500Y23320D1*
G1X108125Y24613D2*
G1X108333Y24773D1*
G1X108458Y24960D1*
G1X108500Y25200D1*
G1X108417Y25440D1*
G1X108250Y25627D1*
G1X107958Y25760D1*
G1X107625Y25787D1*
G1X107292Y25733D1*
G1X107083Y25600D1*
G1X106917Y25413D1*
G1X106875Y25227D1*
G1X106917Y25040D1*
G1X107083Y24800D1*
G1X106000Y24880D1*
G1X106000Y25600D1*
G1X89300Y35750D2*
G1X89300Y33250D1*
G1X88687Y35750D2*
G1X89913Y35750D1*
G1X90967Y33250D2*
G1X90967Y35750D1*
G1X91607Y35750D1*
G1X91820Y35625D1*
G1X91980Y35333D1*
G1X92033Y35000D1*
G1X91980Y34667D1*
G1X91847Y34417D1*
G1X91607Y34292D1*
G1X90967Y34292D1*
G1X93193Y35333D2*
G1X93353Y35583D1*
G1X93540Y35708D1*
G1X93753Y35750D1*
G1X94020Y35667D1*
G1X94207Y35458D1*
G1X94260Y35208D1*
G1X94233Y34958D1*
G1X94127Y34750D1*
G1X93593Y34333D1*
G1X93353Y34042D1*
G1X93193Y33625D1*
G1X93140Y33250D1*
G1X94260Y33250D1*
G1X95987Y45542D2*
G1X95827Y45667D1*
G1X95640Y45750D1*
G1X95427Y45750D1*
G1X95187Y45625D1*
G1X95000Y45417D1*
G1X94867Y45167D1*
G1X94760Y44750D1*
G1X94733Y44375D1*
G1X94787Y44000D1*
G1X94867Y43750D1*
G1X95027Y43500D1*
G1X95213Y43333D1*
G1X95400Y43250D1*
G1X95587Y43250D1*
G1X95773Y43333D1*
G1X95933Y43458D1*
G1X96067Y43625D1*
G1X97013Y43625D2*
G1X97173Y43417D1*
G1X97360Y43292D1*
G1X97600Y43250D1*
G1X97840Y43333D1*
G1X98027Y43500D1*
G1X98160Y43792D1*
G1X98187Y44125D1*
G1X98133Y44458D1*
G1X98000Y44667D1*
G1X97813Y44833D1*
G1X97627Y44875D1*
G1X97440Y44833D1*
G1X97200Y44667D1*
G1X97280Y45750D1*
G1X98000Y45750D1*
G1X95987Y51542D2*
G1X95827Y51667D1*
G1X95640Y51750D1*
G1X95427Y51750D1*
G1X95187Y51625D1*
G1X95000Y51417D1*
G1X94867Y51167D1*
G1X94760Y50750D1*
G1X94733Y50375D1*
G1X94787Y50000D1*
G1X94867Y49750D1*
G1X95027Y49500D1*
G1X95213Y49333D1*
G1X95400Y49250D1*
G1X95587Y49250D1*
G1X95773Y49333D1*
G1X95933Y49458D1*
G1X96067Y49625D1*
G1X97600Y49250D2*
G1X97787Y49292D1*
G1X98000Y49417D1*
G1X98133Y49625D1*
G1X98187Y49917D1*
G1X98133Y50208D1*
G1X97973Y50458D1*
G1X97733Y50583D1*
G1X97467Y50583D1*
G1X97307Y50667D1*
G1X97173Y50875D1*
G1X97120Y51167D1*
G1X97200Y51458D1*
G1X97387Y51667D1*
G1X97600Y51750D1*
G1X97813Y51667D1*
G1X98000Y51458D1*
G1X98080Y51167D1*
G1X98027Y50875D1*
G1X97893Y50667D1*
G1X97733Y50583D1*
G1X97467Y50583D1*
G1X97227Y50458D1*
G1X97067Y50208D1*
G1X97013Y49917D1*
G1X97067Y49625D1*
G1X97200Y49417D1*
G1X97413Y49292D1*
G1X97600Y49250D1*
G1X103867Y62500D2*
G1X103867Y60000D1*
G1X104933Y60000D1*
G1X106600Y60000D2*
G1X106600Y62500D1*
G1X106280Y62000D1*
G1X106280Y60000D2*
G1X106920Y60000D1*
G1X95250Y68017D2*
G1X92750Y68017D1*
G1X92750Y68683D1*
G1X92875Y68897D1*
G1X93042Y69030D1*
G1X93375Y69083D1*
G1X93708Y69030D1*
G1X93917Y68870D1*
G1X94042Y68683D1*
G1X94042Y68017D1*
G1X94042Y68683D2*
G1X95250Y69083D1*
G1X93167Y70243D2*
G1X92917Y70403D1*
G1X92792Y70590D1*
G1X92750Y70803D1*
G1X92833Y71070D1*
G1X93042Y71257D1*
G1X93292Y71310D1*
G1X93542Y71283D1*
G1X93750Y71177D1*
G1X94167Y70643D1*
G1X94458Y70403D1*
G1X94875Y70243D1*
G1X95250Y70190D1*
G1X95250Y71310D1*
G1X95250Y72897D2*
G1X94708Y72950D1*
G1X94250Y73030D1*
G1X93833Y73137D1*
G1X93375Y73270D1*
G1X92750Y73483D1*
G1X92750Y72417D1*
G1X101250Y68017D2*
G1X98750Y68017D1*
G1X98750Y68683D1*
G1X98875Y68897D1*
G1X99042Y69030D1*
G1X99375Y69083D1*
G1X99708Y69030D1*
G1X99917Y68870D1*
G1X100042Y68683D1*
G1X100042Y68017D1*
G1X100042Y68683D2*
G1X101250Y69083D1*
G1X99167Y70243D2*
G1X98917Y70403D1*
G1X98792Y70590D1*
G1X98750Y70803D1*
G1X98833Y71070D1*
G1X99042Y71257D1*
G1X99292Y71310D1*
G1X99542Y71283D1*
G1X99750Y71177D1*
G1X100167Y70643D1*
G1X100458Y70403D1*
G1X100875Y70243D1*
G1X101250Y70190D1*
G1X101250Y71310D1*
G1X101250Y72950D2*
G1X101208Y73137D1*
G1X101083Y73350D1*
G1X100875Y73483D1*
G1X100583Y73537D1*
G1X100292Y73483D1*
G1X100042Y73323D1*
G1X99917Y73083D1*
G1X99917Y72817D1*
G1X99833Y72657D1*
G1X99625Y72523D1*
G1X99333Y72470D1*
G1X99042Y72550D1*
G1X98833Y72737D1*
G1X98750Y72950D1*
G1X98833Y73163D1*
G1X99042Y73350D1*
G1X99333Y73430D1*
G1X99625Y73377D1*
G1X99833Y73243D1*
G1X99917Y73083D1*
G1X99917Y72817D1*
G1X100042Y72577D1*
G1X100292Y72417D1*
G1X100583Y72363D1*
G1X100875Y72417D1*
G1X101083Y72550D1*
G1X101208Y72763D1*
G1X101250Y72950D1*
G1X92500Y86517D2*
G1X90000Y86517D1*
G1X90000Y87183D1*
G1X90125Y87397D1*
G1X90292Y87530D1*
G1X90625Y87583D1*
G1X90958Y87530D1*
G1X91167Y87370D1*
G1X91292Y87183D1*
G1X91292Y86517D1*
G1X91292Y87183D2*
G1X92500Y87583D1*
G1X90417Y88743D2*
G1X90167Y88903D1*
G1X90042Y89090D1*
G1X90000Y89303D1*
G1X90083Y89570D1*
G1X90292Y89757D1*
G1X90542Y89810D1*
G1X90792Y89783D1*
G1X91000Y89677D1*
G1X91417Y89143D1*
G1X91708Y88903D1*
G1X92125Y88743D1*
G1X92500Y88690D1*
G1X92500Y89810D1*
G1X92500Y91770D2*
G1X90000Y91770D1*
G1X91792Y90783D1*
G1X91792Y92117D1*
G1X94267Y92000D2*
G1X94267Y94500D1*
G1X94933Y94500D1*
G1X95147Y94375D1*
G1X95280Y94208D1*
G1X95333Y93875D1*
G1X95280Y93542D1*
G1X95120Y93333D1*
G1X94933Y93208D1*
G1X94267Y93208D1*
G1X94933Y93208D2*
G1X95333Y92000D1*
G1X96493Y94083D2*
G1X96653Y94333D1*
G1X96840Y94458D1*
G1X97053Y94500D1*
G1X97320Y94417D1*
G1X97507Y94208D1*
G1X97560Y93958D1*
G1X97533Y93708D1*
G1X97427Y93500D1*
G1X96893Y93083D1*
G1X96653Y92792D1*
G1X96493Y92375D1*
G1X96440Y92000D1*
G1X97560Y92000D1*
G1X98747Y92292D2*
G1X98933Y92083D1*
G1X99147Y92000D1*
G1X99360Y92083D1*
G1X99547Y92333D1*
G1X99680Y92708D1*
G1X99733Y93083D1*
G1X99733Y93542D1*
G1X99680Y93917D1*
G1X99547Y94250D1*
G1X99387Y94417D1*
G1X99200Y94500D1*
G1X98987Y94417D1*
G1X98827Y94250D1*
G1X98720Y94000D1*
G1X98667Y93667D1*
G1X98720Y93375D1*
G1X98853Y93083D1*
G1X99013Y92917D1*
G1X99200Y92875D1*
G1X99413Y92958D1*
G1X99573Y93167D1*
G1X99733Y93542D1*
G1X115250Y9767D2*
G1X112750Y9767D1*
G1X112750Y10433D1*
G1X112875Y10647D1*
G1X113042Y10780D1*
G1X113375Y10833D1*
G1X113708Y10780D1*
G1X113917Y10620D1*
G1X114042Y10433D1*
G1X114042Y9767D1*
G1X114042Y10433D2*
G1X115250Y10833D1*
G1X115250Y12500D2*
G1X112750Y12500D1*
G1X113250Y12180D1*
G1X115250Y12180D2*
G1X115250Y12820D1*
G1X115250Y14647D2*
G1X114708Y14700D1*
G1X114250Y14780D1*
G1X113833Y14887D1*
G1X113375Y15020D1*
G1X112750Y15233D1*
G1X112750Y14167D1*
G1X122767Y9500D2*
G1X122767Y12000D1*
G1X123433Y12000D1*
G1X123647Y11875D1*
G1X123780Y11708D1*
G1X123833Y11375D1*
G1X123780Y11042D1*
G1X123620Y10833D1*
G1X123433Y10708D1*
G1X122767Y10708D1*
G1X123433Y10708D2*
G1X123833Y9500D1*
G1X125500Y9500D2*
G1X125500Y12000D1*
G1X125180Y11500D1*
G1X125180Y9500D2*
G1X125820Y9500D1*
G1X127700Y9500D2*
G1X127887Y9542D1*
G1X128100Y9667D1*
G1X128233Y9875D1*
G1X128287Y10167D1*
G1X128233Y10458D1*
G1X128073Y10708D1*
G1X127833Y10833D1*
G1X127567Y10833D1*
G1X127407Y10917D1*
G1X127273Y11125D1*
G1X127220Y11417D1*
G1X127300Y11708D1*
G1X127487Y11917D1*
G1X127700Y12000D1*
G1X127913Y11917D1*
G1X128100Y11708D1*
G1X128180Y11417D1*
G1X128127Y11125D1*
G1X127993Y10917D1*
G1X127833Y10833D1*
G1X127567Y10833D1*
G1X127327Y10708D1*
G1X127167Y10458D1*
G1X127113Y10167D1*
G1X127167Y9875D1*
G1X127300Y9667D1*
G1X127513Y9542D1*
G1X127700Y9500D1*
G1X113250Y30367D2*
G1X110750Y30367D1*
G1X110750Y31033D1*
G1X110875Y31247D1*
G1X111042Y31380D1*
G1X111375Y31433D1*
G1X111708Y31380D1*
G1X111917Y31220D1*
G1X112042Y31033D1*
G1X112042Y30367D1*
G1X112042Y31033D2*
G1X113250Y31433D1*
G1X113250Y33100D2*
G1X110750Y33100D1*
G1X111250Y32780D1*
G1X113250Y32780D2*
G1X113250Y33420D1*
G1X121063Y26750D2*
G1X121063Y24958D1*
G1X121170Y24583D1*
G1X121383Y24333D1*
G1X121650Y24250D1*
G1X121917Y24333D1*
G1X122130Y24583D1*
G1X122237Y24958D1*
G1X122237Y26750D1*
G1X123343Y26333D2*
G1X123503Y26583D1*
G1X123690Y26708D1*
G1X123903Y26750D1*
G1X124170Y26667D1*
G1X124357Y26458D1*
G1X124410Y26208D1*
G1X124383Y25958D1*
G1X124277Y25750D1*
G1X123743Y25333D1*
G1X123503Y25042D1*
G1X123343Y24625D1*
G1X123290Y24250D1*
G1X124410Y24250D1*
G1X118387Y41292D2*
G1X118227Y41417D1*
G1X118040Y41500D1*
G1X117827Y41500D1*
G1X117587Y41375D1*
G1X117400Y41167D1*
G1X117267Y40917D1*
G1X117160Y40500D1*
G1X117133Y40125D1*
G1X117187Y39750D1*
G1X117267Y39500D1*
G1X117427Y39250D1*
G1X117613Y39083D1*
G1X117800Y39000D1*
G1X117987Y39000D1*
G1X118173Y39083D1*
G1X118333Y39208D1*
G1X118467Y39375D1*
G1X120000Y39000D2*
G1X120000Y41500D1*
G1X119680Y41000D1*
G1X119680Y39000D2*
G1X120320Y39000D1*
G1X121693Y41083D2*
G1X121853Y41333D1*
G1X122040Y41458D1*
G1X122253Y41500D1*
G1X122520Y41417D1*
G1X122707Y41208D1*
G1X122760Y40958D1*
G1X122733Y40708D1*
G1X122627Y40500D1*
G1X122093Y40083D1*
G1X121853Y39792D1*
G1X121693Y39375D1*
G1X121640Y39000D1*
G1X122760Y39000D1*
G1X126958Y46637D2*
G1X126833Y46477D1*
G1X126750Y46290D1*
G1X126750Y46077D1*
G1X126875Y45837D1*
G1X127083Y45650D1*
G1X127333Y45517D1*
G1X127750Y45410D1*
G1X128125Y45383D1*
G1X128500Y45437D1*
G1X128750Y45517D1*
G1X129000Y45677D1*
G1X129167Y45863D1*
G1X129250Y46050D1*
G1X129250Y46237D1*
G1X129167Y46423D1*
G1X129042Y46583D1*
G1X128875Y46717D1*
G1X129250Y48250D2*
G1X126750Y48250D1*
G1X127250Y47930D1*
G1X129250Y47930D2*
G1X129250Y48570D1*
G1X128750Y49863D2*
G1X129042Y50023D1*
G1X129208Y50237D1*
G1X129250Y50477D1*
G1X129208Y50690D1*
G1X129000Y50903D1*
G1X128750Y51037D1*
G1X128500Y51063D1*
G1X128208Y51010D1*
G1X128000Y50823D1*
G1X127917Y50637D1*
G1X127917Y50397D1*
G1X127917Y50637D2*
G1X127792Y50797D1*
G1X127583Y50930D1*
G1X127333Y50983D1*
G1X127083Y50930D1*
G1X126875Y50797D1*
G1X126750Y50557D1*
G1X126792Y50317D1*
G1X126958Y50077D1*
G1X115063Y47750D2*
G1X115063Y50250D1*
G1X115597Y50250D1*
G1X115810Y50125D1*
G1X115970Y49958D1*
G1X116103Y49708D1*
G1X116210Y49417D1*
G1X116237Y49000D1*
G1X116210Y48583D1*
G1X116103Y48292D1*
G1X115970Y48042D1*
G1X115810Y47875D1*
G1X115597Y47750D1*
G1X115063Y47750D1*
G1X117850Y47750D2*
G1X117850Y50250D1*
G1X117530Y49750D1*
G1X117530Y47750D2*
G1X118170Y47750D1*
G1X114458Y66137D2*
G1X114333Y65977D1*
G1X114250Y65790D1*
G1X114250Y65577D1*
G1X114375Y65337D1*
G1X114583Y65150D1*
G1X114833Y65017D1*
G1X115250Y64910D1*
G1X115625Y64883D1*
G1X116000Y64937D1*
G1X116250Y65017D1*
G1X116500Y65177D1*
G1X116667Y65363D1*
G1X116750Y65550D1*
G1X116750Y65737D1*
G1X116667Y65923D1*
G1X116542Y66083D1*
G1X116375Y66217D1*
G1X116750Y67750D2*
G1X114250Y67750D1*
G1X114750Y67430D1*
G1X116750Y67430D2*
G1X116750Y68070D1*
G1X114250Y69950D2*
G1X114333Y69737D1*
G1X114542Y69577D1*
G1X114792Y69470D1*
G1X115125Y69390D1*
G1X115500Y69363D1*
G1X115875Y69390D1*
G1X116208Y69470D1*
G1X116458Y69577D1*
G1X116667Y69737D1*
G1X116750Y69950D1*
G1X116667Y70163D1*
G1X116458Y70323D1*
G1X116208Y70430D1*
G1X115875Y70510D1*
G1X115500Y70537D1*
G1X115125Y70510D1*
G1X114792Y70430D1*
G1X114542Y70323D1*
G1X114333Y70163D1*
G1X114250Y69950D1*
G1X121458Y60487D2*
G1X121333Y60327D1*
G1X121250Y60140D1*
G1X121250Y59927D1*
G1X121375Y59687D1*
G1X121583Y59500D1*
G1X121833Y59367D1*
G1X122250Y59260D1*
G1X122625Y59233D1*
G1X123000Y59287D1*
G1X123250Y59367D1*
G1X123500Y59527D1*
G1X123667Y59713D1*
G1X123750Y59900D1*
G1X123750Y60087D1*
G1X123667Y60273D1*
G1X123542Y60433D1*
G1X123375Y60567D1*
G1X123458Y61647D2*
G1X123667Y61833D1*
G1X123750Y62047D1*
G1X123667Y62260D1*
G1X123417Y62447D1*
G1X123042Y62580D1*
G1X122667Y62633D1*
G1X122208Y62633D1*
G1X121833Y62580D1*
G1X121500Y62447D1*
G1X121333Y62287D1*
G1X121250Y62100D1*
G1X121333Y61887D1*
G1X121500Y61727D1*
G1X121750Y61620D1*
G1X122083Y61567D1*
G1X122375Y61620D1*
G1X122667Y61753D1*
G1X122833Y61913D1*
G1X122875Y62100D1*
G1X122792Y62313D1*
G1X122583Y62473D1*
G1X122208Y62633D1*
G1X111767Y92000D2*
G1X111767Y89500D1*
G1X112833Y89500D1*
G1X113913Y89500D2*
G1X113913Y92000D1*
G1X114447Y92000D1*
G1X114660Y91875D1*
G1X114820Y91708D1*
G1X114953Y91458D1*
G1X115060Y91167D1*
G1X115087Y90750D1*
G1X115060Y90333D1*
G1X114953Y90042D1*
G1X114820Y89792D1*
G1X114660Y89625D1*
G1X114447Y89500D1*
G1X113913Y89500D1*
G1X116700Y89500D2*
G1X116700Y92000D1*
G1X116380Y91500D1*
G1X116380Y89500D2*
G1X117020Y89500D1*
G1X135250Y13517D2*
G1X132750Y13517D1*
G1X132750Y14183D1*
G1X132875Y14397D1*
G1X133042Y14530D1*
G1X133375Y14583D1*
G1X133708Y14530D1*
G1X133917Y14370D1*
G1X134042Y14183D1*
G1X134042Y13517D1*
G1X134042Y14183D2*
G1X135250Y14583D1*
G1X133167Y15743D2*
G1X132917Y15903D1*
G1X132792Y16090D1*
G1X132750Y16303D1*
G1X132833Y16570D1*
G1X133042Y16757D1*
G1X133292Y16810D1*
G1X133542Y16783D1*
G1X133750Y16677D1*
G1X134167Y16143D1*
G1X134458Y15903D1*
G1X134875Y15743D1*
G1X135250Y15690D1*
G1X135250Y16810D1*
G1X134750Y17863D2*
G1X135042Y18023D1*
G1X135208Y18237D1*
G1X135250Y18477D1*
G1X135208Y18690D1*
G1X135000Y18903D1*
G1X134750Y19037D1*
G1X134500Y19063D1*
G1X134208Y19010D1*
G1X134000Y18823D1*
G1X133917Y18637D1*
G1X133917Y18397D1*
G1X133917Y18637D2*
G1X133792Y18797D1*
G1X133583Y18930D1*
G1X133333Y18983D1*
G1X133083Y18930D1*
G1X132875Y18797D1*
G1X132750Y18557D1*
G1X132792Y18317D1*
G1X132958Y18077D1*
G1X145537Y16042D2*
G1X145377Y16167D1*
G1X145190Y16250D1*
G1X144977Y16250D1*
G1X144737Y16125D1*
G1X144550Y15917D1*
G1X144417Y15667D1*
G1X144310Y15250D1*
G1X144283Y14875D1*
G1X144337Y14500D1*
G1X144417Y14250D1*
G1X144577Y14000D1*
G1X144763Y13833D1*
G1X144950Y13750D1*
G1X145137Y13750D1*
G1X145323Y13833D1*
G1X145483Y13958D1*
G1X145617Y14125D1*
G1X147150Y13750D2*
G1X146937Y13792D1*
G1X146750Y13958D1*
G1X146590Y14208D1*
G1X146483Y14500D1*
G1X146430Y14833D1*
G1X146430Y15167D1*
G1X146483Y15500D1*
G1X146590Y15792D1*
G1X146750Y16042D1*
G1X146937Y16208D1*
G1X147150Y16250D1*
G1X147363Y16208D1*
G1X147550Y16042D1*
G1X147710Y15792D1*
G1X147817Y15500D1*
G1X147870Y15167D1*
G1X147870Y14833D1*
G1X147817Y14500D1*
G1X147710Y14208D1*
G1X147550Y13958D1*
G1X147363Y13792D1*
G1X147150Y13750D1*
G1X148737Y13750D2*
G1X148737Y16250D1*
G1X149963Y13750D1*
G1X149963Y16250D1*
G1X151550Y13750D2*
G1X151550Y16250D1*
G1X151230Y15750D1*
G1X151230Y13750D2*
G1X151870Y13750D1*
G1X135250Y40017D2*
G1X132750Y40017D1*
G1X132750Y40683D1*
G1X132875Y40897D1*
G1X133042Y41030D1*
G1X133375Y41083D1*
G1X133708Y41030D1*
G1X133917Y40870D1*
G1X134042Y40683D1*
G1X134042Y40017D1*
G1X134042Y40683D2*
G1X135250Y41083D1*
G1X135250Y42750D2*
G1X132750Y42750D1*
G1X133250Y42430D1*
G1X135250Y42430D2*
G1X135250Y43070D1*
G1X134958Y44497D2*
G1X135167Y44683D1*
G1X135250Y44897D1*
G1X135167Y45110D1*
G1X134917Y45297D1*
G1X134542Y45430D1*
G1X134167Y45483D1*
G1X133708Y45483D1*
G1X133333Y45430D1*
G1X133000Y45297D1*
G1X132833Y45137D1*
G1X132750Y44950D1*
G1X132833Y44737D1*
G1X133000Y44577D1*
G1X133250Y44470D1*
G1X133583Y44417D1*
G1X133875Y44470D1*
G1X134167Y44603D1*
G1X134333Y44763D1*
G1X134375Y44950D1*
G1X134292Y45163D1*
G1X134083Y45323D1*
G1X133708Y45483D1*
G1X145787Y50292D2*
G1X145627Y50417D1*
G1X145440Y50500D1*
G1X145227Y50500D1*
G1X144987Y50375D1*
G1X144800Y50167D1*
G1X144667Y49917D1*
G1X144560Y49500D1*
G1X144533Y49125D1*
G1X144587Y48750D1*
G1X144667Y48500D1*
G1X144827Y48250D1*
G1X145013Y48083D1*
G1X145200Y48000D1*
G1X145387Y48000D1*
G1X145573Y48083D1*
G1X145733Y48208D1*
G1X145867Y48375D1*
G1X147400Y48000D2*
G1X147187Y48042D1*
G1X147000Y48208D1*
G1X146840Y48458D1*
G1X146733Y48750D1*
G1X146680Y49083D1*
G1X146680Y49417D1*
G1X146733Y49750D1*
G1X146840Y50042D1*
G1X147000Y50292D1*
G1X147187Y50458D1*
G1X147400Y50500D1*
G1X147613Y50458D1*
G1X147800Y50292D1*
G1X147960Y50042D1*
G1X148067Y49750D1*
G1X148120Y49417D1*
G1X148120Y49083D1*
G1X148067Y48750D1*
G1X147960Y48458D1*
G1X147800Y48208D1*
G1X147613Y48042D1*
G1X147400Y48000D1*
G1X148987Y48000D2*
G1X148987Y50500D1*
G1X150213Y48000D1*
G1X150213Y50500D1*
G1X151293Y50083D2*
G1X151453Y50333D1*
G1X151640Y50458D1*
G1X151853Y50500D1*
G1X152120Y50417D1*
G1X152307Y50208D1*
G1X152360Y49958D1*
G1X152333Y49708D1*
G1X152227Y49500D1*
G1X151693Y49083D1*
G1X151453Y48792D1*
G1X151293Y48375D1*
G1X151240Y48000D1*
G1X152360Y48000D1*
G1X145787Y84542D2*
G1X145627Y84667D1*
G1X145440Y84750D1*
G1X145227Y84750D1*
G1X144987Y84625D1*
G1X144800Y84417D1*
G1X144667Y84167D1*
G1X144560Y83750D1*
G1X144533Y83375D1*
G1X144587Y83000D1*
G1X144667Y82750D1*
G1X144827Y82500D1*
G1X145013Y82333D1*
G1X145200Y82250D1*
G1X145387Y82250D1*
G1X145573Y82333D1*
G1X145733Y82458D1*
G1X145867Y82625D1*
G1X147400Y82250D2*
G1X147187Y82292D1*
G1X147000Y82458D1*
G1X146840Y82708D1*
G1X146733Y83000D1*
G1X146680Y83333D1*
G1X146680Y83667D1*
G1X146733Y84000D1*
G1X146840Y84292D1*
G1X147000Y84542D1*
G1X147187Y84708D1*
G1X147400Y84750D1*
G1X147613Y84708D1*
G1X147800Y84542D1*
G1X147960Y84292D1*
G1X148067Y84000D1*
G1X148120Y83667D1*
G1X148120Y83333D1*
G1X148067Y83000D1*
G1X147960Y82708D1*
G1X147800Y82458D1*
G1X147613Y82292D1*
G1X147400Y82250D1*
G1X148987Y82250D2*
G1X148987Y84750D1*
G1X150213Y82250D1*
G1X150213Y84750D1*
G1X151213Y82750D2*
G1X151373Y82458D1*
G1X151587Y82292D1*
G1X151827Y82250D1*
G1X152040Y82292D1*
G1X152253Y82500D1*
G1X152387Y82750D1*
G1X152413Y83000D1*
G1X152360Y83292D1*
G1X152173Y83500D1*
G1X151987Y83583D1*
G1X151747Y83583D1*
G1X151987Y83583D2*
G1X152147Y83708D1*
G1X152280Y83917D1*
G1X152333Y84167D1*
G1X152280Y84417D1*
G1X152147Y84625D1*
G1X151907Y84750D1*
G1X151667Y84708D1*
G1X151427Y84542D1*
G1X8500Y34000D2*
G54D18*
G1X3500Y34000D1*
G1X8500Y64500D2*
G1X3500Y64500D1*
G1X6000Y31500D2*
G1X6000Y36500D1*
G1X6000Y62000D2*
G1X6000Y67000D1*
M2*
