*
%LPD*%
%LNSTEVAL-ESC002V1-LYR3*%
%FSLAX25Y25*%
%MOIN*%
%AD*%
%ADD10C,0.015*%
%ADD12C,0.004*%
%ADD21C,0.024*%
%ADD23C,0.0236*%
%ADD27C,0.221*%
%ADD35C,0.2*%
%ADD37C,0.03804*%
%ADD39C,0.04*%
%ADD40C,0.025*%
%ADD41C,0.03764*%
G54D10*
%SRX1Y1I0.0J0.0*%
G36*
G1X27000Y96500D2*
G1X136500Y96500D1*
G1X137000Y96000D1*
G1X137000Y2000D1*
G1X136500Y1500D1*
G1X2500Y1500D1*
G1X1500Y2500D1*
G1X1500Y73500D1*
G1X2000Y74000D1*
G1X16500Y74000D1*
G1X26049Y83548D1*
G1X32823Y83548D1*
G75*
G2X33106Y82866I-1J-400D1*
G1X23184Y72944D1*
G2X22502Y73227I-283J283D1*
G1X22502Y75452D1*
G1X19498Y75452D1*
G1X19498Y71508D1*
G2X19608Y70868I-176J-360D1*
G3X19048Y69500I1391J-1369D1*
G3X21000Y67548I1952J0D1*
G1X23308Y67548D1*
G1X35808Y80048D1*
G1X62942Y80048D1*
G1X64692Y78298D1*
G1X84500Y78298D1*
G3X86416Y79881I-1J1951D1*
G2X87092Y80088I392J-77D1*
G1X91802Y75378D1*
G1X91802Y54989D1*
G3X93375Y52537I2697J0D1*
G1X93407Y52522D1*
G1X94590Y51340D1*
G3X96500Y50548I1911J1910D1*
G3X99202Y53250I-1J2702D1*
G3X98410Y55160I-2703J-2D1*
G1X97204Y56366D1*
G1X97204Y77616D1*
G1X93380Y81441D1*
G2X93634Y82123I282J283D1*
G3X95382Y84000I-135J1877D1*
G3X93500Y85882I-1883J-1D1*
G3X91623Y84134I0J-1882D1*
G2X90941Y83880I-399J28D1*
G1X87993Y86828D1*
G1X68743Y86828D1*
G1X68498Y87073D1*
G2X68644Y87732I283J282D1*
G3X69882Y89500I-644J1767D1*
G3X66118Y89500I-1882J0D1*
G3X66122Y89378I1892J1D1*
G2X65723Y88952I-400J-27D1*
G1X60578Y88952D1*
G2X60301Y89640I0J399D1*
G3X60882Y91000I-1302J1359D1*
G3X57118Y91000I-1882J0D1*
G3X57699Y89640I1882J0D1*
G2X57422Y88952I-278J-289D1*
G1X26000Y88952D1*
G1X26000Y95500D1*
G1X27000Y96500D1*
G37*
%LPC*%
G36*
G1X53057Y76292D2*
G3X52443Y76292I-307J-258D1*
G2X51000Y75618I-1444J1208D1*
G2X51000Y79382I0J1882D1*
G2X52443Y78708I-1J-1883D1*
G3X53057Y78708I307J257D1*
G2X54500Y79382I1443J-1209D1*
G2X54500Y75618I0J-1882D1*
G2X53057Y76292I0J1882D1*
G37*
G36*
G1X40263Y76082D2*
G3X39737Y76082I-263J-303D1*
G2X38500Y75618I-1238J1417D1*
G2X38500Y79382I0J1882D1*
G2X39737Y78918I-1J-1882D1*
G3X40263Y78918I263J302D1*
G2X41500Y79382I1237J-1418D1*
G2X41500Y75618I0J-1882D1*
G2X40263Y76082I0J1881D1*
G37*
G36*
G1X34964Y66902D2*
G3X35355Y67336I-8J399D1*
G2X35348Y67500I1897J163D1*
G2X39152Y67500I1902J0D1*
G2X39145Y67336I-1944J0D1*
G3X39536Y66902I398J-35D1*
G2X41402Y65000I-37J-1902D1*
G2X37598Y65000I-1902J0D1*
G2X37605Y65164I1941J-1D1*
G3X37214Y65598I-399J34D1*
G2X37080Y65606I48J1939D1*
G3X36866Y65368I-18J-200D1*
G2X36902Y65000I-1869J-369D1*
G2X33098Y65000I-1902J0D1*
G2X34964Y66902I1902J0D1*
G37*
G36*
G1X89292Y42443D2*
G3X89292Y43057I-258J307D1*
G2X88618Y44500I1208J1443D1*
G2X92382Y44500I1882J0D1*
G2X91708Y43057I-1883J0D1*
G3X91708Y42443I257J-307D1*
G2X92382Y41000I-1209J-1444D1*
G2X88618Y41000I-1882J0D1*
G2X89292Y42443I1882J-1D1*
G37*
G36*
G1X87619Y33548D2*
G3X87439Y33752I-201J4D1*
G2X85743Y35625I186J1872D1*
G2X89507Y35625I1882J0D1*
G1X89506Y35577D1*
G3X89686Y35373I200J-5D1*
G2X91382Y33500I-187J-1873D1*
G2X87618Y33500I-1882J0D1*
G1X87619Y33548D1*
G37*
G36*
G1X70750Y16407D2*
G2X72000Y13118I1249J-1407D1*
G2X70750Y13593I-1J1881D1*
G2X69500Y13118I-1251J1407D1*
G2X69500Y16882I0J1882D1*
G2X70750Y16407I0J-1882D1*
G37*
G36*
G1X80013Y32332D2*
G3X79487Y32332I-263J-303D1*
G2X78250Y31868I-1238J1417D1*
G2X78250Y35632I0J1882D1*
G2X79487Y35168I-1J-1882D1*
G3X80013Y35168I263J302D1*
G2X81250Y35632I1237J-1418D1*
G2X81250Y31868I0J-1882D1*
G2X80013Y32332I0J1881D1*
G37*
G74*
G54D37*
G1X117500Y6000D3*
G1X90500Y92250D3*
G1X52500Y44000D3*
G1X33750Y58250D3*
G1X33750Y45250D3*
G1X38500Y51750D3*
G1X40500Y21000D3*
G1X33750Y38250D3*
G1X42000Y8500D3*
G54D41*
G1X134000Y62000D3*
G1X125000Y85500D3*
G1X115500Y67500D3*
G1X122500Y68000D3*
G1X100500Y84000D3*
G1X104000Y80500D3*
G1X82500Y72250D3*
G1X83000Y24500D3*
G1X84000Y16500D3*
G1X62250Y71500D3*
G1X46250Y91750D3*
G1X34000Y70500D3*
G1X32750Y18000D3*
%LPD*%
G54D27*
G1X12000Y12000D3*
G1X12000Y86500D3*
G54D21*
G1X5000Y15000D3*
G1X5000Y9000D3*
G1X5000Y6000D3*
G1X5000Y12000D3*
G1X2500Y10500D3*
G1X2500Y13500D3*
G1X5000Y18000D3*
G1X5000Y89500D3*
G1X5000Y92500D3*
G1X5000Y83500D3*
G1X5000Y86500D3*
G1X5000Y80500D3*
G1X2500Y85000D3*
G1X2500Y88000D3*
G1X16000Y15000D3*
G1X16000Y12000D3*
G1X19000Y9000D3*
G1X12000Y8000D3*
G1X21500Y13500D3*
G1X21500Y10500D3*
G1X8000Y9000D3*
G1X12000Y2000D3*
G1X8000Y3000D3*
G1X12000Y5000D3*
G1X19000Y6000D3*
G1X19000Y12000D3*
G1X19000Y15000D3*
G1X8000Y6000D3*
G1X8000Y12000D3*
G1X8000Y15000D3*
G1X12000Y16000D3*
G1X16000Y6000D3*
G1X16000Y3000D3*
G1X16000Y9000D3*
G1X16000Y21000D3*
G1X19000Y18000D3*
G1X12000Y22000D3*
G1X12000Y19000D3*
G1X8000Y18000D3*
G1X8000Y21000D3*
G1X16000Y18000D3*
G1X21000Y69500D3*
G1X8000Y77500D3*
G1X16000Y77500D3*
G1X12000Y76500D3*
G1X16000Y83500D3*
G1X16000Y86500D3*
G1X16000Y80500D3*
G1X8000Y89500D3*
G1X8000Y92500D3*
G1X8000Y95500D3*
G1X8000Y80500D3*
G1X8000Y83500D3*
G1X8000Y86500D3*
G1X12000Y90500D3*
G1X19000Y92500D3*
G1X19000Y80500D3*
G1X21500Y88000D3*
G1X21500Y85000D3*
G1X19000Y86500D3*
G1X19000Y89500D3*
G1X16000Y95500D3*
G1X12000Y79500D3*
G1X16000Y89500D3*
G1X16000Y92500D3*
G1X12000Y82500D3*
G1X12000Y96500D3*
G1X12000Y93500D3*
G1X19000Y83500D3*
G1X42000Y8500D3*
G1X33750Y38250D3*
G1X40500Y21000D3*
G1X38500Y51750D3*
G1X33750Y45250D3*
G1X33750Y58250D3*
G1X39500Y65000D3*
G1X37250Y67500D3*
G1X35000Y65000D3*
G1X52500Y44000D3*
G1X90500Y92250D3*
G1X117500Y6000D3*
G1X148500Y4000D3*
G1X148500Y7500D3*
G1X144500Y15000D3*
G1X148500Y11000D3*
G1X141000Y7500D3*
G1X141000Y11000D3*
G1X141000Y15000D3*
G1X144500Y11000D3*
G1X144500Y7500D3*
G1X144500Y4000D3*
G1X141000Y4000D3*
G1X148500Y26000D3*
G1X144500Y26000D3*
G1X144500Y22500D3*
G1X141000Y22500D3*
G1X141000Y26000D3*
G1X144500Y19000D3*
G1X141000Y19000D3*
G1X148500Y22500D3*
G1X148500Y19000D3*
G1X148500Y38000D3*
G1X141000Y38000D3*
G1X144500Y38000D3*
G1X148500Y45000D3*
G1X148500Y41500D3*
G1X141000Y53500D3*
G1X144500Y45000D3*
G1X148500Y57000D3*
G1X141000Y57000D3*
G1X141000Y49000D3*
G1X144500Y53500D3*
G1X141000Y41500D3*
G1X144500Y49000D3*
G1X148500Y53500D3*
G1X144500Y41500D3*
G1X144500Y57000D3*
G1X141000Y45000D3*
G1X148500Y60500D3*
G1X141000Y60500D3*
G1X144500Y60500D3*
G1X148500Y72500D3*
G1X148500Y76000D3*
G1X144500Y76000D3*
G1X144500Y72500D3*
G1X141000Y72500D3*
G1X141000Y76000D3*
G1X144500Y83500D3*
G1X148500Y87500D3*
G1X148500Y79500D3*
G1X148500Y94500D3*
G1X148500Y91000D3*
G1X144500Y79500D3*
G1X141000Y79500D3*
G1X141000Y83500D3*
G1X144500Y91000D3*
G1X144500Y94500D3*
G1X144500Y87500D3*
G1X141000Y87500D3*
G1X141000Y94500D3*
G1X141000Y91000D3*
G1X152500Y7500D3*
G1X156000Y7500D3*
G1X156000Y4000D3*
G1X152500Y11000D3*
G1X152500Y15000D3*
G1X152500Y4000D3*
G1X156000Y11000D3*
G1X156000Y15000D3*
G1X152500Y22500D3*
G1X152500Y26000D3*
G1X156000Y22500D3*
G1X152500Y19000D3*
G1X156000Y26000D3*
G1X156000Y19000D3*
G1X156000Y38000D3*
G1X152500Y38000D3*
G1X152500Y49000D3*
G1X156000Y49000D3*
G1X156000Y41500D3*
G1X152500Y57000D3*
G1X152500Y53500D3*
G1X156000Y45000D3*
G1X156000Y53500D3*
G1X156000Y57000D3*
G1X152500Y41500D3*
G1X152500Y45000D3*
G1X152500Y60500D3*
G1X156000Y60500D3*
G1X152500Y72500D3*
G1X152500Y76000D3*
G1X156000Y72500D3*
G1X156000Y76000D3*
G1X152500Y91000D3*
G1X152500Y83500D3*
G1X152500Y79500D3*
G1X152500Y94500D3*
G1X152500Y87500D3*
G1X156000Y79500D3*
G1X156000Y83500D3*
G1X156000Y87500D3*
G1X156000Y94500D3*
G1X156000Y91000D3*
G54D23*
G1X32750Y18000D3*
G1X37500Y73500D3*
G1X34000Y70500D3*
G1X38500Y77500D3*
G1X41500Y77500D3*
G1X46250Y91750D3*
G1X33500Y92000D3*
G1X51000Y77500D3*
G1X62250Y71500D3*
G1X54500Y77500D3*
G1X59000Y91000D3*
G1X60500Y94000D3*
G1X84000Y16500D3*
G1X72000Y15000D3*
G1X69500Y15000D3*
G1X83000Y24500D3*
G1X87625Y35625D3*
G1X80500Y30000D3*
G1X78250Y33750D3*
G1X81250Y33750D3*
G1X69000Y56500D3*
G1X77000Y56500D3*
G1X77000Y48500D3*
G1X69000Y48500D3*
G1X82500Y72250D3*
G1X84500Y80250D3*
G1X68000Y89500D3*
G1X89500Y33500D3*
G1X94500Y33500D3*
G1X104750Y47500D3*
G1X96500Y53250D3*
G1X94503Y54989D3*
G1X90500Y41000D3*
G1X90500Y44500D3*
G1X104000Y80500D3*
G1X93500Y84000D3*
G1X100500Y84000D3*
G1X122500Y24500D3*
G1X123000Y53500D3*
G1X115500Y55000D3*
G1X122500Y68000D3*
G1X115500Y67500D3*
G1X125000Y85500D3*
G1X134000Y62000D3*
G54D35*
G1X148500Y15000D3*
G1X148500Y49250D3*
G1X148500Y83500D3*
G1X16000Y86500D2*
G54D39*
G1X12000Y86500D1*
G1X19000Y86500D2*
G1X16000Y86500D1*
G1X19000Y86500D2*
G1X19250Y86250D1*
G1X65500Y86250D1*
G1X67624Y84126D1*
G1X86874Y84126D1*
G1X94503Y76497D1*
G1X94503Y54989D1*
G1X96500Y53250D2*
G1X94761Y54989D1*
G1X94503Y54989D1*
G1X0Y15000D2*
G54D10*
G1X0Y0D1*
G1X15000Y0D1*
G1X15000Y98500D2*
G1X0Y98500D1*
G1X0Y83500D1*
G1X144500Y0D2*
G1X159500Y0D1*
G1X159500Y15000D1*
G1X159500Y83500D2*
G1X159500Y98500D1*
G1X144500Y98500D1*
G1X84500Y80250D2*
G54D40*
G1X65500Y80250D1*
G1X63750Y82000D1*
G1X35000Y82000D1*
G1X22500Y69500D1*
G1X21000Y69500D1*
G1X20413Y72750D2*
G54D12*
G1X20573Y72458D1*
G1X20787Y72292D1*
G1X21027Y72250D1*
G1X21240Y72292D1*
G1X21453Y72500D1*
G1X21587Y72750D1*
G1X21613Y73000D1*
G1X21560Y73292D1*
G1X21373Y73500D1*
G1X21187Y73583D1*
G1X20947Y73583D1*
G1X21187Y73583D2*
G1X21347Y73708D1*
G1X21480Y73917D1*
G1X21533Y74167D1*
G1X21480Y74417D1*
G1X21347Y74625D1*
G1X21107Y74750D1*
G1X20867Y74708D1*
G1X20627Y74542D1*
M2*
