M48
INCH,TZ
T01C.0118
T02C.013
T03C.03543
;LEADER: 12 
;HEADER: 
;CODE  : ASCII 
;FILE  : STEVAL-ESC002V1-1-3.drl for board C:/cadence/INDUSTRIAL/STEVAL-ESC002V1 - Poli/Allegro/#Taaaaae09528.tmp ... layers TOP and LYR3
;T01 Holesize 1. = 11.800000 Tolerance = +2.000000/-2.000000 PLATED MILS Quantity = 44
%
G90
T01
X32750Y18000
X69500Y15000
X72000
X84000Y16500
X122500Y24500
X94500Y33500
X89500
X87625Y35625
X83000Y24500
X81250Y33750
X80500Y30000
X78250Y33750
X69000Y48500
Y56500
X77000Y48500
Y56500
X90500Y41000
Y44500
X94503Y54989
X96500Y53250
X104750Y47500
X115500Y55000
X123000Y53500
X134000Y62000
X122500Y68000
X115500Y67500
X82500Y72250
X62250Y71500
X54500Y77500
X51000
X41500
X38500
X37500Y73500
X34000Y70500
X33500Y92000
X46250Y91750
X59000Y91000
X60500Y94000
X68000Y89500
X84500Y80250
X93500Y84000
X100500
X104000Y80500
X125000Y85500
M30
