*
%LPD*%
%LNSTEVAL-ESC002V1-LYR2*%
%FSLAX25Y25*%
%MOIN*%
%AD*%
%ADD10C,0.015*%
%ADD12C,0.004*%
%ADD13C,0.012*%
%ADD21C,0.024*%
%ADD23C,0.0236*%
%ADD27C,0.221*%
%ADD35C,0.2*%
%ADD36C,0.03404*%
%ADD37C,0.03804*%
%ADD38C,0.03364*%
G54D10*
%SRX1Y1I0.0J0.0*%
G36*
G1X27000Y96500D2*
G1X67500Y96500D1*
G1X68000Y96000D1*
G1X68000Y91382D1*
G75*
G3X66118Y89500I0J-1883D1*
G3X67755Y87634I1882J0D1*
G1X67822Y87625D1*
G1X68000Y87447D1*
G1X68000Y85018D1*
G2X67317Y84736I-400J0D1*
G1X60875Y91178D1*
G1X60866Y91245D1*
G3X59000Y92882I-1867J-246D1*
G3X57118Y91000I0J-1883D1*
G3X58755Y89134I1882J0D1*
G1X58822Y89125D1*
G1X68000Y79947D1*
G1X68000Y79018D1*
G2X67317Y78736I-400J0D1*
G1X52851Y93202D1*
G1X47448Y93202D1*
G3X46250Y93632I-1198J-1453D1*
G3X46250Y89868I0J-1882D1*
G3X47448Y90298I0J1882D1*
G1X51649Y90298D1*
G1X68000Y73947D1*
G1X68000Y47805D1*
G2X67317Y47522I-401J0D1*
G1X54802Y60038D1*
G1X54802Y75636D1*
G1X54953Y75673D1*
G3X56376Y77351I-454J1826D1*
G2X57058Y77602I399J-33D1*
G1X60948Y73711D1*
G1X60948Y72859D1*
G3X60368Y71500I1302J-1359D1*
G3X64132Y71500I1882J0D1*
G3X63552Y72859I-1883J-1D1*
G1X63552Y74789D1*
G1X56539Y81802D1*
G1X39961Y81802D1*
G1X37198Y79039D1*
G1X37198Y78862D1*
G1X37143Y78804D1*
G3X36618Y77500I1357J-1305D1*
G3X37918Y75710I1882J-1D1*
G1X37964Y75695D1*
G1X43698Y69961D1*
G1X43698Y56961D1*
G1X66961Y33698D1*
G1X68000Y33698D1*
G1X68000Y16137D1*
G3X68000Y13863I1501J-1137D1*
G1X68000Y2000D1*
G1X67500Y1500D1*
G1X5500Y1500D1*
G1X1500Y5500D1*
G1X1500Y73500D1*
G1X2000Y74000D1*
G1X16500Y74000D1*
G1X26000Y83500D1*
G1X26000Y95500D1*
G1X27000Y96500D1*
G37*
G36*
G1X70000Y69500D2*
G1X127000Y69500D1*
G1X131500Y65000D1*
G1X131500Y2000D1*
G1X131000Y1500D1*
G1X69000Y1500D1*
G1X68502Y1999D1*
G1X68502Y33898D1*
G1X76563Y33898D1*
G1X76569Y33704D1*
G3X78250Y32068I1681J45D1*
G3X79462Y32584I0J1681D1*
G2X80038Y32584I288J-279D1*
G3X81250Y32068I1212J1165D1*
G3X82932Y33750I-1J1682D1*
G3X82113Y35194I-1683J0D1*
G1X79438Y37868D1*
G1X68688Y37868D1*
G1X68502Y38055D1*
G1X68502Y40898D1*
G1X88812Y40898D1*
G1X88840Y40731D1*
G3X90500Y39318I1660J268D1*
G3X92182Y41000I-1J1682D1*
G3X91411Y42414I-1683J-1D1*
G2X91411Y43086I217J336D1*
G3X92182Y44500I-911J1413D1*
G3X90500Y46182I-1683J-1D1*
G3X88897Y45008I-1J-1682D1*
G1X88852Y44868D1*
G1X69688Y44868D1*
G1X68502Y46055D1*
G1X68502Y46420D1*
G2X68920Y46820I399J0D1*
G1X69000Y46818D1*
G3X69000Y50182I0J1682D1*
G1X68920Y50180D1*
G2X68502Y50580I-19J399D1*
G1X68502Y54420D1*
G2X68920Y54820I399J0D1*
G1X69000Y54818D1*
G3X69000Y58182I0J1682D1*
G1X68920Y58180D1*
G2X68502Y58580I-19J399D1*
G1X68502Y68001D1*
G1X70000Y69500D1*
G37*
%LPC*%
G36*
G1X34964Y66902D2*
G3X35355Y67336I-8J399D1*
G2X35348Y67500I1897J163D1*
G2X39152Y67500I1902J0D1*
G2X39145Y67336I-1944J0D1*
G3X39536Y66902I398J-35D1*
G2X41402Y65000I-37J-1902D1*
G2X37598Y65000I-1902J0D1*
G2X37605Y65164I1941J-1D1*
G3X37214Y65598I-399J34D1*
G2X37080Y65606I48J1939D1*
G3X36866Y65368I-18J-200D1*
G2X36902Y65000I-1869J-369D1*
G2X33098Y65000I-1902J0D1*
G2X34964Y66902I1902J0D1*
G37*
G36*
G1X28698Y68039D2*
G1X32461Y71802D1*
G1X32638Y71802D1*
G1X32696Y71857D1*
G2X34000Y72382I1304J-1357D1*
G2X34000Y68618I0J-1882D1*
G2X33278Y68762I0J1883D1*
G1X33154Y68814D1*
G1X31302Y66961D1*
G1X31302Y21289D1*
G1X32707Y19883D1*
G1X32788Y19882D1*
G2X34632Y18000I-39J-1882D1*
G2X32750Y16118I-1883J0D1*
G2X30868Y17962I-1J1882D1*
G1X30867Y18043D1*
G1X28698Y20211D1*
G1X28698Y68039D1*
G37*
G36*
G1X19498Y71534D2*
G1X19498Y75452D1*
G1X22502Y75452D1*
G1X22502Y71534D1*
G3X22328Y70862I105J-386D1*
G2X22902Y69500I-1330J-1363D1*
G2X19098Y69500I-1902J0D1*
G2X19672Y70862I1903J-1D1*
G3X19498Y71534I-280J286D1*
G37*
G36*
G1X82898Y17771D2*
G1X82898Y22812D1*
G1X82731Y22840D1*
G2X81318Y24500I268J1660D1*
G2X84682Y24500I1682J0D1*
G1X84682Y24463D1*
G1X84680Y24378D1*
G1X85102Y23956D1*
G1X85102Y17771D1*
G2X85682Y16500I-1104J-1272D1*
G2X82318Y16500I-1682J0D1*
G2X82898Y17771I1683J-1D1*
G37*
G36*
G1X94823Y53126D2*
G3X94610Y53310I-200J-16D1*
G2X94503Y53307I-102J1730D1*
G2X94503Y56671I0J1682D1*
G2X96180Y55113I-1J-1682D1*
G3X96393Y54929I199J15D1*
G2X96500Y54932I101J-1731D1*
G2X96500Y51568I0J-1682D1*
G2X94823Y53126I0J1681D1*
G37*
G74*
G54D36*
G1X117500Y6000D3*
G54D37*
G1X42000Y8500D3*
G1X33750Y38250D3*
G1X40500Y21000D3*
G1X38500Y51750D3*
G1X33750Y45250D3*
G1X33750Y58250D3*
G1X52500Y44000D3*
G54D38*
G1X80500Y30000D3*
G1X77000Y56500D3*
G1X77000Y48500D3*
G1X94500Y33500D3*
G1X104750Y47500D3*
G1X122500Y24500D3*
G1X123000Y53500D3*
G1X115500Y55000D3*
%LPD*%
G54D27*
G1X12000Y12000D3*
G1X12000Y86500D3*
G54D21*
G1X5000Y15000D3*
G1X5000Y9000D3*
G1X5000Y6000D3*
G1X5000Y12000D3*
G1X2500Y10500D3*
G1X2500Y13500D3*
G1X5000Y18000D3*
G1X5000Y89500D3*
G1X5000Y92500D3*
G1X5000Y83500D3*
G1X5000Y86500D3*
G1X5000Y80500D3*
G1X2500Y85000D3*
G1X2500Y88000D3*
G1X16000Y15000D3*
G1X16000Y12000D3*
G1X19000Y9000D3*
G1X12000Y8000D3*
G1X21500Y13500D3*
G1X21500Y10500D3*
G1X8000Y9000D3*
G1X12000Y2000D3*
G1X8000Y3000D3*
G1X12000Y5000D3*
G1X19000Y6000D3*
G1X19000Y12000D3*
G1X19000Y15000D3*
G1X8000Y6000D3*
G1X8000Y12000D3*
G1X8000Y15000D3*
G1X12000Y16000D3*
G1X16000Y6000D3*
G1X16000Y3000D3*
G1X16000Y9000D3*
G1X16000Y21000D3*
G1X19000Y18000D3*
G1X12000Y22000D3*
G1X12000Y19000D3*
G1X8000Y18000D3*
G1X8000Y21000D3*
G1X16000Y18000D3*
G1X21000Y69500D3*
G1X8000Y77500D3*
G1X16000Y77500D3*
G1X12000Y76500D3*
G1X16000Y83500D3*
G1X16000Y86500D3*
G1X16000Y80500D3*
G1X8000Y89500D3*
G1X8000Y92500D3*
G1X8000Y95500D3*
G1X8000Y80500D3*
G1X8000Y83500D3*
G1X8000Y86500D3*
G1X12000Y90500D3*
G1X19000Y92500D3*
G1X19000Y80500D3*
G1X21500Y88000D3*
G1X21500Y85000D3*
G1X19000Y86500D3*
G1X19000Y89500D3*
G1X16000Y95500D3*
G1X12000Y79500D3*
G1X16000Y89500D3*
G1X16000Y92500D3*
G1X12000Y82500D3*
G1X12000Y96500D3*
G1X12000Y93500D3*
G1X19000Y83500D3*
G1X42000Y8500D3*
G1X33750Y38250D3*
G1X40500Y21000D3*
G1X38500Y51750D3*
G1X33750Y45250D3*
G1X33750Y58250D3*
G1X39500Y65000D3*
G1X37250Y67500D3*
G1X35000Y65000D3*
G1X52500Y44000D3*
G1X90500Y92250D3*
G1X117500Y6000D3*
G1X148500Y4000D3*
G1X148500Y7500D3*
G1X144500Y15000D3*
G1X148500Y11000D3*
G1X141000Y7500D3*
G1X141000Y11000D3*
G1X141000Y15000D3*
G1X144500Y11000D3*
G1X144500Y7500D3*
G1X144500Y4000D3*
G1X141000Y4000D3*
G1X148500Y26000D3*
G1X144500Y26000D3*
G1X144500Y22500D3*
G1X141000Y22500D3*
G1X141000Y26000D3*
G1X144500Y19000D3*
G1X141000Y19000D3*
G1X148500Y22500D3*
G1X148500Y19000D3*
G1X148500Y38000D3*
G1X141000Y38000D3*
G1X144500Y38000D3*
G1X148500Y45000D3*
G1X148500Y41500D3*
G1X141000Y53500D3*
G1X144500Y45000D3*
G1X148500Y57000D3*
G1X141000Y57000D3*
G1X141000Y49000D3*
G1X144500Y53500D3*
G1X141000Y41500D3*
G1X144500Y49000D3*
G1X148500Y53500D3*
G1X144500Y41500D3*
G1X144500Y57000D3*
G1X141000Y45000D3*
G1X148500Y60500D3*
G1X141000Y60500D3*
G1X144500Y60500D3*
G1X148500Y72500D3*
G1X148500Y76000D3*
G1X144500Y76000D3*
G1X144500Y72500D3*
G1X141000Y72500D3*
G1X141000Y76000D3*
G1X144500Y83500D3*
G1X148500Y87500D3*
G1X148500Y79500D3*
G1X148500Y94500D3*
G1X148500Y91000D3*
G1X144500Y79500D3*
G1X141000Y79500D3*
G1X141000Y83500D3*
G1X144500Y91000D3*
G1X144500Y94500D3*
G1X144500Y87500D3*
G1X141000Y87500D3*
G1X141000Y94500D3*
G1X141000Y91000D3*
G1X152500Y7500D3*
G1X156000Y7500D3*
G1X156000Y4000D3*
G1X152500Y11000D3*
G1X152500Y15000D3*
G1X152500Y4000D3*
G1X156000Y11000D3*
G1X156000Y15000D3*
G1X152500Y22500D3*
G1X152500Y26000D3*
G1X156000Y22500D3*
G1X152500Y19000D3*
G1X156000Y26000D3*
G1X156000Y19000D3*
G1X156000Y38000D3*
G1X152500Y38000D3*
G1X152500Y49000D3*
G1X156000Y49000D3*
G1X156000Y41500D3*
G1X152500Y57000D3*
G1X152500Y53500D3*
G1X156000Y45000D3*
G1X156000Y53500D3*
G1X156000Y57000D3*
G1X152500Y41500D3*
G1X152500Y45000D3*
G1X152500Y60500D3*
G1X156000Y60500D3*
G1X152500Y72500D3*
G1X152500Y76000D3*
G1X156000Y72500D3*
G1X156000Y76000D3*
G1X152500Y91000D3*
G1X152500Y83500D3*
G1X152500Y79500D3*
G1X152500Y94500D3*
G1X152500Y87500D3*
G1X156000Y79500D3*
G1X156000Y83500D3*
G1X156000Y87500D3*
G1X156000Y94500D3*
G1X156000Y91000D3*
G54D23*
G1X32750Y18000D3*
G1X37500Y73500D3*
G1X34000Y70500D3*
G1X38500Y77500D3*
G1X41500Y77500D3*
G1X46250Y91750D3*
G1X33500Y92000D3*
G1X51000Y77500D3*
G1X62250Y71500D3*
G1X54500Y77500D3*
G1X59000Y91000D3*
G1X60500Y94000D3*
G1X84000Y16500D3*
G1X72000Y15000D3*
G1X69500Y15000D3*
G1X83000Y24500D3*
G1X87625Y35625D3*
G1X80500Y30000D3*
G1X78250Y33750D3*
G1X81250Y33750D3*
G1X69000Y56500D3*
G1X77000Y56500D3*
G1X77000Y48500D3*
G1X69000Y48500D3*
G1X82500Y72250D3*
G1X84500Y80250D3*
G1X68000Y89500D3*
G1X89500Y33500D3*
G1X94500Y33500D3*
G1X104750Y47500D3*
G1X96500Y53250D3*
G1X94503Y54989D3*
G1X90500Y41000D3*
G1X90500Y44500D3*
G1X104000Y80500D3*
G1X93500Y84000D3*
G1X100500Y84000D3*
G1X122500Y24500D3*
G1X123000Y53500D3*
G1X115500Y55000D3*
G1X122500Y68000D3*
G1X115500Y67500D3*
G1X125000Y85500D3*
G1X134000Y62000D3*
G54D35*
G1X148500Y15000D3*
G1X148500Y49250D3*
G1X148500Y83500D3*
G1X34000Y70500D2*
G54D13*
G1X33000Y70500D1*
G1X30000Y67500D1*
G1X30000Y20750D1*
G1X32750Y18000D1*
G1X78250Y33750D2*
G1X78250Y34125D1*
G1X77375Y35000D1*
G1X67500Y35000D1*
G1X45000Y57500D1*
G1X45000Y70500D1*
G1X38500Y77000D1*
G1X38500Y77500D1*
G1X38500Y78500D1*
G1X40500Y80500D1*
G1X51000Y80500D1*
G1X81250Y33750D2*
G1X81250Y34499D1*
G1X78982Y36767D1*
G1X68232Y36767D1*
G1X46767Y58232D1*
G1X46767Y71232D1*
G1X41500Y76499D1*
G1X41500Y77500D1*
G1X51000Y77500D2*
G1X51000Y77000D1*
G1X51733Y76267D1*
G1X51733Y58767D1*
G1X68500Y42000D1*
G1X89500Y42000D1*
G1X90500Y41000D1*
G1X54500Y77500D2*
G1X53500Y76500D1*
G1X53500Y59499D1*
G1X69232Y43767D1*
G1X89767Y43767D1*
G1X90500Y44500D1*
G1X51000Y80500D2*
G1X51000Y77500D1*
G1X62250Y71500D2*
G1X62250Y74250D1*
G1X56000Y80500D1*
G1X51000Y80500D1*
G1X84000Y16500D2*
G1X84000Y23500D1*
G1X83000Y24500D1*
G1X82500Y72250D2*
G1X83750Y71000D1*
G1X128000Y71000D1*
G1X134000Y65000D1*
G1X134000Y62000D1*
G1X104000Y80500D2*
G1X97000Y80500D1*
G1X93500Y84000D1*
G1X125000Y85500D2*
G1X102000Y85500D1*
G1X100500Y84000D1*
G1X0Y15000D2*
G54D10*
G1X0Y0D1*
G1X15000Y0D1*
G1X15000Y98500D2*
G1X0Y98500D1*
G1X0Y83500D1*
G1X46250Y91750D2*
G1X52250Y91750D1*
G1X69000Y75000D1*
G1X129000Y75000D1*
G1X137500Y66500D1*
G1X137500Y57500D1*
G1X135939Y55939D1*
G1X135939Y27561D1*
G1X141000Y22500D1*
G1X148500Y60500D2*
G1X148000Y60500D1*
G1X131000Y77500D1*
G1X72500Y77500D1*
G1X59000Y91000D1*
G1X68000Y89500D2*
G1X68500Y89000D1*
G1X139500Y89000D1*
G1X141000Y87500D1*
G1X144500Y0D2*
G1X159500Y0D1*
G1X159500Y15000D1*
G1X144500Y19000D2*
G1X148500Y15000D1*
G1X141000Y22500D2*
G1X144500Y19000D1*
G1X148500Y53500D2*
G1X148500Y49250D1*
G1X148500Y60500D2*
G1X148500Y57000D1*
G1X159500Y83500D2*
G1X159500Y98500D1*
G1X144500Y98500D1*
G1X144500Y87500D2*
G1X148500Y83500D1*
G1X141000Y87500D2*
G1X144500Y87500D1*
G1X20493Y74333D2*
G54D12*
G1X20653Y74583D1*
G1X20840Y74708D1*
G1X21053Y74750D1*
G1X21320Y74667D1*
G1X21507Y74458D1*
G1X21560Y74208D1*
G1X21533Y73958D1*
G1X21427Y73750D1*
G1X20893Y73333D1*
G1X20653Y73042D1*
G1X20493Y72625D1*
G1X20440Y72250D1*
G1X21560Y72250D1*
M2*
