M48
INCH,TZ
T01C.0118
T02C.013
T03C.03543
;LEADER: 12 
;HEADER: 
;CODE  : ASCII 
;FILE  : STEVAL-ESC002V1-1-6.drl for board C:/cadence/INDUSTRIAL/STEVAL-ESC002V1 - Poli/Allegro/#Taaaaae09528.tmp ... layers TOP and BOTTOM
;T02 Holesize 1. = 13.000000 Tolerance = +0.000000/-0.000000 PLATED MILS Quantity = 183
;T03 Holesize 2. = 35.430000 Tolerance = +3.000000/-3.000000 PLATED MILS Quantity = 5
%
G90
T02
X8000Y3000
X5000Y6000
X8000
X5000Y9000
X8000
X2500Y10500
X5000Y12000
X8000
X2500Y13500
X5000Y15000
X8000
X5000Y18000
X8000
Y21000
Y77500
X5000Y80500
X8000
X5000Y83500
X8000
X2500Y85000
X5000Y86500
X8000
X2500Y88000
X5000Y89500
X8000
X5000Y92500
X8000
Y95500
X12000Y96500
X16000Y95500
X12000Y93500
X19000Y92500
X16000
X12000Y90500
X19000Y89500
X16000
X19000Y86500
X16000
X19000Y83500
X16000
X12000Y82500
X19000Y80500
X16000
X12000Y79500
X16000Y77500
X12000Y76500
Y22000
X16000Y21000
X12000Y19000
X19000Y18000
X16000
X12000Y16000
X19000Y15000
X16000
X19000Y12000
X16000
X19000Y9000
X16000
X12000Y8000
X19000Y6000
X16000
X12000Y5000
X16000Y3000
X12000Y2000
X21500Y10500
Y13500
X21000Y69500
X21500Y85000
Y88000
X37250Y67500
X39500Y65000
X35000
X33750Y58250
X38500Y51750
X33750Y45250
Y38250
X40500Y21000
X42000Y8500
X52500Y44000
X90500Y92250
X117500Y6000
X141000Y4000
X144500
X148500
X141000Y7500
X144500
X148500
X141000Y11000
X144500
X148500
X141000Y15000
X144500
X141000Y19000
X144500
X148500
X141000Y22500
X144500
X148500
X141000Y26000
X144500
X148500
X141000Y38000
X144500
X148500
X141000Y41500
X144500
X148500
X141000Y45000
X144500
X148500
X141000Y49000
X144500
X141000Y53500
X144500
X148500
X141000Y57000
X144500
X148500
X141000Y60500
X144500
X148500
X141000Y72500
X144500
X148500
X141000Y76000
X144500
X148500
X141000Y79500
X144500
X148500
X141000Y83500
X144500
X141000Y87500
X144500
X148500
X141000Y91000
X144500
X148500
X141000Y94500
X144500
X148500
X156000
X152500
X156000Y91000
X152500
X156000Y87500
X152500
X156000Y83500
X152500
X156000Y79500
X152500
X156000Y76000
X152500
X156000Y72500
X152500
X156000Y60500
X152500
X156000Y57000
X152500
X156000Y53500
X152500
X156000Y49000
X152500
X156000Y45000
X152500
X156000Y41500
X152500
X156000Y38000
X152500
X156000Y26000
X152500
X156000Y22500
X152500
X156000Y19000
X152500
X156000Y15000
X152500
X156000Y11000
X152500
X156000Y7500
X152500
X156000Y4000
X152500
T03
X12000Y12000
Y86500
X148500Y83500
R02Y-34250
M30
