M48
INCH,TZ
T01C.0118
T02C.013
T03C.03543
;LEADER: 12 
;HEADER: 
;CODE  : ASCII 
;FILE  : STEVAL-ESC002V1-5-6.drl for board C:/cadence/INDUSTRIAL/STEVAL-ESC002V1 - Poli/Allegro/#Taaaaae09528.tmp ... layers LYR5 and BOTTOM
;T01 Holesize 1. = 11.800000 Tolerance = +2.000000/-2.000000 PLATED MILS Quantity = 60
%
G90
T01
X55000Y5000
Y15000
X65000
X60000Y10000
X65000Y5000
X75000
X70000Y10000
X75000Y15000
X76500Y23000
X79500Y29500
Y34500
Y39500
Y47000
X75500Y48500
X76000Y64500
X89500Y57000
X84500
X87000Y56000
X89500Y47000
X84500
X87000Y39500
R02Y-5000
X85000Y15000
X80000Y10000
X85000Y5000
X95000
X90000Y10000
X95000Y15000
X94500Y29500
X99500
X94500Y34500
Y39500
X99500Y40500
X94500Y47000
X99500Y51500
X92000Y56000
X94500Y57000
X97500Y59000
Y62000
X107500
X103500Y57000
X107500Y51500
X103500Y46000
X107500Y40500
X103500Y35000
X107500Y29500
X105000Y15000
X100000Y10000
X105000Y5000
X115000
X110000Y10000
X115000Y15000
X112500Y23000
X125000Y15000
X120000Y10000
X125000Y5000
X135000
X130000Y10000
X135000Y15000
M30
