*
%LPD*%
%LNSTEVAL-ESC002V1-BOT*%
%FSLAX25Y25*%
%MOIN*%
%AD*%
%ADD10C,0.015*%
%ADD12C,0.004*%
%ADD15C,0.018*%
%ADD20R,0.17X0.08*%
%ADD21C,0.024*%
%ADD22R,0.03098X0.2*%
%ADD23C,0.0236*%
%ADD24R,0.08268X0.12205*%
%ADD25R,0.04X0.05*%
%ADD26R,0.2X0.257*%
%ADD27C,0.221*%
%ADD28R,0.02559X0.045*%
%ADD29C,0.02*%
%ADD30C,0.005*%
G54D10*
%SRX1Y1I0.0J0.0*%
G36*
G1X5500Y1000D2*
G1X1000Y5500D1*
G1X1000Y73500D1*
G1X18000Y73500D1*
G1X18000Y26000D1*
G1X23000Y21000D1*
G1X23000Y1500D1*
G1X22500Y1000D1*
G1X5500Y1000D1*
G37*
G36*
G1X1500Y75500D2*
G1X1000Y76000D1*
G1X1000Y93000D1*
G1X5500Y97500D1*
G1X26000Y97500D1*
G1X26500Y97000D1*
G1X26500Y76500D1*
G1X25500Y75500D1*
G1X1500Y75500D1*
G37*
G36*
G1X23500Y21500D2*
G1X19000Y26000D1*
G1X19000Y69000D1*
G1X20500Y70500D1*
G1X21500Y70500D1*
G1X25000Y67000D1*
G1X25000Y28000D1*
G1X26500Y26500D1*
G1X30500Y26500D1*
G1X38000Y19000D1*
G1X38000Y1500D1*
G1X37500Y1000D1*
G1X24000Y1000D1*
G1X23500Y1500D1*
G1X23500Y21500D1*
G37*
G36*
G1X72000Y24000D2*
G1X77500Y18500D1*
G1X82000Y18500D1*
G1X82500Y19000D1*
G1X82500Y24000D1*
G1X108000Y24000D1*
G1X113500Y18500D1*
G1X118000Y18500D1*
G1X118500Y19000D1*
G1X118500Y24000D1*
G1X136500Y24000D1*
G1X137000Y23500D1*
G1X137000Y1500D1*
G1X136500Y1000D1*
G1X40000Y1000D1*
G1X39500Y1500D1*
G1X39500Y16500D1*
G1X40000Y17000D1*
G1X44500Y17000D1*
G1X46500Y19000D1*
G1X46500Y24000D1*
G1X72000Y24000D1*
G37*
G36*
G1X40370Y28719D2*
G1X42240Y28719D1*
G1X42240Y27972D1*
G1X59760Y27972D1*
G1X59760Y28719D1*
G1X61630Y28719D1*
G1X61630Y31869D1*
G1X59760Y31869D1*
G1X59760Y38365D1*
G1X61630Y38365D1*
G1X61630Y41515D1*
G1X59760Y41515D1*
G1X59760Y43700D1*
G1X57201Y43700D1*
G1X57201Y43326D1*
G1X54740Y43326D1*
G1X54740Y43699D1*
G1X52500Y43701D1*
G1X52500Y43300D1*
G1X49500Y43300D1*
G1X49500Y43701D1*
G1X47260Y43699D1*
G1X47260Y43326D1*
G1X44799Y43326D1*
G1X44799Y43700D1*
G1X42240Y43700D1*
G1X42240Y41515D1*
G1X40370Y41515D1*
G1X40370Y38365D1*
G1X42240Y38365D1*
G1X42240Y31869D1*
G1X40370Y31869D1*
G1X40370Y28719D1*
G37*
G36*
G1X38417Y49850D2*
G75*
G3X39767Y53169I83J1900D1*
G2X39750Y53750I266J298D1*
G1X42500Y56500D1*
G1X45500Y56500D1*
G1X47000Y58000D1*
G1X47000Y63500D1*
G1X73000Y63500D1*
G1X73000Y28000D1*
G1X59250Y28000D1*
G1X59250Y43000D1*
G1X42750Y43000D1*
G1X42750Y28000D1*
G1X38500Y28000D1*
G1X38000Y28500D1*
G1X38000Y40518D1*
G1X38002Y40519D1*
G1X38002Y48731D1*
G1X38000Y48732D1*
G1X38000Y49451D1*
G2X38417Y49850I400J-1D1*
G37*
G36*
G1X34964Y66902D2*
G3X33206Y64367I36J-1903D1*
G1X33248Y64248D1*
G1X32000Y63000D1*
G1X32000Y58996D1*
G1X31986Y58960D1*
G3X31986Y57540I1764J-710D1*
G1X32000Y57504D1*
G1X32000Y45996D1*
G1X31986Y45960D1*
G3X31986Y44540I1764J-710D1*
G1X32000Y44504D1*
G1X32000Y38996D1*
G1X31986Y38960D1*
G3X31986Y37540I1764J-710D1*
G1X32000Y37504D1*
G1X32000Y28000D1*
G1X31500Y27500D1*
G1X27000Y27500D1*
G1X26000Y28500D1*
G1X26000Y75000D1*
G1X27000Y76000D1*
G1X27000Y76277D1*
G1X27014Y76313D1*
G3X27050Y76500I-467J186D1*
G1X27050Y96500D1*
G3X27015Y96684I-504J-1D1*
G1X27002Y96720D1*
G1X27002Y97002D1*
G1X27500Y97500D1*
G1X136500Y97500D1*
G1X137000Y97000D1*
G1X137000Y69000D1*
G1X135500Y67500D1*
G1X131000Y67500D1*
G1X131000Y82500D1*
G1X115000Y82500D1*
G1X115000Y67500D1*
G1X95000Y67500D1*
G1X95000Y82500D1*
G1X79000Y82500D1*
G1X79000Y67500D1*
G1X59500Y67500D1*
G1X59500Y82500D1*
G1X42500Y82500D1*
G1X42500Y67500D1*
G1X39161Y67500D1*
G1X39143Y67681D1*
G3X35355Y67336I-1894J-173D1*
G2X34964Y66902I-399J-35D1*
G37*
G36*
G1X40370Y68219D2*
G1X42240Y68219D1*
G1X42240Y67472D1*
G1X59760Y67472D1*
G1X59760Y68219D1*
G1X61630Y68219D1*
G1X61630Y71369D1*
G1X59760Y71369D1*
G1X59760Y77865D1*
G1X61630Y77865D1*
G1X61630Y81015D1*
G1X59760Y81015D1*
G1X59760Y83200D1*
G1X57201Y83200D1*
G1X57201Y82826D1*
G1X54740Y82826D1*
G1X54740Y83199D1*
G1X52500Y83201D1*
G1X52500Y82800D1*
G1X49500Y82800D1*
G1X49500Y83201D1*
G1X47260Y83199D1*
G1X47260Y82826D1*
G1X44799Y82826D1*
G1X44799Y83200D1*
G1X42240Y83200D1*
G1X42240Y81015D1*
G1X40370Y81015D1*
G1X40370Y77865D1*
G1X42240Y77865D1*
G1X42240Y71369D1*
G1X40370Y71369D1*
G1X40370Y68219D1*
G37*
G36*
G1X76370Y28719D2*
G1X78240Y28719D1*
G1X78240Y27972D1*
G1X95760Y27972D1*
G1X95760Y28719D1*
G1X97630Y28719D1*
G1X97630Y31869D1*
G1X95760Y31869D1*
G1X95760Y38365D1*
G1X97630Y38365D1*
G1X97630Y41515D1*
G1X95760Y41515D1*
G1X95760Y43700D1*
G1X93201Y43700D1*
G1X93201Y43326D1*
G1X90740Y43326D1*
G1X90740Y43699D1*
G1X88500Y43701D1*
G1X88500Y43300D1*
G1X85500Y43300D1*
G1X85500Y43701D1*
G1X83260Y43699D1*
G1X83260Y43326D1*
G1X80799Y43326D1*
G1X80799Y43700D1*
G1X78240Y43700D1*
G1X78240Y41515D1*
G1X76370Y41515D1*
G1X76370Y38365D1*
G1X78240Y38365D1*
G1X78240Y31869D1*
G1X76370Y31869D1*
G1X76370Y28719D1*
G37*
G36*
G1X78750Y28000D2*
G1X74500Y28000D1*
G1X74000Y28500D1*
G1X74000Y56500D1*
G1X74500Y57000D1*
G1X82000Y57000D1*
G1X83000Y58000D1*
G1X83000Y63500D1*
G1X109000Y63500D1*
G1X109000Y28000D1*
G1X95250Y28000D1*
G1X95250Y43000D1*
G1X78750Y43000D1*
G1X78750Y28000D1*
G37*
G36*
G1X76370Y68219D2*
G1X78240Y68219D1*
G1X78240Y67472D1*
G1X95760Y67472D1*
G1X95760Y68219D1*
G1X97630Y68219D1*
G1X97630Y71369D1*
G1X95760Y71369D1*
G1X95760Y77865D1*
G1X97630Y77865D1*
G1X97630Y81015D1*
G1X95760Y81015D1*
G1X95760Y83200D1*
G1X93201Y83200D1*
G1X93201Y82826D1*
G1X90740Y82826D1*
G1X90740Y83199D1*
G1X88500Y83201D1*
G1X88500Y82800D1*
G1X85500Y82800D1*
G1X85500Y83201D1*
G1X83260Y83199D1*
G1X83260Y82826D1*
G1X80799Y82826D1*
G1X80799Y83200D1*
G1X78240Y83200D1*
G1X78240Y81015D1*
G1X76370Y81015D1*
G1X76370Y77865D1*
G1X78240Y77865D1*
G1X78240Y71369D1*
G1X76370Y71369D1*
G1X76370Y68219D1*
G37*
G36*
G1X112370Y28719D2*
G1X114240Y28719D1*
G1X114240Y27972D1*
G1X131760Y27972D1*
G1X131760Y28719D1*
G1X133630Y28719D1*
G1X133630Y31869D1*
G1X131760Y31869D1*
G1X131760Y38365D1*
G1X133630Y38365D1*
G1X133630Y41515D1*
G1X131760Y41515D1*
G1X131760Y43700D1*
G1X129201Y43700D1*
G1X129201Y43326D1*
G1X126740Y43326D1*
G1X126740Y43699D1*
G1X124500Y43701D1*
G1X124500Y43300D1*
G1X121500Y43300D1*
G1X121500Y43701D1*
G1X119260Y43699D1*
G1X119260Y43326D1*
G1X116799Y43326D1*
G1X116799Y43700D1*
G1X114240Y43700D1*
G1X114240Y41515D1*
G1X112370Y41515D1*
G1X112370Y38365D1*
G1X114240Y38365D1*
G1X114240Y31869D1*
G1X112370Y31869D1*
G1X112370Y28719D1*
G37*
G36*
G1X133500Y63500D2*
G1X139500Y69500D1*
G1X158000Y69500D1*
G1X158500Y69000D1*
G1X158500Y29500D1*
G1X158000Y29000D1*
G1X137500Y29000D1*
G1X136500Y28000D1*
G1X131250Y28000D1*
G1X131250Y43000D1*
G1X114750Y43000D1*
G1X114750Y28000D1*
G1X110500Y28000D1*
G1X110000Y28500D1*
G1X110000Y56500D1*
G1X110500Y57000D1*
G1X118000Y57000D1*
G1X119000Y58000D1*
G1X119000Y63500D1*
G1X133500Y63500D1*
G37*
G36*
G1X112370Y68219D2*
G1X114240Y68219D1*
G1X114240Y67472D1*
G1X131760Y67472D1*
G1X131760Y68219D1*
G1X133630Y68219D1*
G1X133630Y71369D1*
G1X131760Y71369D1*
G1X131760Y77865D1*
G1X133630Y77865D1*
G1X133630Y81015D1*
G1X131760Y81015D1*
G1X131760Y83200D1*
G1X129201Y83200D1*
G1X129201Y82826D1*
G1X126740Y82826D1*
G1X126740Y83199D1*
G1X124500Y83201D1*
G1X124500Y82800D1*
G1X121500Y82800D1*
G1X121500Y83201D1*
G1X119260Y83199D1*
G1X119260Y82826D1*
G1X116799Y82826D1*
G1X116799Y83200D1*
G1X114240Y83200D1*
G1X114240Y81015D1*
G1X112370Y81015D1*
G1X112370Y77865D1*
G1X114240Y77865D1*
G1X114240Y71369D1*
G1X112370Y71369D1*
G1X112370Y68219D1*
G37*
G74*
G54D27*
G1X12000Y12000D3*
G1X12000Y86500D3*
G1X0Y15000D2*
G54D10*
G1X0Y0D1*
G1X15000Y0D1*
G1X15000Y98500D2*
G1X0Y98500D1*
G1X0Y83500D1*
G1X144500Y0D2*
G1X159500Y0D1*
G1X159500Y15000D1*
G1X159500Y83500D2*
G1X159500Y98500D1*
G1X144500Y98500D1*
G54D21*
G1X5000Y15000D3*
G1X5000Y9000D3*
G1X5000Y6000D3*
G1X5000Y12000D3*
G1X2500Y10500D3*
G1X2500Y13500D3*
G1X5000Y18000D3*
G1X5000Y89500D3*
G1X5000Y92500D3*
G1X5000Y83500D3*
G1X5000Y86500D3*
G1X5000Y80500D3*
G1X2500Y85000D3*
G1X2500Y88000D3*
G1X16000Y15000D3*
G1X16000Y12000D3*
G1X19000Y9000D3*
G1X12000Y8000D3*
G1X21500Y13500D3*
G1X21500Y10500D3*
G1X8000Y9000D3*
G1X12000Y2000D3*
G1X8000Y3000D3*
G1X12000Y5000D3*
G1X19000Y6000D3*
G1X19000Y12000D3*
G1X19000Y15000D3*
G1X8000Y6000D3*
G1X8000Y12000D3*
G1X8000Y15000D3*
G1X12000Y16000D3*
G1X16000Y6000D3*
G1X16000Y3000D3*
G1X16000Y9000D3*
G1X16000Y21000D3*
G1X19000Y18000D3*
G1X12000Y22000D3*
G1X12000Y19000D3*
G1X8000Y18000D3*
G1X8000Y21000D3*
G1X16000Y18000D3*
G1X21000Y69500D3*
G1X8000Y77500D3*
G1X16000Y77500D3*
G1X12000Y76500D3*
G1X16000Y83500D3*
G1X16000Y86500D3*
G1X16000Y80500D3*
G1X8000Y89500D3*
G1X8000Y92500D3*
G1X8000Y95500D3*
G1X8000Y80500D3*
G1X8000Y83500D3*
G1X8000Y86500D3*
G1X12000Y90500D3*
G1X19000Y92500D3*
G1X19000Y80500D3*
G1X21500Y88000D3*
G1X21500Y85000D3*
G1X19000Y86500D3*
G1X19000Y89500D3*
G1X16000Y95500D3*
G1X12000Y79500D3*
G1X16000Y89500D3*
G1X16000Y92500D3*
G1X12000Y82500D3*
G1X12000Y96500D3*
G1X12000Y93500D3*
G1X19000Y83500D3*
G1X42000Y8500D3*
G1X33750Y38250D3*
G1X40500Y21000D3*
G1X38500Y51750D3*
G1X33750Y45250D3*
G1X33750Y58250D3*
G1X39500Y65000D3*
G1X37250Y67500D3*
G1X35000Y65000D3*
G1X52500Y44000D3*
G1X90500Y92250D3*
G1X117500Y6000D3*
G1X148500Y4000D3*
G1X148500Y7500D3*
G1X144500Y15000D3*
G1X148500Y11000D3*
G1X141000Y7500D3*
G1X141000Y11000D3*
G1X141000Y15000D3*
G1X144500Y11000D3*
G1X144500Y7500D3*
G1X144500Y4000D3*
G1X141000Y4000D3*
G1X148500Y26000D3*
G1X144500Y26000D3*
G1X144500Y22500D3*
G1X141000Y22500D3*
G1X141000Y26000D3*
G1X144500Y19000D3*
G1X141000Y19000D3*
G1X148500Y22500D3*
G1X148500Y19000D3*
G1X148500Y38000D3*
G1X141000Y38000D3*
G1X144500Y38000D3*
G1X148500Y45000D3*
G1X148500Y41500D3*
G1X141000Y53500D3*
G1X144500Y45000D3*
G1X148500Y57000D3*
G1X141000Y57000D3*
G1X141000Y49000D3*
G1X144500Y53500D3*
G1X141000Y41500D3*
G1X144500Y49000D3*
G1X148500Y53500D3*
G1X144500Y41500D3*
G1X144500Y57000D3*
G1X141000Y45000D3*
G1X148500Y60500D3*
G1X141000Y60500D3*
G1X144500Y60500D3*
G1X148500Y72500D3*
G1X148500Y76000D3*
G1X144500Y76000D3*
G1X144500Y72500D3*
G1X141000Y72500D3*
G1X141000Y76000D3*
G1X144500Y83500D3*
G1X148500Y87500D3*
G1X148500Y79500D3*
G1X148500Y94500D3*
G1X148500Y91000D3*
G1X144500Y79500D3*
G1X141000Y79500D3*
G1X141000Y83500D3*
G1X144500Y91000D3*
G1X144500Y94500D3*
G1X144500Y87500D3*
G1X141000Y87500D3*
G1X141000Y94500D3*
G1X141000Y91000D3*
G1X152500Y7500D3*
G1X156000Y7500D3*
G1X156000Y4000D3*
G1X152500Y11000D3*
G1X152500Y15000D3*
G1X152500Y4000D3*
G1X156000Y11000D3*
G1X156000Y15000D3*
G1X152500Y22500D3*
G1X152500Y26000D3*
G1X156000Y22500D3*
G1X152500Y19000D3*
G1X156000Y26000D3*
G1X156000Y19000D3*
G1X156000Y38000D3*
G1X152500Y38000D3*
G1X152500Y49000D3*
G1X156000Y49000D3*
G1X156000Y41500D3*
G1X152500Y57000D3*
G1X152500Y53500D3*
G1X156000Y45000D3*
G1X156000Y53500D3*
G1X156000Y57000D3*
G1X152500Y41500D3*
G1X152500Y45000D3*
G1X152500Y60500D3*
G1X156000Y60500D3*
G1X152500Y72500D3*
G1X152500Y76000D3*
G1X156000Y72500D3*
G1X156000Y76000D3*
G1X152500Y91000D3*
G1X152500Y83500D3*
G1X152500Y79500D3*
G1X152500Y94500D3*
G1X152500Y87500D3*
G1X156000Y79500D3*
G1X156000Y83500D3*
G1X156000Y87500D3*
G1X156000Y94500D3*
G1X156000Y91000D3*
G1X43500Y61089D2*
G54D15*
G1X35500Y53089D1*
G1X35500Y49250D1*
G1X36600Y48150D1*
G1X36600Y41100D1*
G1X33750Y38250D1*
G1X76500Y23000D2*
G1X77911Y21589D1*
G1X79500Y21589D1*
G1X76000Y64500D2*
G1X79411Y61089D1*
G1X79500Y61089D1*
G1X112500Y23000D2*
G1X113911Y21589D1*
G1X115500Y21589D1*
G1X112500Y64000D2*
G1X115411Y61089D1*
G1X115500Y61089D1*
G54D20*
G1X9500Y29000D3*
G1X9500Y69500D3*
G1X21507Y73292D2*
G54D12*
G1X21320Y73583D1*
G1X21160Y73750D1*
G1X20947Y73833D1*
G1X20760Y73750D1*
G1X20627Y73583D1*
G1X20520Y73333D1*
G1X20493Y73042D1*
G1X20520Y72792D1*
G1X20627Y72542D1*
G1X20787Y72333D1*
G1X20973Y72250D1*
G1X21187Y72333D1*
G1X21373Y72583D1*
G1X21480Y72958D1*
G1X21507Y73375D1*
G1X21453Y73917D1*
G1X21373Y74208D1*
G1X21240Y74500D1*
G1X21053Y74708D1*
G1X20867Y74750D1*
G1X20680Y74667D1*
G1X20547Y74458D1*
G54D22*
G1X21500Y11000D3*
G1X24500Y11000D3*
G1X25000Y86500D3*
G1X28000Y86500D3*
G1X27000Y86500D2*
G54D30*
G1X28000Y86500D1*
G54D25*
G1X22000Y37500D3*
G1X22000Y30500D3*
G1X22000Y44500D3*
G1X22000Y58500D3*
G1X22000Y51500D3*
G1X22000Y65500D3*
G1X29000Y37500D3*
G1X29000Y30500D3*
G1X29000Y44500D3*
G1X29000Y58500D3*
G1X29000Y51500D3*
G1X29000Y65500D3*
G54D24*
G1X32126Y8500D3*
G1X47874Y8500D3*
G54D28*
G1X43500Y21589D3*
G1X43500Y43411D3*
G1X43500Y61089D3*
G1X43500Y82911D3*
G1X48500Y21589D3*
G1X53500Y21589D3*
G1X58500Y21589D3*
G1X58500Y43411D3*
G1X53500Y43411D3*
G1X48500Y43411D3*
G1X48500Y61089D3*
G1X53500Y61089D3*
G1X58500Y61089D3*
G1X58500Y82911D3*
G1X53500Y82911D3*
G1X48500Y82911D3*
G1X79500Y21589D3*
G1X84500Y21589D3*
G1X84500Y43411D3*
G1X79500Y43411D3*
G1X79500Y61089D3*
G1X84500Y61089D3*
G1X84500Y82911D3*
G1X79500Y82911D3*
G1X89500Y21589D3*
G1X94500Y21589D3*
G1X94500Y43411D3*
G1X89500Y43411D3*
G1X89500Y61089D3*
G1X94500Y61089D3*
G1X94500Y82911D3*
G1X89500Y82911D3*
G1X115500Y21589D3*
G1X120500Y21589D3*
G1X125500Y21589D3*
G1X125500Y43411D3*
G1X120500Y43411D3*
G1X115500Y43411D3*
G1X115500Y61089D3*
G1X120500Y61089D3*
G1X125500Y61089D3*
G1X125500Y82911D3*
G1X120500Y82911D3*
G1X115500Y82911D3*
G1X130500Y21589D3*
G1X130500Y43411D3*
G1X130500Y61089D3*
G1X130500Y82911D3*
G54D23*
G1X43500Y29500D3*
G1X43500Y34500D3*
G1X43500Y47000D3*
G1X39500Y48000D3*
G1X43500Y39500D3*
G1X30000Y95000D3*
G1X35000Y90000D3*
G1X30000Y85000D3*
G1X40000Y85000D3*
G1X40000Y95000D3*
G1X45000Y90000D3*
G1X55000Y15000D3*
G1X65000Y15000D3*
G1X65000Y5000D3*
G1X55000Y5000D3*
G1X60000Y10000D3*
G1X51000Y29500D3*
G1X58500Y29500D3*
G1X51000Y34500D3*
G1X58500Y34500D3*
G1X67500Y35000D3*
G1X63500Y29500D3*
G1X48500Y47000D3*
G1X53500Y47000D3*
G1X58500Y47000D3*
G1X48500Y57000D3*
G1X53500Y57000D3*
G1X58500Y57000D3*
G1X51000Y39500D3*
G1X58500Y39500D3*
G1X51000Y56000D3*
G1X56000Y56000D3*
G1X67500Y46000D3*
G1X67500Y57000D3*
G1X63500Y40500D3*
G1X63500Y51500D3*
G1X61500Y62000D3*
G1X61500Y59000D3*
G1X50000Y95000D3*
G1X60000Y95000D3*
G1X55000Y90000D3*
G1X65000Y90000D3*
G1X75000Y15000D3*
G1X85000Y15000D3*
G1X85000Y5000D3*
G1X75000Y5000D3*
G1X70000Y10000D3*
G1X80000Y10000D3*
G1X71500Y29500D3*
G1X79500Y29500D3*
G1X87000Y29500D3*
G1X79500Y34500D3*
G1X87000Y34500D3*
G1X76500Y23000D3*
G1X71500Y51500D3*
G1X71500Y40500D3*
G1X84500Y47000D3*
G1X79500Y47000D3*
G1X84500Y57000D3*
G1X75500Y48500D3*
G1X79500Y39500D3*
G1X87000Y39500D3*
G1X87000Y56000D3*
G1X71500Y62000D3*
G1X76000Y64500D3*
G1X70000Y85000D3*
G1X70000Y95000D3*
G1X75000Y90000D3*
G1X80000Y95000D3*
G1X80000Y85000D3*
G1X85000Y90000D3*
G1X90000Y10000D3*
G1X95000Y15000D3*
G1X105000Y15000D3*
G1X105000Y5000D3*
G1X95000Y5000D3*
G1X100000Y10000D3*
G1X94500Y29500D3*
G1X107500Y29500D3*
G1X94500Y34500D3*
G1X103500Y35000D3*
G1X99500Y29500D3*
G1X94500Y47000D3*
G1X89500Y47000D3*
G1X89500Y57000D3*
G1X94500Y57000D3*
G1X107500Y40500D3*
G1X107500Y51500D3*
G1X94500Y39500D3*
G1X92000Y56000D3*
G1X103500Y46000D3*
G1X103500Y57000D3*
G1X99500Y40500D3*
G1X99500Y51500D3*
G1X107500Y62000D3*
G1X97500Y62000D3*
G1X97500Y59000D3*
G1X95000Y90000D3*
G1X90000Y95000D3*
G1X105000Y90000D3*
G1X110000Y10000D3*
G1X115000Y15000D3*
G1X115000Y5000D3*
G1X125000Y5000D3*
G1X125000Y15000D3*
G1X120000Y10000D3*
G1X112500Y23000D3*
G1X123000Y62000D3*
G1X112500Y64000D3*
G1X115000Y90000D3*
G1X125000Y90000D3*
G1X120000Y95000D3*
G1X110000Y95000D3*
G1X135000Y5000D3*
G1X135000Y15000D3*
G1X130000Y10000D3*
G1X135000Y90000D3*
G1X130000Y95000D3*
G54D26*
G1X148500Y15000D3*
G1X148500Y49250D3*
G1X148500Y83500D3*
G1X43500Y21589D2*
G54D29*
G1X42911Y21000D1*
G1X40500Y21000D1*
M2*
