*
%LPD*%
%LNSTEVAL-ESC002V1-TOP*%
%FSLAX25Y25*%
%MOIN*%
%AD*%
%ADD10C,0.015*%
%ADD12C,0.004*%
%ADD13C,0.012*%
%ADD15C,0.018*%
%ADD20R,0.17X0.08*%
%ADD21C,0.024*%
%ADD23C,0.0236*%
%ADD26R,0.2X0.257*%
%ADD27C,0.221*%
%ADD29C,0.02*%
%ADD34C,0.01*%
%ADD40C,0.025*%
%ADD45R,0.1063X0.03937*%
%ADD46O,0.012X0.036*%
%ADD47R,0.05X0.04*%
%ADD48O,0.036X0.012*%
%ADD49R,0.035X0.03*%
%ADD50R,0.03X0.035*%
%ADD52R,0.036X0.048*%
%ADD53R,0.02362X0.06102*%
%ADD54R,0.05906X0.04331*%
%ADD55R,0.02717X0.03937*%
%ADD56R,0.04724X0.07087*%
%ADD83C,0.03*%
%ADD84C,0.05*%
%ADD85R,0.05X0.05*%
%ADD86R,0.11024X0.11024*%
%ADD87R,0.038X0.075*%
G54D10*
%SRX1Y1I0.0J0.0*%
G36*
G1X18000Y25000D2*
G1X1000Y25000D1*
G1X1000Y96000D1*
G1X2500Y97500D1*
G1X21500Y97500D1*
G1X23000Y96000D1*
G1X23000Y81500D1*
G1X18000Y76500D1*
G1X18000Y25000D1*
G37*
G36*
G1X24000Y81000D2*
G1X24000Y96500D1*
G1X24500Y97000D1*
G1X76750Y97000D1*
G1X77250Y96500D1*
G1X77250Y84000D1*
G1X69996Y84000D1*
G75*
G2X69598Y84440I0J400D1*
G3X69602Y84500I-634J72D1*
G1X69602Y88000D1*
G3X69423Y88428I-602J-1D1*
G3X69782Y89500I-1424J1072D1*
G3X66218Y89500I-1782J0D1*
G1X66218Y89497D1*
G3X66290Y88997I1785J1D1*
G1X66298Y88970D1*
G1X66298Y88602D1*
G1X66000Y88602D1*
G3X65398Y88000I0J-603D1*
G1X65398Y84500D1*
G3X65402Y84440I605J10D1*
G2X65004Y84000I-399J-40D1*
G1X58500Y84000D1*
G1X58000Y84500D1*
G1X58000Y88903D1*
G2X58510Y89287I400J-1D1*
G3X59000Y89218I491J1715D1*
G3X60782Y91000I-1J1782D1*
G3X59203Y92770I-1782J-1D1*
G1X59133Y92778D1*
G1X58810Y93102D1*
G1X57602Y93102D1*
G1X57602Y93500D1*
G3X57000Y94102I-603J-1D1*
G1X54000Y94102D1*
G3X53398Y93500I0J-603D1*
G1X53398Y90000D1*
G1X47964Y90000D1*
G2X47650Y90647I0J399D1*
G3X48032Y91749I-1401J1102D1*
G1X48032Y91750D1*
G3X46250Y93532I-1783J-1D1*
G1X46249Y93532D1*
G3X45398Y93315I1J-1783D1*
G1X45353Y93291D1*
G1X45102Y93291D1*
G1X45102Y93500D1*
G3X44500Y94102I-603J-1D1*
G1X41500Y94102D1*
G3X40898Y93500I0J-603D1*
G1X40898Y90000D1*
G1X35000Y90000D1*
G1X34500Y89500D1*
G1X34500Y78500D1*
G1X37500Y75500D1*
G1X45500Y75500D1*
G1X45500Y72000D1*
G1X38000Y72000D1*
G1X37701Y71702D1*
G1X35316Y71702D1*
G3X34000Y72282I-1317J-1204D1*
G3X32218Y70500I0J-1783D1*
G3X33808Y68728I1782J-1D1*
G2X34048Y68048I-44J-398D1*
G1X30000Y64000D1*
G1X30000Y3000D1*
G1X29000Y2000D1*
G1X19286Y2000D1*
G2X19044Y2719I-1J400D1*
G3X23652Y12000I-7045J9281D1*
G3X18115Y21919I-11654J-1D1*
G2X18042Y22542I209J340D1*
G1X19000Y23500D1*
G1X19000Y67988D1*
G2X19691Y68262I400J-1D1*
G3X21000Y67698I1309J1237D1*
G3X22802Y69500I-1J1802D1*
G3X22195Y70849I-1804J-1D1*
G2X22460Y71548I265J299D1*
G1X22502Y71548D1*
G1X22502Y75452D1*
G1X19498Y75452D1*
G1X19498Y71548D1*
G1X19540Y71548D1*
G2X19805Y70849I-1J-400D1*
G3X19691Y70738I1242J-1391D1*
G2X19000Y71012I-291J274D1*
G1X19000Y76000D1*
G1X24000Y81000D1*
G37*
G36*
G1X35500Y88000D2*
G1X44500Y88000D1*
G1X44500Y79000D1*
G1X41000Y79000D1*
G1X41000Y82000D1*
G1X38500Y84500D1*
G1X35500Y84500D1*
G1X35500Y88000D1*
G37*
G36*
G1X69500Y64000D2*
G1X70600Y64000D1*
G1X74100Y60500D1*
G1X80000Y60500D1*
G1X80500Y60000D1*
G1X80500Y45500D1*
G1X76500Y41500D1*
G1X76500Y34087D1*
G1X76497Y34069D1*
G3X76468Y33750I1763J-322D1*
G3X77955Y31993I1781J0D1*
G1X78018Y31982D1*
G1X78067Y31933D1*
G2X77784Y31250I-284J-283D1*
G1X75000Y31250D1*
G1X73500Y32750D1*
G1X73500Y41500D1*
G1X70000Y45000D1*
G1X66000Y45000D1*
G1X65500Y45500D1*
G1X65500Y60000D1*
G1X69500Y64000D1*
G37*
G36*
G1X60000Y79000D2*
G1X60000Y82500D1*
G1X69000Y82500D1*
G1X69000Y73500D1*
G1X65500Y73500D1*
G1X65500Y76500D1*
G1X63000Y79000D1*
G1X60000Y79000D1*
G37*
G36*
G1X57000Y88000D2*
G1X57000Y79000D1*
G1X53500Y79000D1*
G1X53500Y82000D1*
G1X51000Y84500D1*
G1X48000Y84500D1*
G1X48000Y88000D1*
G1X57000Y88000D1*
G37*
G36*
G1X83500Y40000D2*
G1X88000Y40000D1*
G1X92500Y35500D1*
G1X92500Y32000D1*
G1X96500Y28000D1*
G1X108000Y28000D1*
G1X109000Y29000D1*
G1X109000Y36000D1*
G1X109500Y36500D1*
G1X113500Y36500D1*
G1X115500Y38500D1*
G1X119500Y38500D1*
G1X120000Y38000D1*
G1X120000Y27000D1*
G1X116500Y23500D1*
G1X88500Y23500D1*
G1X88000Y24000D1*
G1X88000Y32750D1*
G1X86601Y34149D1*
G1X86602Y34233D1*
G1X86602Y34250D1*
G3X84500Y36352I-2102J0D1*
G1X84483Y36352D1*
G1X84399Y36351D1*
G1X83500Y37250D1*
G1X83500Y40000D1*
G37*
G36*
G1X85500Y31750D2*
G1X86000Y31250D1*
G1X86000Y27500D1*
G1X76000Y27500D1*
G1X75000Y28500D1*
G1X75000Y32000D1*
G1X78000Y32000D1*
G1X78250Y31750D1*
G1X85500Y31750D1*
G37*
G36*
G1X113500Y60000D2*
G1X128500Y60000D1*
G1X129500Y59000D1*
G1X129500Y45500D1*
G1X124500Y40500D1*
G1X124500Y32900D1*
G1X124466Y32849D1*
G3X124380Y32568I415J-281D1*
G1X124380Y28632D1*
G3X124466Y28351I501J-1D1*
G1X124500Y28300D1*
G1X124500Y22700D1*
G1X124466Y22649D1*
G3X124380Y22368I415J-281D1*
G1X124380Y18432D1*
G3X124466Y18151I501J-1D1*
G1X124500Y18100D1*
G1X124500Y13000D1*
G1X121000Y13000D1*
G1X121000Y38500D1*
G1X116500Y43000D1*
G1X103000Y43000D1*
G1X103000Y52000D1*
G1X106500Y52000D1*
G1X106500Y46500D1*
G1X107000Y46000D1*
G1X113000Y46000D1*
G1X113500Y46500D1*
G1X113500Y60000D1*
G37*
G36*
G1X101000Y49000D2*
G1X97500Y49000D1*
G1X91750Y54750D1*
G1X91500Y54750D1*
G1X91500Y56250D1*
G1X97000Y56250D1*
G1X101000Y52250D1*
G1X101000Y49000D1*
G37*
G36*
G1X95500Y62000D2*
G1X93500Y60000D1*
G1X90466Y60000D1*
G2X90183Y60683I-1J400D1*
G1X102500Y73000D1*
G1X129000Y73000D1*
G1X129000Y63000D1*
G1X128000Y62000D1*
G1X95500Y62000D1*
G37*
G36*
G1X129066Y68721D2*
G1X115484Y68721D1*
G1X115484Y81713D1*
G1X129066Y81713D1*
G1X129066Y68721D1*
G37*
G74*
G54D27*
G1X12000Y12000D3*
G1X12000Y86500D3*
G54D87*
G1X85250Y7000D3*
G1X80263Y7000D3*
G1X90237Y7000D3*
G1X103994Y7000D3*
G1X99006Y7000D3*
G54D21*
G1X5000Y15000D3*
G1X5000Y9000D3*
G1X5000Y6000D3*
G1X5000Y12000D3*
G1X2500Y10500D3*
G1X2500Y13500D3*
G1X5000Y18000D3*
G1X5000Y89500D3*
G1X5000Y92500D3*
G1X5000Y83500D3*
G1X5000Y86500D3*
G1X5000Y80500D3*
G1X2500Y85000D3*
G1X2500Y88000D3*
G1X16000Y15000D3*
G1X16000Y12000D3*
G1X19000Y9000D3*
G1X12000Y8000D3*
G1X21500Y13500D3*
G1X21500Y10500D3*
G1X8000Y9000D3*
G1X12000Y2000D3*
G1X8000Y3000D3*
G1X12000Y5000D3*
G1X19000Y6000D3*
G1X19000Y12000D3*
G1X19000Y15000D3*
G1X8000Y6000D3*
G1X8000Y12000D3*
G1X8000Y15000D3*
G1X12000Y16000D3*
G1X16000Y6000D3*
G1X16000Y3000D3*
G1X16000Y9000D3*
G1X16000Y21000D3*
G1X19000Y18000D3*
G1X12000Y22000D3*
G1X12000Y19000D3*
G1X8000Y18000D3*
G1X8000Y21000D3*
G1X16000Y18000D3*
G1X21000Y69500D3*
G1X8000Y77500D3*
G1X16000Y77500D3*
G1X12000Y76500D3*
G1X16000Y83500D3*
G1X16000Y86500D3*
G1X16000Y80500D3*
G1X8000Y89500D3*
G1X8000Y92500D3*
G1X8000Y95500D3*
G1X8000Y80500D3*
G1X8000Y83500D3*
G1X8000Y86500D3*
G1X12000Y90500D3*
G1X19000Y92500D3*
G1X19000Y80500D3*
G1X21500Y88000D3*
G1X21500Y85000D3*
G1X19000Y86500D3*
G1X19000Y89500D3*
G1X16000Y95500D3*
G1X12000Y79500D3*
G1X16000Y89500D3*
G1X16000Y92500D3*
G1X12000Y82500D3*
G1X12000Y96500D3*
G1X12000Y93500D3*
G1X19000Y83500D3*
G1X42000Y8500D3*
G1X33750Y38250D3*
G1X40500Y21000D3*
G1X38500Y51750D3*
G1X33750Y45250D3*
G1X33750Y58250D3*
G1X39500Y65000D3*
G1X37250Y67500D3*
G1X35000Y65000D3*
G1X52500Y44000D3*
G1X90500Y92250D3*
G1X117500Y6000D3*
G1X148500Y4000D3*
G1X148500Y7500D3*
G1X144500Y15000D3*
G1X148500Y11000D3*
G1X141000Y7500D3*
G1X141000Y11000D3*
G1X141000Y15000D3*
G1X144500Y11000D3*
G1X144500Y7500D3*
G1X144500Y4000D3*
G1X141000Y4000D3*
G1X148500Y26000D3*
G1X144500Y26000D3*
G1X144500Y22500D3*
G1X141000Y22500D3*
G1X141000Y26000D3*
G1X144500Y19000D3*
G1X141000Y19000D3*
G1X148500Y22500D3*
G1X148500Y19000D3*
G1X148500Y38000D3*
G1X141000Y38000D3*
G1X144500Y38000D3*
G1X148500Y45000D3*
G1X148500Y41500D3*
G1X141000Y53500D3*
G1X144500Y45000D3*
G1X148500Y57000D3*
G1X141000Y57000D3*
G1X141000Y49000D3*
G1X144500Y53500D3*
G1X141000Y41500D3*
G1X144500Y49000D3*
G1X148500Y53500D3*
G1X144500Y41500D3*
G1X144500Y57000D3*
G1X141000Y45000D3*
G1X148500Y60500D3*
G1X141000Y60500D3*
G1X144500Y60500D3*
G1X148500Y72500D3*
G1X148500Y76000D3*
G1X144500Y76000D3*
G1X144500Y72500D3*
G1X141000Y72500D3*
G1X141000Y76000D3*
G1X144500Y83500D3*
G1X148500Y87500D3*
G1X148500Y79500D3*
G1X148500Y94500D3*
G1X148500Y91000D3*
G1X144500Y79500D3*
G1X141000Y79500D3*
G1X141000Y83500D3*
G1X144500Y91000D3*
G1X144500Y94500D3*
G1X144500Y87500D3*
G1X141000Y87500D3*
G1X141000Y94500D3*
G1X141000Y91000D3*
G1X152500Y7500D3*
G1X156000Y7500D3*
G1X156000Y4000D3*
G1X152500Y11000D3*
G1X152500Y15000D3*
G1X152500Y4000D3*
G1X156000Y11000D3*
G1X156000Y15000D3*
G1X152500Y22500D3*
G1X152500Y26000D3*
G1X156000Y22500D3*
G1X152500Y19000D3*
G1X156000Y26000D3*
G1X156000Y19000D3*
G1X156000Y38000D3*
G1X152500Y38000D3*
G1X152500Y49000D3*
G1X156000Y49000D3*
G1X156000Y41500D3*
G1X152500Y57000D3*
G1X152500Y53500D3*
G1X156000Y45000D3*
G1X156000Y53500D3*
G1X156000Y57000D3*
G1X152500Y41500D3*
G1X152500Y45000D3*
G1X152500Y60500D3*
G1X156000Y60500D3*
G1X152500Y72500D3*
G1X152500Y76000D3*
G1X156000Y72500D3*
G1X156000Y76000D3*
G1X152500Y91000D3*
G1X152500Y83500D3*
G1X152500Y79500D3*
G1X152500Y94500D3*
G1X152500Y87500D3*
G1X156000Y79500D3*
G1X156000Y83500D3*
G1X156000Y87500D3*
G1X156000Y94500D3*
G1X156000Y91000D3*
G54D26*
G1X148500Y15000D3*
G1X148500Y49250D3*
G1X148500Y83500D3*
G1X105000Y38000D2*
G54D83*
G1X98750Y38000D1*
G1X98000Y37250D1*
G1X105000Y31000D2*
G1X98750Y31000D1*
G1X98000Y31750D1*
G1X110050Y49000D2*
G1X110050Y52119D1*
G1X105500Y56669D1*
G1X84500Y34250D3*
G1X69250Y70500D3*
G1X81500Y76000D3*
G1X74000Y72750D3*
G1X92750Y38250D3*
G54D20*
G1X9500Y29000D3*
G1X9500Y69500D3*
G1X66110Y66189D2*
G54D34*
G1X66110Y73860D1*
G1X67250Y75000D1*
G1X64142Y66189D2*
G1X64142Y69608D1*
G1X62250Y71500D1*
G1X78250Y33750D2*
G1X78250Y34500D1*
G1X77921Y34829D1*
G1X77921Y38811D1*
G1X81858Y38811D2*
G1X81858Y36642D1*
G1X84250Y34250D1*
G1X84500Y34250D1*
G1X81250Y33750D2*
G1X81250Y34250D1*
G1X79890Y35610D1*
G1X79890Y38811D1*
G1X89734Y51516D2*
G1X86689Y51516D1*
G1X90500Y41000D2*
G1X89827Y41673D1*
G1X86689Y41673D1*
G1X86689Y47579D2*
G1X90921Y47579D1*
G1X92750Y45750D1*
G1X92750Y38250D1*
G1X90500Y44500D2*
G1X89642Y43642D1*
G1X86689Y43642D1*
G1X99250Y44500D2*
G1X99250Y45000D1*
G1X90766Y53484D1*
G1X86689Y53484D1*
G1X73984Y66189D2*
G1X74000Y66205D1*
G1X74000Y72750D1*
G1X69250Y70500D2*
G1X70250Y70500D1*
G1X72016Y68734D1*
G1X72016Y66189D1*
G1X69250Y70500D2*
G1X68079Y69329D1*
G1X68079Y66189D1*
G1X82500Y72250D2*
G1X82500Y71750D1*
G1X79890Y69140D1*
G1X79890Y66189D1*
G1X81500Y76000D2*
G1X79750Y74250D1*
G1X79750Y71499D1*
G1X77921Y69670D1*
G1X77921Y66189D1*
G54D86*
G1X73000Y52500D3*
G54D49*
G1X32750Y8500D3*
G1X38250Y8500D3*
G1X43750Y41500D3*
G1X43750Y51500D3*
G1X39250Y41500D3*
G1X33750Y41500D3*
G1X39250Y55000D3*
G1X33750Y55000D3*
G1X39250Y48500D3*
G1X33750Y48500D3*
G1X43750Y61500D3*
G1X43750Y73500D3*
G1X43750Y67500D3*
G1X39250Y61500D3*
G1X33750Y61500D3*
G1X42750Y80500D3*
G1X37250Y80500D3*
G1X49250Y41500D3*
G1X49250Y51500D3*
G1X49250Y61500D3*
G1X49250Y73500D3*
G1X49250Y67500D3*
G1X67250Y75000D3*
G1X61750Y75000D3*
G1X55250Y80500D3*
G1X49750Y80500D3*
G1X84250Y29000D3*
G1X71250Y30000D3*
G1X76750Y30000D3*
G1X89750Y29000D3*
G1X99250Y44500D3*
G1X104750Y44500D3*
G1X99250Y50500D3*
G1X104750Y50500D3*
G1X99750Y89500D3*
G1X94250Y89500D3*
G1X128250Y14500D3*
G1X122750Y14500D3*
G1X117250Y36500D3*
G1X122750Y36500D3*
G1X40500Y21000D2*
G54D29*
G1X49000Y29500D1*
G1X49000Y30250D1*
G1X49000Y35750D2*
G1X53388Y35750D1*
G1X58500Y40862D1*
G1X105500Y56669D2*
G1X104169Y58000D1*
G1X92501Y58000D1*
G1X87500Y80250D2*
G1X84500Y80250D1*
G1X81500Y83250D1*
G1X81500Y86750D1*
G1X98000Y31750D2*
G1X96250Y31750D1*
G1X94500Y33500D1*
G1X126390Y20250D2*
G1X128250Y18390D1*
G1X128250Y14500D1*
G1X117500Y9750D2*
G1X117500Y6000D1*
G1X117500Y15250D2*
G1X117500Y19140D1*
G1X118760Y20400D1*
G1X126390Y20250D2*
G1X126240Y20400D1*
G1X134000Y20250D2*
G1X126390Y20250D1*
G1X126240Y30600D2*
G1X126340Y30500D1*
G1X134000Y30500D1*
G1X118760Y20400D2*
G1X111150Y20400D1*
G1X111000Y20250D1*
G1X134000Y30500D2*
G1X134000Y33250D1*
G1X134000Y30500D2*
G1X134000Y25750D1*
G54D56*
G1X46945Y4006D3*
G1X65055Y4006D3*
G54D84*
G1X74750Y79000D3*
G1X59311Y47579D2*
G54D13*
G1X54079Y47579D1*
G1X59311Y49547D2*
G1X59297Y49561D1*
G1X52561Y49561D1*
G1X59311Y55453D2*
G1X54048Y55453D1*
G1X53016Y53484D2*
G1X59311Y53484D1*
G1X55079Y57421D2*
G1X59311Y57421D1*
G1X34000Y70500D2*
G1X47500Y70500D1*
G1X49250Y72250D1*
G1X49250Y73500D1*
G1X38500Y77500D2*
G1X37250Y78750D1*
G1X37250Y80500D1*
G1X57142Y61358D2*
G1X59311Y61358D1*
G1X41500Y77500D2*
G1X42750Y78750D1*
G1X42750Y80500D1*
G1X52063Y19262D2*
G1X52063Y16200D1*
G1X56013Y12250D1*
G1X79500Y12250D1*
G1X58500Y40862D2*
G1X59311Y41673D1*
G1X59937Y19262D2*
G1X59937Y36575D1*
G1X62173Y38811D1*
G1X79500Y12250D2*
G1X73750Y18000D1*
G1X69000Y18000D1*
G1X62000Y25000D1*
G1X62000Y34600D1*
G1X64142Y36742D1*
G1X64142Y38811D1*
G1X99006Y7000D2*
G1X99006Y8995D1*
G1X88501Y19500D1*
G1X80000Y19500D1*
G1X77500Y22000D1*
G1X71158Y22000D1*
G1X66000Y27158D1*
G1X66000Y33500D1*
G1X68079Y35579D1*
G1X68079Y38811D1*
G1X85250Y7000D2*
G1X85250Y10750D1*
G1X76000Y20000D1*
G1X70001Y20000D1*
G1X64000Y26001D1*
G1X64000Y34000D1*
G1X66110Y36110D1*
G1X66110Y38811D1*
G1X59311Y45610D2*
G1X55860Y45610D1*
G1X57142Y43642D2*
G1X59311Y43642D1*
G1X59311Y51516D2*
G1X49766Y51516D1*
G1X49250Y51500D1*
G1X59000Y63638D2*
G1X59311Y63327D1*
G1X59311Y59390D2*
G1X56110Y59390D1*
G1X49250Y73500D2*
G1X54862Y73500D1*
G1X62173Y66189D1*
G1X51000Y77500D2*
G1X49750Y78750D1*
G1X49750Y80500D1*
G1X62250Y71500D2*
G1X62250Y74500D1*
G1X61750Y75000D1*
G1X54500Y77500D2*
G1X55250Y78250D1*
G1X55250Y80500D1*
G1X79500Y12250D2*
G1X80263Y11487D1*
G1X80263Y7000D1*
G1X72016Y38811D2*
G1X72016Y31234D1*
G1X71250Y30000D1*
G1X83000Y24500D2*
G1X81500Y26000D1*
G1X73000Y26000D1*
G1X71250Y27750D1*
G1X71250Y30000D1*
G1X103994Y7000D2*
G1X103994Y10505D1*
G1X92999Y21500D1*
G1X81500Y21500D1*
G1X79006Y23994D1*
G1X71993Y23994D1*
G1X68000Y27987D1*
G1X68000Y33000D1*
G1X70047Y35047D1*
G1X70047Y38811D1*
G1X70047Y57547D2*
G1X70047Y66189D1*
G1X89447Y55453D2*
G1X86689Y55453D1*
G1X92000Y58000D2*
G1X91421Y57421D1*
G1X86689Y57421D1*
G1X86689Y49547D2*
G1X84047Y49547D1*
G1X83000Y48500D1*
G1X83000Y43000D1*
G1X81858Y41858D1*
G1X81858Y38811D1*
G1X86689Y45610D2*
G1X86689Y47579D1*
G1X89890Y59390D2*
G1X86689Y59390D1*
G1X94250Y89500D2*
G1X94250Y88250D1*
G1X97000Y85500D1*
G1X97000Y72500D1*
G1X87827Y63327D1*
G1X86689Y63327D1*
G1X100000Y74750D2*
G1X100000Y72500D1*
G1X88858Y61358D1*
G1X86689Y61358D1*
G1X83827Y66189D2*
G1X85439Y66189D1*
G1X94000Y74750D1*
G1X74750Y79000D2*
G1X77250Y76500D1*
G1X77250Y71500D1*
G1X75953Y70203D1*
G1X75953Y66189D1*
G1X87500Y74750D2*
G1X87500Y72500D1*
G1X84500Y69500D1*
G1X83058Y69500D1*
G1X81858Y68300D1*
G1X81858Y66189D1*
G1X81500Y92250D2*
G1X83250Y92250D1*
G1X84500Y91000D1*
G1X84500Y87750D1*
G1X85500Y86750D1*
G1X87500Y86750D1*
G1X90750Y83500D1*
G1X90750Y77250D1*
G1X88250Y74750D1*
G1X87500Y74750D1*
G1X67500Y86250D2*
G1X67500Y89000D1*
G1X68000Y89500D1*
G1X99250Y44500D2*
G1X99250Y43750D1*
G1X101500Y41500D1*
G1X110750Y41500D1*
G1X112000Y40250D1*
G1X87500Y92250D2*
G1X90500Y92250D1*
G1X93500Y84000D2*
G1X94000Y83500D1*
G1X94000Y80250D1*
G1X104000Y80500D2*
G1X107641Y80500D1*
G1X108594Y79547D1*
G1X99750Y89500D2*
G1X103500Y89500D1*
G1X107547Y85453D1*
G1X108594Y85453D1*
G1X100000Y80250D2*
G1X100000Y83500D1*
G1X100500Y84000D1*
G1X134000Y38750D2*
G1X128000Y38750D1*
G1X125000Y85500D2*
G1X120453Y85500D1*
G1X120406Y85453D1*
G1X134000Y38750D2*
G1X134000Y62000D1*
G54D85*
G1X74750Y86500D3*
G54D23*
G1X32750Y18000D3*
G1X37500Y73500D3*
G1X34000Y70500D3*
G1X38500Y77500D3*
G1X41500Y77500D3*
G1X46250Y91750D3*
G1X33500Y92000D3*
G1X51000Y77500D3*
G1X62250Y71500D3*
G1X54500Y77500D3*
G1X59000Y91000D3*
G1X60500Y94000D3*
G1X84000Y16500D3*
G1X72000Y15000D3*
G1X69500Y15000D3*
G1X83000Y24500D3*
G1X87625Y35625D3*
G1X80500Y30000D3*
G1X78250Y33750D3*
G1X81250Y33750D3*
G1X69000Y56500D3*
G1X77000Y56500D3*
G1X77000Y48500D3*
G1X69000Y48500D3*
G1X82500Y72250D3*
G1X84500Y80250D3*
G1X68000Y89500D3*
G1X89500Y33500D3*
G1X94500Y33500D3*
G1X104750Y47500D3*
G1X96500Y53250D3*
G1X94503Y54989D3*
G1X90500Y41000D3*
G1X90500Y44500D3*
G1X104000Y80500D3*
G1X93500Y84000D3*
G1X100500Y84000D3*
G1X122500Y24500D3*
G1X123000Y53500D3*
G1X115500Y55000D3*
G1X122500Y68000D3*
G1X115500Y67500D3*
G1X125000Y85500D3*
G1X134000Y62000D3*
G1X0Y15000D2*
G54D10*
G1X0Y0D1*
G1X15000Y0D1*
G1X15000Y98500D2*
G1X0Y98500D1*
G1X0Y83500D1*
G1X32750Y18000D2*
G1X32750Y8500D1*
G1X38250Y8500D2*
G1X42000Y8500D1*
G1X54079Y47579D2*
G1X53000Y46500D1*
G1X43000Y46500D1*
G1X39250Y42750D1*
G1X39250Y41500D1*
G1X52561Y49561D2*
G1X51500Y48500D1*
G1X39250Y48500D1*
G1X54048Y55453D2*
G1X53001Y56500D1*
G1X40750Y56500D1*
G1X39250Y55000D1*
G1X52500Y44000D2*
G1X52000Y44500D1*
G1X45750Y44500D1*
G1X43750Y42500D1*
G1X43750Y41500D1*
G1X43750Y51500D2*
G1X43750Y52750D1*
G1X45500Y54500D1*
G1X52000Y54500D1*
G1X53016Y53484D1*
G1X38500Y51750D2*
G1X43500Y51750D1*
G1X43750Y51500D1*
G1X33750Y48500D2*
G1X33750Y45250D1*
G1X33750Y55000D2*
G1X33750Y58250D1*
G1X33750Y41500D2*
G1X33750Y38250D1*
G1X39250Y61500D2*
G1X39250Y60000D1*
G1X40750Y58500D1*
G1X54000Y58500D1*
G1X55079Y57421D1*
G1X39500Y65000D2*
G1X40000Y64500D1*
G1X43750Y64500D1*
G1X54000Y64500D1*
G1X57142Y61358D1*
G1X43750Y61500D2*
G1X43750Y64500D1*
G1X33750Y61500D2*
G1X33750Y63750D1*
G1X35000Y65000D1*
G1X43000Y91750D2*
G1X46250Y91750D1*
G1X55860Y45610D2*
G1X54250Y44000D1*
G1X52500Y44000D1*
G1X49250Y41500D2*
G1X49750Y41000D1*
G1X54500Y41000D1*
G1X57142Y43642D1*
G1X49250Y67500D2*
G1X55250Y67500D1*
G1X59000Y63750D1*
G1X59000Y63638D1*
G1X56110Y59390D2*
G1X54000Y61500D1*
G1X49250Y61500D1*
G1X59000Y91000D2*
G1X58250Y91750D1*
G1X55500Y91750D1*
G1X84000Y16500D2*
G1X84500Y16500D1*
G1X90237Y10763D1*
G1X90237Y7000D1*
G1X93000Y55453D2*
G1X89447Y55453D1*
G1X91250Y60750D2*
G1X89890Y59390D1*
G1X144500Y0D2*
G1X159500Y0D1*
G1X159500Y15000D1*
G1X159500Y83500D2*
G1X159500Y98500D1*
G1X144500Y98500D1*
G54D50*
G1X43000Y91750D3*
G1X43000Y86250D3*
G1X37000Y86250D3*
G1X37000Y91750D3*
G1X49000Y35750D3*
G1X49000Y30250D3*
G1X55500Y91750D3*
G1X55500Y86250D3*
G1X67500Y86250D3*
G1X67500Y80750D3*
G1X61500Y80750D3*
G1X61500Y86250D3*
G1X49500Y86250D3*
G1X49500Y91750D3*
G1X87500Y74750D3*
G1X87500Y80250D3*
G1X87500Y86750D3*
G1X87500Y92250D3*
G1X81500Y86750D3*
G1X81500Y92250D3*
G1X98000Y37250D3*
G1X98000Y31750D3*
G1X94000Y74750D3*
G1X100000Y74750D3*
G1X94000Y80250D3*
G1X100000Y80250D3*
G1X117500Y9750D3*
G1X117500Y15250D3*
G1X128000Y38750D3*
G1X112000Y34750D3*
G1X111000Y25750D3*
G1X111000Y20250D3*
G1X115500Y58250D3*
G1X128000Y44250D3*
G1X112000Y40250D3*
G1X115500Y63750D3*
G1X134000Y38750D3*
G1X134000Y33250D3*
G1X134000Y25750D3*
G1X134000Y20250D3*
G54D47*
G1X105000Y38000D3*
G1X105000Y31000D3*
G1X122500Y57500D3*
G1X122500Y64500D3*
G1X22500Y21500D2*
G54D40*
G1X35000Y21500D1*
G1X38750Y17750D1*
G1X42750Y17750D1*
G1X49750Y24750D1*
G1X55250Y24750D1*
G1X56000Y24000D1*
G1X56000Y19262D1*
G1X69500Y15000D2*
G1X72000Y15000D1*
G54D53*
G1X52063Y19262D3*
G1X56000Y19262D3*
G1X59937Y19262D3*
G54D45*
G1X105500Y56669D3*
G1X105500Y65331D3*
G1X43750Y67500D2*
G54D15*
G1X43250Y68000D1*
G1X37750Y68000D1*
G1X37250Y67500D1*
G1X98000Y37250D2*
G1X98000Y38750D1*
G1X95500Y41250D1*
G1X95500Y45750D1*
G1X89734Y51516D1*
G1X92501Y58000D2*
G1X92000Y58000D1*
G54D54*
G1X108594Y79547D3*
G1X108594Y85453D3*
G1X120406Y79547D3*
G1X120406Y85453D3*
G54D48*
G1X59311Y57421D3*
G1X59311Y55453D3*
G1X59311Y53484D3*
G1X59311Y51516D3*
G1X59311Y49547D3*
G1X59311Y47579D3*
G1X59311Y45610D3*
G1X59311Y43642D3*
G1X59311Y41673D3*
G1X59311Y63327D3*
G1X59311Y61358D3*
G1X59311Y59390D3*
G1X86689Y41673D3*
G1X86689Y43642D3*
G1X86689Y45610D3*
G1X86689Y47579D3*
G1X86689Y49547D3*
G1X86689Y51516D3*
G1X86689Y53484D3*
G1X86689Y55453D3*
G1X86689Y57421D3*
G1X86689Y59390D3*
G1X86689Y61358D3*
G1X86689Y63327D3*
G1X21000Y72250D2*
G54D12*
G1X21000Y74750D1*
G1X20680Y74250D1*
G1X20680Y72250D2*
G1X21320Y72250D1*
G54D55*
G1X118760Y30600D3*
G1X126240Y30600D3*
G1X118760Y20400D3*
G1X126240Y20400D3*
G1X122500Y20400D3*
G54D46*
G1X62173Y38811D3*
G1X64142Y38811D3*
G1X66110Y38811D3*
G1X66110Y66189D3*
G1X64142Y66189D3*
G1X62173Y66189D3*
G1X68079Y38811D3*
G1X70047Y38811D3*
G1X72016Y38811D3*
G1X73984Y38811D3*
G1X75953Y38811D3*
G1X77921Y38811D3*
G1X79890Y38811D3*
G1X81858Y38811D3*
G1X83827Y38811D3*
G1X83827Y66189D3*
G1X81858Y66189D3*
G1X79890Y66189D3*
G1X77921Y66189D3*
G1X75953Y66189D3*
G1X73984Y66189D3*
G1X72016Y66189D3*
G1X70047Y66189D3*
G1X68079Y66189D3*
G54D52*
G1X122950Y49000D3*
G1X110050Y49000D3*
M2*
