G04*
G04 #@! TF.GenerationSoftware,Altium Limited,Altium Designer,19.1.7 (138)*
G04*
G04 Layer_Color=128*
%FSLAX44Y44*%
%MOMM*%
G71*
G01*
G75*
%ADD17R,2.8876X4.0894*%
%ADD18R,0.5000X0.6000*%
%ADD24R,0.6000X0.5000*%
%ADD29R,4.5000X5.7500*%
%ADD30R,5.7500X4.5000*%
%ADD33R,6.0000X4.0000*%
%ADD34R,4.0000X6.0000*%
%ADD36R,1.1500X0.6500*%
%ADD42R,1.4000X0.9500*%
%ADD43R,0.9500X1.4000*%
%ADD86R,2.5400X1.8796*%
%ADD87R,0.5588X1.4732*%
%ADD88R,1.7700X1.1000*%
%ADD90R,2.8900X2.9200*%
D17*
X-267261Y-156000D02*
D03*
X-267262Y-101000D02*
D03*
X-267262Y-219000D02*
D03*
X267262Y-164000D02*
D03*
X267263Y155999D02*
D03*
X-267264Y164000D02*
D03*
X267262Y-219001D02*
D03*
X267262Y100998D02*
D03*
X-267262Y219002D02*
D03*
X267262Y-109001D02*
D03*
X267263Y219000D02*
D03*
X-267262Y108999D02*
D03*
D18*
X9250Y-293250D02*
D03*
X-750D02*
D03*
X31000Y-244000D02*
D03*
X21000D02*
D03*
X-750Y-282500D02*
D03*
X9250D02*
D03*
X127500Y68749D02*
D03*
X137500D02*
D03*
X-127500Y-68750D02*
D03*
X-137500D02*
D03*
X-186250Y77250D02*
D03*
X-196250D02*
D03*
X-225000Y-68984D02*
D03*
X-235000D02*
D03*
X83002Y105345D02*
D03*
X93002D02*
D03*
X83002Y117023D02*
D03*
X93002D02*
D03*
X83002Y-144654D02*
D03*
X93002D02*
D03*
X83002Y-132976D02*
D03*
X93002D02*
D03*
X-83002Y-105346D02*
D03*
X-93002D02*
D03*
X-83002Y-117024D02*
D03*
X-93002D02*
D03*
X-83002Y132976D02*
D03*
X-93002D02*
D03*
X-83002Y144654D02*
D03*
X-93002D02*
D03*
X127500Y-181250D02*
D03*
X137500D02*
D03*
X-127500Y181250D02*
D03*
X-137500D02*
D03*
X-77252Y-152846D02*
D03*
X-87252D02*
D03*
X77252Y-97154D02*
D03*
X87252D02*
D03*
X77252Y152845D02*
D03*
X87252D02*
D03*
X-77252Y97154D02*
D03*
X-87252D02*
D03*
X-87502Y-164096D02*
D03*
X-97502D02*
D03*
X87502Y-85904D02*
D03*
X97502D02*
D03*
X87502Y164095D02*
D03*
X97502D02*
D03*
X-87502Y85904D02*
D03*
X-97502D02*
D03*
X226500Y68750D02*
D03*
X216500D02*
D03*
X-196250Y244500D02*
D03*
X-186250D02*
D03*
X196250Y-77250D02*
D03*
X186250D02*
D03*
X-92998Y-128702D02*
D03*
X-82998D02*
D03*
X92998Y-121298D02*
D03*
X82998D02*
D03*
X92998Y128701D02*
D03*
X82998D02*
D03*
X-92998Y121298D02*
D03*
X-82998D02*
D03*
D24*
X169165Y-231843D02*
D03*
Y-241843D02*
D03*
X180587Y-241843D02*
D03*
Y-231843D02*
D03*
X136399Y-262715D02*
D03*
Y-272715D02*
D03*
X-186750Y113250D02*
D03*
Y123250D02*
D03*
X-176276Y-122682D02*
D03*
Y-132682D02*
D03*
X-189230Y-202358D02*
D03*
Y-192358D02*
D03*
X-110252Y-180846D02*
D03*
Y-190846D02*
D03*
X110252Y-69154D02*
D03*
Y-59154D02*
D03*
X110252Y180846D02*
D03*
Y190846D02*
D03*
X-110252Y69154D02*
D03*
Y59154D02*
D03*
X191750Y-251500D02*
D03*
Y-241500D02*
D03*
X186750Y-123250D02*
D03*
Y-113250D02*
D03*
X176276Y132681D02*
D03*
Y122681D02*
D03*
X189230Y192357D02*
D03*
Y202357D02*
D03*
D29*
X325000Y237499D02*
D03*
Y169999D02*
D03*
Y102499D02*
D03*
X-325000Y-237500D02*
D03*
Y-170000D02*
D03*
Y-102500D02*
D03*
X325000D02*
D03*
Y-170000D02*
D03*
Y-237500D02*
D03*
X-325000Y237500D02*
D03*
Y170000D02*
D03*
Y102500D02*
D03*
D30*
X90000Y325000D02*
D03*
X-87500D02*
D03*
D33*
X265000Y0D02*
D03*
X-265000D02*
D03*
D34*
X0Y260604D02*
D03*
D36*
X-237000Y-175050D02*
D03*
Y-162350D02*
D03*
Y-149650D02*
D03*
Y-136950D02*
D03*
X-291000Y-175050D02*
D03*
Y-162350D02*
D03*
Y-149650D02*
D03*
Y-136950D02*
D03*
X-237000Y-120050D02*
D03*
Y-107350D02*
D03*
Y-94650D02*
D03*
Y-81950D02*
D03*
X-291000Y-120050D02*
D03*
Y-107350D02*
D03*
Y-94650D02*
D03*
Y-81950D02*
D03*
X-237000Y-238050D02*
D03*
Y-225350D02*
D03*
Y-212650D02*
D03*
Y-199950D02*
D03*
X-291000Y-238050D02*
D03*
Y-225350D02*
D03*
Y-212650D02*
D03*
Y-199950D02*
D03*
X291000Y-183050D02*
D03*
Y-170350D02*
D03*
Y-157650D02*
D03*
Y-144950D02*
D03*
X237000Y-183050D02*
D03*
Y-170350D02*
D03*
Y-157650D02*
D03*
Y-144950D02*
D03*
X291000Y136949D02*
D03*
Y149649D02*
D03*
Y162349D02*
D03*
Y175049D02*
D03*
X237000Y136949D02*
D03*
Y149649D02*
D03*
Y162349D02*
D03*
Y175049D02*
D03*
X-291000Y183050D02*
D03*
Y170350D02*
D03*
Y157650D02*
D03*
Y144950D02*
D03*
X-237000Y183050D02*
D03*
Y170350D02*
D03*
Y157650D02*
D03*
Y144950D02*
D03*
X291000Y-238050D02*
D03*
Y-225350D02*
D03*
Y-212650D02*
D03*
Y-199950D02*
D03*
X237000Y-238050D02*
D03*
Y-225350D02*
D03*
Y-212650D02*
D03*
Y-199950D02*
D03*
X291000Y81949D02*
D03*
Y94649D02*
D03*
Y107349D02*
D03*
Y120049D02*
D03*
X237000Y81949D02*
D03*
Y94649D02*
D03*
Y107349D02*
D03*
Y120049D02*
D03*
X-291000Y238050D02*
D03*
Y225350D02*
D03*
Y212650D02*
D03*
Y199950D02*
D03*
X-237000Y238050D02*
D03*
Y225350D02*
D03*
Y212650D02*
D03*
Y199950D02*
D03*
X291000Y-128050D02*
D03*
Y-115350D02*
D03*
Y-102650D02*
D03*
Y-89950D02*
D03*
X237000Y-128050D02*
D03*
Y-115350D02*
D03*
Y-102650D02*
D03*
Y-89950D02*
D03*
X291000Y199949D02*
D03*
Y212649D02*
D03*
Y225349D02*
D03*
Y238049D02*
D03*
X237000Y199949D02*
D03*
Y212649D02*
D03*
Y225349D02*
D03*
Y238049D02*
D03*
X-291000Y128050D02*
D03*
Y115350D02*
D03*
Y102650D02*
D03*
Y89950D02*
D03*
X-237000Y128050D02*
D03*
Y115350D02*
D03*
Y102650D02*
D03*
Y89950D02*
D03*
D42*
X184659Y-286109D02*
D03*
Y-267609D02*
D03*
D43*
X137055Y-237489D02*
D03*
X155555D02*
D03*
D86*
X72898Y-229108D02*
D03*
Y-286766D02*
D03*
D87*
X149506Y-281178D02*
D03*
X159005D02*
D03*
X168504D02*
D03*
Y-257302D02*
D03*
X159004D02*
D03*
X149504D02*
D03*
D88*
X117857Y-273009D02*
D03*
Y-255309D02*
D03*
D90*
X-214450Y-156000D02*
D03*
X-173550D02*
D03*
X173550Y-164000D02*
D03*
X214450D02*
D03*
X173550Y155999D02*
D03*
X214450D02*
D03*
X-173550Y164000D02*
D03*
X-214450D02*
D03*
M02*
