G04*
G04 #@! TF.GenerationSoftware,Altium Limited,Altium Designer,19.1.7 (138)*
G04*
G04 Layer_Color=128*
%FSLAX44Y44*%
%MOMM*%
G71*
G01*
G75*
%ADD101C,0.0508*%
D101*
X257000Y272500D02*
X288000D01*
X272500Y257000D02*
Y288000D01*
X-107001Y-260001D02*
X-95001D01*
X-101001Y-266001D02*
Y-254001D01*
X96999Y-260001D02*
X104999D01*
X100999Y-264001D02*
Y-256001D01*
X257000Y-272500D02*
X288000D01*
X272500Y-288000D02*
Y-257000D01*
X-288000Y-272500D02*
X-257000D01*
X-272500Y-288000D02*
Y-257000D01*
X-288000Y272500D02*
X-257000D01*
X-272500Y257000D02*
Y288000D01*
X-129352Y-45346D02*
X-119152D01*
X-124252Y-50446D02*
Y-40246D01*
X119152Y-204654D02*
X129352D01*
X124252Y-209754D02*
Y-199554D01*
X119152Y45346D02*
X129353D01*
X124253Y40245D02*
Y50445D01*
X-129352Y204654D02*
X-119152D01*
X-124252Y199554D02*
Y209754D01*
X130897Y237099D02*
X140803D01*
X135850Y232146D02*
Y242052D01*
X141057Y287899D02*
X150963D01*
X146010Y282946D02*
Y292852D01*
X120737Y287899D02*
X130643D01*
X125690Y282946D02*
Y292852D01*
X159897Y-21100D02*
X169803D01*
X164850Y-26053D02*
Y-16147D01*
X210697Y-31260D02*
X220603D01*
X215650Y-36213D02*
Y-26307D01*
X210697Y-10940D02*
X220603D01*
X215650Y-15893D02*
Y-5987D01*
X-140803Y-237100D02*
X-130897D01*
X-135850Y-242053D02*
Y-232147D01*
X-150963Y-287900D02*
X-141057D01*
X-146010Y-292853D02*
Y-282947D01*
X-130643Y-287900D02*
X-120737D01*
X-125690Y-292853D02*
Y-282947D01*
X-170705Y27011D02*
X-160799D01*
X-165752Y22057D02*
Y31964D01*
X-221505Y37171D02*
X-211599D01*
X-216552Y32218D02*
Y42123D01*
X-221505Y16851D02*
X-211599D01*
X-216552Y11897D02*
Y21804D01*
X-160500Y-272750D02*
X-158500D01*
X-159500Y-273750D02*
Y-271750D01*
X19500Y-252376D02*
X21500D01*
X20500Y-253376D02*
Y-251376D01*
X28251Y-257263D02*
X30251D01*
X29251Y-258263D02*
Y-256263D01*
X26001Y-267513D02*
X28001D01*
X27001Y-268513D02*
Y-266513D01*
X34999Y-267501D02*
X36999D01*
X35999Y-268501D02*
Y-266501D01*
X2750Y-252262D02*
X4750D01*
X3750Y-253262D02*
Y-251262D01*
X10501Y-256763D02*
X12501D01*
X11501Y-257763D02*
Y-255763D01*
X-9000Y-295500D02*
X-7000D01*
X-8000Y-296500D02*
Y-294500D01*
X4000Y-261513D02*
X6000D01*
X5000Y-262513D02*
Y-260513D01*
X-5001Y-258502D02*
X-3001D01*
X-4001Y-259502D02*
Y-257502D01*
X-13501Y-261513D02*
X-11501D01*
X-12501Y-262513D02*
Y-260513D01*
X-21828Y-257302D02*
X-19828D01*
X-20828Y-258302D02*
Y-256302D01*
X-29001Y-252501D02*
X-27001D01*
X-28001Y-253501D02*
Y-251501D01*
X-21001Y-267501D02*
X-19001D01*
X-20001Y-268501D02*
Y-266501D01*
X108250Y-294500D02*
X110250D01*
X109250Y-295500D02*
Y-293500D01*
X-206500Y-238500D02*
X-204500D01*
X-205500Y-239500D02*
Y-237500D01*
X-217250Y-243750D02*
X-215250D01*
X-216250Y-244750D02*
Y-242750D01*
X-158750Y-279750D02*
X-156750D01*
X-157750Y-280750D02*
Y-278750D01*
X-262750Y-185500D02*
X-260750D01*
X-261750Y-186500D02*
Y-184500D01*
X-287000Y-187500D02*
X-285000D01*
X-286000Y-188500D02*
Y-186500D01*
X137430Y-204920D02*
X139430D01*
X138430Y-205920D02*
Y-203920D01*
X146574Y-244739D02*
X148574D01*
X147574Y-245739D02*
Y-243739D01*
X146467Y-237502D02*
X148467D01*
X147467Y-238502D02*
Y-236502D01*
X75500Y73500D02*
X77500D01*
X76500Y72500D02*
Y74500D01*
X139970Y-145288D02*
X141970D01*
X140970Y-146288D02*
Y-144288D01*
X18812Y166370D02*
X20812D01*
X19812Y165370D02*
Y167370D01*
X-68056Y-257302D02*
X-66056D01*
X-67056Y-258302D02*
Y-256302D01*
X-5001Y-267501D02*
X-3001D01*
X-4001Y-268501D02*
Y-266501D01*
X-41000Y280000D02*
X-39000D01*
X-40000Y279000D02*
Y281000D01*
X-41000Y260000D02*
X-39000D01*
X-40000Y259000D02*
Y261000D01*
X294402Y-36830D02*
X296402D01*
X295402Y-37830D02*
Y-35830D01*
X287290Y-36830D02*
X289290D01*
X288290Y-37830D02*
Y-35830D01*
X287290Y-43942D02*
X289290D01*
X288290Y-44942D02*
Y-42942D01*
X294402Y-43942D02*
X296402D01*
X295402Y-44942D02*
Y-42942D01*
X294402Y-51054D02*
X296402D01*
X295402Y-52054D02*
Y-50054D01*
X287290Y-51054D02*
X289290D01*
X288290Y-52054D02*
Y-50054D01*
X287290Y-58166D02*
X289290D01*
X288290Y-59166D02*
Y-57166D01*
X294402Y-58166D02*
X296402D01*
X295402Y-59166D02*
Y-57166D01*
X-103870Y35814D02*
X-101870D01*
X-102870Y34814D02*
Y36814D01*
X-109204Y40640D02*
X-107204D01*
X-108204Y39640D02*
Y41640D01*
X-141000Y-10000D02*
X-139000D01*
X-140000Y-11000D02*
Y-9000D01*
X-141000Y10000D02*
X-139000D01*
X-140000Y9000D02*
Y11000D01*
X89000Y10000D02*
X91000D01*
X90000Y9000D02*
Y11000D01*
X89000Y20000D02*
X91000D01*
X90000Y19000D02*
Y21000D01*
X79000Y20000D02*
X81000D01*
X80000Y19000D02*
Y21000D01*
X79000Y10000D02*
X81000D01*
X80000Y9000D02*
Y11000D01*
X-21000Y20000D02*
X-19000D01*
X-20000Y19000D02*
Y21000D01*
X-11000Y20000D02*
X-9000D01*
X-10000Y19000D02*
Y21000D01*
X-11000Y30000D02*
X-9000D01*
X-10000Y29000D02*
Y31000D01*
X-21000Y50000D02*
X-19000D01*
X-20000Y49000D02*
Y51000D01*
X-11000Y70000D02*
X-9000D01*
X-10000Y69000D02*
Y71000D01*
X-31000Y200000D02*
X-29000D01*
X-30000Y199000D02*
Y201000D01*
X-21000Y140000D02*
X-19000D01*
X-20000Y139000D02*
Y141000D01*
X-91000Y280000D02*
X-89000D01*
X-90000Y279000D02*
Y281000D01*
X-71000Y280000D02*
X-69000D01*
X-70000Y279000D02*
Y281000D01*
X-61000Y290000D02*
X-59000D01*
X-60000Y289000D02*
Y291000D01*
X-71000Y290000D02*
X-69000D01*
X-70000Y289000D02*
Y291000D01*
X-81000Y290000D02*
X-79000D01*
X-80000Y289000D02*
Y291000D01*
X-91000Y290000D02*
X-89000D01*
X-90000Y289000D02*
Y291000D01*
X-101000Y290000D02*
X-99000D01*
X-100000Y289000D02*
Y291000D01*
X-101000Y280000D02*
X-99000D01*
X-100000Y279000D02*
Y281000D01*
X-101000Y260000D02*
X-99000D01*
X-100000Y259000D02*
Y261000D01*
X-81000Y260000D02*
X-79000D01*
X-80000Y259000D02*
Y261000D01*
X-61000Y260000D02*
X-59000D01*
X-60000Y259000D02*
Y261000D01*
X29000Y290000D02*
X31000D01*
X30000Y289000D02*
Y291000D01*
X29000Y280000D02*
X31000D01*
X30000Y279000D02*
Y281000D01*
X29000Y260000D02*
X31000D01*
X30000Y259000D02*
Y261000D01*
X29000Y240000D02*
X31000D01*
X30000Y239000D02*
Y241000D01*
X29000Y230000D02*
X31000D01*
X30000Y229000D02*
Y231000D01*
X19000Y220000D02*
X21000D01*
X20000Y219000D02*
Y221000D01*
X9000Y220000D02*
X11000D01*
X10000Y219000D02*
Y221000D01*
X-1000Y220000D02*
X1000D01*
X0Y219000D02*
Y221000D01*
X-11000Y220000D02*
X-9000D01*
X-10000Y219000D02*
Y221000D01*
X-41000Y240000D02*
X-39000D01*
X-40000Y239000D02*
Y241000D01*
X-61000Y280000D02*
X-59000D01*
X-60000Y279000D02*
Y281000D01*
X-81000Y280000D02*
X-79000D01*
X-80000Y279000D02*
Y281000D01*
X-121396Y244856D02*
X-119396D01*
X-120396Y243856D02*
Y245856D01*
X-76692Y203708D02*
X-74692D01*
X-75692Y202708D02*
Y204708D01*
X-211000Y-270000D02*
X-209000D01*
X-210000Y-271000D02*
Y-269000D01*
X-111000Y-290000D02*
X-109000D01*
X-110000Y-291000D02*
Y-289000D01*
X19000Y-30000D02*
X21000D01*
X20000Y-31000D02*
Y-29000D01*
X-11000Y40000D02*
X-9000D01*
X-10000Y39000D02*
Y41000D01*
X-11000Y60000D02*
X-9000D01*
X-10000Y59000D02*
Y61000D01*
X-31000Y250000D02*
X-29000D01*
X-30000Y249000D02*
Y251000D01*
X-51000Y270000D02*
X-49000D01*
X-50000Y269000D02*
Y271000D01*
X-31000Y270000D02*
X-29000D01*
X-30000Y269000D02*
Y271000D01*
X-31000Y290000D02*
X-29000D01*
X-30000Y289000D02*
Y291000D01*
X-51000Y290000D02*
X-49000D01*
X-50000Y289000D02*
Y291000D01*
X69000Y230000D02*
X71000D01*
X70000Y229000D02*
Y231000D01*
X49000Y230000D02*
X51000D01*
X50000Y229000D02*
Y231000D01*
X49000Y250000D02*
X51000D01*
X50000Y249000D02*
Y251000D01*
X49000Y270000D02*
X51000D01*
X50000Y269000D02*
Y271000D01*
X49000Y290000D02*
X51000D01*
X50000Y289000D02*
Y291000D01*
X69000Y290000D02*
X71000D01*
X70000Y289000D02*
Y291000D01*
X89000Y290000D02*
X91000D01*
X90000Y289000D02*
Y291000D01*
X109000Y290000D02*
X111000D01*
X110000Y289000D02*
Y291000D01*
X109000Y270000D02*
X111000D01*
X110000Y269000D02*
Y271000D01*
X89000Y270000D02*
X91000D01*
X90000Y269000D02*
Y271000D01*
X69000Y270000D02*
X71000D01*
X70000Y269000D02*
Y271000D01*
X69000Y250000D02*
X71000D01*
X70000Y249000D02*
Y251000D01*
X89000Y250000D02*
X91000D01*
X90000Y249000D02*
Y251000D01*
X109000Y250000D02*
X111000D01*
X110000Y249000D02*
Y251000D01*
X149000Y230000D02*
X151000D01*
X150000Y229000D02*
Y231000D01*
X285004Y72898D02*
X287004D01*
X286004Y71898D02*
Y73898D01*
X292370Y51562D02*
X294370D01*
X293370Y50562D02*
Y52562D01*
X284750Y51562D02*
X286750D01*
X285750Y50562D02*
Y52562D01*
X291500Y30000D02*
X293500D01*
X292500Y29000D02*
Y31000D01*
X284000Y30000D02*
X286000D01*
X285000Y29000D02*
Y31000D01*
X221500Y40000D02*
X223500D01*
X222500Y39000D02*
Y41000D01*
X214000Y40000D02*
X216000D01*
X215000Y39000D02*
Y41000D01*
X199000Y0D02*
X201000D01*
X200000Y-1000D02*
Y1000D01*
X149000Y-10000D02*
X151000D01*
X150000Y-11000D02*
Y-9000D01*
X129000Y-10000D02*
X131000D01*
X130000Y-11000D02*
Y-9000D01*
X109000Y-10000D02*
X111000D01*
X110000Y-11000D02*
Y-9000D01*
X139000Y10000D02*
X141000D01*
X140000Y9000D02*
Y11000D01*
X89000Y-10000D02*
X91000D01*
X90000Y-11000D02*
Y-9000D01*
X99000Y10000D02*
X101000D01*
X100000Y9000D02*
Y11000D01*
X99000Y20000D02*
X101000D01*
X100000Y19000D02*
Y21000D01*
X69000Y20000D02*
X71000D01*
X70000Y19000D02*
Y21000D01*
X-11000Y140000D02*
X-9000D01*
X-10000Y139000D02*
Y141000D01*
X-11000Y90000D02*
X-9000D01*
X-10000Y89000D02*
Y91000D01*
X-21000Y30000D02*
X-19000D01*
X-20000Y29000D02*
Y31000D01*
X-91000Y10000D02*
X-89000D01*
X-90000Y9000D02*
Y11000D01*
X-121000Y-10000D02*
X-119000D01*
X-120000Y-11000D02*
Y-9000D01*
X-161000Y-20000D02*
X-159000D01*
X-160000Y-21000D02*
Y-19000D01*
X-131000Y0D02*
X-129000D01*
X-130000Y-1000D02*
Y1000D01*
X-161000Y10000D02*
X-159000D01*
X-160000Y9000D02*
Y11000D01*
X-181000Y10000D02*
X-179000D01*
X-180000Y9000D02*
Y11000D01*
X-201000Y10000D02*
X-199000D01*
X-200000Y9000D02*
Y11000D01*
X244500Y-293500D02*
X246500D01*
X245500Y-294500D02*
Y-292500D01*
X244500Y-286000D02*
X246500D01*
X245500Y-287000D02*
Y-285000D01*
X244500Y-278500D02*
X246500D01*
X245500Y-279500D02*
Y-277500D01*
X237000Y-278500D02*
X239000D01*
X238000Y-279500D02*
Y-277500D01*
X229500Y-278500D02*
X231500D01*
X230500Y-279500D02*
Y-277500D01*
X222000Y-278500D02*
X224000D01*
X223000Y-279500D02*
Y-277500D01*
X214500Y-278500D02*
X216500D01*
X215500Y-279500D02*
Y-277500D01*
X207000Y-278500D02*
X209000D01*
X208000Y-279500D02*
Y-277500D01*
X-12751Y-164008D02*
X-10751D01*
X-11751Y-165008D02*
Y-163008D01*
X-1000Y-184250D02*
X1000D01*
X0Y-185250D02*
Y-183250D01*
X-21250Y-198616D02*
X-19250D01*
X-20250Y-199616D02*
Y-197616D01*
X-113000Y-40500D02*
X-111000D01*
X-112000Y-41500D02*
Y-39500D01*
X136250Y-18250D02*
X138250D01*
X137250Y-19250D02*
Y-17250D01*
X160000Y245250D02*
X162000D01*
X161000Y244250D02*
Y246250D01*
X7500Y196500D02*
X9500D01*
X8500Y195500D02*
Y197500D01*
X-112750Y207500D02*
X-110750D01*
X-111750Y206500D02*
Y208500D01*
X-81404Y171654D02*
X-79404D01*
X-80404Y170654D02*
Y172654D01*
X-143000Y145750D02*
X-141000D01*
X-142000Y144750D02*
Y146750D01*
X-139257Y138507D02*
X-137257D01*
X-138257Y137507D02*
Y139507D01*
X-139523Y108780D02*
X-137523D01*
X-138523Y107780D02*
Y109780D01*
X-139523Y98780D02*
X-137523D01*
X-138523Y97780D02*
Y99780D01*
X-129523Y98780D02*
X-127523D01*
X-128523Y97780D02*
Y99780D01*
X-139523Y118780D02*
X-137523D01*
X-138523Y117780D02*
Y119780D01*
X-139523Y128780D02*
X-137523D01*
X-138523Y127780D02*
Y129780D01*
X-129523Y138780D02*
X-127523D01*
X-128523Y137780D02*
Y139780D01*
X-119523Y138780D02*
X-117523D01*
X-118523Y137780D02*
Y139780D01*
X-109523Y138780D02*
X-107523D01*
X-108523Y137780D02*
Y139780D01*
X141250Y104750D02*
X143250D01*
X142250Y103750D02*
Y105750D01*
X137257Y111505D02*
X139257D01*
X138257Y110505D02*
Y112505D01*
X137523Y141220D02*
X139523D01*
X138523Y140220D02*
Y142220D01*
X137523Y151220D02*
X139523D01*
X138523Y150220D02*
Y152220D01*
X127523Y151220D02*
X129523D01*
X128523Y150220D02*
Y152220D01*
X137523Y131220D02*
X139523D01*
X138523Y130220D02*
Y132220D01*
X137523Y121220D02*
X139523D01*
X138523Y120220D02*
Y122220D01*
X127523Y111220D02*
X129523D01*
X128523Y110220D02*
Y112220D01*
X117523Y111220D02*
X119523D01*
X118523Y110220D02*
Y112220D01*
X107523Y111220D02*
X109523D01*
X108523Y110220D02*
Y112220D01*
X98502Y-143154D02*
X100502D01*
X99502Y-144154D02*
Y-142154D01*
X137523Y-108779D02*
X139523D01*
X138523Y-109780D02*
Y-107780D01*
X137523Y-98779D02*
X139523D01*
X138523Y-99780D02*
Y-97780D01*
X127523Y-98779D02*
X129523D01*
X128523Y-99780D02*
Y-97780D01*
X137523Y-118779D02*
X139523D01*
X138523Y-119780D02*
Y-117780D01*
X137523Y-128779D02*
X139523D01*
X138523Y-129780D02*
Y-127780D01*
X137523Y-138526D02*
X139523D01*
X138523Y-139526D02*
Y-137526D01*
X127523Y-138780D02*
X129523D01*
X128523Y-139780D02*
Y-137780D01*
X117523Y-138780D02*
X119523D01*
X118523Y-139780D02*
Y-137780D01*
X107523Y-138780D02*
X109523D01*
X108523Y-139780D02*
Y-137780D01*
X189000Y242250D02*
X191000D01*
X190000Y241250D02*
Y243250D01*
X183042Y216829D02*
X185042D01*
X184042Y215829D02*
Y217829D01*
X190042Y216829D02*
X192042D01*
X191042Y215829D02*
Y217829D01*
X183042Y238329D02*
X185042D01*
X184042Y237329D02*
Y239329D01*
X183042Y223829D02*
X185042D01*
X184042Y222829D02*
Y224829D01*
X183042Y231329D02*
X185042D01*
X184042Y230329D02*
Y232329D01*
X210000Y239500D02*
X212000D01*
X211000Y238500D02*
Y240500D01*
X190042Y223829D02*
X192042D01*
X191042Y222829D02*
Y224829D01*
X190042Y231329D02*
X192042D01*
X191042Y230329D02*
Y232329D01*
X195292Y237829D02*
X197292D01*
X196292Y236829D02*
Y238829D01*
X202792Y237829D02*
X204792D01*
X203792Y236829D02*
Y238829D01*
X219000Y270000D02*
X221000D01*
X220000Y269000D02*
Y271000D01*
X249000Y292500D02*
X251000D01*
X250000Y291500D02*
Y293500D01*
X219000Y292500D02*
X221000D01*
X220000Y291500D02*
Y293500D01*
X244196Y285800D02*
X246196D01*
X245196Y284800D02*
Y286800D01*
X244196Y278300D02*
X246196D01*
X245196Y277300D02*
Y279300D01*
X230196Y292800D02*
X232196D01*
X231196Y291800D02*
Y293800D01*
X237696Y292800D02*
X239696D01*
X238696Y291800D02*
Y293800D01*
X223196Y278800D02*
X225196D01*
X224196Y277800D02*
Y279800D01*
X223196Y286300D02*
X225196D01*
X224196Y285300D02*
Y287300D01*
X-176000Y265000D02*
X-174000D01*
X-175000Y264000D02*
Y266000D01*
X-183500Y265000D02*
X-181500D01*
X-182500Y264000D02*
Y266000D01*
X-176000Y272500D02*
X-174000D01*
X-175000Y271500D02*
Y273500D01*
X-183500Y272500D02*
X-181500D01*
X-182500Y271500D02*
Y273500D01*
X-178500Y295000D02*
X-176500D01*
X-177500Y294000D02*
Y296000D01*
X-178500Y287500D02*
X-176500D01*
X-177500Y286500D02*
Y288500D01*
X-178500Y280000D02*
X-176500D01*
X-177500Y279000D02*
Y281000D01*
X-186000Y280000D02*
X-184000D01*
X-185000Y279000D02*
Y281000D01*
X-186000Y287500D02*
X-184000D01*
X-185000Y286500D02*
Y288500D01*
X-186000Y295000D02*
X-184000D01*
X-185000Y294000D02*
Y296000D01*
X-246000Y277500D02*
X-244000D01*
X-245000Y276500D02*
Y278500D01*
X-248500Y287500D02*
X-246500D01*
X-247500Y286500D02*
Y288500D01*
X-248500Y295000D02*
X-246500D01*
X-247500Y294000D02*
Y296000D01*
X-207250Y279250D02*
X-205250D01*
X-206250Y278250D02*
Y280250D01*
X-227000Y279250D02*
X-225000D01*
X-226000Y278250D02*
Y280250D01*
X189000Y-258750D02*
X191000D01*
X190000Y-259750D02*
Y-257750D01*
X182250Y-256750D02*
X184250D01*
X183250Y-257750D02*
Y-255750D01*
X175250Y-256750D02*
X177250D01*
X176250Y-257750D02*
Y-255750D01*
X-206750Y-61250D02*
X-204750D01*
X-205750Y-62250D02*
Y-60250D01*
X-215250Y-60750D02*
X-213250D01*
X-214250Y-61750D02*
Y-59750D01*
X-222750Y-60750D02*
X-220750D01*
X-221750Y-61750D02*
Y-59750D01*
X-214750Y-39750D02*
X-212750D01*
X-213750Y-40750D02*
Y-38750D01*
X-222250Y-39750D02*
X-220250D01*
X-221250Y-40750D02*
Y-38750D01*
X-290250Y-24000D02*
X-288250D01*
X-289250Y-25000D02*
Y-23000D01*
X-286250Y-29750D02*
X-284250D01*
X-285250Y-30750D02*
Y-28750D01*
X-294250Y-29750D02*
X-292250D01*
X-293250Y-30750D02*
Y-28750D01*
X-293750Y-52000D02*
X-291750D01*
X-292750Y-53000D02*
Y-51000D01*
X-286250Y-52000D02*
X-284250D01*
X-285250Y-53000D02*
Y-51000D01*
X-287000Y27500D02*
X-285000D01*
X-286000Y26500D02*
Y28500D01*
X-294500Y27500D02*
X-292500D01*
X-293500Y26500D02*
Y28500D01*
X-287000Y35000D02*
X-285000D01*
X-286000Y34000D02*
Y36000D01*
X-294500Y35000D02*
X-292500D01*
X-293500Y34000D02*
Y36000D01*
X-287000Y42500D02*
X-285000D01*
X-286000Y41500D02*
Y43500D01*
X-294500Y42500D02*
X-292500D01*
X-293500Y41500D02*
Y43500D01*
X-294500Y50000D02*
X-292500D01*
X-293500Y49000D02*
Y51000D01*
X-287000Y50000D02*
X-285000D01*
X-286000Y49000D02*
Y51000D01*
X-287000Y57500D02*
X-285000D01*
X-286000Y56500D02*
Y58500D01*
X-294500Y57500D02*
X-292500D01*
X-293500Y56500D02*
Y58500D01*
X-186000Y52500D02*
X-184000D01*
X-185000Y51500D02*
Y53500D01*
X-193500Y52500D02*
X-191500D01*
X-192500Y51500D02*
Y53500D01*
X-201000Y45000D02*
X-199000D01*
X-200000Y44000D02*
Y46000D01*
X-201000Y52500D02*
X-199000D01*
X-200000Y51500D02*
Y53500D01*
X-201000Y60000D02*
X-199000D01*
X-200000Y59000D02*
Y61000D01*
X-206000Y77500D02*
X-204000D01*
X-205000Y76500D02*
Y78500D01*
X-208500Y67500D02*
X-206500D01*
X-207500Y66500D02*
Y68500D01*
X-208500Y60000D02*
X-206500D01*
X-207500Y59000D02*
Y61000D01*
X-208500Y52500D02*
X-206500D01*
X-207500Y51500D02*
Y53500D01*
X-208500Y45000D02*
X-206500D01*
X-207500Y44000D02*
Y46000D01*
X-223500Y-30000D02*
X-221500D01*
X-222500Y-31000D02*
Y-29000D01*
X-216000Y-22500D02*
X-214000D01*
X-215000Y-23500D02*
Y-21500D01*
X-223500Y-22500D02*
X-221500D01*
X-222500Y-23500D02*
Y-21500D01*
X-216000Y-15000D02*
X-214000D01*
X-215000Y-16000D02*
Y-14000D01*
X-216000Y-7500D02*
X-214000D01*
X-215000Y-8500D02*
Y-6500D01*
X-223500Y7500D02*
X-221500D01*
X-222500Y6500D02*
Y8500D01*
X-216000Y0D02*
X-214000D01*
X-215000Y-1000D02*
Y1000D01*
X-223500Y-7500D02*
X-221500D01*
X-222500Y-8500D02*
Y-6500D01*
X-223500Y-15000D02*
X-221500D01*
X-222500Y-16000D02*
Y-14000D01*
X-223500Y0D02*
X-221500D01*
X-222500Y-1000D02*
Y1000D01*
X214000Y0D02*
X216000D01*
X215000Y-1000D02*
Y1000D01*
X214000Y15000D02*
X216000D01*
X215000Y14000D02*
Y16000D01*
X214000Y7500D02*
X216000D01*
X215000Y6500D02*
Y8500D01*
X221500Y15000D02*
X223500D01*
X222500Y14000D02*
Y16000D01*
X221500Y0D02*
X223500D01*
X222500Y-1000D02*
Y1000D01*
X221500Y7500D02*
X223500D01*
X222500Y6500D02*
Y8500D01*
X229000Y7500D02*
X231000D01*
X230000Y6500D02*
Y8500D01*
X229000Y-7500D02*
X231000D01*
X230000Y-8500D02*
Y-6500D01*
X191398Y-42430D02*
X193398D01*
X192398Y-43430D02*
Y-41430D01*
X191398Y-49930D02*
X193398D01*
X192398Y-50930D02*
Y-48930D01*
X198898Y-57430D02*
X200898D01*
X199898Y-58430D02*
Y-56430D01*
X198898Y-49930D02*
X200898D01*
X199898Y-50930D02*
Y-48930D01*
X198898Y-42430D02*
X200898D01*
X199898Y-43430D02*
Y-41430D01*
X206398Y-57430D02*
X208398D01*
X207398Y-58430D02*
Y-56430D01*
X206398Y-49930D02*
X208398D01*
X207398Y-50930D02*
Y-48930D01*
X206398Y-64430D02*
X208398D01*
X207398Y-65430D02*
Y-63430D01*
X206398Y-42430D02*
X208398D01*
X207398Y-43430D02*
Y-41430D01*
X213898Y-42430D02*
X215898D01*
X214898Y-43430D02*
Y-41430D01*
X221398Y-42430D02*
X223398D01*
X222398Y-43430D02*
Y-41430D01*
X-246000Y-270000D02*
X-244000D01*
X-245000Y-271000D02*
Y-269000D01*
X-246000Y-277500D02*
X-244000D01*
X-245000Y-278500D02*
Y-276500D01*
X-246000Y-285000D02*
X-244000D01*
X-245000Y-286000D02*
Y-284000D01*
X-238500Y-282500D02*
X-236500D01*
X-237500Y-283500D02*
Y-281500D01*
X-231000Y-282500D02*
X-229000D01*
X-230000Y-283500D02*
Y-281500D01*
X-223500Y-285000D02*
X-221500D01*
X-222500Y-286000D02*
Y-284000D01*
X-223500Y-277500D02*
X-221500D01*
X-222500Y-278500D02*
Y-276500D01*
X-223500Y-270000D02*
X-221500D01*
X-222500Y-271000D02*
Y-269000D01*
X-183500Y-240000D02*
X-181500D01*
X-182500Y-241000D02*
Y-239000D01*
X-198500Y-240000D02*
X-196500D01*
X-197500Y-241000D02*
Y-239000D01*
X-191000Y-240000D02*
X-189000D01*
X-190000Y-241000D02*
Y-239000D01*
X-183500Y-232500D02*
X-181500D01*
X-182500Y-233500D02*
Y-231500D01*
X-191000Y-232500D02*
X-189000D01*
X-190000Y-233500D02*
Y-231500D01*
X-183500Y-225000D02*
X-181500D01*
X-182500Y-226000D02*
Y-224000D01*
X-191000Y-225000D02*
X-189000D01*
X-190000Y-226000D02*
Y-224000D01*
X-183500Y-217500D02*
X-181500D01*
X-182500Y-218500D02*
Y-216500D01*
X-191000Y-217500D02*
X-189000D01*
X-190000Y-218500D02*
Y-216500D01*
X-191000Y-210000D02*
X-189000D01*
X-190000Y-211000D02*
Y-209000D01*
X-109523Y-111220D02*
X-107523D01*
X-108523Y-112220D02*
Y-110220D01*
X-119523Y-111220D02*
X-117523D01*
X-118523Y-112220D02*
Y-110220D01*
X-129523Y-111220D02*
X-127523D01*
X-128523Y-112220D02*
Y-110220D01*
X-143500Y-105000D02*
X-141500D01*
X-142500Y-106000D02*
Y-104000D01*
X-139523Y-111220D02*
X-137523D01*
X-138523Y-112220D02*
Y-110220D01*
X-139523Y-121220D02*
X-137523D01*
X-138523Y-122220D02*
Y-120220D01*
X-139523Y-131220D02*
X-137523D01*
X-138523Y-132220D02*
Y-130220D01*
X-129523Y-151220D02*
X-127523D01*
X-128523Y-152220D02*
Y-150220D01*
X-139523Y-151220D02*
X-137523D01*
X-138523Y-152220D02*
Y-150220D01*
X-139523Y-141220D02*
X-137523D01*
X-138523Y-142220D02*
Y-140220D01*
X-80750Y209500D02*
X-78750D01*
X-79750Y208500D02*
Y210500D01*
X73500Y38500D02*
X75500D01*
X74500Y37500D02*
Y39500D01*
X-87250Y-40500D02*
X-85250D01*
X-86250Y-41500D02*
Y-39500D01*
X111750Y-208250D02*
X113750D01*
X112750Y-209250D02*
Y-207250D01*
X97250Y-226500D02*
X99250D01*
X98250Y-227500D02*
Y-225500D01*
X-186250Y252250D02*
X-184250D01*
X-185250Y251250D02*
Y253250D01*
X-193750Y228000D02*
X-191750D01*
X-192750Y227000D02*
Y229000D01*
X-166000Y232500D02*
X-164000D01*
X-165000Y231500D02*
Y233500D01*
X192802Y-226822D02*
X194802D01*
X193802Y-227822D02*
Y-225822D01*
X254000Y-247500D02*
X256000D01*
X255000Y-248500D02*
Y-246500D01*
X241500Y-260000D02*
X243500D01*
X242500Y-261000D02*
Y-259000D01*
X246500Y-252500D02*
X248500D01*
X247500Y-253500D02*
Y-251500D01*
X201500Y-252500D02*
X203500D01*
X202500Y-253500D02*
Y-251500D01*
X209000Y-252500D02*
X211000D01*
X210000Y-253500D02*
Y-251500D01*
X216500Y-252500D02*
X218500D01*
X217500Y-253500D02*
Y-251500D01*
X224000Y-252500D02*
X226000D01*
X225000Y-253500D02*
Y-251500D01*
X231500Y-252500D02*
X233500D01*
X232500Y-253500D02*
Y-251500D01*
X239000Y-252500D02*
X241000D01*
X240000Y-253500D02*
Y-251500D01*
X234000Y-260000D02*
X236000D01*
X235000Y-261000D02*
Y-259000D01*
X226500Y-260000D02*
X228500D01*
X227500Y-261000D02*
Y-259000D01*
X219000Y-260000D02*
X221000D01*
X220000Y-261000D02*
Y-259000D01*
X211500Y-260000D02*
X213500D01*
X212500Y-261000D02*
Y-259000D01*
X204000Y-260000D02*
X206000D01*
X205000Y-261000D02*
Y-259000D01*
X196500Y-260000D02*
X198500D01*
X197500Y-261000D02*
Y-259000D01*
X261750Y-191750D02*
X263750D01*
X262750Y-192750D02*
Y-190750D01*
X253500Y-192000D02*
X255500D01*
X254500Y-193000D02*
Y-191000D01*
X237750Y65500D02*
X239750D01*
X238750Y64500D02*
Y66500D01*
X248250Y128250D02*
X250250D01*
X249250Y127250D02*
Y129250D01*
X241250Y128250D02*
X243250D01*
X242250Y127250D02*
Y129250D01*
X249000Y247500D02*
X251000D01*
X250000Y246500D02*
Y248500D01*
X241500Y252500D02*
X243500D01*
X242500Y251500D02*
Y253500D01*
X231500Y245000D02*
X233500D01*
X232500Y244000D02*
Y246000D01*
X234000Y252500D02*
X236000D01*
X235000Y251500D02*
Y253500D01*
X226500Y252500D02*
X228500D01*
X227500Y251500D02*
Y253500D01*
X219000Y252500D02*
X221000D01*
X220000Y251500D02*
Y253500D01*
X224000Y245000D02*
X226000D01*
X225000Y244000D02*
Y246000D01*
X216500Y245000D02*
X218500D01*
X217500Y244000D02*
Y246000D01*
X248500Y187250D02*
X250500D01*
X249500Y186250D02*
Y188250D01*
X245500Y47000D02*
X247500D01*
X246500Y46000D02*
Y48000D01*
X253000Y47000D02*
X255000D01*
X254000Y46000D02*
Y48000D01*
X260500Y47000D02*
X262500D01*
X261500Y46000D02*
Y48000D01*
X260500Y54500D02*
X262500D01*
X261500Y53500D02*
Y55500D01*
X253000Y54500D02*
X255000D01*
X254000Y53500D02*
Y55500D01*
X245500Y54500D02*
X247500D01*
X246500Y53500D02*
Y55500D01*
X245500Y62000D02*
X247500D01*
X246500Y61000D02*
Y63000D01*
X253000Y62000D02*
X255000D01*
X254000Y61000D02*
Y63000D01*
X260500Y62000D02*
X262500D01*
X261500Y61000D02*
Y63000D01*
X260500Y69500D02*
X262500D01*
X261500Y68500D02*
Y70500D01*
X253000Y69500D02*
X255000D01*
X254000Y68500D02*
Y70500D01*
X245500Y69500D02*
X247500D01*
X246500Y68500D02*
Y70500D01*
X207000Y70000D02*
X209000D01*
X208000Y69000D02*
Y71000D01*
X245250Y-79250D02*
X247250D01*
X246250Y-80250D02*
Y-78250D01*
X252750Y-79250D02*
X254750D01*
X253750Y-80250D02*
Y-78250D01*
X260250Y-79250D02*
X262250D01*
X261250Y-80250D02*
Y-78250D01*
X260250Y-71750D02*
X262250D01*
X261250Y-72750D02*
Y-70750D01*
X252750Y-71750D02*
X254750D01*
X253750Y-72750D02*
Y-70750D01*
X245250Y-71750D02*
X247250D01*
X246250Y-72750D02*
Y-70750D01*
X245250Y-64250D02*
X247250D01*
X246250Y-65250D02*
Y-63250D01*
X252750Y-64250D02*
X254750D01*
X253750Y-65250D02*
Y-63250D01*
X260250Y-64250D02*
X262250D01*
X261250Y-65250D02*
Y-63250D01*
X260250Y-56750D02*
X262250D01*
X261250Y-57750D02*
Y-55750D01*
X252750Y-56750D02*
X254750D01*
X253750Y-57750D02*
Y-55750D01*
X245250Y-56750D02*
X247250D01*
X246250Y-57750D02*
Y-55750D01*
X269000Y-25000D02*
X271000D01*
X270000Y-26000D02*
Y-24000D01*
X254000Y-25000D02*
X256000D01*
X255000Y-26000D02*
Y-24000D01*
X239000Y-25000D02*
X241000D01*
X240000Y-26000D02*
Y-24000D01*
X229000Y-15000D02*
X231000D01*
X230000Y-16000D02*
Y-14000D01*
X229000Y0D02*
X231000D01*
X230000Y-1000D02*
Y1000D01*
X229000Y15000D02*
X231000D01*
X230000Y14000D02*
Y16000D01*
X239000Y25000D02*
X241000D01*
X240000Y24000D02*
Y26000D01*
X254000Y25000D02*
X256000D01*
X255000Y24000D02*
Y26000D01*
X269000Y25000D02*
X271000D01*
X270000Y24000D02*
Y26000D01*
X-223000Y-256250D02*
X-221000D01*
X-222000Y-257250D02*
Y-255250D01*
X-237500Y-183000D02*
X-235500D01*
X-236500Y-184000D02*
Y-182000D01*
X-249750Y-184750D02*
X-247750D01*
X-248750Y-185750D02*
Y-183750D01*
X-258000Y-191750D02*
X-256000D01*
X-257000Y-192750D02*
Y-190750D01*
X-250875Y-191750D02*
X-248875D01*
X-249875Y-192750D02*
Y-190750D01*
X-243750Y-191750D02*
X-241750D01*
X-242750Y-192750D02*
Y-190750D01*
X-243750Y-128750D02*
X-241750D01*
X-242750Y-129750D02*
Y-127750D01*
X-250875Y-128750D02*
X-248875D01*
X-249875Y-129750D02*
Y-127750D01*
X-258000Y-128750D02*
X-256000D01*
X-257000Y-129750D02*
Y-127750D01*
X-253500Y-247500D02*
X-251500D01*
X-252500Y-248500D02*
Y-246500D01*
X-246000Y-255000D02*
X-244000D01*
X-245000Y-256000D02*
Y-254000D01*
X-223500Y-247500D02*
X-221500D01*
X-222500Y-248500D02*
Y-246500D01*
X-263500Y-47500D02*
X-261500D01*
X-262500Y-48500D02*
Y-46500D01*
X-256000Y-47500D02*
X-254000D01*
X-255000Y-48500D02*
Y-46500D01*
X-248500Y-47500D02*
X-246500D01*
X-247500Y-48500D02*
Y-46500D01*
X-248500Y-55000D02*
X-246500D01*
X-247500Y-56000D02*
Y-54000D01*
X-256000Y-55000D02*
X-254000D01*
X-255000Y-56000D02*
Y-54000D01*
X-263500Y-55000D02*
X-261500D01*
X-262500Y-56000D02*
Y-54000D01*
X-263500Y-62500D02*
X-261500D01*
X-262500Y-63500D02*
Y-61500D01*
X-256000Y-62500D02*
X-254000D01*
X-255000Y-63500D02*
Y-61500D01*
X-248500Y-62500D02*
X-246500D01*
X-247500Y-63500D02*
Y-61500D01*
X-248500Y-70000D02*
X-246500D01*
X-247500Y-71000D02*
Y-69000D01*
X-256000Y-70000D02*
X-254000D01*
X-255000Y-71000D02*
Y-69000D01*
X-263500Y-70000D02*
X-261500D01*
X-262500Y-71000D02*
Y-69000D01*
X-271000Y-25000D02*
X-269000D01*
X-270000Y-26000D02*
Y-24000D01*
X-256000Y-25000D02*
X-254000D01*
X-255000Y-26000D02*
Y-24000D01*
X-241000Y-25000D02*
X-239000D01*
X-240000Y-26000D02*
Y-24000D01*
X-231000Y-15000D02*
X-229000D01*
X-230000Y-16000D02*
Y-14000D01*
X-231000Y0D02*
X-229000D01*
X-230000Y-1000D02*
Y1000D01*
X-231000Y15000D02*
X-229000D01*
X-230000Y14000D02*
Y16000D01*
X-241000Y25000D02*
X-239000D01*
X-240000Y24000D02*
Y26000D01*
X-256000Y25000D02*
X-254000D01*
X-255000Y24000D02*
Y26000D01*
X-271000Y25000D02*
X-269000D01*
X-270000Y24000D02*
Y26000D01*
X-278500Y55000D02*
X-276500D01*
X-277500Y54000D02*
Y56000D01*
X-271000Y55000D02*
X-269000D01*
X-270000Y54000D02*
Y56000D01*
X-263500Y55000D02*
X-261500D01*
X-262500Y54000D02*
Y56000D01*
X-256000Y55000D02*
X-254000D01*
X-255000Y54000D02*
Y56000D01*
X-248500Y55000D02*
X-246500D01*
X-247500Y54000D02*
Y56000D01*
X-248500Y62500D02*
X-246500D01*
X-247500Y61500D02*
Y63500D01*
X-256000Y62500D02*
X-254000D01*
X-255000Y61500D02*
Y63500D01*
X-263500Y62500D02*
X-261500D01*
X-262500Y61500D02*
Y63500D01*
X-263500Y70000D02*
X-261500D01*
X-262500Y69000D02*
Y71000D01*
X-256000Y70000D02*
X-254000D01*
X-255000Y69000D02*
Y71000D01*
X-248500Y70000D02*
X-246500D01*
X-247500Y69000D02*
Y71000D01*
X-248500Y77500D02*
X-246500D01*
X-247500Y76500D02*
Y78500D01*
X-256000Y77500D02*
X-254000D01*
X-255000Y76500D02*
Y78500D01*
X-263500Y77500D02*
X-261500D01*
X-262500Y76500D02*
Y78500D01*
X-201000Y260000D02*
X-199000D01*
X-200000Y259000D02*
Y261000D01*
X-206000Y255000D02*
X-204000D01*
X-205000Y254000D02*
Y256000D01*
X-211000Y250000D02*
X-209000D01*
X-210000Y249000D02*
Y251000D01*
X-216000Y255000D02*
X-214000D01*
X-215000Y254000D02*
Y256000D01*
X-221000Y250000D02*
X-219000D01*
X-220000Y249000D02*
Y251000D01*
X-211000Y260000D02*
X-209000D01*
X-210000Y259000D02*
Y261000D01*
X-221000Y260000D02*
X-219000D01*
X-220000Y259000D02*
Y261000D01*
X-226000Y255000D02*
X-224000D01*
X-225000Y254000D02*
Y256000D01*
X-231000Y250000D02*
X-229000D01*
X-230000Y249000D02*
Y251000D01*
X-241000Y250000D02*
X-239000D01*
X-240000Y249000D02*
Y251000D01*
X-231000Y260000D02*
X-229000D01*
X-230000Y259000D02*
Y261000D01*
X-236000Y255000D02*
X-234000D01*
X-235000Y254000D02*
Y256000D01*
X-241000Y260000D02*
X-239000D01*
X-240000Y259000D02*
Y261000D01*
X14501Y-262513D02*
X16501D01*
X15501Y-263513D02*
Y-261513D01*
X-42750Y201500D02*
X-40750D01*
X-41750Y200500D02*
Y202500D01*
X-16250Y5750D02*
X-14250D01*
X-15250Y4750D02*
Y6750D01*
X-44250Y-17500D02*
X-42250D01*
X-43250Y-18500D02*
Y-16500D01*
X-92750Y181500D02*
X-90750D01*
X-91750Y180500D02*
Y182500D01*
X-100000Y135250D02*
X-98000D01*
X-99000Y134250D02*
Y136250D01*
X-112250Y164438D02*
X-110250D01*
X-111250Y163438D02*
Y165438D01*
X-80282Y61434D02*
X-78282D01*
X-79282Y60434D02*
Y62434D01*
X-40750Y21750D02*
X-38750D01*
X-39750Y20750D02*
Y22750D01*
X-22250Y-5000D02*
X-20250D01*
X-21250Y-6000D02*
Y-4000D01*
X-40500Y-5000D02*
X-38500D01*
X-39500Y-6000D02*
Y-4000D01*
X-149757Y38752D02*
X-147757D01*
X-148757Y37752D02*
Y39752D01*
X-39908Y5750D02*
X-37908D01*
X-38908Y4750D02*
Y6750D01*
X-75000Y-260750D02*
X-73000D01*
X-74000Y-261750D02*
Y-259750D01*
X-75250Y-251500D02*
X-73250D01*
X-74250Y-252500D02*
Y-250500D01*
X-46500Y-127500D02*
X-44500D01*
X-45500Y-128500D02*
Y-126500D01*
X-39250Y-126750D02*
X-37250D01*
X-38250Y-127750D02*
Y-125750D01*
X23428Y-224334D02*
X25428D01*
X24428Y-225334D02*
Y-223334D01*
X23500Y-110500D02*
X25500D01*
X24500Y-111500D02*
Y-109500D01*
X44750Y-121750D02*
X46750D01*
X45750Y-122750D02*
Y-120750D01*
X37250Y-121500D02*
X39250D01*
X38250Y-122500D02*
Y-120500D01*
X148380Y196038D02*
X150380D01*
X149380Y195037D02*
Y197038D01*
X29500Y-2250D02*
X31500D01*
X30500Y-3250D02*
Y-1250D01*
X11861Y163321D02*
X13861D01*
X12861Y162321D02*
Y164321D01*
X5564Y157025D02*
X7564D01*
X6564Y156025D02*
Y158025D01*
X48500Y-31000D02*
X50500D01*
X49500Y-32000D02*
Y-30000D01*
X123000Y16675D02*
X125000D01*
X124000Y15675D02*
Y17675D01*
X143507Y48752D02*
X145507D01*
X144507Y47752D02*
Y49752D01*
X139007Y41502D02*
X141007D01*
X140007Y40502D02*
Y42502D01*
X17502Y-99154D02*
X19502D01*
X18502Y-100154D02*
Y-98154D01*
X47250Y-22500D02*
X49250D01*
X48250Y-23500D02*
Y-21500D01*
X-13751Y-88504D02*
X-11751D01*
X-12751Y-89504D02*
Y-87504D01*
X-21751Y-182509D02*
X-19751D01*
X-20751Y-183509D02*
Y-181509D01*
X-27001Y-139007D02*
X-25001D01*
X-26001Y-140007D02*
Y-138007D01*
X-19502Y-150846D02*
X-17502D01*
X-18502Y-151846D02*
Y-149846D01*
X-20252Y-96180D02*
X-18252D01*
X-19252Y-97180D02*
Y-95180D01*
X10418Y-161404D02*
X12418D01*
X11418Y-162404D02*
Y-160404D01*
X24750Y-75000D02*
X26750D01*
X25750Y-76000D02*
Y-74000D01*
X-167000Y-238000D02*
X-165000D01*
X-166000Y-239000D02*
Y-237000D01*
X-83254Y-231496D02*
X-81254D01*
X-82254Y-232496D02*
Y-230496D01*
X9000Y-268513D02*
X11000D01*
X10000Y-269513D02*
Y-267513D01*
X-37001Y-258502D02*
X-35001D01*
X-36001Y-259502D02*
Y-257502D01*
X-28001Y-261513D02*
X-26001D01*
X-27001Y-262513D02*
Y-260513D01*
X-61503Y-261513D02*
X-59503D01*
X-60503Y-262513D02*
Y-260513D01*
X-53001Y-258502D02*
X-51001D01*
X-52001Y-259502D02*
Y-257502D01*
X-37252Y-267763D02*
X-35252D01*
X-36252Y-268763D02*
Y-266763D01*
X-45502Y-261513D02*
X-43502D01*
X-44502Y-262513D02*
Y-260513D01*
X47502Y-208260D02*
X49502D01*
X48502Y-209260D02*
Y-207260D01*
X35502Y-211260D02*
X37502D01*
X36502Y-212260D02*
Y-210260D01*
X36586Y-180654D02*
X38586D01*
X37585Y-181654D02*
Y-179654D01*
X72500Y-49250D02*
X74500D01*
X73500Y-50250D02*
Y-48250D01*
X147752Y-36904D02*
X149752D01*
X148752Y-37904D02*
Y-35904D01*
X145630Y-29726D02*
X147630D01*
X146630Y-30726D02*
Y-28726D01*
X153250Y-24750D02*
X155250D01*
X154250Y-25750D02*
Y-23750D01*
X71250Y-3500D02*
X73250D01*
X72250Y-4500D02*
Y-2500D01*
X39750Y-191000D02*
X41750D01*
X40750Y-192000D02*
Y-190000D01*
X72504Y-193009D02*
X74504D01*
X73504Y-194009D02*
Y-192009D01*
X95750Y-179000D02*
X97750D01*
X96750Y-180000D02*
Y-178000D01*
X85002Y-179654D02*
X87002D01*
X86002Y-180654D02*
Y-178654D01*
X71003Y-217761D02*
X73004D01*
X72003Y-218761D02*
Y-216761D01*
X103500Y-44750D02*
X105500D01*
X104500Y-45750D02*
Y-43750D01*
X100252Y-94654D02*
X102252D01*
X101252Y-95654D02*
Y-93654D01*
X95002Y-99654D02*
X97002D01*
X96002Y-100654D02*
Y-98654D01*
X85252Y-165154D02*
X87252D01*
X86252Y-166154D02*
Y-164154D01*
X-85250Y-292000D02*
X-83250D01*
X-84250Y-293000D02*
Y-291000D01*
X-37036Y-47214D02*
X-35036D01*
X-36036Y-48214D02*
Y-46214D01*
X-43612Y-120066D02*
X-41612D01*
X-42612Y-121066D02*
Y-119066D01*
X-77454Y-54356D02*
X-75454D01*
X-76454Y-55356D02*
Y-53356D01*
X-112023Y-73015D02*
X-110023D01*
X-111023Y-74015D02*
Y-72015D01*
X-78250Y-84750D02*
X-76250D01*
X-77250Y-85750D02*
Y-83750D01*
X-82750Y-91250D02*
X-80750D01*
X-81750Y-92250D02*
Y-90250D01*
X-112000Y-270000D02*
X-110000D01*
X-111000Y-271000D02*
Y-269000D01*
X-154750Y-242500D02*
X-152750D01*
X-153750Y-243500D02*
Y-241500D01*
X-126250Y-241250D02*
X-124250D01*
X-125250Y-242250D02*
Y-240250D01*
X-96000Y-241500D02*
X-94000D01*
X-95000Y-242500D02*
Y-240500D01*
X-90250Y-233500D02*
X-88250D01*
X-89250Y-234500D02*
Y-232500D01*
X-155442Y-251574D02*
X-153442D01*
X-154442Y-252574D02*
Y-250574D01*
X-89500Y-207500D02*
X-87500D01*
X-88500Y-208500D02*
Y-206500D01*
X-53001Y-267501D02*
X-51001D01*
X-52001Y-268501D02*
Y-266501D01*
X-13001Y-252501D02*
X-11001D01*
X-12001Y-253501D02*
Y-251501D01*
X-61001Y-252501D02*
X-59001D01*
X-60001Y-253501D02*
Y-251501D01*
X-69001Y-267501D02*
X-67001D01*
X-68001Y-268501D02*
Y-266501D01*
X-109523Y128780D02*
X-107523D01*
X-108523Y127780D02*
Y129780D01*
X-109523Y118780D02*
X-107523D01*
X-108523Y117780D02*
Y119780D01*
X-119523Y128780D02*
X-117523D01*
X-118523Y127780D02*
Y129780D01*
X-119523Y118780D02*
X-117523D01*
X-118523Y117780D02*
Y119780D01*
X-119523Y108780D02*
X-117523D01*
X-118523Y107780D02*
Y109780D01*
X-109523Y108780D02*
X-107523D01*
X-108523Y107780D02*
Y109780D01*
X183250Y-34000D02*
X185250D01*
X184250Y-35000D02*
Y-33000D01*
X176250Y-38000D02*
X178250D01*
X177250Y-39000D02*
Y-37000D01*
X-177750Y46000D02*
X-175750D01*
X-176750Y45000D02*
Y47000D01*
X-185000Y41000D02*
X-183000D01*
X-184000Y40000D02*
Y42000D01*
X-115500Y254250D02*
X-113500D01*
X-114500Y253250D02*
Y255250D01*
X-84500Y155000D02*
X-82500D01*
X-83500Y154000D02*
Y156000D01*
X-77250Y157750D02*
X-75250D01*
X-76250Y156750D02*
Y158750D01*
X-77158Y121280D02*
X-75158D01*
X-76158Y120280D02*
Y122280D01*
X-77394Y111138D02*
X-75394D01*
X-76394Y110138D02*
Y112138D01*
X-92023Y161477D02*
X-90023D01*
X-91023Y160477D02*
Y162477D01*
X-108750Y191750D02*
X-106750D01*
X-107750Y190750D02*
Y192750D01*
X-91250Y218250D02*
X-89250D01*
X-90250Y217250D02*
Y219250D01*
X-104500Y235750D02*
X-102500D01*
X-103500Y234750D02*
Y236750D01*
X-115000Y264750D02*
X-113000D01*
X-114000Y263750D02*
Y265750D01*
X-115000Y275000D02*
X-113000D01*
X-114000Y274000D02*
Y276000D01*
X-111750Y286750D02*
X-109750D01*
X-110750Y285750D02*
Y287750D01*
X-76250Y221000D02*
X-74250D01*
X-75250Y220000D02*
Y222000D01*
X-94750Y18500D02*
X-92750D01*
X-93750Y17500D02*
Y19500D01*
X-101000Y12500D02*
X-99000D01*
X-100000Y11500D02*
Y13500D01*
X-48500Y2500D02*
X-46500D01*
X-47500Y1500D02*
Y3500D01*
X-42500Y14500D02*
X-40500D01*
X-41500Y13500D02*
Y15500D01*
X-84000Y243500D02*
X-82000D01*
X-83000Y242500D02*
Y244500D01*
X-78500Y237750D02*
X-76500D01*
X-77500Y236750D02*
Y238750D01*
X-100502Y143154D02*
X-98502D01*
X-99502Y142154D02*
Y144154D01*
X-90856Y62878D02*
X-88856D01*
X-89856Y61878D02*
Y63878D01*
X-53157Y169404D02*
X-49347D01*
X-51252Y167499D02*
Y171309D01*
X-97002Y99654D02*
X-95002D01*
X-96002Y98654D02*
Y100654D01*
X-62502Y96904D02*
X-60502D01*
X-61502Y95904D02*
Y97904D01*
X-46152Y122314D02*
X-44152D01*
X-45152Y121314D02*
Y123314D01*
X-43612Y129934D02*
X-41612D01*
X-42612Y128934D02*
Y130934D01*
X-28502Y167820D02*
X-26502D01*
X-27502Y166820D02*
Y168820D01*
X-38586Y180654D02*
X-36586D01*
X-37585Y179654D02*
Y181654D01*
X-18418Y180654D02*
X-16418D01*
X-17418Y179654D02*
Y181654D01*
X-79750Y77750D02*
X-77750D01*
X-78750Y76750D02*
Y78750D01*
X-69502Y160154D02*
X-67502D01*
X-68502Y159154D02*
Y161154D01*
X-93998Y115296D02*
X-91998D01*
X-92998Y114296D02*
Y116296D01*
X-20252Y153820D02*
X-18252D01*
X-19252Y152820D02*
Y154820D01*
X-12418Y161404D02*
X-10418D01*
X-11418Y160404D02*
Y162404D01*
X-34722Y120190D02*
X-32722D01*
X-33722Y119190D02*
Y121190D01*
X-26252Y110154D02*
X-24252D01*
X-25252Y109154D02*
Y111154D01*
X-19502Y99154D02*
X-17502D01*
X-18502Y98154D02*
Y100154D01*
X-74500Y49250D02*
X-72500D01*
X-73500Y48250D02*
Y50250D01*
X-19500Y67500D02*
X-17500D01*
X-18500Y66500D02*
Y68500D01*
X-26750Y75000D02*
X-24750D01*
X-25750Y74000D02*
Y76000D01*
X-102252Y94654D02*
X-100252D01*
X-101252Y93654D02*
Y95654D01*
X-111252Y51404D02*
X-109252D01*
X-110252Y50404D02*
Y52404D01*
X-117023Y76674D02*
X-115023D01*
X-116023Y75675D02*
Y77674D01*
X-112023Y93133D02*
X-110023D01*
X-111023Y92133D02*
Y94133D01*
X47723Y44000D02*
X49724D01*
X48724Y43000D02*
Y45000D01*
X32750Y9000D02*
X34750D01*
X33750Y8000D02*
Y10000D01*
X38250Y15000D02*
X40250D01*
X39250Y14000D02*
Y16000D01*
X75750Y-206000D02*
X77750D01*
X76750Y-207000D02*
Y-205000D01*
X49500Y-219000D02*
X51500D01*
X50500Y-220000D02*
Y-218000D01*
X140750Y-188750D02*
X142750D01*
X141750Y-189750D02*
Y-187750D01*
X73254Y-251012D02*
X75254D01*
X74254Y-252012D02*
Y-250012D01*
X46999Y-250251D02*
X48999D01*
X47999Y-251251D02*
Y-249251D01*
X54999Y-250251D02*
X56999D01*
X55999Y-251251D02*
Y-249251D01*
X62999Y-250251D02*
X64999D01*
X63999Y-251251D02*
Y-249251D01*
X38999Y-250251D02*
X40999D01*
X39999Y-251251D02*
Y-249251D01*
X66999Y-256001D02*
X68999D01*
X67999Y-257001D02*
Y-255001D01*
X42999Y-256001D02*
X44999D01*
X43999Y-257001D02*
Y-255001D01*
X50999Y-256001D02*
X52999D01*
X51999Y-257001D02*
Y-255001D01*
X58999Y-256001D02*
X60999D01*
X59999Y-257001D02*
Y-255001D01*
X50999Y-264001D02*
X52999D01*
X51999Y-265001D02*
Y-263001D01*
X58999Y-264001D02*
X60999D01*
X59999Y-265001D02*
Y-263001D01*
X66999Y-264001D02*
X68999D01*
X67999Y-265001D02*
Y-263001D01*
X74999Y-264001D02*
X76999D01*
X75999Y-265001D02*
Y-263001D01*
X42999Y-264001D02*
X44999D01*
X43999Y-265001D02*
Y-263001D01*
X70999Y-269751D02*
X72999D01*
X71999Y-270751D02*
Y-268751D01*
X46999Y-269751D02*
X48999D01*
X47999Y-270751D02*
Y-268751D01*
X54999Y-269751D02*
X56999D01*
X55999Y-270751D02*
Y-268751D01*
X62999Y-269751D02*
X64999D01*
X63999Y-270751D02*
Y-268751D01*
X-139430Y-56134D02*
X-137430D01*
X-138430Y-57134D02*
Y-55134D01*
X-110542Y-23750D02*
X-108542D01*
X-109542Y-24750D02*
Y-22750D01*
X-71929Y-36472D02*
X-69929D01*
X-70929Y-37472D02*
Y-35472D01*
X-82280Y-48006D02*
X-80280D01*
X-81280Y-49006D02*
Y-47006D01*
X112030Y39878D02*
X114030D01*
X113030Y38878D02*
Y40878D01*
X77740Y172974D02*
X79740D01*
X78740Y171974D02*
Y173974D01*
X49800Y153924D02*
X51800D01*
X50800Y152924D02*
Y154924D01*
X41926Y161290D02*
X43926D01*
X42926Y160290D02*
Y162290D01*
X64750Y207046D02*
X66750D01*
X65750Y206046D02*
Y208046D01*
X71136Y200660D02*
X73136D01*
X72136Y199660D02*
Y201660D01*
X106250Y225360D02*
X108250D01*
X107250Y224360D02*
Y226360D01*
X99987Y231499D02*
X101987D01*
X100987Y230499D02*
Y232499D01*
X124250Y241249D02*
X126250D01*
X125250Y240249D02*
Y242249D01*
X-158937Y-235008D02*
X-156937D01*
X-157936Y-236008D02*
Y-234008D01*
X-162002Y-245014D02*
X-160002D01*
X-161002Y-246014D02*
Y-244014D01*
X-111690Y-241500D02*
X-109690D01*
X-110690Y-242500D02*
Y-240500D01*
X-118250Y-248060D02*
X-116250D01*
X-117250Y-249060D02*
Y-247060D01*
X100698Y-272034D02*
X102698D01*
X101698Y-273034D02*
Y-271034D01*
X140732Y-219202D02*
X142732D01*
X141732Y-220202D02*
Y-218202D01*
X178832Y-250190D02*
X180832D01*
X179832Y-251190D02*
Y-249190D01*
X-219250Y-67750D02*
X-217250D01*
X-218250Y-68750D02*
Y-66750D01*
X24252Y139846D02*
X26252D01*
X25252Y138846D02*
Y140845D01*
X17502Y150845D02*
X19502D01*
X18502Y149846D02*
Y151846D01*
X153750Y7749D02*
X155750D01*
X154750Y6749D02*
Y8749D01*
X60502Y153096D02*
X62502D01*
X61502Y152095D02*
Y154095D01*
X41612Y120065D02*
X43612D01*
X42612Y119066D02*
Y121066D01*
X44152Y127685D02*
X46152D01*
X45152Y126685D02*
Y128686D01*
X16419Y69345D02*
X18419D01*
X17419Y68345D02*
Y70346D01*
X26502Y55346D02*
X28502D01*
X27502Y54345D02*
Y56346D01*
X36586Y69345D02*
X38586D01*
X37586Y68345D02*
Y70346D01*
X67502Y89846D02*
X69502D01*
X68502Y88846D02*
Y90845D01*
X91998Y134703D02*
X93998D01*
X92998Y133703D02*
Y135703D01*
X84500Y84249D02*
X86500D01*
X85500Y83249D02*
Y85249D01*
X175509Y67740D02*
X177509D01*
X176509Y66740D02*
Y68740D01*
X10419Y88596D02*
X12419D01*
X11419Y87596D02*
Y89595D01*
X18252Y96179D02*
X20252D01*
X19252Y95179D02*
Y97179D01*
X26502Y82179D02*
X28502D01*
X27502Y81179D02*
Y83179D01*
X194252Y85096D02*
X196252D01*
X195252Y84095D02*
Y86096D01*
X17500Y182499D02*
X19500D01*
X18500Y181499D02*
Y183499D01*
X24750Y174999D02*
X26750D01*
X25750Y173999D02*
Y175999D01*
X191955Y158548D02*
X193955D01*
X192955Y157548D02*
Y159548D01*
X294148Y246125D02*
X296148D01*
X295148Y245125D02*
Y247125D01*
X182000Y115749D02*
X184000D01*
X183000Y114749D02*
Y116749D01*
X295000Y183999D02*
X297000D01*
X296000Y182999D02*
Y184999D01*
X194250Y77499D02*
X196250D01*
X195250Y76499D02*
Y78499D01*
X292250Y128249D02*
X294250D01*
X293250Y127249D02*
Y129249D01*
X180356Y198119D02*
X182356D01*
X181356Y197119D02*
Y199119D01*
X192000Y151249D02*
X194000D01*
X193000Y150249D02*
Y152249D01*
X235500Y182999D02*
X237500D01*
X236500Y181999D02*
Y183999D01*
X192250Y108999D02*
X194250D01*
X193250Y107999D02*
Y109999D01*
X233750Y128749D02*
X235750D01*
X234750Y127749D02*
Y129749D01*
X189246Y184149D02*
X191246D01*
X190246Y183149D02*
Y185149D01*
X208042Y62483D02*
X210042D01*
X209042Y61483D02*
Y63483D01*
X109252Y198596D02*
X111252D01*
X110252Y197596D02*
Y199596D01*
X162750Y215249D02*
X164750D01*
X163750Y214249D02*
Y216249D01*
X144252Y68345D02*
X146252D01*
X145252Y67345D02*
Y69345D01*
X145630Y220273D02*
X147630D01*
X146630Y219273D02*
Y221273D01*
X164750Y67749D02*
X166750D01*
X165750Y66749D02*
Y68749D01*
X169000Y16749D02*
X171000D01*
X170000Y15749D02*
Y17749D01*
X32722Y129810D02*
X34722D01*
X33722Y128809D02*
Y130809D01*
X104750Y26785D02*
X106750D01*
X105750Y25785D02*
Y27785D01*
X98680Y117023D02*
X100680D01*
X99680Y116024D02*
Y118024D01*
X79254Y208598D02*
X81254D01*
X80254Y207598D02*
Y209597D01*
X158252Y208846D02*
X160252D01*
X159252Y207845D02*
Y209846D01*
X155443Y38846D02*
X157443D01*
X156443Y37845D02*
Y39845D01*
X177752Y39595D02*
X179752D01*
X178752Y38595D02*
Y40595D01*
X107523Y121220D02*
X109523D01*
X108523Y120220D02*
Y122220D01*
X107523Y131220D02*
X109523D01*
X108523Y130220D02*
Y132220D01*
X107523Y141220D02*
X109523D01*
X108523Y140220D02*
Y142220D01*
X127523Y121220D02*
X129523D01*
X128523Y120220D02*
Y122220D01*
X117523Y121220D02*
X119523D01*
X118523Y120220D02*
Y122220D01*
X117523Y131220D02*
X119523D01*
X118523Y130220D02*
Y132220D01*
X117523Y141220D02*
X119523D01*
X118523Y140220D02*
Y142220D01*
X127523Y131220D02*
X129523D01*
X128523Y130220D02*
Y132220D01*
X127523Y141220D02*
X129523D01*
X128523Y140220D02*
Y142220D01*
X110023Y156866D02*
X112023D01*
X111023Y155866D02*
Y157866D01*
X115023Y173325D02*
X117023D01*
X116023Y172325D02*
Y174325D01*
X184235Y127302D02*
X186235D01*
X185235Y126302D02*
Y128302D01*
X125023Y88116D02*
X127023D01*
X126023Y87116D02*
Y89116D01*
X100752Y55845D02*
X102753D01*
X101753Y54845D02*
Y56845D01*
X134215Y56535D02*
X136215D01*
X135215Y55535D02*
Y57534D01*
X90023Y89272D02*
X92023D01*
X91023Y88272D02*
Y90272D01*
X158500Y289999D02*
X160500D01*
X159500Y288999D02*
Y290999D01*
X80750Y91249D02*
X82750D01*
X81750Y90249D02*
Y92249D01*
X158500Y277874D02*
X160500D01*
X159500Y276874D02*
Y278874D01*
X76250Y84749D02*
X78250D01*
X77250Y83749D02*
Y85749D01*
X158500Y265749D02*
X160500D01*
X159500Y264749D02*
Y266749D01*
X98502Y106846D02*
X100502D01*
X99502Y105845D02*
Y107845D01*
X75158Y128720D02*
X77158D01*
X76158Y127720D02*
Y129720D01*
X168672Y122681D02*
X170672D01*
X169672Y121681D02*
Y123681D01*
X95002Y150345D02*
X97002D01*
X96002Y149346D02*
Y151346D01*
X100252Y155345D02*
X102252D01*
X101252Y154346D02*
Y156346D01*
X49347Y80596D02*
X53157D01*
X51252Y78691D02*
Y82500D01*
X77426Y188137D02*
X79426D01*
X78426Y187138D02*
Y189137D01*
X87500Y207499D02*
X89500D01*
X88500Y206499D02*
Y208499D01*
X150250Y251999D02*
X152250D01*
X151250Y250999D02*
Y252999D01*
X156750Y238999D02*
X158750D01*
X157750Y237999D02*
Y239999D01*
X75394Y138862D02*
X77394D01*
X76394Y137861D02*
Y139861D01*
X88856Y187122D02*
X90856D01*
X89856Y186122D02*
Y188121D01*
X-164750Y-215250D02*
X-162750D01*
X-163750Y-216250D02*
Y-214250D01*
X-69502Y-89846D02*
X-67502D01*
X-68502Y-90846D02*
Y-88846D01*
X-86500Y-84250D02*
X-84500D01*
X-85500Y-85250D02*
Y-83250D01*
X-92023Y-89273D02*
X-90023D01*
X-91023Y-90273D02*
Y-88273D01*
X-127023Y-88117D02*
X-125023D01*
X-126023Y-89117D02*
Y-87117D01*
X-170672Y-122682D02*
X-168672D01*
X-169672Y-123682D02*
Y-121682D01*
X-160500Y-265750D02*
X-158500D01*
X-159500Y-266750D02*
Y-264750D01*
X-182356Y-198120D02*
X-180356D01*
X-181356Y-199120D02*
Y-197120D01*
X-191246Y-184150D02*
X-189246D01*
X-190246Y-185150D02*
Y-183150D01*
X-186235Y-127303D02*
X-184235D01*
X-185235Y-128303D02*
Y-126303D01*
X235728Y-136652D02*
X237728D01*
X236728Y-137652D02*
Y-135652D01*
X234458Y-192024D02*
X236458D01*
X235458Y-193024D02*
Y-191024D01*
X-236204Y191516D02*
X-234204D01*
X-235204Y190516D02*
Y192516D01*
X-296148Y-246126D02*
X-294148D01*
X-295148Y-247126D02*
Y-245126D01*
X-294250Y-128250D02*
X-292250D01*
X-293250Y-129250D02*
Y-127250D01*
X-235750Y-128750D02*
X-233750D01*
X-234750Y-129750D02*
Y-127750D01*
X-297000Y-184000D02*
X-295000D01*
X-296000Y-185000D02*
Y-183000D01*
X324000Y247499D02*
X326000D01*
X325000Y246499D02*
Y248499D01*
X324000Y257499D02*
X326000D01*
X325000Y256499D02*
Y258499D01*
X324000Y227499D02*
X326000D01*
X325000Y226499D02*
Y228499D01*
X324000Y217499D02*
X326000D01*
X325000Y216499D02*
Y218499D01*
X334000Y257499D02*
X336000D01*
X335000Y256499D02*
Y258499D01*
X344000Y257499D02*
X346000D01*
X345000Y256499D02*
Y258499D01*
X314000Y257499D02*
X316000D01*
X315000Y256499D02*
Y258499D01*
X304000Y257499D02*
X306000D01*
X305000Y256499D02*
Y258499D01*
X334000Y247499D02*
X336000D01*
X335000Y246499D02*
Y248499D01*
X344000Y247499D02*
X346000D01*
X345000Y246499D02*
Y248499D01*
X314000Y247499D02*
X316000D01*
X315000Y246499D02*
Y248499D01*
X304000Y247499D02*
X306000D01*
X305000Y246499D02*
Y248499D01*
X334000Y217499D02*
X336000D01*
X335000Y216499D02*
Y218499D01*
X344000Y217499D02*
X346000D01*
X345000Y216499D02*
Y218499D01*
X314000Y217499D02*
X316000D01*
X315000Y216499D02*
Y218499D01*
X304000Y217499D02*
X306000D01*
X305000Y216499D02*
Y218499D01*
X334000Y227499D02*
X336000D01*
X335000Y226499D02*
Y228499D01*
X344000Y227499D02*
X346000D01*
X345000Y226499D02*
Y228499D01*
X314000Y227499D02*
X316000D01*
X315000Y226499D02*
Y228499D01*
X304000Y227499D02*
X306000D01*
X305000Y226499D02*
Y228499D01*
X304000Y237499D02*
X306000D01*
X305000Y236499D02*
Y238499D01*
X314000Y237499D02*
X316000D01*
X315000Y236499D02*
Y238499D01*
X344000Y237499D02*
X346000D01*
X345000Y236499D02*
Y238499D01*
X334000Y237499D02*
X336000D01*
X335000Y236499D02*
Y238499D01*
X321825Y237499D02*
X328175D01*
X325000Y234324D02*
Y240674D01*
X324000Y179999D02*
X326000D01*
X325000Y178999D02*
Y180999D01*
X324000Y189999D02*
X326000D01*
X325000Y188999D02*
Y190999D01*
X324000Y159999D02*
X326000D01*
X325000Y158999D02*
Y160999D01*
X324000Y149999D02*
X326000D01*
X325000Y148999D02*
Y150999D01*
X334000Y189999D02*
X336000D01*
X335000Y188999D02*
Y190999D01*
X344000Y189999D02*
X346000D01*
X345000Y188999D02*
Y190999D01*
X314000Y189999D02*
X316000D01*
X315000Y188999D02*
Y190999D01*
X304000Y189999D02*
X306000D01*
X305000Y188999D02*
Y190999D01*
X334000Y179999D02*
X336000D01*
X335000Y178999D02*
Y180999D01*
X344000Y179999D02*
X346000D01*
X345000Y178999D02*
Y180999D01*
X314000Y179999D02*
X316000D01*
X315000Y178999D02*
Y180999D01*
X304000Y179999D02*
X306000D01*
X305000Y178999D02*
Y180999D01*
X334000Y149999D02*
X336000D01*
X335000Y148999D02*
Y150999D01*
X344000Y149999D02*
X346000D01*
X345000Y148999D02*
Y150999D01*
X314000Y149999D02*
X316000D01*
X315000Y148999D02*
Y150999D01*
X304000Y149999D02*
X306000D01*
X305000Y148999D02*
Y150999D01*
X334000Y159999D02*
X336000D01*
X335000Y158999D02*
Y160999D01*
X344000Y159999D02*
X346000D01*
X345000Y158999D02*
Y160999D01*
X314000Y159999D02*
X316000D01*
X315000Y158999D02*
Y160999D01*
X304000Y159999D02*
X306000D01*
X305000Y158999D02*
Y160999D01*
X304000Y169999D02*
X306000D01*
X305000Y168999D02*
Y170999D01*
X314000Y169999D02*
X316000D01*
X315000Y168999D02*
Y170999D01*
X344000Y169999D02*
X346000D01*
X345000Y168999D02*
Y170999D01*
X334000Y169999D02*
X336000D01*
X335000Y168999D02*
Y170999D01*
X321825Y169999D02*
X328175D01*
X325000Y166824D02*
Y173174D01*
X324000Y112499D02*
X326000D01*
X325000Y111499D02*
Y113499D01*
X324000Y122499D02*
X326000D01*
X325000Y121499D02*
Y123499D01*
X324000Y92499D02*
X326000D01*
X325000Y91499D02*
Y93499D01*
X324000Y82499D02*
X326000D01*
X325000Y81499D02*
Y83499D01*
X334000Y122499D02*
X336000D01*
X335000Y121499D02*
Y123499D01*
X344000Y122499D02*
X346000D01*
X345000Y121499D02*
Y123499D01*
X314000Y122499D02*
X316000D01*
X315000Y121499D02*
Y123499D01*
X304000Y122499D02*
X306000D01*
X305000Y121499D02*
Y123499D01*
X334000Y112499D02*
X336000D01*
X335000Y111499D02*
Y113499D01*
X344000Y112499D02*
X346000D01*
X345000Y111499D02*
Y113499D01*
X314000Y112499D02*
X316000D01*
X315000Y111499D02*
Y113499D01*
X304000Y112499D02*
X306000D01*
X305000Y111499D02*
Y113499D01*
X334000Y82499D02*
X336000D01*
X335000Y81499D02*
Y83499D01*
X344000Y82499D02*
X346000D01*
X345000Y81499D02*
Y83499D01*
X314000Y82499D02*
X316000D01*
X315000Y81499D02*
Y83499D01*
X304000Y82499D02*
X306000D01*
X305000Y81499D02*
Y83499D01*
X334000Y92499D02*
X336000D01*
X335000Y91499D02*
Y93499D01*
X344000Y92499D02*
X346000D01*
X345000Y91499D02*
Y93499D01*
X314000Y92499D02*
X316000D01*
X315000Y91499D02*
Y93499D01*
X304000Y92499D02*
X306000D01*
X305000Y91499D02*
Y93499D01*
X304000Y102499D02*
X306000D01*
X305000Y101499D02*
Y103499D01*
X314000Y102499D02*
X316000D01*
X315000Y101499D02*
Y103499D01*
X344000Y102499D02*
X346000D01*
X345000Y101499D02*
Y103499D01*
X334000Y102499D02*
X336000D01*
X335000Y101499D02*
Y103499D01*
X321825Y102499D02*
X328175D01*
X325000Y99324D02*
Y105674D01*
X-166750Y182250D02*
X-164750D01*
X-165750Y181250D02*
Y183250D01*
X-155750Y242250D02*
X-153750D01*
X-154750Y241250D02*
Y243250D01*
X-195750Y125000D02*
X-193750D01*
X-194750Y124000D02*
Y126000D01*
X-199250Y85250D02*
X-197250D01*
X-198250Y84250D02*
Y86250D01*
X-194750Y106500D02*
X-192750D01*
X-193750Y105500D02*
Y107500D01*
X-129523Y108780D02*
X-127523D01*
X-128523Y107780D02*
Y109780D01*
X-129523Y118780D02*
X-127523D01*
X-128523Y117780D02*
Y119780D01*
X-129523Y128780D02*
X-127523D01*
X-128523Y127780D02*
Y129780D01*
X-288000Y81000D02*
X-286000D01*
X-287000Y80000D02*
Y82000D01*
X-193954Y91451D02*
X-191954D01*
X-192954Y90451D02*
Y92451D01*
X-305546Y136144D02*
X-303546D01*
X-304546Y135144D02*
Y137144D01*
X-184000Y134250D02*
X-182000D01*
X-183000Y133250D02*
Y135250D01*
X-237500Y137000D02*
X-235500D01*
X-236500Y136000D02*
Y138000D01*
X-194000Y98750D02*
X-192000D01*
X-193000Y97750D02*
Y99750D01*
X-306562Y203708D02*
X-304562D01*
X-305562Y202708D02*
Y204708D01*
X-196250Y172500D02*
X-194250D01*
X-195250Y171500D02*
Y173500D01*
X-194250Y141000D02*
X-192250D01*
X-193250Y140000D02*
Y142000D01*
X-191500Y84750D02*
X-189500D01*
X-190500Y83750D02*
Y85750D01*
X-146252Y181654D02*
X-144252D01*
X-145252Y180654D02*
Y182654D01*
X-179752Y210404D02*
X-177752D01*
X-178752Y209404D02*
Y211404D01*
X-157443Y211154D02*
X-155442D01*
X-156442Y210154D02*
Y212154D01*
X-196252Y164904D02*
X-194252D01*
X-195252Y163904D02*
Y165904D01*
X-137500Y194750D02*
X-135500D01*
X-136500Y193750D02*
Y195750D01*
X-147630Y29726D02*
X-145630D01*
X-146630Y28726D02*
Y30726D01*
X-177509Y182259D02*
X-175509D01*
X-176509Y181259D02*
Y183259D01*
X-138750Y214250D02*
X-136750D01*
X-137750Y213250D02*
Y215250D01*
X-160252Y41154D02*
X-158252D01*
X-159252Y40154D02*
Y42154D01*
X-26750Y-175000D02*
X-24750D01*
X-25750Y-176000D02*
Y-174000D01*
X-138750Y-35750D02*
X-136750D01*
X-137750Y-36750D02*
Y-34750D01*
X-177509Y-67741D02*
X-175509D01*
X-176509Y-68741D02*
Y-66741D01*
X-74500Y-200750D02*
X-72500D01*
X-73500Y-201750D02*
Y-199750D01*
X-87002Y-70346D02*
X-85002D01*
X-86002Y-71346D02*
Y-69346D01*
X-100680Y-117024D02*
X-98680D01*
X-99680Y-118024D02*
Y-116024D01*
X-147630Y-220274D02*
X-145630D01*
X-146630Y-221274D02*
Y-219274D01*
X-102752Y-55846D02*
X-100752D01*
X-101752Y-56846D02*
Y-54846D01*
X-93998Y-134704D02*
X-91998D01*
X-92998Y-135704D02*
Y-133704D01*
X-196252Y-85096D02*
X-194252D01*
X-195252Y-86096D02*
Y-84096D01*
X-157443Y-38846D02*
X-155442D01*
X-156442Y-39846D02*
Y-37846D01*
X-179752Y-39596D02*
X-177752D01*
X-178752Y-40596D02*
Y-38596D01*
X-79752Y-171346D02*
X-77752D01*
X-78752Y-172346D02*
Y-170346D01*
X-28502Y-55346D02*
X-26502D01*
X-27502Y-56346D02*
Y-54346D01*
X-18418Y-69346D02*
X-16418D01*
X-17418Y-70346D02*
Y-68346D01*
X-38586Y-69346D02*
X-36586D01*
X-37585Y-70346D02*
Y-68346D01*
X-28502Y-82180D02*
X-26502D01*
X-27502Y-83180D02*
Y-81180D01*
X-62502Y-153096D02*
X-60502D01*
X-61502Y-154096D02*
Y-152096D01*
X-146252Y-68346D02*
X-144252D01*
X-145252Y-69346D02*
Y-67346D01*
X-111252Y-198596D02*
X-109252D01*
X-110252Y-199596D02*
Y-197596D01*
X-194250Y-109000D02*
X-192250D01*
X-193250Y-110000D02*
Y-108000D01*
X-196250Y-77500D02*
X-194250D01*
X-195250Y-78500D02*
Y-76500D01*
X-194000Y-151250D02*
X-192000D01*
X-193000Y-152250D02*
Y-150250D01*
X-184000Y-115750D02*
X-182000D01*
X-183000Y-116750D02*
Y-114750D01*
X-193954Y-158549D02*
X-191954D01*
X-192954Y-159549D02*
Y-157549D01*
X-109523Y-121220D02*
X-107523D01*
X-108523Y-122220D02*
Y-120220D01*
X-109523Y-131220D02*
X-107523D01*
X-108523Y-132220D02*
Y-130220D01*
X-109523Y-141220D02*
X-107523D01*
X-108523Y-142220D02*
Y-140220D01*
X-119523Y-141220D02*
X-117523D01*
X-118523Y-142220D02*
Y-140220D01*
X-119523Y-121220D02*
X-117523D01*
X-118523Y-122220D02*
Y-120220D01*
X-119523Y-131220D02*
X-117523D01*
X-118523Y-132220D02*
Y-130220D01*
X-129523Y-121220D02*
X-127523D01*
X-128523Y-122220D02*
Y-120220D01*
X-129523Y-131220D02*
X-127523D01*
X-128523Y-132220D02*
Y-130220D01*
X-129523Y-141220D02*
X-127523D01*
X-128523Y-142220D02*
Y-140220D01*
X-112023Y-156867D02*
X-110023D01*
X-111023Y-157867D02*
Y-155867D01*
X-117023Y-173325D02*
X-115023D01*
X-116023Y-174325D02*
Y-172325D01*
X-100502Y-106846D02*
X-98502D01*
X-99502Y-107846D02*
Y-105846D01*
X-77158Y-128720D02*
X-75158D01*
X-76158Y-129720D02*
Y-127720D01*
X-97002Y-150346D02*
X-95002D01*
X-96002Y-151346D02*
Y-149346D01*
X-102252Y-155346D02*
X-100252D01*
X-101252Y-156346D02*
Y-154346D01*
X-77394Y-138862D02*
X-75394D01*
X-76394Y-139862D02*
Y-137862D01*
X-90856Y-187122D02*
X-88856D01*
X-89856Y-188122D02*
Y-186122D01*
X-53157Y-80596D02*
X-49347D01*
X-51252Y-82501D02*
Y-78691D01*
X-79426Y-188138D02*
X-77426D01*
X-78426Y-189138D02*
Y-187138D01*
X-142002Y-27096D02*
X-140002D01*
X-141002Y-28096D02*
Y-26096D01*
X-155750Y-7750D02*
X-153750D01*
X-154750Y-8750D02*
Y-6750D01*
X-166750Y-67750D02*
X-164750D01*
X-165750Y-68750D02*
Y-66750D01*
X-171000Y-16750D02*
X-169000D01*
X-170000Y-17750D02*
Y-15750D01*
X-326000Y-247500D02*
X-324000D01*
X-325000Y-248500D02*
Y-246500D01*
X-326000Y-257500D02*
X-324000D01*
X-325000Y-258500D02*
Y-256500D01*
X-326000Y-227500D02*
X-324000D01*
X-325000Y-228500D02*
Y-226500D01*
X-326000Y-217500D02*
X-324000D01*
X-325000Y-218500D02*
Y-216500D01*
X-336000Y-257500D02*
X-334000D01*
X-335000Y-258500D02*
Y-256500D01*
X-346000Y-257500D02*
X-344000D01*
X-345000Y-258500D02*
Y-256500D01*
X-316000Y-257500D02*
X-314000D01*
X-315000Y-258500D02*
Y-256500D01*
X-306000Y-257500D02*
X-304000D01*
X-305000Y-258500D02*
Y-256500D01*
X-336000Y-247500D02*
X-334000D01*
X-335000Y-248500D02*
Y-246500D01*
X-346000Y-247500D02*
X-344000D01*
X-345000Y-248500D02*
Y-246500D01*
X-316000Y-247500D02*
X-314000D01*
X-315000Y-248500D02*
Y-246500D01*
X-306000Y-247500D02*
X-304000D01*
X-305000Y-248500D02*
Y-246500D01*
X-336000Y-217500D02*
X-334000D01*
X-335000Y-218500D02*
Y-216500D01*
X-346000Y-217500D02*
X-344000D01*
X-345000Y-218500D02*
Y-216500D01*
X-316000Y-217500D02*
X-314000D01*
X-315000Y-218500D02*
Y-216500D01*
X-306000Y-217500D02*
X-304000D01*
X-305000Y-218500D02*
Y-216500D01*
X-336000Y-227500D02*
X-334000D01*
X-335000Y-228500D02*
Y-226500D01*
X-346000Y-227500D02*
X-344000D01*
X-345000Y-228500D02*
Y-226500D01*
X-316000Y-227500D02*
X-314000D01*
X-315000Y-228500D02*
Y-226500D01*
X-306000Y-227500D02*
X-304000D01*
X-305000Y-228500D02*
Y-226500D01*
X-306000Y-237500D02*
X-304000D01*
X-305000Y-238500D02*
Y-236500D01*
X-316000Y-237500D02*
X-314000D01*
X-315000Y-238500D02*
Y-236500D01*
X-346000Y-237500D02*
X-344000D01*
X-345000Y-238500D02*
Y-236500D01*
X-336000Y-237500D02*
X-334000D01*
X-335000Y-238500D02*
Y-236500D01*
X-328175Y-237500D02*
X-321825D01*
X-325000Y-240675D02*
Y-234325D01*
X-326000Y-180000D02*
X-324000D01*
X-325000Y-181000D02*
Y-179000D01*
X-326000Y-190000D02*
X-324000D01*
X-325000Y-191000D02*
Y-189000D01*
X-326000Y-160000D02*
X-324000D01*
X-325000Y-161000D02*
Y-159000D01*
X-326000Y-150000D02*
X-324000D01*
X-325000Y-151000D02*
Y-149000D01*
X-336000Y-190000D02*
X-334000D01*
X-335000Y-191000D02*
Y-189000D01*
X-346000Y-190000D02*
X-344000D01*
X-345000Y-191000D02*
Y-189000D01*
X-316000Y-190000D02*
X-314000D01*
X-315000Y-191000D02*
Y-189000D01*
X-306000Y-190000D02*
X-304000D01*
X-305000Y-191000D02*
Y-189000D01*
X-336000Y-180000D02*
X-334000D01*
X-335000Y-181000D02*
Y-179000D01*
X-346000Y-180000D02*
X-344000D01*
X-345000Y-181000D02*
Y-179000D01*
X-316000Y-180000D02*
X-314000D01*
X-315000Y-181000D02*
Y-179000D01*
X-306000Y-180000D02*
X-304000D01*
X-305000Y-181000D02*
Y-179000D01*
X-336000Y-150000D02*
X-334000D01*
X-335000Y-151000D02*
Y-149000D01*
X-346000Y-150000D02*
X-344000D01*
X-345000Y-151000D02*
Y-149000D01*
X-316000Y-150000D02*
X-314000D01*
X-315000Y-151000D02*
Y-149000D01*
X-306000Y-150000D02*
X-304000D01*
X-305000Y-151000D02*
Y-149000D01*
X-336000Y-160000D02*
X-334000D01*
X-335000Y-161000D02*
Y-159000D01*
X-346000Y-160000D02*
X-344000D01*
X-345000Y-161000D02*
Y-159000D01*
X-316000Y-160000D02*
X-314000D01*
X-315000Y-161000D02*
Y-159000D01*
X-306000Y-160000D02*
X-304000D01*
X-305000Y-161000D02*
Y-159000D01*
X-306000Y-170000D02*
X-304000D01*
X-305000Y-171000D02*
Y-169000D01*
X-316000Y-170000D02*
X-314000D01*
X-315000Y-171000D02*
Y-169000D01*
X-346000Y-170000D02*
X-344000D01*
X-345000Y-171000D02*
Y-169000D01*
X-336000Y-170000D02*
X-334000D01*
X-335000Y-171000D02*
Y-169000D01*
X-328175Y-170000D02*
X-321825D01*
X-325000Y-173175D02*
Y-166825D01*
X-326000Y-112500D02*
X-324000D01*
X-325000Y-113500D02*
Y-111500D01*
X-326000Y-122500D02*
X-324000D01*
X-325000Y-123500D02*
Y-121500D01*
X-326000Y-92500D02*
X-324000D01*
X-325000Y-93500D02*
Y-91500D01*
X-326000Y-82500D02*
X-324000D01*
X-325000Y-83500D02*
Y-81500D01*
X-336000Y-122500D02*
X-334000D01*
X-335000Y-123500D02*
Y-121500D01*
X-346000Y-122500D02*
X-344000D01*
X-345000Y-123500D02*
Y-121500D01*
X-316000Y-122500D02*
X-314000D01*
X-315000Y-123500D02*
Y-121500D01*
X-306000Y-122500D02*
X-304000D01*
X-305000Y-123500D02*
Y-121500D01*
X-336000Y-112500D02*
X-334000D01*
X-335000Y-113500D02*
Y-111500D01*
X-346000Y-112500D02*
X-344000D01*
X-345000Y-113500D02*
Y-111500D01*
X-316000Y-112500D02*
X-314000D01*
X-315000Y-113500D02*
Y-111500D01*
X-306000Y-112500D02*
X-304000D01*
X-305000Y-113500D02*
Y-111500D01*
X-336000Y-82500D02*
X-334000D01*
X-335000Y-83500D02*
Y-81500D01*
X-346000Y-82500D02*
X-344000D01*
X-345000Y-83500D02*
Y-81500D01*
X-316000Y-82500D02*
X-314000D01*
X-315000Y-83500D02*
Y-81500D01*
X-306000Y-82500D02*
X-304000D01*
X-305000Y-83500D02*
Y-81500D01*
X-336000Y-92500D02*
X-334000D01*
X-335000Y-93500D02*
Y-91500D01*
X-346000Y-92500D02*
X-344000D01*
X-345000Y-93500D02*
Y-91500D01*
X-316000Y-92500D02*
X-314000D01*
X-315000Y-93500D02*
Y-91500D01*
X-306000Y-92500D02*
X-304000D01*
X-305000Y-93500D02*
Y-91500D01*
X-306000Y-102500D02*
X-304000D01*
X-305000Y-103500D02*
Y-101500D01*
X-316000Y-102500D02*
X-314000D01*
X-315000Y-103500D02*
Y-101500D01*
X-346000Y-102500D02*
X-344000D01*
X-345000Y-103500D02*
Y-101500D01*
X-336000Y-102500D02*
X-334000D01*
X-335000Y-103500D02*
Y-101500D01*
X-328175Y-102500D02*
X-321825D01*
X-325000Y-105675D02*
Y-99325D01*
X324000Y-92500D02*
X326000D01*
X325000Y-93500D02*
Y-91500D01*
X324000Y-82500D02*
X326000D01*
X325000Y-83500D02*
Y-81500D01*
X324000Y-112500D02*
X326000D01*
X325000Y-113500D02*
Y-111500D01*
X324000Y-122500D02*
X326000D01*
X325000Y-123500D02*
Y-121500D01*
X334000Y-82500D02*
X336000D01*
X335000Y-83500D02*
Y-81500D01*
X344000Y-82500D02*
X346000D01*
X345000Y-83500D02*
Y-81500D01*
X314000Y-82500D02*
X316000D01*
X315000Y-83500D02*
Y-81500D01*
X304000Y-82500D02*
X306000D01*
X305000Y-83500D02*
Y-81500D01*
X334000Y-92500D02*
X336000D01*
X335000Y-93500D02*
Y-91500D01*
X344000Y-92500D02*
X346000D01*
X345000Y-93500D02*
Y-91500D01*
X314000Y-92500D02*
X316000D01*
X315000Y-93500D02*
Y-91500D01*
X304000Y-92500D02*
X306000D01*
X305000Y-93500D02*
Y-91500D01*
X334000Y-122500D02*
X336000D01*
X335000Y-123500D02*
Y-121500D01*
X344000Y-122500D02*
X346000D01*
X345000Y-123500D02*
Y-121500D01*
X314000Y-122500D02*
X316000D01*
X315000Y-123500D02*
Y-121500D01*
X304000Y-122500D02*
X306000D01*
X305000Y-123500D02*
Y-121500D01*
X334000Y-112500D02*
X336000D01*
X335000Y-113500D02*
Y-111500D01*
X344000Y-112500D02*
X346000D01*
X345000Y-113500D02*
Y-111500D01*
X314000Y-112500D02*
X316000D01*
X315000Y-113500D02*
Y-111500D01*
X304000Y-112500D02*
X306000D01*
X305000Y-113500D02*
Y-111500D01*
X304000Y-102500D02*
X306000D01*
X305000Y-103500D02*
Y-101500D01*
X314000Y-102500D02*
X316000D01*
X315000Y-103500D02*
Y-101500D01*
X344000Y-102500D02*
X346000D01*
X345000Y-103500D02*
Y-101500D01*
X334000Y-102500D02*
X336000D01*
X335000Y-103500D02*
Y-101500D01*
X321825Y-102500D02*
X328175D01*
X325000Y-105675D02*
Y-99325D01*
X324000Y-160000D02*
X326000D01*
X325000Y-161000D02*
Y-159000D01*
X324000Y-150000D02*
X326000D01*
X325000Y-151000D02*
Y-149000D01*
X324000Y-180000D02*
X326000D01*
X325000Y-181000D02*
Y-179000D01*
X324000Y-190000D02*
X326000D01*
X325000Y-191000D02*
Y-189000D01*
X334000Y-150000D02*
X336000D01*
X335000Y-151000D02*
Y-149000D01*
X344000Y-150000D02*
X346000D01*
X345000Y-151000D02*
Y-149000D01*
X314000Y-150000D02*
X316000D01*
X315000Y-151000D02*
Y-149000D01*
X304000Y-150000D02*
X306000D01*
X305000Y-151000D02*
Y-149000D01*
X334000Y-160000D02*
X336000D01*
X335000Y-161000D02*
Y-159000D01*
X344000Y-160000D02*
X346000D01*
X345000Y-161000D02*
Y-159000D01*
X314000Y-160000D02*
X316000D01*
X315000Y-161000D02*
Y-159000D01*
X304000Y-160000D02*
X306000D01*
X305000Y-161000D02*
Y-159000D01*
X334000Y-190000D02*
X336000D01*
X335000Y-191000D02*
Y-189000D01*
X344000Y-190000D02*
X346000D01*
X345000Y-191000D02*
Y-189000D01*
X314000Y-190000D02*
X316000D01*
X315000Y-191000D02*
Y-189000D01*
X304000Y-190000D02*
X306000D01*
X305000Y-191000D02*
Y-189000D01*
X334000Y-180000D02*
X336000D01*
X335000Y-181000D02*
Y-179000D01*
X344000Y-180000D02*
X346000D01*
X345000Y-181000D02*
Y-179000D01*
X314000Y-180000D02*
X316000D01*
X315000Y-181000D02*
Y-179000D01*
X304000Y-180000D02*
X306000D01*
X305000Y-181000D02*
Y-179000D01*
X304000Y-170000D02*
X306000D01*
X305000Y-171000D02*
Y-169000D01*
X314000Y-170000D02*
X316000D01*
X315000Y-171000D02*
Y-169000D01*
X344000Y-170000D02*
X346000D01*
X345000Y-171000D02*
Y-169000D01*
X334000Y-170000D02*
X336000D01*
X335000Y-171000D02*
Y-169000D01*
X321825Y-170000D02*
X328175D01*
X325000Y-173175D02*
Y-166825D01*
X324000Y-227500D02*
X326000D01*
X325000Y-228500D02*
Y-226500D01*
X324000Y-217500D02*
X326000D01*
X325000Y-218500D02*
Y-216500D01*
X324000Y-247500D02*
X326000D01*
X325000Y-248500D02*
Y-246500D01*
X324000Y-257500D02*
X326000D01*
X325000Y-258500D02*
Y-256500D01*
X334000Y-217500D02*
X336000D01*
X335000Y-218500D02*
Y-216500D01*
X344000Y-217500D02*
X346000D01*
X345000Y-218500D02*
Y-216500D01*
X314000Y-217500D02*
X316000D01*
X315000Y-218500D02*
Y-216500D01*
X304000Y-217500D02*
X306000D01*
X305000Y-218500D02*
Y-216500D01*
X334000Y-227500D02*
X336000D01*
X335000Y-228500D02*
Y-226500D01*
X344000Y-227500D02*
X346000D01*
X345000Y-228500D02*
Y-226500D01*
X314000Y-227500D02*
X316000D01*
X315000Y-228500D02*
Y-226500D01*
X304000Y-227500D02*
X306000D01*
X305000Y-228500D02*
Y-226500D01*
X334000Y-257500D02*
X336000D01*
X335000Y-258500D02*
Y-256500D01*
X344000Y-257500D02*
X346000D01*
X345000Y-258500D02*
Y-256500D01*
X314000Y-257500D02*
X316000D01*
X315000Y-258500D02*
Y-256500D01*
X304000Y-257500D02*
X306000D01*
X305000Y-258500D02*
Y-256500D01*
X334000Y-247500D02*
X336000D01*
X335000Y-248500D02*
Y-246500D01*
X344000Y-247500D02*
X346000D01*
X345000Y-248500D02*
Y-246500D01*
X314000Y-247500D02*
X316000D01*
X315000Y-248500D02*
Y-246500D01*
X304000Y-247500D02*
X306000D01*
X305000Y-248500D02*
Y-246500D01*
X304000Y-237500D02*
X306000D01*
X305000Y-238500D02*
Y-236500D01*
X314000Y-237500D02*
X316000D01*
X315000Y-238500D02*
Y-236500D01*
X344000Y-237500D02*
X346000D01*
X345000Y-238500D02*
Y-236500D01*
X334000Y-237500D02*
X336000D01*
X335000Y-238500D02*
Y-236500D01*
X321825Y-237500D02*
X328175D01*
X325000Y-240675D02*
Y-234325D01*
X158252Y-41154D02*
X160252D01*
X159252Y-42154D02*
Y-40154D01*
X175509Y-182259D02*
X177509D01*
X176509Y-183259D02*
Y-181259D01*
X17500Y-67500D02*
X19500D01*
X18500Y-68500D02*
Y-66500D01*
X104750Y-223214D02*
X106750D01*
X105750Y-224214D02*
Y-222214D01*
X87332Y-45606D02*
X89332D01*
X88332Y-46606D02*
Y-44606D01*
X98680Y-132976D02*
X100680D01*
X99680Y-133976D02*
Y-131976D01*
X18252Y-153820D02*
X20252D01*
X19252Y-154820D02*
Y-152820D01*
X100752Y-194154D02*
X102752D01*
X101752Y-195154D02*
Y-193154D01*
X135500Y-194750D02*
X137500D01*
X136500Y-195750D02*
Y-193750D01*
X91998Y-115296D02*
X93998D01*
X92998Y-116296D02*
Y-114296D01*
X194252Y-164904D02*
X196252D01*
X195252Y-165904D02*
Y-163904D01*
X155442Y-211154D02*
X157443D01*
X156442Y-212154D02*
Y-210154D01*
X177752Y-210404D02*
X179752D01*
X178752Y-211404D02*
Y-209404D01*
X67502Y-160154D02*
X69502D01*
X68502Y-161154D02*
Y-159154D01*
X77752Y-78654D02*
X79752D01*
X78752Y-79654D02*
Y-77654D01*
X16418Y-180654D02*
X18418D01*
X17418Y-181654D02*
Y-179654D01*
X41612Y-129934D02*
X43612D01*
X42612Y-130934D02*
Y-128934D01*
X60502Y-96904D02*
X62502D01*
X61502Y-97904D02*
Y-95904D01*
X198000Y-243250D02*
X200000D01*
X199000Y-244250D02*
Y-242250D01*
X144252Y-181654D02*
X146252D01*
X145252Y-182654D02*
Y-180654D01*
X109252Y-51404D02*
X111252D01*
X110252Y-52404D02*
Y-50404D01*
X189500Y-84750D02*
X191500D01*
X190500Y-85750D02*
Y-83750D01*
X192250Y-141000D02*
X194250D01*
X193250Y-142000D02*
Y-140000D01*
X194250Y-172500D02*
X196250D01*
X195250Y-173500D02*
Y-171500D01*
X304562Y-203708D02*
X306562D01*
X305562Y-204708D02*
Y-202708D01*
X192000Y-98750D02*
X194000D01*
X193000Y-99750D02*
Y-97750D01*
X203000Y-72480D02*
X205000D01*
X204000Y-73480D02*
Y-71480D01*
X182000Y-134250D02*
X184000D01*
X183000Y-135250D02*
Y-133250D01*
X303546Y-136144D02*
X305546D01*
X304546Y-137144D02*
Y-135144D01*
X191954Y-91451D02*
X193954D01*
X192954Y-92451D02*
Y-90451D01*
X286000Y-81000D02*
X288000D01*
X287000Y-82000D02*
Y-80000D01*
X107523Y-128779D02*
X109523D01*
X108523Y-129780D02*
Y-127780D01*
X117523Y-118779D02*
X119523D01*
X118523Y-119780D02*
Y-117780D01*
X107523Y-118779D02*
X109523D01*
X108523Y-119780D02*
Y-117780D01*
X117523Y-128779D02*
X119523D01*
X118523Y-129780D02*
Y-127780D01*
X127523Y-128779D02*
X129523D01*
X128523Y-129780D02*
Y-127780D01*
X127523Y-118779D02*
X129523D01*
X128523Y-119780D02*
Y-117780D01*
X107523Y-108779D02*
X109523D01*
X108523Y-109780D02*
Y-107780D01*
X117523Y-108779D02*
X119523D01*
X118523Y-109780D02*
Y-107780D01*
X127523Y-108779D02*
X129523D01*
X128523Y-109780D02*
Y-107780D01*
X110023Y-93133D02*
X112023D01*
X111023Y-94133D02*
Y-92133D01*
X115023Y-76674D02*
X117023D01*
X116023Y-77674D02*
Y-75675D01*
X125023Y-161883D02*
X127023D01*
X126023Y-162883D02*
Y-160883D01*
X75158Y-121279D02*
X77158D01*
X76158Y-122280D02*
Y-120280D01*
X192750Y-106500D02*
X194750D01*
X193750Y-107500D02*
Y-105500D01*
X197250Y-85250D02*
X199250D01*
X198250Y-86250D02*
Y-84250D01*
X193750Y-125000D02*
X195750D01*
X194750Y-126000D02*
Y-124000D01*
X75394Y-111138D02*
X77394D01*
X76394Y-112138D02*
Y-110138D01*
X88856Y-62878D02*
X90856D01*
X89856Y-63878D02*
Y-61878D01*
X49347Y-169404D02*
X53157D01*
X51252Y-171309D02*
Y-167499D01*
X77426Y-61862D02*
X79426D01*
X78426Y-62862D02*
Y-60862D01*
X107652Y-35700D02*
X109652D01*
X108652Y-36700D02*
Y-34700D01*
X164750Y-182250D02*
X166750D01*
X165750Y-183250D02*
Y-181250D01*
X-326000Y227500D02*
X-324000D01*
X-325000Y226500D02*
Y228500D01*
X-326000Y217500D02*
X-324000D01*
X-325000Y216500D02*
Y218500D01*
X-326000Y247500D02*
X-324000D01*
X-325000Y246500D02*
Y248500D01*
X-326000Y257500D02*
X-324000D01*
X-325000Y256500D02*
Y258500D01*
X-336000Y217500D02*
X-334000D01*
X-335000Y216500D02*
Y218500D01*
X-346000Y217500D02*
X-344000D01*
X-345000Y216500D02*
Y218500D01*
X-316000Y217500D02*
X-314000D01*
X-315000Y216500D02*
Y218500D01*
X-306000Y217500D02*
X-304000D01*
X-305000Y216500D02*
Y218500D01*
X-336000Y227500D02*
X-334000D01*
X-335000Y226500D02*
Y228500D01*
X-346000Y227500D02*
X-344000D01*
X-345000Y226500D02*
Y228500D01*
X-316000Y227500D02*
X-314000D01*
X-315000Y226500D02*
Y228500D01*
X-306000Y227500D02*
X-304000D01*
X-305000Y226500D02*
Y228500D01*
X-336000Y257500D02*
X-334000D01*
X-335000Y256500D02*
Y258500D01*
X-346000Y257500D02*
X-344000D01*
X-345000Y256500D02*
Y258500D01*
X-316000Y257500D02*
X-314000D01*
X-315000Y256500D02*
Y258500D01*
X-306000Y257500D02*
X-304000D01*
X-305000Y256500D02*
Y258500D01*
X-336000Y247500D02*
X-334000D01*
X-335000Y246500D02*
Y248500D01*
X-346000Y247500D02*
X-344000D01*
X-345000Y246500D02*
Y248500D01*
X-316000Y247500D02*
X-314000D01*
X-315000Y246500D02*
Y248500D01*
X-306000Y247500D02*
X-304000D01*
X-305000Y246500D02*
Y248500D01*
X-306000Y237500D02*
X-304000D01*
X-305000Y236500D02*
Y238500D01*
X-316000Y237500D02*
X-314000D01*
X-315000Y236500D02*
Y238500D01*
X-346000Y237500D02*
X-344000D01*
X-345000Y236500D02*
Y238500D01*
X-336000Y237500D02*
X-334000D01*
X-335000Y236500D02*
Y238500D01*
X-328175Y237500D02*
X-321825D01*
X-325000Y234325D02*
Y240675D01*
X-326000Y160000D02*
X-324000D01*
X-325000Y159000D02*
Y161000D01*
X-326000Y150000D02*
X-324000D01*
X-325000Y149000D02*
Y151000D01*
X-326000Y180000D02*
X-324000D01*
X-325000Y179000D02*
Y181000D01*
X-326000Y190000D02*
X-324000D01*
X-325000Y189000D02*
Y191000D01*
X-336000Y150000D02*
X-334000D01*
X-335000Y149000D02*
Y151000D01*
X-346000Y150000D02*
X-344000D01*
X-345000Y149000D02*
Y151000D01*
X-316000Y150000D02*
X-314000D01*
X-315000Y149000D02*
Y151000D01*
X-306000Y150000D02*
X-304000D01*
X-305000Y149000D02*
Y151000D01*
X-336000Y160000D02*
X-334000D01*
X-335000Y159000D02*
Y161000D01*
X-346000Y160000D02*
X-344000D01*
X-345000Y159000D02*
Y161000D01*
X-316000Y160000D02*
X-314000D01*
X-315000Y159000D02*
Y161000D01*
X-306000Y160000D02*
X-304000D01*
X-305000Y159000D02*
Y161000D01*
X-336000Y190000D02*
X-334000D01*
X-335000Y189000D02*
Y191000D01*
X-346000Y190000D02*
X-344000D01*
X-345000Y189000D02*
Y191000D01*
X-316000Y190000D02*
X-314000D01*
X-315000Y189000D02*
Y191000D01*
X-306000Y190000D02*
X-304000D01*
X-305000Y189000D02*
Y191000D01*
X-336000Y180000D02*
X-334000D01*
X-335000Y179000D02*
Y181000D01*
X-346000Y180000D02*
X-344000D01*
X-345000Y179000D02*
Y181000D01*
X-316000Y180000D02*
X-314000D01*
X-315000Y179000D02*
Y181000D01*
X-306000Y180000D02*
X-304000D01*
X-305000Y179000D02*
Y181000D01*
X-306000Y170000D02*
X-304000D01*
X-305000Y169000D02*
Y171000D01*
X-316000Y170000D02*
X-314000D01*
X-315000Y169000D02*
Y171000D01*
X-346000Y170000D02*
X-344000D01*
X-345000Y169000D02*
Y171000D01*
X-336000Y170000D02*
X-334000D01*
X-335000Y169000D02*
Y171000D01*
X-328175Y170000D02*
X-321825D01*
X-325000Y166825D02*
Y173175D01*
X-326000Y92500D02*
X-324000D01*
X-325000Y91500D02*
Y93500D01*
X-326000Y82500D02*
X-324000D01*
X-325000Y81500D02*
Y83500D01*
X-326000Y112500D02*
X-324000D01*
X-325000Y111500D02*
Y113500D01*
X-326000Y122500D02*
X-324000D01*
X-325000Y121500D02*
Y123500D01*
X-336000Y82500D02*
X-334000D01*
X-335000Y81500D02*
Y83500D01*
X-346000Y82500D02*
X-344000D01*
X-345000Y81500D02*
Y83500D01*
X-316000Y82500D02*
X-314000D01*
X-315000Y81500D02*
Y83500D01*
X-306000Y82500D02*
X-304000D01*
X-305000Y81500D02*
Y83500D01*
X-336000Y92500D02*
X-334000D01*
X-335000Y91500D02*
Y93500D01*
X-346000Y92500D02*
X-344000D01*
X-345000Y91500D02*
Y93500D01*
X-316000Y92500D02*
X-314000D01*
X-315000Y91500D02*
Y93500D01*
X-306000Y92500D02*
X-304000D01*
X-305000Y91500D02*
Y93500D01*
X-336000Y122500D02*
X-334000D01*
X-335000Y121500D02*
Y123500D01*
X-346000Y122500D02*
X-344000D01*
X-345000Y121500D02*
Y123500D01*
X-316000Y122500D02*
X-314000D01*
X-315000Y121500D02*
Y123500D01*
X-306000Y122500D02*
X-304000D01*
X-305000Y121500D02*
Y123500D01*
X-336000Y112500D02*
X-334000D01*
X-335000Y111500D02*
Y113500D01*
X-346000Y112500D02*
X-344000D01*
X-345000Y111500D02*
Y113500D01*
X-316000Y112500D02*
X-314000D01*
X-315000Y111500D02*
Y113500D01*
X-306000Y112500D02*
X-304000D01*
X-305000Y111500D02*
Y113500D01*
X-306000Y102500D02*
X-304000D01*
X-305000Y101500D02*
Y103500D01*
X-316000Y102500D02*
X-314000D01*
X-315000Y101500D02*
Y103500D01*
X-346000Y102500D02*
X-344000D01*
X-345000Y101500D02*
Y103500D01*
X-336000Y102500D02*
X-334000D01*
X-335000Y101500D02*
Y103500D01*
X-328175Y102500D02*
X-321825D01*
X-325000Y99325D02*
Y105675D01*
X99000Y325000D02*
X101000D01*
X100000Y324000D02*
Y326000D01*
X109000Y325000D02*
X111000D01*
X110000Y324000D02*
Y326000D01*
X79000Y325000D02*
X81000D01*
X80000Y324000D02*
Y326000D01*
X69000Y325000D02*
X71000D01*
X70000Y324000D02*
Y326000D01*
X109000Y315000D02*
X111000D01*
X110000Y314000D02*
Y316000D01*
X109000Y305000D02*
X111000D01*
X110000Y304000D02*
Y306000D01*
X109000Y335000D02*
X111000D01*
X110000Y334000D02*
Y336000D01*
X109000Y345000D02*
X111000D01*
X110000Y344000D02*
Y346000D01*
X99000Y315000D02*
X101000D01*
X100000Y314000D02*
Y316000D01*
X99000Y305000D02*
X101000D01*
X100000Y304000D02*
Y306000D01*
X99000Y335000D02*
X101000D01*
X100000Y334000D02*
Y336000D01*
X99000Y345000D02*
X101000D01*
X100000Y344000D02*
Y346000D01*
X69000Y315000D02*
X71000D01*
X70000Y314000D02*
Y316000D01*
X69000Y305000D02*
X71000D01*
X70000Y304000D02*
Y306000D01*
X69000Y335000D02*
X71000D01*
X70000Y334000D02*
Y336000D01*
X69000Y345000D02*
X71000D01*
X70000Y344000D02*
Y346000D01*
X79000Y315000D02*
X81000D01*
X80000Y314000D02*
Y316000D01*
X79000Y305000D02*
X81000D01*
X80000Y304000D02*
Y306000D01*
X79000Y335000D02*
X81000D01*
X80000Y334000D02*
Y336000D01*
X79000Y345000D02*
X81000D01*
X80000Y344000D02*
Y346000D01*
X89000Y345000D02*
X91000D01*
X90000Y344000D02*
Y346000D01*
X89000Y335000D02*
X91000D01*
X90000Y334000D02*
Y336000D01*
X89000Y305000D02*
X91000D01*
X90000Y304000D02*
Y306000D01*
X89000Y315000D02*
X91000D01*
X90000Y314000D02*
Y316000D01*
X86825Y325000D02*
X93175D01*
X90000Y321825D02*
Y328175D01*
X-78500Y325000D02*
X-76500D01*
X-77500Y324000D02*
Y326000D01*
X-68500Y325000D02*
X-66500D01*
X-67500Y324000D02*
Y326000D01*
X-98500Y325000D02*
X-96500D01*
X-97500Y324000D02*
Y326000D01*
X-108500Y325000D02*
X-106500D01*
X-107500Y324000D02*
Y326000D01*
X-68500Y315000D02*
X-66500D01*
X-67500Y314000D02*
Y316000D01*
X-68500Y305000D02*
X-66500D01*
X-67500Y304000D02*
Y306000D01*
X-68500Y335000D02*
X-66500D01*
X-67500Y334000D02*
Y336000D01*
X-68500Y345000D02*
X-66500D01*
X-67500Y344000D02*
Y346000D01*
X-78500Y315000D02*
X-76500D01*
X-77500Y314000D02*
Y316000D01*
X-78500Y305000D02*
X-76500D01*
X-77500Y304000D02*
Y306000D01*
X-78500Y335000D02*
X-76500D01*
X-77500Y334000D02*
Y336000D01*
X-78500Y345000D02*
X-76500D01*
X-77500Y344000D02*
Y346000D01*
X-108500Y315000D02*
X-106500D01*
X-107500Y314000D02*
Y316000D01*
X-108500Y305000D02*
X-106500D01*
X-107500Y304000D02*
Y306000D01*
X-108500Y335000D02*
X-106500D01*
X-107500Y334000D02*
Y336000D01*
X-108500Y345000D02*
X-106500D01*
X-107500Y344000D02*
Y346000D01*
X-98500Y315000D02*
X-96500D01*
X-97500Y314000D02*
Y316000D01*
X-98500Y305000D02*
X-96500D01*
X-97500Y304000D02*
Y306000D01*
X-98500Y335000D02*
X-96500D01*
X-97500Y334000D02*
Y336000D01*
X-98500Y345000D02*
X-96500D01*
X-97500Y344000D02*
Y346000D01*
X-88500Y345000D02*
X-86500D01*
X-87500Y344000D02*
Y346000D01*
X-88500Y335000D02*
X-86500D01*
X-87500Y334000D02*
Y336000D01*
X-88500Y305000D02*
X-86500D01*
X-87500Y304000D02*
Y306000D01*
X-88500Y315000D02*
X-86500D01*
X-87500Y314000D02*
Y316000D01*
X-90675Y325000D02*
X-84325D01*
X-87500Y321825D02*
Y328175D01*
X-152252Y234404D02*
X-150252D01*
X-151252Y233404D02*
Y235404D01*
M02*
