G04*
G04 #@! TF.GenerationSoftware,Altium Limited,Altium Designer,19.1.7 (138)*
G04*
G04 Layer_Color=8388736*
%FSLAX44Y44*%
%MOMM*%
G71*
G01*
G75*
%ADD28R,0.4008X0.6048*%
%ADD32R,0.6048X0.4008*%
%ADD37R,2.6924X0.9906*%
%ADD44R,0.6000X0.7000*%
%ADD45R,2.9000X2.9000*%
%ADD46R,0.3500X0.8500*%
%ADD47R,0.3500X0.9000*%
%ADD48R,0.8500X0.3500*%
%ADD49R,0.9000X0.3500*%
%ADD50R,0.7000X0.6000*%
%ADD51C,0.6000*%
%ADD52R,0.7477X0.4000*%
%ADD53R,0.4000X0.7477*%
%ADD54R,0.6000X2.1000*%
%ADD55R,4.6000X5.8500*%
%ADD56R,5.8500X4.6000*%
%ADD57R,1.3000X0.6588*%
%ADD58R,6.1000X4.1000*%
%ADD59R,4.1000X6.1000*%
%ADD60R,0.9000X1.0000*%
%ADD61R,1.2500X0.7500*%
%ADD62R,1.2000X1.6000*%
%ADD63R,1.0500X1.0000*%
%ADD64R,0.9000X1.0500*%
%ADD65R,1.5000X2.1000*%
%ADD66R,1.5000X1.0500*%
%ADD67R,1.0500X1.5000*%
%ADD68C,4.6000*%
%ADD69C,1.5000*%
%ADD70C,0.5572*%
%ADD71C,0.9890*%
G36*
X-232988Y-195000D02*
X-280988Y-195000D01*
X-280988Y-243000D01*
X-232988Y-243000D01*
X-232988Y-233750D01*
X-237988Y-233750D01*
Y-229500D01*
X-232988D01*
Y-221250D01*
X-237988D01*
Y-216750D01*
X-232988D01*
Y-208500D01*
X-237988D01*
Y-204250D01*
X-232988D01*
X-232988Y-195000D01*
D02*
G37*
G36*
Y-132000D02*
X-280988Y-132000D01*
X-280988Y-180000D01*
X-232988Y-180000D01*
X-232988Y-170750D01*
X-237988Y-170750D01*
Y-166500D01*
X-232988D01*
Y-158250D01*
X-237988D01*
Y-153750D01*
X-232988D01*
Y-145500D01*
X-237988D01*
Y-141250D01*
X-232988D01*
X-232988Y-132000D01*
D02*
G37*
G36*
Y-77000D02*
X-280988Y-77000D01*
X-280988Y-125000D01*
X-232988Y-125000D01*
X-232988Y-115750D01*
X-237988Y-115750D01*
Y-111500D01*
X-232988D01*
Y-103250D01*
X-237988D01*
Y-98750D01*
X-232988D01*
Y-90500D01*
X-237988D01*
Y-86250D01*
X-232988D01*
X-232988Y-77000D01*
D02*
G37*
G36*
X-232988Y133000D02*
X-280988Y133000D01*
X-280988Y85000D01*
X-232988Y85000D01*
X-232988Y94250D01*
X-237988D01*
Y98500D01*
X-232988D01*
Y106750D01*
X-237988D01*
Y111250D01*
X-232988D01*
Y119500D01*
X-237988D01*
Y123750D01*
X-232988D01*
X-232988Y133000D01*
D02*
G37*
G36*
Y188000D02*
X-280988D01*
X-280988Y140000D01*
X-232988Y140000D01*
X-232988Y149250D01*
X-237988Y149250D01*
Y153500D01*
X-232988D01*
Y161750D01*
X-237988D01*
Y166250D01*
X-232988D01*
Y174500D01*
X-237988D01*
Y178750D01*
X-232988D01*
X-232988Y188000D01*
D02*
G37*
G36*
Y243000D02*
X-280988Y243000D01*
X-280988Y195000D01*
X-232988Y195000D01*
X-232988Y204250D01*
X-237988Y204250D01*
Y208500D01*
X-232988D01*
Y216750D01*
X-237988D01*
Y221250D01*
X-232988D01*
Y229500D01*
X-237988D01*
Y233750D01*
X-232988D01*
X-232988Y243000D01*
D02*
G37*
G36*
X232734Y-243000D02*
X280734Y-243000D01*
X280734Y-195000D01*
X232734Y-195000D01*
X232734Y-204250D01*
X237734Y-204250D01*
Y-208500D01*
X232734D01*
Y-216750D01*
X237734D01*
Y-221250D01*
X232734D01*
Y-229500D01*
X237734D01*
Y-233750D01*
X232734D01*
X232734Y-243000D01*
D02*
G37*
G36*
Y-188000D02*
X280734Y-188000D01*
X280734Y-140000D01*
X232734Y-140000D01*
X232734Y-149250D01*
X237734Y-149250D01*
Y-153500D01*
X232734D01*
Y-161750D01*
X237734D01*
Y-166250D01*
X232734D01*
Y-174500D01*
X237734D01*
Y-178750D01*
X232734D01*
X232734Y-188000D01*
D02*
G37*
G36*
Y-133000D02*
X280734Y-133000D01*
X280734Y-85000D01*
X232734Y-85000D01*
X232734Y-94250D01*
X237734Y-94250D01*
Y-98500D01*
X232734D01*
Y-106750D01*
X237734D01*
Y-111250D01*
X232734D01*
Y-119500D01*
X237734D01*
Y-123750D01*
X232734D01*
X232734Y-133000D01*
D02*
G37*
G36*
X232734Y76999D02*
X280734Y76999D01*
X280734Y124999D01*
X232735Y124999D01*
X232735Y115749D01*
X237734D01*
Y111499D01*
X232734D01*
Y103249D01*
X237734D01*
Y98749D01*
X232734D01*
Y90499D01*
X237734D01*
Y86249D01*
X232734D01*
X232734Y76999D01*
D02*
G37*
G36*
Y131999D02*
X280734Y131999D01*
X280734Y179999D01*
X232735Y179999D01*
X232735Y170749D01*
X237734D01*
Y166499D01*
X232734D01*
Y158249D01*
X237734D01*
Y153749D01*
X232734D01*
Y145499D01*
X237734D01*
Y141249D01*
X232734D01*
X232734Y131999D01*
D02*
G37*
G36*
X232734Y194999D02*
X280734Y194999D01*
X280734Y242999D01*
X232735Y242999D01*
X232735Y233749D01*
X237734Y233749D01*
Y229499D01*
X232734D01*
Y221249D01*
X237734D01*
Y216749D01*
X232734D01*
Y208499D01*
X237734D01*
Y204249D01*
X232734D01*
Y194999D01*
D02*
G37*
D28*
X207250Y133148D02*
D03*
Y116100D02*
D03*
Y161523D02*
D03*
Y144475D02*
D03*
Y104773D02*
D03*
Y87725D02*
D03*
X-207250Y-116101D02*
D03*
Y-133149D02*
D03*
Y-144476D02*
D03*
Y-161524D02*
D03*
Y-87726D02*
D03*
Y-104774D02*
D03*
X207250Y-116851D02*
D03*
Y-133899D02*
D03*
Y-88476D02*
D03*
Y-105524D02*
D03*
Y-145226D02*
D03*
Y-162274D02*
D03*
X-207250Y116851D02*
D03*
Y133899D02*
D03*
Y145226D02*
D03*
Y162274D02*
D03*
Y88476D02*
D03*
Y105524D02*
D03*
X-53000Y-202282D02*
D03*
Y-185234D02*
D03*
X53000Y-47718D02*
D03*
Y-64766D02*
D03*
X53000Y202535D02*
D03*
Y185487D02*
D03*
X-53000Y47718D02*
D03*
Y64766D02*
D03*
D32*
X-116476Y-23750D02*
D03*
X-133524D02*
D03*
X116476Y-226250D02*
D03*
X133524D02*
D03*
X116476Y23749D02*
D03*
X133524D02*
D03*
X-116476Y226250D02*
D03*
X-133524D02*
D03*
X-24476Y-189250D02*
D03*
X-41524D02*
D03*
X24476Y-60750D02*
D03*
X41524D02*
D03*
X24476Y189249D02*
D03*
X41524D02*
D03*
X-24476Y60750D02*
D03*
X-41524D02*
D03*
D37*
X-45502Y-89174D02*
D03*
Y-111018D02*
D03*
X45502Y-160826D02*
D03*
Y-138982D02*
D03*
X45502Y89173D02*
D03*
Y111018D02*
D03*
X-45502Y160826D02*
D03*
Y138982D02*
D03*
D44*
X-270000Y-187500D02*
D03*
X-280000D02*
D03*
X-36322Y-36576D02*
D03*
X-46322D02*
D03*
X-93500Y-14000D02*
D03*
X-83500D02*
D03*
X-77500Y243750D02*
D03*
X-67500D02*
D03*
X33750Y15000D02*
D03*
X23750D02*
D03*
X66294Y-219202D02*
D03*
X56294D02*
D03*
X-76454Y-48006D02*
D03*
X-66454D02*
D03*
X-93250Y227000D02*
D03*
X-103250D02*
D03*
X54750Y35000D02*
D03*
X64750D02*
D03*
X-87790Y-25146D02*
D03*
X-97790D02*
D03*
X-41750Y218500D02*
D03*
X-51750D02*
D03*
X-100000Y18500D02*
D03*
X-110000D02*
D03*
X131238Y-18034D02*
D03*
X121238D02*
D03*
X107250Y231499D02*
D03*
X117250D02*
D03*
X-160250Y242250D02*
D03*
X-170250D02*
D03*
X-171002Y-251574D02*
D03*
X-161002D02*
D03*
X125000Y-292346D02*
D03*
X115000D02*
D03*
X171002Y251573D02*
D03*
X161002D02*
D03*
X-125000Y292346D02*
D03*
X-115000D02*
D03*
X-190252Y-7836D02*
D03*
X-180252D02*
D03*
X-170250Y-7750D02*
D03*
X-160250D02*
D03*
X170250Y7749D02*
D03*
X160250D02*
D03*
X190252Y7835D02*
D03*
X180252D02*
D03*
X190252Y18824D02*
D03*
X180252D02*
D03*
X160752Y61095D02*
D03*
X170752D02*
D03*
X181502D02*
D03*
X191502D02*
D03*
X170250Y-242250D02*
D03*
X160250D02*
D03*
X190252Y-242164D02*
D03*
X180252D02*
D03*
X184156Y-231175D02*
D03*
X174156D02*
D03*
X160752Y-188904D02*
D03*
X170752D02*
D03*
X181502D02*
D03*
X191502D02*
D03*
X-190252Y-18825D02*
D03*
X-180252D02*
D03*
X-160752Y-61096D02*
D03*
X-170752D02*
D03*
X-181502D02*
D03*
X-191502D02*
D03*
X-190252Y242164D02*
D03*
X-180252D02*
D03*
X-181502Y188904D02*
D03*
X-191502D02*
D03*
X-160752D02*
D03*
X-170752D02*
D03*
X-185252Y231175D02*
D03*
X-175252D02*
D03*
X-123970Y-75498D02*
D03*
X-133970D02*
D03*
X123970Y-174502D02*
D03*
X133970D02*
D03*
X123971Y75497D02*
D03*
X133971D02*
D03*
X-123970Y174502D02*
D03*
X-133970D02*
D03*
X-87976Y-194872D02*
D03*
X-97976D02*
D03*
X87976Y-55128D02*
D03*
X97976D02*
D03*
X87976Y194871D02*
D03*
X97976D02*
D03*
X-87976Y55128D02*
D03*
X-97976D02*
D03*
X-176250Y-289824D02*
D03*
X-166250D02*
D03*
X130248Y-254096D02*
D03*
X120248D02*
D03*
X176250Y289823D02*
D03*
X166250D02*
D03*
X-130248Y254097D02*
D03*
X-120248D02*
D03*
X-176250Y-277699D02*
D03*
X-166250D02*
D03*
X130248Y-266221D02*
D03*
X120248D02*
D03*
X176250Y277698D02*
D03*
X166250D02*
D03*
X-130248Y266222D02*
D03*
X-120248D02*
D03*
X-84930Y-218440D02*
D03*
X-74930D02*
D03*
X100858Y-17920D02*
D03*
X110858D02*
D03*
X-176250Y-265574D02*
D03*
X-166250D02*
D03*
X130248Y-278346D02*
D03*
X120248D02*
D03*
X176250Y265573D02*
D03*
X166250D02*
D03*
X-130248Y278346D02*
D03*
X-120248D02*
D03*
X-143769Y-75498D02*
D03*
X-153769D02*
D03*
X143769Y-174502D02*
D03*
X153769D02*
D03*
X143770Y75497D02*
D03*
X153770D02*
D03*
X-143769Y174502D02*
D03*
X-153769D02*
D03*
X3436Y-163322D02*
D03*
X-6564D02*
D03*
X63750Y-2500D02*
D03*
X53750D02*
D03*
X-3436Y163321D02*
D03*
X6564D02*
D03*
X-63750Y2500D02*
D03*
X-53750D02*
D03*
X-177357Y-108939D02*
D03*
X-187357D02*
D03*
X177357Y-141061D02*
D03*
X187357D02*
D03*
X177357Y108938D02*
D03*
X187357D02*
D03*
X-177357Y141061D02*
D03*
X-187357D02*
D03*
X-176599Y-146562D02*
D03*
X-186599D02*
D03*
X176599Y-103438D02*
D03*
X186599D02*
D03*
X176600Y146561D02*
D03*
X186600D02*
D03*
X-176599Y103438D02*
D03*
X-186599D02*
D03*
X-173228Y-188722D02*
D03*
X-183228D02*
D03*
X176119Y-61895D02*
D03*
X186119D02*
D03*
X173228Y188721D02*
D03*
X183228D02*
D03*
X-176119Y61895D02*
D03*
X-186119D02*
D03*
X3516Y-174752D02*
D03*
X-6484D02*
D03*
X-3516Y174751D02*
D03*
X6484D02*
D03*
X-177252Y-80096D02*
D03*
X-187252D02*
D03*
X177252Y-169904D02*
D03*
X187252D02*
D03*
X177252Y80096D02*
D03*
X187252D02*
D03*
X-177252Y169904D02*
D03*
X-187252D02*
D03*
X-177180Y-120783D02*
D03*
X-187180D02*
D03*
X177180Y-129217D02*
D03*
X187180D02*
D03*
X177180Y120782D02*
D03*
X187180D02*
D03*
X-177180Y129217D02*
D03*
X-187180D02*
D03*
X-176473Y-158406D02*
D03*
X-186473D02*
D03*
X176473Y-91594D02*
D03*
X186473D02*
D03*
X176473Y158406D02*
D03*
X186473D02*
D03*
X-176473Y91594D02*
D03*
X-186473D02*
D03*
X-58250Y-174488D02*
D03*
X-48250D02*
D03*
X58250Y-75766D02*
D03*
X48250D02*
D03*
X58250Y174487D02*
D03*
X48250D02*
D03*
X-58250Y75766D02*
D03*
X-48250D02*
D03*
X-35000Y-212750D02*
D03*
X-45000D02*
D03*
X35000Y-37250D02*
D03*
X45000D02*
D03*
X35000Y212749D02*
D03*
X45000D02*
D03*
X-35000Y37250D02*
D03*
X-45000D02*
D03*
X-27884Y-201477D02*
D03*
X-37884D02*
D03*
X27884Y-48523D02*
D03*
X37884D02*
D03*
X27884Y201476D02*
D03*
X37884D02*
D03*
X-27884Y48523D02*
D03*
X-37884D02*
D03*
X-86252Y-78346D02*
D03*
X-96252D02*
D03*
X86252Y-171654D02*
D03*
X96252D02*
D03*
X86252Y78345D02*
D03*
X96252D02*
D03*
X-86252Y171654D02*
D03*
X-96252D02*
D03*
X-88752Y-179096D02*
D03*
X-78752D02*
D03*
X88752Y-70904D02*
D03*
X78752D02*
D03*
X88752Y179095D02*
D03*
X78752D02*
D03*
X-88752Y70904D02*
D03*
X-78752D02*
D03*
D45*
X-118523Y-131220D02*
D03*
X118523Y-118779D02*
D03*
X118523Y131220D02*
D03*
X-118523Y118780D02*
D03*
D46*
X-91023Y-165720D02*
D03*
X-146023D02*
D03*
Y-96720D02*
D03*
X-91023D02*
D03*
X91023Y-84279D02*
D03*
X146023D02*
D03*
Y-153280D02*
D03*
X91023D02*
D03*
X91023Y165720D02*
D03*
X146023D02*
D03*
Y96720D02*
D03*
X91023D02*
D03*
X-91023Y84280D02*
D03*
X-146023D02*
D03*
Y153280D02*
D03*
X-91023D02*
D03*
D47*
X-96023Y-165470D02*
D03*
X-101023D02*
D03*
X-106023D02*
D03*
X-111023D02*
D03*
X-116023D02*
D03*
X-121023D02*
D03*
X-126023D02*
D03*
X-131023D02*
D03*
X-136023D02*
D03*
X-141023D02*
D03*
Y-96970D02*
D03*
X-136023D02*
D03*
X-131023D02*
D03*
X-126023D02*
D03*
X-121023D02*
D03*
X-116023D02*
D03*
X-111023D02*
D03*
X-106023D02*
D03*
X-101023D02*
D03*
X-96023D02*
D03*
X96023Y-84529D02*
D03*
X101023D02*
D03*
X106023D02*
D03*
X111023D02*
D03*
X116023D02*
D03*
X121023D02*
D03*
X126023D02*
D03*
X131023D02*
D03*
X136023D02*
D03*
X141023D02*
D03*
Y-153029D02*
D03*
X136023D02*
D03*
X131023D02*
D03*
X126023D02*
D03*
X121023D02*
D03*
X116023D02*
D03*
X111023D02*
D03*
X106023D02*
D03*
X101023D02*
D03*
X96023D02*
D03*
X96023Y165470D02*
D03*
X101023D02*
D03*
X106023D02*
D03*
X111023D02*
D03*
X116023D02*
D03*
X121023D02*
D03*
X126023D02*
D03*
X131023D02*
D03*
X136023D02*
D03*
X141023D02*
D03*
Y96970D02*
D03*
X136023D02*
D03*
X131023D02*
D03*
X126023D02*
D03*
X121023D02*
D03*
X116023D02*
D03*
X111023D02*
D03*
X106023D02*
D03*
X101023D02*
D03*
X96023D02*
D03*
X-96023Y84530D02*
D03*
X-101023D02*
D03*
X-106023D02*
D03*
X-111023D02*
D03*
X-116023D02*
D03*
X-121023D02*
D03*
X-126023D02*
D03*
X-131023D02*
D03*
X-136023D02*
D03*
X-141023D02*
D03*
Y153030D02*
D03*
X-136023D02*
D03*
X-131023D02*
D03*
X-126023D02*
D03*
X-121023D02*
D03*
X-116023D02*
D03*
X-111023D02*
D03*
X-106023D02*
D03*
X-101023D02*
D03*
X-96023D02*
D03*
D48*
X-153023Y-158720D02*
D03*
Y-103720D02*
D03*
X-84023D02*
D03*
Y-158720D02*
D03*
X153023Y-91279D02*
D03*
Y-146279D02*
D03*
X84023D02*
D03*
Y-91279D02*
D03*
X153023Y158720D02*
D03*
Y103720D02*
D03*
X84023D02*
D03*
Y158720D02*
D03*
X-153023Y91280D02*
D03*
Y146280D02*
D03*
X-84023D02*
D03*
Y91280D02*
D03*
D49*
X-152773Y-153720D02*
D03*
Y-148720D02*
D03*
Y-143720D02*
D03*
Y-138720D02*
D03*
Y-133720D02*
D03*
Y-128720D02*
D03*
Y-123720D02*
D03*
Y-118720D02*
D03*
Y-113720D02*
D03*
Y-108720D02*
D03*
X-84273D02*
D03*
Y-113720D02*
D03*
Y-118720D02*
D03*
Y-123720D02*
D03*
Y-128720D02*
D03*
Y-133720D02*
D03*
Y-138720D02*
D03*
Y-143720D02*
D03*
Y-148720D02*
D03*
Y-153720D02*
D03*
X152773Y-96279D02*
D03*
Y-101280D02*
D03*
Y-106279D02*
D03*
Y-111279D02*
D03*
Y-116279D02*
D03*
Y-121279D02*
D03*
Y-126280D02*
D03*
Y-131279D02*
D03*
Y-136279D02*
D03*
Y-141279D02*
D03*
X84273D02*
D03*
Y-136279D02*
D03*
Y-131279D02*
D03*
Y-126280D02*
D03*
Y-121279D02*
D03*
Y-116279D02*
D03*
Y-111279D02*
D03*
Y-106279D02*
D03*
Y-101280D02*
D03*
Y-96279D02*
D03*
X152773Y153720D02*
D03*
Y148720D02*
D03*
Y143720D02*
D03*
Y138720D02*
D03*
Y133720D02*
D03*
Y128720D02*
D03*
Y123720D02*
D03*
Y118720D02*
D03*
Y113720D02*
D03*
Y108720D02*
D03*
X84273D02*
D03*
Y113720D02*
D03*
Y118720D02*
D03*
Y123720D02*
D03*
Y128720D02*
D03*
Y133720D02*
D03*
Y138720D02*
D03*
Y143720D02*
D03*
Y148720D02*
D03*
Y153720D02*
D03*
X-152773Y96280D02*
D03*
Y101280D02*
D03*
Y106280D02*
D03*
Y111280D02*
D03*
Y116280D02*
D03*
Y121280D02*
D03*
Y126280D02*
D03*
Y131280D02*
D03*
Y136280D02*
D03*
Y141280D02*
D03*
X-84273D02*
D03*
Y136280D02*
D03*
Y131280D02*
D03*
Y126280D02*
D03*
Y121280D02*
D03*
Y116280D02*
D03*
Y111280D02*
D03*
Y106280D02*
D03*
Y101280D02*
D03*
Y96280D02*
D03*
D50*
X-94000Y238500D02*
D03*
Y248500D02*
D03*
X55250Y24750D02*
D03*
Y14750D02*
D03*
X56896Y-198454D02*
D03*
Y-208454D02*
D03*
X68072Y-208534D02*
D03*
Y-198534D02*
D03*
X12500Y30000D02*
D03*
Y40000D02*
D03*
X20066Y-213200D02*
D03*
Y-203200D02*
D03*
X-117250Y-241500D02*
D03*
Y-231500D02*
D03*
X150002Y38845D02*
D03*
Y28845D02*
D03*
Y58846D02*
D03*
Y48845D02*
D03*
X203002Y20596D02*
D03*
Y30596D02*
D03*
Y40595D02*
D03*
Y50595D02*
D03*
X150002Y-211154D02*
D03*
Y-221154D02*
D03*
Y-191154D02*
D03*
Y-201154D02*
D03*
X203002Y-229404D02*
D03*
Y-219404D02*
D03*
Y-209404D02*
D03*
Y-199404D02*
D03*
X-150002Y-38846D02*
D03*
Y-28846D02*
D03*
Y-58846D02*
D03*
Y-48846D02*
D03*
X-203002Y-20596D02*
D03*
Y-30596D02*
D03*
Y-40596D02*
D03*
Y-50596D02*
D03*
Y209404D02*
D03*
Y199404D02*
D03*
X-150002Y191154D02*
D03*
Y201154D02*
D03*
X-203002Y229404D02*
D03*
Y219404D02*
D03*
X-150002Y211154D02*
D03*
Y221154D02*
D03*
X-68502Y-158846D02*
D03*
Y-168846D02*
D03*
X68502Y-91154D02*
D03*
Y-81154D02*
D03*
X68502Y158846D02*
D03*
Y168846D02*
D03*
X-68502Y91154D02*
D03*
Y81154D02*
D03*
X84074Y223172D02*
D03*
Y233172D02*
D03*
X-83750Y34750D02*
D03*
Y24750D02*
D03*
X-139132Y-220274D02*
D03*
Y-210274D02*
D03*
X139132Y-29726D02*
D03*
Y-39726D02*
D03*
X139132Y220273D02*
D03*
Y210273D02*
D03*
X-139132Y29726D02*
D03*
Y39726D02*
D03*
X-105500Y-47000D02*
D03*
Y-37000D02*
D03*
X105500Y-203000D02*
D03*
Y-213000D02*
D03*
X105500Y46999D02*
D03*
Y36999D02*
D03*
X-105500Y199500D02*
D03*
Y209500D02*
D03*
X-127194Y-220274D02*
D03*
Y-210274D02*
D03*
X127194Y-29726D02*
D03*
Y-39726D02*
D03*
X127194Y220273D02*
D03*
Y210273D02*
D03*
X-127194Y29726D02*
D03*
Y39726D02*
D03*
X-93750Y-37000D02*
D03*
Y-47000D02*
D03*
X93750Y-213000D02*
D03*
Y-203000D02*
D03*
X93750Y36999D02*
D03*
Y46999D02*
D03*
X-93750Y209500D02*
D03*
Y199500D02*
D03*
X-135751Y-190710D02*
D03*
Y-180710D02*
D03*
X135751Y-59290D02*
D03*
Y-69290D02*
D03*
X135751Y190709D02*
D03*
Y180709D02*
D03*
X-135751Y59290D02*
D03*
Y69290D02*
D03*
X-124233Y-190710D02*
D03*
Y-180710D02*
D03*
X124233Y-59290D02*
D03*
Y-69290D02*
D03*
X124233Y190709D02*
D03*
Y180709D02*
D03*
X-124233Y59290D02*
D03*
Y69290D02*
D03*
X-158786Y-190710D02*
D03*
Y-180710D02*
D03*
X158786Y-59290D02*
D03*
Y-69290D02*
D03*
X158786Y190709D02*
D03*
Y180709D02*
D03*
X-158786Y59290D02*
D03*
Y69290D02*
D03*
X-147268Y-190710D02*
D03*
Y-180710D02*
D03*
X147268Y-59290D02*
D03*
Y-69290D02*
D03*
X147269Y190709D02*
D03*
Y180709D02*
D03*
X-147268Y59290D02*
D03*
Y69290D02*
D03*
X-110175Y-190710D02*
D03*
Y-180710D02*
D03*
X110175Y-59290D02*
D03*
Y-69290D02*
D03*
X110176Y190709D02*
D03*
Y180709D02*
D03*
X-110175Y59290D02*
D03*
Y69290D02*
D03*
X79750Y-14250D02*
D03*
Y-4250D02*
D03*
X-79750Y14250D02*
D03*
Y4250D02*
D03*
X-68752Y-105596D02*
D03*
Y-95596D02*
D03*
X68752Y-144404D02*
D03*
Y-154404D02*
D03*
X68752Y105596D02*
D03*
Y95596D02*
D03*
X-68752Y144404D02*
D03*
Y154404D02*
D03*
X-68573Y-138673D02*
D03*
Y-148673D02*
D03*
X68573Y-111327D02*
D03*
Y-101327D02*
D03*
X68574Y138672D02*
D03*
Y148672D02*
D03*
X-68573Y111327D02*
D03*
Y101327D02*
D03*
X-65750Y-200750D02*
D03*
Y-190750D02*
D03*
X65750Y-49250D02*
D03*
Y-59250D02*
D03*
X65750Y200749D02*
D03*
Y190749D02*
D03*
X-65750Y49250D02*
D03*
Y59250D02*
D03*
D51*
X-41750Y207500D02*
D03*
X10000Y-211250D02*
D03*
X12500Y19750D02*
D03*
X-25400Y-36576D02*
D03*
X124400Y200585D02*
D03*
X124400Y-49414D02*
D03*
X-124400Y-200586D02*
D03*
Y49414D02*
D03*
X-124752Y-63596D02*
D03*
X124752Y-186404D02*
D03*
X124752Y63595D02*
D03*
X-124752Y186404D02*
D03*
X-113252Y-63596D02*
D03*
X113252Y-186404D02*
D03*
X113252Y63595D02*
D03*
X-113252Y186404D02*
D03*
X-144085Y-200586D02*
D03*
X144085Y-49414D02*
D03*
X144085Y200585D02*
D03*
X-144085Y49414D02*
D03*
X-101752Y-63596D02*
D03*
X101752Y-186404D02*
D03*
X101753Y63595D02*
D03*
X-101752Y186404D02*
D03*
X-136252Y-63596D02*
D03*
X136252Y-186404D02*
D03*
X136252Y63595D02*
D03*
X-136252Y186404D02*
D03*
X-134242Y-200586D02*
D03*
X134242Y-49414D02*
D03*
X134243Y200585D02*
D03*
X-134242Y49414D02*
D03*
X-163770Y-200586D02*
D03*
X163770Y-49414D02*
D03*
X163770Y200585D02*
D03*
X-163770Y49414D02*
D03*
X-68002Y-180096D02*
D03*
X68002Y-69904D02*
D03*
X68002Y180095D02*
D03*
X-68002Y69904D02*
D03*
X-153927Y-200586D02*
D03*
X153927Y-49414D02*
D03*
X153928Y200585D02*
D03*
X-153927Y49414D02*
D03*
X-63500Y-212598D02*
D03*
X85002Y-36654D02*
D03*
X85002Y213346D02*
D03*
X-71188Y36937D02*
D03*
X-88502Y-64346D02*
D03*
X88502Y-185654D02*
D03*
X78486Y64516D02*
D03*
X-88502Y185654D02*
D03*
X-33722Y-123876D02*
D03*
X33722Y-126124D02*
D03*
X33722Y123876D02*
D03*
X-33722Y126124D02*
D03*
X-55626Y-51308D02*
D03*
X4572Y-139192D02*
D03*
X63752Y50845D02*
D03*
X-63752Y199154D02*
D03*
X-99082Y-184095D02*
D03*
X99082Y-65904D02*
D03*
X99083Y184095D02*
D03*
X-99082Y65904D02*
D03*
X-158752Y-87096D02*
D03*
X158752Y-162904D02*
D03*
X158752Y87095D02*
D03*
X-158752Y162904D02*
D03*
X-101001Y-260001D02*
D03*
X100999D02*
D03*
X135850Y237099D02*
D03*
X146010Y287899D02*
D03*
X125690Y287899D02*
D03*
X164850Y-21100D02*
D03*
X215650Y-31260D02*
D03*
X215650Y-10940D02*
D03*
X-135850Y-237100D02*
D03*
X-146010Y-287900D02*
D03*
X-125690D02*
D03*
X-165752Y27011D02*
D03*
X-216552Y37171D02*
D03*
Y16851D02*
D03*
D52*
X-82500Y231750D02*
D03*
Y225250D02*
D03*
Y218750D02*
D03*
X-62053D02*
D03*
Y231750D02*
D03*
X44474Y26750D02*
D03*
Y33250D02*
D03*
Y39750D02*
D03*
X24027D02*
D03*
Y26750D02*
D03*
X-77280Y-23472D02*
D03*
Y-29972D02*
D03*
Y-36472D02*
D03*
X-56832D02*
D03*
Y-23472D02*
D03*
X-95380Y-219784D02*
D03*
X-95380Y-213284D02*
D03*
X-95380Y-206784D02*
D03*
X-115827D02*
D03*
Y-219784D02*
D03*
X95380Y-30216D02*
D03*
X95380Y-36716D02*
D03*
X95380Y-43216D02*
D03*
X115827D02*
D03*
Y-30216D02*
D03*
X95381Y219783D02*
D03*
X95381Y213284D02*
D03*
X95381Y206784D02*
D03*
X115828D02*
D03*
Y219783D02*
D03*
X-95380Y30216D02*
D03*
X-95380Y36716D02*
D03*
X-95380Y43216D02*
D03*
X-115827D02*
D03*
Y30216D02*
D03*
D53*
X44854Y-198818D02*
D03*
X38354D02*
D03*
X31854D02*
D03*
Y-219265D02*
D03*
X44854D02*
D03*
D54*
X75999Y-282001D02*
D03*
X67999D02*
D03*
X59999D02*
D03*
X51999D02*
D03*
X43999D02*
D03*
X35999D02*
D03*
X27999D02*
D03*
X19999D02*
D03*
X11999D02*
D03*
X3999D02*
D03*
X-4001D02*
D03*
X-12001D02*
D03*
X-20001D02*
D03*
X-28001D02*
D03*
X-36001D02*
D03*
X-44001D02*
D03*
X-52001D02*
D03*
X-60001D02*
D03*
X-68001D02*
D03*
X-76001D02*
D03*
X75999Y-238001D02*
D03*
X67999D02*
D03*
X59999D02*
D03*
X51999D02*
D03*
X43999D02*
D03*
X35999D02*
D03*
X27999D02*
D03*
X19999D02*
D03*
X11999D02*
D03*
X3999D02*
D03*
X-4001D02*
D03*
X-12001D02*
D03*
X-20001D02*
D03*
X-28001D02*
D03*
X-36001D02*
D03*
X-44001D02*
D03*
X-52001D02*
D03*
X-60001D02*
D03*
X-68001D02*
D03*
X-76001D02*
D03*
D55*
X325000Y237499D02*
D03*
Y169999D02*
D03*
Y102499D02*
D03*
X-325000Y-237500D02*
D03*
Y-170000D02*
D03*
Y-102500D02*
D03*
X325000D02*
D03*
Y-170000D02*
D03*
Y-237500D02*
D03*
X-325000Y237500D02*
D03*
Y170000D02*
D03*
Y102500D02*
D03*
D56*
X90000Y325000D02*
D03*
X-87500D02*
D03*
D57*
X164487Y30074D02*
D03*
Y49074D02*
D03*
X188363D02*
D03*
Y39574D02*
D03*
Y30074D02*
D03*
X164487Y-219925D02*
D03*
Y-200925D02*
D03*
X188363D02*
D03*
Y-210425D02*
D03*
Y-219925D02*
D03*
X-164487Y-30075D02*
D03*
Y-49075D02*
D03*
X-188363D02*
D03*
Y-39575D02*
D03*
Y-30075D02*
D03*
X-164487Y219925D02*
D03*
Y200925D02*
D03*
X-188363D02*
D03*
Y210425D02*
D03*
Y219925D02*
D03*
D58*
X265000Y0D02*
D03*
X-265000D02*
D03*
D59*
X0Y260604D02*
D03*
D60*
X-1016Y-208882D02*
D03*
X-10516Y-188882D02*
D03*
X8484D02*
D03*
X58250Y-34750D02*
D03*
X48750Y-14750D02*
D03*
X67750D02*
D03*
X1016Y208881D02*
D03*
X10516Y188881D02*
D03*
X-8484D02*
D03*
X-58250Y34750D02*
D03*
X-48750Y14750D02*
D03*
X-67750D02*
D03*
X-27500Y-156000D02*
D03*
X-18000Y-176000D02*
D03*
X-37000D02*
D03*
X27500Y-94000D02*
D03*
X18000Y-74000D02*
D03*
X37000D02*
D03*
X27500Y155999D02*
D03*
X18000Y175999D02*
D03*
X37000D02*
D03*
X-27500Y94000D02*
D03*
X-18000Y74000D02*
D03*
X-37000D02*
D03*
D61*
X-239738Y-81950D02*
D03*
Y-94650D02*
D03*
Y-107350D02*
D03*
Y-120050D02*
D03*
X-293738Y-81950D02*
D03*
Y-94650D02*
D03*
Y-107350D02*
D03*
Y-120050D02*
D03*
X239484Y-238050D02*
D03*
Y-225350D02*
D03*
Y-212650D02*
D03*
Y-199950D02*
D03*
X293484Y-238050D02*
D03*
Y-225350D02*
D03*
Y-212650D02*
D03*
Y-199950D02*
D03*
X239484Y81949D02*
D03*
Y94649D02*
D03*
Y107349D02*
D03*
Y120049D02*
D03*
X293484Y81949D02*
D03*
Y94649D02*
D03*
Y107349D02*
D03*
Y120049D02*
D03*
X-239738Y238050D02*
D03*
Y225350D02*
D03*
Y212650D02*
D03*
Y199950D02*
D03*
X-293738Y238050D02*
D03*
Y225350D02*
D03*
Y212650D02*
D03*
Y199950D02*
D03*
X-239738Y-199950D02*
D03*
Y-212650D02*
D03*
Y-225350D02*
D03*
Y-238050D02*
D03*
X-293738Y-199950D02*
D03*
Y-212650D02*
D03*
Y-225350D02*
D03*
Y-238050D02*
D03*
X239484Y-128050D02*
D03*
Y-115350D02*
D03*
Y-102650D02*
D03*
Y-89950D02*
D03*
X293484Y-128050D02*
D03*
Y-115350D02*
D03*
Y-102650D02*
D03*
Y-89950D02*
D03*
X239484Y199949D02*
D03*
Y212649D02*
D03*
Y225349D02*
D03*
Y238049D02*
D03*
X293484Y199949D02*
D03*
Y212649D02*
D03*
Y225349D02*
D03*
Y238049D02*
D03*
X-239738Y128050D02*
D03*
Y115350D02*
D03*
Y102650D02*
D03*
Y89950D02*
D03*
X-293738Y128050D02*
D03*
Y115350D02*
D03*
Y102650D02*
D03*
Y89950D02*
D03*
X-239738Y-136950D02*
D03*
Y-149650D02*
D03*
Y-162350D02*
D03*
Y-175050D02*
D03*
X-293738Y-136950D02*
D03*
Y-149650D02*
D03*
Y-162350D02*
D03*
Y-175050D02*
D03*
X239484Y-183050D02*
D03*
Y-170350D02*
D03*
Y-157650D02*
D03*
Y-144950D02*
D03*
X293484Y-183050D02*
D03*
Y-170350D02*
D03*
Y-157650D02*
D03*
Y-144950D02*
D03*
X239484Y136949D02*
D03*
Y149649D02*
D03*
Y162349D02*
D03*
Y175049D02*
D03*
X293484Y136949D02*
D03*
Y149649D02*
D03*
Y162349D02*
D03*
Y175049D02*
D03*
X-239738Y183050D02*
D03*
Y170350D02*
D03*
Y157650D02*
D03*
Y144950D02*
D03*
X-293738Y183050D02*
D03*
Y170350D02*
D03*
Y157650D02*
D03*
Y144950D02*
D03*
D62*
X-207250Y-255824D02*
D03*
Y-285824D02*
D03*
X-192250Y-285824D02*
D03*
Y-255824D02*
D03*
X161248Y-288096D02*
D03*
Y-258096D02*
D03*
X146248Y-258096D02*
D03*
Y-288096D02*
D03*
X207250Y255823D02*
D03*
Y285823D02*
D03*
X192250Y285823D02*
D03*
Y255823D02*
D03*
X-161248Y288096D02*
D03*
Y258096D02*
D03*
X-146248Y258096D02*
D03*
Y288096D02*
D03*
D63*
X-19252Y-123096D02*
D03*
Y-88596D02*
D03*
X19252Y-126904D02*
D03*
Y-161404D02*
D03*
X19252Y123096D02*
D03*
Y88596D02*
D03*
X-19252Y126904D02*
D03*
Y161404D02*
D03*
D64*
X-194002Y-95595D02*
D03*
X-179002Y-95597D02*
D03*
X194002Y-154404D02*
D03*
X179002Y-154403D02*
D03*
X194002Y95595D02*
D03*
X179002Y95596D02*
D03*
X-194002Y154404D02*
D03*
X-179002Y154403D02*
D03*
X-193039Y-133834D02*
D03*
X-178039Y-133835D02*
D03*
X193039Y-116166D02*
D03*
X178039Y-116165D02*
D03*
X193039Y133833D02*
D03*
X178039Y133834D02*
D03*
X-193039Y116166D02*
D03*
X-178039Y116165D02*
D03*
X-52500Y-125576D02*
D03*
X-67500Y-125574D02*
D03*
X52500Y-124424D02*
D03*
X67500Y-124426D02*
D03*
X52500Y125575D02*
D03*
X67500Y125573D02*
D03*
X-52500Y124424D02*
D03*
X-67500Y124426D02*
D03*
X-192862Y-174315D02*
D03*
X-177862Y-174317D02*
D03*
X192862Y-75684D02*
D03*
X177862Y-75683D02*
D03*
X192862Y174315D02*
D03*
X177862Y174316D02*
D03*
X-192862Y75684D02*
D03*
X-177862Y75683D02*
D03*
D65*
X-27502Y-69346D02*
D03*
X-63502D02*
D03*
X27502Y-180654D02*
D03*
X63502D02*
D03*
X27502Y69345D02*
D03*
X63502D02*
D03*
X-27502Y180654D02*
D03*
X-63502D02*
D03*
D66*
X-52752Y-143346D02*
D03*
Y-161846D02*
D03*
X52752Y-106654D02*
D03*
Y-88154D02*
D03*
X52752Y143345D02*
D03*
Y161845D02*
D03*
X-52752Y106654D02*
D03*
Y88154D02*
D03*
X196500Y-268750D02*
D03*
Y-287250D02*
D03*
X-196750Y268750D02*
D03*
Y287250D02*
D03*
X215875Y-268750D02*
D03*
Y-287250D02*
D03*
X-216125Y268750D02*
D03*
Y287250D02*
D03*
X-233680Y-254148D02*
D03*
Y-272648D02*
D03*
X234696Y263800D02*
D03*
Y282300D02*
D03*
X235250Y-268750D02*
D03*
Y-287250D02*
D03*
X-235500Y268750D02*
D03*
Y287250D02*
D03*
D67*
X-35606Y-139878D02*
D03*
X-17106D02*
D03*
X35606Y-110122D02*
D03*
X17106D02*
D03*
X35606Y139878D02*
D03*
X17106D02*
D03*
X-35606Y110122D02*
D03*
X-17106D02*
D03*
X-218292Y-227330D02*
D03*
X-199792D02*
D03*
X235750Y-52250D02*
D03*
X217250D02*
D03*
X218292Y227329D02*
D03*
X199792D02*
D03*
X-235750Y52250D02*
D03*
X-217250D02*
D03*
X-236250Y-50250D02*
D03*
X-217750D02*
D03*
X236250Y50249D02*
D03*
X217750D02*
D03*
X-272250Y-40250D02*
D03*
X-290750D02*
D03*
X272250Y40749D02*
D03*
X290750D02*
D03*
X-218546Y-208026D02*
D03*
X-200046D02*
D03*
X235750Y-71500D02*
D03*
X217250D02*
D03*
X218546Y208025D02*
D03*
X200046D02*
D03*
X-235750Y71500D02*
D03*
X-217250D02*
D03*
X273000Y-68750D02*
D03*
X291500D02*
D03*
X-273000Y68750D02*
D03*
X-291500D02*
D03*
X-272250Y-62500D02*
D03*
X-290750D02*
D03*
X272250Y62499D02*
D03*
X290750D02*
D03*
D68*
X272500Y272500D02*
D03*
X272500Y-272500D02*
D03*
X-272500D02*
D03*
Y272500D02*
D03*
D69*
X-124252Y-45346D02*
D03*
X124252Y-204654D02*
D03*
X124253Y45346D02*
D03*
X-124252Y204654D02*
D03*
D70*
X325000Y247499D02*
D03*
Y257499D02*
D03*
Y227499D02*
D03*
Y217499D02*
D03*
X335000Y257499D02*
D03*
X345000D02*
D03*
X315000D02*
D03*
X305000D02*
D03*
X335000Y247499D02*
D03*
X345000D02*
D03*
X315000D02*
D03*
X305000D02*
D03*
X335000Y217499D02*
D03*
X345000D02*
D03*
X315000D02*
D03*
X305000D02*
D03*
X335000Y227499D02*
D03*
X345000D02*
D03*
X315000D02*
D03*
X305000D02*
D03*
Y237499D02*
D03*
X315000D02*
D03*
X345000D02*
D03*
X335000D02*
D03*
X325000Y179999D02*
D03*
Y189999D02*
D03*
Y159999D02*
D03*
Y149999D02*
D03*
X335000Y189999D02*
D03*
X345000D02*
D03*
X315000D02*
D03*
X305000D02*
D03*
X335000Y179999D02*
D03*
X345000D02*
D03*
X315000D02*
D03*
X305000D02*
D03*
X335000Y149999D02*
D03*
X345000D02*
D03*
X315000D02*
D03*
X305000D02*
D03*
X335000Y159999D02*
D03*
X345000D02*
D03*
X315000D02*
D03*
X305000D02*
D03*
Y169999D02*
D03*
X315000D02*
D03*
X345000D02*
D03*
X335000D02*
D03*
X325000Y112499D02*
D03*
Y122499D02*
D03*
Y92499D02*
D03*
Y82499D02*
D03*
X335000Y122499D02*
D03*
X345000D02*
D03*
X315000D02*
D03*
X305000D02*
D03*
X335000Y112499D02*
D03*
X345000D02*
D03*
X315000D02*
D03*
X305000D02*
D03*
X335000Y82499D02*
D03*
X345000D02*
D03*
X315000D02*
D03*
X305000D02*
D03*
X335000Y92499D02*
D03*
X345000D02*
D03*
X315000D02*
D03*
X305000D02*
D03*
Y102499D02*
D03*
X315000D02*
D03*
X345000D02*
D03*
X335000D02*
D03*
X-325000Y-247500D02*
D03*
Y-257500D02*
D03*
Y-227500D02*
D03*
Y-217500D02*
D03*
X-335000Y-257500D02*
D03*
X-345000D02*
D03*
X-315000D02*
D03*
X-305000D02*
D03*
X-335000Y-247500D02*
D03*
X-345000D02*
D03*
X-315000D02*
D03*
X-305000D02*
D03*
X-335000Y-217500D02*
D03*
X-345000D02*
D03*
X-315000D02*
D03*
X-305000D02*
D03*
X-335000Y-227500D02*
D03*
X-345000D02*
D03*
X-315000D02*
D03*
X-305000D02*
D03*
Y-237500D02*
D03*
X-315000D02*
D03*
X-345000D02*
D03*
X-335000D02*
D03*
X-325000Y-180000D02*
D03*
Y-190000D02*
D03*
Y-160000D02*
D03*
Y-150000D02*
D03*
X-335000Y-190000D02*
D03*
X-345000D02*
D03*
X-315000D02*
D03*
X-305000D02*
D03*
X-335000Y-180000D02*
D03*
X-345000D02*
D03*
X-315000D02*
D03*
X-305000D02*
D03*
X-335000Y-150000D02*
D03*
X-345000D02*
D03*
X-315000D02*
D03*
X-305000D02*
D03*
X-335000Y-160000D02*
D03*
X-345000D02*
D03*
X-315000D02*
D03*
X-305000D02*
D03*
Y-170000D02*
D03*
X-315000D02*
D03*
X-345000D02*
D03*
X-335000D02*
D03*
X-325000Y-112500D02*
D03*
Y-122500D02*
D03*
Y-92500D02*
D03*
Y-82500D02*
D03*
X-335000Y-122500D02*
D03*
X-345000D02*
D03*
X-315000D02*
D03*
X-305000D02*
D03*
X-335000Y-112500D02*
D03*
X-345000D02*
D03*
X-315000D02*
D03*
X-305000D02*
D03*
X-335000Y-82500D02*
D03*
X-345000D02*
D03*
X-315000D02*
D03*
X-305000D02*
D03*
X-335000Y-92500D02*
D03*
X-345000D02*
D03*
X-315000D02*
D03*
X-305000D02*
D03*
Y-102500D02*
D03*
X-315000D02*
D03*
X-345000D02*
D03*
X-335000D02*
D03*
X325000Y-92500D02*
D03*
Y-82500D02*
D03*
Y-112500D02*
D03*
Y-122500D02*
D03*
X335000Y-82500D02*
D03*
X345000D02*
D03*
X315000D02*
D03*
X305000D02*
D03*
X335000Y-92500D02*
D03*
X345000D02*
D03*
X315000D02*
D03*
X305000D02*
D03*
X335000Y-122500D02*
D03*
X345000D02*
D03*
X315000D02*
D03*
X305000D02*
D03*
X335000Y-112500D02*
D03*
X345000D02*
D03*
X315000D02*
D03*
X305000D02*
D03*
Y-102500D02*
D03*
X315000D02*
D03*
X345000D02*
D03*
X335000D02*
D03*
X325000Y-160000D02*
D03*
Y-150000D02*
D03*
Y-180000D02*
D03*
Y-190000D02*
D03*
X335000Y-150000D02*
D03*
X345000D02*
D03*
X315000D02*
D03*
X305000D02*
D03*
X335000Y-160000D02*
D03*
X345000D02*
D03*
X315000D02*
D03*
X305000D02*
D03*
X335000Y-190000D02*
D03*
X345000D02*
D03*
X315000D02*
D03*
X305000D02*
D03*
X335000Y-180000D02*
D03*
X345000D02*
D03*
X315000D02*
D03*
X305000D02*
D03*
Y-170000D02*
D03*
X315000D02*
D03*
X345000D02*
D03*
X335000D02*
D03*
X325000Y-227500D02*
D03*
Y-217500D02*
D03*
Y-247500D02*
D03*
Y-257500D02*
D03*
X335000Y-217500D02*
D03*
X345000D02*
D03*
X315000D02*
D03*
X305000D02*
D03*
X335000Y-227500D02*
D03*
X345000D02*
D03*
X315000D02*
D03*
X305000D02*
D03*
X335000Y-257500D02*
D03*
X345000D02*
D03*
X315000D02*
D03*
X305000D02*
D03*
X335000Y-247500D02*
D03*
X345000D02*
D03*
X315000D02*
D03*
X305000D02*
D03*
Y-237500D02*
D03*
X315000D02*
D03*
X345000D02*
D03*
X335000D02*
D03*
X-325000Y227500D02*
D03*
Y217500D02*
D03*
Y247500D02*
D03*
Y257500D02*
D03*
X-335000Y217500D02*
D03*
X-345000D02*
D03*
X-315000D02*
D03*
X-305000D02*
D03*
X-335000Y227500D02*
D03*
X-345000D02*
D03*
X-315000D02*
D03*
X-305000D02*
D03*
X-335000Y257500D02*
D03*
X-345000D02*
D03*
X-315000D02*
D03*
X-305000D02*
D03*
X-335000Y247500D02*
D03*
X-345000D02*
D03*
X-315000D02*
D03*
X-305000D02*
D03*
Y237500D02*
D03*
X-315000D02*
D03*
X-345000D02*
D03*
X-335000D02*
D03*
X-325000Y160000D02*
D03*
Y150000D02*
D03*
Y180000D02*
D03*
Y190000D02*
D03*
X-335000Y150000D02*
D03*
X-345000D02*
D03*
X-315000D02*
D03*
X-305000D02*
D03*
X-335000Y160000D02*
D03*
X-345000D02*
D03*
X-315000D02*
D03*
X-305000D02*
D03*
X-335000Y190000D02*
D03*
X-345000D02*
D03*
X-315000D02*
D03*
X-305000D02*
D03*
X-335000Y180000D02*
D03*
X-345000D02*
D03*
X-315000D02*
D03*
X-305000D02*
D03*
Y170000D02*
D03*
X-315000D02*
D03*
X-345000D02*
D03*
X-335000D02*
D03*
X-325000Y92500D02*
D03*
Y82500D02*
D03*
Y112500D02*
D03*
Y122500D02*
D03*
X-335000Y82500D02*
D03*
X-345000D02*
D03*
X-315000D02*
D03*
X-305000D02*
D03*
X-335000Y92500D02*
D03*
X-345000D02*
D03*
X-315000D02*
D03*
X-305000D02*
D03*
X-335000Y122500D02*
D03*
X-345000D02*
D03*
X-315000D02*
D03*
X-305000D02*
D03*
X-335000Y112500D02*
D03*
X-345000D02*
D03*
X-315000D02*
D03*
X-305000D02*
D03*
Y102500D02*
D03*
X-315000D02*
D03*
X-345000D02*
D03*
X-335000D02*
D03*
X100000Y325000D02*
D03*
X110000D02*
D03*
X80000D02*
D03*
X70000D02*
D03*
X110000Y315000D02*
D03*
Y305000D02*
D03*
Y335000D02*
D03*
Y345000D02*
D03*
X100000Y315000D02*
D03*
Y305000D02*
D03*
Y335000D02*
D03*
Y345000D02*
D03*
X70000Y315000D02*
D03*
Y305000D02*
D03*
Y335000D02*
D03*
Y345000D02*
D03*
X80000Y315000D02*
D03*
Y305000D02*
D03*
Y335000D02*
D03*
Y345000D02*
D03*
X90000D02*
D03*
Y335000D02*
D03*
Y305000D02*
D03*
Y315000D02*
D03*
X-77500Y325000D02*
D03*
X-67500D02*
D03*
X-97500D02*
D03*
X-107500D02*
D03*
X-67500Y315000D02*
D03*
Y305000D02*
D03*
Y335000D02*
D03*
Y345000D02*
D03*
X-77500Y315000D02*
D03*
Y305000D02*
D03*
Y335000D02*
D03*
Y345000D02*
D03*
X-107500Y315000D02*
D03*
Y305000D02*
D03*
Y335000D02*
D03*
Y345000D02*
D03*
X-97500Y315000D02*
D03*
Y305000D02*
D03*
Y335000D02*
D03*
Y345000D02*
D03*
X-87500D02*
D03*
Y335000D02*
D03*
Y305000D02*
D03*
Y315000D02*
D03*
D71*
X325000Y237499D02*
D03*
Y169999D02*
D03*
Y102499D02*
D03*
X-325000Y-237500D02*
D03*
Y-170000D02*
D03*
Y-102500D02*
D03*
X325000D02*
D03*
Y-170000D02*
D03*
Y-237500D02*
D03*
X-325000Y237500D02*
D03*
Y170000D02*
D03*
Y102500D02*
D03*
X90000Y325000D02*
D03*
X-87500D02*
D03*
M02*
