G04*
G04 #@! TF.GenerationSoftware,Altium Limited,Altium Designer,19.1.7 (138)*
G04*
G04 Layer_Physical_Order=2*
G04 Layer_Color=36540*
%FSLAX44Y44*%
%MOMM*%
G71*
G01*
G75*
%ADD16C,0.3556*%
%ADD79C,4.5000*%
%ADD81C,0.4500*%
%ADD82C,0.4572*%
%ADD84C,0.8890*%
G36*
X121504Y300000D02*
X121770Y298662D01*
X122528Y297528D01*
X123662Y296770D01*
X124567Y296590D01*
X124525Y295303D01*
X123734Y295199D01*
X121911Y294444D01*
X120346Y293243D01*
X119145Y291678D01*
X118390Y289855D01*
X118133Y287899D01*
X118390Y285943D01*
X119145Y284121D01*
X120346Y282555D01*
X121911Y281354D01*
X123734Y280599D01*
X125690Y280342D01*
X127646Y280599D01*
X129469Y281354D01*
X131034Y282555D01*
X132235Y284121D01*
X132991Y285943D01*
X133248Y287899D01*
X132991Y289855D01*
X132235Y291678D01*
X131034Y293243D01*
X129469Y294444D01*
X127646Y295199D01*
X127385Y295234D01*
X127469Y296504D01*
X144232D01*
X144316Y295234D01*
X144054Y295199D01*
X142232Y294444D01*
X140666Y293243D01*
X139465Y291678D01*
X138710Y289855D01*
X138453Y287899D01*
X138710Y285943D01*
X139465Y284120D01*
X140666Y282555D01*
X142232Y281354D01*
X144054Y280599D01*
X146010Y280342D01*
X147966Y280599D01*
X149789Y281354D01*
X151354Y282555D01*
X152555Y284120D01*
X153310Y285943D01*
X153568Y287899D01*
X153310Y289855D01*
X152555Y291678D01*
X151354Y293243D01*
X149789Y294444D01*
X147966Y295199D01*
X147705Y295234D01*
X147788Y296504D01*
X270000D01*
X270000Y296504D01*
X296504D01*
Y270000D01*
X296770Y268662D01*
X297528Y267528D01*
X298662Y266770D01*
X300000Y266504D01*
X346504D01*
Y263122D01*
X345522Y262316D01*
X345000Y262420D01*
X343117Y262045D01*
X341521Y260979D01*
X340706Y259759D01*
X340570Y259715D01*
X339430D01*
X339295Y259759D01*
X338480Y260979D01*
X336883Y262045D01*
X335000Y262420D01*
X333117Y262045D01*
X331521Y260979D01*
X330706Y259759D01*
X330570Y259715D01*
X329430D01*
X329295Y259759D01*
X328480Y260979D01*
X326883Y262045D01*
X325000Y262420D01*
X323117Y262045D01*
X321521Y260979D01*
X320706Y259759D01*
X320570Y259715D01*
X319430D01*
X319295Y259759D01*
X318480Y260979D01*
X316883Y262045D01*
X315000Y262420D01*
X313117Y262045D01*
X311521Y260979D01*
X310706Y259759D01*
X310570Y259715D01*
X309430D01*
X309295Y259759D01*
X308480Y260979D01*
X306883Y262045D01*
X305000Y262420D01*
X303117Y262045D01*
X301521Y260979D01*
X300454Y259382D01*
X300080Y257499D01*
X300454Y255616D01*
X301521Y254020D01*
X302741Y253205D01*
X302785Y253069D01*
Y251929D01*
X302741Y251794D01*
X301521Y250979D01*
X300454Y249382D01*
X300410Y249159D01*
X299062Y248890D01*
X298602Y249579D01*
X297017Y250637D01*
X295148Y251009D01*
X293279Y250637D01*
X291695Y249579D01*
X290636Y247994D01*
X290264Y246125D01*
X290636Y244256D01*
X291695Y242672D01*
X293279Y241613D01*
X295148Y241241D01*
X297017Y241613D01*
X298602Y242672D01*
X299660Y244256D01*
X299701Y244458D01*
X301049Y244727D01*
X301521Y244020D01*
X302741Y243205D01*
X302785Y243069D01*
Y241929D01*
X302741Y241794D01*
X301521Y240979D01*
X300454Y239382D01*
X300080Y237499D01*
X300454Y235616D01*
X301521Y234020D01*
X302741Y233205D01*
X302785Y233069D01*
Y231929D01*
X302741Y231794D01*
X301521Y230979D01*
X300454Y229382D01*
X300080Y227499D01*
X300454Y225616D01*
X301521Y224020D01*
X302741Y223205D01*
X302785Y223069D01*
Y221929D01*
X302741Y221794D01*
X301521Y220979D01*
X300454Y219382D01*
X300080Y217499D01*
X300454Y215616D01*
X301521Y214020D01*
X303117Y212953D01*
X305000Y212579D01*
X306883Y212953D01*
X308480Y214020D01*
X309295Y215240D01*
X309430Y215284D01*
X310570D01*
X310706Y215240D01*
X311521Y214020D01*
X313117Y212953D01*
X315000Y212579D01*
X316883Y212953D01*
X318480Y214020D01*
X319295Y215240D01*
X319430Y215284D01*
X320570D01*
X320706Y215240D01*
X321521Y214020D01*
X323117Y212953D01*
X325000Y212579D01*
X326883Y212953D01*
X328480Y214020D01*
X329295Y215240D01*
X329430Y215284D01*
X330570D01*
X330706Y215240D01*
X331521Y214020D01*
X333117Y212953D01*
X335000Y212579D01*
X336883Y212953D01*
X338480Y214020D01*
X339295Y215240D01*
X339430Y215284D01*
X340570D01*
X340706Y215240D01*
X341521Y214020D01*
X343117Y212953D01*
X345000Y212579D01*
X345522Y212682D01*
X346504Y211877D01*
Y195622D01*
X345522Y194816D01*
X345000Y194920D01*
X343117Y194545D01*
X341521Y193479D01*
X340706Y192259D01*
X340570Y192215D01*
X339430D01*
X339295Y192259D01*
X338480Y193479D01*
X336883Y194545D01*
X335000Y194920D01*
X333117Y194545D01*
X331521Y193479D01*
X330706Y192259D01*
X330570Y192215D01*
X329430D01*
X329295Y192259D01*
X328480Y193479D01*
X326883Y194545D01*
X325000Y194920D01*
X323117Y194545D01*
X321521Y193479D01*
X320706Y192259D01*
X320570Y192215D01*
X319430D01*
X319295Y192259D01*
X318480Y193479D01*
X316883Y194545D01*
X315000Y194920D01*
X313117Y194545D01*
X311521Y193479D01*
X310706Y192259D01*
X310570Y192215D01*
X309430D01*
X309295Y192259D01*
X308480Y193479D01*
X306883Y194545D01*
X305000Y194920D01*
X303117Y194545D01*
X301521Y193479D01*
X300454Y191882D01*
X300080Y189999D01*
X300454Y188116D01*
X299454Y187453D01*
X297869Y188511D01*
X296000Y188883D01*
X294131Y188511D01*
X292547Y187453D01*
X291488Y185868D01*
X291117Y183999D01*
X291488Y182130D01*
X292547Y180546D01*
X294131Y179487D01*
X296000Y179115D01*
X297869Y179487D01*
X298854Y180145D01*
X299048Y180122D01*
X300176Y179515D01*
X300454Y178116D01*
X301521Y176520D01*
X302741Y175705D01*
X302785Y175569D01*
Y174429D01*
X302741Y174294D01*
X301521Y173479D01*
X300454Y171882D01*
X300080Y169999D01*
X300454Y168116D01*
X301521Y166520D01*
X302741Y165705D01*
X302785Y165569D01*
Y164429D01*
X302741Y164294D01*
X301521Y163479D01*
X300454Y161882D01*
X300080Y159999D01*
X300454Y158116D01*
X301521Y156520D01*
X302741Y155705D01*
X302785Y155569D01*
Y154429D01*
X302741Y154294D01*
X301521Y153479D01*
X300454Y151882D01*
X300080Y149999D01*
X300454Y148116D01*
X301521Y146520D01*
X303117Y145453D01*
X305000Y145079D01*
X306883Y145453D01*
X308480Y146520D01*
X309295Y147740D01*
X309430Y147784D01*
X310570D01*
X310706Y147740D01*
X311521Y146520D01*
X313117Y145453D01*
X315000Y145079D01*
X316883Y145453D01*
X318480Y146520D01*
X319295Y147740D01*
X319430Y147784D01*
X320570D01*
X320706Y147740D01*
X321521Y146520D01*
X323117Y145453D01*
X325000Y145079D01*
X326883Y145453D01*
X328480Y146520D01*
X329295Y147740D01*
X329430Y147784D01*
X330570D01*
X330706Y147740D01*
X331521Y146520D01*
X333117Y145453D01*
X335000Y145079D01*
X336883Y145453D01*
X338480Y146520D01*
X339295Y147740D01*
X339430Y147784D01*
X340570D01*
X340706Y147740D01*
X341521Y146520D01*
X343117Y145453D01*
X345000Y145079D01*
X345522Y145183D01*
X346504Y144377D01*
Y128122D01*
X345522Y127316D01*
X345000Y127420D01*
X343117Y127045D01*
X341521Y125979D01*
X340706Y124759D01*
X340570Y124715D01*
X339430D01*
X339295Y124759D01*
X338480Y125979D01*
X336883Y127045D01*
X335000Y127420D01*
X333117Y127045D01*
X331521Y125979D01*
X330706Y124759D01*
X330570Y124715D01*
X329430D01*
X329295Y124759D01*
X328480Y125979D01*
X326883Y127045D01*
X325000Y127420D01*
X323117Y127045D01*
X321521Y125979D01*
X320706Y124759D01*
X320570Y124715D01*
X319430D01*
X319295Y124759D01*
X318480Y125979D01*
X316883Y127045D01*
X315000Y127420D01*
X313117Y127045D01*
X311521Y125979D01*
X310706Y124759D01*
X310570Y124715D01*
X309430D01*
X309295Y124759D01*
X308480Y125979D01*
X306883Y127045D01*
X305000Y127420D01*
X303117Y127045D01*
X301521Y125979D01*
X300454Y124382D01*
X300080Y122499D01*
X300454Y120616D01*
X301521Y119020D01*
X302741Y118205D01*
X302785Y118069D01*
Y116929D01*
X302741Y116794D01*
X301521Y115979D01*
X300454Y114382D01*
X300080Y112499D01*
X300454Y110616D01*
X301521Y109020D01*
X302741Y108205D01*
X302785Y108069D01*
Y106929D01*
X302741Y106794D01*
X301521Y105979D01*
X300454Y104382D01*
X300080Y102499D01*
X300454Y100616D01*
X301521Y99020D01*
X302741Y98205D01*
X302785Y98069D01*
Y96929D01*
X302741Y96794D01*
X301521Y95979D01*
X300454Y94382D01*
X300080Y92499D01*
X300454Y90616D01*
X301521Y89020D01*
X302741Y88205D01*
X302785Y88069D01*
Y86929D01*
X302741Y86794D01*
X301521Y85979D01*
X300454Y84382D01*
X300080Y82499D01*
X300454Y80616D01*
X301521Y79020D01*
X303117Y77953D01*
X305000Y77579D01*
X306883Y77953D01*
X308480Y79020D01*
X309295Y80240D01*
X309430Y80284D01*
X310570D01*
X310706Y80240D01*
X311521Y79020D01*
X313117Y77953D01*
X315000Y77579D01*
X316883Y77953D01*
X318480Y79020D01*
X319295Y80240D01*
X319430Y80284D01*
X320570D01*
X320706Y80240D01*
X321521Y79020D01*
X323117Y77953D01*
X325000Y77579D01*
X326883Y77953D01*
X328480Y79020D01*
X329295Y80240D01*
X329430Y80284D01*
X330570D01*
X330706Y80240D01*
X331521Y79020D01*
X333117Y77953D01*
X335000Y77579D01*
X336883Y77953D01*
X338480Y79020D01*
X339295Y80240D01*
X339430Y80284D01*
X340570D01*
X340706Y80240D01*
X341521Y79020D01*
X343117Y77953D01*
X345000Y77579D01*
X345522Y77682D01*
X346504Y76877D01*
Y73496D01*
X300000D01*
X298662Y73230D01*
X297528Y72472D01*
X296770Y71338D01*
X296504Y70000D01*
Y-70000D01*
X296770Y-71338D01*
X297528Y-72472D01*
X298662Y-73230D01*
X300000Y-73496D01*
X346504D01*
Y-76878D01*
X345522Y-77683D01*
X345000Y-77579D01*
X343117Y-77954D01*
X341521Y-79021D01*
X340706Y-80240D01*
X340570Y-80285D01*
X339430D01*
X339294Y-80240D01*
X338479Y-79021D01*
X336883Y-77954D01*
X335000Y-77579D01*
X333117Y-77954D01*
X331521Y-79021D01*
X330706Y-80240D01*
X330570Y-80285D01*
X329430D01*
X329294Y-80240D01*
X328479Y-79021D01*
X326883Y-77954D01*
X325000Y-77579D01*
X323117Y-77954D01*
X321521Y-79021D01*
X320706Y-80240D01*
X320570Y-80285D01*
X319430D01*
X319294Y-80240D01*
X318479Y-79021D01*
X316883Y-77954D01*
X315000Y-77579D01*
X313117Y-77954D01*
X311521Y-79021D01*
X310706Y-80240D01*
X310570Y-80285D01*
X309430D01*
X309294Y-80240D01*
X308479Y-79021D01*
X306883Y-77954D01*
X305000Y-77579D01*
X303117Y-77954D01*
X301521Y-79021D01*
X300454Y-80617D01*
X300079Y-82500D01*
X300454Y-84383D01*
X301521Y-85979D01*
X302740Y-86794D01*
X302785Y-86930D01*
Y-88070D01*
X302740Y-88205D01*
X301521Y-89021D01*
X300454Y-90617D01*
X300079Y-92500D01*
X300454Y-94383D01*
X301521Y-95979D01*
X302740Y-96794D01*
X302785Y-96930D01*
Y-98070D01*
X302740Y-98205D01*
X301521Y-99021D01*
X300454Y-100617D01*
X300079Y-102500D01*
X300454Y-104383D01*
X301521Y-105979D01*
X302740Y-106794D01*
X302785Y-106930D01*
Y-108070D01*
X302740Y-108205D01*
X301521Y-109021D01*
X300454Y-110617D01*
X300079Y-112500D01*
X300454Y-114383D01*
X301521Y-115979D01*
X302740Y-116794D01*
X302785Y-116930D01*
Y-118070D01*
X302740Y-118206D01*
X301521Y-119021D01*
X300454Y-120617D01*
X300079Y-122500D01*
X300454Y-124383D01*
X301521Y-125979D01*
X303117Y-127046D01*
X305000Y-127421D01*
X306883Y-127046D01*
X308479Y-125979D01*
X309294Y-124760D01*
X309430Y-124715D01*
X310570D01*
X310706Y-124760D01*
X311521Y-125979D01*
X313117Y-127046D01*
X315000Y-127421D01*
X316883Y-127046D01*
X318479Y-125979D01*
X319294Y-124760D01*
X319430Y-124715D01*
X320570D01*
X320706Y-124760D01*
X321521Y-125979D01*
X323117Y-127046D01*
X325000Y-127421D01*
X326883Y-127046D01*
X328479Y-125979D01*
X329294Y-124760D01*
X329430Y-124715D01*
X330570D01*
X330706Y-124760D01*
X331521Y-125979D01*
X333117Y-127046D01*
X335000Y-127421D01*
X336883Y-127046D01*
X338479Y-125979D01*
X339294Y-124760D01*
X339430Y-124715D01*
X340570D01*
X340706Y-124760D01*
X341521Y-125979D01*
X343117Y-127046D01*
X345000Y-127421D01*
X345522Y-127317D01*
X346504Y-128122D01*
Y-144378D01*
X345522Y-145183D01*
X345000Y-145079D01*
X343117Y-145454D01*
X341521Y-146521D01*
X340706Y-147740D01*
X340570Y-147785D01*
X339430D01*
X339294Y-147740D01*
X338479Y-146521D01*
X336883Y-145454D01*
X335000Y-145079D01*
X333117Y-145454D01*
X331521Y-146521D01*
X330706Y-147740D01*
X330570Y-147785D01*
X329430D01*
X329294Y-147740D01*
X328479Y-146521D01*
X326883Y-145454D01*
X325000Y-145079D01*
X323117Y-145454D01*
X321521Y-146521D01*
X320706Y-147740D01*
X320570Y-147785D01*
X319430D01*
X319294Y-147740D01*
X318479Y-146521D01*
X316883Y-145454D01*
X315000Y-145079D01*
X313117Y-145454D01*
X311521Y-146521D01*
X310706Y-147740D01*
X310570Y-147785D01*
X309430D01*
X309294Y-147740D01*
X308479Y-146521D01*
X306883Y-145454D01*
X305000Y-145079D01*
X303117Y-145454D01*
X301521Y-146521D01*
X300454Y-148117D01*
X300079Y-150000D01*
X300454Y-151883D01*
X301521Y-153479D01*
X302740Y-154294D01*
X302785Y-154430D01*
Y-155570D01*
X302740Y-155705D01*
X301521Y-156521D01*
X300454Y-158117D01*
X300079Y-160000D01*
X300454Y-161883D01*
X301521Y-163479D01*
X302740Y-164294D01*
X302785Y-164430D01*
Y-165570D01*
X302740Y-165706D01*
X301521Y-166521D01*
X300454Y-168117D01*
X300079Y-170000D01*
X300454Y-171883D01*
X301521Y-173479D01*
X302740Y-174294D01*
X302785Y-174430D01*
Y-175570D01*
X302740Y-175706D01*
X301521Y-176521D01*
X300454Y-178117D01*
X300079Y-180000D01*
X300454Y-181883D01*
X301521Y-183479D01*
X302740Y-184294D01*
X302785Y-184430D01*
Y-185570D01*
X302740Y-185706D01*
X301521Y-186521D01*
X300454Y-188117D01*
X300079Y-190000D01*
X300454Y-191883D01*
X301521Y-193479D01*
X303117Y-194546D01*
X305000Y-194921D01*
X306883Y-194546D01*
X308479Y-193479D01*
X309294Y-192260D01*
X309430Y-192215D01*
X310570D01*
X310706Y-192260D01*
X311521Y-193479D01*
X313117Y-194546D01*
X315000Y-194921D01*
X316883Y-194546D01*
X318479Y-193479D01*
X319294Y-192260D01*
X319430Y-192215D01*
X320570D01*
X320706Y-192260D01*
X321521Y-193479D01*
X323117Y-194546D01*
X325000Y-194921D01*
X326883Y-194546D01*
X328479Y-193479D01*
X329294Y-192260D01*
X329430Y-192215D01*
X330570D01*
X330706Y-192260D01*
X331521Y-193479D01*
X333117Y-194546D01*
X335000Y-194921D01*
X336883Y-194546D01*
X338479Y-193479D01*
X339294Y-192260D01*
X339430Y-192215D01*
X340570D01*
X340706Y-192260D01*
X341521Y-193479D01*
X343117Y-194546D01*
X345000Y-194921D01*
X345522Y-194817D01*
X346504Y-195622D01*
Y-211878D01*
X345522Y-212683D01*
X345000Y-212579D01*
X343117Y-212954D01*
X341521Y-214021D01*
X340706Y-215240D01*
X340570Y-215285D01*
X339430D01*
X339294Y-215240D01*
X338479Y-214021D01*
X336883Y-212954D01*
X335000Y-212579D01*
X333117Y-212954D01*
X331521Y-214021D01*
X330706Y-215240D01*
X330570Y-215285D01*
X329430D01*
X329294Y-215240D01*
X328479Y-214021D01*
X326883Y-212954D01*
X325000Y-212579D01*
X323117Y-212954D01*
X321521Y-214021D01*
X320706Y-215240D01*
X320570Y-215285D01*
X319430D01*
X319294Y-215240D01*
X318479Y-214021D01*
X316883Y-212954D01*
X315000Y-212579D01*
X313117Y-212954D01*
X311521Y-214021D01*
X310706Y-215240D01*
X310570Y-215285D01*
X309430D01*
X309294Y-215240D01*
X308479Y-214021D01*
X306883Y-212954D01*
X305000Y-212579D01*
X303117Y-212954D01*
X301521Y-214021D01*
X300454Y-215617D01*
X300079Y-217500D01*
X300454Y-219383D01*
X301521Y-220979D01*
X302740Y-221794D01*
X302785Y-221930D01*
Y-223070D01*
X302740Y-223206D01*
X301521Y-224021D01*
X300454Y-225617D01*
X300079Y-227500D01*
X300454Y-229383D01*
X301521Y-230979D01*
X302740Y-231794D01*
X302785Y-231930D01*
Y-233070D01*
X302740Y-233206D01*
X301521Y-234021D01*
X300454Y-235617D01*
X300079Y-237500D01*
X300454Y-239383D01*
X301521Y-240979D01*
X302740Y-241794D01*
X302785Y-241930D01*
Y-243070D01*
X302740Y-243206D01*
X301521Y-244021D01*
X300454Y-245617D01*
X300079Y-247500D01*
X300454Y-249383D01*
X301521Y-250979D01*
X302740Y-251794D01*
X302785Y-251930D01*
Y-253070D01*
X302740Y-253206D01*
X301521Y-254021D01*
X300454Y-255617D01*
X300079Y-257500D01*
X300454Y-259383D01*
X301521Y-260979D01*
X303117Y-262046D01*
X305000Y-262421D01*
X306883Y-262046D01*
X308479Y-260979D01*
X309294Y-259760D01*
X309430Y-259715D01*
X310570D01*
X310706Y-259760D01*
X311521Y-260979D01*
X313117Y-262046D01*
X315000Y-262421D01*
X316883Y-262046D01*
X318479Y-260979D01*
X319294Y-259760D01*
X319430Y-259715D01*
X320570D01*
X320706Y-259760D01*
X321521Y-260979D01*
X323117Y-262046D01*
X325000Y-262421D01*
X326883Y-262046D01*
X328479Y-260979D01*
X329294Y-259760D01*
X329430Y-259715D01*
X330570D01*
X330706Y-259760D01*
X331521Y-260979D01*
X333117Y-262046D01*
X335000Y-262421D01*
X336883Y-262046D01*
X338479Y-260979D01*
X339294Y-259760D01*
X339430Y-259715D01*
X340570D01*
X340706Y-259760D01*
X341521Y-260979D01*
X343117Y-262046D01*
X345000Y-262421D01*
X345522Y-262317D01*
X346504Y-263122D01*
Y-266504D01*
X300000D01*
X298662Y-266770D01*
X297528Y-267528D01*
X296770Y-268662D01*
X296504Y-270000D01*
Y-296504D01*
X-2278Y-296504D01*
X-3084Y-295522D01*
X-3079Y-295500D01*
X-3454Y-293617D01*
X-4521Y-292021D01*
X-6117Y-290954D01*
X-8000Y-290579D01*
X-9883Y-290954D01*
X-11479Y-292021D01*
X-12546Y-293617D01*
X-12921Y-295500D01*
X-12916Y-295522D01*
X-13722Y-296504D01*
X-80257Y-296504D01*
X-80650Y-295234D01*
X-79738Y-293869D01*
X-79366Y-292000D01*
X-79738Y-290131D01*
X-80797Y-288547D01*
X-82381Y-287488D01*
X-84250Y-287116D01*
X-86119Y-287488D01*
X-87703Y-288547D01*
X-88762Y-290131D01*
X-89134Y-292000D01*
X-88762Y-293869D01*
X-87850Y-295234D01*
X-88243Y-296504D01*
X-123906D01*
X-123989Y-295234D01*
X-123734Y-295200D01*
X-121911Y-294445D01*
X-120346Y-293244D01*
X-119145Y-291679D01*
X-118390Y-289856D01*
X-118132Y-287900D01*
X-118390Y-285944D01*
X-119145Y-284121D01*
X-120346Y-282556D01*
X-121911Y-281355D01*
X-123734Y-280600D01*
X-125690Y-280342D01*
X-127646Y-280600D01*
X-129469Y-281355D01*
X-131034Y-282556D01*
X-132235Y-284121D01*
X-132990Y-285944D01*
X-133248Y-287900D01*
X-132990Y-289856D01*
X-132235Y-291679D01*
X-131034Y-293244D01*
X-129469Y-294445D01*
X-127646Y-295200D01*
X-127390Y-295234D01*
X-127474Y-296504D01*
X-144226D01*
X-144310Y-295234D01*
X-144054Y-295200D01*
X-142231Y-294445D01*
X-140666Y-293244D01*
X-139465Y-291679D01*
X-138710Y-289856D01*
X-138452Y-287900D01*
X-138710Y-285944D01*
X-139465Y-284121D01*
X-140666Y-282556D01*
X-142231Y-281355D01*
X-144054Y-280600D01*
X-146010Y-280342D01*
X-147966Y-280600D01*
X-149789Y-281355D01*
X-151354Y-282556D01*
X-152555Y-284121D01*
X-153310Y-285944D01*
X-153568Y-287900D01*
X-153310Y-289856D01*
X-152555Y-291679D01*
X-151354Y-293244D01*
X-149789Y-294445D01*
X-147966Y-295200D01*
X-147710Y-295234D01*
X-147794Y-296504D01*
X-261595Y-296504D01*
X-261913Y-295234D01*
X-258521Y-293421D01*
X-254708Y-290292D01*
X-251579Y-286479D01*
X-249254Y-282129D01*
X-247822Y-277409D01*
X-247339Y-272500D01*
X-247822Y-267591D01*
X-249254Y-262871D01*
X-251579Y-258521D01*
X-254708Y-254708D01*
X-258521Y-251579D01*
X-262871Y-249254D01*
X-267591Y-247822D01*
X-272500Y-247339D01*
X-277409Y-247822D01*
X-282129Y-249254D01*
X-286479Y-251579D01*
X-290292Y-254708D01*
X-293421Y-258521D01*
X-295746Y-262871D01*
X-296835Y-266463D01*
X-298324Y-266996D01*
X-298662Y-266770D01*
X-300000Y-266504D01*
X-346504D01*
Y-263122D01*
X-345522Y-262317D01*
X-345000Y-262421D01*
X-343117Y-262046D01*
X-341521Y-260979D01*
X-340706Y-259760D01*
X-340570Y-259715D01*
X-339430D01*
X-339294Y-259760D01*
X-338479Y-260979D01*
X-336883Y-262046D01*
X-335000Y-262421D01*
X-333117Y-262046D01*
X-331521Y-260979D01*
X-330706Y-259760D01*
X-330570Y-259715D01*
X-329430D01*
X-329294Y-259760D01*
X-328479Y-260979D01*
X-326883Y-262046D01*
X-325000Y-262421D01*
X-323117Y-262046D01*
X-321521Y-260979D01*
X-320706Y-259760D01*
X-320570Y-259715D01*
X-319430D01*
X-319294Y-259760D01*
X-318479Y-260979D01*
X-316883Y-262046D01*
X-315000Y-262421D01*
X-313117Y-262046D01*
X-311521Y-260979D01*
X-310706Y-259760D01*
X-310570Y-259715D01*
X-309430D01*
X-309294Y-259760D01*
X-308479Y-260979D01*
X-306883Y-262046D01*
X-305000Y-262421D01*
X-303117Y-262046D01*
X-301521Y-260979D01*
X-300454Y-259383D01*
X-300079Y-257500D01*
X-300454Y-255617D01*
X-301521Y-254021D01*
X-302740Y-253206D01*
X-302785Y-253070D01*
Y-251930D01*
X-302740Y-251794D01*
X-301521Y-250979D01*
X-300454Y-249383D01*
X-300410Y-249159D01*
X-299061Y-248891D01*
X-298601Y-249579D01*
X-297017Y-250638D01*
X-295148Y-251010D01*
X-293279Y-250638D01*
X-291695Y-249579D01*
X-290636Y-247995D01*
X-290264Y-246126D01*
X-290636Y-244257D01*
X-291695Y-242673D01*
X-293279Y-241614D01*
X-295148Y-241242D01*
X-297017Y-241614D01*
X-298601Y-242673D01*
X-299660Y-244257D01*
X-299700Y-244459D01*
X-301049Y-244727D01*
X-301521Y-244021D01*
X-302740Y-243206D01*
X-302785Y-243070D01*
Y-241930D01*
X-302740Y-241794D01*
X-301521Y-240979D01*
X-300454Y-239383D01*
X-300079Y-237500D01*
X-300454Y-235617D01*
X-301521Y-234021D01*
X-302740Y-233206D01*
X-302785Y-233070D01*
Y-231930D01*
X-302740Y-231794D01*
X-301521Y-230979D01*
X-300454Y-229383D01*
X-300079Y-227500D01*
X-300454Y-225617D01*
X-301521Y-224021D01*
X-302740Y-223206D01*
X-302785Y-223070D01*
Y-221930D01*
X-302740Y-221794D01*
X-301521Y-220979D01*
X-300454Y-219383D01*
X-300079Y-217500D01*
X-300454Y-215617D01*
X-301521Y-214021D01*
X-303117Y-212954D01*
X-305000Y-212579D01*
X-306883Y-212954D01*
X-308479Y-214021D01*
X-309294Y-215240D01*
X-309430Y-215285D01*
X-310570D01*
X-310706Y-215240D01*
X-311521Y-214021D01*
X-313117Y-212954D01*
X-315000Y-212579D01*
X-316883Y-212954D01*
X-318479Y-214021D01*
X-319294Y-215240D01*
X-319430Y-215285D01*
X-320570D01*
X-320706Y-215240D01*
X-321521Y-214021D01*
X-323117Y-212954D01*
X-325000Y-212579D01*
X-326883Y-212954D01*
X-328479Y-214021D01*
X-329294Y-215240D01*
X-329430Y-215285D01*
X-330570D01*
X-330706Y-215240D01*
X-331521Y-214021D01*
X-333117Y-212954D01*
X-335000Y-212579D01*
X-336883Y-212954D01*
X-338479Y-214021D01*
X-339294Y-215240D01*
X-339430Y-215285D01*
X-340570D01*
X-340706Y-215240D01*
X-341521Y-214021D01*
X-343117Y-212954D01*
X-345000Y-212579D01*
X-345522Y-212683D01*
X-346504Y-211878D01*
Y-195622D01*
X-345522Y-194817D01*
X-345000Y-194921D01*
X-343117Y-194546D01*
X-341521Y-193479D01*
X-340706Y-192260D01*
X-340570Y-192215D01*
X-339430D01*
X-339294Y-192260D01*
X-338479Y-193479D01*
X-336883Y-194546D01*
X-335000Y-194921D01*
X-333117Y-194546D01*
X-331521Y-193479D01*
X-330706Y-192260D01*
X-330570Y-192215D01*
X-329430D01*
X-329294Y-192260D01*
X-328479Y-193479D01*
X-326883Y-194546D01*
X-325000Y-194921D01*
X-323117Y-194546D01*
X-321521Y-193479D01*
X-320706Y-192260D01*
X-320570Y-192215D01*
X-319430D01*
X-319294Y-192260D01*
X-318479Y-193479D01*
X-316883Y-194546D01*
X-315000Y-194921D01*
X-313117Y-194546D01*
X-311521Y-193479D01*
X-310706Y-192260D01*
X-310570Y-192215D01*
X-309430D01*
X-309294Y-192260D01*
X-308479Y-193479D01*
X-306883Y-194546D01*
X-305000Y-194921D01*
X-303117Y-194546D01*
X-301521Y-193479D01*
X-300454Y-191883D01*
X-300079Y-190000D01*
X-300454Y-188117D01*
X-299453Y-187453D01*
X-297869Y-188512D01*
X-296000Y-188884D01*
X-294131Y-188512D01*
X-292547Y-187453D01*
X-291488Y-185869D01*
X-291116Y-184000D01*
X-291488Y-182131D01*
X-292547Y-180547D01*
X-294131Y-179488D01*
X-296000Y-179116D01*
X-297869Y-179488D01*
X-298854Y-180146D01*
X-299047Y-180123D01*
X-300176Y-179516D01*
X-300454Y-178117D01*
X-301521Y-176521D01*
X-302740Y-175706D01*
X-302785Y-175570D01*
Y-174430D01*
X-302740Y-174294D01*
X-301521Y-173479D01*
X-300454Y-171883D01*
X-300079Y-170000D01*
X-300454Y-168117D01*
X-301521Y-166521D01*
X-302740Y-165706D01*
X-302785Y-165570D01*
Y-164430D01*
X-302740Y-164294D01*
X-301521Y-163479D01*
X-300454Y-161883D01*
X-300079Y-160000D01*
X-300454Y-158117D01*
X-301521Y-156521D01*
X-302740Y-155706D01*
X-302785Y-155570D01*
Y-154430D01*
X-302740Y-154294D01*
X-301521Y-153479D01*
X-300454Y-151883D01*
X-300079Y-150000D01*
X-300454Y-148117D01*
X-301521Y-146521D01*
X-303117Y-145454D01*
X-305000Y-145079D01*
X-306883Y-145454D01*
X-308479Y-146521D01*
X-309294Y-147740D01*
X-309430Y-147785D01*
X-310570D01*
X-310706Y-147740D01*
X-311521Y-146521D01*
X-313117Y-145454D01*
X-315000Y-145079D01*
X-316883Y-145454D01*
X-318479Y-146521D01*
X-319294Y-147740D01*
X-319430Y-147785D01*
X-320570D01*
X-320706Y-147740D01*
X-321521Y-146521D01*
X-323117Y-145454D01*
X-325000Y-145079D01*
X-326883Y-145454D01*
X-328479Y-146521D01*
X-329294Y-147740D01*
X-329430Y-147785D01*
X-330570D01*
X-330706Y-147740D01*
X-331521Y-146521D01*
X-333117Y-145454D01*
X-335000Y-145079D01*
X-336883Y-145454D01*
X-338479Y-146521D01*
X-339294Y-147740D01*
X-339430Y-147785D01*
X-340570D01*
X-340706Y-147740D01*
X-341521Y-146521D01*
X-343117Y-145454D01*
X-345000Y-145079D01*
X-345522Y-145183D01*
X-346504Y-144378D01*
Y-128122D01*
X-345522Y-127317D01*
X-345000Y-127421D01*
X-343117Y-127046D01*
X-341521Y-125979D01*
X-340706Y-124760D01*
X-340570Y-124715D01*
X-339430D01*
X-339294Y-124760D01*
X-338479Y-125979D01*
X-336883Y-127046D01*
X-335000Y-127421D01*
X-333117Y-127046D01*
X-331521Y-125979D01*
X-330706Y-124760D01*
X-330570Y-124715D01*
X-329430D01*
X-329294Y-124760D01*
X-328479Y-125979D01*
X-326883Y-127046D01*
X-325000Y-127421D01*
X-323117Y-127046D01*
X-321521Y-125979D01*
X-320706Y-124760D01*
X-320570Y-124715D01*
X-319430D01*
X-319294Y-124760D01*
X-318479Y-125979D01*
X-316883Y-127046D01*
X-315000Y-127421D01*
X-313117Y-127046D01*
X-311521Y-125979D01*
X-310706Y-124760D01*
X-310570Y-124715D01*
X-309430D01*
X-309294Y-124760D01*
X-308479Y-125979D01*
X-306883Y-127046D01*
X-305000Y-127421D01*
X-303117Y-127046D01*
X-301521Y-125979D01*
X-300454Y-124383D01*
X-300079Y-122500D01*
X-300454Y-120617D01*
X-301521Y-119021D01*
X-302740Y-118206D01*
X-302785Y-118070D01*
Y-116930D01*
X-302740Y-116794D01*
X-301521Y-115979D01*
X-300454Y-114383D01*
X-300079Y-112500D01*
X-300454Y-110617D01*
X-301521Y-109021D01*
X-302740Y-108205D01*
X-302785Y-108070D01*
Y-106930D01*
X-302740Y-106794D01*
X-301521Y-105979D01*
X-300454Y-104383D01*
X-300079Y-102500D01*
X-300454Y-100617D01*
X-301521Y-99021D01*
X-302740Y-98205D01*
X-302785Y-98070D01*
Y-96930D01*
X-302740Y-96794D01*
X-301521Y-95979D01*
X-300454Y-94383D01*
X-300079Y-92500D01*
X-300454Y-90617D01*
X-301521Y-89021D01*
X-302740Y-88205D01*
X-302785Y-88070D01*
Y-86930D01*
X-302740Y-86794D01*
X-301521Y-85979D01*
X-300454Y-84383D01*
X-300079Y-82500D01*
X-300454Y-80617D01*
X-301521Y-79021D01*
X-303117Y-77954D01*
X-305000Y-77579D01*
X-306883Y-77954D01*
X-308479Y-79021D01*
X-309294Y-80240D01*
X-309430Y-80285D01*
X-310570D01*
X-310706Y-80240D01*
X-311521Y-79021D01*
X-313117Y-77954D01*
X-315000Y-77579D01*
X-316883Y-77954D01*
X-318479Y-79021D01*
X-319294Y-80240D01*
X-319430Y-80285D01*
X-320570D01*
X-320706Y-80240D01*
X-321521Y-79021D01*
X-323117Y-77954D01*
X-325000Y-77579D01*
X-326883Y-77954D01*
X-328479Y-79021D01*
X-329294Y-80240D01*
X-329430Y-80285D01*
X-330570D01*
X-330706Y-80240D01*
X-331521Y-79021D01*
X-333117Y-77954D01*
X-335000Y-77579D01*
X-336883Y-77954D01*
X-338479Y-79021D01*
X-339294Y-80240D01*
X-339430Y-80285D01*
X-340570D01*
X-340706Y-80240D01*
X-341521Y-79021D01*
X-343117Y-77954D01*
X-345000Y-77579D01*
X-345522Y-77683D01*
X-346504Y-76878D01*
Y-73496D01*
X-300000D01*
X-298662Y-73230D01*
X-297528Y-72472D01*
X-296770Y-71338D01*
X-296504Y-70000D01*
Y70000D01*
X-296770Y71338D01*
X-297528Y72472D01*
X-298662Y73230D01*
X-300000Y73496D01*
X-346504D01*
Y76878D01*
X-345522Y77683D01*
X-345000Y77579D01*
X-343117Y77954D01*
X-341521Y79021D01*
X-340706Y80240D01*
X-340570Y80285D01*
X-339430D01*
X-339294Y80240D01*
X-338479Y79021D01*
X-336883Y77954D01*
X-335000Y77579D01*
X-333117Y77954D01*
X-331521Y79021D01*
X-330706Y80240D01*
X-330570Y80285D01*
X-329430D01*
X-329294Y80240D01*
X-328479Y79021D01*
X-326883Y77954D01*
X-325000Y77579D01*
X-323117Y77954D01*
X-321521Y79021D01*
X-320706Y80240D01*
X-320570Y80285D01*
X-319430D01*
X-319294Y80240D01*
X-318479Y79021D01*
X-316883Y77954D01*
X-315000Y77579D01*
X-313117Y77954D01*
X-311521Y79021D01*
X-310706Y80240D01*
X-310570Y80285D01*
X-309430D01*
X-309294Y80240D01*
X-308479Y79021D01*
X-306883Y77954D01*
X-305000Y77579D01*
X-303117Y77954D01*
X-301521Y79021D01*
X-300454Y80617D01*
X-300079Y82500D01*
X-300454Y84383D01*
X-301521Y85979D01*
X-302740Y86794D01*
X-302785Y86930D01*
Y88070D01*
X-302740Y88206D01*
X-301521Y89021D01*
X-300454Y90617D01*
X-300079Y92500D01*
X-300454Y94383D01*
X-301521Y95979D01*
X-302740Y96794D01*
X-302785Y96930D01*
Y98070D01*
X-302740Y98206D01*
X-301521Y99021D01*
X-300454Y100617D01*
X-300079Y102500D01*
X-300454Y104383D01*
X-301521Y105979D01*
X-302740Y106794D01*
X-302785Y106930D01*
Y108070D01*
X-302740Y108206D01*
X-301521Y109021D01*
X-300454Y110617D01*
X-300079Y112500D01*
X-300454Y114383D01*
X-301521Y115979D01*
X-302740Y116794D01*
X-302785Y116930D01*
Y118070D01*
X-302740Y118206D01*
X-301521Y119021D01*
X-300454Y120617D01*
X-300079Y122500D01*
X-300454Y124383D01*
X-301521Y125979D01*
X-303117Y127046D01*
X-305000Y127421D01*
X-306883Y127046D01*
X-308479Y125979D01*
X-309294Y124760D01*
X-309430Y124715D01*
X-310570D01*
X-310706Y124760D01*
X-311521Y125979D01*
X-313117Y127046D01*
X-315000Y127421D01*
X-316883Y127046D01*
X-318479Y125979D01*
X-319294Y124760D01*
X-319430Y124715D01*
X-320570D01*
X-320706Y124760D01*
X-321521Y125979D01*
X-323117Y127046D01*
X-325000Y127421D01*
X-326883Y127046D01*
X-328479Y125979D01*
X-329294Y124760D01*
X-329430Y124715D01*
X-330570D01*
X-330706Y124760D01*
X-331521Y125979D01*
X-333117Y127046D01*
X-335000Y127421D01*
X-336883Y127046D01*
X-338479Y125979D01*
X-339294Y124760D01*
X-339430Y124715D01*
X-340570D01*
X-340706Y124760D01*
X-341521Y125979D01*
X-343117Y127046D01*
X-345000Y127421D01*
X-345522Y127317D01*
X-346504Y128122D01*
Y144378D01*
X-345522Y145183D01*
X-345000Y145079D01*
X-343117Y145454D01*
X-341521Y146521D01*
X-340706Y147740D01*
X-340570Y147785D01*
X-339430D01*
X-339294Y147740D01*
X-338479Y146521D01*
X-336883Y145454D01*
X-335000Y145079D01*
X-333117Y145454D01*
X-331521Y146521D01*
X-330706Y147740D01*
X-330570Y147785D01*
X-329430D01*
X-329294Y147740D01*
X-328479Y146521D01*
X-326883Y145454D01*
X-325000Y145079D01*
X-323117Y145454D01*
X-321521Y146521D01*
X-320706Y147740D01*
X-320570Y147785D01*
X-319430D01*
X-319294Y147740D01*
X-318479Y146521D01*
X-316883Y145454D01*
X-315000Y145079D01*
X-313117Y145454D01*
X-311521Y146521D01*
X-310706Y147740D01*
X-310570Y147785D01*
X-309430D01*
X-309294Y147740D01*
X-308479Y146521D01*
X-306883Y145454D01*
X-305000Y145079D01*
X-303117Y145454D01*
X-301521Y146521D01*
X-300454Y148117D01*
X-300079Y150000D01*
X-300454Y151883D01*
X-301521Y153479D01*
X-302740Y154294D01*
X-302785Y154430D01*
Y155570D01*
X-302740Y155706D01*
X-301521Y156521D01*
X-300454Y158117D01*
X-300079Y160000D01*
X-300454Y161883D01*
X-301521Y163479D01*
X-302740Y164294D01*
X-302785Y164430D01*
Y165570D01*
X-302740Y165706D01*
X-301521Y166521D01*
X-300454Y168117D01*
X-300079Y170000D01*
X-300454Y171883D01*
X-301521Y173479D01*
X-302740Y174294D01*
X-302785Y174430D01*
Y175570D01*
X-302740Y175706D01*
X-301521Y176521D01*
X-300454Y178117D01*
X-300079Y180000D01*
X-300454Y181883D01*
X-301521Y183479D01*
X-302740Y184294D01*
X-302785Y184430D01*
Y185570D01*
X-302740Y185706D01*
X-301521Y186521D01*
X-300454Y188117D01*
X-300079Y190000D01*
X-300454Y191883D01*
X-301521Y193479D01*
X-303117Y194546D01*
X-305000Y194921D01*
X-306883Y194546D01*
X-308479Y193479D01*
X-309294Y192260D01*
X-309430Y192215D01*
X-310570D01*
X-310706Y192260D01*
X-311521Y193479D01*
X-313117Y194546D01*
X-315000Y194921D01*
X-316883Y194546D01*
X-318479Y193479D01*
X-319294Y192260D01*
X-319430Y192215D01*
X-320570D01*
X-320706Y192260D01*
X-321521Y193479D01*
X-323117Y194546D01*
X-325000Y194921D01*
X-326883Y194546D01*
X-328479Y193479D01*
X-329294Y192260D01*
X-329430Y192215D01*
X-330570D01*
X-330706Y192260D01*
X-331521Y193479D01*
X-333117Y194546D01*
X-335000Y194921D01*
X-336883Y194546D01*
X-338479Y193479D01*
X-339294Y192260D01*
X-339430Y192215D01*
X-340570D01*
X-340706Y192260D01*
X-341521Y193479D01*
X-343117Y194546D01*
X-345000Y194921D01*
X-345522Y194817D01*
X-346504Y195622D01*
Y211878D01*
X-345522Y212683D01*
X-345000Y212579D01*
X-343117Y212954D01*
X-341521Y214021D01*
X-340706Y215240D01*
X-340570Y215285D01*
X-339430D01*
X-339294Y215240D01*
X-338479Y214021D01*
X-336883Y212954D01*
X-335000Y212579D01*
X-333117Y212954D01*
X-331521Y214021D01*
X-330706Y215240D01*
X-330570Y215285D01*
X-329430D01*
X-329294Y215240D01*
X-328479Y214021D01*
X-326883Y212954D01*
X-325000Y212579D01*
X-323117Y212954D01*
X-321521Y214021D01*
X-320706Y215240D01*
X-320570Y215285D01*
X-319430D01*
X-319294Y215240D01*
X-318479Y214021D01*
X-316883Y212954D01*
X-315000Y212579D01*
X-313117Y212954D01*
X-311521Y214021D01*
X-310706Y215240D01*
X-310570Y215285D01*
X-309430D01*
X-309294Y215240D01*
X-308479Y214021D01*
X-306883Y212954D01*
X-305000Y212579D01*
X-303117Y212954D01*
X-301521Y214021D01*
X-300454Y215617D01*
X-300079Y217500D01*
X-300454Y219383D01*
X-301521Y220979D01*
X-302740Y221794D01*
X-302785Y221930D01*
Y223070D01*
X-302740Y223206D01*
X-301521Y224021D01*
X-300454Y225617D01*
X-300079Y227500D01*
X-300454Y229383D01*
X-301521Y230979D01*
X-302740Y231794D01*
X-302785Y231930D01*
Y233070D01*
X-302740Y233206D01*
X-301521Y234021D01*
X-300454Y235617D01*
X-300079Y237500D01*
X-300454Y239383D01*
X-301521Y240979D01*
X-302740Y241794D01*
X-302785Y241930D01*
Y243070D01*
X-302740Y243206D01*
X-301521Y244021D01*
X-300454Y245617D01*
X-300079Y247500D01*
X-300454Y249383D01*
X-301521Y250979D01*
X-302740Y251794D01*
X-302785Y251930D01*
Y253070D01*
X-302740Y253206D01*
X-301521Y254021D01*
X-300454Y255617D01*
X-300079Y257500D01*
X-300454Y259383D01*
X-301521Y260979D01*
X-303117Y262046D01*
X-305000Y262421D01*
X-306883Y262046D01*
X-308479Y260979D01*
X-309294Y259760D01*
X-309430Y259715D01*
X-310570D01*
X-310706Y259760D01*
X-311521Y260979D01*
X-313117Y262046D01*
X-315000Y262421D01*
X-316883Y262046D01*
X-318479Y260979D01*
X-319294Y259760D01*
X-319430Y259715D01*
X-320570D01*
X-320706Y259760D01*
X-321521Y260979D01*
X-323117Y262046D01*
X-325000Y262421D01*
X-326883Y262046D01*
X-328479Y260979D01*
X-329294Y259760D01*
X-329430Y259715D01*
X-330570D01*
X-330706Y259760D01*
X-331521Y260979D01*
X-333117Y262046D01*
X-335000Y262421D01*
X-336883Y262046D01*
X-338479Y260979D01*
X-339294Y259760D01*
X-339430Y259715D01*
X-340570D01*
X-340706Y259760D01*
X-341521Y260979D01*
X-343117Y262046D01*
X-345000Y262421D01*
X-345522Y262317D01*
X-346504Y263122D01*
Y266504D01*
X-300000D01*
X-298662Y266770D01*
X-298324Y266996D01*
X-296835Y266463D01*
X-295746Y262871D01*
X-293421Y258521D01*
X-290292Y254708D01*
X-286479Y251579D01*
X-282129Y249254D01*
X-277409Y247822D01*
X-272500Y247339D01*
X-267591Y247822D01*
X-262871Y249254D01*
X-258521Y251579D01*
X-254708Y254708D01*
X-251579Y258521D01*
X-249254Y262871D01*
X-247822Y267591D01*
X-247339Y272500D01*
X-247822Y277409D01*
X-249254Y282129D01*
X-251579Y286479D01*
X-254708Y290292D01*
X-258521Y293421D01*
X-261913Y295234D01*
X-261595Y296504D01*
X-125000D01*
X-123662Y296770D01*
X-122528Y297528D01*
X-121770Y298662D01*
X-121504Y300000D01*
Y346504D01*
X-113122D01*
X-112317Y345522D01*
X-112421Y345000D01*
X-112046Y343117D01*
X-110979Y341521D01*
X-109760Y340706D01*
X-109715Y340570D01*
Y339430D01*
X-109760Y339294D01*
X-110979Y338479D01*
X-112046Y336883D01*
X-112421Y335000D01*
X-112046Y333117D01*
X-110979Y331521D01*
X-109760Y330706D01*
X-109715Y330570D01*
Y329430D01*
X-109760Y329294D01*
X-110979Y328479D01*
X-112046Y326883D01*
X-112421Y325000D01*
X-112046Y323117D01*
X-110979Y321521D01*
X-109760Y320706D01*
X-109715Y320570D01*
Y319430D01*
X-109760Y319294D01*
X-110979Y318479D01*
X-112046Y316883D01*
X-112421Y315000D01*
X-112046Y313117D01*
X-110979Y311521D01*
X-109760Y310706D01*
X-109715Y310570D01*
Y309430D01*
X-109760Y309294D01*
X-110979Y308479D01*
X-112046Y306883D01*
X-112421Y305000D01*
X-112046Y303117D01*
X-110979Y301521D01*
X-109383Y300454D01*
X-107500Y300079D01*
X-105617Y300454D01*
X-104021Y301521D01*
X-103205Y302740D01*
X-103070Y302785D01*
X-101930D01*
X-101794Y302740D01*
X-100979Y301521D01*
X-99383Y300454D01*
X-97500Y300079D01*
X-95617Y300454D01*
X-94021Y301521D01*
X-93205Y302740D01*
X-93070Y302785D01*
X-91930D01*
X-91794Y302740D01*
X-90979Y301521D01*
X-89383Y300454D01*
X-87500Y300079D01*
X-85617Y300454D01*
X-84021Y301521D01*
X-83205Y302740D01*
X-83070Y302785D01*
X-81930D01*
X-81794Y302740D01*
X-80979Y301521D01*
X-79383Y300454D01*
X-77500Y300079D01*
X-75617Y300454D01*
X-74021Y301521D01*
X-73205Y302740D01*
X-73070Y302785D01*
X-71930D01*
X-71794Y302740D01*
X-70979Y301521D01*
X-69383Y300454D01*
X-67500Y300079D01*
X-65617Y300454D01*
X-64021Y301521D01*
X-62954Y303117D01*
X-62579Y305000D01*
X-62954Y306883D01*
X-64021Y308479D01*
X-65240Y309294D01*
X-65285Y309430D01*
Y310570D01*
X-65240Y310706D01*
X-64021Y311521D01*
X-62954Y313117D01*
X-62579Y315000D01*
X-62954Y316883D01*
X-64021Y318479D01*
X-65240Y319294D01*
X-65285Y319430D01*
Y320570D01*
X-65240Y320706D01*
X-64021Y321521D01*
X-62954Y323117D01*
X-62579Y325000D01*
X-62954Y326883D01*
X-64021Y328479D01*
X-65240Y329294D01*
X-65285Y329430D01*
Y330570D01*
X-65240Y330706D01*
X-64021Y331521D01*
X-62954Y333117D01*
X-62579Y335000D01*
X-62954Y336883D01*
X-64021Y338479D01*
X-65240Y339294D01*
X-65285Y339430D01*
Y340570D01*
X-65240Y340706D01*
X-64021Y341521D01*
X-62954Y343117D01*
X-62579Y345000D01*
X-62683Y345522D01*
X-61877Y346504D01*
X-55996D01*
Y300000D01*
X-55730Y298662D01*
X-54972Y297528D01*
X-53838Y296770D01*
X-52500Y296504D01*
X52500D01*
X53838Y296770D01*
X54972Y297528D01*
X55730Y298662D01*
X55996Y300000D01*
Y346504D01*
X121504D01*
Y300000D01*
D02*
G37*
%LPC*%
G36*
X-60000Y294921D02*
X-61883Y294546D01*
X-63479Y293479D01*
X-64294Y292260D01*
X-64430Y292215D01*
X-65570D01*
X-65706Y292260D01*
X-66521Y293479D01*
X-68117Y294546D01*
X-70000Y294921D01*
X-71883Y294546D01*
X-73479Y293479D01*
X-74294Y292260D01*
X-74430Y292215D01*
X-75570D01*
X-75706Y292260D01*
X-76521Y293479D01*
X-78117Y294546D01*
X-80000Y294921D01*
X-81883Y294546D01*
X-83479Y293479D01*
X-84294Y292260D01*
X-84430Y292215D01*
X-85570D01*
X-85706Y292260D01*
X-86521Y293479D01*
X-88117Y294546D01*
X-90000Y294921D01*
X-91883Y294546D01*
X-93479Y293479D01*
X-94294Y292260D01*
X-94430Y292215D01*
X-95570D01*
X-95706Y292260D01*
X-96521Y293479D01*
X-98117Y294546D01*
X-100000Y294921D01*
X-101883Y294546D01*
X-103479Y293479D01*
X-104546Y291883D01*
X-104921Y290000D01*
X-104546Y288117D01*
X-103479Y286521D01*
X-102260Y285706D01*
X-102215Y285570D01*
Y284430D01*
X-102260Y284294D01*
X-103479Y283479D01*
X-104546Y281883D01*
X-104921Y280000D01*
X-104546Y278117D01*
X-103479Y276521D01*
X-101883Y275454D01*
X-100000Y275079D01*
X-98117Y275454D01*
X-96521Y276521D01*
X-95706Y277740D01*
X-95570Y277785D01*
X-94430D01*
X-94294Y277740D01*
X-93479Y276521D01*
X-91883Y275454D01*
X-90000Y275079D01*
X-88117Y275454D01*
X-86521Y276521D01*
X-85706Y277740D01*
X-85570Y277785D01*
X-84430D01*
X-84294Y277740D01*
X-83479Y276521D01*
X-81883Y275454D01*
X-80000Y275079D01*
X-78117Y275454D01*
X-76521Y276521D01*
X-75706Y277740D01*
X-75570Y277785D01*
X-74430D01*
X-74294Y277740D01*
X-73479Y276521D01*
X-71883Y275454D01*
X-70000Y275079D01*
X-68117Y275454D01*
X-66521Y276521D01*
X-65706Y277740D01*
X-65570Y277785D01*
X-64430D01*
X-64294Y277740D01*
X-63479Y276521D01*
X-61883Y275454D01*
X-60000Y275079D01*
X-58117Y275454D01*
X-56521Y276521D01*
X-55454Y278117D01*
X-55079Y280000D01*
X-55454Y281883D01*
X-56521Y283479D01*
X-57741Y284294D01*
X-57785Y284430D01*
Y285570D01*
X-57741Y285706D01*
X-56521Y286521D01*
X-55454Y288117D01*
X-55079Y290000D01*
X-55454Y291883D01*
X-56521Y293479D01*
X-58117Y294546D01*
X-60000Y294921D01*
D02*
G37*
G36*
X159500Y294883D02*
X157631Y294511D01*
X156047Y293453D01*
X154988Y291868D01*
X154616Y289999D01*
X154988Y288130D01*
X156047Y286546D01*
X157631Y285487D01*
X159500Y285115D01*
X161369Y285487D01*
X162954Y286546D01*
X164012Y288130D01*
X164384Y289999D01*
X164012Y291868D01*
X162954Y293453D01*
X161369Y294511D01*
X159500Y294883D01*
D02*
G37*
G36*
X30000Y294921D02*
X28117Y294546D01*
X26521Y293479D01*
X25454Y291883D01*
X25080Y290000D01*
X25454Y288117D01*
X26521Y286521D01*
X27740Y285706D01*
X27785Y285570D01*
Y284430D01*
X27740Y284294D01*
X26521Y283479D01*
X25454Y281883D01*
X25080Y280000D01*
X25454Y278117D01*
X26521Y276521D01*
X28117Y275454D01*
X30000Y275079D01*
X31883Y275454D01*
X33479Y276521D01*
X34546Y278117D01*
X34920Y280000D01*
X34546Y281883D01*
X33479Y283479D01*
X32260Y284294D01*
X32215Y284430D01*
Y285570D01*
X32260Y285706D01*
X33479Y286521D01*
X34546Y288117D01*
X34920Y290000D01*
X34546Y291883D01*
X33479Y293479D01*
X31883Y294546D01*
X30000Y294921D01*
D02*
G37*
G36*
X-40000Y284921D02*
X-41883Y284546D01*
X-43479Y283479D01*
X-44546Y281883D01*
X-44921Y280000D01*
X-44546Y278117D01*
X-43479Y276521D01*
X-41883Y275454D01*
X-40000Y275079D01*
X-38117Y275454D01*
X-36521Y276521D01*
X-35454Y278117D01*
X-35080Y280000D01*
X-35454Y281883D01*
X-36521Y283479D01*
X-38117Y284546D01*
X-40000Y284921D01*
D02*
G37*
G36*
X159500Y282758D02*
X157631Y282386D01*
X156047Y281328D01*
X154988Y279743D01*
X154616Y277874D01*
X154988Y276005D01*
X156047Y274421D01*
X157631Y273362D01*
X159500Y272990D01*
X161369Y273362D01*
X162954Y274421D01*
X164012Y276005D01*
X164384Y277874D01*
X164012Y279743D01*
X162954Y281328D01*
X161369Y282386D01*
X159500Y282758D01*
D02*
G37*
G36*
X-200000Y264921D02*
X-201883Y264546D01*
X-203479Y263479D01*
X-204294Y262260D01*
X-204430Y262215D01*
X-205570D01*
X-205706Y262260D01*
X-206521Y263479D01*
X-208117Y264546D01*
X-210000Y264921D01*
X-211883Y264546D01*
X-213479Y263479D01*
X-214294Y262260D01*
X-214430Y262215D01*
X-215570D01*
X-215706Y262260D01*
X-216521Y263479D01*
X-218117Y264546D01*
X-220000Y264921D01*
X-221883Y264546D01*
X-223479Y263479D01*
X-224294Y262260D01*
X-224430Y262215D01*
X-225570D01*
X-225706Y262260D01*
X-226521Y263479D01*
X-228117Y264546D01*
X-230000Y264921D01*
X-231883Y264546D01*
X-233479Y263479D01*
X-234294Y262260D01*
X-234430Y262215D01*
X-235570D01*
X-235706Y262260D01*
X-236521Y263479D01*
X-238117Y264546D01*
X-240000Y264921D01*
X-241883Y264546D01*
X-243479Y263479D01*
X-244546Y261883D01*
X-244921Y260000D01*
X-244546Y258117D01*
X-243479Y256521D01*
X-242260Y255706D01*
X-242215Y255570D01*
Y254430D01*
X-242260Y254294D01*
X-243479Y253479D01*
X-244546Y251883D01*
X-244921Y250000D01*
X-244546Y248117D01*
X-243479Y246521D01*
X-241883Y245454D01*
X-240000Y245079D01*
X-238117Y245454D01*
X-236521Y246521D01*
X-235706Y247740D01*
X-235570Y247785D01*
X-234430D01*
X-234294Y247740D01*
X-233479Y246521D01*
X-231883Y245454D01*
X-230000Y245079D01*
X-228117Y245454D01*
X-226521Y246521D01*
X-225706Y247740D01*
X-225570Y247785D01*
X-224430D01*
X-224294Y247740D01*
X-223479Y246521D01*
X-221883Y245454D01*
X-220000Y245079D01*
X-218117Y245454D01*
X-216521Y246521D01*
X-215706Y247740D01*
X-215570Y247785D01*
X-214430D01*
X-214294Y247740D01*
X-213479Y246521D01*
X-211883Y245454D01*
X-210000Y245079D01*
X-208117Y245454D01*
X-206521Y246521D01*
X-205454Y248117D01*
X-205079Y250000D01*
X-205000Y250079D01*
X-203117Y250454D01*
X-201521Y251521D01*
X-200454Y253117D01*
X-200079Y255000D01*
X-200000Y255079D01*
X-198117Y255454D01*
X-196521Y256521D01*
X-195454Y258117D01*
X-195079Y260000D01*
X-195454Y261883D01*
X-196521Y263479D01*
X-198117Y264546D01*
X-200000Y264921D01*
D02*
G37*
G36*
X159500Y270633D02*
X157631Y270261D01*
X156047Y269203D01*
X154988Y267618D01*
X154616Y265749D01*
X154988Y263880D01*
X156047Y262296D01*
X157631Y261237D01*
X159500Y260865D01*
X161369Y261237D01*
X162954Y262296D01*
X164012Y263880D01*
X164384Y265749D01*
X164012Y267618D01*
X162954Y269203D01*
X161369Y270261D01*
X159500Y270633D01*
D02*
G37*
G36*
X242500Y257421D02*
X240617Y257046D01*
X239702Y256435D01*
X238750Y256080D01*
X237798Y256435D01*
X236883Y257046D01*
X235000Y257421D01*
X233117Y257046D01*
X232202Y256435D01*
X231250Y256080D01*
X230298Y256435D01*
X229383Y257046D01*
X227500Y257421D01*
X225617Y257046D01*
X224702Y256435D01*
X223750Y256080D01*
X222798Y256435D01*
X221883Y257046D01*
X220000Y257421D01*
X218117Y257046D01*
X216521Y255979D01*
X215454Y254383D01*
X215079Y252500D01*
X215417Y250801D01*
X215449Y250602D01*
X214943Y249096D01*
X214021Y248479D01*
X212954Y246883D01*
X212579Y245000D01*
X211803Y244224D01*
X211000Y244384D01*
X209131Y244012D01*
X207547Y242953D01*
X206488Y241369D01*
X206116Y239500D01*
X206488Y237631D01*
X207547Y236047D01*
X209131Y234988D01*
X211000Y234616D01*
X212869Y234988D01*
X214453Y236047D01*
X215512Y237631D01*
X215809Y239121D01*
X216943Y240190D01*
X217500Y240079D01*
X219383Y240454D01*
X220298Y241065D01*
X221250Y241420D01*
X222202Y241065D01*
X223117Y240454D01*
X225000Y240079D01*
X226883Y240454D01*
X227798Y241065D01*
X228750Y241420D01*
X229702Y241065D01*
X230617Y240454D01*
X232500Y240079D01*
X234383Y240454D01*
X235979Y241521D01*
X237046Y243117D01*
X237421Y245000D01*
X237046Y246883D01*
X237557Y248404D01*
X237798Y248565D01*
X238750Y248920D01*
X239702Y248565D01*
X240617Y247954D01*
X242500Y247579D01*
X243854Y247849D01*
X244653Y247621D01*
X245186Y246963D01*
X245454Y245617D01*
X246521Y244021D01*
X248117Y242954D01*
X250000Y242579D01*
X251883Y242954D01*
X253479Y244021D01*
X254546Y245617D01*
X254921Y247500D01*
X254546Y249383D01*
X253479Y250979D01*
X251883Y252046D01*
X250000Y252421D01*
X248646Y252151D01*
X247847Y252379D01*
X247314Y253037D01*
X247046Y254383D01*
X245979Y255979D01*
X244383Y257046D01*
X242500Y257421D01*
D02*
G37*
G36*
X30000Y264921D02*
X28117Y264546D01*
X26521Y263479D01*
X25454Y261883D01*
X25080Y260000D01*
X25454Y258117D01*
X26521Y256521D01*
X28117Y255454D01*
X30000Y255079D01*
X31883Y255454D01*
X33479Y256521D01*
X34546Y258117D01*
X34920Y260000D01*
X34546Y261883D01*
X33479Y263479D01*
X31883Y264546D01*
X30000Y264921D01*
D02*
G37*
G36*
X-40000D02*
X-41883Y264546D01*
X-43479Y263479D01*
X-44546Y261883D01*
X-44921Y260000D01*
X-44546Y258117D01*
X-43479Y256521D01*
X-41883Y255454D01*
X-40000Y255079D01*
X-38117Y255454D01*
X-36521Y256521D01*
X-35454Y258117D01*
X-35080Y260000D01*
X-35454Y261883D01*
X-36521Y263479D01*
X-38117Y264546D01*
X-40000Y264921D01*
D02*
G37*
G36*
X-60000D02*
X-61883Y264546D01*
X-63479Y263479D01*
X-64546Y261883D01*
X-64921Y260000D01*
X-64546Y258117D01*
X-63479Y256521D01*
X-61883Y255454D01*
X-60000Y255079D01*
X-58117Y255454D01*
X-56521Y256521D01*
X-55454Y258117D01*
X-55079Y260000D01*
X-55454Y261883D01*
X-56521Y263479D01*
X-58117Y264546D01*
X-60000Y264921D01*
D02*
G37*
G36*
X-80000D02*
X-81883Y264546D01*
X-83479Y263479D01*
X-84546Y261883D01*
X-84921Y260000D01*
X-84546Y258117D01*
X-83479Y256521D01*
X-81883Y255454D01*
X-80000Y255079D01*
X-78117Y255454D01*
X-76521Y256521D01*
X-75454Y258117D01*
X-75079Y260000D01*
X-75454Y261883D01*
X-76521Y263479D01*
X-78117Y264546D01*
X-80000Y264921D01*
D02*
G37*
G36*
X-100000D02*
X-101883Y264546D01*
X-103479Y263479D01*
X-104546Y261883D01*
X-104921Y260000D01*
X-104546Y258117D01*
X-103479Y256521D01*
X-101883Y255454D01*
X-100000Y255079D01*
X-98117Y255454D01*
X-96521Y256521D01*
X-95454Y258117D01*
X-95079Y260000D01*
X-95454Y261883D01*
X-96521Y263479D01*
X-98117Y264546D01*
X-100000Y264921D01*
D02*
G37*
G36*
X-114000Y279884D02*
X-115869Y279512D01*
X-117453Y278453D01*
X-118512Y276869D01*
X-118884Y275000D01*
X-118512Y273131D01*
X-117453Y271547D01*
X-115949Y270541D01*
X-115869Y269887D01*
Y269863D01*
X-115949Y269209D01*
X-117453Y268203D01*
X-118512Y266619D01*
X-118884Y264750D01*
X-118512Y262881D01*
X-117453Y261297D01*
X-115869Y260238D01*
X-115664Y260197D01*
Y258902D01*
X-116369Y258762D01*
X-117953Y257703D01*
X-119012Y256119D01*
X-119384Y254250D01*
X-119012Y252381D01*
X-117953Y250797D01*
X-116369Y249738D01*
X-114500Y249366D01*
X-112631Y249738D01*
X-111047Y250797D01*
X-109988Y252381D01*
X-109616Y254250D01*
X-109988Y256119D01*
X-111047Y257703D01*
X-112631Y258762D01*
X-112836Y258803D01*
Y260098D01*
X-112131Y260238D01*
X-110547Y261297D01*
X-109488Y262881D01*
X-109116Y264750D01*
X-109488Y266619D01*
X-110547Y268203D01*
X-112051Y269209D01*
X-112131Y269863D01*
Y269887D01*
X-112051Y270541D01*
X-110547Y271547D01*
X-109488Y273131D01*
X-109116Y275000D01*
X-109488Y276869D01*
X-110547Y278453D01*
X-112131Y279512D01*
X-114000Y279884D01*
D02*
G37*
G36*
X-185250Y257134D02*
X-187119Y256762D01*
X-188703Y255703D01*
X-189762Y254119D01*
X-190134Y252250D01*
X-189762Y250381D01*
X-188703Y248797D01*
X-187119Y247738D01*
X-185250Y247366D01*
X-183381Y247738D01*
X-181797Y248797D01*
X-180738Y250381D01*
X-180366Y252250D01*
X-180738Y254119D01*
X-181797Y255703D01*
X-183381Y256762D01*
X-185250Y257134D01*
D02*
G37*
G36*
X151250Y256883D02*
X149381Y256511D01*
X147797Y255453D01*
X146738Y253868D01*
X146367Y251999D01*
X146738Y250130D01*
X147797Y248546D01*
X149381Y247487D01*
X151250Y247115D01*
X153119Y247487D01*
X154704Y248546D01*
X155762Y250130D01*
X156134Y251999D01*
X155762Y253868D01*
X154704Y255453D01*
X153119Y256511D01*
X151250Y256883D01*
D02*
G37*
G36*
X-40000Y244921D02*
X-41883Y244546D01*
X-43479Y243479D01*
X-44546Y241883D01*
X-44921Y240000D01*
X-44546Y238117D01*
X-43479Y236521D01*
X-41883Y235454D01*
X-40000Y235079D01*
X-38117Y235454D01*
X-36521Y236521D01*
X-35454Y238117D01*
X-35080Y240000D01*
X-35454Y241883D01*
X-36521Y243479D01*
X-38117Y244546D01*
X-40000Y244921D01*
D02*
G37*
G36*
X157750Y243883D02*
X155881Y243511D01*
X154297Y242453D01*
X153238Y240868D01*
X152866Y238999D01*
X153238Y237130D01*
X154297Y235546D01*
X155881Y234487D01*
X157750Y234115D01*
X159619Y234487D01*
X161204Y235546D01*
X162262Y237130D01*
X162634Y238999D01*
X162262Y240868D01*
X161204Y242453D01*
X159619Y243511D01*
X157750Y243883D01*
D02*
G37*
G36*
X-103500Y240634D02*
X-105369Y240262D01*
X-106953Y239203D01*
X-108012Y237619D01*
X-108384Y235750D01*
X-108012Y233881D01*
X-106953Y232297D01*
X-105369Y231238D01*
X-103500Y230866D01*
X-101631Y231238D01*
X-100047Y232297D01*
X-98988Y233881D01*
X-98616Y235750D01*
X-98988Y237619D01*
X-100047Y239203D01*
X-101631Y240262D01*
X-103500Y240634D01*
D02*
G37*
G36*
X125250Y246170D02*
X123367Y245795D01*
X121771Y244729D01*
X120704Y243132D01*
X120330Y241249D01*
X120704Y239366D01*
X121771Y237770D01*
X123367Y236703D01*
X125250Y236329D01*
X127066Y236690D01*
X127152Y236694D01*
X128432Y236043D01*
X128550Y235143D01*
X129305Y233320D01*
X130506Y231755D01*
X132072Y230554D01*
X133894Y229799D01*
X135850Y229542D01*
X137806Y229799D01*
X139629Y230554D01*
X141194Y231755D01*
X142395Y233320D01*
X143151Y235143D01*
X143408Y237099D01*
X143151Y239055D01*
X142395Y240878D01*
X141194Y242443D01*
X139629Y243644D01*
X137806Y244399D01*
X135850Y244657D01*
X133894Y244399D01*
X132072Y243644D01*
X131133Y242924D01*
X130457Y243029D01*
X129664Y243331D01*
X128730Y244729D01*
X127133Y245795D01*
X125250Y246170D01*
D02*
G37*
G36*
X-165000Y237384D02*
X-166869Y237012D01*
X-168453Y235953D01*
X-169512Y234369D01*
X-169884Y232500D01*
X-169512Y230631D01*
X-168453Y229047D01*
X-166869Y227988D01*
X-165000Y227616D01*
X-163131Y227988D01*
X-161547Y229047D01*
X-160488Y230631D01*
X-160116Y232500D01*
X-160488Y234369D01*
X-161547Y235953D01*
X-163131Y237012D01*
X-165000Y237384D01*
D02*
G37*
G36*
X30000Y244921D02*
X28117Y244546D01*
X26521Y243479D01*
X25454Y241883D01*
X25080Y240000D01*
X25454Y238117D01*
X26521Y236521D01*
X27740Y235706D01*
X27785Y235570D01*
Y234430D01*
X27740Y234294D01*
X26521Y233479D01*
X25454Y231883D01*
X25080Y230000D01*
X25454Y228117D01*
X26521Y226521D01*
X28117Y225454D01*
X30000Y225079D01*
X31883Y225454D01*
X33479Y226521D01*
X34546Y228117D01*
X34920Y230000D01*
X34546Y231883D01*
X33479Y233479D01*
X32260Y234294D01*
X32215Y234430D01*
Y235570D01*
X32260Y235706D01*
X33479Y236521D01*
X34546Y238117D01*
X34920Y240000D01*
X34546Y241883D01*
X33479Y243479D01*
X31883Y244546D01*
X30000Y244921D01*
D02*
G37*
G36*
X-192750Y232884D02*
X-194619Y232512D01*
X-196203Y231453D01*
X-197262Y229869D01*
X-197634Y228000D01*
X-197262Y226131D01*
X-196203Y224547D01*
X-194619Y223488D01*
X-192750Y223116D01*
X-190881Y223488D01*
X-189297Y224547D01*
X-188238Y226131D01*
X-187866Y228000D01*
X-188238Y229869D01*
X-189297Y231453D01*
X-190881Y232512D01*
X-192750Y232884D01*
D02*
G37*
G36*
X20000Y224921D02*
X18117Y224546D01*
X16521Y223479D01*
X15706Y222260D01*
X15570Y222215D01*
X14430D01*
X14294Y222260D01*
X13479Y223479D01*
X11883Y224546D01*
X10000Y224921D01*
X8117Y224546D01*
X6521Y223479D01*
X5706Y222260D01*
X5570Y222215D01*
X4430D01*
X4294Y222260D01*
X3479Y223479D01*
X1883Y224546D01*
X0Y224921D01*
X-1883Y224546D01*
X-3479Y223479D01*
X-4294Y222260D01*
X-4430Y222215D01*
X-5570D01*
X-5706Y222260D01*
X-6521Y223479D01*
X-8117Y224546D01*
X-10000Y224921D01*
X-11883Y224546D01*
X-13479Y223479D01*
X-14546Y221883D01*
X-14921Y220000D01*
X-14546Y218117D01*
X-13479Y216521D01*
X-11883Y215454D01*
X-10000Y215079D01*
X-8117Y215454D01*
X-6521Y216521D01*
X-5706Y217740D01*
X-5570Y217785D01*
X-4430D01*
X-4294Y217740D01*
X-3479Y216521D01*
X-1883Y215454D01*
X0Y215079D01*
X1883Y215454D01*
X3479Y216521D01*
X4294Y217740D01*
X4430Y217785D01*
X5570D01*
X5706Y217740D01*
X6521Y216521D01*
X8117Y215454D01*
X10000Y215079D01*
X11883Y215454D01*
X13479Y216521D01*
X14294Y217740D01*
X14430Y217785D01*
X15570D01*
X15706Y217740D01*
X16521Y216521D01*
X18117Y215454D01*
X20000Y215079D01*
X21883Y215454D01*
X23479Y216521D01*
X24546Y218117D01*
X24920Y220000D01*
X24546Y221883D01*
X23479Y223479D01*
X21883Y224546D01*
X20000Y224921D01*
D02*
G37*
G36*
X-90250Y223171D02*
X-92133Y222796D01*
X-93729Y221729D01*
X-94796Y220133D01*
X-95171Y218250D01*
X-94796Y216367D01*
X-93729Y214771D01*
X-92133Y213704D01*
X-90250Y213330D01*
X-88367Y213704D01*
X-86771Y214771D01*
X-85704Y216367D01*
X-85330Y218250D01*
X-85704Y220133D01*
X-86771Y221729D01*
X-88367Y222796D01*
X-90250Y223171D01*
D02*
G37*
G36*
X-137750Y219134D02*
X-139619Y218762D01*
X-141203Y217703D01*
X-142262Y216119D01*
X-142634Y214250D01*
X-142262Y212381D01*
X-141203Y210797D01*
X-139619Y209738D01*
X-137750Y209366D01*
X-135881Y209738D01*
X-134297Y210797D01*
X-133238Y212381D01*
X-132866Y214250D01*
X-133238Y216119D01*
X-134297Y217703D01*
X-135881Y218762D01*
X-137750Y219134D01*
D02*
G37*
G36*
X-79750Y214384D02*
X-81619Y214012D01*
X-83203Y212953D01*
X-84262Y211369D01*
X-84634Y209500D01*
X-84262Y207631D01*
X-83203Y206047D01*
X-81619Y204988D01*
X-79750Y204616D01*
X-77881Y204988D01*
X-76297Y206047D01*
X-75238Y207631D01*
X-74866Y209500D01*
X-75238Y211369D01*
X-76297Y212953D01*
X-77881Y214012D01*
X-79750Y214384D01*
D02*
G37*
G36*
X163750Y220133D02*
X161881Y219761D01*
X160297Y218703D01*
X159238Y217118D01*
X158867Y215249D01*
X159172Y213713D01*
X157383Y213358D01*
X155799Y212299D01*
X154740Y210714D01*
X154368Y208846D01*
X154740Y206977D01*
X155799Y205392D01*
X157383Y204333D01*
X159252Y203962D01*
X161121Y204333D01*
X162706Y205392D01*
X163764Y206977D01*
X164136Y208846D01*
X163831Y210381D01*
X165619Y210737D01*
X167204Y211796D01*
X168262Y213380D01*
X168634Y215249D01*
X168262Y217118D01*
X167204Y218703D01*
X165619Y219761D01*
X163750Y220133D01*
D02*
G37*
G36*
X80254Y213481D02*
X78385Y213110D01*
X76801Y212051D01*
X75742Y210466D01*
X75370Y208598D01*
X75742Y206729D01*
X76801Y205144D01*
X78385Y204086D01*
X80254Y203714D01*
X82123Y204086D01*
X83708Y205144D01*
X84766Y206729D01*
X85138Y208598D01*
X84766Y210466D01*
X83708Y212051D01*
X82123Y213110D01*
X80254Y213481D01*
D02*
G37*
G36*
X-305562Y208592D02*
X-307431Y208220D01*
X-309015Y207161D01*
X-310074Y205577D01*
X-310446Y203708D01*
X-310074Y201839D01*
X-309015Y200255D01*
X-307431Y199196D01*
X-305562Y198824D01*
X-303693Y199196D01*
X-302109Y200255D01*
X-301050Y201839D01*
X-300678Y203708D01*
X-301050Y205577D01*
X-302109Y207161D01*
X-303693Y208220D01*
X-305562Y208592D01*
D02*
G37*
G36*
X-41750Y206384D02*
X-43619Y206012D01*
X-45203Y204953D01*
X-46262Y203369D01*
X-46634Y201500D01*
X-46262Y199631D01*
X-45203Y198047D01*
X-43619Y196988D01*
X-41750Y196616D01*
X-39881Y196988D01*
X-38297Y198047D01*
X-37238Y199631D01*
X-36866Y201500D01*
X-37238Y203369D01*
X-38297Y204953D01*
X-39881Y206012D01*
X-41750Y206384D01*
D02*
G37*
G36*
X-30000Y204921D02*
X-31883Y204546D01*
X-33479Y203479D01*
X-34546Y201883D01*
X-34920Y200000D01*
X-34546Y198117D01*
X-33479Y196521D01*
X-31883Y195454D01*
X-30000Y195079D01*
X-28117Y195454D01*
X-26521Y196521D01*
X-25454Y198117D01*
X-25080Y200000D01*
X-25454Y201883D01*
X-26521Y203479D01*
X-28117Y204546D01*
X-30000Y204921D01*
D02*
G37*
G36*
X-124252Y214276D02*
X-126742Y213948D01*
X-129063Y212987D01*
X-131056Y211458D01*
X-132585Y209465D01*
X-133547Y207144D01*
X-133874Y204654D01*
X-133546Y202163D01*
X-132585Y199843D01*
X-131056Y197850D01*
X-129063Y196320D01*
X-126743Y195359D01*
X-124252Y195031D01*
X-121762Y195359D01*
X-119441Y196320D01*
X-117448Y197850D01*
X-115919Y199843D01*
X-114958Y202163D01*
X-114630Y204654D01*
X-114958Y207144D01*
X-115919Y209465D01*
X-117448Y211458D01*
X-119441Y212987D01*
X-121762Y213948D01*
X-124252Y214276D01*
D02*
G37*
G36*
X110252Y203479D02*
X108383Y203107D01*
X106799Y202049D01*
X105740Y200464D01*
X105368Y198596D01*
X105740Y196726D01*
X106799Y195142D01*
X108383Y194083D01*
X110252Y193712D01*
X112121Y194083D01*
X113706Y195142D01*
X114764Y196726D01*
X115136Y198596D01*
X114764Y200464D01*
X113706Y202049D01*
X112121Y203107D01*
X110252Y203479D01*
D02*
G37*
G36*
X181356Y203003D02*
X179487Y202631D01*
X177903Y201573D01*
X176844Y199988D01*
X176472Y198119D01*
X176844Y196250D01*
X177903Y194666D01*
X179487Y193607D01*
X181356Y193235D01*
X183225Y193607D01*
X184810Y194666D01*
X185868Y196250D01*
X186240Y198119D01*
X185868Y199988D01*
X184810Y201573D01*
X183225Y202631D01*
X181356Y203003D01*
D02*
G37*
G36*
X149380Y200921D02*
X147511Y200550D01*
X145926Y199491D01*
X144868Y197906D01*
X144496Y196038D01*
X144868Y194168D01*
X145926Y192584D01*
X147511Y191525D01*
X149380Y191154D01*
X151249Y191525D01*
X152833Y192584D01*
X153892Y194168D01*
X154263Y196038D01*
X153892Y197906D01*
X152833Y199491D01*
X151249Y200550D01*
X149380Y200921D01*
D02*
G37*
G36*
X-136500Y199634D02*
X-138369Y199262D01*
X-139953Y198203D01*
X-141012Y196619D01*
X-141384Y194750D01*
X-141012Y192881D01*
X-139953Y191297D01*
X-138369Y190238D01*
X-136500Y189866D01*
X-134631Y190238D01*
X-133047Y191297D01*
X-131988Y192881D01*
X-131616Y194750D01*
X-131988Y196619D01*
X-133047Y198203D01*
X-134631Y199262D01*
X-136500Y199634D01*
D02*
G37*
G36*
X-107750Y196670D02*
X-109633Y196296D01*
X-111229Y195229D01*
X-112296Y193633D01*
X-112670Y191750D01*
X-112296Y189867D01*
X-111229Y188271D01*
X-109633Y187204D01*
X-107750Y186829D01*
X-105867Y187204D01*
X-104271Y188271D01*
X-103204Y189867D01*
X-102830Y191750D01*
X-103204Y193633D01*
X-104271Y195229D01*
X-105867Y196296D01*
X-107750Y196670D01*
D02*
G37*
G36*
X-235204Y196400D02*
X-237073Y196028D01*
X-238657Y194969D01*
X-239716Y193385D01*
X-240088Y191516D01*
X-239716Y189647D01*
X-238657Y188063D01*
X-237073Y187004D01*
X-235204Y186632D01*
X-233335Y187004D01*
X-231751Y188063D01*
X-230692Y189647D01*
X-230320Y191516D01*
X-230692Y193385D01*
X-231751Y194969D01*
X-233335Y196028D01*
X-235204Y196400D01*
D02*
G37*
G36*
X78426Y193021D02*
X76557Y192650D01*
X74973Y191591D01*
X73914Y190006D01*
X73542Y188137D01*
X73914Y186269D01*
X74973Y184684D01*
X76557Y183625D01*
X78426Y183254D01*
X80295Y183625D01*
X81880Y184684D01*
X82938Y186269D01*
X83310Y188137D01*
X82938Y190006D01*
X81880Y191591D01*
X80295Y192650D01*
X78426Y193021D01*
D02*
G37*
G36*
X249500Y192171D02*
X247617Y191796D01*
X246021Y190729D01*
X244954Y189133D01*
X244580Y187250D01*
X244954Y185367D01*
X246021Y183771D01*
X247617Y182704D01*
X249500Y182330D01*
X251383Y182704D01*
X252979Y183771D01*
X254046Y185367D01*
X254421Y187250D01*
X254046Y189133D01*
X252979Y190729D01*
X251383Y191796D01*
X249500Y192171D01*
D02*
G37*
G36*
X89856Y192005D02*
X87987Y191634D01*
X86403Y190575D01*
X85344Y188990D01*
X84972Y187122D01*
X85344Y185252D01*
X86403Y183668D01*
X87987Y182609D01*
X89856Y182238D01*
X91725Y182609D01*
X93310Y183668D01*
X94368Y185252D01*
X94740Y187122D01*
X94368Y188990D01*
X93310Y190575D01*
X91725Y191634D01*
X89856Y192005D01*
D02*
G37*
G36*
X190246Y189033D02*
X188377Y188661D01*
X186793Y187603D01*
X185734Y186018D01*
X185362Y184149D01*
X185734Y182280D01*
X186793Y180696D01*
X188377Y179637D01*
X190246Y179265D01*
X192115Y179637D01*
X193700Y180696D01*
X194758Y182280D01*
X195130Y184149D01*
X194758Y186018D01*
X193700Y187603D01*
X192115Y188661D01*
X190246Y189033D01*
D02*
G37*
G36*
X236500Y187883D02*
X234631Y187511D01*
X233047Y186453D01*
X231988Y184868D01*
X231616Y182999D01*
X231988Y181130D01*
X233047Y179546D01*
X234631Y178487D01*
X236500Y178115D01*
X238369Y178487D01*
X239954Y179546D01*
X241012Y181130D01*
X241384Y182999D01*
X241012Y184868D01*
X239954Y186453D01*
X238369Y187511D01*
X236500Y187883D01*
D02*
G37*
G36*
X-176509Y187143D02*
X-178378Y186771D01*
X-179962Y185712D01*
X-181021Y184128D01*
X-181392Y182259D01*
X-181021Y180390D01*
X-179962Y178806D01*
X-178378Y177747D01*
X-176509Y177375D01*
X-174640Y177747D01*
X-173055Y178806D01*
X-171996Y180390D01*
X-171778Y181490D01*
X-170483D01*
X-170262Y180381D01*
X-169203Y178797D01*
X-167619Y177738D01*
X-165750Y177366D01*
X-163881Y177738D01*
X-162297Y178797D01*
X-161238Y180381D01*
X-160866Y182250D01*
X-161238Y184119D01*
X-162297Y185703D01*
X-163881Y186762D01*
X-165750Y187134D01*
X-167619Y186762D01*
X-169203Y185703D01*
X-170262Y184119D01*
X-170481Y183018D01*
X-171776D01*
X-171996Y184128D01*
X-173055Y185712D01*
X-174640Y186771D01*
X-176509Y187143D01*
D02*
G37*
G36*
X-145252Y186537D02*
X-147121Y186166D01*
X-148705Y185107D01*
X-149764Y183523D01*
X-150136Y181654D01*
X-149764Y179785D01*
X-148705Y178200D01*
X-147121Y177142D01*
X-145252Y176770D01*
X-143383Y177142D01*
X-141798Y178200D01*
X-140740Y179785D01*
X-140368Y181654D01*
X-140740Y183523D01*
X-141798Y185107D01*
X-143383Y186166D01*
X-145252Y186537D01*
D02*
G37*
G36*
X-91750Y186384D02*
X-93619Y186012D01*
X-95203Y184953D01*
X-96262Y183369D01*
X-96634Y181500D01*
X-96262Y179631D01*
X-95203Y178047D01*
X-93619Y176988D01*
X-91750Y176616D01*
X-89881Y176988D01*
X-88297Y178047D01*
X-87238Y179631D01*
X-86866Y181500D01*
X-87238Y183369D01*
X-88297Y184953D01*
X-89881Y186012D01*
X-91750Y186384D01*
D02*
G37*
G36*
X18500Y187383D02*
X16631Y187011D01*
X15047Y185953D01*
X13988Y184368D01*
X13616Y182499D01*
X13988Y180630D01*
X15047Y179046D01*
X16631Y177987D01*
X18500Y177615D01*
X20369Y177987D01*
X20531Y178095D01*
X21446Y177179D01*
X21238Y176868D01*
X20866Y174999D01*
X21238Y173130D01*
X21905Y172132D01*
X21141Y170989D01*
X19812Y171254D01*
X17943Y170882D01*
X16359Y169823D01*
X15300Y168239D01*
X14928Y166370D01*
X15300Y164501D01*
X16359Y162917D01*
X17943Y161858D01*
X19812Y161486D01*
X21681Y161858D01*
X23265Y162917D01*
X24324Y164501D01*
X24696Y166370D01*
X24324Y168239D01*
X23657Y169237D01*
X24421Y170380D01*
X25750Y170115D01*
X27619Y170487D01*
X29204Y171546D01*
X30262Y173130D01*
X30634Y174999D01*
X30262Y176868D01*
X29204Y178453D01*
X27619Y179511D01*
X25750Y179883D01*
X23881Y179511D01*
X23720Y179404D01*
X22805Y180319D01*
X23012Y180630D01*
X23384Y182499D01*
X23012Y184368D01*
X21954Y185953D01*
X20369Y187011D01*
X18500Y187383D01*
D02*
G37*
G36*
X-51252Y175231D02*
X-53482Y174787D01*
X-55372Y173524D01*
X-56635Y171634D01*
X-57079Y169404D01*
X-56635Y167174D01*
X-55372Y165283D01*
X-53482Y164020D01*
X-51252Y163577D01*
X-49022Y164020D01*
X-47132Y165283D01*
X-45869Y167174D01*
X-45425Y169404D01*
X-45869Y171634D01*
X-47132Y173524D01*
X-49022Y174787D01*
X-51252Y175231D01*
D02*
G37*
G36*
X-195250Y177384D02*
X-197119Y177012D01*
X-198703Y175953D01*
X-199762Y174369D01*
X-200134Y172500D01*
X-199762Y170631D01*
X-199111Y169657D01*
X-198731Y168383D01*
X-199798Y166787D01*
X-200172Y164904D01*
X-199798Y163021D01*
X-198731Y161424D01*
X-197135Y160358D01*
X-195252Y159983D01*
X-193369Y160358D01*
X-191772Y161424D01*
X-190706Y163021D01*
X-190331Y164904D01*
X-190706Y166787D01*
X-191772Y168383D01*
X-191390Y169655D01*
X-190738Y170631D01*
X-190366Y172500D01*
X-190738Y174369D01*
X-191797Y175953D01*
X-193381Y177012D01*
X-195250Y177384D01*
D02*
G37*
G36*
X-111250Y169322D02*
X-113119Y168950D01*
X-114703Y167891D01*
X-115762Y166307D01*
X-116134Y164438D01*
X-115762Y162569D01*
X-114703Y160984D01*
X-113119Y159926D01*
X-111250Y159554D01*
X-109381Y159926D01*
X-107797Y160984D01*
X-106738Y162569D01*
X-106366Y164438D01*
X-106738Y166307D01*
X-107797Y167891D01*
X-109381Y168950D01*
X-111250Y169322D01*
D02*
G37*
G36*
X-91023Y166361D02*
X-92892Y165989D01*
X-94476Y164931D01*
X-95535Y163346D01*
X-95906Y161477D01*
X-95535Y159608D01*
X-94476Y158024D01*
X-92892Y156965D01*
X-91023Y156594D01*
X-89293Y156938D01*
X-88730Y156593D01*
X-88165Y156098D01*
X-88384Y155000D01*
X-88012Y153131D01*
X-86953Y151547D01*
X-85369Y150488D01*
X-83500Y150116D01*
X-81631Y150488D01*
X-80047Y151547D01*
X-79376Y152550D01*
X-78293Y153142D01*
X-77689Y153152D01*
X-76250Y152866D01*
X-74381Y153238D01*
X-72797Y154297D01*
X-71738Y155881D01*
X-71366Y157750D01*
X-71738Y159619D01*
X-72797Y161203D01*
X-74381Y162262D01*
X-76250Y162634D01*
X-78119Y162262D01*
X-79703Y161203D01*
X-80374Y160200D01*
X-81456Y159608D01*
X-82061Y159598D01*
X-83500Y159884D01*
X-85229Y159540D01*
X-85793Y159884D01*
X-86357Y160379D01*
X-86139Y161477D01*
X-86511Y163346D01*
X-87569Y164931D01*
X-89154Y165989D01*
X-91023Y166361D01*
D02*
G37*
G36*
X192955Y163432D02*
X191086Y163060D01*
X189501Y162001D01*
X188443Y160417D01*
X188071Y158548D01*
X188443Y156679D01*
X188991Y155858D01*
X189547Y154703D01*
X188488Y153118D01*
X188116Y151249D01*
X188488Y149380D01*
X189547Y147796D01*
X191131Y146737D01*
X193000Y146365D01*
X194869Y146737D01*
X196454Y147796D01*
X197512Y149380D01*
X197884Y151249D01*
X197512Y153118D01*
X196964Y153939D01*
X196408Y155095D01*
X197467Y156679D01*
X197839Y158548D01*
X197467Y160417D01*
X196408Y162001D01*
X194824Y163060D01*
X192955Y163432D01*
D02*
G37*
G36*
X101252Y160229D02*
X99383Y159858D01*
X97799Y158799D01*
X96740Y157214D01*
X96580Y156409D01*
X96002Y155229D01*
X94133Y154858D01*
X92549Y153799D01*
X91490Y152214D01*
X91118Y150345D01*
X91490Y148476D01*
X92549Y146892D01*
X94133Y145833D01*
X96002Y145462D01*
X97871Y145833D01*
X99456Y146892D01*
X100514Y148476D01*
X100674Y149282D01*
X101252Y150462D01*
X103121Y150833D01*
X104706Y151892D01*
X105764Y153476D01*
X106136Y155345D01*
X105764Y157214D01*
X104706Y158799D01*
X103121Y159858D01*
X101252Y160229D01*
D02*
G37*
G36*
X-142000Y150634D02*
X-143869Y150262D01*
X-145453Y149203D01*
X-146512Y147619D01*
X-146884Y145750D01*
X-146512Y143881D01*
X-145453Y142297D01*
X-143869Y141238D01*
X-142000Y140866D01*
X-140131Y141238D01*
X-138547Y142297D01*
X-137488Y143881D01*
X-137116Y145750D01*
X-137488Y147619D01*
X-138547Y149203D01*
X-140131Y150262D01*
X-142000Y150634D01*
D02*
G37*
G36*
X-193250Y145884D02*
X-195119Y145512D01*
X-196703Y144453D01*
X-197762Y142869D01*
X-198134Y141000D01*
X-197762Y139131D01*
X-196703Y137547D01*
X-195119Y136488D01*
X-193250Y136116D01*
X-191381Y136488D01*
X-189797Y137547D01*
X-188738Y139131D01*
X-188366Y141000D01*
X-188738Y142869D01*
X-189797Y144453D01*
X-191381Y145512D01*
X-193250Y145884D01*
D02*
G37*
G36*
X-20000Y144921D02*
X-21883Y144546D01*
X-23479Y143479D01*
X-24546Y141883D01*
X-24920Y140000D01*
X-24546Y138117D01*
X-23479Y136521D01*
X-21883Y135454D01*
X-20000Y135079D01*
X-18117Y135454D01*
X-16521Y136521D01*
X-15454Y138117D01*
X-15079Y140000D01*
X-15454Y141883D01*
X-16521Y143479D01*
X-18117Y144546D01*
X-20000Y144921D01*
D02*
G37*
G36*
X-236500Y141884D02*
X-238369Y141512D01*
X-239953Y140453D01*
X-241012Y138869D01*
X-241384Y137000D01*
X-241012Y135131D01*
X-239953Y133547D01*
X-238369Y132488D01*
X-236500Y132116D01*
X-234631Y132488D01*
X-233047Y133547D01*
X-231988Y135131D01*
X-231616Y137000D01*
X-231988Y138869D01*
X-233047Y140453D01*
X-234631Y141512D01*
X-236500Y141884D01*
D02*
G37*
G36*
X-304546Y141028D02*
X-306415Y140656D01*
X-307999Y139597D01*
X-309058Y138013D01*
X-309430Y136144D01*
X-309058Y134275D01*
X-307999Y132691D01*
X-306415Y131632D01*
X-304546Y131260D01*
X-302677Y131632D01*
X-301093Y132691D01*
X-300034Y134275D01*
X-299662Y136144D01*
X-300034Y138013D01*
X-301093Y139597D01*
X-302677Y140656D01*
X-304546Y141028D01*
D02*
G37*
G36*
X-99502Y148038D02*
X-101371Y147666D01*
X-102955Y146607D01*
X-104014Y145023D01*
X-104386Y143154D01*
X-104014Y141285D01*
X-103045Y139835D01*
X-102953Y139658D01*
X-102853Y138105D01*
X-103512Y137119D01*
X-103884Y135250D01*
X-103512Y133381D01*
X-102453Y131797D01*
X-100869Y130738D01*
X-99000Y130366D01*
X-97131Y130738D01*
X-95547Y131797D01*
X-94488Y133381D01*
X-94116Y135250D01*
X-94488Y137119D01*
X-95456Y138568D01*
X-95549Y138746D01*
X-95648Y140299D01*
X-94990Y141285D01*
X-94618Y143154D01*
X-94990Y145023D01*
X-96048Y146607D01*
X-97633Y147666D01*
X-99502Y148038D01*
D02*
G37*
G36*
X-183000Y139134D02*
X-184869Y138762D01*
X-186453Y137703D01*
X-187512Y136119D01*
X-187884Y134250D01*
X-187512Y132381D01*
X-186453Y130797D01*
X-184869Y129738D01*
X-183000Y129366D01*
X-181131Y129738D01*
X-179547Y130797D01*
X-178488Y132381D01*
X-178116Y134250D01*
X-178488Y136119D01*
X-179547Y137703D01*
X-181131Y138762D01*
X-183000Y139134D01*
D02*
G37*
G36*
X33722Y134730D02*
X31839Y134355D01*
X30243Y133289D01*
X29176Y131692D01*
X28802Y129810D01*
X29176Y127927D01*
X30243Y126330D01*
X31839Y125264D01*
X33722Y124889D01*
X35605Y125264D01*
X37202Y126330D01*
X38268Y127927D01*
X38643Y129810D01*
X38268Y131692D01*
X37202Y133289D01*
X35605Y134355D01*
X33722Y134730D01*
D02*
G37*
G36*
X76394Y143745D02*
X74525Y143374D01*
X72941Y142315D01*
X71882Y140730D01*
X71510Y138862D01*
X71882Y136993D01*
X72941Y135408D01*
X74267Y134522D01*
X74285Y133514D01*
X74283Y133497D01*
X74188Y133164D01*
X72705Y132173D01*
X71646Y130589D01*
X71275Y128720D01*
X71646Y126851D01*
X72705Y125266D01*
X74289Y124207D01*
X76158Y123836D01*
X78027Y124207D01*
X79612Y125266D01*
X80670Y126851D01*
X81042Y128720D01*
X80670Y130589D01*
X79612Y132173D01*
X78286Y133059D01*
X78268Y134067D01*
X78270Y134084D01*
X78365Y134417D01*
X79848Y135408D01*
X80906Y136993D01*
X81278Y138862D01*
X80906Y140730D01*
X79848Y142315D01*
X78263Y143374D01*
X76394Y143745D01*
D02*
G37*
G36*
X293250Y133133D02*
X291381Y132761D01*
X289797Y131703D01*
X288738Y130118D01*
X288367Y128249D01*
X288738Y126380D01*
X289797Y124796D01*
X291381Y123737D01*
X293250Y123365D01*
X295119Y123737D01*
X296704Y124796D01*
X297762Y126380D01*
X298134Y128249D01*
X297762Y130118D01*
X296704Y131703D01*
X295119Y132761D01*
X293250Y133133D01*
D02*
G37*
G36*
X234750Y133633D02*
X232881Y133261D01*
X231297Y132203D01*
X230238Y130618D01*
X229867Y128749D01*
X230238Y126880D01*
X231297Y125296D01*
X232881Y124237D01*
X234750Y123865D01*
X236619Y124237D01*
X237297Y124690D01*
X238771Y124771D01*
X240367Y123704D01*
X242250Y123329D01*
X244133Y123704D01*
X244702Y124084D01*
X245750Y124757D01*
X246798Y124084D01*
X247367Y123704D01*
X249250Y123329D01*
X251133Y123704D01*
X252729Y124771D01*
X253796Y126367D01*
X254170Y128250D01*
X253796Y130133D01*
X252729Y131729D01*
X251133Y132796D01*
X249250Y133170D01*
X247367Y132796D01*
X246798Y132416D01*
X245750Y131743D01*
X244702Y132416D01*
X244133Y132796D01*
X242250Y133170D01*
X240367Y132796D01*
X238771Y131729D01*
X238258Y132121D01*
X238204Y132203D01*
X236619Y133261D01*
X234750Y133633D01*
D02*
G37*
G36*
X185235Y132186D02*
X183366Y131814D01*
X181782Y130756D01*
X180723Y129171D01*
X180351Y127302D01*
X180723Y125433D01*
X181782Y123849D01*
X183366Y122790D01*
X185235Y122418D01*
X187104Y122790D01*
X188689Y123849D01*
X189747Y125433D01*
X190119Y127302D01*
X189747Y129171D01*
X188689Y130756D01*
X187104Y131814D01*
X185235Y132186D01*
D02*
G37*
G36*
X-194750Y129884D02*
X-196619Y129512D01*
X-198203Y128453D01*
X-199262Y126869D01*
X-199634Y125000D01*
X-199262Y123131D01*
X-198203Y121547D01*
X-196619Y120488D01*
X-194750Y120116D01*
X-192881Y120488D01*
X-191297Y121547D01*
X-190238Y123131D01*
X-189866Y125000D01*
X-190238Y126869D01*
X-191297Y128453D01*
X-192881Y129512D01*
X-194750Y129884D01*
D02*
G37*
G36*
X169672Y127565D02*
X167803Y127193D01*
X166219Y126135D01*
X165160Y124550D01*
X164788Y122681D01*
X165160Y120812D01*
X166219Y119228D01*
X167803Y118169D01*
X169672Y117797D01*
X171541Y118169D01*
X173126Y119228D01*
X174184Y120812D01*
X174556Y122681D01*
X174184Y124550D01*
X173126Y126135D01*
X171541Y127193D01*
X169672Y127565D01*
D02*
G37*
G36*
X-33722Y125110D02*
X-35605Y124736D01*
X-37201Y123669D01*
X-38268Y122073D01*
X-38642Y120190D01*
X-38268Y118307D01*
X-37201Y116710D01*
X-35605Y115644D01*
X-33722Y115269D01*
X-31839Y115644D01*
X-30243Y116710D01*
X-29176Y118307D01*
X-28801Y120190D01*
X-29176Y122073D01*
X-30243Y123669D01*
X-31839Y124736D01*
X-33722Y125110D01*
D02*
G37*
G36*
X183000Y120633D02*
X181131Y120261D01*
X179547Y119203D01*
X178488Y117618D01*
X178116Y115749D01*
X178488Y113880D01*
X179547Y112296D01*
X181131Y111237D01*
X183000Y110865D01*
X184869Y111237D01*
X186454Y112296D01*
X187512Y113880D01*
X187884Y115749D01*
X187512Y117618D01*
X186454Y119203D01*
X184869Y120261D01*
X183000Y120633D01*
D02*
G37*
G36*
X-76158Y126163D02*
X-78027Y125792D01*
X-79611Y124733D01*
X-80670Y123148D01*
X-81042Y121280D01*
X-80670Y119411D01*
X-79611Y117826D01*
X-78285Y116940D01*
X-78268Y115932D01*
X-78270Y115915D01*
X-78365Y115582D01*
X-79847Y114591D01*
X-80906Y113007D01*
X-81278Y111138D01*
X-80906Y109269D01*
X-79847Y107684D01*
X-78263Y106626D01*
X-76394Y106254D01*
X-74525Y106626D01*
X-72941Y107684D01*
X-71882Y109269D01*
X-71510Y111138D01*
X-71882Y113007D01*
X-72941Y114591D01*
X-74267Y115477D01*
X-74284Y116485D01*
X-74282Y116502D01*
X-74187Y116835D01*
X-72705Y117826D01*
X-71646Y119411D01*
X-71274Y121280D01*
X-71646Y123148D01*
X-72705Y124733D01*
X-74289Y125792D01*
X-76158Y126163D01*
D02*
G37*
G36*
X193250Y113883D02*
X191381Y113511D01*
X189797Y112453D01*
X188738Y110868D01*
X188367Y108999D01*
X188738Y107130D01*
X189797Y105546D01*
X191381Y104487D01*
X193250Y104115D01*
X195119Y104487D01*
X196704Y105546D01*
X197762Y107130D01*
X198134Y108999D01*
X197762Y110868D01*
X196704Y112453D01*
X195119Y113511D01*
X193250Y113883D01*
D02*
G37*
G36*
X99680Y121907D02*
X97811Y121536D01*
X96227Y120477D01*
X95168Y118892D01*
X94796Y117023D01*
X95168Y115154D01*
X96227Y113570D01*
X97608Y112647D01*
X97626Y111708D01*
X97530Y111288D01*
X96049Y110299D01*
X94990Y108714D01*
X94618Y106846D01*
X94990Y104977D01*
X96049Y103392D01*
X97633Y102333D01*
X99502Y101962D01*
X101371Y102333D01*
X102956Y103392D01*
X104014Y104977D01*
X104386Y106846D01*
X104014Y108714D01*
X102956Y110299D01*
X101575Y111222D01*
X101556Y112161D01*
X101653Y112581D01*
X103134Y113570D01*
X104192Y115154D01*
X104564Y117023D01*
X104192Y118892D01*
X103134Y120477D01*
X101549Y121536D01*
X99680Y121907D01*
D02*
G37*
G36*
X142250Y109634D02*
X140381Y109262D01*
X138797Y108203D01*
X137738Y106619D01*
X137366Y104750D01*
X137738Y102881D01*
X138797Y101297D01*
X140381Y100238D01*
X142250Y99866D01*
X144119Y100238D01*
X145703Y101297D01*
X146762Y102881D01*
X147134Y104750D01*
X146762Y106619D01*
X145703Y108203D01*
X144119Y109262D01*
X142250Y109634D01*
D02*
G37*
G36*
X-96002Y104538D02*
X-97871Y104166D01*
X-99455Y103107D01*
X-100514Y101523D01*
X-100674Y100718D01*
X-101252Y99538D01*
X-103121Y99166D01*
X-104705Y98107D01*
X-105764Y96523D01*
X-106136Y94654D01*
X-105764Y92785D01*
X-104705Y91200D01*
X-103121Y90142D01*
X-101252Y89770D01*
X-99383Y90142D01*
X-97799Y91200D01*
X-96740Y92785D01*
X-96580Y93590D01*
X-96002Y94770D01*
X-94133Y95142D01*
X-92549Y96200D01*
X-91490Y97785D01*
X-91118Y99654D01*
X-91490Y101523D01*
X-92549Y103107D01*
X-94133Y104166D01*
X-96002Y104538D01*
D02*
G37*
G36*
X81750Y96133D02*
X79881Y95761D01*
X78297Y94703D01*
X77238Y93118D01*
X76866Y91249D01*
X77190Y89621D01*
X75381Y89261D01*
X73797Y88203D01*
X72738Y86618D01*
X72366Y84749D01*
X72738Y82880D01*
X73797Y81296D01*
X75381Y80237D01*
X77250Y79865D01*
X79119Y80237D01*
X80704Y81296D01*
X81762Y82880D01*
X82134Y84749D01*
X81810Y86377D01*
X83619Y86737D01*
X85204Y87796D01*
X85229Y87834D01*
X86475Y87586D01*
X86511Y87403D01*
X87570Y85819D01*
X89154Y84760D01*
X91023Y84388D01*
X92892Y84760D01*
X94476Y85819D01*
X95535Y87403D01*
X95907Y89272D01*
X95535Y91141D01*
X94476Y92725D01*
X92892Y93784D01*
X91023Y94156D01*
X89154Y93784D01*
X87570Y92725D01*
X87544Y92688D01*
X86299Y92935D01*
X86262Y93118D01*
X85204Y94703D01*
X83619Y95761D01*
X81750Y96133D01*
D02*
G37*
G36*
X-193750Y111384D02*
X-195619Y111012D01*
X-197203Y109953D01*
X-198262Y108369D01*
X-198634Y106500D01*
X-198262Y104631D01*
X-197203Y103047D01*
X-197001Y101384D01*
X-197512Y100619D01*
X-197884Y98750D01*
X-197512Y96881D01*
X-196964Y96060D01*
X-196408Y94905D01*
X-197467Y93320D01*
X-197838Y91451D01*
X-197796Y91240D01*
X-198847Y90015D01*
X-200119Y89762D01*
X-201703Y88703D01*
X-202762Y87119D01*
X-203134Y85250D01*
X-202762Y83381D01*
X-202572Y83097D01*
X-202736Y82780D01*
X-203412Y82068D01*
X-205000Y82384D01*
X-206869Y82012D01*
X-208453Y80953D01*
X-209512Y79369D01*
X-209884Y77500D01*
X-209512Y75631D01*
X-208453Y74047D01*
X-206869Y72988D01*
X-205000Y72616D01*
X-203131Y72988D01*
X-201547Y74047D01*
X-200488Y75631D01*
X-200116Y77500D01*
X-200488Y79369D01*
X-200678Y79653D01*
X-200514Y79970D01*
X-199838Y80682D01*
X-198250Y80366D01*
X-196381Y80738D01*
X-194797Y81797D01*
X-194287D01*
X-193953Y81297D01*
X-192369Y80238D01*
X-190500Y79866D01*
X-188631Y80238D01*
X-187047Y81297D01*
X-185988Y82881D01*
X-185616Y84750D01*
X-185988Y86619D01*
X-187047Y88203D01*
X-187616Y88584D01*
X-188442Y89582D01*
X-188273Y90434D01*
X-188273Y90434D01*
X-188251Y90545D01*
X-188071Y91451D01*
X-188442Y93320D01*
X-188991Y94141D01*
X-189547Y95297D01*
X-188488Y96881D01*
X-188116Y98750D01*
X-188488Y100619D01*
X-189547Y102203D01*
X-189749Y103866D01*
X-189238Y104631D01*
X-188866Y106500D01*
X-189238Y108369D01*
X-190297Y109953D01*
X-191881Y111012D01*
X-193750Y111384D01*
D02*
G37*
G36*
X-247500Y82421D02*
X-249383Y82046D01*
X-250298Y81435D01*
X-251250Y81080D01*
X-252202Y81435D01*
X-253117Y82046D01*
X-255000Y82421D01*
X-256883Y82046D01*
X-257798Y81435D01*
X-258750Y81080D01*
X-259702Y81435D01*
X-260617Y82046D01*
X-262500Y82421D01*
X-264383Y82046D01*
X-265979Y80979D01*
X-267046Y79383D01*
X-267421Y77500D01*
X-267046Y75617D01*
X-265979Y74021D01*
Y73479D01*
X-267046Y71883D01*
X-267421Y70000D01*
X-267046Y68117D01*
X-266435Y67202D01*
X-266080Y66250D01*
X-266435Y65298D01*
X-267046Y64383D01*
X-267421Y62500D01*
X-267046Y60617D01*
X-266733Y60149D01*
X-267649Y59233D01*
X-268117Y59546D01*
X-270000Y59921D01*
X-271883Y59546D01*
X-272798Y58935D01*
X-273750Y58580D01*
X-274702Y58935D01*
X-275617Y59546D01*
X-277500Y59921D01*
X-279383Y59546D01*
X-280979Y58479D01*
X-282046Y56883D01*
X-282421Y55000D01*
X-282046Y53117D01*
X-280979Y51521D01*
X-279383Y50454D01*
X-277500Y50079D01*
X-275617Y50454D01*
X-274702Y51065D01*
X-273750Y51420D01*
X-272798Y51065D01*
X-271883Y50454D01*
X-270000Y50079D01*
X-268117Y50454D01*
X-267202Y51065D01*
X-266250Y51420D01*
X-265298Y51065D01*
X-264383Y50454D01*
X-262500Y50079D01*
X-260617Y50454D01*
X-259702Y51065D01*
X-258750Y51420D01*
X-257798Y51065D01*
X-256883Y50454D01*
X-255000Y50079D01*
X-253117Y50454D01*
X-252202Y51065D01*
X-251250Y51420D01*
X-250298Y51065D01*
X-249383Y50454D01*
X-247500Y50079D01*
X-245617Y50454D01*
X-244021Y51521D01*
X-242954Y53117D01*
X-242579Y55000D01*
X-242954Y56883D01*
X-243565Y57798D01*
X-243920Y58750D01*
X-243565Y59702D01*
X-242954Y60617D01*
X-242579Y62500D01*
X-242954Y64383D01*
X-243565Y65298D01*
X-243920Y66250D01*
X-243565Y67202D01*
X-242954Y68117D01*
X-242579Y70000D01*
X-242954Y71883D01*
X-244021Y73479D01*
Y74021D01*
X-242954Y75617D01*
X-242579Y77500D01*
X-242954Y79383D01*
X-244021Y80979D01*
X-245617Y82046D01*
X-247500Y82421D01*
D02*
G37*
G36*
X-287000Y85884D02*
X-288869Y85512D01*
X-290453Y84453D01*
X-291512Y82869D01*
X-291884Y81000D01*
X-291512Y79131D01*
X-290453Y77547D01*
X-288869Y76488D01*
X-287000Y76116D01*
X-285131Y76488D01*
X-283547Y77547D01*
X-282488Y79131D01*
X-282116Y81000D01*
X-282488Y82869D01*
X-283547Y84453D01*
X-285131Y85512D01*
X-287000Y85884D01*
D02*
G37*
G36*
X51252Y86422D02*
X49022Y85979D01*
X47132Y84716D01*
X45869Y82825D01*
X45425Y80596D01*
X45869Y78366D01*
X47132Y76475D01*
X49022Y75212D01*
X51252Y74769D01*
X53482Y75212D01*
X55373Y76475D01*
X56636Y78366D01*
X57079Y80596D01*
X56636Y82825D01*
X55373Y84716D01*
X53482Y85979D01*
X51252Y86422D01*
D02*
G37*
G36*
X261500Y74420D02*
X259617Y74046D01*
X258702Y73435D01*
X257750Y73080D01*
X256798Y73435D01*
X255883Y74046D01*
X254000Y74420D01*
X252117Y74046D01*
X251202Y73435D01*
X250250Y73080D01*
X249298Y73435D01*
X248383Y74046D01*
X246500Y74420D01*
X244617Y74046D01*
X243021Y72979D01*
X241954Y71383D01*
X241833Y70772D01*
X240633Y70046D01*
X238750Y70420D01*
X236867Y70046D01*
X235271Y68979D01*
X234204Y67383D01*
X233829Y65500D01*
X234204Y63617D01*
X235271Y62021D01*
X236867Y60954D01*
X238750Y60580D01*
X240498Y60927D01*
X240941Y60901D01*
X241875Y60514D01*
X241954Y60117D01*
X242565Y59202D01*
X242920Y58250D01*
X242565Y57298D01*
X241954Y56383D01*
X241579Y54500D01*
X241954Y52617D01*
X242565Y51702D01*
X242920Y50750D01*
X242565Y49798D01*
X241954Y48883D01*
X241579Y47000D01*
X241954Y45117D01*
X243021Y43521D01*
X244617Y42454D01*
X246500Y42079D01*
X248383Y42454D01*
X249298Y43065D01*
X250250Y43420D01*
X251202Y43065D01*
X252117Y42454D01*
X254000Y42079D01*
X255883Y42454D01*
X256798Y43065D01*
X257750Y43420D01*
X258702Y43065D01*
X259617Y42454D01*
X261500Y42079D01*
X263383Y42454D01*
X264979Y43521D01*
X266046Y45117D01*
X266420Y47000D01*
X266046Y48883D01*
X265435Y49798D01*
X265080Y50750D01*
X265435Y51702D01*
X266046Y52617D01*
X266420Y54500D01*
X266046Y56383D01*
X265435Y57298D01*
X265080Y58250D01*
X265435Y59202D01*
X266046Y60117D01*
X266420Y62000D01*
X266046Y63883D01*
X264979Y65479D01*
Y66021D01*
X266046Y67617D01*
X266420Y69500D01*
X266046Y71383D01*
X264979Y72979D01*
X263383Y74046D01*
X261500Y74420D01*
D02*
G37*
G36*
X195252Y90016D02*
X193369Y89642D01*
X191773Y88575D01*
X190706Y86979D01*
X190332Y85096D01*
X190706Y83212D01*
X191773Y81616D01*
X191390Y80344D01*
X190738Y79368D01*
X190366Y77499D01*
X190738Y75630D01*
X191797Y74046D01*
X193381Y72987D01*
X195250Y72615D01*
X197119Y72987D01*
X198704Y74046D01*
X199762Y75630D01*
X200134Y77499D01*
X199762Y79368D01*
X199111Y80343D01*
X198732Y81616D01*
X199798Y83212D01*
X200173Y85096D01*
X199798Y86979D01*
X198732Y88575D01*
X197135Y89642D01*
X195252Y90016D01*
D02*
G37*
G36*
X76500Y78384D02*
X74631Y78012D01*
X73047Y76953D01*
X71988Y75369D01*
X71616Y73500D01*
X71988Y71631D01*
X73047Y70047D01*
X74631Y68988D01*
X76500Y68616D01*
X78369Y68988D01*
X79953Y70047D01*
X81012Y71631D01*
X81384Y73500D01*
X81012Y75369D01*
X79953Y76953D01*
X78369Y78012D01*
X76500Y78384D01*
D02*
G37*
G36*
X-25750Y79884D02*
X-27619Y79512D01*
X-29203Y78453D01*
X-30262Y76869D01*
X-30634Y75000D01*
X-30262Y73131D01*
X-29203Y71547D01*
X-27619Y70488D01*
X-25750Y70116D01*
X-23881Y70488D01*
X-23720Y70596D01*
X-22804Y69680D01*
X-23012Y69369D01*
X-23384Y67500D01*
X-23012Y65631D01*
X-21953Y64047D01*
X-20369Y62988D01*
X-18500Y62616D01*
X-16631Y62988D01*
X-15047Y64047D01*
X-13988Y65631D01*
X-12629Y65953D01*
X-11883Y65454D01*
X-10000Y65079D01*
X-8117Y65454D01*
X-6521Y66521D01*
X-5454Y68117D01*
X-5080Y70000D01*
X-5454Y71883D01*
X-6521Y73479D01*
X-8117Y74546D01*
X-10000Y74921D01*
X-11883Y74546D01*
X-13479Y73479D01*
X-14424Y72065D01*
X-14794Y71819D01*
X-15911Y71531D01*
X-16631Y72012D01*
X-18500Y72384D01*
X-20369Y72012D01*
X-20530Y71904D01*
X-21446Y72820D01*
X-21238Y73131D01*
X-20866Y75000D01*
X-21238Y76869D01*
X-22297Y78453D01*
X-23881Y79512D01*
X-25750Y79884D01*
D02*
G37*
G36*
X145252Y73229D02*
X143383Y72858D01*
X141799Y71799D01*
X140740Y70214D01*
X140368Y68345D01*
X140740Y66476D01*
X141799Y64892D01*
X143383Y63833D01*
X145252Y63462D01*
X147121Y63833D01*
X148706Y64892D01*
X149764Y66476D01*
X150136Y68345D01*
X149764Y70214D01*
X148706Y71799D01*
X147121Y72858D01*
X145252Y73229D01*
D02*
G37*
G36*
X165750Y72633D02*
X163881Y72261D01*
X162297Y71203D01*
X161238Y69618D01*
X160867Y67749D01*
X161238Y65880D01*
X162297Y64296D01*
X163881Y63237D01*
X165750Y62865D01*
X167619Y63237D01*
X169204Y64296D01*
X170262Y65880D01*
X170481Y66981D01*
X171776D01*
X171997Y65871D01*
X173056Y64287D01*
X174640Y63228D01*
X176509Y62856D01*
X178378Y63228D01*
X179962Y64287D01*
X181021Y65871D01*
X181393Y67740D01*
X181021Y69609D01*
X179962Y71194D01*
X178378Y72252D01*
X176509Y72624D01*
X174640Y72252D01*
X173056Y71194D01*
X171997Y69609D01*
X171778Y68509D01*
X170483D01*
X170262Y69618D01*
X169204Y71203D01*
X167619Y72261D01*
X165750Y72633D01*
D02*
G37*
G36*
X208000Y74884D02*
X206131Y74512D01*
X204547Y73453D01*
X203488Y71869D01*
X203116Y70000D01*
X203488Y68131D01*
X204547Y66547D01*
X205549Y65877D01*
X204530Y64352D01*
X204158Y62483D01*
X204530Y60614D01*
X205589Y59030D01*
X207173Y57971D01*
X209042Y57599D01*
X210911Y57971D01*
X212496Y59030D01*
X213554Y60614D01*
X213926Y62483D01*
X213554Y64352D01*
X212496Y65937D01*
X211493Y66606D01*
X212512Y68131D01*
X212884Y70000D01*
X212512Y71869D01*
X211453Y73453D01*
X209869Y74512D01*
X208000Y74884D01*
D02*
G37*
G36*
X-89856Y67762D02*
X-91725Y67390D01*
X-93309Y66331D01*
X-94368Y64747D01*
X-94740Y62878D01*
X-94368Y61009D01*
X-93309Y59424D01*
X-91725Y58366D01*
X-89856Y57994D01*
X-87987Y58366D01*
X-86403Y59424D01*
X-85369Y60971D01*
X-85195Y60999D01*
X-84065Y60926D01*
X-83794Y59565D01*
X-82736Y57981D01*
X-81151Y56922D01*
X-79282Y56550D01*
X-77414Y56922D01*
X-75829Y57981D01*
X-74770Y59565D01*
X-74399Y61434D01*
X-74770Y63303D01*
X-75829Y64888D01*
X-77414Y65946D01*
X-79282Y66318D01*
X-81151Y65946D01*
X-82736Y64888D01*
X-83769Y63341D01*
X-83943Y63313D01*
X-85073Y63386D01*
X-85344Y64747D01*
X-86403Y66331D01*
X-87987Y67390D01*
X-89856Y67762D01*
D02*
G37*
G36*
X135215Y61418D02*
X133346Y61047D01*
X131762Y59988D01*
X130703Y58403D01*
X130331Y56535D01*
X130703Y54665D01*
X131314Y53751D01*
X131586Y53344D01*
X130646Y52464D01*
X130311Y52722D01*
X129064Y53679D01*
X126743Y54640D01*
X124253Y54968D01*
X121762Y54640D01*
X119441Y53679D01*
X117449Y52150D01*
X115919Y50157D01*
X114958Y47836D01*
X114630Y45346D01*
X114958Y42855D01*
X115919Y40534D01*
X117449Y38542D01*
X119441Y37012D01*
X121762Y36051D01*
X124253Y35723D01*
X126743Y36051D01*
X129064Y37012D01*
X131056Y38542D01*
X132586Y40534D01*
X133547Y42855D01*
X133875Y45346D01*
X133547Y47836D01*
X132586Y50157D01*
X131522Y51543D01*
X131253Y51894D01*
X132133Y52833D01*
X132524Y52572D01*
X133346Y52022D01*
X135215Y51651D01*
X137084Y52022D01*
X138668Y53081D01*
X139727Y54665D01*
X140099Y56535D01*
X139727Y58403D01*
X138668Y59988D01*
X137084Y61047D01*
X135215Y61418D01*
D02*
G37*
G36*
X101753Y60729D02*
X99883Y60357D01*
X98299Y59299D01*
X97240Y57714D01*
X96869Y55845D01*
X97240Y53976D01*
X98299Y52392D01*
X99883Y51333D01*
X101753Y50961D01*
X103621Y51333D01*
X105206Y52392D01*
X106265Y53976D01*
X106636Y55845D01*
X106265Y57714D01*
X105206Y59299D01*
X103621Y60357D01*
X101753Y60729D01*
D02*
G37*
G36*
X-110252Y56288D02*
X-112121Y55916D01*
X-113705Y54857D01*
X-114764Y53273D01*
X-115136Y51404D01*
X-114764Y49535D01*
X-113705Y47950D01*
X-112121Y46892D01*
X-110252Y46520D01*
X-108383Y46892D01*
X-106798Y47950D01*
X-105740Y49535D01*
X-105368Y51404D01*
X-105740Y53273D01*
X-106798Y54857D01*
X-108383Y55916D01*
X-110252Y56288D01*
D02*
G37*
G36*
X-176750Y50884D02*
X-178619Y50512D01*
X-180203Y49453D01*
X-181262Y47869D01*
X-181517Y46586D01*
X-181894Y45927D01*
X-182861Y45657D01*
X-184000Y45884D01*
X-185869Y45512D01*
X-187453Y44453D01*
X-188512Y42869D01*
X-188884Y41000D01*
X-188512Y39131D01*
X-187453Y37547D01*
X-185869Y36488D01*
X-184000Y36116D01*
X-182131Y36488D01*
X-180547Y37547D01*
X-179488Y39131D01*
X-179233Y40414D01*
X-178856Y41073D01*
X-177889Y41343D01*
X-176750Y41116D01*
X-174881Y41488D01*
X-173297Y42547D01*
X-172238Y44131D01*
X-171866Y46000D01*
X-172238Y47869D01*
X-173297Y49453D01*
X-174881Y50512D01*
X-176750Y50884D01*
D02*
G37*
G36*
X-20000Y54921D02*
X-21883Y54546D01*
X-23479Y53479D01*
X-24546Y51883D01*
X-24920Y50000D01*
X-24546Y48117D01*
X-23479Y46521D01*
X-21883Y45454D01*
X-20000Y45079D01*
X-18117Y45454D01*
X-16521Y46521D01*
X-15454Y48117D01*
X-15079Y50000D01*
X-15454Y51883D01*
X-16521Y53479D01*
X-18117Y54546D01*
X-20000Y54921D01*
D02*
G37*
G36*
X140007Y46386D02*
X138138Y46014D01*
X136553Y44955D01*
X135495Y43371D01*
X135123Y41502D01*
X135495Y39633D01*
X136553Y38049D01*
X138138Y36990D01*
X140007Y36618D01*
X141876Y36990D01*
X143460Y38049D01*
X144519Y39633D01*
X144891Y41502D01*
X144519Y43371D01*
X143460Y44955D01*
X141876Y46014D01*
X140007Y46386D01*
D02*
G37*
G36*
X-108204Y45524D02*
X-110073Y45152D01*
X-111657Y44093D01*
X-112716Y42509D01*
X-113088Y40640D01*
X-112716Y38771D01*
X-111657Y37187D01*
X-110073Y36128D01*
X-108204Y35756D01*
X-106335Y36128D01*
X-104751Y37187D01*
X-103692Y38771D01*
X-103320Y40640D01*
X-103692Y42509D01*
X-104751Y44093D01*
X-106335Y45152D01*
X-108204Y45524D01*
D02*
G37*
G36*
X-159252Y46038D02*
X-161121Y45666D01*
X-162705Y44607D01*
X-163764Y43023D01*
X-164136Y41154D01*
X-163764Y39285D01*
X-162705Y37700D01*
X-161121Y36642D01*
X-159252Y36270D01*
X-157383Y36642D01*
X-155799Y37700D01*
X-154740Y39285D01*
X-153623Y38845D01*
X-153641Y38752D01*
X-153269Y36883D01*
X-152211Y35299D01*
X-150626Y34240D01*
X-148757Y33868D01*
X-146888Y34240D01*
X-145304Y35299D01*
X-144245Y36883D01*
X-143873Y38752D01*
X-144245Y40621D01*
X-145304Y42205D01*
X-146888Y43264D01*
X-148757Y43636D01*
X-150626Y43264D01*
X-152211Y42205D01*
X-153269Y40621D01*
X-154387Y41061D01*
X-154368Y41154D01*
X-154740Y43023D01*
X-155799Y44607D01*
X-157383Y45666D01*
X-159252Y46038D01*
D02*
G37*
G36*
X74500Y43384D02*
X72631Y43012D01*
X71047Y41953D01*
X69988Y40369D01*
X69616Y38500D01*
X69988Y36631D01*
X71047Y35047D01*
X72631Y33988D01*
X74500Y33616D01*
X76369Y33988D01*
X77953Y35047D01*
X79012Y36631D01*
X79384Y38500D01*
X79012Y40369D01*
X77953Y41953D01*
X76369Y43012D01*
X74500Y43384D01*
D02*
G37*
G36*
X-216552Y44728D02*
X-218508Y44471D01*
X-220331Y43716D01*
X-221896Y42515D01*
X-223097Y40949D01*
X-223852Y39127D01*
X-224110Y37171D01*
X-223852Y35215D01*
X-223097Y33392D01*
X-221896Y31827D01*
X-220331Y30625D01*
X-218508Y29870D01*
X-216552Y29613D01*
X-214596Y29870D01*
X-212773Y30625D01*
X-211208Y31827D01*
X-210007Y33392D01*
X-209252Y35215D01*
X-208994Y37171D01*
X-209252Y39127D01*
X-210007Y40949D01*
X-211208Y42515D01*
X-212773Y43716D01*
X-214596Y44471D01*
X-216552Y44728D01*
D02*
G37*
G36*
X90000Y24920D02*
X88117Y24546D01*
X86521Y23479D01*
X85706Y22260D01*
X85570Y22215D01*
X84430D01*
X84294Y22260D01*
X83479Y23479D01*
X81883Y24546D01*
X80000Y24920D01*
X78117Y24546D01*
X76521Y23479D01*
X75454Y21883D01*
X75079Y20000D01*
X75454Y18117D01*
X76521Y16521D01*
X77741Y15706D01*
X77785Y15570D01*
Y14430D01*
X77741Y14294D01*
X76521Y13479D01*
X75454Y11883D01*
X75079Y10000D01*
X75454Y8117D01*
X76521Y6521D01*
X78117Y5454D01*
X80000Y5080D01*
X81883Y5454D01*
X83479Y6521D01*
X84294Y7740D01*
X84430Y7785D01*
X85570D01*
X85706Y7740D01*
X86521Y6521D01*
X88117Y5454D01*
X90000Y5080D01*
X91883Y5454D01*
X93479Y6521D01*
X94546Y8117D01*
X94921Y10000D01*
X94546Y11883D01*
X93479Y13479D01*
X92260Y14294D01*
X92215Y14430D01*
Y15570D01*
X92260Y15706D01*
X93479Y16521D01*
X94546Y18117D01*
X94921Y20000D01*
X94546Y21883D01*
X93479Y23479D01*
X91883Y24546D01*
X90000Y24920D01*
D02*
G37*
G36*
X-10000Y34920D02*
X-11883Y34546D01*
X-13479Y33479D01*
X-14546Y31883D01*
X-14921Y30000D01*
X-14546Y28117D01*
X-13479Y26521D01*
X-12260Y25706D01*
X-12215Y25570D01*
Y24430D01*
X-12260Y24294D01*
X-13479Y23479D01*
X-14294Y22260D01*
X-14430Y22215D01*
X-15570D01*
X-15706Y22260D01*
X-16521Y23479D01*
X-18117Y24546D01*
X-20000Y24920D01*
X-21883Y24546D01*
X-23479Y23479D01*
X-24546Y21883D01*
X-24920Y20000D01*
X-24546Y18117D01*
X-23479Y16521D01*
X-21883Y15454D01*
X-20000Y15079D01*
X-18117Y15454D01*
X-16521Y16521D01*
X-15706Y17740D01*
X-15570Y17785D01*
X-14430D01*
X-14294Y17740D01*
X-13479Y16521D01*
X-11883Y15454D01*
X-10000Y15079D01*
X-8117Y15454D01*
X-6521Y16521D01*
X-5454Y18117D01*
X-5080Y20000D01*
X-5454Y21883D01*
X-6521Y23479D01*
X-7740Y24294D01*
X-7785Y24430D01*
Y25570D01*
X-7740Y25706D01*
X-6521Y26521D01*
X-5454Y28117D01*
X-5080Y30000D01*
X-5454Y31883D01*
X-6521Y33479D01*
X-8117Y34546D01*
X-10000Y34920D01*
D02*
G37*
G36*
X105750Y31706D02*
X103867Y31331D01*
X102271Y30265D01*
X101204Y28668D01*
X100830Y26785D01*
X101204Y24902D01*
X102271Y23306D01*
X103867Y22239D01*
X105750Y21865D01*
X107633Y22239D01*
X109230Y23306D01*
X110296Y24902D01*
X110671Y26785D01*
X110296Y28668D01*
X109230Y30265D01*
X107633Y31331D01*
X105750Y31706D01*
D02*
G37*
G36*
X270000Y29920D02*
X268117Y29546D01*
X266521Y28479D01*
X265454Y26883D01*
X265079Y25000D01*
X265454Y23117D01*
X266521Y21521D01*
X268117Y20454D01*
X270000Y20080D01*
X271883Y20454D01*
X273479Y21521D01*
X274546Y23117D01*
X274921Y25000D01*
X274546Y26883D01*
X273479Y28479D01*
X271883Y29546D01*
X270000Y29920D01*
D02*
G37*
G36*
X255000D02*
X253117Y29546D01*
X251521Y28479D01*
X250454Y26883D01*
X250079Y25000D01*
X250454Y23117D01*
X251521Y21521D01*
X253117Y20454D01*
X255000Y20080D01*
X256883Y20454D01*
X258479Y21521D01*
X259546Y23117D01*
X259921Y25000D01*
X259546Y26883D01*
X258479Y28479D01*
X256883Y29546D01*
X255000Y29920D01*
D02*
G37*
G36*
X240000D02*
X238117Y29546D01*
X236521Y28479D01*
X235454Y26883D01*
X235079Y25000D01*
X235454Y23117D01*
X236521Y21521D01*
X238117Y20454D01*
X240000Y20080D01*
X241883Y20454D01*
X243479Y21521D01*
X244546Y23117D01*
X244921Y25000D01*
X244546Y26883D01*
X243479Y28479D01*
X241883Y29546D01*
X240000Y29920D01*
D02*
G37*
G36*
X-240000D02*
X-241883Y29546D01*
X-243479Y28479D01*
X-244546Y26883D01*
X-244921Y25000D01*
X-244546Y23117D01*
X-243479Y21521D01*
X-241883Y20454D01*
X-240000Y20080D01*
X-238117Y20454D01*
X-236521Y21521D01*
X-235454Y23117D01*
X-235079Y25000D01*
X-235454Y26883D01*
X-236521Y28479D01*
X-238117Y29546D01*
X-240000Y29920D01*
D02*
G37*
G36*
X-255000D02*
X-256883Y29546D01*
X-258479Y28479D01*
X-259546Y26883D01*
X-259921Y25000D01*
X-259546Y23117D01*
X-258479Y21521D01*
X-256883Y20454D01*
X-255000Y20080D01*
X-253117Y20454D01*
X-251521Y21521D01*
X-250454Y23117D01*
X-250079Y25000D01*
X-250454Y26883D01*
X-251521Y28479D01*
X-253117Y29546D01*
X-255000Y29920D01*
D02*
G37*
G36*
X-270000D02*
X-271883Y29546D01*
X-273479Y28479D01*
X-274546Y26883D01*
X-274921Y25000D01*
X-274546Y23117D01*
X-273479Y21521D01*
X-271883Y20454D01*
X-270000Y20080D01*
X-268117Y20454D01*
X-266521Y21521D01*
X-265454Y23117D01*
X-265079Y25000D01*
X-265454Y26883D01*
X-266521Y28479D01*
X-268117Y29546D01*
X-270000Y29920D01*
D02*
G37*
G36*
X-165752Y34568D02*
X-167708Y34311D01*
X-169531Y33556D01*
X-171096Y32355D01*
X-172297Y30789D01*
X-173052Y28967D01*
X-173309Y27011D01*
X-173052Y25055D01*
X-172297Y23232D01*
X-171096Y21667D01*
X-169531Y20465D01*
X-167708Y19710D01*
X-165752Y19453D01*
X-163796Y19710D01*
X-161973Y20465D01*
X-160408Y21667D01*
X-159207Y23232D01*
X-158452Y25055D01*
X-158194Y27011D01*
X-158452Y28967D01*
X-159207Y30789D01*
X-160408Y32355D01*
X-161973Y33556D01*
X-163796Y34311D01*
X-165752Y34568D01*
D02*
G37*
G36*
X-39750Y26670D02*
X-41633Y26296D01*
X-43229Y25229D01*
X-44296Y23633D01*
X-44671Y21750D01*
X-44296Y19867D01*
X-43229Y18271D01*
X-41633Y17204D01*
X-39750Y16830D01*
X-37867Y17204D01*
X-36271Y18271D01*
X-35204Y19867D01*
X-34829Y21750D01*
X-35204Y23633D01*
X-36271Y25229D01*
X-37867Y26296D01*
X-39750Y26670D01*
D02*
G37*
G36*
X-216552Y24408D02*
X-218508Y24151D01*
X-220331Y23396D01*
X-221896Y22195D01*
X-223097Y20629D01*
X-223852Y18807D01*
X-224110Y16851D01*
X-224025Y16210D01*
X-225279Y16003D01*
X-225315Y16185D01*
X-225454Y16883D01*
X-226521Y18479D01*
X-228117Y19546D01*
X-230000Y19921D01*
X-231883Y19546D01*
X-233479Y18479D01*
X-234546Y16883D01*
X-234921Y15000D01*
X-234546Y13117D01*
X-233479Y11521D01*
X-231883Y10454D01*
X-230000Y10079D01*
X-228117Y10454D01*
X-226521Y11521D01*
X-225454Y13117D01*
X-225127Y14762D01*
X-225079Y15000D01*
X-223873Y15052D01*
X-223852Y14894D01*
X-223097Y13072D01*
X-221896Y11507D01*
X-220331Y10305D01*
X-218508Y9550D01*
X-216552Y9293D01*
X-214596Y9550D01*
X-212773Y10305D01*
X-211208Y11507D01*
X-210007Y13072D01*
X-209252Y14894D01*
X-208994Y16851D01*
X-209252Y18807D01*
X-210007Y20629D01*
X-211208Y22195D01*
X-212773Y23396D01*
X-214596Y24151D01*
X-216552Y24408D01*
D02*
G37*
G36*
X170000Y21633D02*
X168131Y21261D01*
X166547Y20203D01*
X165488Y18618D01*
X165117Y16749D01*
X165488Y14880D01*
X166547Y13296D01*
X168131Y12237D01*
X170000Y11865D01*
X171869Y12237D01*
X173454Y13296D01*
X174512Y14880D01*
X174884Y16749D01*
X174512Y18618D01*
X173454Y20203D01*
X171869Y21261D01*
X170000Y21633D01*
D02*
G37*
G36*
X124000Y21559D02*
X122131Y21187D01*
X120547Y20128D01*
X119488Y18544D01*
X119116Y16675D01*
X119488Y14806D01*
X120547Y13222D01*
X122131Y12163D01*
X124000Y11791D01*
X125869Y12163D01*
X127453Y13222D01*
X128512Y14806D01*
X128884Y16675D01*
X128512Y18544D01*
X127453Y20128D01*
X125869Y21187D01*
X124000Y21559D01*
D02*
G37*
G36*
X230000Y19921D02*
X228117Y19546D01*
X226521Y18479D01*
X225454Y16883D01*
X225079Y15000D01*
X225454Y13117D01*
X226521Y11521D01*
X228117Y10454D01*
X230000Y10079D01*
X231883Y10454D01*
X233479Y11521D01*
X234546Y13117D01*
X234921Y15000D01*
X234546Y16883D01*
X233479Y18479D01*
X231883Y19546D01*
X230000Y19921D01*
D02*
G37*
G36*
X-140000Y14921D02*
X-141883Y14546D01*
X-143479Y13479D01*
X-144546Y11883D01*
X-144921Y10000D01*
X-144546Y8117D01*
X-143479Y6521D01*
X-141883Y5454D01*
X-140000Y5080D01*
X-138117Y5454D01*
X-136521Y6521D01*
X-135454Y8117D01*
X-135079Y10000D01*
X-135454Y11883D01*
X-136521Y13479D01*
X-138117Y14546D01*
X-140000Y14921D01*
D02*
G37*
G36*
X-15250Y10634D02*
X-17119Y10262D01*
X-18703Y9203D01*
X-19762Y7619D01*
X-20134Y5750D01*
X-19762Y3881D01*
X-18703Y2297D01*
X-17119Y1238D01*
X-15250Y866D01*
X-13381Y1238D01*
X-11797Y2297D01*
X-10738Y3881D01*
X-10366Y5750D01*
X-10738Y7619D01*
X-11797Y9203D01*
X-13381Y10262D01*
X-15250Y10634D01*
D02*
G37*
G36*
X230000Y4920D02*
X228117Y4546D01*
X226521Y3479D01*
X225454Y1883D01*
X225079Y0D01*
X225454Y-1883D01*
X226521Y-3479D01*
X228117Y-4546D01*
X230000Y-4920D01*
X231883Y-4546D01*
X233479Y-3479D01*
X234546Y-1883D01*
X234921Y0D01*
X234546Y1883D01*
X233479Y3479D01*
X231883Y4546D01*
X230000Y4920D01*
D02*
G37*
G36*
X-230000D02*
X-231883Y4546D01*
X-233479Y3479D01*
X-234546Y1883D01*
X-234921Y0D01*
X-234546Y-1883D01*
X-233479Y-3479D01*
X-231883Y-4546D01*
X-230000Y-4920D01*
X-228117Y-4546D01*
X-226521Y-3479D01*
X-225454Y-1883D01*
X-225079Y0D01*
X-225454Y1883D01*
X-226521Y3479D01*
X-228117Y4546D01*
X-230000Y4920D01*
D02*
G37*
G36*
X30500Y2634D02*
X28631Y2262D01*
X27047Y1203D01*
X25988Y-381D01*
X25616Y-2250D01*
X25988Y-4119D01*
X27047Y-5703D01*
X28631Y-6762D01*
X30500Y-7134D01*
X32369Y-6762D01*
X33953Y-5703D01*
X35012Y-4119D01*
X35384Y-2250D01*
X35012Y-381D01*
X33953Y1203D01*
X32369Y2262D01*
X30500Y2634D01*
D02*
G37*
G36*
X72250Y1384D02*
X70381Y1012D01*
X68797Y-47D01*
X67738Y-1631D01*
X67366Y-3500D01*
X67738Y-5369D01*
X68797Y-6953D01*
X70381Y-8012D01*
X72250Y-8384D01*
X74119Y-8012D01*
X75703Y-6953D01*
X76762Y-5369D01*
X77134Y-3500D01*
X76762Y-1631D01*
X75703Y-47D01*
X74119Y1012D01*
X72250Y1384D01*
D02*
G37*
G36*
X-38908Y10634D02*
X-40777Y10262D01*
X-42361Y9203D01*
X-43420Y7619D01*
X-43792Y5750D01*
X-43420Y3881D01*
X-42361Y2297D01*
X-40777Y1238D01*
X-39990Y1081D01*
Y-214D01*
X-41369Y-488D01*
X-42953Y-1547D01*
X-44012Y-3131D01*
X-44384Y-5000D01*
X-44012Y-6869D01*
X-42953Y-8453D01*
X-41369Y-9512D01*
X-39500Y-9884D01*
X-37631Y-9512D01*
X-36047Y-8453D01*
X-34988Y-6869D01*
X-34616Y-5000D01*
X-34988Y-3131D01*
X-36047Y-1547D01*
X-37631Y-488D01*
X-38418Y-331D01*
Y963D01*
X-37039Y1238D01*
X-35454Y2297D01*
X-34396Y3881D01*
X-34024Y5750D01*
X-34396Y7619D01*
X-35454Y9203D01*
X-37039Y10262D01*
X-38908Y10634D01*
D02*
G37*
G36*
X-21250Y-80D02*
X-23133Y-454D01*
X-24729Y-1521D01*
X-25796Y-3117D01*
X-26170Y-5000D01*
X-25796Y-6883D01*
X-24729Y-8479D01*
X-23133Y-9546D01*
X-21250Y-9920D01*
X-19367Y-9546D01*
X-17771Y-8479D01*
X-16704Y-6883D01*
X-16329Y-5000D01*
X-16704Y-3117D01*
X-17771Y-1521D01*
X-19367Y-454D01*
X-21250Y-80D01*
D02*
G37*
G36*
X-140000Y-5080D02*
X-141883Y-5454D01*
X-143479Y-6521D01*
X-144546Y-8117D01*
X-144921Y-10000D01*
X-144546Y-11883D01*
X-143479Y-13479D01*
X-141883Y-14546D01*
X-140000Y-14921D01*
X-138117Y-14546D01*
X-136521Y-13479D01*
X-135454Y-11883D01*
X-135079Y-10000D01*
X-135454Y-8117D01*
X-136521Y-6521D01*
X-138117Y-5454D01*
X-140000Y-5080D01*
D02*
G37*
G36*
X215650Y-3382D02*
X213694Y-3640D01*
X211871Y-4395D01*
X210306Y-5596D01*
X209105Y-7161D01*
X208350Y-8984D01*
X208092Y-10940D01*
X208350Y-12896D01*
X209105Y-14719D01*
X210306Y-16284D01*
X211871Y-17485D01*
X213694Y-18240D01*
X215650Y-18498D01*
X217606Y-18240D01*
X219429Y-17485D01*
X220994Y-16284D01*
X222195Y-14719D01*
X222950Y-12896D01*
X223208Y-10940D01*
X222950Y-8984D01*
X222195Y-7161D01*
X220994Y-5596D01*
X219429Y-4395D01*
X217606Y-3640D01*
X215650Y-3382D01*
D02*
G37*
G36*
X230000Y-10079D02*
X228117Y-10454D01*
X226521Y-11521D01*
X225454Y-13117D01*
X225079Y-15000D01*
X225454Y-16883D01*
X226521Y-18479D01*
X228117Y-19546D01*
X230000Y-19921D01*
X231883Y-19546D01*
X233479Y-18479D01*
X234546Y-16883D01*
X234921Y-15000D01*
X234546Y-13117D01*
X233479Y-11521D01*
X231883Y-10454D01*
X230000Y-10079D01*
D02*
G37*
G36*
X-230000D02*
X-231883Y-10454D01*
X-233479Y-11521D01*
X-234546Y-13117D01*
X-234921Y-15000D01*
X-234546Y-16883D01*
X-233479Y-18479D01*
X-231883Y-19546D01*
X-230000Y-19921D01*
X-228117Y-19546D01*
X-226521Y-18479D01*
X-225454Y-16883D01*
X-225079Y-15000D01*
X-225454Y-13117D01*
X-226521Y-11521D01*
X-228117Y-10454D01*
X-230000Y-10079D01*
D02*
G37*
G36*
X164850Y-13542D02*
X162894Y-13800D01*
X161071Y-14555D01*
X159506Y-15756D01*
X158305Y-17321D01*
X157550Y-19144D01*
X157459Y-19836D01*
X156302Y-20360D01*
X156119Y-20238D01*
X154250Y-19866D01*
X152381Y-20238D01*
X150797Y-21297D01*
X149738Y-22881D01*
X149366Y-24750D01*
X149738Y-26619D01*
X150797Y-28203D01*
X152381Y-29262D01*
X154250Y-29634D01*
X156119Y-29262D01*
X157703Y-28203D01*
X158426Y-27122D01*
X158610Y-27006D01*
X159784Y-26795D01*
X160014Y-26834D01*
X161071Y-27645D01*
X162894Y-28400D01*
X164850Y-28658D01*
X166806Y-28400D01*
X168629Y-27645D01*
X170194Y-26444D01*
X171395Y-24879D01*
X172150Y-23056D01*
X172408Y-21100D01*
X172150Y-19144D01*
X171395Y-17321D01*
X170194Y-15756D01*
X168629Y-14555D01*
X166806Y-13800D01*
X164850Y-13542D01*
D02*
G37*
G36*
X-170000Y-11866D02*
X-171869Y-12238D01*
X-173453Y-13297D01*
X-174512Y-14881D01*
X-174884Y-16750D01*
X-174512Y-18619D01*
X-173453Y-20203D01*
X-171869Y-21262D01*
X-170000Y-21634D01*
X-168131Y-21262D01*
X-166547Y-20203D01*
X-165488Y-18619D01*
X-165116Y-16750D01*
X-165488Y-14881D01*
X-166547Y-13297D01*
X-168131Y-12238D01*
X-170000Y-11866D01*
D02*
G37*
G36*
X-43250Y-12616D02*
X-45119Y-12988D01*
X-46703Y-14047D01*
X-47762Y-15631D01*
X-48134Y-17500D01*
X-47762Y-19369D01*
X-46703Y-20953D01*
X-45119Y-22012D01*
X-43250Y-22384D01*
X-41381Y-22012D01*
X-39797Y-20953D01*
X-38738Y-19369D01*
X-38366Y-17500D01*
X-38738Y-15631D01*
X-39797Y-14047D01*
X-41381Y-12988D01*
X-43250Y-12616D01*
D02*
G37*
G36*
X-109542Y-18829D02*
X-111425Y-19204D01*
X-113021Y-20271D01*
X-114088Y-21867D01*
X-114463Y-23750D01*
X-114088Y-25633D01*
X-113021Y-27229D01*
X-111425Y-28296D01*
X-109542Y-28670D01*
X-107659Y-28296D01*
X-106063Y-27229D01*
X-104996Y-25633D01*
X-104622Y-23750D01*
X-104996Y-21867D01*
X-106063Y-20271D01*
X-107659Y-19204D01*
X-109542Y-18829D01*
D02*
G37*
G36*
X270000Y-20080D02*
X268117Y-20454D01*
X266521Y-21521D01*
X265454Y-23117D01*
X265079Y-25000D01*
X265454Y-26883D01*
X266521Y-28479D01*
X268117Y-29546D01*
X270000Y-29920D01*
X271883Y-29546D01*
X273479Y-28479D01*
X274546Y-26883D01*
X274921Y-25000D01*
X274546Y-23117D01*
X273479Y-21521D01*
X271883Y-20454D01*
X270000Y-20080D01*
D02*
G37*
G36*
X255000D02*
X253117Y-20454D01*
X251521Y-21521D01*
X250454Y-23117D01*
X250079Y-25000D01*
X250454Y-26883D01*
X251521Y-28479D01*
X253117Y-29546D01*
X255000Y-29920D01*
X256883Y-29546D01*
X258479Y-28479D01*
X259546Y-26883D01*
X259921Y-25000D01*
X259546Y-23117D01*
X258479Y-21521D01*
X256883Y-20454D01*
X255000Y-20080D01*
D02*
G37*
G36*
X240000D02*
X238117Y-20454D01*
X236521Y-21521D01*
X235454Y-23117D01*
X235079Y-25000D01*
X235454Y-26883D01*
X236521Y-28479D01*
X238117Y-29546D01*
X240000Y-29920D01*
X241883Y-29546D01*
X243479Y-28479D01*
X244546Y-26883D01*
X244921Y-25000D01*
X244546Y-23117D01*
X243479Y-21521D01*
X241883Y-20454D01*
X240000Y-20080D01*
D02*
G37*
G36*
X-240000D02*
X-241883Y-20454D01*
X-243479Y-21521D01*
X-244546Y-23117D01*
X-244921Y-25000D01*
X-244546Y-26883D01*
X-243479Y-28479D01*
X-241883Y-29546D01*
X-240000Y-29920D01*
X-238117Y-29546D01*
X-236521Y-28479D01*
X-235454Y-26883D01*
X-235079Y-25000D01*
X-235454Y-23117D01*
X-236521Y-21521D01*
X-238117Y-20454D01*
X-240000Y-20080D01*
D02*
G37*
G36*
X-255000D02*
X-256883Y-20454D01*
X-258479Y-21521D01*
X-259546Y-23117D01*
X-259921Y-25000D01*
X-259546Y-26883D01*
X-258479Y-28479D01*
X-256883Y-29546D01*
X-255000Y-29920D01*
X-253117Y-29546D01*
X-251521Y-28479D01*
X-250454Y-26883D01*
X-250079Y-25000D01*
X-250454Y-23117D01*
X-251521Y-21521D01*
X-253117Y-20454D01*
X-255000Y-20080D01*
D02*
G37*
G36*
X-270000D02*
X-271883Y-20454D01*
X-273479Y-21521D01*
X-274546Y-23117D01*
X-274921Y-25000D01*
X-274546Y-26883D01*
X-273479Y-28479D01*
X-271883Y-29546D01*
X-270000Y-29920D01*
X-268117Y-29546D01*
X-266521Y-28479D01*
X-265454Y-26883D01*
X-265079Y-25000D01*
X-265454Y-23117D01*
X-266521Y-21521D01*
X-268117Y-20454D01*
X-270000Y-20080D01*
D02*
G37*
G36*
X184250Y-29116D02*
X182381Y-29488D01*
X180797Y-30547D01*
X179738Y-32131D01*
X179675Y-32448D01*
X178302Y-33325D01*
X177250Y-33116D01*
X175381Y-33488D01*
X173797Y-34547D01*
X172738Y-36131D01*
X172366Y-38000D01*
X172738Y-39869D01*
X173797Y-41453D01*
X175381Y-42512D01*
X177250Y-42884D01*
X179119Y-42512D01*
X180703Y-41453D01*
X181762Y-39869D01*
X181825Y-39552D01*
X183198Y-38675D01*
X184250Y-38884D01*
X186119Y-38512D01*
X187703Y-37453D01*
X188762Y-35869D01*
X189134Y-34000D01*
X188762Y-32131D01*
X187703Y-30547D01*
X186119Y-29488D01*
X184250Y-29116D01*
D02*
G37*
G36*
X49500Y-26079D02*
X47617Y-26454D01*
X46021Y-27521D01*
X44954Y-29117D01*
X44580Y-31000D01*
X44954Y-32883D01*
X46021Y-34479D01*
X47617Y-35546D01*
X49500Y-35921D01*
X51383Y-35546D01*
X52979Y-34479D01*
X54046Y-32883D01*
X54420Y-31000D01*
X54046Y-29117D01*
X52979Y-27521D01*
X51383Y-26454D01*
X49500Y-26079D01*
D02*
G37*
G36*
X215650Y-23702D02*
X213694Y-23960D01*
X211871Y-24715D01*
X210306Y-25916D01*
X209105Y-27481D01*
X208350Y-29304D01*
X208092Y-31260D01*
X208350Y-33216D01*
X209105Y-35039D01*
X210306Y-36604D01*
X211871Y-37805D01*
X213694Y-38560D01*
X215650Y-38818D01*
X217606Y-38560D01*
X219429Y-37805D01*
X220994Y-36604D01*
X222195Y-35039D01*
X222950Y-33216D01*
X223208Y-31260D01*
X222950Y-29304D01*
X222195Y-27481D01*
X220994Y-25916D01*
X219429Y-24715D01*
X217606Y-23960D01*
X215650Y-23702D01*
D02*
G37*
G36*
X-141002Y-22212D02*
X-142871Y-22584D01*
X-144455Y-23643D01*
X-145514Y-25227D01*
X-145886Y-27096D01*
X-145514Y-28965D01*
X-144455Y-30550D01*
X-142871Y-31608D01*
X-142341Y-31714D01*
X-141757Y-33125D01*
X-142262Y-33881D01*
X-142634Y-35750D01*
X-142262Y-37619D01*
X-141203Y-39203D01*
X-139619Y-40262D01*
X-137750Y-40634D01*
X-135881Y-40262D01*
X-134297Y-39203D01*
X-133238Y-37619D01*
X-132866Y-35750D01*
X-133238Y-33881D01*
X-134297Y-32297D01*
X-135881Y-31238D01*
X-136411Y-31133D01*
X-136995Y-29721D01*
X-136490Y-28965D01*
X-136118Y-27096D01*
X-136490Y-25227D01*
X-137549Y-23643D01*
X-139133Y-22584D01*
X-141002Y-22212D01*
D02*
G37*
G36*
X148752Y-32020D02*
X146883Y-32392D01*
X145299Y-33450D01*
X144240Y-35035D01*
X143868Y-36904D01*
X144240Y-38773D01*
X145299Y-40357D01*
X146883Y-41416D01*
X148752Y-41788D01*
X150621Y-41416D01*
X152205Y-40357D01*
X153264Y-38773D01*
X153636Y-36904D01*
X153264Y-35035D01*
X152205Y-33450D01*
X150621Y-32392D01*
X148752Y-32020D01*
D02*
G37*
G36*
X-247500Y-42579D02*
X-249383Y-42954D01*
X-250298Y-43565D01*
X-251250Y-43920D01*
X-252202Y-43565D01*
X-253117Y-42954D01*
X-255000Y-42579D01*
X-256883Y-42954D01*
X-257798Y-43565D01*
X-258750Y-43920D01*
X-259702Y-43565D01*
X-260617Y-42954D01*
X-262500Y-42579D01*
X-264383Y-42954D01*
X-265979Y-44021D01*
X-267046Y-45617D01*
X-267421Y-47500D01*
X-267046Y-49383D01*
X-265979Y-50979D01*
Y-51521D01*
X-267046Y-53117D01*
X-267421Y-55000D01*
X-267046Y-56883D01*
X-266435Y-57798D01*
X-266080Y-58750D01*
X-266435Y-59702D01*
X-267046Y-60617D01*
X-267421Y-62500D01*
X-267046Y-64383D01*
X-266435Y-65298D01*
X-266080Y-66250D01*
X-266435Y-67202D01*
X-267046Y-68117D01*
X-267421Y-70000D01*
X-267046Y-71883D01*
X-265979Y-73479D01*
X-264383Y-74546D01*
X-262500Y-74921D01*
X-260617Y-74546D01*
X-259702Y-73935D01*
X-258750Y-73580D01*
X-257798Y-73935D01*
X-256883Y-74546D01*
X-255000Y-74921D01*
X-253117Y-74546D01*
X-252202Y-73935D01*
X-251250Y-73580D01*
X-250298Y-73935D01*
X-249383Y-74546D01*
X-247500Y-74921D01*
X-245617Y-74546D01*
X-244021Y-73479D01*
X-242954Y-71883D01*
X-242579Y-70000D01*
X-242954Y-68117D01*
X-243565Y-67202D01*
X-243920Y-66250D01*
X-243565Y-65298D01*
X-242954Y-64383D01*
X-242579Y-62500D01*
X-242954Y-60617D01*
X-243565Y-59702D01*
X-243920Y-58750D01*
X-243565Y-57798D01*
X-242954Y-56883D01*
X-242579Y-55000D01*
X-242954Y-53117D01*
X-244021Y-51521D01*
Y-50979D01*
X-242954Y-49383D01*
X-242579Y-47500D01*
X-242954Y-45617D01*
X-244021Y-44021D01*
X-245617Y-42954D01*
X-247500Y-42579D01*
D02*
G37*
G36*
X-86250Y-35616D02*
X-88119Y-35988D01*
X-89703Y-37047D01*
X-90762Y-38631D01*
X-91134Y-40500D01*
X-90762Y-42369D01*
X-89703Y-43953D01*
X-88119Y-45012D01*
X-86250Y-45384D01*
X-84381Y-45012D01*
X-82797Y-43953D01*
X-81738Y-42369D01*
X-81366Y-40500D01*
X-81738Y-38631D01*
X-82797Y-37047D01*
X-84381Y-35988D01*
X-86250Y-35616D01*
D02*
G37*
G36*
X159252Y-36270D02*
X157383Y-36642D01*
X155799Y-37700D01*
X154740Y-39285D01*
X154368Y-41154D01*
X154740Y-43023D01*
X155799Y-44607D01*
X157383Y-45666D01*
X159252Y-46038D01*
X161121Y-45666D01*
X162705Y-44607D01*
X163764Y-43023D01*
X164136Y-41154D01*
X163764Y-39285D01*
X162705Y-37700D01*
X161121Y-36642D01*
X159252Y-36270D01*
D02*
G37*
G36*
X-36036Y-42330D02*
X-37905Y-42702D01*
X-39489Y-43761D01*
X-40548Y-45345D01*
X-40920Y-47214D01*
X-40548Y-49083D01*
X-39489Y-50667D01*
X-37905Y-51726D01*
X-36036Y-52098D01*
X-34167Y-51726D01*
X-32583Y-50667D01*
X-31524Y-49083D01*
X-31152Y-47214D01*
X-31524Y-45345D01*
X-32583Y-43761D01*
X-34167Y-42702D01*
X-36036Y-42330D01*
D02*
G37*
G36*
X261250Y-51830D02*
X259367Y-52204D01*
X258452Y-52815D01*
X257500Y-53170D01*
X256548Y-52815D01*
X255633Y-52204D01*
X253750Y-51830D01*
X251867Y-52204D01*
X250952Y-52815D01*
X250000Y-53170D01*
X249048Y-52815D01*
X248133Y-52204D01*
X246250Y-51830D01*
X244367Y-52204D01*
X242771Y-53271D01*
X241704Y-54867D01*
X241329Y-56750D01*
X241704Y-58633D01*
X242771Y-60229D01*
Y-60771D01*
X241704Y-62367D01*
X241329Y-64250D01*
X241704Y-66133D01*
X242315Y-67048D01*
X242670Y-68000D01*
X242315Y-68952D01*
X241704Y-69867D01*
X241329Y-71750D01*
X241704Y-73633D01*
X242315Y-74548D01*
X242670Y-75500D01*
X242315Y-76452D01*
X241704Y-77367D01*
X241329Y-79250D01*
X241704Y-81133D01*
X242771Y-82729D01*
X244367Y-83796D01*
X246250Y-84171D01*
X248133Y-83796D01*
X249048Y-83185D01*
X250000Y-82830D01*
X250952Y-83185D01*
X251867Y-83796D01*
X253750Y-84171D01*
X255633Y-83796D01*
X256548Y-83185D01*
X257500Y-82830D01*
X258452Y-83185D01*
X259367Y-83796D01*
X261250Y-84171D01*
X263133Y-83796D01*
X264729Y-82729D01*
X265796Y-81133D01*
X266171Y-79250D01*
X265796Y-77367D01*
X265185Y-76452D01*
X264830Y-75500D01*
X265185Y-74548D01*
X265796Y-73633D01*
X266171Y-71750D01*
X265796Y-69867D01*
X265185Y-68952D01*
X264830Y-68000D01*
X265185Y-67048D01*
X265796Y-66133D01*
X266171Y-64250D01*
X265796Y-62367D01*
X264729Y-60771D01*
Y-60229D01*
X265796Y-58633D01*
X266171Y-56750D01*
X265796Y-54867D01*
X264729Y-53271D01*
X263133Y-52204D01*
X261250Y-51830D01*
D02*
G37*
G36*
X-124252Y-35724D02*
X-126742Y-36052D01*
X-129063Y-37013D01*
X-131056Y-38542D01*
X-132585Y-40535D01*
X-133547Y-42856D01*
X-133874Y-45346D01*
X-133547Y-47837D01*
X-132585Y-50157D01*
X-131056Y-52150D01*
X-129063Y-53679D01*
X-126742Y-54641D01*
X-124252Y-54969D01*
X-121762Y-54641D01*
X-119441Y-53679D01*
X-117448Y-52150D01*
X-115919Y-50157D01*
X-114958Y-47837D01*
X-114630Y-45346D01*
X-114958Y-42856D01*
X-115919Y-40535D01*
X-117448Y-38542D01*
X-119441Y-37013D01*
X-121762Y-36052D01*
X-124252Y-35724D01*
D02*
G37*
G36*
X108652Y-30816D02*
X106783Y-31188D01*
X105198Y-32246D01*
X104140Y-33831D01*
X103768Y-35700D01*
X104140Y-37569D01*
X104857Y-38642D01*
X104721Y-39108D01*
X104233Y-39919D01*
X102631Y-40238D01*
X101047Y-41297D01*
X99988Y-42881D01*
X99616Y-44750D01*
X99988Y-46619D01*
X101047Y-48203D01*
X102631Y-49262D01*
X104500Y-49634D01*
X105502Y-50729D01*
X105368Y-51404D01*
X105740Y-53273D01*
X106798Y-54857D01*
X108383Y-55916D01*
X110252Y-56287D01*
X112121Y-55916D01*
X113705Y-54857D01*
X114764Y-53273D01*
X115136Y-51404D01*
X114764Y-49535D01*
X113705Y-47950D01*
X112121Y-46892D01*
X110252Y-46520D01*
X109250Y-45424D01*
X109384Y-44750D01*
X109012Y-42881D01*
X108295Y-41807D01*
X108431Y-41342D01*
X108919Y-40530D01*
X110521Y-40212D01*
X112105Y-39153D01*
X113164Y-37569D01*
X113536Y-35700D01*
X113164Y-33831D01*
X112105Y-32246D01*
X110521Y-31188D01*
X108652Y-30816D01*
D02*
G37*
G36*
X-101752Y-50962D02*
X-103621Y-51334D01*
X-105205Y-52393D01*
X-106264Y-53977D01*
X-106636Y-55846D01*
X-106264Y-57715D01*
X-105205Y-59299D01*
X-103621Y-60358D01*
X-101752Y-60730D01*
X-99883Y-60358D01*
X-98299Y-59299D01*
X-97240Y-57715D01*
X-96868Y-55846D01*
X-97240Y-53977D01*
X-98299Y-52393D01*
X-99883Y-51334D01*
X-101752Y-50962D01*
D02*
G37*
G36*
X-138430Y-51250D02*
X-140299Y-51622D01*
X-141883Y-52681D01*
X-142942Y-54265D01*
X-143314Y-56134D01*
X-142942Y-58003D01*
X-141883Y-59587D01*
X-140299Y-60646D01*
X-138430Y-61018D01*
X-136561Y-60646D01*
X-134977Y-59587D01*
X-133918Y-58003D01*
X-133546Y-56134D01*
X-133918Y-54265D01*
X-134977Y-52681D01*
X-136561Y-51622D01*
X-138430Y-51250D01*
D02*
G37*
G36*
X-205750Y-56366D02*
X-207619Y-56738D01*
X-209203Y-57797D01*
X-210262Y-59381D01*
X-210634Y-61250D01*
X-210262Y-63119D01*
X-209203Y-64703D01*
X-207619Y-65762D01*
X-205750Y-66134D01*
X-203881Y-65762D01*
X-202297Y-64703D01*
X-201238Y-63119D01*
X-200866Y-61250D01*
X-201238Y-59381D01*
X-202297Y-57797D01*
X-203881Y-56738D01*
X-205750Y-56366D01*
D02*
G37*
G36*
X78426Y-56978D02*
X76557Y-57350D01*
X74973Y-58408D01*
X73914Y-59993D01*
X73542Y-61862D01*
X73914Y-63731D01*
X74973Y-65315D01*
X76557Y-66374D01*
X78426Y-66746D01*
X80295Y-66374D01*
X81879Y-65315D01*
X82938Y-63731D01*
X83310Y-61862D01*
X82938Y-59993D01*
X81879Y-58408D01*
X80295Y-57350D01*
X78426Y-56978D01*
D02*
G37*
G36*
X89856Y-57994D02*
X87987Y-58366D01*
X86403Y-59424D01*
X85344Y-61009D01*
X84972Y-62878D01*
X85344Y-64747D01*
X86403Y-66331D01*
X87987Y-67390D01*
X89856Y-67762D01*
X91725Y-67390D01*
X93309Y-66331D01*
X94368Y-64747D01*
X94740Y-62878D01*
X94368Y-61009D01*
X93309Y-59424D01*
X91725Y-58366D01*
X89856Y-57994D01*
D02*
G37*
G36*
X-176509Y-62857D02*
X-178378Y-63229D01*
X-179962Y-64288D01*
X-181021Y-65872D01*
X-181392Y-67741D01*
X-181021Y-69610D01*
X-179962Y-71194D01*
X-178378Y-72253D01*
X-176509Y-72625D01*
X-174640Y-72253D01*
X-173055Y-71194D01*
X-171996Y-69610D01*
X-171778Y-68509D01*
X-170483D01*
X-170262Y-69619D01*
X-169203Y-71203D01*
X-167619Y-72262D01*
X-165750Y-72634D01*
X-163881Y-72262D01*
X-162297Y-71203D01*
X-161238Y-69619D01*
X-160866Y-67750D01*
X-161238Y-65881D01*
X-162297Y-64296D01*
X-163881Y-63238D01*
X-165750Y-62866D01*
X-167619Y-63238D01*
X-169203Y-64296D01*
X-170262Y-65881D01*
X-170481Y-66981D01*
X-171776D01*
X-171996Y-65872D01*
X-173055Y-64288D01*
X-174640Y-63229D01*
X-176509Y-62857D01*
D02*
G37*
G36*
X-218250Y-62866D02*
X-220119Y-63238D01*
X-221703Y-64297D01*
X-222762Y-65881D01*
X-223134Y-67750D01*
X-222762Y-69619D01*
X-221703Y-71203D01*
X-220119Y-72262D01*
X-218250Y-72634D01*
X-216381Y-72262D01*
X-214797Y-71203D01*
X-213738Y-69619D01*
X-213366Y-67750D01*
X-213738Y-65881D01*
X-214797Y-64297D01*
X-216381Y-63238D01*
X-218250Y-62866D01*
D02*
G37*
G36*
X-145252Y-63462D02*
X-147121Y-63834D01*
X-148705Y-64893D01*
X-149764Y-66477D01*
X-150136Y-68346D01*
X-149764Y-70215D01*
X-148705Y-71800D01*
X-147121Y-72858D01*
X-145252Y-73230D01*
X-143383Y-72858D01*
X-141798Y-71800D01*
X-140740Y-70215D01*
X-140368Y-68346D01*
X-140740Y-66477D01*
X-141798Y-64893D01*
X-143383Y-63834D01*
X-145252Y-63462D01*
D02*
G37*
G36*
X-86002Y-65462D02*
X-87871Y-65834D01*
X-89455Y-66893D01*
X-90514Y-68477D01*
X-90886Y-70346D01*
X-90514Y-72215D01*
X-89455Y-73800D01*
X-87871Y-74858D01*
X-86002Y-75230D01*
X-84133Y-74858D01*
X-82549Y-73800D01*
X-81490Y-72215D01*
X-81118Y-70346D01*
X-81490Y-68477D01*
X-82549Y-66893D01*
X-84133Y-65834D01*
X-86002Y-65462D01*
D02*
G37*
G36*
X204000Y-67596D02*
X202131Y-67968D01*
X200547Y-69026D01*
X199488Y-70611D01*
X199116Y-72480D01*
X199488Y-74349D01*
X200547Y-75933D01*
X202131Y-76992D01*
X204000Y-77364D01*
X205869Y-76992D01*
X207453Y-75933D01*
X208512Y-74349D01*
X208884Y-72480D01*
X208512Y-70611D01*
X207453Y-69026D01*
X205869Y-67968D01*
X204000Y-67596D01*
D02*
G37*
G36*
X-111023Y-68131D02*
X-112892Y-68503D01*
X-114476Y-69562D01*
X-115535Y-71146D01*
X-115906Y-73015D01*
X-115535Y-74884D01*
X-114476Y-76468D01*
X-112892Y-77527D01*
X-111023Y-77899D01*
X-109154Y-77527D01*
X-107569Y-76468D01*
X-106511Y-74884D01*
X-106139Y-73015D01*
X-106511Y-71146D01*
X-107569Y-69562D01*
X-109154Y-68503D01*
X-111023Y-68131D01*
D02*
G37*
G36*
X18500Y-62616D02*
X16631Y-62988D01*
X15047Y-64047D01*
X13988Y-65631D01*
X13616Y-67500D01*
X13988Y-69369D01*
X15047Y-70953D01*
X16631Y-72012D01*
X18500Y-72384D01*
X20369Y-72012D01*
X20530Y-71904D01*
X21446Y-72820D01*
X21238Y-73131D01*
X20866Y-75000D01*
X21238Y-76869D01*
X22297Y-78453D01*
X23881Y-79512D01*
X25750Y-79884D01*
X27619Y-79512D01*
X29203Y-78453D01*
X30262Y-76869D01*
X30634Y-75000D01*
X30262Y-73131D01*
X29203Y-71547D01*
X27619Y-70488D01*
X25750Y-70116D01*
X23881Y-70488D01*
X23720Y-70596D01*
X22804Y-69680D01*
X23012Y-69369D01*
X23384Y-67500D01*
X23012Y-65631D01*
X21953Y-64047D01*
X20369Y-62988D01*
X18500Y-62616D01*
D02*
G37*
G36*
X287000Y-76116D02*
X285131Y-76488D01*
X283547Y-77547D01*
X282488Y-79131D01*
X282116Y-81000D01*
X282488Y-82869D01*
X283547Y-84453D01*
X285131Y-85512D01*
X287000Y-85884D01*
X288869Y-85512D01*
X290453Y-84453D01*
X291512Y-82869D01*
X291884Y-81000D01*
X291512Y-79131D01*
X290453Y-77547D01*
X288869Y-76488D01*
X287000Y-76116D01*
D02*
G37*
G36*
X-51252Y-74769D02*
X-53482Y-75213D01*
X-55372Y-76476D01*
X-56635Y-78366D01*
X-57079Y-80596D01*
X-56635Y-82826D01*
X-55372Y-84717D01*
X-53482Y-85980D01*
X-51252Y-86423D01*
X-49022Y-85980D01*
X-47132Y-84717D01*
X-45869Y-82826D01*
X-45425Y-80596D01*
X-45869Y-78366D01*
X-47132Y-76476D01*
X-49022Y-75213D01*
X-51252Y-74769D01*
D02*
G37*
G36*
X-77250Y-79866D02*
X-79119Y-80238D01*
X-80703Y-81297D01*
X-81762Y-82881D01*
X-82134Y-84750D01*
X-81810Y-86378D01*
X-83619Y-86738D01*
X-85203Y-87797D01*
X-85229Y-87834D01*
X-86474Y-87587D01*
X-86511Y-87404D01*
X-87569Y-85819D01*
X-89154Y-84761D01*
X-91023Y-84389D01*
X-92892Y-84761D01*
X-94476Y-85819D01*
X-95535Y-87404D01*
X-95906Y-89273D01*
X-95535Y-91142D01*
X-94476Y-92726D01*
X-92892Y-93785D01*
X-91023Y-94157D01*
X-89154Y-93785D01*
X-87569Y-92726D01*
X-87544Y-92688D01*
X-86299Y-92936D01*
X-86262Y-93119D01*
X-85203Y-94703D01*
X-83619Y-95762D01*
X-81750Y-96134D01*
X-79881Y-95762D01*
X-78297Y-94703D01*
X-77238Y-93119D01*
X-76866Y-91250D01*
X-77190Y-89622D01*
X-75381Y-89262D01*
X-73797Y-88203D01*
X-72738Y-86619D01*
X-72366Y-84750D01*
X-72738Y-82881D01*
X-73797Y-81297D01*
X-75381Y-80238D01*
X-77250Y-79866D01*
D02*
G37*
G36*
X-195250Y-72616D02*
X-197119Y-72988D01*
X-198703Y-74047D01*
X-199762Y-75631D01*
X-200134Y-77500D01*
X-199762Y-79369D01*
X-199111Y-80343D01*
X-198731Y-81617D01*
X-199798Y-83213D01*
X-200172Y-85096D01*
X-199798Y-86979D01*
X-198731Y-88575D01*
X-197135Y-89642D01*
X-195252Y-90017D01*
X-193369Y-89642D01*
X-191772Y-88575D01*
X-190706Y-86979D01*
X-190331Y-85096D01*
X-190706Y-83213D01*
X-191772Y-81617D01*
X-191390Y-80345D01*
X-190738Y-79369D01*
X-190366Y-77500D01*
X-190738Y-75631D01*
X-191797Y-74047D01*
X-193381Y-72988D01*
X-195250Y-72616D01*
D02*
G37*
G36*
X101252Y-89770D02*
X99383Y-90142D01*
X97799Y-91200D01*
X96740Y-92785D01*
X96580Y-93590D01*
X96002Y-94770D01*
X94133Y-95142D01*
X92549Y-96200D01*
X91490Y-97785D01*
X91118Y-99654D01*
X91490Y-101523D01*
X92549Y-103107D01*
X94133Y-104166D01*
X96002Y-104537D01*
X97871Y-104166D01*
X99455Y-103107D01*
X100514Y-101523D01*
X100674Y-100717D01*
X101252Y-99537D01*
X103121Y-99166D01*
X104705Y-98107D01*
X105764Y-96523D01*
X106136Y-94654D01*
X105764Y-92785D01*
X104705Y-91200D01*
X103121Y-90142D01*
X101252Y-89770D01*
D02*
G37*
G36*
X-142500Y-100116D02*
X-144369Y-100488D01*
X-145953Y-101547D01*
X-147012Y-103131D01*
X-147384Y-105000D01*
X-147012Y-106869D01*
X-145953Y-108453D01*
X-144369Y-109512D01*
X-142500Y-109884D01*
X-140631Y-109512D01*
X-139047Y-108453D01*
X-137988Y-106869D01*
X-137616Y-105000D01*
X-137988Y-103131D01*
X-139047Y-101547D01*
X-140631Y-100488D01*
X-142500Y-100116D01*
D02*
G37*
G36*
X190500Y-79866D02*
X188631Y-80238D01*
X187047Y-81297D01*
X185988Y-82881D01*
X185616Y-84750D01*
X185988Y-86619D01*
X187047Y-88203D01*
X187616Y-88584D01*
X188442Y-89582D01*
X188273Y-90434D01*
X188071Y-91451D01*
X188442Y-93320D01*
X188991Y-94141D01*
X189547Y-95297D01*
X188488Y-96881D01*
X188116Y-98750D01*
X188488Y-100619D01*
X189547Y-102203D01*
X189749Y-103866D01*
X189238Y-104631D01*
X188866Y-106500D01*
X189238Y-108369D01*
X190297Y-109953D01*
X191881Y-111012D01*
X193750Y-111384D01*
X195619Y-111012D01*
X197203Y-109953D01*
X198262Y-108369D01*
X198634Y-106500D01*
X198262Y-104631D01*
X197203Y-103047D01*
X197001Y-101384D01*
X197512Y-100619D01*
X197884Y-98750D01*
X197512Y-96881D01*
X196964Y-96060D01*
X196408Y-94905D01*
X197467Y-93320D01*
X197838Y-91451D01*
X197796Y-91240D01*
X198847Y-90015D01*
X200119Y-89762D01*
X201703Y-88703D01*
X202762Y-87119D01*
X203134Y-85250D01*
X202762Y-83381D01*
X201703Y-81797D01*
X200119Y-80738D01*
X198250Y-80366D01*
X196381Y-80738D01*
X194797Y-81797D01*
X194287D01*
X193953Y-81297D01*
X192369Y-80238D01*
X190500Y-79866D01*
D02*
G37*
G36*
X-193250Y-104116D02*
X-195119Y-104488D01*
X-196703Y-105547D01*
X-197762Y-107131D01*
X-198134Y-109000D01*
X-197762Y-110869D01*
X-196703Y-112453D01*
X-195119Y-113512D01*
X-193250Y-113884D01*
X-191381Y-113512D01*
X-189797Y-112453D01*
X-188738Y-110869D01*
X-188366Y-109000D01*
X-188738Y-107131D01*
X-189797Y-105547D01*
X-191381Y-104488D01*
X-193250Y-104116D01*
D02*
G37*
G36*
X-183000Y-110866D02*
X-184869Y-111238D01*
X-186453Y-112296D01*
X-187512Y-113881D01*
X-187884Y-115750D01*
X-187512Y-117619D01*
X-186453Y-119203D01*
X-184869Y-120262D01*
X-183000Y-120634D01*
X-181131Y-120262D01*
X-179547Y-119203D01*
X-178488Y-117619D01*
X-178116Y-115750D01*
X-178488Y-113881D01*
X-179547Y-112296D01*
X-181131Y-111238D01*
X-183000Y-110866D01*
D02*
G37*
G36*
X-99502Y-101962D02*
X-101371Y-102334D01*
X-102955Y-103393D01*
X-104014Y-104977D01*
X-104386Y-106846D01*
X-104014Y-108715D01*
X-102955Y-110300D01*
X-101574Y-111222D01*
X-101556Y-112162D01*
X-101652Y-112581D01*
X-103133Y-113571D01*
X-104192Y-115155D01*
X-104564Y-117024D01*
X-104192Y-118893D01*
X-103133Y-120478D01*
X-101549Y-121536D01*
X-99680Y-121908D01*
X-97811Y-121536D01*
X-96227Y-120478D01*
X-95168Y-118893D01*
X-94796Y-117024D01*
X-95168Y-115155D01*
X-96227Y-113571D01*
X-97607Y-112648D01*
X-97626Y-111709D01*
X-97529Y-111289D01*
X-96048Y-110300D01*
X-94990Y-108715D01*
X-94618Y-106846D01*
X-94990Y-104977D01*
X-96048Y-103393D01*
X-97633Y-102334D01*
X-99502Y-101962D01*
D02*
G37*
G36*
X-242750Y-123829D02*
X-244633Y-124204D01*
X-246229Y-125271D01*
X-246396D01*
X-247992Y-124204D01*
X-249875Y-123829D01*
X-251758Y-124204D01*
X-253354Y-125271D01*
X-253521D01*
X-255117Y-124204D01*
X-257000Y-123829D01*
X-258883Y-124204D01*
X-260479Y-125271D01*
X-261546Y-126867D01*
X-261921Y-128750D01*
X-261546Y-130633D01*
X-260479Y-132229D01*
X-258883Y-133296D01*
X-257000Y-133671D01*
X-255117Y-133296D01*
X-253521Y-132229D01*
X-253354D01*
X-251758Y-133296D01*
X-249875Y-133671D01*
X-247992Y-133296D01*
X-246396Y-132229D01*
X-246229D01*
X-244633Y-133296D01*
X-242750Y-133671D01*
X-240867Y-133296D01*
X-239271Y-132229D01*
X-237873Y-132424D01*
X-236619Y-133262D01*
X-234750Y-133634D01*
X-232881Y-133262D01*
X-231297Y-132203D01*
X-230238Y-130619D01*
X-229866Y-128750D01*
X-230238Y-126881D01*
X-231297Y-125297D01*
X-232881Y-124238D01*
X-234750Y-123866D01*
X-236619Y-124238D01*
X-237873Y-125076D01*
X-239271Y-125271D01*
X-240867Y-124204D01*
X-242750Y-123829D01*
D02*
G37*
G36*
X76394Y-106254D02*
X74525Y-106626D01*
X72941Y-107684D01*
X71882Y-109269D01*
X71510Y-111138D01*
X71882Y-113007D01*
X72941Y-114591D01*
X74267Y-115477D01*
X74284Y-116485D01*
X74282Y-116502D01*
X74187Y-116835D01*
X72705Y-117826D01*
X71646Y-119411D01*
X71274Y-121279D01*
X71646Y-123148D01*
X72705Y-124733D01*
X74289Y-125792D01*
X76158Y-126163D01*
X78027Y-125792D01*
X79611Y-124733D01*
X80670Y-123148D01*
X81042Y-121279D01*
X80670Y-119411D01*
X79611Y-117826D01*
X78285Y-116940D01*
X78268Y-115932D01*
X78270Y-115915D01*
X78365Y-115582D01*
X79847Y-114591D01*
X80906Y-113007D01*
X81278Y-111138D01*
X80906Y-109269D01*
X79847Y-107684D01*
X78263Y-106626D01*
X76394Y-106254D01*
D02*
G37*
G36*
X38250Y-116580D02*
X36367Y-116954D01*
X34771Y-118021D01*
X33704Y-119617D01*
X33330Y-121500D01*
X33704Y-123383D01*
X34771Y-124979D01*
X36367Y-126046D01*
X38250Y-126420D01*
X40133Y-126046D01*
X41729Y-124979D01*
X42796Y-123383D01*
X43171Y-121500D01*
X42796Y-119617D01*
X41729Y-118021D01*
X40133Y-116954D01*
X38250Y-116580D01*
D02*
G37*
G36*
X-169672Y-117798D02*
X-171541Y-118170D01*
X-173125Y-119229D01*
X-174184Y-120813D01*
X-174556Y-122682D01*
X-174184Y-124551D01*
X-173125Y-126135D01*
X-171541Y-127194D01*
X-169672Y-127566D01*
X-167803Y-127194D01*
X-166219Y-126135D01*
X-165160Y-124551D01*
X-164788Y-122682D01*
X-165160Y-120813D01*
X-166219Y-119229D01*
X-167803Y-118170D01*
X-169672Y-117798D01*
D02*
G37*
G36*
X194750Y-120116D02*
X192881Y-120488D01*
X191297Y-121547D01*
X190238Y-123131D01*
X189866Y-125000D01*
X190238Y-126869D01*
X191297Y-128453D01*
X192881Y-129512D01*
X194750Y-129884D01*
X196619Y-129512D01*
X198203Y-128453D01*
X199262Y-126869D01*
X199634Y-125000D01*
X199262Y-123131D01*
X198203Y-121547D01*
X196619Y-120488D01*
X194750Y-120116D01*
D02*
G37*
G36*
X-38250Y-121829D02*
X-40133Y-122204D01*
X-41729Y-123271D01*
X-42796Y-124867D01*
X-43171Y-126750D01*
X-42796Y-128633D01*
X-41729Y-130229D01*
X-40133Y-131296D01*
X-38250Y-131671D01*
X-36367Y-131296D01*
X-34771Y-130229D01*
X-33704Y-128633D01*
X-33330Y-126750D01*
X-33704Y-124867D01*
X-34771Y-123271D01*
X-36367Y-122204D01*
X-38250Y-121829D01*
D02*
G37*
G36*
X-185235Y-122419D02*
X-187104Y-122791D01*
X-188688Y-123850D01*
X-189747Y-125434D01*
X-190119Y-127303D01*
X-189747Y-129172D01*
X-188688Y-130757D01*
X-187104Y-131815D01*
X-185235Y-132187D01*
X-183366Y-131815D01*
X-181781Y-130757D01*
X-180723Y-129172D01*
X-180351Y-127303D01*
X-180723Y-125434D01*
X-181781Y-123850D01*
X-183366Y-122791D01*
X-185235Y-122419D01*
D02*
G37*
G36*
X-293250Y-123366D02*
X-295119Y-123738D01*
X-296703Y-124797D01*
X-297762Y-126381D01*
X-298134Y-128250D01*
X-297762Y-130119D01*
X-296703Y-131703D01*
X-295119Y-132762D01*
X-293250Y-133134D01*
X-291381Y-132762D01*
X-289797Y-131703D01*
X-288738Y-130119D01*
X-288366Y-128250D01*
X-288738Y-126381D01*
X-289797Y-124797D01*
X-291381Y-123738D01*
X-293250Y-123366D01*
D02*
G37*
G36*
X183000Y-129366D02*
X181131Y-129738D01*
X179547Y-130797D01*
X178488Y-132381D01*
X178116Y-134250D01*
X178488Y-136119D01*
X179547Y-137703D01*
X181131Y-138762D01*
X183000Y-139134D01*
X184869Y-138762D01*
X186453Y-137703D01*
X187512Y-136119D01*
X187884Y-134250D01*
X187512Y-132381D01*
X186453Y-130797D01*
X184869Y-129738D01*
X183000Y-129366D01*
D02*
G37*
G36*
X304546Y-131260D02*
X302677Y-131632D01*
X301093Y-132691D01*
X300034Y-134275D01*
X299662Y-136144D01*
X300034Y-138013D01*
X301093Y-139597D01*
X302677Y-140656D01*
X304546Y-141028D01*
X306415Y-140656D01*
X307999Y-139597D01*
X309058Y-138013D01*
X309430Y-136144D01*
X309058Y-134275D01*
X307999Y-132691D01*
X306415Y-131632D01*
X304546Y-131260D01*
D02*
G37*
G36*
X236728Y-131768D02*
X234859Y-132140D01*
X233275Y-133199D01*
X232216Y-134783D01*
X231844Y-136652D01*
X232216Y-138521D01*
X233275Y-140105D01*
X234859Y-141164D01*
X236728Y-141536D01*
X238597Y-141164D01*
X240181Y-140105D01*
X241240Y-138521D01*
X241612Y-136652D01*
X241240Y-134783D01*
X240181Y-133199D01*
X238597Y-132140D01*
X236728Y-131768D01*
D02*
G37*
G36*
X-76158Y-123836D02*
X-78027Y-124208D01*
X-79611Y-125267D01*
X-80670Y-126851D01*
X-81042Y-128720D01*
X-80670Y-130589D01*
X-79611Y-132174D01*
X-78285Y-133060D01*
X-78268Y-134067D01*
X-78270Y-134084D01*
X-78365Y-134418D01*
X-79847Y-135409D01*
X-80906Y-136993D01*
X-81278Y-138862D01*
X-80906Y-140731D01*
X-79847Y-142316D01*
X-78263Y-143374D01*
X-76394Y-143746D01*
X-74525Y-143374D01*
X-72941Y-142316D01*
X-71882Y-140731D01*
X-71510Y-138862D01*
X-71882Y-136993D01*
X-72941Y-135409D01*
X-74267Y-134523D01*
X-74284Y-133515D01*
X-74282Y-133498D01*
X-74187Y-133165D01*
X-72705Y-132174D01*
X-71646Y-130589D01*
X-71274Y-128720D01*
X-71646Y-126851D01*
X-72705Y-125267D01*
X-74289Y-124208D01*
X-76158Y-123836D01*
D02*
G37*
G36*
X193250Y-136116D02*
X191381Y-136488D01*
X189797Y-137547D01*
X188738Y-139131D01*
X188366Y-141000D01*
X188738Y-142869D01*
X189797Y-144453D01*
X191381Y-145512D01*
X193250Y-145884D01*
X195119Y-145512D01*
X196703Y-144453D01*
X197762Y-142869D01*
X198134Y-141000D01*
X197762Y-139131D01*
X196703Y-137547D01*
X195119Y-136488D01*
X193250Y-136116D01*
D02*
G37*
G36*
X99680Y-128092D02*
X97811Y-128464D01*
X96227Y-129522D01*
X95168Y-131107D01*
X94796Y-132976D01*
X95168Y-134845D01*
X96227Y-136429D01*
X97607Y-137352D01*
X97626Y-138291D01*
X97529Y-138711D01*
X96048Y-139700D01*
X94990Y-141285D01*
X94618Y-143154D01*
X94990Y-145023D01*
X96048Y-146607D01*
X97633Y-147666D01*
X99502Y-148038D01*
X101371Y-147666D01*
X102955Y-146607D01*
X104014Y-145023D01*
X104386Y-143154D01*
X104014Y-141285D01*
X102955Y-139700D01*
X101574Y-138778D01*
X101556Y-137838D01*
X101652Y-137419D01*
X103133Y-136429D01*
X104192Y-134845D01*
X104564Y-132976D01*
X104192Y-131107D01*
X103133Y-129522D01*
X101549Y-128464D01*
X99680Y-128092D01*
D02*
G37*
G36*
X140970Y-140404D02*
X139101Y-140776D01*
X137517Y-141835D01*
X136458Y-143419D01*
X136086Y-145288D01*
X136458Y-147157D01*
X137517Y-148741D01*
X139101Y-149800D01*
X140970Y-150172D01*
X142839Y-149800D01*
X144423Y-148741D01*
X145482Y-147157D01*
X145854Y-145288D01*
X145482Y-143419D01*
X144423Y-141835D01*
X142839Y-140776D01*
X140970Y-140404D01*
D02*
G37*
G36*
X-96002Y-145462D02*
X-97871Y-145834D01*
X-99455Y-146893D01*
X-100514Y-148477D01*
X-100886Y-150346D01*
X-102123Y-150636D01*
X-103121Y-150834D01*
X-104705Y-151893D01*
X-105764Y-153477D01*
X-106136Y-155346D01*
X-105764Y-157215D01*
X-104705Y-158800D01*
X-103121Y-159858D01*
X-101252Y-160230D01*
X-99383Y-159858D01*
X-97799Y-158800D01*
X-96740Y-157215D01*
X-96368Y-155346D01*
X-95131Y-155057D01*
X-94133Y-154858D01*
X-92549Y-153800D01*
X-91490Y-152215D01*
X-91118Y-150346D01*
X-91490Y-148477D01*
X-92549Y-146893D01*
X-94133Y-145834D01*
X-96002Y-145462D01*
D02*
G37*
G36*
X-193000Y-146366D02*
X-194869Y-146738D01*
X-196453Y-147797D01*
X-197512Y-149381D01*
X-197884Y-151250D01*
X-197512Y-153119D01*
X-196964Y-153939D01*
X-196519Y-154864D01*
X-196946Y-155901D01*
X-197467Y-156680D01*
X-197838Y-158549D01*
X-197467Y-160418D01*
X-196408Y-162002D01*
X-194823Y-163061D01*
X-192954Y-163433D01*
X-191085Y-163061D01*
X-189501Y-162002D01*
X-188442Y-160418D01*
X-188071Y-158549D01*
X-188442Y-156680D01*
X-188991Y-155859D01*
X-189435Y-154935D01*
X-189008Y-153897D01*
X-188488Y-153119D01*
X-188116Y-151250D01*
X-188488Y-149381D01*
X-189547Y-147797D01*
X-191131Y-146738D01*
X-193000Y-146366D01*
D02*
G37*
G36*
X51252Y-163577D02*
X49022Y-164020D01*
X47132Y-165283D01*
X45869Y-167174D01*
X45425Y-169404D01*
X45869Y-171634D01*
X47132Y-173524D01*
X49022Y-174787D01*
X51252Y-175231D01*
X53482Y-174787D01*
X55372Y-173524D01*
X56635Y-171634D01*
X57079Y-169404D01*
X56635Y-167174D01*
X55372Y-165283D01*
X53482Y-164020D01*
X51252Y-163577D01*
D02*
G37*
G36*
X195252Y-159983D02*
X193369Y-160358D01*
X191772Y-161424D01*
X190706Y-163021D01*
X190331Y-164904D01*
X190706Y-166787D01*
X191772Y-168383D01*
X191390Y-169655D01*
X190738Y-170631D01*
X190366Y-172500D01*
X190738Y-174369D01*
X191797Y-175953D01*
X193381Y-177012D01*
X195250Y-177384D01*
X197119Y-177012D01*
X198703Y-175953D01*
X199762Y-174369D01*
X200134Y-172500D01*
X199762Y-170631D01*
X199111Y-169657D01*
X198731Y-168383D01*
X199798Y-166787D01*
X200172Y-164904D01*
X199798Y-163021D01*
X198731Y-161424D01*
X197135Y-160358D01*
X195252Y-159983D01*
D02*
G37*
G36*
X96750Y-174116D02*
X94881Y-174488D01*
X93297Y-175547D01*
X92238Y-177131D01*
X91958Y-178536D01*
X90663D01*
X90514Y-177785D01*
X89455Y-176200D01*
X87871Y-175142D01*
X86002Y-174770D01*
X84133Y-175142D01*
X82549Y-176200D01*
X81490Y-177785D01*
X81118Y-179654D01*
X81490Y-181523D01*
X82549Y-183107D01*
X84133Y-184166D01*
X86002Y-184538D01*
X87871Y-184166D01*
X89455Y-183107D01*
X90514Y-181523D01*
X90794Y-180117D01*
X92088D01*
X92238Y-180869D01*
X93297Y-182453D01*
X94881Y-183512D01*
X96750Y-183884D01*
X98619Y-183512D01*
X100203Y-182453D01*
X101262Y-180869D01*
X101634Y-179000D01*
X101262Y-177131D01*
X100203Y-175547D01*
X98619Y-174488D01*
X96750Y-174116D01*
D02*
G37*
G36*
X165750Y-177366D02*
X163881Y-177738D01*
X162297Y-178797D01*
X161238Y-180381D01*
X160866Y-182250D01*
X161238Y-184119D01*
X162297Y-185703D01*
X163881Y-186762D01*
X165750Y-187134D01*
X167619Y-186762D01*
X169203Y-185703D01*
X170262Y-184119D01*
X170481Y-183018D01*
X171776D01*
X171996Y-184128D01*
X173055Y-185712D01*
X174640Y-186771D01*
X176509Y-187143D01*
X178378Y-186771D01*
X179962Y-185712D01*
X181021Y-184128D01*
X181392Y-182259D01*
X181021Y-180390D01*
X179962Y-178806D01*
X178378Y-177747D01*
X176509Y-177375D01*
X174640Y-177747D01*
X173055Y-178806D01*
X171996Y-180390D01*
X171778Y-181490D01*
X170483D01*
X170262Y-180381D01*
X169203Y-178797D01*
X167619Y-177738D01*
X165750Y-177366D01*
D02*
G37*
G36*
X-236500Y-178116D02*
X-238369Y-178488D01*
X-239953Y-179547D01*
X-241012Y-181131D01*
X-241384Y-183000D01*
X-241012Y-184869D01*
X-240154Y-186153D01*
X-240686Y-186937D01*
X-240974Y-187183D01*
X-242750Y-186829D01*
X-242956Y-186870D01*
X-244036Y-185791D01*
X-243829Y-184750D01*
X-244204Y-182867D01*
X-245271Y-181271D01*
X-246867Y-180204D01*
X-248750Y-179830D01*
X-250633Y-180204D01*
X-252229Y-181271D01*
X-253296Y-182867D01*
X-253671Y-184750D01*
X-253296Y-186633D01*
X-252982Y-187103D01*
X-253897Y-188019D01*
X-255117Y-187204D01*
X-257000Y-186829D01*
X-257109Y-186721D01*
X-256866Y-185500D01*
X-257238Y-183631D01*
X-258297Y-182047D01*
X-259881Y-180988D01*
X-261750Y-180616D01*
X-263619Y-180988D01*
X-265203Y-182047D01*
X-266262Y-183631D01*
X-266634Y-185500D01*
X-266262Y-187369D01*
X-265203Y-188953D01*
X-263619Y-190012D01*
X-262898Y-190155D01*
X-261892Y-191609D01*
X-261921Y-191750D01*
X-261546Y-193633D01*
X-260479Y-195229D01*
X-258883Y-196296D01*
X-257000Y-196670D01*
X-255117Y-196296D01*
X-253521Y-195229D01*
X-253354D01*
X-251758Y-196296D01*
X-249875Y-196670D01*
X-247992Y-196296D01*
X-246396Y-195229D01*
X-246229D01*
X-244633Y-196296D01*
X-242750Y-196670D01*
X-240867Y-196296D01*
X-239271Y-195229D01*
X-238204Y-193633D01*
X-237829Y-191750D01*
X-238204Y-189867D01*
X-239072Y-188569D01*
X-238550Y-187785D01*
X-238262Y-187533D01*
X-236500Y-187884D01*
X-234631Y-187512D01*
X-233047Y-186453D01*
X-231988Y-184869D01*
X-231616Y-183000D01*
X-231988Y-181131D01*
X-233047Y-179547D01*
X-234631Y-178488D01*
X-236500Y-178116D01*
D02*
G37*
G36*
X-25750Y-170116D02*
X-27619Y-170488D01*
X-29203Y-171546D01*
X-30262Y-173131D01*
X-30634Y-175000D01*
X-30262Y-176869D01*
X-29203Y-178453D01*
X-27619Y-179512D01*
X-26223Y-179790D01*
X-25602Y-180340D01*
X-25355Y-181100D01*
X-25635Y-182509D01*
X-25263Y-184378D01*
X-24204Y-185962D01*
X-22620Y-187021D01*
X-20751Y-187393D01*
X-18882Y-187021D01*
X-17298Y-185962D01*
X-16239Y-184378D01*
X-15867Y-182509D01*
X-16239Y-180640D01*
X-17298Y-179056D01*
X-18882Y-177997D01*
X-20278Y-177719D01*
X-20899Y-177169D01*
X-21146Y-176409D01*
X-20866Y-175000D01*
X-21238Y-173131D01*
X-22297Y-171546D01*
X-23881Y-170488D01*
X-25750Y-170116D01*
D02*
G37*
G36*
X262750Y-186829D02*
X260867Y-187204D01*
X259318Y-188239D01*
X259077Y-188364D01*
X257701Y-188334D01*
X256383Y-187454D01*
X254500Y-187080D01*
X252617Y-187454D01*
X251021Y-188521D01*
X249954Y-190117D01*
X249580Y-192000D01*
X249954Y-193883D01*
X251021Y-195479D01*
X252617Y-196546D01*
X254500Y-196921D01*
X256383Y-196546D01*
X257932Y-195511D01*
X258173Y-195386D01*
X259549Y-195416D01*
X260867Y-196296D01*
X262750Y-196670D01*
X264633Y-196296D01*
X266229Y-195229D01*
X267296Y-193633D01*
X267670Y-191750D01*
X267296Y-189867D01*
X266229Y-188271D01*
X264633Y-187204D01*
X262750Y-186829D01*
D02*
G37*
G36*
X-190246Y-179266D02*
X-192115Y-179638D01*
X-193699Y-180697D01*
X-194758Y-182281D01*
X-195130Y-184150D01*
X-194758Y-186019D01*
X-193699Y-187603D01*
X-192115Y-188662D01*
X-190246Y-189034D01*
X-188377Y-188662D01*
X-186793Y-187603D01*
X-185734Y-186019D01*
X-185362Y-184150D01*
X-185734Y-182281D01*
X-186793Y-180697D01*
X-188377Y-179638D01*
X-190246Y-179266D01*
D02*
G37*
G36*
X0Y-179366D02*
X-1869Y-179738D01*
X-3453Y-180797D01*
X-4512Y-182381D01*
X-4884Y-184250D01*
X-4512Y-186119D01*
X-3453Y-187703D01*
X-1869Y-188762D01*
X0Y-189134D01*
X1869Y-188762D01*
X3453Y-187703D01*
X4512Y-186119D01*
X4884Y-184250D01*
X4512Y-182381D01*
X3453Y-180797D01*
X1869Y-179738D01*
X0Y-179366D01*
D02*
G37*
G36*
X-89856Y-182238D02*
X-91725Y-182610D01*
X-93309Y-183669D01*
X-94368Y-185253D01*
X-94740Y-187122D01*
X-94368Y-188991D01*
X-93309Y-190576D01*
X-91725Y-191634D01*
X-89856Y-192006D01*
X-87987Y-191634D01*
X-86403Y-190576D01*
X-85344Y-188991D01*
X-84972Y-187122D01*
X-85344Y-185253D01*
X-86403Y-183669D01*
X-87987Y-182610D01*
X-89856Y-182238D01*
D02*
G37*
G36*
X-78426Y-183254D02*
X-80295Y-183626D01*
X-81879Y-184685D01*
X-82938Y-186269D01*
X-83310Y-188138D01*
X-82938Y-190007D01*
X-81879Y-191592D01*
X-80295Y-192650D01*
X-78426Y-193022D01*
X-76557Y-192650D01*
X-74973Y-191592D01*
X-73914Y-190007D01*
X-73542Y-188138D01*
X-73914Y-186269D01*
X-74973Y-184685D01*
X-76557Y-183626D01*
X-78426Y-183254D01*
D02*
G37*
G36*
X40750Y-186116D02*
X38881Y-186488D01*
X37297Y-187547D01*
X36238Y-189131D01*
X35866Y-191000D01*
X36238Y-192869D01*
X37297Y-194453D01*
X38881Y-195512D01*
X40750Y-195884D01*
X42619Y-195512D01*
X44203Y-194453D01*
X45262Y-192869D01*
X45634Y-191000D01*
X45262Y-189131D01*
X44203Y-187547D01*
X42619Y-186488D01*
X40750Y-186116D01*
D02*
G37*
G36*
X235458Y-187140D02*
X233589Y-187512D01*
X232005Y-188571D01*
X230946Y-190155D01*
X230574Y-192024D01*
X230946Y-193893D01*
X232005Y-195477D01*
X233589Y-196536D01*
X235458Y-196908D01*
X237327Y-196536D01*
X238911Y-195477D01*
X239970Y-193893D01*
X240342Y-192024D01*
X239970Y-190155D01*
X238911Y-188571D01*
X237327Y-187512D01*
X235458Y-187140D01*
D02*
G37*
G36*
X73504Y-188126D02*
X71635Y-188497D01*
X70050Y-189556D01*
X68991Y-191140D01*
X68620Y-193009D01*
X68991Y-194878D01*
X70050Y-196463D01*
X71635Y-197521D01*
X73504Y-197893D01*
X75373Y-197521D01*
X76957Y-196463D01*
X78016Y-194878D01*
X78387Y-193009D01*
X78016Y-191140D01*
X76957Y-189556D01*
X75373Y-188497D01*
X73504Y-188126D01*
D02*
G37*
G36*
X101752Y-189270D02*
X99883Y-189642D01*
X98299Y-190701D01*
X97240Y-192285D01*
X96868Y-194154D01*
X97240Y-196023D01*
X98299Y-197607D01*
X99883Y-198666D01*
X101752Y-199038D01*
X103621Y-198666D01*
X105205Y-197607D01*
X106264Y-196023D01*
X106636Y-194154D01*
X106264Y-192285D01*
X105205Y-190701D01*
X103621Y-189642D01*
X101752Y-189270D01*
D02*
G37*
G36*
X145252Y-176770D02*
X143383Y-177142D01*
X141798Y-178200D01*
X140740Y-179785D01*
X140368Y-181654D01*
X140596Y-182801D01*
X139897Y-184206D01*
X139749Y-184326D01*
X138297Y-185297D01*
X137238Y-186881D01*
X136866Y-188750D01*
X135820Y-190001D01*
X134631Y-190238D01*
X133047Y-191297D01*
X131988Y-192881D01*
X131616Y-194750D01*
X131988Y-196619D01*
X133047Y-198203D01*
X134631Y-199262D01*
X135678Y-199470D01*
X135947Y-200819D01*
X134977Y-201467D01*
X134721Y-201850D01*
X134718Y-201851D01*
X133331Y-201643D01*
X132585Y-199842D01*
X131056Y-197850D01*
X129063Y-196320D01*
X126742Y-195359D01*
X124252Y-195031D01*
X121762Y-195359D01*
X119441Y-196320D01*
X117448Y-197850D01*
X115919Y-199842D01*
X114958Y-202163D01*
X114630Y-204654D01*
X114958Y-207144D01*
X115919Y-209465D01*
X117448Y-211458D01*
X119441Y-212987D01*
X121762Y-213948D01*
X124252Y-214276D01*
X126742Y-213948D01*
X129063Y-212987D01*
X131056Y-211458D01*
X132585Y-209465D01*
X133195Y-207993D01*
X134628Y-207852D01*
X134977Y-208374D01*
X136561Y-209432D01*
X138430Y-209804D01*
X140299Y-209432D01*
X141883Y-208374D01*
X142942Y-206789D01*
X143314Y-204920D01*
X142942Y-203051D01*
X141883Y-201467D01*
X140299Y-200408D01*
X139252Y-200200D01*
X138983Y-198852D01*
X139953Y-198203D01*
X141012Y-196619D01*
X141384Y-194750D01*
X142430Y-193499D01*
X143619Y-193262D01*
X145203Y-192203D01*
X146262Y-190619D01*
X146634Y-188750D01*
X146262Y-186881D01*
X146508Y-186288D01*
X147121Y-186166D01*
X148705Y-185107D01*
X149764Y-183523D01*
X150136Y-181654D01*
X149764Y-179785D01*
X148705Y-178200D01*
X147121Y-177142D01*
X145252Y-176770D01*
D02*
G37*
G36*
X-181356Y-193236D02*
X-183225Y-193608D01*
X-184809Y-194667D01*
X-185868Y-196251D01*
X-186240Y-198120D01*
X-185868Y-199989D01*
X-184809Y-201573D01*
X-183225Y-202632D01*
X-181356Y-203004D01*
X-179487Y-202632D01*
X-177903Y-201573D01*
X-176844Y-199989D01*
X-176472Y-198120D01*
X-176844Y-196251D01*
X-177903Y-194667D01*
X-179487Y-193608D01*
X-181356Y-193236D01*
D02*
G37*
G36*
X-110252Y-193712D02*
X-112121Y-194084D01*
X-113705Y-195143D01*
X-114764Y-196727D01*
X-115136Y-198596D01*
X-114764Y-200465D01*
X-113705Y-202050D01*
X-112121Y-203108D01*
X-110252Y-203480D01*
X-108383Y-203108D01*
X-106798Y-202050D01*
X-105740Y-200465D01*
X-105368Y-198596D01*
X-105740Y-196727D01*
X-106798Y-195143D01*
X-108383Y-194084D01*
X-110252Y-193712D01*
D02*
G37*
G36*
X305562Y-198824D02*
X303693Y-199196D01*
X302109Y-200255D01*
X301050Y-201839D01*
X300678Y-203708D01*
X301050Y-205577D01*
X302109Y-207161D01*
X303693Y-208220D01*
X305562Y-208592D01*
X307431Y-208220D01*
X309015Y-207161D01*
X310074Y-205577D01*
X310446Y-203708D01*
X310074Y-201839D01*
X309015Y-200255D01*
X307431Y-199196D01*
X305562Y-198824D01*
D02*
G37*
G36*
X76750Y-201116D02*
X74881Y-201488D01*
X73297Y-202547D01*
X72238Y-204131D01*
X71866Y-206000D01*
X72238Y-207869D01*
X73297Y-209453D01*
X74881Y-210512D01*
X76750Y-210884D01*
X78619Y-210512D01*
X80203Y-209453D01*
X81262Y-207869D01*
X81634Y-206000D01*
X81262Y-204131D01*
X80203Y-202547D01*
X78619Y-201488D01*
X76750Y-201116D01*
D02*
G37*
G36*
X48502Y-203376D02*
X46633Y-203748D01*
X45049Y-204807D01*
X43990Y-206391D01*
X43618Y-208260D01*
X43990Y-210129D01*
X45049Y-211714D01*
X46633Y-212772D01*
X48502Y-213144D01*
X50371Y-212772D01*
X51956Y-211714D01*
X53014Y-210129D01*
X53386Y-208260D01*
X53014Y-206391D01*
X51956Y-204807D01*
X50371Y-203748D01*
X48502Y-203376D01*
D02*
G37*
G36*
X36502Y-206376D02*
X34633Y-206748D01*
X33048Y-207807D01*
X31990Y-209391D01*
X31618Y-211260D01*
X31990Y-213129D01*
X33048Y-214714D01*
X34633Y-215772D01*
X36502Y-216144D01*
X38371Y-215772D01*
X39955Y-214714D01*
X41014Y-213129D01*
X41386Y-211260D01*
X41014Y-209391D01*
X39955Y-207807D01*
X38371Y-206748D01*
X36502Y-206376D01*
D02*
G37*
G36*
X-163750Y-210366D02*
X-165619Y-210738D01*
X-167203Y-211797D01*
X-168262Y-213381D01*
X-168634Y-215250D01*
X-168262Y-217119D01*
X-167203Y-218703D01*
X-165619Y-219762D01*
X-163750Y-220134D01*
X-161881Y-219762D01*
X-160297Y-218703D01*
X-159238Y-217119D01*
X-158866Y-215250D01*
X-159238Y-213381D01*
X-160297Y-211797D01*
X-161881Y-210738D01*
X-163750Y-210366D01*
D02*
G37*
G36*
X105750Y-218293D02*
X103867Y-218668D01*
X102271Y-219734D01*
X101271Y-221230D01*
X100741Y-221730D01*
X100119Y-221988D01*
X98250Y-221616D01*
X96381Y-221988D01*
X94797Y-223047D01*
X93738Y-224631D01*
X93366Y-226500D01*
X93738Y-228369D01*
X94797Y-229953D01*
X96381Y-231012D01*
X98250Y-231384D01*
X100119Y-231012D01*
X101703Y-229953D01*
X102762Y-228369D01*
X102777Y-228294D01*
X104166Y-227819D01*
X105750Y-228134D01*
X107633Y-227760D01*
X109229Y-226693D01*
X110296Y-225097D01*
X110670Y-223214D01*
X110296Y-221331D01*
X109229Y-219734D01*
X107633Y-218668D01*
X105750Y-218293D01*
D02*
G37*
G36*
X50500Y-214116D02*
X48631Y-214488D01*
X47047Y-215547D01*
X45988Y-217131D01*
X45616Y-219000D01*
X45988Y-220869D01*
X47047Y-222453D01*
X48631Y-223512D01*
X50500Y-223884D01*
X52369Y-223512D01*
X53953Y-222453D01*
X55012Y-220869D01*
X55384Y-219000D01*
X55012Y-217131D01*
X53953Y-215547D01*
X52369Y-214488D01*
X50500Y-214116D01*
D02*
G37*
G36*
X141732Y-214318D02*
X139863Y-214690D01*
X138279Y-215749D01*
X137220Y-217333D01*
X136848Y-219202D01*
X137220Y-221071D01*
X138279Y-222655D01*
X139863Y-223714D01*
X141732Y-224086D01*
X143601Y-223714D01*
X145185Y-222655D01*
X146244Y-221071D01*
X146616Y-219202D01*
X146244Y-217333D01*
X145185Y-215749D01*
X143601Y-214690D01*
X141732Y-214318D01*
D02*
G37*
G36*
X24428Y-219450D02*
X22559Y-219822D01*
X20975Y-220881D01*
X19916Y-222465D01*
X19544Y-224334D01*
X19916Y-226203D01*
X20975Y-227787D01*
X22559Y-228846D01*
X24428Y-229218D01*
X26297Y-228846D01*
X27882Y-227787D01*
X28940Y-226203D01*
X29312Y-224334D01*
X28940Y-222465D01*
X27882Y-220881D01*
X26297Y-219822D01*
X24428Y-219450D01*
D02*
G37*
G36*
X-82254Y-226575D02*
X-84137Y-226950D01*
X-85733Y-228017D01*
X-86691Y-229449D01*
X-87381Y-228988D01*
X-89250Y-228616D01*
X-91119Y-228988D01*
X-92703Y-230047D01*
X-93762Y-231631D01*
X-94134Y-233500D01*
X-93762Y-235369D01*
X-93609Y-235598D01*
X-94373Y-236741D01*
X-95000Y-236616D01*
X-96869Y-236988D01*
X-98453Y-238047D01*
X-99512Y-239631D01*
X-99884Y-241500D01*
X-99512Y-243369D01*
X-98453Y-244953D01*
X-96869Y-246012D01*
X-95000Y-246384D01*
X-93131Y-246012D01*
X-91547Y-244953D01*
X-90488Y-243369D01*
X-90116Y-241500D01*
X-90488Y-239631D01*
X-90641Y-239402D01*
X-89877Y-238259D01*
X-89250Y-238384D01*
X-87381Y-238012D01*
X-85797Y-236953D01*
X-84863Y-235557D01*
X-84137Y-236042D01*
X-82254Y-236416D01*
X-80371Y-236042D01*
X-78775Y-234975D01*
X-77708Y-233379D01*
X-77333Y-231496D01*
X-77708Y-229613D01*
X-78775Y-228017D01*
X-80371Y-226950D01*
X-82254Y-226575D01*
D02*
G37*
G36*
X193802Y-221938D02*
X191933Y-222310D01*
X190349Y-223369D01*
X189290Y-224953D01*
X188918Y-226822D01*
X189290Y-228691D01*
X190349Y-230275D01*
X191933Y-231334D01*
X193802Y-231706D01*
X195671Y-231334D01*
X197255Y-230275D01*
X198314Y-228691D01*
X198686Y-226822D01*
X198314Y-224953D01*
X197255Y-223369D01*
X195671Y-222310D01*
X193802Y-221938D01*
D02*
G37*
G36*
X-157936Y-230124D02*
X-159805Y-230496D01*
X-161390Y-231554D01*
X-162449Y-233139D01*
X-162484Y-233318D01*
X-163658Y-233804D01*
X-164131Y-233488D01*
X-166000Y-233116D01*
X-167869Y-233488D01*
X-169453Y-234547D01*
X-170512Y-236131D01*
X-170884Y-238000D01*
X-170512Y-239869D01*
X-169453Y-241453D01*
X-167869Y-242512D01*
X-166000Y-242884D01*
X-164131Y-242512D01*
X-162547Y-241453D01*
X-161488Y-239869D01*
X-161452Y-239690D01*
X-160279Y-239203D01*
X-159805Y-239520D01*
X-159136Y-239653D01*
X-158262Y-240631D01*
X-158634Y-242500D01*
X-158262Y-244369D01*
X-157203Y-245953D01*
X-155619Y-247012D01*
X-153750Y-247384D01*
X-151881Y-247012D01*
X-150297Y-245953D01*
X-149238Y-244369D01*
X-148866Y-242500D01*
X-149238Y-240631D01*
X-150297Y-239047D01*
X-151881Y-237988D01*
X-152550Y-237855D01*
X-153424Y-236877D01*
X-153053Y-235008D01*
X-153424Y-233139D01*
X-154483Y-231554D01*
X-156067Y-230496D01*
X-157936Y-230124D01*
D02*
G37*
G36*
X-216250Y-238829D02*
X-218133Y-239204D01*
X-219729Y-240271D01*
X-220796Y-241867D01*
X-220997Y-242878D01*
X-222500Y-242579D01*
X-224383Y-242954D01*
X-225979Y-244021D01*
X-227046Y-245617D01*
X-227421Y-247500D01*
X-227046Y-249383D01*
X-225979Y-250979D01*
X-225339Y-251407D01*
Y-252677D01*
X-225479Y-252771D01*
X-226546Y-254367D01*
X-226921Y-256250D01*
X-226546Y-258133D01*
X-225479Y-259729D01*
X-223883Y-260796D01*
X-222000Y-261171D01*
X-220117Y-260796D01*
X-218521Y-259729D01*
X-217454Y-258133D01*
X-217079Y-256250D01*
X-217454Y-254367D01*
X-218521Y-252771D01*
X-219161Y-252343D01*
Y-251073D01*
X-219021Y-250979D01*
X-217954Y-249383D01*
X-217753Y-248372D01*
X-216250Y-248671D01*
X-214367Y-248296D01*
X-212771Y-247229D01*
X-211704Y-245633D01*
X-211329Y-243750D01*
X-211704Y-241867D01*
X-212771Y-240271D01*
X-214367Y-239204D01*
X-216250Y-238829D01*
D02*
G37*
G36*
X-205500Y-233616D02*
X-207369Y-233988D01*
X-208953Y-235047D01*
X-210012Y-236631D01*
X-210384Y-238500D01*
X-210012Y-240369D01*
X-208953Y-241953D01*
X-207369Y-243012D01*
X-205500Y-243384D01*
X-203631Y-243012D01*
X-202047Y-241953D01*
X-200988Y-240369D01*
X-200616Y-238500D01*
X-200988Y-236631D01*
X-202047Y-235047D01*
X-203631Y-233988D01*
X-205500Y-233616D01*
D02*
G37*
G36*
X-135850Y-229542D02*
X-137806Y-229800D01*
X-139629Y-230555D01*
X-141194Y-231756D01*
X-142395Y-233321D01*
X-143150Y-235144D01*
X-143408Y-237100D01*
X-143150Y-239056D01*
X-142395Y-240879D01*
X-141194Y-242444D01*
X-139629Y-243645D01*
X-137806Y-244400D01*
X-135850Y-244658D01*
X-133894Y-244400D01*
X-132071Y-243645D01*
X-131132Y-242925D01*
X-130457Y-243030D01*
X-129663Y-243332D01*
X-128729Y-244729D01*
X-127133Y-245796D01*
X-125250Y-246171D01*
X-123367Y-245796D01*
X-121771Y-244729D01*
X-120704Y-243133D01*
X-120330Y-241250D01*
X-120704Y-239367D01*
X-121771Y-237771D01*
X-123367Y-236704D01*
X-125250Y-236329D01*
X-127065Y-236691D01*
X-127152Y-236695D01*
X-128431Y-236044D01*
X-128550Y-235144D01*
X-129305Y-233321D01*
X-130506Y-231756D01*
X-132071Y-230555D01*
X-133894Y-229800D01*
X-135850Y-229542D01*
D02*
G37*
G36*
X199000Y-238366D02*
X197131Y-238738D01*
X195547Y-239797D01*
X194488Y-241381D01*
X194116Y-243250D01*
X194488Y-245119D01*
X195547Y-246703D01*
X197131Y-247762D01*
X198296Y-247994D01*
X198475Y-248248D01*
X198785Y-249373D01*
X197954Y-250617D01*
X197579Y-252500D01*
X197849Y-253854D01*
X197621Y-254653D01*
X196963Y-255186D01*
X195617Y-255454D01*
X194021Y-256521D01*
X192954Y-258117D01*
X192579Y-260000D01*
X192954Y-261883D01*
X194021Y-263479D01*
X195617Y-264546D01*
X197500Y-264921D01*
X199383Y-264546D01*
X200979Y-263479D01*
X201521D01*
X203117Y-264546D01*
X205000Y-264921D01*
X206883Y-264546D01*
X207798Y-263935D01*
X208750Y-263580D01*
X209702Y-263935D01*
X210617Y-264546D01*
X212500Y-264921D01*
X214383Y-264546D01*
X215979Y-263479D01*
X216521D01*
X218117Y-264546D01*
X220000Y-264921D01*
X221883Y-264546D01*
X222798Y-263935D01*
X223750Y-263580D01*
X224702Y-263935D01*
X225617Y-264546D01*
X227500Y-264921D01*
X229383Y-264546D01*
X230298Y-263935D01*
X231250Y-263580D01*
X232202Y-263935D01*
X233117Y-264546D01*
X235000Y-264921D01*
X236883Y-264546D01*
X237798Y-263935D01*
X238750Y-263580D01*
X239702Y-263935D01*
X240617Y-264546D01*
X242500Y-264921D01*
X244383Y-264546D01*
X245979Y-263479D01*
X247046Y-261883D01*
X247421Y-260000D01*
X247151Y-258646D01*
X247379Y-257847D01*
X248037Y-257314D01*
X249383Y-257046D01*
X250979Y-255979D01*
X252046Y-254383D01*
X252314Y-253037D01*
X252847Y-252379D01*
X253646Y-252151D01*
X255000Y-252421D01*
X256883Y-252046D01*
X258479Y-250979D01*
X259546Y-249383D01*
X259921Y-247500D01*
X259546Y-245617D01*
X258479Y-244021D01*
X256883Y-242954D01*
X255000Y-242579D01*
X253117Y-242954D01*
X251521Y-244021D01*
X250454Y-245617D01*
X250186Y-246963D01*
X249653Y-247621D01*
X248854Y-247849D01*
X247500Y-247579D01*
X245617Y-247954D01*
X244021Y-249021D01*
X243479D01*
X241883Y-247954D01*
X240000Y-247579D01*
X238117Y-247954D01*
X237202Y-248565D01*
X236250Y-248920D01*
X235298Y-248565D01*
X234383Y-247954D01*
X232500Y-247579D01*
X230617Y-247954D01*
X229702Y-248565D01*
X228750Y-248920D01*
X227798Y-248565D01*
X226883Y-247954D01*
X225000Y-247579D01*
X223117Y-247954D01*
X222202Y-248565D01*
X221250Y-248920D01*
X220298Y-248565D01*
X219383Y-247954D01*
X217500Y-247579D01*
X215617Y-247954D01*
X214021Y-249021D01*
X213479D01*
X211883Y-247954D01*
X210000Y-247579D01*
X208117Y-247954D01*
X207202Y-248565D01*
X206250Y-248920D01*
X205298Y-248565D01*
X204383Y-247954D01*
X203188Y-247716D01*
X203021Y-247487D01*
X202693Y-246345D01*
X203512Y-245119D01*
X203884Y-243250D01*
X203512Y-241381D01*
X202453Y-239797D01*
X200869Y-238738D01*
X199000Y-238366D01*
D02*
G37*
G36*
X179832Y-245306D02*
X177963Y-245678D01*
X176379Y-246737D01*
X175320Y-248321D01*
X174948Y-250190D01*
X175320Y-252059D01*
X176379Y-253643D01*
X177963Y-254702D01*
X179832Y-255074D01*
X181701Y-254702D01*
X183285Y-253643D01*
X184344Y-252059D01*
X184716Y-250190D01*
X184344Y-248321D01*
X183285Y-246737D01*
X181701Y-245678D01*
X179832Y-245306D01*
D02*
G37*
G36*
X74254Y-246128D02*
X72385Y-246500D01*
X70800Y-247559D01*
X69742Y-249143D01*
X69370Y-251012D01*
X69742Y-252881D01*
X70800Y-254466D01*
X72385Y-255524D01*
X74254Y-255896D01*
X76123Y-255524D01*
X77707Y-254466D01*
X78766Y-252881D01*
X79138Y-251012D01*
X78766Y-249143D01*
X77707Y-247559D01*
X76123Y-246500D01*
X74254Y-246128D01*
D02*
G37*
G36*
X-252500Y-242579D02*
X-254383Y-242954D01*
X-255979Y-244021D01*
X-257046Y-245617D01*
X-257421Y-247500D01*
X-257046Y-249383D01*
X-255979Y-250979D01*
X-254383Y-252046D01*
X-252500Y-252421D01*
X-250617Y-252046D01*
X-250149Y-251733D01*
X-249233Y-252649D01*
X-249546Y-253117D01*
X-249921Y-255000D01*
X-249546Y-256883D01*
X-248479Y-258479D01*
X-246883Y-259546D01*
X-245000Y-259921D01*
X-243117Y-259546D01*
X-241521Y-258479D01*
X-240454Y-256883D01*
X-240079Y-255000D01*
X-240454Y-253117D01*
X-241521Y-251521D01*
X-243117Y-250454D01*
X-245000Y-250079D01*
X-246883Y-250454D01*
X-247351Y-250767D01*
X-248267Y-249851D01*
X-247954Y-249383D01*
X-247579Y-247500D01*
X-247954Y-245617D01*
X-249021Y-244021D01*
X-250617Y-242954D01*
X-252500Y-242579D01*
D02*
G37*
G36*
X-101001Y-251387D02*
X-103230Y-251681D01*
X-105308Y-252541D01*
X-107092Y-253910D01*
X-108461Y-255694D01*
X-109321Y-257771D01*
X-109614Y-260001D01*
X-109321Y-262230D01*
X-108461Y-264308D01*
X-108301Y-264515D01*
X-109076Y-265423D01*
X-109160Y-265482D01*
X-111000Y-265116D01*
X-112869Y-265488D01*
X-114453Y-266547D01*
X-115512Y-268131D01*
X-115884Y-270000D01*
X-115512Y-271869D01*
X-114453Y-273453D01*
X-112869Y-274512D01*
X-111000Y-274884D01*
X-109131Y-274512D01*
X-107547Y-273453D01*
X-106488Y-271869D01*
X-106116Y-270000D01*
X-106482Y-268160D01*
X-106423Y-268076D01*
X-105515Y-267302D01*
X-105308Y-267460D01*
X-103230Y-268321D01*
X-101001Y-268615D01*
X-98771Y-268321D01*
X-96694Y-267460D01*
X-94910Y-266092D01*
X-93541Y-264308D01*
X-92681Y-262230D01*
X-92387Y-260001D01*
X-92681Y-257771D01*
X-93541Y-255694D01*
X-94910Y-253910D01*
X-96694Y-252541D01*
X-98771Y-251681D01*
X-101001Y-251387D01*
D02*
G37*
G36*
X-74250Y-246616D02*
X-76119Y-246988D01*
X-77703Y-248047D01*
X-78762Y-249631D01*
X-79134Y-251500D01*
X-78762Y-253369D01*
X-77703Y-254953D01*
X-76968Y-255445D01*
Y-256972D01*
X-77453Y-257297D01*
X-78512Y-258881D01*
X-78884Y-260750D01*
X-78512Y-262619D01*
X-77453Y-264203D01*
X-75869Y-265262D01*
X-74000Y-265634D01*
X-73800Y-265594D01*
X-72720Y-266674D01*
X-72885Y-267501D01*
X-72513Y-269370D01*
X-71454Y-270954D01*
X-69870Y-272013D01*
X-68001Y-272385D01*
X-66132Y-272013D01*
X-64547Y-270954D01*
X-63489Y-269370D01*
X-63117Y-267501D01*
X-63219Y-266986D01*
X-62885Y-266607D01*
X-62105Y-266078D01*
X-60503Y-266397D01*
X-58634Y-266025D01*
X-57771Y-265448D01*
X-56628Y-266212D01*
X-56885Y-267501D01*
X-56513Y-269370D01*
X-55454Y-270954D01*
X-53870Y-272013D01*
X-52001Y-272385D01*
X-50132Y-272013D01*
X-48547Y-270954D01*
X-47489Y-269370D01*
X-47117Y-267501D01*
X-47220Y-266985D01*
X-46884Y-266606D01*
X-46105Y-266078D01*
X-44502Y-266397D01*
X-42633Y-266025D01*
X-41963Y-265577D01*
X-40858Y-266366D01*
X-41136Y-267763D01*
X-40764Y-269632D01*
X-39705Y-271217D01*
X-38121Y-272275D01*
X-36252Y-272647D01*
X-34383Y-272275D01*
X-32798Y-271217D01*
X-31740Y-269632D01*
X-31368Y-267763D01*
X-31740Y-265894D01*
X-32798Y-264310D01*
X-32579Y-263236D01*
X-32434Y-263256D01*
X-31326Y-263663D01*
X-30455Y-264966D01*
X-28870Y-266025D01*
X-27001Y-266397D01*
X-25917Y-266181D01*
X-24832Y-267235D01*
X-24885Y-267501D01*
X-24513Y-269370D01*
X-23454Y-270954D01*
X-21870Y-272013D01*
X-20001Y-272385D01*
X-18132Y-272013D01*
X-16547Y-270954D01*
X-15489Y-269370D01*
X-15117Y-267501D01*
X-15220Y-266984D01*
X-14883Y-266604D01*
X-14105Y-266077D01*
X-12501Y-266397D01*
X-10632Y-266025D01*
X-9772Y-265450D01*
X-8629Y-266214D01*
X-8885Y-267501D01*
X-8513Y-269370D01*
X-7454Y-270954D01*
X-5870Y-272013D01*
X-4001Y-272385D01*
X-2132Y-272013D01*
X-547Y-270954D01*
X511Y-269370D01*
X883Y-267501D01*
X511Y-265632D01*
X1547Y-264966D01*
X3131Y-266025D01*
X4366Y-266271D01*
X5022Y-266489D01*
X5292Y-267633D01*
X5117Y-268513D01*
X5488Y-270382D01*
X6547Y-271966D01*
X8131Y-273025D01*
X10000Y-273397D01*
X11869Y-273025D01*
X13454Y-271966D01*
X14513Y-270382D01*
X14884Y-268513D01*
X14801Y-268096D01*
X15501Y-267397D01*
X17370Y-267025D01*
X18954Y-265966D01*
X20013Y-264382D01*
X20385Y-262513D01*
X20013Y-260644D01*
X18954Y-259059D01*
X17370Y-258001D01*
X17046Y-257936D01*
X16913Y-257268D01*
X18057Y-256504D01*
X18631Y-256888D01*
X20500Y-257260D01*
X22369Y-256888D01*
X23267Y-256288D01*
X24410Y-257051D01*
X24368Y-257263D01*
X24739Y-259132D01*
X25798Y-260716D01*
X26816Y-261396D01*
X26519Y-262725D01*
X25132Y-263001D01*
X23548Y-264060D01*
X22489Y-265644D01*
X22118Y-267513D01*
X22489Y-269382D01*
X23548Y-270966D01*
X25132Y-272025D01*
X27001Y-272397D01*
X28870Y-272025D01*
X30455Y-270966D01*
X30869Y-270346D01*
X32139D01*
X32546Y-270954D01*
X34130Y-272013D01*
X35999Y-272385D01*
X37868Y-272013D01*
X39453Y-270954D01*
X40511Y-269370D01*
X40621Y-268818D01*
X41794Y-268332D01*
X42116Y-268547D01*
X43272Y-268777D01*
X43079Y-269751D01*
X43453Y-271634D01*
X44520Y-273230D01*
X46116Y-274297D01*
X47999Y-274671D01*
X49882Y-274297D01*
X51479Y-273230D01*
X52520D01*
X54116Y-274297D01*
X55999Y-274671D01*
X57882Y-274297D01*
X59479Y-273230D01*
X60520D01*
X62116Y-274297D01*
X63999Y-274671D01*
X65882Y-274297D01*
X67478Y-273230D01*
X68520D01*
X70116Y-274297D01*
X71999Y-274671D01*
X73882Y-274297D01*
X75479Y-273230D01*
X76545Y-271634D01*
X76920Y-269751D01*
X76726Y-268777D01*
X77882Y-268547D01*
X79479Y-267480D01*
X80545Y-265884D01*
X80920Y-264001D01*
X80545Y-262118D01*
X79479Y-260522D01*
X77882Y-259455D01*
X75999Y-259080D01*
X74116Y-259455D01*
X72520Y-260522D01*
X71479D01*
X69882Y-259455D01*
X67999Y-259080D01*
X66116Y-259455D01*
X64520Y-260522D01*
X63478D01*
X61882Y-259455D01*
X59999Y-259080D01*
X58116Y-259455D01*
X56520Y-260522D01*
X55479D01*
X53882Y-259455D01*
X51999Y-259080D01*
X50116Y-259455D01*
X48856Y-260297D01*
X47999Y-260437D01*
X47143Y-260297D01*
X45882Y-259455D01*
X43999Y-259080D01*
X42116Y-259455D01*
X40520Y-260522D01*
X39453Y-262118D01*
X39337Y-262700D01*
X38164Y-263186D01*
X37868Y-262989D01*
X35999Y-262617D01*
X34130Y-262989D01*
X32546Y-264047D01*
X32131Y-264668D01*
X30861D01*
X30455Y-264060D01*
X29437Y-263380D01*
X29734Y-262050D01*
X31120Y-261775D01*
X32705Y-260716D01*
X33763Y-259132D01*
X34135Y-257263D01*
X33763Y-255394D01*
X32705Y-253809D01*
X31120Y-252750D01*
X29251Y-252379D01*
X27383Y-252750D01*
X26484Y-253351D01*
X25341Y-252587D01*
X25383Y-252376D01*
X25012Y-250507D01*
X23953Y-248922D01*
X22369Y-247864D01*
X20500Y-247492D01*
X18631Y-247864D01*
X17046Y-248922D01*
X15987Y-250507D01*
X15642Y-252242D01*
X15123Y-252622D01*
X14438Y-252964D01*
X13369Y-252250D01*
X11501Y-251879D01*
X9821Y-252213D01*
X9589Y-252222D01*
X8481Y-251492D01*
X8262Y-250393D01*
X7204Y-248809D01*
X5619Y-247750D01*
X3750Y-247379D01*
X1881Y-247750D01*
X297Y-248809D01*
X-762Y-250393D01*
X-1134Y-252262D01*
X-935Y-253263D01*
X-2078Y-254027D01*
X-2132Y-253990D01*
X-4001Y-253619D01*
X-5870Y-253990D01*
X-6156Y-254182D01*
X-7300Y-253418D01*
X-7117Y-252501D01*
X-7489Y-250632D01*
X-8547Y-249047D01*
X-10132Y-247989D01*
X-12001Y-247617D01*
X-13870Y-247989D01*
X-15454Y-249047D01*
X-16513Y-250632D01*
X-16885Y-252501D01*
X-16851Y-252671D01*
X-17994Y-253435D01*
X-18959Y-252790D01*
X-20828Y-252418D01*
X-21895Y-252630D01*
X-22835Y-252531D01*
X-23275Y-251709D01*
X-23489Y-250632D01*
X-24547Y-249047D01*
X-26132Y-247989D01*
X-28001Y-247617D01*
X-29870Y-247989D01*
X-31454Y-249047D01*
X-32513Y-250632D01*
X-32885Y-252501D01*
X-32702Y-253418D01*
X-33845Y-254182D01*
X-34132Y-253990D01*
X-36001Y-253619D01*
X-37870Y-253990D01*
X-39454Y-255049D01*
X-40513Y-256633D01*
X-40558Y-256860D01*
X-41969Y-257444D01*
X-42633Y-257001D01*
X-44502Y-256629D01*
X-46371Y-257001D01*
X-47537Y-256561D01*
X-48547Y-255049D01*
X-50132Y-253990D01*
X-52001Y-253619D01*
X-53870Y-253990D01*
X-54156Y-254182D01*
X-55299Y-253418D01*
X-55117Y-252501D01*
X-55489Y-250632D01*
X-56547Y-249047D01*
X-58132Y-247989D01*
X-60001Y-247617D01*
X-61870Y-247989D01*
X-63454Y-249047D01*
X-64513Y-250632D01*
X-64723Y-251686D01*
X-65072Y-252517D01*
X-66102Y-252608D01*
X-67056Y-252418D01*
X-68303Y-252666D01*
X-69406Y-251700D01*
X-69366Y-251500D01*
X-69738Y-249631D01*
X-70797Y-248047D01*
X-72381Y-246988D01*
X-74250Y-246616D01*
D02*
G37*
G36*
X100999Y-253404D02*
X99292Y-253629D01*
X97701Y-254288D01*
X96335Y-255336D01*
X95287Y-256703D01*
X94628Y-258293D01*
X94403Y-260001D01*
X94628Y-261708D01*
X95287Y-263299D01*
X96335Y-264665D01*
X97701Y-265714D01*
X99292Y-266373D01*
X99413Y-266388D01*
X99489Y-266595D01*
X99576Y-267691D01*
X98244Y-268581D01*
X97186Y-270165D01*
X96814Y-272034D01*
X97186Y-273903D01*
X98244Y-275487D01*
X99829Y-276546D01*
X101698Y-276918D01*
X103567Y-276546D01*
X105151Y-275487D01*
X106210Y-273903D01*
X106582Y-272034D01*
X106210Y-270165D01*
X105151Y-268581D01*
X103567Y-267522D01*
X103353Y-267479D01*
X103223Y-266159D01*
X104297Y-265714D01*
X105664Y-264665D01*
X106712Y-263299D01*
X107371Y-261708D01*
X107596Y-260001D01*
X107371Y-258293D01*
X106712Y-256703D01*
X105664Y-255336D01*
X104297Y-254288D01*
X102706Y-253629D01*
X100999Y-253404D01*
D02*
G37*
G36*
X-159500Y-260866D02*
X-161369Y-261238D01*
X-162953Y-262297D01*
X-164012Y-263881D01*
X-164384Y-265750D01*
X-164012Y-267619D01*
X-162953Y-269203D01*
Y-269297D01*
X-164012Y-270881D01*
X-164384Y-272750D01*
X-164012Y-274619D01*
X-162953Y-276203D01*
X-161700Y-277041D01*
X-162262Y-277881D01*
X-162634Y-279750D01*
X-162262Y-281619D01*
X-161203Y-283203D01*
X-159619Y-284262D01*
X-157750Y-284634D01*
X-155881Y-284262D01*
X-154297Y-283203D01*
X-153238Y-281619D01*
X-152866Y-279750D01*
X-153238Y-277881D01*
X-154297Y-276297D01*
X-155549Y-275459D01*
X-154988Y-274619D01*
X-154616Y-272750D01*
X-154988Y-270881D01*
X-156047Y-269297D01*
Y-269203D01*
X-154988Y-267619D01*
X-154616Y-265750D01*
X-154988Y-263881D01*
X-156047Y-262297D01*
X-157631Y-261238D01*
X-159500Y-260866D01*
D02*
G37*
%LPD*%
D16*
X-436787Y446252D02*
X-439327Y448791D01*
X-444405D01*
X-446944Y446252D01*
Y436095D01*
X-444405Y433556D01*
X-439327D01*
X-436787Y436095D01*
Y441174D01*
X-441866D01*
X-431709Y433556D02*
Y448791D01*
X-421552Y433556D01*
Y448791D01*
X-416474D02*
Y433556D01*
X-408856D01*
X-406317Y436095D01*
Y446252D01*
X-408856Y448791D01*
X-416474D01*
D79*
X272500Y272500D02*
D03*
X272500Y-272500D02*
D03*
D81*
X109250Y-294500D02*
D03*
X-286000Y-187500D02*
D03*
X147574Y-244739D02*
D03*
X147467Y-237502D02*
D03*
X-102870Y35814D02*
D03*
X-11751Y-164008D02*
D03*
X-20250Y-198616D02*
D03*
X-112000Y-40500D02*
D03*
X137250Y-18250D02*
D03*
X161000Y245250D02*
D03*
X8500Y196500D02*
D03*
X-111750Y207500D02*
D03*
X-80404Y171654D02*
D03*
X112750Y-208250D02*
D03*
X-45500Y-127500D02*
D03*
X24500Y-110500D02*
D03*
X45750Y-121750D02*
D03*
X12861Y163321D02*
D03*
X6564Y157025D02*
D03*
X144507Y48752D02*
D03*
X18502Y-99154D02*
D03*
X48250Y-22500D02*
D03*
X-12751Y-88504D02*
D03*
X-26001Y-139007D02*
D03*
X-18502Y-150846D02*
D03*
X-19252Y-96180D02*
D03*
X11418Y-161404D02*
D03*
X37585Y-180654D02*
D03*
X73500Y-49250D02*
D03*
X146630Y-29726D02*
D03*
X72003Y-217761D02*
D03*
X86252Y-165154D02*
D03*
X-42612Y-120066D02*
D03*
X-76454Y-54356D02*
D03*
X-154442Y-251574D02*
D03*
X-88500Y-207500D02*
D03*
X-110750Y286750D02*
D03*
X-75250Y221000D02*
D03*
X-93750Y18500D02*
D03*
X-100000Y12500D02*
D03*
X-47500Y2500D02*
D03*
X-41500Y14500D02*
D03*
X-83000Y243500D02*
D03*
X-77500Y237750D02*
D03*
X-61502Y96904D02*
D03*
X-45152Y122314D02*
D03*
X-42612Y129934D02*
D03*
X-27502Y167820D02*
D03*
X-37585Y180654D02*
D03*
X-17418D02*
D03*
X-78750Y77750D02*
D03*
X-68502Y160154D02*
D03*
X-92998Y115296D02*
D03*
X-19252Y153820D02*
D03*
X-11418Y161404D02*
D03*
X-25252Y110154D02*
D03*
X-18502Y99154D02*
D03*
X-73500Y49250D02*
D03*
X-116023Y76674D02*
D03*
X-111023Y93133D02*
D03*
X48724Y44000D02*
D03*
X33750Y9000D02*
D03*
X39250Y15000D02*
D03*
X-70929Y-36472D02*
D03*
X-81280Y-48006D02*
D03*
X113030Y39878D02*
D03*
X78740Y172974D02*
D03*
X50800Y153924D02*
D03*
X42926Y161290D02*
D03*
X65750Y207046D02*
D03*
X72136Y200660D02*
D03*
X107250Y225360D02*
D03*
X100987Y231499D02*
D03*
X-161002Y-245014D02*
D03*
X-110690Y-241500D02*
D03*
X-117250Y-248060D02*
D03*
X25252Y139846D02*
D03*
X18502Y150845D02*
D03*
X154750Y7749D02*
D03*
X61502Y153096D02*
D03*
X42612Y120065D02*
D03*
X45152Y127685D02*
D03*
X17419Y69345D02*
D03*
X27502Y55346D02*
D03*
X37586Y69345D02*
D03*
X68502Y89846D02*
D03*
X92998Y134703D02*
D03*
X85500Y84249D02*
D03*
X11419Y88596D02*
D03*
X19252Y96179D02*
D03*
X27502Y82179D02*
D03*
X146630Y220273D02*
D03*
X178752Y39595D02*
D03*
X111023Y156866D02*
D03*
X116023Y173325D02*
D03*
X126023Y88116D02*
D03*
X88500Y207499D02*
D03*
X-68502Y-89846D02*
D03*
X-85500Y-84250D02*
D03*
X-126023Y-88117D02*
D03*
X-154750Y242250D02*
D03*
X-178752Y210404D02*
D03*
X-146630Y29726D02*
D03*
X-73500Y-200750D02*
D03*
X-146630Y-220274D02*
D03*
X-92998Y-134704D02*
D03*
X-178752Y-39596D02*
D03*
X-78752Y-171346D02*
D03*
X-27502Y-55346D02*
D03*
X-17418Y-69346D02*
D03*
X-37585D02*
D03*
X-27502Y-82180D02*
D03*
X-61502Y-153096D02*
D03*
X-111023Y-156867D02*
D03*
X-116023Y-173325D02*
D03*
X-154750Y-7750D02*
D03*
X88332Y-45606D02*
D03*
X19252Y-153820D02*
D03*
X92998Y-115296D02*
D03*
X178752Y-210404D02*
D03*
X68502Y-160154D02*
D03*
X78752Y-78654D02*
D03*
X17418Y-180654D02*
D03*
X42612Y-129934D02*
D03*
X61502Y-96904D02*
D03*
X111023Y-93133D02*
D03*
X116023Y-76674D02*
D03*
X126023Y-161883D02*
D03*
D82*
X295402Y-36830D02*
D03*
X288290D02*
D03*
Y-43942D02*
D03*
X295402D02*
D03*
Y-51054D02*
D03*
X288290D02*
D03*
Y-58166D02*
D03*
X295402D02*
D03*
X-120396Y244856D02*
D03*
X-75692Y203708D02*
D03*
X-210000Y-270000D02*
D03*
X-110000Y-290000D02*
D03*
X20000Y-30000D02*
D03*
X-10000Y40000D02*
D03*
Y60000D02*
D03*
X-30000Y250000D02*
D03*
X-50000Y270000D02*
D03*
X-30000D02*
D03*
Y290000D02*
D03*
X-50000D02*
D03*
X70000Y230000D02*
D03*
X50000D02*
D03*
Y250000D02*
D03*
Y270000D02*
D03*
Y290000D02*
D03*
X70000D02*
D03*
X90000D02*
D03*
X110000D02*
D03*
Y270000D02*
D03*
X90000D02*
D03*
X70000D02*
D03*
Y250000D02*
D03*
X90000D02*
D03*
X110000D02*
D03*
X150000Y230000D02*
D03*
X286004Y72898D02*
D03*
X293370Y51562D02*
D03*
X285750D02*
D03*
X292500Y30000D02*
D03*
X285000D02*
D03*
X222500Y40000D02*
D03*
X215000D02*
D03*
X200000Y0D02*
D03*
X150000Y-10000D02*
D03*
X130000D02*
D03*
X110000D02*
D03*
X140000Y10000D02*
D03*
X90000Y-10000D02*
D03*
X100000Y10000D02*
D03*
Y20000D02*
D03*
X70000D02*
D03*
X-10000Y140000D02*
D03*
Y90000D02*
D03*
X-20000Y30000D02*
D03*
X-90000Y10000D02*
D03*
X-120000Y-10000D02*
D03*
X-160000Y-20000D02*
D03*
X-130000Y0D02*
D03*
X-160000Y10000D02*
D03*
X-180000D02*
D03*
X-200000D02*
D03*
X245500Y-293500D02*
D03*
Y-286000D02*
D03*
Y-278500D02*
D03*
X238000D02*
D03*
X230500D02*
D03*
X223000D02*
D03*
X215500D02*
D03*
X208000D02*
D03*
X-138257Y138507D02*
D03*
X-138523Y108780D02*
D03*
Y98780D02*
D03*
X-128523D02*
D03*
X-138523Y118780D02*
D03*
Y128780D02*
D03*
X-128523Y138780D02*
D03*
X-118523D02*
D03*
X-108523D02*
D03*
X138257Y111505D02*
D03*
X138523Y141220D02*
D03*
Y151220D02*
D03*
X128523D02*
D03*
X138523Y131220D02*
D03*
Y121220D02*
D03*
X128523Y111220D02*
D03*
X118523D02*
D03*
X108523D02*
D03*
X138523Y-108779D02*
D03*
Y-98779D02*
D03*
X128523D02*
D03*
X138523Y-118779D02*
D03*
Y-128779D02*
D03*
Y-138526D02*
D03*
X128523Y-138780D02*
D03*
X118523D02*
D03*
X108523D02*
D03*
X190000Y242250D02*
D03*
X184042Y216829D02*
D03*
X191042D02*
D03*
X184042Y238329D02*
D03*
Y223829D02*
D03*
Y231329D02*
D03*
X191042Y223829D02*
D03*
Y231329D02*
D03*
X196292Y237829D02*
D03*
X203792D02*
D03*
X220000Y270000D02*
D03*
X250000Y292500D02*
D03*
X220000D02*
D03*
X245196Y285800D02*
D03*
Y278300D02*
D03*
X231196Y292800D02*
D03*
X238696D02*
D03*
X224196Y278800D02*
D03*
Y286300D02*
D03*
X-175000Y265000D02*
D03*
X-182500D02*
D03*
X-175000Y272500D02*
D03*
X-182500D02*
D03*
X-177500Y295000D02*
D03*
Y287500D02*
D03*
Y280000D02*
D03*
X-185000D02*
D03*
Y287500D02*
D03*
Y295000D02*
D03*
X-245000Y277500D02*
D03*
X-247500Y287500D02*
D03*
Y295000D02*
D03*
X-206250Y279250D02*
D03*
X-226000D02*
D03*
X190000Y-258750D02*
D03*
X183250Y-256750D02*
D03*
X176250Y-256750D02*
D03*
X-214250Y-60750D02*
D03*
X-221750D02*
D03*
X-213750Y-39750D02*
D03*
X-221250D02*
D03*
X-289250Y-24000D02*
D03*
X-285250Y-29750D02*
D03*
X-293250D02*
D03*
X-292750Y-52000D02*
D03*
X-285250D02*
D03*
X-286000Y27500D02*
D03*
X-293500D02*
D03*
X-286000Y35000D02*
D03*
X-293500D02*
D03*
X-286000Y42500D02*
D03*
X-293500D02*
D03*
Y50000D02*
D03*
X-286000D02*
D03*
Y57500D02*
D03*
X-293500D02*
D03*
X-185000Y52500D02*
D03*
X-192500D02*
D03*
X-200000Y45000D02*
D03*
Y52500D02*
D03*
Y60000D02*
D03*
X-207500Y67500D02*
D03*
Y60000D02*
D03*
Y52500D02*
D03*
Y45000D02*
D03*
X-222500Y-30000D02*
D03*
X-215000Y-22500D02*
D03*
X-222500Y-22500D02*
D03*
X-215000Y-15000D02*
D03*
Y-7500D02*
D03*
X-222500Y7500D02*
D03*
X-215000Y0D02*
D03*
X-222500Y-7500D02*
D03*
Y-15000D02*
D03*
Y0D02*
D03*
X215000D02*
D03*
Y15000D02*
D03*
Y7500D02*
D03*
X222500Y15000D02*
D03*
Y0D02*
D03*
Y7500D02*
D03*
X230000D02*
D03*
Y-7500D02*
D03*
X192398Y-42430D02*
D03*
Y-49930D02*
D03*
X199898Y-57430D02*
D03*
Y-49930D02*
D03*
Y-42430D02*
D03*
X207398Y-57430D02*
D03*
Y-49930D02*
D03*
Y-64430D02*
D03*
Y-42430D02*
D03*
X214898D02*
D03*
X222398D02*
D03*
X-245000Y-270000D02*
D03*
Y-277500D02*
D03*
Y-285000D02*
D03*
X-237500Y-282500D02*
D03*
X-230000D02*
D03*
X-222500Y-285000D02*
D03*
Y-277500D02*
D03*
Y-270000D02*
D03*
X-182500Y-240000D02*
D03*
X-197500D02*
D03*
X-190000D02*
D03*
X-182500Y-232500D02*
D03*
X-190000D02*
D03*
X-182500Y-225000D02*
D03*
X-190000D02*
D03*
X-182500Y-217500D02*
D03*
X-190000D02*
D03*
Y-210000D02*
D03*
X-108523Y-111220D02*
D03*
X-118523D02*
D03*
X-128523D02*
D03*
X-138523D02*
D03*
Y-121220D02*
D03*
Y-131220D02*
D03*
X-128523Y-151220D02*
D03*
X-138523D02*
D03*
Y-141220D02*
D03*
X-108523Y128780D02*
D03*
Y118780D02*
D03*
X-118523Y128780D02*
D03*
Y118780D02*
D03*
Y108780D02*
D03*
X-108523D02*
D03*
X47999Y-250251D02*
D03*
X55999D02*
D03*
X63999D02*
D03*
X39999D02*
D03*
X67999Y-256001D02*
D03*
X43999D02*
D03*
X51999D02*
D03*
X59999D02*
D03*
X156443Y38846D02*
D03*
X108523Y121220D02*
D03*
Y131220D02*
D03*
Y141220D02*
D03*
X128523Y121220D02*
D03*
X118523D02*
D03*
Y131220D02*
D03*
Y141220D02*
D03*
X128523Y131220D02*
D03*
Y141220D02*
D03*
X-128523Y108780D02*
D03*
Y118780D02*
D03*
Y128780D02*
D03*
X-156442Y211154D02*
D03*
Y-38846D02*
D03*
X-108523Y-121220D02*
D03*
Y-131220D02*
D03*
Y-141220D02*
D03*
X-118523D02*
D03*
Y-121220D02*
D03*
Y-131220D02*
D03*
X-128523Y-121220D02*
D03*
Y-131220D02*
D03*
Y-141220D02*
D03*
X156442Y-211154D02*
D03*
X108523Y-128779D02*
D03*
X118523Y-118779D02*
D03*
X108523D02*
D03*
X118523Y-128779D02*
D03*
X128523D02*
D03*
Y-118779D02*
D03*
X108523Y-108779D02*
D03*
X118523D02*
D03*
X128523D02*
D03*
X100000Y325000D02*
D03*
X110000D02*
D03*
X80000D02*
D03*
X70000D02*
D03*
X110000Y315000D02*
D03*
Y305000D02*
D03*
Y335000D02*
D03*
Y345000D02*
D03*
X100000Y315000D02*
D03*
Y305000D02*
D03*
Y335000D02*
D03*
Y345000D02*
D03*
X70000Y315000D02*
D03*
Y305000D02*
D03*
Y335000D02*
D03*
Y345000D02*
D03*
X80000Y315000D02*
D03*
Y305000D02*
D03*
Y335000D02*
D03*
Y345000D02*
D03*
X90000D02*
D03*
Y335000D02*
D03*
Y305000D02*
D03*
Y315000D02*
D03*
X-151252Y234404D02*
D03*
D84*
X90000Y325000D02*
D03*
M02*
